M48
; DRILL file {KiCad (5.1.2)-1} date 25.08.2019 21:54:12
; FORMAT={-:-/ absolute / inch / decimal}
; #@! TF.CreationDate,2019-08-25T21:54:12+02:00
; #@! TF.GenerationSoftware,Kicad,Pcbnew,(5.1.2)-1
FMAT,2
INCH
T1C0.0315
T2C0.0354
T3C0.0394
T4C0.0512
%
G90
G05
T1
X6.8Y-4.425
X6.8Y-4.525
X7.0Y-4.0
X7.1Y-4.0
X7.2Y-4.0
X6.675Y-4.425
X6.675Y-4.525
X7.325Y-4.325
X7.325Y-4.425
X6.7Y-4.2
X6.8Y-4.2
X6.9Y-4.2
X6.925Y-4.425
X6.925Y-4.525
X7.0Y-4.65
X7.1969Y-4.65
X7.45Y-4.325
X7.45Y-4.425
X7.175Y-4.425
X7.175Y-4.525
X7.05Y-4.425
X7.05Y-4.525
X6.7Y-4.0
X6.8Y-4.0
X6.9Y-4.0
X7.0Y-4.2
X7.1Y-4.2
X7.2Y-4.2
T2
X7.4Y-4.0
X7.4Y-4.1
T3
X6.4803Y-3.96
X6.4803Y-4.4324
X7.325Y-4.55
X7.325Y-4.65
X7.325Y-4.75
X6.12Y-4.735
X6.22Y-4.735
X6.32Y-4.735
X6.42Y-4.735
X6.52Y-4.735
X6.62Y-4.735
X6.72Y-4.735
X6.82Y-4.735
X6.47Y-3.785
X6.57Y-3.785
X6.67Y-3.785
X6.77Y-3.785
X6.87Y-3.785
X6.97Y-3.785
X7.07Y-3.785
X7.17Y-3.785
X6.57Y-4.635
X6.67Y-4.635
X6.77Y-4.635
X6.87Y-4.635
T4
X5.998Y-4.4344
X6.0Y-3.96
X6.5571Y-4.1982
T0
M30
