G04 #@! TF.GenerationSoftware,KiCad,Pcbnew,5.1.4+dfsg1-1*
G04 #@! TF.CreationDate,2020-08-30T00:54:54+02:00*
G04 #@! TF.ProjectId,C64Saver2,43363453-6176-4657-9232-2e6b69636164,rev?*
G04 #@! TF.SameCoordinates,Original*
G04 #@! TF.FileFunction,Legend,Bot*
G04 #@! TF.FilePolarity,Positive*
%FSLAX46Y46*%
G04 Gerber Fmt 4.6, Leading zero omitted, Abs format (unit mm)*
G04 Created by KiCad (PCBNEW 5.1.4+dfsg1-1) date 2020-08-30 00:54:54*
%MOMM*%
%LPD*%
G04 APERTURE LIST*
%ADD10C,0.300000*%
%ADD11C,0.150000*%
%ADD12C,0.250000*%
G04 APERTURE END LIST*
D10*
X152000000Y-101428571D02*
X151714285Y-101428571D01*
X151571428Y-101500000D01*
X151428571Y-101642857D01*
X151357142Y-101928571D01*
X151357142Y-102428571D01*
X151428571Y-102714285D01*
X151571428Y-102857142D01*
X151714285Y-102928571D01*
X152000000Y-102928571D01*
X152142857Y-102857142D01*
X152285714Y-102714285D01*
X152357142Y-102428571D01*
X152357142Y-101928571D01*
X152285714Y-101642857D01*
X152142857Y-101500000D01*
X152000000Y-101428571D01*
X150714285Y-101428571D02*
X150714285Y-102642857D01*
X150642857Y-102785714D01*
X150571428Y-102857142D01*
X150428571Y-102928571D01*
X150142857Y-102928571D01*
X150000000Y-102857142D01*
X149928571Y-102785714D01*
X149857142Y-102642857D01*
X149857142Y-101428571D01*
X149357142Y-101428571D02*
X148500000Y-101428571D01*
X148928571Y-102928571D02*
X148928571Y-101428571D01*
X175791714Y-106678571D02*
X175791714Y-105178571D01*
X175077428Y-106678571D02*
X175077428Y-105178571D01*
X174220285Y-106678571D01*
X174220285Y-105178571D01*
D11*
X140462000Y-106299000D02*
X140462000Y-83693000D01*
X146685000Y-106299000D02*
X140462000Y-106299000D01*
X146685000Y-112522000D02*
X146685000Y-106299000D01*
X184404000Y-112522000D02*
X146685000Y-112522000D01*
X184404000Y-89916000D02*
X184404000Y-112522000D01*
X178181000Y-89916000D02*
X184404000Y-89916000D01*
X178181000Y-83693000D02*
X178181000Y-89916000D01*
X140462000Y-83693000D02*
X178181000Y-83693000D01*
D12*
X157556571Y-91202857D02*
X157608952Y-91255238D01*
X157766095Y-91307619D01*
X157870857Y-91307619D01*
X158028000Y-91255238D01*
X158132761Y-91150476D01*
X158185142Y-91045714D01*
X158237523Y-90836190D01*
X158237523Y-90679047D01*
X158185142Y-90469523D01*
X158132761Y-90364761D01*
X158028000Y-90260000D01*
X157870857Y-90207619D01*
X157766095Y-90207619D01*
X157608952Y-90260000D01*
X157556571Y-90312380D01*
X156613714Y-90207619D02*
X156823238Y-90207619D01*
X156928000Y-90260000D01*
X156980380Y-90312380D01*
X157085142Y-90469523D01*
X157137523Y-90679047D01*
X157137523Y-91098095D01*
X157085142Y-91202857D01*
X157032761Y-91255238D01*
X156928000Y-91307619D01*
X156718476Y-91307619D01*
X156613714Y-91255238D01*
X156561333Y-91202857D01*
X156508952Y-91098095D01*
X156508952Y-90836190D01*
X156561333Y-90731428D01*
X156613714Y-90679047D01*
X156718476Y-90626666D01*
X156928000Y-90626666D01*
X157032761Y-90679047D01*
X157085142Y-90731428D01*
X157137523Y-90836190D01*
X155566095Y-90574285D02*
X155566095Y-91307619D01*
X155828000Y-90155238D02*
X156089904Y-90940952D01*
X155408952Y-90940952D01*
X154204190Y-91255238D02*
X154047047Y-91307619D01*
X153785142Y-91307619D01*
X153680380Y-91255238D01*
X153628000Y-91202857D01*
X153575619Y-91098095D01*
X153575619Y-90993333D01*
X153628000Y-90888571D01*
X153680380Y-90836190D01*
X153785142Y-90783809D01*
X153994666Y-90731428D01*
X154099428Y-90679047D01*
X154151809Y-90626666D01*
X154204190Y-90521904D01*
X154204190Y-90417142D01*
X154151809Y-90312380D01*
X154099428Y-90260000D01*
X153994666Y-90207619D01*
X153732761Y-90207619D01*
X153575619Y-90260000D01*
X152632761Y-91307619D02*
X152632761Y-90731428D01*
X152685142Y-90626666D01*
X152789904Y-90574285D01*
X152999428Y-90574285D01*
X153104190Y-90626666D01*
X152632761Y-91255238D02*
X152737523Y-91307619D01*
X152999428Y-91307619D01*
X153104190Y-91255238D01*
X153156571Y-91150476D01*
X153156571Y-91045714D01*
X153104190Y-90940952D01*
X152999428Y-90888571D01*
X152737523Y-90888571D01*
X152632761Y-90836190D01*
X152213714Y-90574285D02*
X151951809Y-91307619D01*
X151689904Y-90574285D01*
X150851809Y-91255238D02*
X150956571Y-91307619D01*
X151166095Y-91307619D01*
X151270857Y-91255238D01*
X151323238Y-91150476D01*
X151323238Y-90731428D01*
X151270857Y-90626666D01*
X151166095Y-90574285D01*
X150956571Y-90574285D01*
X150851809Y-90626666D01*
X150799428Y-90731428D01*
X150799428Y-90836190D01*
X151323238Y-90940952D01*
X150328000Y-91307619D02*
X150328000Y-90574285D01*
X150328000Y-90783809D02*
X150275619Y-90679047D01*
X150223238Y-90626666D01*
X150118476Y-90574285D01*
X150013714Y-90574285D01*
X156456571Y-93207619D02*
X156823238Y-92683809D01*
X157085142Y-93207619D02*
X157085142Y-92107619D01*
X156666095Y-92107619D01*
X156561333Y-92160000D01*
X156508952Y-92212380D01*
X156456571Y-92317142D01*
X156456571Y-92474285D01*
X156508952Y-92579047D01*
X156561333Y-92631428D01*
X156666095Y-92683809D01*
X157085142Y-92683809D01*
X155566095Y-93155238D02*
X155670857Y-93207619D01*
X155880380Y-93207619D01*
X155985142Y-93155238D01*
X156037523Y-93050476D01*
X156037523Y-92631428D01*
X155985142Y-92526666D01*
X155880380Y-92474285D01*
X155670857Y-92474285D01*
X155566095Y-92526666D01*
X155513714Y-92631428D01*
X155513714Y-92736190D01*
X156037523Y-92840952D01*
X155147047Y-92474285D02*
X154885142Y-93207619D01*
X154623238Y-92474285D01*
X153418476Y-92212380D02*
X153366095Y-92160000D01*
X153261333Y-92107619D01*
X152999428Y-92107619D01*
X152894666Y-92160000D01*
X152842285Y-92212380D01*
X152789904Y-92317142D01*
X152789904Y-92421904D01*
X152842285Y-92579047D01*
X153470857Y-93207619D01*
X152789904Y-93207619D01*
X152318476Y-93102857D02*
X152266095Y-93155238D01*
X152318476Y-93207619D01*
X152370857Y-93155238D01*
X152318476Y-93102857D01*
X152318476Y-93207619D01*
X151323238Y-92474285D02*
X151323238Y-93207619D01*
X151585142Y-92055238D02*
X151847047Y-92840952D01*
X151166095Y-92840952D01*
X158813714Y-94531428D02*
X158656571Y-94583809D01*
X158604190Y-94636190D01*
X158551809Y-94740952D01*
X158551809Y-94898095D01*
X158604190Y-95002857D01*
X158656571Y-95055238D01*
X158761333Y-95107619D01*
X159180380Y-95107619D01*
X159180380Y-94007619D01*
X158813714Y-94007619D01*
X158708952Y-94060000D01*
X158656571Y-94112380D01*
X158604190Y-94217142D01*
X158604190Y-94321904D01*
X158656571Y-94426666D01*
X158708952Y-94479047D01*
X158813714Y-94531428D01*
X159180380Y-94531428D01*
X158185142Y-94007619D02*
X157923238Y-95107619D01*
X157713714Y-94321904D01*
X157504190Y-95107619D01*
X157242285Y-94007619D01*
X156875619Y-94793333D02*
X156351809Y-94793333D01*
X156980380Y-95107619D02*
X156613714Y-94007619D01*
X156247047Y-95107619D01*
X155251809Y-95002857D02*
X155304190Y-95055238D01*
X155461333Y-95107619D01*
X155566095Y-95107619D01*
X155723238Y-95055238D01*
X155828000Y-94950476D01*
X155880380Y-94845714D01*
X155932761Y-94636190D01*
X155932761Y-94479047D01*
X155880380Y-94269523D01*
X155828000Y-94164761D01*
X155723238Y-94060000D01*
X155566095Y-94007619D01*
X155461333Y-94007619D01*
X155304190Y-94060000D01*
X155251809Y-94112380D01*
X154780380Y-95107619D02*
X154780380Y-94007619D01*
X154151809Y-95107619D02*
X154623238Y-94479047D01*
X154151809Y-94007619D02*
X154780380Y-94636190D01*
X152894666Y-94112380D02*
X152842285Y-94060000D01*
X152737523Y-94007619D01*
X152475619Y-94007619D01*
X152370857Y-94060000D01*
X152318476Y-94112380D01*
X152266095Y-94217142D01*
X152266095Y-94321904D01*
X152318476Y-94479047D01*
X152947047Y-95107619D01*
X152266095Y-95107619D01*
X151585142Y-94007619D02*
X151480380Y-94007619D01*
X151375619Y-94060000D01*
X151323238Y-94112380D01*
X151270857Y-94217142D01*
X151218476Y-94426666D01*
X151218476Y-94688571D01*
X151270857Y-94898095D01*
X151323238Y-95002857D01*
X151375619Y-95055238D01*
X151480380Y-95107619D01*
X151585142Y-95107619D01*
X151689904Y-95055238D01*
X151742285Y-95002857D01*
X151794666Y-94898095D01*
X151847047Y-94688571D01*
X151847047Y-94426666D01*
X151794666Y-94217142D01*
X151742285Y-94112380D01*
X151689904Y-94060000D01*
X151585142Y-94007619D01*
X150170857Y-95107619D02*
X150799428Y-95107619D01*
X150485142Y-95107619D02*
X150485142Y-94007619D01*
X150589904Y-94164761D01*
X150694666Y-94269523D01*
X150799428Y-94321904D01*
X149542285Y-94479047D02*
X149647047Y-94426666D01*
X149699428Y-94374285D01*
X149751809Y-94269523D01*
X149751809Y-94217142D01*
X149699428Y-94112380D01*
X149647047Y-94060000D01*
X149542285Y-94007619D01*
X149332761Y-94007619D01*
X149228000Y-94060000D01*
X149175619Y-94112380D01*
X149123238Y-94217142D01*
X149123238Y-94269523D01*
X149175619Y-94374285D01*
X149228000Y-94426666D01*
X149332761Y-94479047D01*
X149542285Y-94479047D01*
X149647047Y-94531428D01*
X149699428Y-94583809D01*
X149751809Y-94688571D01*
X149751809Y-94898095D01*
X149699428Y-95002857D01*
X149647047Y-95055238D01*
X149542285Y-95107619D01*
X149332761Y-95107619D01*
X149228000Y-95055238D01*
X149175619Y-95002857D01*
X149123238Y-94898095D01*
X149123238Y-94688571D01*
X149175619Y-94583809D01*
X149228000Y-94531428D01*
X149332761Y-94479047D01*
D10*
X147885476Y-99030476D02*
X147885476Y-99268571D01*
X147825952Y-99387619D01*
X147766428Y-99447142D01*
X147587857Y-99566190D01*
X147349761Y-99625714D01*
X146873571Y-99625714D01*
X146754523Y-99566190D01*
X146695000Y-99506666D01*
X146635476Y-99387619D01*
X146635476Y-99149523D01*
X146695000Y-99030476D01*
X146754523Y-98970952D01*
X146873571Y-98911428D01*
X147171190Y-98911428D01*
X147290238Y-98970952D01*
X147349761Y-99030476D01*
X147409285Y-99149523D01*
X147409285Y-99387619D01*
X147349761Y-99506666D01*
X147290238Y-99566190D01*
X147171190Y-99625714D01*
X146635476Y-99982857D02*
X147885476Y-100399523D01*
X146635476Y-100816190D01*
X147528333Y-101173333D02*
X147528333Y-101768571D01*
X147885476Y-101054285D02*
X146635476Y-101470952D01*
X147885476Y-101887619D01*
X147766428Y-103018571D02*
X147825952Y-102959047D01*
X147885476Y-102780476D01*
X147885476Y-102661428D01*
X147825952Y-102482857D01*
X147706904Y-102363809D01*
X147587857Y-102304285D01*
X147349761Y-102244761D01*
X147171190Y-102244761D01*
X146933095Y-102304285D01*
X146814047Y-102363809D01*
X146695000Y-102482857D01*
X146635476Y-102661428D01*
X146635476Y-102780476D01*
X146695000Y-102959047D01*
X146754523Y-103018571D01*
X146695000Y-92392619D02*
X146635476Y-92273571D01*
X146635476Y-92095000D01*
X146695000Y-91916428D01*
X146814047Y-91797380D01*
X146933095Y-91737857D01*
X147171190Y-91678333D01*
X147349761Y-91678333D01*
X147587857Y-91737857D01*
X147706904Y-91797380D01*
X147825952Y-91916428D01*
X147885476Y-92095000D01*
X147885476Y-92214047D01*
X147825952Y-92392619D01*
X147766428Y-92452142D01*
X147349761Y-92452142D01*
X147349761Y-92214047D01*
X147885476Y-92987857D02*
X146635476Y-92987857D01*
X147885476Y-93702142D01*
X146635476Y-93702142D01*
X147885476Y-94297380D02*
X146635476Y-94297380D01*
X146635476Y-94595000D01*
X146695000Y-94773571D01*
X146814047Y-94892619D01*
X146933095Y-94952142D01*
X147171190Y-95011666D01*
X147349761Y-95011666D01*
X147587857Y-94952142D01*
X147706904Y-94892619D01*
X147825952Y-94773571D01*
X147885476Y-94595000D01*
X147885476Y-94297380D01*
X146635476Y-88153904D02*
X146635476Y-87558666D01*
X147230714Y-87499142D01*
X147171190Y-87558666D01*
X147111666Y-87677714D01*
X147111666Y-87975333D01*
X147171190Y-88094380D01*
X147230714Y-88153904D01*
X147349761Y-88213428D01*
X147647380Y-88213428D01*
X147766428Y-88153904D01*
X147825952Y-88094380D01*
X147885476Y-87975333D01*
X147885476Y-87677714D01*
X147825952Y-87558666D01*
X147766428Y-87499142D01*
X146635476Y-88570571D02*
X147885476Y-88987238D01*
X146635476Y-89403904D01*
X177976523Y-93329095D02*
X177976523Y-93924333D01*
X177381285Y-93983857D01*
X177440809Y-93924333D01*
X177500333Y-93805285D01*
X177500333Y-93507666D01*
X177440809Y-93388619D01*
X177381285Y-93329095D01*
X177262238Y-93269571D01*
X176964619Y-93269571D01*
X176845571Y-93329095D01*
X176786047Y-93388619D01*
X176726523Y-93507666D01*
X176726523Y-93805285D01*
X176786047Y-93924333D01*
X176845571Y-93983857D01*
X177976523Y-92912428D02*
X176726523Y-92495761D01*
X177976523Y-92079095D01*
X177917000Y-98869380D02*
X177976523Y-98988428D01*
X177976523Y-99167000D01*
X177917000Y-99345571D01*
X177797952Y-99464619D01*
X177678904Y-99524142D01*
X177440809Y-99583666D01*
X177262238Y-99583666D01*
X177024142Y-99524142D01*
X176905095Y-99464619D01*
X176786047Y-99345571D01*
X176726523Y-99167000D01*
X176726523Y-99047952D01*
X176786047Y-98869380D01*
X176845571Y-98809857D01*
X177262238Y-98809857D01*
X177262238Y-99047952D01*
X176726523Y-98274142D02*
X177976523Y-98274142D01*
X176726523Y-97559857D01*
X177976523Y-97559857D01*
X176726523Y-96964619D02*
X177976523Y-96964619D01*
X177976523Y-96667000D01*
X177917000Y-96488428D01*
X177797952Y-96369380D01*
X177678904Y-96309857D01*
X177440809Y-96250333D01*
X177262238Y-96250333D01*
X177024142Y-96309857D01*
X176905095Y-96369380D01*
X176786047Y-96488428D01*
X176726523Y-96667000D01*
X176726523Y-96964619D01*
X176726523Y-107217523D02*
X176726523Y-106979428D01*
X176786047Y-106860380D01*
X176845571Y-106800857D01*
X177024142Y-106681809D01*
X177262238Y-106622285D01*
X177738428Y-106622285D01*
X177857476Y-106681809D01*
X177917000Y-106741333D01*
X177976523Y-106860380D01*
X177976523Y-107098476D01*
X177917000Y-107217523D01*
X177857476Y-107277047D01*
X177738428Y-107336571D01*
X177440809Y-107336571D01*
X177321761Y-107277047D01*
X177262238Y-107217523D01*
X177202714Y-107098476D01*
X177202714Y-106860380D01*
X177262238Y-106741333D01*
X177321761Y-106681809D01*
X177440809Y-106622285D01*
X177976523Y-106265142D02*
X176726523Y-105848476D01*
X177976523Y-105431809D01*
X177083666Y-105074666D02*
X177083666Y-104479428D01*
X176726523Y-105193714D02*
X177976523Y-104777047D01*
X176726523Y-104360380D01*
X176845571Y-103229428D02*
X176786047Y-103288952D01*
X176726523Y-103467523D01*
X176726523Y-103586571D01*
X176786047Y-103765142D01*
X176905095Y-103884190D01*
X177024142Y-103943714D01*
X177262238Y-104003238D01*
X177440809Y-104003238D01*
X177678904Y-103943714D01*
X177797952Y-103884190D01*
X177917000Y-103765142D01*
X177976523Y-103586571D01*
X177976523Y-103467523D01*
X177917000Y-103288952D01*
X177857476Y-103229428D01*
M02*
