G04 #@! TF.GenerationSoftware,KiCad,Pcbnew,5.1.4+dfsg1-1*
G04 #@! TF.CreationDate,2020-08-30T00:54:54+02:00*
G04 #@! TF.ProjectId,C64Saver2,43363453-6176-4657-9232-2e6b69636164,rev?*
G04 #@! TF.SameCoordinates,Original*
G04 #@! TF.FileFunction,Legend,Top*
G04 #@! TF.FilePolarity,Positive*
%FSLAX46Y46*%
G04 Gerber Fmt 4.6, Leading zero omitted, Abs format (unit mm)*
G04 Created by KiCad (PCBNEW 5.1.4+dfsg1-1) date 2020-08-30 00:54:54*
%MOMM*%
%LPD*%
G04 APERTURE LIST*
%ADD10C,0.150000*%
%ADD11C,0.300000*%
%ADD12C,0.120000*%
G04 APERTURE END LIST*
D10*
X140462000Y-106299000D02*
X140462000Y-83693000D01*
X146685000Y-106299000D02*
X140462000Y-106299000D01*
X146685000Y-112522000D02*
X146685000Y-106299000D01*
X184404000Y-112522000D02*
X146685000Y-112522000D01*
X184404000Y-89916000D02*
X184404000Y-112522000D01*
X178181000Y-89916000D02*
X184404000Y-89916000D01*
X178181000Y-83693000D02*
X178181000Y-89916000D01*
X140462000Y-83693000D02*
X178181000Y-83693000D01*
D11*
X147885476Y-103026523D02*
X147885476Y-102788428D01*
X147825952Y-102669380D01*
X147766428Y-102609857D01*
X147587857Y-102490809D01*
X147349761Y-102431285D01*
X146873571Y-102431285D01*
X146754523Y-102490809D01*
X146695000Y-102550333D01*
X146635476Y-102669380D01*
X146635476Y-102907476D01*
X146695000Y-103026523D01*
X146754523Y-103086047D01*
X146873571Y-103145571D01*
X147171190Y-103145571D01*
X147290238Y-103086047D01*
X147349761Y-103026523D01*
X147409285Y-102907476D01*
X147409285Y-102669380D01*
X147349761Y-102550333D01*
X147290238Y-102490809D01*
X147171190Y-102431285D01*
X146635476Y-102074142D02*
X147885476Y-101657476D01*
X146635476Y-101240809D01*
X147528333Y-100883666D02*
X147528333Y-100288428D01*
X147885476Y-101002714D02*
X146635476Y-100586047D01*
X147885476Y-100169380D01*
X147766428Y-99038428D02*
X147825952Y-99097952D01*
X147885476Y-99276523D01*
X147885476Y-99395571D01*
X147825952Y-99574142D01*
X147706904Y-99693190D01*
X147587857Y-99752714D01*
X147349761Y-99812238D01*
X147171190Y-99812238D01*
X146933095Y-99752714D01*
X146814047Y-99693190D01*
X146695000Y-99574142D01*
X146635476Y-99395571D01*
X146635476Y-99276523D01*
X146695000Y-99097952D01*
X146754523Y-99038428D01*
X146695000Y-94297380D02*
X146635476Y-94416428D01*
X146635476Y-94595000D01*
X146695000Y-94773571D01*
X146814047Y-94892619D01*
X146933095Y-94952142D01*
X147171190Y-95011666D01*
X147349761Y-95011666D01*
X147587857Y-94952142D01*
X147706904Y-94892619D01*
X147825952Y-94773571D01*
X147885476Y-94595000D01*
X147885476Y-94475952D01*
X147825952Y-94297380D01*
X147766428Y-94237857D01*
X147349761Y-94237857D01*
X147349761Y-94475952D01*
X147885476Y-93702142D02*
X146635476Y-93702142D01*
X147885476Y-92987857D01*
X146635476Y-92987857D01*
X147885476Y-92392619D02*
X146635476Y-92392619D01*
X146635476Y-92095000D01*
X146695000Y-91916428D01*
X146814047Y-91797380D01*
X146933095Y-91737857D01*
X147171190Y-91678333D01*
X147349761Y-91678333D01*
X147587857Y-91737857D01*
X147706904Y-91797380D01*
X147825952Y-91916428D01*
X147885476Y-92095000D01*
X147885476Y-92392619D01*
X146635476Y-88503095D02*
X146635476Y-89098333D01*
X147230714Y-89157857D01*
X147171190Y-89098333D01*
X147111666Y-88979285D01*
X147111666Y-88681666D01*
X147171190Y-88562619D01*
X147230714Y-88503095D01*
X147349761Y-88443571D01*
X147647380Y-88443571D01*
X147766428Y-88503095D01*
X147825952Y-88562619D01*
X147885476Y-88681666D01*
X147885476Y-88979285D01*
X147825952Y-89098333D01*
X147766428Y-89157857D01*
X146635476Y-88086428D02*
X147885476Y-87669761D01*
X146635476Y-87253095D01*
X174220285Y-106723571D02*
X174220285Y-105223571D01*
X174934571Y-106723571D02*
X174934571Y-105223571D01*
X175791714Y-106723571D01*
X175791714Y-105223571D01*
X176726523Y-103348476D02*
X176726523Y-103586571D01*
X176786047Y-103705619D01*
X176845571Y-103765142D01*
X177024142Y-103884190D01*
X177262238Y-103943714D01*
X177738428Y-103943714D01*
X177857476Y-103884190D01*
X177917000Y-103824666D01*
X177976523Y-103705619D01*
X177976523Y-103467523D01*
X177917000Y-103348476D01*
X177857476Y-103288952D01*
X177738428Y-103229428D01*
X177440809Y-103229428D01*
X177321761Y-103288952D01*
X177262238Y-103348476D01*
X177202714Y-103467523D01*
X177202714Y-103705619D01*
X177262238Y-103824666D01*
X177321761Y-103884190D01*
X177440809Y-103943714D01*
X177976523Y-104300857D02*
X176726523Y-104717523D01*
X177976523Y-105134190D01*
X177083666Y-105491333D02*
X177083666Y-106086571D01*
X176726523Y-105372285D02*
X177976523Y-105788952D01*
X176726523Y-106205619D01*
X176845571Y-107336571D02*
X176786047Y-107277047D01*
X176726523Y-107098476D01*
X176726523Y-106979428D01*
X176786047Y-106800857D01*
X176905095Y-106681809D01*
X177024142Y-106622285D01*
X177262238Y-106562761D01*
X177440809Y-106562761D01*
X177678904Y-106622285D01*
X177797952Y-106681809D01*
X177917000Y-106800857D01*
X177976523Y-106979428D01*
X177976523Y-107098476D01*
X177917000Y-107277047D01*
X177857476Y-107336571D01*
X177917000Y-96964619D02*
X177976523Y-96845571D01*
X177976523Y-96667000D01*
X177917000Y-96488428D01*
X177797952Y-96369380D01*
X177678904Y-96309857D01*
X177440809Y-96250333D01*
X177262238Y-96250333D01*
X177024142Y-96309857D01*
X176905095Y-96369380D01*
X176786047Y-96488428D01*
X176726523Y-96667000D01*
X176726523Y-96786047D01*
X176786047Y-96964619D01*
X176845571Y-97024142D01*
X177262238Y-97024142D01*
X177262238Y-96786047D01*
X176726523Y-97559857D02*
X177976523Y-97559857D01*
X176726523Y-98274142D01*
X177976523Y-98274142D01*
X176726523Y-98869380D02*
X177976523Y-98869380D01*
X177976523Y-99167000D01*
X177917000Y-99345571D01*
X177797952Y-99464619D01*
X177678904Y-99524142D01*
X177440809Y-99583666D01*
X177262238Y-99583666D01*
X177024142Y-99524142D01*
X176905095Y-99464619D01*
X176786047Y-99345571D01*
X176726523Y-99167000D01*
X176726523Y-98869380D01*
X177976523Y-92725904D02*
X177976523Y-92130666D01*
X177381285Y-92071142D01*
X177440809Y-92130666D01*
X177500333Y-92249714D01*
X177500333Y-92547333D01*
X177440809Y-92666380D01*
X177381285Y-92725904D01*
X177262238Y-92785428D01*
X176964619Y-92785428D01*
X176845571Y-92725904D01*
X176786047Y-92666380D01*
X176726523Y-92547333D01*
X176726523Y-92249714D01*
X176786047Y-92130666D01*
X176845571Y-92071142D01*
X177976523Y-93142571D02*
X176726523Y-93559238D01*
X177976523Y-93975904D01*
D12*
X169428180Y-101255136D02*
G75*
G03X175463482Y-101256000I3017820J1179136D01*
G01*
X169428180Y-98896864D02*
G75*
G02X175463482Y-98896000I3017820J-1179136D01*
G01*
X169428180Y-98896864D02*
G75*
G03X169428518Y-101256000I3017820J-1179136D01*
G01*
X172446000Y-103276000D02*
X172446000Y-96876000D01*
X172406000Y-103276000D02*
X172406000Y-96876000D01*
X172366000Y-103276000D02*
X172366000Y-96876000D01*
X172326000Y-103274000D02*
X172326000Y-96878000D01*
X172286000Y-103273000D02*
X172286000Y-96879000D01*
X172246000Y-103270000D02*
X172246000Y-96882000D01*
X172206000Y-103268000D02*
X172206000Y-96884000D01*
X172166000Y-103264000D02*
X172166000Y-101056000D01*
X172166000Y-99096000D02*
X172166000Y-96888000D01*
X172126000Y-103261000D02*
X172126000Y-101056000D01*
X172126000Y-99096000D02*
X172126000Y-96891000D01*
X172086000Y-103256000D02*
X172086000Y-101056000D01*
X172086000Y-99096000D02*
X172086000Y-96896000D01*
X172046000Y-103252000D02*
X172046000Y-101056000D01*
X172046000Y-99096000D02*
X172046000Y-96900000D01*
X172006000Y-103246000D02*
X172006000Y-101056000D01*
X172006000Y-99096000D02*
X172006000Y-96906000D01*
X171966000Y-103241000D02*
X171966000Y-101056000D01*
X171966000Y-99096000D02*
X171966000Y-96911000D01*
X171926000Y-103234000D02*
X171926000Y-101056000D01*
X171926000Y-99096000D02*
X171926000Y-96918000D01*
X171886000Y-103228000D02*
X171886000Y-101056000D01*
X171886000Y-99096000D02*
X171886000Y-96924000D01*
X171846000Y-103220000D02*
X171846000Y-101056000D01*
X171846000Y-99096000D02*
X171846000Y-96932000D01*
X171806000Y-103213000D02*
X171806000Y-101056000D01*
X171806000Y-99096000D02*
X171806000Y-96939000D01*
X171766000Y-103204000D02*
X171766000Y-101056000D01*
X171766000Y-99096000D02*
X171766000Y-96948000D01*
X171725000Y-103195000D02*
X171725000Y-101056000D01*
X171725000Y-99096000D02*
X171725000Y-96957000D01*
X171685000Y-103186000D02*
X171685000Y-101056000D01*
X171685000Y-99096000D02*
X171685000Y-96966000D01*
X171645000Y-103176000D02*
X171645000Y-101056000D01*
X171645000Y-99096000D02*
X171645000Y-96976000D01*
X171605000Y-103166000D02*
X171605000Y-101056000D01*
X171605000Y-99096000D02*
X171605000Y-96986000D01*
X171565000Y-103155000D02*
X171565000Y-101056000D01*
X171565000Y-99096000D02*
X171565000Y-96997000D01*
X171525000Y-103143000D02*
X171525000Y-101056000D01*
X171525000Y-99096000D02*
X171525000Y-97009000D01*
X171485000Y-103131000D02*
X171485000Y-101056000D01*
X171485000Y-99096000D02*
X171485000Y-97021000D01*
X171445000Y-103118000D02*
X171445000Y-101056000D01*
X171445000Y-99096000D02*
X171445000Y-97034000D01*
X171405000Y-103105000D02*
X171405000Y-101056000D01*
X171405000Y-99096000D02*
X171405000Y-97047000D01*
X171365000Y-103091000D02*
X171365000Y-101056000D01*
X171365000Y-99096000D02*
X171365000Y-97061000D01*
X171325000Y-103077000D02*
X171325000Y-101056000D01*
X171325000Y-99096000D02*
X171325000Y-97075000D01*
X171285000Y-103062000D02*
X171285000Y-101056000D01*
X171285000Y-99096000D02*
X171285000Y-97090000D01*
X171245000Y-103046000D02*
X171245000Y-101056000D01*
X171245000Y-99096000D02*
X171245000Y-97106000D01*
X171205000Y-103030000D02*
X171205000Y-101056000D01*
X171205000Y-99096000D02*
X171205000Y-97122000D01*
X171165000Y-103013000D02*
X171165000Y-101056000D01*
X171165000Y-99096000D02*
X171165000Y-97139000D01*
X171125000Y-102995000D02*
X171125000Y-101056000D01*
X171125000Y-99096000D02*
X171125000Y-97157000D01*
X171085000Y-102977000D02*
X171085000Y-101056000D01*
X171085000Y-99096000D02*
X171085000Y-97175000D01*
X171045000Y-102958000D02*
X171045000Y-101056000D01*
X171045000Y-99096000D02*
X171045000Y-97194000D01*
X171005000Y-102939000D02*
X171005000Y-101056000D01*
X171005000Y-99096000D02*
X171005000Y-97213000D01*
X170965000Y-102919000D02*
X170965000Y-101056000D01*
X170965000Y-99096000D02*
X170965000Y-97233000D01*
X170925000Y-102898000D02*
X170925000Y-101056000D01*
X170925000Y-99096000D02*
X170925000Y-97254000D01*
X170885000Y-102876000D02*
X170885000Y-101056000D01*
X170885000Y-99096000D02*
X170885000Y-97276000D01*
X170845000Y-102854000D02*
X170845000Y-101056000D01*
X170845000Y-99096000D02*
X170845000Y-97298000D01*
X170805000Y-102831000D02*
X170805000Y-101056000D01*
X170805000Y-99096000D02*
X170805000Y-97321000D01*
X170765000Y-102807000D02*
X170765000Y-101056000D01*
X170765000Y-99096000D02*
X170765000Y-97345000D01*
X170725000Y-102782000D02*
X170725000Y-101056000D01*
X170725000Y-99096000D02*
X170725000Y-97370000D01*
X170685000Y-102757000D02*
X170685000Y-101056000D01*
X170685000Y-99096000D02*
X170685000Y-97395000D01*
X170645000Y-102730000D02*
X170645000Y-101056000D01*
X170645000Y-99096000D02*
X170645000Y-97422000D01*
X170605000Y-102703000D02*
X170605000Y-101056000D01*
X170605000Y-99096000D02*
X170605000Y-97449000D01*
X170565000Y-102675000D02*
X170565000Y-101056000D01*
X170565000Y-99096000D02*
X170565000Y-97477000D01*
X170525000Y-102646000D02*
X170525000Y-101056000D01*
X170525000Y-99096000D02*
X170525000Y-97506000D01*
X170485000Y-102616000D02*
X170485000Y-101056000D01*
X170485000Y-99096000D02*
X170485000Y-97536000D01*
X170445000Y-102586000D02*
X170445000Y-101056000D01*
X170445000Y-99096000D02*
X170445000Y-97566000D01*
X170405000Y-102554000D02*
X170405000Y-101056000D01*
X170405000Y-99096000D02*
X170405000Y-97598000D01*
X170365000Y-102521000D02*
X170365000Y-101056000D01*
X170365000Y-99096000D02*
X170365000Y-97631000D01*
X170325000Y-102487000D02*
X170325000Y-101056000D01*
X170325000Y-99096000D02*
X170325000Y-97665000D01*
X170285000Y-102451000D02*
X170285000Y-101056000D01*
X170285000Y-99096000D02*
X170285000Y-97701000D01*
X170245000Y-102415000D02*
X170245000Y-101056000D01*
X170245000Y-99096000D02*
X170245000Y-97737000D01*
X170205000Y-102377000D02*
X170205000Y-97775000D01*
X170165000Y-102338000D02*
X170165000Y-97814000D01*
X170125000Y-102298000D02*
X170125000Y-97854000D01*
X170085000Y-102256000D02*
X170085000Y-97896000D01*
X170045000Y-102213000D02*
X170045000Y-97939000D01*
X170005000Y-102168000D02*
X170005000Y-97984000D01*
X169965000Y-102121000D02*
X169965000Y-98031000D01*
X169925000Y-102073000D02*
X169925000Y-98079000D01*
X169885000Y-102022000D02*
X169885000Y-98130000D01*
X169845000Y-101970000D02*
X169845000Y-98182000D01*
X169805000Y-101915000D02*
X169805000Y-98237000D01*
X169765000Y-101857000D02*
X169765000Y-98295000D01*
X169725000Y-101797000D02*
X169725000Y-98355000D01*
X169685000Y-101734000D02*
X169685000Y-98418000D01*
X169645000Y-101667000D02*
X169645000Y-98485000D01*
X169605000Y-101596000D02*
X169605000Y-98556000D01*
X169565000Y-101521000D02*
X169565000Y-98631000D01*
X169525000Y-101440000D02*
X169525000Y-98712000D01*
X169485000Y-101354000D02*
X169485000Y-98798000D01*
X169445000Y-101260000D02*
X169445000Y-98892000D01*
X169405000Y-101157000D02*
X169405000Y-98995000D01*
X169365000Y-101042000D02*
X169365000Y-99110000D01*
X169325000Y-100910000D02*
X169325000Y-99242000D01*
X169285000Y-100752000D02*
X169285000Y-99400000D01*
X169245000Y-100544000D02*
X169245000Y-99608000D01*
X175896000Y-100076000D02*
X174696000Y-100076000D01*
X175296000Y-100726000D02*
X175296000Y-99426000D01*
X148209000Y-85725000D02*
X140589000Y-85725000D01*
X140589000Y-106045000D02*
X148209000Y-106045000D01*
X141859000Y-106045000D02*
X141859000Y-85725000D01*
X148209000Y-85725000D02*
X148209000Y-106045000D01*
X140589000Y-85725000D02*
X140589000Y-106045000D01*
X151848000Y-103660000D02*
X153968000Y-103660000D01*
X153968000Y-103660000D02*
X153968000Y-99540000D01*
X153968000Y-99540000D02*
X151848000Y-99540000D01*
X151848000Y-99540000D02*
X151848000Y-103660000D01*
X152908000Y-104430000D02*
X152908000Y-103660000D01*
X152908000Y-98770000D02*
X152908000Y-99540000D01*
X151848000Y-103000000D02*
X153968000Y-103000000D01*
X151174000Y-99540000D02*
X149054000Y-99540000D01*
X149054000Y-99540000D02*
X149054000Y-103660000D01*
X149054000Y-103660000D02*
X151174000Y-103660000D01*
X151174000Y-103660000D02*
X151174000Y-99540000D01*
X150114000Y-98770000D02*
X150114000Y-99540000D01*
X150114000Y-104430000D02*
X150114000Y-103660000D01*
X151174000Y-100200000D02*
X149054000Y-100200000D01*
X176784000Y-110744000D02*
X184404000Y-110744000D01*
X184404000Y-90424000D02*
X176784000Y-90424000D01*
X183134000Y-90424000D02*
X183134000Y-110744000D01*
X176784000Y-110744000D02*
X176784000Y-90424000D01*
X184404000Y-110744000D02*
X184404000Y-90424000D01*
X164266000Y-98276000D02*
X164266000Y-101876000D01*
X164277522Y-98237522D02*
G75*
G02X168716000Y-100076000I1838478J-1838478D01*
G01*
X164277522Y-101914478D02*
G75*
G03X168716000Y-100076000I1838478J1838478D01*
G01*
X155797600Y-96261600D02*
X157297600Y-96261600D01*
X157297600Y-96261600D02*
X157297600Y-96161600D01*
X157297600Y-96161600D02*
X159197600Y-96161600D01*
X155797600Y-89361600D02*
X157297600Y-89361600D01*
X157297600Y-89361600D02*
X157297600Y-89461600D01*
X157297600Y-89461600D02*
X158397600Y-89461600D01*
X176590000Y-87690000D02*
X176590000Y-85030000D01*
X158750000Y-87690000D02*
X176590000Y-87690000D01*
X158750000Y-85030000D02*
X176590000Y-85030000D01*
X158750000Y-87690000D02*
X158750000Y-85030000D01*
X157480000Y-87690000D02*
X156150000Y-87690000D01*
X156150000Y-87690000D02*
X156150000Y-86360000D01*
X167700000Y-111820000D02*
X167700000Y-109160000D01*
X149860000Y-111820000D02*
X167700000Y-111820000D01*
X149860000Y-109160000D02*
X167700000Y-109160000D01*
X149860000Y-111820000D02*
X149860000Y-109160000D01*
X148590000Y-111820000D02*
X147260000Y-111820000D01*
X147260000Y-111820000D02*
X147260000Y-110490000D01*
X168970000Y-109280000D02*
X168970000Y-106620000D01*
X161290000Y-109280000D02*
X168970000Y-109280000D01*
X161290000Y-106620000D02*
X168970000Y-106620000D01*
X161290000Y-109280000D02*
X161290000Y-106620000D01*
X160020000Y-109280000D02*
X158690000Y-109280000D01*
X158690000Y-109280000D02*
X158690000Y-107950000D01*
X174850000Y-90850000D02*
X174850000Y-94570000D01*
X173130000Y-90850000D02*
X173130000Y-94570000D01*
X172310000Y-90850000D02*
X172310000Y-94570000D01*
X170590000Y-90850000D02*
X170590000Y-94570000D01*
X169770000Y-90850000D02*
X169770000Y-94570000D01*
X168050000Y-90850000D02*
X168050000Y-94570000D01*
X167230000Y-90850000D02*
X167230000Y-94570000D01*
X165510000Y-90850000D02*
X165510000Y-94570000D01*
X164690000Y-90850000D02*
X164690000Y-94570000D01*
X162970000Y-90850000D02*
X162970000Y-94570000D01*
X162150000Y-90850000D02*
X162150000Y-94570000D01*
X160430000Y-90850000D02*
X160430000Y-94570000D01*
X158848000Y-100756000D02*
X158848000Y-104476000D01*
X157128000Y-100756000D02*
X157128000Y-104476000D01*
X154588000Y-104476000D02*
X154588000Y-100756000D01*
X156308000Y-104476000D02*
X156308000Y-100756000D01*
X159440000Y-98276000D02*
X159440000Y-101876000D01*
X160167205Y-97751816D02*
G75*
G03X159440000Y-98276000I1122795J-2324184D01*
G01*
X162388807Y-97719600D02*
G75*
G02X163890000Y-100076000I-1098807J-2356400D01*
G01*
X162388807Y-102432400D02*
G75*
G03X163890000Y-100076000I-1098807J2356400D01*
G01*
X160167205Y-102400184D02*
G75*
G02X159440000Y-101876000I1122795J2324184D01*
G01*
D10*
X171537333Y-104497142D02*
X171489714Y-104544761D01*
X171346857Y-104592380D01*
X171251619Y-104592380D01*
X171108761Y-104544761D01*
X171013523Y-104449523D01*
X170965904Y-104354285D01*
X170918285Y-104163809D01*
X170918285Y-104020952D01*
X170965904Y-103830476D01*
X171013523Y-103735238D01*
X171108761Y-103640000D01*
X171251619Y-103592380D01*
X171346857Y-103592380D01*
X171489714Y-103640000D01*
X171537333Y-103687619D01*
X172489714Y-104592380D02*
X171918285Y-104592380D01*
X172204000Y-104592380D02*
X172204000Y-103592380D01*
X172108761Y-103735238D01*
X172013523Y-103830476D01*
X171918285Y-103878095D01*
X141271666Y-84161380D02*
X141271666Y-84875666D01*
X141224047Y-85018523D01*
X141128809Y-85113761D01*
X140985952Y-85161380D01*
X140890714Y-85161380D01*
X142176428Y-84161380D02*
X141985952Y-84161380D01*
X141890714Y-84209000D01*
X141843095Y-84256619D01*
X141747857Y-84399476D01*
X141700238Y-84589952D01*
X141700238Y-84970904D01*
X141747857Y-85066142D01*
X141795476Y-85113761D01*
X141890714Y-85161380D01*
X142081190Y-85161380D01*
X142176428Y-85113761D01*
X142224047Y-85066142D01*
X142271666Y-84970904D01*
X142271666Y-84732809D01*
X142224047Y-84637571D01*
X142176428Y-84589952D01*
X142081190Y-84542333D01*
X141890714Y-84542333D01*
X141795476Y-84589952D01*
X141747857Y-84637571D01*
X141700238Y-84732809D01*
X152169904Y-107640380D02*
X152169904Y-106640380D01*
X152408000Y-106640380D01*
X152550857Y-106688000D01*
X152646095Y-106783238D01*
X152693714Y-106878476D01*
X152741333Y-107068952D01*
X152741333Y-107211809D01*
X152693714Y-107402285D01*
X152646095Y-107497523D01*
X152550857Y-107592761D01*
X152408000Y-107640380D01*
X152169904Y-107640380D01*
X153122285Y-106735619D02*
X153169904Y-106688000D01*
X153265142Y-106640380D01*
X153503238Y-106640380D01*
X153598476Y-106688000D01*
X153646095Y-106735619D01*
X153693714Y-106830857D01*
X153693714Y-106926095D01*
X153646095Y-107068952D01*
X153074666Y-107640380D01*
X153693714Y-107640380D01*
X149375904Y-107640380D02*
X149375904Y-106640380D01*
X149614000Y-106640380D01*
X149756857Y-106688000D01*
X149852095Y-106783238D01*
X149899714Y-106878476D01*
X149947333Y-107068952D01*
X149947333Y-107211809D01*
X149899714Y-107402285D01*
X149852095Y-107497523D01*
X149756857Y-107592761D01*
X149614000Y-107640380D01*
X149375904Y-107640380D01*
X150280666Y-106640380D02*
X150899714Y-106640380D01*
X150566380Y-107021333D01*
X150709238Y-107021333D01*
X150804476Y-107068952D01*
X150852095Y-107116571D01*
X150899714Y-107211809D01*
X150899714Y-107449904D01*
X150852095Y-107545142D01*
X150804476Y-107592761D01*
X150709238Y-107640380D01*
X150423523Y-107640380D01*
X150328285Y-107592761D01*
X150280666Y-107545142D01*
X177438726Y-111212380D02*
X177438726Y-111926666D01*
X177391107Y-112069523D01*
X177295869Y-112164761D01*
X177153012Y-112212380D01*
X177057774Y-112212380D01*
X178438726Y-112212380D02*
X177867298Y-112212380D01*
X178153012Y-112212380D02*
X178153012Y-111212380D01*
X178057774Y-111355238D01*
X177962536Y-111450476D01*
X177867298Y-111498095D01*
X165631904Y-104084380D02*
X165631904Y-103084380D01*
X165870000Y-103084380D01*
X166012857Y-103132000D01*
X166108095Y-103227238D01*
X166155714Y-103322476D01*
X166203333Y-103512952D01*
X166203333Y-103655809D01*
X166155714Y-103846285D01*
X166108095Y-103941523D01*
X166012857Y-104036761D01*
X165870000Y-104084380D01*
X165631904Y-104084380D01*
X167155714Y-104084380D02*
X166584285Y-104084380D01*
X166870000Y-104084380D02*
X166870000Y-103084380D01*
X166774761Y-103227238D01*
X166679523Y-103322476D01*
X166584285Y-103370095D01*
X149380361Y-88812619D02*
X149285123Y-88765000D01*
X149189885Y-88669761D01*
X149047028Y-88526904D01*
X148951790Y-88479285D01*
X148856552Y-88479285D01*
X148904171Y-88717380D02*
X148808933Y-88669761D01*
X148713695Y-88574523D01*
X148666076Y-88384047D01*
X148666076Y-88050714D01*
X148713695Y-87860238D01*
X148808933Y-87765000D01*
X148904171Y-87717380D01*
X149094647Y-87717380D01*
X149189885Y-87765000D01*
X149285123Y-87860238D01*
X149332742Y-88050714D01*
X149332742Y-88384047D01*
X149285123Y-88574523D01*
X149189885Y-88669761D01*
X149094647Y-88717380D01*
X148904171Y-88717380D01*
X149713695Y-87812619D02*
X149761314Y-87765000D01*
X149856552Y-87717380D01*
X150094647Y-87717380D01*
X150189885Y-87765000D01*
X150237504Y-87812619D01*
X150285123Y-87907857D01*
X150285123Y-88003095D01*
X150237504Y-88145952D01*
X149666076Y-88717380D01*
X150285123Y-88717380D01*
X154816666Y-85812380D02*
X154816666Y-86526666D01*
X154769047Y-86669523D01*
X154673809Y-86764761D01*
X154530952Y-86812380D01*
X154435714Y-86812380D01*
X155245238Y-85907619D02*
X155292857Y-85860000D01*
X155388095Y-85812380D01*
X155626190Y-85812380D01*
X155721428Y-85860000D01*
X155769047Y-85907619D01*
X155816666Y-86002857D01*
X155816666Y-86098095D01*
X155769047Y-86240952D01*
X155197619Y-86812380D01*
X155816666Y-86812380D01*
X148002666Y-108164380D02*
X148002666Y-108878666D01*
X147955047Y-109021523D01*
X147859809Y-109116761D01*
X147716952Y-109164380D01*
X147621714Y-109164380D01*
X148907428Y-108497714D02*
X148907428Y-109164380D01*
X148669333Y-108116761D02*
X148431238Y-108831047D01*
X149050285Y-108831047D01*
X157146666Y-107402380D02*
X157146666Y-108116666D01*
X157099047Y-108259523D01*
X157003809Y-108354761D01*
X156860952Y-108402380D01*
X156765714Y-108402380D01*
X158099047Y-107402380D02*
X157622857Y-107402380D01*
X157575238Y-107878571D01*
X157622857Y-107830952D01*
X157718095Y-107783333D01*
X157956190Y-107783333D01*
X158051428Y-107830952D01*
X158099047Y-107878571D01*
X158146666Y-107973809D01*
X158146666Y-108211904D01*
X158099047Y-108307142D01*
X158051428Y-108354761D01*
X157956190Y-108402380D01*
X157718095Y-108402380D01*
X157622857Y-108354761D01*
X157575238Y-108307142D01*
X173823333Y-89098380D02*
X173490000Y-88622190D01*
X173251904Y-89098380D02*
X173251904Y-88098380D01*
X173632857Y-88098380D01*
X173728095Y-88146000D01*
X173775714Y-88193619D01*
X173823333Y-88288857D01*
X173823333Y-88431714D01*
X173775714Y-88526952D01*
X173728095Y-88574571D01*
X173632857Y-88622190D01*
X173251904Y-88622190D01*
X174775714Y-89098380D02*
X174204285Y-89098380D01*
X174490000Y-89098380D02*
X174490000Y-88098380D01*
X174394761Y-88241238D01*
X174299523Y-88336476D01*
X174204285Y-88384095D01*
X171283333Y-89098380D02*
X170950000Y-88622190D01*
X170711904Y-89098380D02*
X170711904Y-88098380D01*
X171092857Y-88098380D01*
X171188095Y-88146000D01*
X171235714Y-88193619D01*
X171283333Y-88288857D01*
X171283333Y-88431714D01*
X171235714Y-88526952D01*
X171188095Y-88574571D01*
X171092857Y-88622190D01*
X170711904Y-88622190D01*
X171664285Y-88193619D02*
X171711904Y-88146000D01*
X171807142Y-88098380D01*
X172045238Y-88098380D01*
X172140476Y-88146000D01*
X172188095Y-88193619D01*
X172235714Y-88288857D01*
X172235714Y-88384095D01*
X172188095Y-88526952D01*
X171616666Y-89098380D01*
X172235714Y-89098380D01*
X168743333Y-89098380D02*
X168410000Y-88622190D01*
X168171904Y-89098380D02*
X168171904Y-88098380D01*
X168552857Y-88098380D01*
X168648095Y-88146000D01*
X168695714Y-88193619D01*
X168743333Y-88288857D01*
X168743333Y-88431714D01*
X168695714Y-88526952D01*
X168648095Y-88574571D01*
X168552857Y-88622190D01*
X168171904Y-88622190D01*
X169076666Y-88098380D02*
X169695714Y-88098380D01*
X169362380Y-88479333D01*
X169505238Y-88479333D01*
X169600476Y-88526952D01*
X169648095Y-88574571D01*
X169695714Y-88669809D01*
X169695714Y-88907904D01*
X169648095Y-89003142D01*
X169600476Y-89050761D01*
X169505238Y-89098380D01*
X169219523Y-89098380D01*
X169124285Y-89050761D01*
X169076666Y-89003142D01*
X166203333Y-89098380D02*
X165870000Y-88622190D01*
X165631904Y-89098380D02*
X165631904Y-88098380D01*
X166012857Y-88098380D01*
X166108095Y-88146000D01*
X166155714Y-88193619D01*
X166203333Y-88288857D01*
X166203333Y-88431714D01*
X166155714Y-88526952D01*
X166108095Y-88574571D01*
X166012857Y-88622190D01*
X165631904Y-88622190D01*
X167060476Y-88431714D02*
X167060476Y-89098380D01*
X166822380Y-88050761D02*
X166584285Y-88765047D01*
X167203333Y-88765047D01*
X163663333Y-89098380D02*
X163330000Y-88622190D01*
X163091904Y-89098380D02*
X163091904Y-88098380D01*
X163472857Y-88098380D01*
X163568095Y-88146000D01*
X163615714Y-88193619D01*
X163663333Y-88288857D01*
X163663333Y-88431714D01*
X163615714Y-88526952D01*
X163568095Y-88574571D01*
X163472857Y-88622190D01*
X163091904Y-88622190D01*
X164568095Y-88098380D02*
X164091904Y-88098380D01*
X164044285Y-88574571D01*
X164091904Y-88526952D01*
X164187142Y-88479333D01*
X164425238Y-88479333D01*
X164520476Y-88526952D01*
X164568095Y-88574571D01*
X164615714Y-88669809D01*
X164615714Y-88907904D01*
X164568095Y-89003142D01*
X164520476Y-89050761D01*
X164425238Y-89098380D01*
X164187142Y-89098380D01*
X164091904Y-89050761D01*
X164044285Y-89003142D01*
X161123333Y-89098380D02*
X160790000Y-88622190D01*
X160551904Y-89098380D02*
X160551904Y-88098380D01*
X160932857Y-88098380D01*
X161028095Y-88146000D01*
X161075714Y-88193619D01*
X161123333Y-88288857D01*
X161123333Y-88431714D01*
X161075714Y-88526952D01*
X161028095Y-88574571D01*
X160932857Y-88622190D01*
X160551904Y-88622190D01*
X161980476Y-88098380D02*
X161790000Y-88098380D01*
X161694761Y-88146000D01*
X161647142Y-88193619D01*
X161551904Y-88336476D01*
X161504285Y-88526952D01*
X161504285Y-88907904D01*
X161551904Y-89003142D01*
X161599523Y-89050761D01*
X161694761Y-89098380D01*
X161885238Y-89098380D01*
X161980476Y-89050761D01*
X162028095Y-89003142D01*
X162075714Y-88907904D01*
X162075714Y-88669809D01*
X162028095Y-88574571D01*
X161980476Y-88526952D01*
X161885238Y-88479333D01*
X161694761Y-88479333D01*
X161599523Y-88526952D01*
X161551904Y-88574571D01*
X161504285Y-88669809D01*
X157821333Y-99004380D02*
X157488000Y-98528190D01*
X157249904Y-99004380D02*
X157249904Y-98004380D01*
X157630857Y-98004380D01*
X157726095Y-98052000D01*
X157773714Y-98099619D01*
X157821333Y-98194857D01*
X157821333Y-98337714D01*
X157773714Y-98432952D01*
X157726095Y-98480571D01*
X157630857Y-98528190D01*
X157249904Y-98528190D01*
X158154666Y-98004380D02*
X158821333Y-98004380D01*
X158392761Y-99004380D01*
X155281333Y-99004380D02*
X154948000Y-98528190D01*
X154709904Y-99004380D02*
X154709904Y-98004380D01*
X155090857Y-98004380D01*
X155186095Y-98052000D01*
X155233714Y-98099619D01*
X155281333Y-98194857D01*
X155281333Y-98337714D01*
X155233714Y-98432952D01*
X155186095Y-98480571D01*
X155090857Y-98528190D01*
X154709904Y-98528190D01*
X155852761Y-98432952D02*
X155757523Y-98385333D01*
X155709904Y-98337714D01*
X155662285Y-98242476D01*
X155662285Y-98194857D01*
X155709904Y-98099619D01*
X155757523Y-98052000D01*
X155852761Y-98004380D01*
X156043238Y-98004380D01*
X156138476Y-98052000D01*
X156186095Y-98099619D01*
X156233714Y-98194857D01*
X156233714Y-98242476D01*
X156186095Y-98337714D01*
X156138476Y-98385333D01*
X156043238Y-98432952D01*
X155852761Y-98432952D01*
X155757523Y-98480571D01*
X155709904Y-98528190D01*
X155662285Y-98623428D01*
X155662285Y-98813904D01*
X155709904Y-98909142D01*
X155757523Y-98956761D01*
X155852761Y-99004380D01*
X156043238Y-99004380D01*
X156138476Y-98956761D01*
X156186095Y-98909142D01*
X156233714Y-98813904D01*
X156233714Y-98623428D01*
X156186095Y-98528190D01*
X156138476Y-98480571D01*
X156043238Y-98432952D01*
X161194761Y-104941619D02*
X161099523Y-104894000D01*
X161004285Y-104798761D01*
X160861428Y-104655904D01*
X160766190Y-104608285D01*
X160670952Y-104608285D01*
X160718571Y-104846380D02*
X160623333Y-104798761D01*
X160528095Y-104703523D01*
X160480476Y-104513047D01*
X160480476Y-104179714D01*
X160528095Y-103989238D01*
X160623333Y-103894000D01*
X160718571Y-103846380D01*
X160909047Y-103846380D01*
X161004285Y-103894000D01*
X161099523Y-103989238D01*
X161147142Y-104179714D01*
X161147142Y-104513047D01*
X161099523Y-104703523D01*
X161004285Y-104798761D01*
X160909047Y-104846380D01*
X160718571Y-104846380D01*
X162099523Y-104846380D02*
X161528095Y-104846380D01*
X161813809Y-104846380D02*
X161813809Y-103846380D01*
X161718571Y-103989238D01*
X161623333Y-104084476D01*
X161528095Y-104132095D01*
M02*
