G04 #@! TF.FileFunction,Legend,Bot*
%FSLAX46Y46*%
G04 Gerber Fmt 4.6, Leading zero omitted, Abs format (unit mm)*
G04 Created by KiCad (PCBNEW 4.0.7) date 07/23/18 00:28:13*
%MOMM*%
%LPD*%
G01*
G04 APERTURE LIST*
%ADD10C,0.100000*%
%ADD11C,0.300000*%
G04 APERTURE END LIST*
D10*
D11*
X174019285Y-89711429D02*
X174078809Y-89770952D01*
X174257380Y-89830476D01*
X174376428Y-89830476D01*
X174555000Y-89770952D01*
X174674047Y-89651905D01*
X174733571Y-89532857D01*
X174793095Y-89294762D01*
X174793095Y-89116190D01*
X174733571Y-88878095D01*
X174674047Y-88759048D01*
X174555000Y-88640000D01*
X174376428Y-88580476D01*
X174257380Y-88580476D01*
X174078809Y-88640000D01*
X174019285Y-88699524D01*
X172947857Y-88580476D02*
X173185952Y-88580476D01*
X173305000Y-88640000D01*
X173364523Y-88699524D01*
X173483571Y-88878095D01*
X173543095Y-89116190D01*
X173543095Y-89592381D01*
X173483571Y-89711429D01*
X173424047Y-89770952D01*
X173305000Y-89830476D01*
X173066904Y-89830476D01*
X172947857Y-89770952D01*
X172888333Y-89711429D01*
X172828809Y-89592381D01*
X172828809Y-89294762D01*
X172888333Y-89175714D01*
X172947857Y-89116190D01*
X173066904Y-89056667D01*
X173305000Y-89056667D01*
X173424047Y-89116190D01*
X173483571Y-89175714D01*
X173543095Y-89294762D01*
X171757381Y-88997143D02*
X171757381Y-89830476D01*
X172055000Y-88520952D02*
X172352619Y-89413810D01*
X171578809Y-89413810D01*
X170209762Y-89770952D02*
X170031190Y-89830476D01*
X169733571Y-89830476D01*
X169614524Y-89770952D01*
X169555000Y-89711429D01*
X169495476Y-89592381D01*
X169495476Y-89473333D01*
X169555000Y-89354286D01*
X169614524Y-89294762D01*
X169733571Y-89235238D01*
X169971667Y-89175714D01*
X170090714Y-89116190D01*
X170150238Y-89056667D01*
X170209762Y-88937619D01*
X170209762Y-88818571D01*
X170150238Y-88699524D01*
X170090714Y-88640000D01*
X169971667Y-88580476D01*
X169674047Y-88580476D01*
X169495476Y-88640000D01*
X168424048Y-89830476D02*
X168424048Y-89175714D01*
X168483571Y-89056667D01*
X168602619Y-88997143D01*
X168840714Y-88997143D01*
X168959762Y-89056667D01*
X168424048Y-89770952D02*
X168543095Y-89830476D01*
X168840714Y-89830476D01*
X168959762Y-89770952D01*
X169019286Y-89651905D01*
X169019286Y-89532857D01*
X168959762Y-89413810D01*
X168840714Y-89354286D01*
X168543095Y-89354286D01*
X168424048Y-89294762D01*
X167947858Y-88997143D02*
X167650239Y-89830476D01*
X167352619Y-88997143D01*
X166400238Y-89770952D02*
X166519286Y-89830476D01*
X166757381Y-89830476D01*
X166876429Y-89770952D01*
X166935953Y-89651905D01*
X166935953Y-89175714D01*
X166876429Y-89056667D01*
X166757381Y-88997143D01*
X166519286Y-88997143D01*
X166400238Y-89056667D01*
X166340715Y-89175714D01*
X166340715Y-89294762D01*
X166935953Y-89413810D01*
X165805000Y-89830476D02*
X165805000Y-88997143D01*
X165805000Y-89235238D02*
X165745476Y-89116190D01*
X165685952Y-89056667D01*
X165566905Y-88997143D01*
X165447857Y-88997143D01*
X176816904Y-91648333D02*
X176221666Y-91648333D01*
X176935951Y-92005476D02*
X176519285Y-90755476D01*
X176102618Y-92005476D01*
X175150237Y-92005476D02*
X175150237Y-90755476D01*
X175150237Y-91945952D02*
X175269284Y-92005476D01*
X175507380Y-92005476D01*
X175626427Y-91945952D01*
X175685951Y-91886429D01*
X175745475Y-91767381D01*
X175745475Y-91410238D01*
X175685951Y-91291190D01*
X175626427Y-91231667D01*
X175507380Y-91172143D01*
X175269284Y-91172143D01*
X175150237Y-91231667D01*
X174019285Y-92005476D02*
X174019285Y-90755476D01*
X174019285Y-91945952D02*
X174138332Y-92005476D01*
X174376428Y-92005476D01*
X174495475Y-91945952D01*
X174554999Y-91886429D01*
X174614523Y-91767381D01*
X174614523Y-91410238D01*
X174554999Y-91291190D01*
X174495475Y-91231667D01*
X174376428Y-91172143D01*
X174138332Y-91172143D01*
X174019285Y-91231667D01*
X173245476Y-92005476D02*
X173364523Y-91945952D01*
X173424047Y-91886429D01*
X173483571Y-91767381D01*
X173483571Y-91410238D01*
X173424047Y-91291190D01*
X173364523Y-91231667D01*
X173245476Y-91172143D01*
X173066904Y-91172143D01*
X172947856Y-91231667D01*
X172888333Y-91291190D01*
X172828809Y-91410238D01*
X172828809Y-91767381D01*
X172888333Y-91886429D01*
X172947856Y-91945952D01*
X173066904Y-92005476D01*
X173245476Y-92005476D01*
X172293095Y-91172143D02*
X172293095Y-92005476D01*
X172293095Y-91291190D02*
X172233571Y-91231667D01*
X172114524Y-91172143D01*
X171935952Y-91172143D01*
X171816904Y-91231667D01*
X171757381Y-91350714D01*
X171757381Y-92005476D01*
X169495476Y-92005476D02*
X169912143Y-91410238D01*
X170209762Y-92005476D02*
X170209762Y-90755476D01*
X169733571Y-90755476D01*
X169614524Y-90815000D01*
X169555000Y-90874524D01*
X169495476Y-90993571D01*
X169495476Y-91172143D01*
X169555000Y-91291190D01*
X169614524Y-91350714D01*
X169733571Y-91410238D01*
X170209762Y-91410238D01*
X168483571Y-91945952D02*
X168602619Y-92005476D01*
X168840714Y-92005476D01*
X168959762Y-91945952D01*
X169019286Y-91826905D01*
X169019286Y-91350714D01*
X168959762Y-91231667D01*
X168840714Y-91172143D01*
X168602619Y-91172143D01*
X168483571Y-91231667D01*
X168424048Y-91350714D01*
X168424048Y-91469762D01*
X169019286Y-91588810D01*
X168007381Y-91172143D02*
X167709762Y-92005476D01*
X167412142Y-91172143D01*
X165328809Y-92005476D02*
X166043095Y-92005476D01*
X165685952Y-92005476D02*
X165685952Y-90755476D01*
X165805000Y-90934048D01*
X165924047Y-91053095D01*
X166043095Y-91112619D01*
X164793095Y-91886429D02*
X164733571Y-91945952D01*
X164793095Y-92005476D01*
X164852619Y-91945952D01*
X164793095Y-91886429D01*
X164793095Y-92005476D01*
X163959762Y-90755476D02*
X163840714Y-90755476D01*
X163721666Y-90815000D01*
X163662143Y-90874524D01*
X163602619Y-90993571D01*
X163543095Y-91231667D01*
X163543095Y-91529286D01*
X163602619Y-91767381D01*
X163662143Y-91886429D01*
X163721666Y-91945952D01*
X163840714Y-92005476D01*
X163959762Y-92005476D01*
X164078809Y-91945952D01*
X164138333Y-91886429D01*
X164197857Y-91767381D01*
X164257381Y-91529286D01*
X164257381Y-91231667D01*
X164197857Y-90993571D01*
X164138333Y-90874524D01*
X164078809Y-90815000D01*
X163959762Y-90755476D01*
X175447856Y-93525714D02*
X175269285Y-93585238D01*
X175209761Y-93644762D01*
X175150237Y-93763810D01*
X175150237Y-93942381D01*
X175209761Y-94061429D01*
X175269285Y-94120952D01*
X175388332Y-94180476D01*
X175864523Y-94180476D01*
X175864523Y-92930476D01*
X175447856Y-92930476D01*
X175328809Y-92990000D01*
X175269285Y-93049524D01*
X175209761Y-93168571D01*
X175209761Y-93287619D01*
X175269285Y-93406667D01*
X175328809Y-93466190D01*
X175447856Y-93525714D01*
X175864523Y-93525714D01*
X174733571Y-92930476D02*
X174435952Y-94180476D01*
X174197856Y-93287619D01*
X173959761Y-94180476D01*
X173662142Y-92930476D01*
X173245476Y-93823333D02*
X172650238Y-93823333D01*
X173364523Y-94180476D02*
X172947857Y-92930476D01*
X172531190Y-94180476D01*
X171400237Y-94061429D02*
X171459761Y-94120952D01*
X171638332Y-94180476D01*
X171757380Y-94180476D01*
X171935952Y-94120952D01*
X172054999Y-94001905D01*
X172114523Y-93882857D01*
X172174047Y-93644762D01*
X172174047Y-93466190D01*
X172114523Y-93228095D01*
X172054999Y-93109048D01*
X171935952Y-92990000D01*
X171757380Y-92930476D01*
X171638332Y-92930476D01*
X171459761Y-92990000D01*
X171400237Y-93049524D01*
X170864523Y-94180476D02*
X170864523Y-92930476D01*
X170150237Y-94180476D02*
X170685952Y-93466190D01*
X170150237Y-92930476D02*
X170864523Y-93644762D01*
X168721666Y-93049524D02*
X168662142Y-92990000D01*
X168543094Y-92930476D01*
X168245475Y-92930476D01*
X168126428Y-92990000D01*
X168066904Y-93049524D01*
X168007380Y-93168571D01*
X168007380Y-93287619D01*
X168066904Y-93466190D01*
X168781190Y-94180476D01*
X168007380Y-94180476D01*
X167233571Y-92930476D02*
X167114523Y-92930476D01*
X166995475Y-92990000D01*
X166935952Y-93049524D01*
X166876428Y-93168571D01*
X166816904Y-93406667D01*
X166816904Y-93704286D01*
X166876428Y-93942381D01*
X166935952Y-94061429D01*
X166995475Y-94120952D01*
X167114523Y-94180476D01*
X167233571Y-94180476D01*
X167352618Y-94120952D01*
X167412142Y-94061429D01*
X167471666Y-93942381D01*
X167531190Y-93704286D01*
X167531190Y-93406667D01*
X167471666Y-93168571D01*
X167412142Y-93049524D01*
X167352618Y-92990000D01*
X167233571Y-92930476D01*
X165626428Y-94180476D02*
X166340714Y-94180476D01*
X165983571Y-94180476D02*
X165983571Y-92930476D01*
X166102619Y-93109048D01*
X166221666Y-93228095D01*
X166340714Y-93287619D01*
X164912143Y-93466190D02*
X165031190Y-93406667D01*
X165090714Y-93347143D01*
X165150238Y-93228095D01*
X165150238Y-93168571D01*
X165090714Y-93049524D01*
X165031190Y-92990000D01*
X164912143Y-92930476D01*
X164674047Y-92930476D01*
X164555000Y-92990000D01*
X164495476Y-93049524D01*
X164435952Y-93168571D01*
X164435952Y-93228095D01*
X164495476Y-93347143D01*
X164555000Y-93406667D01*
X164674047Y-93466190D01*
X164912143Y-93466190D01*
X165031190Y-93525714D01*
X165090714Y-93585238D01*
X165150238Y-93704286D01*
X165150238Y-93942381D01*
X165090714Y-94061429D01*
X165031190Y-94120952D01*
X164912143Y-94180476D01*
X164674047Y-94180476D01*
X164555000Y-94120952D01*
X164495476Y-94061429D01*
X164435952Y-93942381D01*
X164435952Y-93704286D01*
X164495476Y-93585238D01*
X164555000Y-93525714D01*
X164674047Y-93466190D01*
M02*
