G04 Layer: DrillDrawingLayer*
G04 EasyEDA Pro v2.0.34.720dcead, 2023-10-18 14:17:13*
G04 Gerber Generator version 0.3*
G04 Scale: 100 percent, Rotated: No, Reflected: No*
G04 Dimensions in millimeters*
G04 Leading zeros omitted, absolute positions, 3 integers and 3 decimals*
%FSLAX33Y33*%
%MOMM*%
%ADD10C,0.254*%
G75*


G04 Image Start*
G36*
G01X152205Y-86158D02*
G01X152205Y-86194D01*
G01X152242D01*
G01X152568D01*
G01Y-86521D01*
G01X152242D01*
G01Y-86194D01*
G01X152205D01*
G01Y-86557D01*
G01X152604D01*
G01Y-86158D01*
G37*
G36*
G01X172200Y-109663D02*
G01X172200Y-109699D01*
G01X172236D01*
G01X172563D01*
G01Y-110026D01*
G01X172236D01*
G01Y-109699D01*
G01X172200D01*
G01Y-110062D01*
G01X172599D01*
G01Y-109663D01*
G37*
G36*
G01X164846Y-98098D02*
G01X164826Y-98100D01*
G01X164806Y-98102D01*
G01X164787Y-98107D01*
G01X164768Y-98114D01*
G01X164751Y-98123D01*
G01X164735Y-98133D01*
G01X164719Y-98144D01*
G01X164705Y-98157D01*
G01X164692Y-98171D01*
G01X164681Y-98187D01*
G01X164671Y-98203D01*
G01X164662Y-98220D01*
G01X164656Y-98239D01*
G01X164650Y-98258D01*
G01X164648Y-98278D01*
G01X164647Y-98298D01*
G01X164680D01*
G01X164681Y-98281D01*
G01X164683Y-98264D01*
G01X164688Y-98249D01*
G01X164693Y-98233D01*
G01X164700Y-98219D01*
G01X164708Y-98205D01*
G01X164718Y-98192D01*
G01X164729Y-98181D01*
G01X164740Y-98170D01*
G01X164753Y-98160D01*
G01X164767Y-98152D01*
G01X164781Y-98145D01*
G01X164797Y-98140D01*
G01X164812Y-98135D01*
G01X164829Y-98133D01*
G01X164846Y-98132D01*
G01X164863Y-98133D01*
G01X164880Y-98135D01*
G01X164895Y-98140D01*
G01X164911Y-98145D01*
G01X164925Y-98152D01*
G01X164939Y-98160D01*
G01X164952Y-98170D01*
G01X164963Y-98181D01*
G01X164974Y-98192D01*
G01X164984Y-98205D01*
G01X164992Y-98219D01*
G01X164999Y-98233D01*
G01X165004Y-98249D01*
G01X165009Y-98264D01*
G01X165011Y-98281D01*
G01X165012Y-98298D01*
G01X165011Y-98315D01*
G01X165009Y-98332D01*
G01X165004Y-98347D01*
G01X164999Y-98363D01*
G01X164992Y-98377D01*
G01X164984Y-98391D01*
G01X164974Y-98404D01*
G01X164963Y-98415D01*
G01X164952Y-98426D01*
G01X164939Y-98436D01*
G01X164925Y-98444D01*
G01X164911Y-98451D01*
G01X164895Y-98456D01*
G01X164880Y-98461D01*
G01X164863Y-98463D01*
G01X164846Y-98464D01*
G01X164829Y-98463D01*
G01X164812Y-98461D01*
G01X164797Y-98456D01*
G01X164781Y-98451D01*
G01X164767Y-98444D01*
G01X164753Y-98436D01*
G01X164740Y-98426D01*
G01X164729Y-98415D01*
G01X164718Y-98404D01*
G01X164708Y-98391D01*
G01X164700Y-98377D01*
G01X164693Y-98363D01*
G01X164688Y-98347D01*
G01X164683Y-98332D01*
G01X164681Y-98315D01*
G01X164680Y-98298D01*
G01X164647D01*
G01X164648Y-98318D01*
G01X164650Y-98338D01*
G01X164656Y-98357D01*
G01X164662Y-98376D01*
G01X164671Y-98393D01*
G01X164681Y-98409D01*
G01X164692Y-98425D01*
G01X164705Y-98439D01*
G01X164719Y-98452D01*
G01X164735Y-98463D01*
G01X164751Y-98473D01*
G01X164768Y-98482D01*
G01X164787Y-98488D01*
G01X164806Y-98494D01*
G01X164826Y-98496D01*
G01X164846Y-98497D01*
G01X164866Y-98496D01*
G01X164886Y-98494D01*
G01X164905Y-98488D01*
G01X164924Y-98482D01*
G01X164941Y-98473D01*
G01X164957Y-98463D01*
G01X164973Y-98452D01*
G01X164987Y-98439D01*
G01X165000Y-98425D01*
G01X165011Y-98409D01*
G01X165021Y-98393D01*
G01X165030Y-98376D01*
G01X165037Y-98357D01*
G01X165042Y-98338D01*
G01X165044Y-98318D01*
G01X165046Y-98298D01*
G01X165044Y-98278D01*
G01X165042Y-98258D01*
G01X165037Y-98239D01*
G01X165030Y-98220D01*
G01X165021Y-98203D01*
G01X165011Y-98187D01*
G01X165000Y-98171D01*
G01X164987Y-98157D01*
G01X164973Y-98144D01*
G01X164957Y-98133D01*
G01X164941Y-98123D01*
G01X164924Y-98114D01*
G01X164905Y-98107D01*
G01X164886Y-98102D01*
G01X164866Y-98100D01*
G37*
G36*
G01X167386Y-98098D02*
G01X167366Y-98100D01*
G01X167346Y-98102D01*
G01X167327Y-98107D01*
G01X167308Y-98114D01*
G01X167291Y-98123D01*
G01X167275Y-98133D01*
G01X167259Y-98144D01*
G01X167245Y-98157D01*
G01X167232Y-98171D01*
G01X167221Y-98187D01*
G01X167211Y-98203D01*
G01X167202Y-98220D01*
G01X167196Y-98239D01*
G01X167190Y-98258D01*
G01X167188Y-98278D01*
G01X167186Y-98298D01*
G01X167220D01*
G01X167221Y-98281D01*
G01X167223Y-98264D01*
G01X167228Y-98249D01*
G01X167233Y-98233D01*
G01X167240Y-98219D01*
G01X167248Y-98205D01*
G01X167258Y-98192D01*
G01X167269Y-98181D01*
G01X167280Y-98170D01*
G01X167293Y-98160D01*
G01X167307Y-98152D01*
G01X167321Y-98145D01*
G01X167337Y-98140D01*
G01X167352Y-98135D01*
G01X167369Y-98133D01*
G01X167386Y-98132D01*
G01X167403Y-98133D01*
G01X167420Y-98135D01*
G01X167435Y-98140D01*
G01X167451Y-98145D01*
G01X167465Y-98152D01*
G01X167479Y-98160D01*
G01X167492Y-98170D01*
G01X167503Y-98181D01*
G01X167514Y-98192D01*
G01X167524Y-98205D01*
G01X167532Y-98219D01*
G01X167539Y-98233D01*
G01X167544Y-98249D01*
G01X167549Y-98264D01*
G01X167551Y-98281D01*
G01X167552Y-98298D01*
G01X167551Y-98315D01*
G01X167549Y-98332D01*
G01X167544Y-98347D01*
G01X167539Y-98363D01*
G01X167532Y-98377D01*
G01X167524Y-98391D01*
G01X167514Y-98404D01*
G01X167503Y-98415D01*
G01X167492Y-98426D01*
G01X167479Y-98436D01*
G01X167465Y-98444D01*
G01X167451Y-98451D01*
G01X167435Y-98456D01*
G01X167420Y-98461D01*
G01X167403Y-98463D01*
G01X167386Y-98464D01*
G01X167369Y-98463D01*
G01X167352Y-98461D01*
G01X167337Y-98456D01*
G01X167321Y-98451D01*
G01X167307Y-98444D01*
G01X167293Y-98436D01*
G01X167280Y-98426D01*
G01X167269Y-98415D01*
G01X167258Y-98404D01*
G01X167248Y-98391D01*
G01X167240Y-98377D01*
G01X167233Y-98363D01*
G01X167228Y-98347D01*
G01X167223Y-98332D01*
G01X167221Y-98315D01*
G01X167220Y-98298D01*
G01X167186D01*
G01X167188Y-98318D01*
G01X167190Y-98338D01*
G01X167196Y-98357D01*
G01X167202Y-98376D01*
G01X167211Y-98393D01*
G01X167221Y-98409D01*
G01X167232Y-98425D01*
G01X167245Y-98439D01*
G01X167259Y-98452D01*
G01X167275Y-98463D01*
G01X167291Y-98473D01*
G01X167308Y-98482D01*
G01X167327Y-98488D01*
G01X167346Y-98494D01*
G01X167366Y-98496D01*
G01X167386Y-98497D01*
G01X167406Y-98496D01*
G01X167426Y-98494D01*
G01X167445Y-98488D01*
G01X167464Y-98482D01*
G01X167481Y-98473D01*
G01X167497Y-98463D01*
G01X167513Y-98452D01*
G01X167527Y-98439D01*
G01X167540Y-98425D01*
G01X167551Y-98409D01*
G01X167561Y-98393D01*
G01X167570Y-98376D01*
G01X167577Y-98357D01*
G01X167582Y-98338D01*
G01X167584Y-98318D01*
G01X167585Y-98298D01*
G01X167584Y-98278D01*
G01X167582Y-98258D01*
G01X167577Y-98239D01*
G01X167570Y-98220D01*
G01X167561Y-98203D01*
G01X167551Y-98187D01*
G01X167540Y-98171D01*
G01X167527Y-98157D01*
G01X167513Y-98144D01*
G01X167497Y-98133D01*
G01X167481Y-98123D01*
G01X167464Y-98114D01*
G01X167445Y-98107D01*
G01X167426Y-98102D01*
G01X167406Y-98100D01*
G37*
G36*
G01X162306Y-98098D02*
G01X162286Y-98100D01*
G01X162266Y-98102D01*
G01X162247Y-98107D01*
G01X162228Y-98114D01*
G01X162211Y-98123D01*
G01X162195Y-98133D01*
G01X162179Y-98144D01*
G01X162165Y-98157D01*
G01X162152Y-98171D01*
G01X162141Y-98187D01*
G01X162131Y-98203D01*
G01X162122Y-98220D01*
G01X162116Y-98239D01*
G01X162110Y-98258D01*
G01X162108Y-98278D01*
G01X162106Y-98298D01*
G01X162140D01*
G01X162141Y-98281D01*
G01X162143Y-98264D01*
G01X162148Y-98249D01*
G01X162153Y-98233D01*
G01X162160Y-98219D01*
G01X162168Y-98205D01*
G01X162178Y-98192D01*
G01X162189Y-98181D01*
G01X162200Y-98170D01*
G01X162213Y-98160D01*
G01X162227Y-98152D01*
G01X162241Y-98145D01*
G01X162257Y-98140D01*
G01X162272Y-98135D01*
G01X162289Y-98133D01*
G01X162306Y-98132D01*
G01X162323Y-98133D01*
G01X162340Y-98135D01*
G01X162355Y-98140D01*
G01X162371Y-98145D01*
G01X162385Y-98152D01*
G01X162399Y-98160D01*
G01X162412Y-98170D01*
G01X162423Y-98181D01*
G01X162434Y-98192D01*
G01X162444Y-98205D01*
G01X162452Y-98219D01*
G01X162459Y-98233D01*
G01X162464Y-98249D01*
G01X162469Y-98264D01*
G01X162471Y-98281D01*
G01X162472Y-98298D01*
G01X162471Y-98315D01*
G01X162469Y-98332D01*
G01X162464Y-98347D01*
G01X162459Y-98363D01*
G01X162452Y-98377D01*
G01X162444Y-98391D01*
G01X162434Y-98404D01*
G01X162423Y-98415D01*
G01X162412Y-98426D01*
G01X162399Y-98436D01*
G01X162385Y-98444D01*
G01X162371Y-98451D01*
G01X162355Y-98456D01*
G01X162340Y-98461D01*
G01X162323Y-98463D01*
G01X162306Y-98464D01*
G01X162289Y-98463D01*
G01X162272Y-98461D01*
G01X162257Y-98456D01*
G01X162241Y-98451D01*
G01X162227Y-98444D01*
G01X162213Y-98436D01*
G01X162200Y-98426D01*
G01X162189Y-98415D01*
G01X162178Y-98404D01*
G01X162168Y-98391D01*
G01X162160Y-98377D01*
G01X162153Y-98363D01*
G01X162148Y-98347D01*
G01X162143Y-98332D01*
G01X162141Y-98315D01*
G01X162140Y-98298D01*
G01X162106D01*
G01X162108Y-98318D01*
G01X162110Y-98338D01*
G01X162116Y-98357D01*
G01X162122Y-98376D01*
G01X162131Y-98393D01*
G01X162141Y-98409D01*
G01X162152Y-98425D01*
G01X162165Y-98439D01*
G01X162179Y-98452D01*
G01X162195Y-98463D01*
G01X162211Y-98473D01*
G01X162228Y-98482D01*
G01X162247Y-98488D01*
G01X162266Y-98494D01*
G01X162286Y-98496D01*
G01X162306Y-98497D01*
G01X162326Y-98496D01*
G01X162346Y-98494D01*
G01X162365Y-98488D01*
G01X162384Y-98482D01*
G01X162401Y-98473D01*
G01X162417Y-98463D01*
G01X162433Y-98452D01*
G01X162447Y-98439D01*
G01X162460Y-98425D01*
G01X162471Y-98409D01*
G01X162481Y-98393D01*
G01X162490Y-98376D01*
G01X162497Y-98357D01*
G01X162502Y-98338D01*
G01X162504Y-98318D01*
G01X162506Y-98298D01*
G01X162504Y-98278D01*
G01X162502Y-98258D01*
G01X162497Y-98239D01*
G01X162490Y-98220D01*
G01X162481Y-98203D01*
G01X162471Y-98187D01*
G01X162460Y-98171D01*
G01X162447Y-98157D01*
G01X162433Y-98144D01*
G01X162417Y-98133D01*
G01X162401Y-98123D01*
G01X162384Y-98114D01*
G01X162365Y-98107D01*
G01X162346Y-98102D01*
G01X162326Y-98100D01*
G37*
G36*
G01X159766Y-98098D02*
G01X159746Y-98100D01*
G01X159726Y-98102D01*
G01X159707Y-98107D01*
G01X159688Y-98114D01*
G01X159671Y-98123D01*
G01X159655Y-98133D01*
G01X159639Y-98144D01*
G01X159625Y-98157D01*
G01X159612Y-98171D01*
G01X159601Y-98187D01*
G01X159591Y-98203D01*
G01X159582Y-98220D01*
G01X159576Y-98239D01*
G01X159570Y-98258D01*
G01X159568Y-98278D01*
G01X159567Y-98298D01*
G01X159600D01*
G01X159601Y-98281D01*
G01X159603Y-98264D01*
G01X159608Y-98249D01*
G01X159613Y-98233D01*
G01X159620Y-98219D01*
G01X159628Y-98205D01*
G01X159638Y-98192D01*
G01X159649Y-98181D01*
G01X159660Y-98170D01*
G01X159673Y-98160D01*
G01X159687Y-98152D01*
G01X159701Y-98145D01*
G01X159717Y-98140D01*
G01X159732Y-98135D01*
G01X159749Y-98133D01*
G01X159766Y-98132D01*
G01X159783Y-98133D01*
G01X159800Y-98135D01*
G01X159815Y-98140D01*
G01X159831Y-98145D01*
G01X159845Y-98152D01*
G01X159859Y-98160D01*
G01X159872Y-98170D01*
G01X159883Y-98181D01*
G01X159894Y-98192D01*
G01X159904Y-98205D01*
G01X159912Y-98219D01*
G01X159919Y-98233D01*
G01X159924Y-98249D01*
G01X159929Y-98264D01*
G01X159931Y-98281D01*
G01X159932Y-98298D01*
G01X159931Y-98315D01*
G01X159929Y-98332D01*
G01X159924Y-98347D01*
G01X159919Y-98363D01*
G01X159912Y-98377D01*
G01X159904Y-98391D01*
G01X159894Y-98404D01*
G01X159883Y-98415D01*
G01X159872Y-98426D01*
G01X159859Y-98436D01*
G01X159845Y-98444D01*
G01X159831Y-98451D01*
G01X159815Y-98456D01*
G01X159800Y-98461D01*
G01X159783Y-98463D01*
G01X159766Y-98464D01*
G01X159749Y-98463D01*
G01X159732Y-98461D01*
G01X159717Y-98456D01*
G01X159701Y-98451D01*
G01X159687Y-98444D01*
G01X159673Y-98436D01*
G01X159660Y-98426D01*
G01X159649Y-98415D01*
G01X159638Y-98404D01*
G01X159628Y-98391D01*
G01X159620Y-98377D01*
G01X159613Y-98363D01*
G01X159608Y-98347D01*
G01X159603Y-98332D01*
G01X159601Y-98315D01*
G01X159600Y-98298D01*
G01X159567D01*
G01X159568Y-98318D01*
G01X159570Y-98338D01*
G01X159576Y-98357D01*
G01X159582Y-98376D01*
G01X159591Y-98393D01*
G01X159601Y-98409D01*
G01X159612Y-98425D01*
G01X159625Y-98439D01*
G01X159639Y-98452D01*
G01X159655Y-98463D01*
G01X159671Y-98473D01*
G01X159688Y-98482D01*
G01X159707Y-98488D01*
G01X159726Y-98494D01*
G01X159746Y-98496D01*
G01X159766Y-98497D01*
G01X159786Y-98496D01*
G01X159806Y-98494D01*
G01X159825Y-98488D01*
G01X159844Y-98482D01*
G01X159861Y-98473D01*
G01X159877Y-98463D01*
G01X159893Y-98452D01*
G01X159907Y-98439D01*
G01X159920Y-98425D01*
G01X159931Y-98409D01*
G01X159941Y-98393D01*
G01X159950Y-98376D01*
G01X159957Y-98357D01*
G01X159962Y-98338D01*
G01X159964Y-98318D01*
G01X159966Y-98298D01*
G01X159964Y-98278D01*
G01X159962Y-98258D01*
G01X159957Y-98239D01*
G01X159950Y-98220D01*
G01X159941Y-98203D01*
G01X159931Y-98187D01*
G01X159920Y-98171D01*
G01X159907Y-98157D01*
G01X159893Y-98144D01*
G01X159877Y-98133D01*
G01X159861Y-98123D01*
G01X159844Y-98114D01*
G01X159825Y-98107D01*
G01X159806Y-98102D01*
G01X159786Y-98100D01*
G37*
G36*
G01X144199Y-88092D02*
G01X144218Y-88125D01*
G01X144257D01*
G01X144541D01*
G01X144398Y-88371D01*
G01X144328Y-88248D01*
G01X144257Y-88125D01*
G01X144218D01*
G01X144398Y-88438D01*
G01X144499Y-88265D01*
G01X144598Y-88092D01*
G37*
G36*
G01X144199Y-93172D02*
G01X144218Y-93205D01*
G01X144257D01*
G01X144541D01*
G01X144398Y-93451D01*
G01X144328Y-93328D01*
G01X144257Y-93205D01*
G01X144218D01*
G01X144398Y-93518D01*
G01X144499Y-93345D01*
G01X144598Y-93172D01*
G37*
G36*
G01X144199Y-98252D02*
G01X144218Y-98285D01*
G01X144257D01*
G01X144541D01*
G01X144398Y-98531D01*
G01X144328Y-98408D01*
G01X144257Y-98285D01*
G01X144218D01*
G01X144398Y-98598D01*
G01X144499Y-98425D01*
G01X144598Y-98252D01*
G37*
G36*
G01X144199Y-103332D02*
G01X144218Y-103365D01*
G01X144257D01*
G01X144541D01*
G01X144398Y-103611D01*
G01X144328Y-103488D01*
G01X144257Y-103365D01*
G01X144218D01*
G01X144299Y-103505D01*
G01X144398Y-103677D01*
G01X144499Y-103505D01*
G01X144598Y-103332D01*
G37*
G36*
G01X180140Y-108031D02*
G01X180159Y-108064D01*
G01X180198D01*
G01X180481D01*
G01X180411Y-108187D01*
G01X180339Y-108310D01*
G01X180269Y-108187D01*
G01X180198Y-108064D01*
G01X180159D01*
G01X180240Y-108204D01*
G01X180339Y-108376D01*
G01X180440Y-108204D01*
G01X180539Y-108031D01*
G37*
G36*
G01X180140Y-102951D02*
G01X180159Y-102984D01*
G01X180198D01*
G01X180481D01*
G01X180411Y-103107D01*
G01X180339Y-103230D01*
G01X180269Y-103107D01*
G01X180198Y-102984D01*
G01X180159D01*
G01X180240Y-103124D01*
G01X180339Y-103296D01*
G01X180440Y-103124D01*
G01X180539Y-102951D01*
G37*
G36*
G01X180140Y-97871D02*
G01X180159Y-97904D01*
G01X180198D01*
G01X180481D01*
G01X180411Y-98027D01*
G01X180339Y-98150D01*
G01X180269Y-98027D01*
G01X180198Y-97904D01*
G01X180159D01*
G01X180339Y-98217D01*
G01X180440Y-98044D01*
G01X180539Y-97871D01*
G37*
G36*
G01X180140Y-92791D02*
G01X180159Y-92824D01*
G01X180198D01*
G01X180481D01*
G01X180411Y-92947D01*
G01X180339Y-93070D01*
G01X180269Y-92947D01*
G01X180198Y-92824D01*
G01X180159D01*
G01X180339Y-93137D01*
G01X180440Y-92964D01*
G01X180539Y-92791D01*
G37*
G36*
G01X173609Y-103021D02*
G01X173552Y-103151D01*
G01X173410Y-103136D01*
G01X173494Y-103251D01*
G01X173441Y-103324D01*
G01X173483D01*
G01X173522Y-103271D01*
G01X173536Y-103251D01*
G01X173522Y-103231D01*
G01X173483Y-103178D01*
G01X173548Y-103185D01*
G01X173572Y-103188D01*
G01X173583Y-103165D01*
G01X173609Y-103105D01*
G01X173635Y-103165D01*
G01X173646Y-103188D01*
G01X173670Y-103185D01*
G01X173735Y-103178D01*
G01X173696Y-103231D01*
G01X173682Y-103251D01*
G01X173696Y-103271D01*
G01X173735Y-103324D01*
G01X173670Y-103317D01*
G01X173646Y-103314D01*
G01X173635Y-103337D01*
G01X173609Y-103397D01*
G01X173583Y-103337D01*
G01X173572Y-103314D01*
G01X173548Y-103317D01*
G01X173483Y-103324D01*
G01X173441D01*
G01X173410Y-103366D01*
G01X173552Y-103351D01*
G01X173609Y-103481D01*
G01X173666Y-103351D01*
G01X173809Y-103366D01*
G01X173724Y-103251D01*
G01X173809Y-103136D01*
G01X173666Y-103151D01*
G37*
G36*
G01X171109Y-103021D02*
G01X171051Y-103151D01*
G01X170909Y-103136D01*
G01X170994Y-103251D01*
G01X170940Y-103324D01*
G01X170983D01*
G01X171021Y-103271D01*
G01X171036Y-103251D01*
G01X171021Y-103231D01*
G01X170983Y-103178D01*
G01X171048Y-103185D01*
G01X171073Y-103188D01*
G01X171083Y-103165D01*
G01X171109Y-103105D01*
G01X171136Y-103165D01*
G01X171145Y-103188D01*
G01X171170Y-103185D01*
G01X171235Y-103178D01*
G01X171197Y-103231D01*
G01X171182Y-103251D01*
G01X171197Y-103271D01*
G01X171235Y-103324D01*
G01X171170Y-103317D01*
G01X171145Y-103314D01*
G01X171136Y-103337D01*
G01X171109Y-103397D01*
G01X171083Y-103337D01*
G01X171073Y-103314D01*
G01X171048Y-103317D01*
G01X170983Y-103324D01*
G01X170940D01*
G01X170909Y-103366D01*
G01X171051Y-103351D01*
G01X171109Y-103481D01*
G01X171167Y-103351D01*
G01X171308Y-103366D01*
G01X171224Y-103251D01*
G01X171308Y-103136D01*
G01X171167Y-103151D01*
G37*
G36*
G01X153035Y-107085D02*
G01X152978Y-107215D01*
G01X152836Y-107200D01*
G01X152920Y-107315D01*
G01X152867Y-107388D01*
G01X152909D01*
G01X152948Y-107335D01*
G01X152962Y-107315D01*
G01X152948Y-107295D01*
G01X152909Y-107242D01*
G01X152974Y-107249D01*
G01X152998Y-107252D01*
G01X153009Y-107229D01*
G01X153035Y-107169D01*
G01X153061Y-107229D01*
G01X153072Y-107252D01*
G01X153096Y-107249D01*
G01X153161Y-107242D01*
G01X153122Y-107295D01*
G01X153108Y-107315D01*
G01X153122Y-107335D01*
G01X153161Y-107388D01*
G01X153096Y-107381D01*
G01X153072Y-107378D01*
G01X153061Y-107401D01*
G01X153035Y-107461D01*
G01X153009Y-107401D01*
G01X152998Y-107378D01*
G01X152974Y-107381D01*
G01X152909Y-107388D01*
G01X152867D01*
G01X152836Y-107430D01*
G01X152978Y-107415D01*
G01X153035Y-107545D01*
G01X153092Y-107415D01*
G01X153235Y-107430D01*
G01X153150Y-107315D01*
G01X153235Y-107200D01*
G01X153092Y-107215D01*
G37*
G36*
G01X153035Y-99465D02*
G01X152978Y-99595D01*
G01X152836Y-99580D01*
G01X152920Y-99695D01*
G01X152867Y-99768D01*
G01X152909D01*
G01X152948Y-99715D01*
G01X152962Y-99695D01*
G01X152948Y-99675D01*
G01X152909Y-99622D01*
G01X152974Y-99629D01*
G01X152998Y-99632D01*
G01X153009Y-99609D01*
G01X153035Y-99549D01*
G01X153061Y-99609D01*
G01X153072Y-99632D01*
G01X153096Y-99629D01*
G01X153161Y-99622D01*
G01X153122Y-99675D01*
G01X153108Y-99695D01*
G01X153122Y-99715D01*
G01X153161Y-99768D01*
G01X153096Y-99761D01*
G01X153072Y-99758D01*
G01X153061Y-99781D01*
G01X153035Y-99841D01*
G01X153009Y-99781D01*
G01X152998Y-99758D01*
G01X152974Y-99761D01*
G01X152909Y-99768D01*
G01X152867D01*
G01X152836Y-99810D01*
G01X152978Y-99795D01*
G01X153035Y-99925D01*
G01X153092Y-99795D01*
G01X153235Y-99810D01*
G01X153150Y-99695D01*
G01X153235Y-99580D01*
G01X153092Y-99595D01*
G37*
G36*
G01X149987Y-107085D02*
G01X149930Y-107215D01*
G01X149788Y-107200D01*
G01X149872Y-107315D01*
G01X149819Y-107388D01*
G01X149861D01*
G01X149900Y-107335D01*
G01X149914Y-107315D01*
G01X149900Y-107295D01*
G01X149861Y-107242D01*
G01X149926Y-107249D01*
G01X149950Y-107252D01*
G01X149961Y-107229D01*
G01X149987Y-107169D01*
G01X150013Y-107229D01*
G01X150024Y-107252D01*
G01X150048Y-107249D01*
G01X150113Y-107242D01*
G01X150074Y-107295D01*
G01X150060Y-107315D01*
G01X150074Y-107335D01*
G01X150113Y-107388D01*
G01X150048Y-107381D01*
G01X150024Y-107378D01*
G01X150013Y-107401D01*
G01X149987Y-107461D01*
G01X149961Y-107401D01*
G01X149950Y-107378D01*
G01X149926Y-107381D01*
G01X149861Y-107388D01*
G01X149819D01*
G01X149788Y-107430D01*
G01X149930Y-107415D01*
G01X149987Y-107545D01*
G01X150044Y-107415D01*
G01X150187Y-107430D01*
G01X150102Y-107315D01*
G01X150187Y-107200D01*
G01X150044Y-107215D01*
G37*
G36*
G01X149987Y-99465D02*
G01X149930Y-99595D01*
G01X149788Y-99580D01*
G01X149872Y-99695D01*
G01X149819Y-99768D01*
G01X149861D01*
G01X149900Y-99715D01*
G01X149914Y-99695D01*
G01X149900Y-99675D01*
G01X149861Y-99622D01*
G01X149926Y-99629D01*
G01X149950Y-99632D01*
G01X149961Y-99609D01*
G01X149987Y-99549D01*
G01X150013Y-99609D01*
G01X150024Y-99632D01*
G01X150048Y-99629D01*
G01X150113Y-99622D01*
G01X150074Y-99675D01*
G01X150060Y-99695D01*
G01X150074Y-99715D01*
G01X150113Y-99768D01*
G01X150048Y-99761D01*
G01X150024Y-99758D01*
G01X150013Y-99781D01*
G01X149987Y-99841D01*
G01X149961Y-99781D01*
G01X149950Y-99758D01*
G01X149926Y-99761D01*
G01X149861Y-99768D01*
G01X149819D01*
G01X149788Y-99810D01*
G01X149930Y-99795D01*
G01X149987Y-99925D01*
G01X150044Y-99795D01*
G01X150187Y-99810D01*
G01X150102Y-99695D01*
G01X150187Y-99580D01*
G01X150044Y-99595D01*
G37*
G36*
G01X166623Y-102766D02*
G01X166566Y-102897D01*
G01X166424Y-102882D01*
G01X166509Y-102997D01*
G01X166455Y-103070D01*
G01X166498D01*
G01X166536Y-103017D01*
G01X166551Y-102997D01*
G01X166536Y-102977D01*
G01X166498Y-102924D01*
G01X166563Y-102931D01*
G01X166587Y-102933D01*
G01X166597Y-102911D01*
G01X166623Y-102851D01*
G01X166660Y-102933D01*
G01X166685Y-102931D01*
G01X166750Y-102924D01*
G01X166711Y-102977D01*
G01X166697Y-102997D01*
G01X166711Y-103017D01*
G01X166750Y-103070D01*
G01X166685Y-103063D01*
G01X166660Y-103060D01*
G01X166623Y-103142D01*
G01X166598Y-103083D01*
G01X166587Y-103060D01*
G01X166563Y-103063D01*
G01X166498Y-103070D01*
G01X166455D01*
G01X166424Y-103112D01*
G01X166566Y-103097D01*
G01X166623Y-103227D01*
G01X166681Y-103097D01*
G01X166823Y-103112D01*
G01X166739Y-102997D01*
G01X166823Y-102882D01*
G01X166681Y-102897D01*
G37*
G36*
G01X161543Y-102766D02*
G01X161486Y-102897D01*
G01X161344Y-102882D01*
G01X161429Y-102997D01*
G01X161375Y-103070D01*
G01X161418D01*
G01X161456Y-103017D01*
G01X161471Y-102997D01*
G01X161456Y-102977D01*
G01X161418Y-102924D01*
G01X161483Y-102931D01*
G01X161507Y-102933D01*
G01X161517Y-102911D01*
G01X161543Y-102851D01*
G01X161580Y-102933D01*
G01X161605Y-102931D01*
G01X161670Y-102924D01*
G01X161631Y-102977D01*
G01X161617Y-102997D01*
G01X161631Y-103017D01*
G01X161670Y-103070D01*
G01X161605Y-103063D01*
G01X161580Y-103060D01*
G01X161543Y-103142D01*
G01X161518Y-103083D01*
G01X161507Y-103060D01*
G01X161483Y-103063D01*
G01X161418Y-103070D01*
G01X161375D01*
G01X161344Y-103112D01*
G01X161486Y-103097D01*
G01X161543Y-103227D01*
G01X161601Y-103097D01*
G01X161743Y-103112D01*
G01X161659Y-102997D01*
G01X161743Y-102882D01*
G01X161601Y-102897D01*
G37*
G36*
G01X164083Y-102766D02*
G01X164026Y-102897D01*
G01X163884Y-102882D01*
G01X163969Y-102997D01*
G01X163915Y-103070D01*
G01X163958D01*
G01X163996Y-103017D01*
G01X164011Y-102997D01*
G01X163996Y-102977D01*
G01X163958Y-102924D01*
G01X164023Y-102931D01*
G01X164047Y-102933D01*
G01X164057Y-102911D01*
G01X164083Y-102851D01*
G01X164120Y-102933D01*
G01X164145Y-102931D01*
G01X164210Y-102924D01*
G01X164171Y-102977D01*
G01X164157Y-102997D01*
G01X164171Y-103017D01*
G01X164210Y-103070D01*
G01X164145Y-103063D01*
G01X164120Y-103060D01*
G01X164083Y-103142D01*
G01X164058Y-103083D01*
G01X164047Y-103060D01*
G01X164023Y-103063D01*
G01X163958Y-103070D01*
G01X163915D01*
G01X163884Y-103112D01*
G01X164026Y-103097D01*
G01X164083Y-103227D01*
G01X164141Y-103097D01*
G01X164283Y-103112D01*
G01X164199Y-102997D01*
G01X164283Y-102882D01*
G01X164141Y-102897D01*
G37*
G36*
G01X156972Y-99719D02*
G01X156915Y-99849D01*
G01X156773Y-99834D01*
G01X156857Y-99949D01*
G01X156804Y-100022D01*
G01X156846D01*
G01X156885Y-99969D01*
G01X156899Y-99949D01*
G01X156885Y-99929D01*
G01X156846Y-99876D01*
G01X156911Y-99883D01*
G01X156935Y-99886D01*
G01X156946Y-99863D01*
G01X156972Y-99803D01*
G01X156998Y-99863D01*
G01X157009Y-99886D01*
G01X157033Y-99883D01*
G01X157098Y-99876D01*
G01X157059Y-99929D01*
G01X157045Y-99949D01*
G01X157059Y-99969D01*
G01X157098Y-100022D01*
G01X157033Y-100015D01*
G01X157009Y-100012D01*
G01X156998Y-100035D01*
G01X156972Y-100095D01*
G01X156946Y-100035D01*
G01X156935Y-100012D01*
G01X156911Y-100015D01*
G01X156846Y-100022D01*
G01X156804D01*
G01X156773Y-100064D01*
G01X156915Y-100049D01*
G01X156972Y-100179D01*
G01X157029Y-100049D01*
G01X157172Y-100064D01*
G01X157087Y-99949D01*
G01X157172Y-99834D01*
G01X157029Y-99849D01*
G37*
G36*
G01X156972Y-104799D02*
G01X156915Y-104929D01*
G01X156773Y-104914D01*
G01X156857Y-105029D01*
G01X156804Y-105102D01*
G01X156846D01*
G01X156885Y-105049D01*
G01X156899Y-105029D01*
G01X156885Y-105009D01*
G01X156846Y-104956D01*
G01X156911Y-104963D01*
G01X156935Y-104966D01*
G01X156946Y-104943D01*
G01X156972Y-104883D01*
G01X156998Y-104943D01*
G01X157009Y-104966D01*
G01X157033Y-104963D01*
G01X157098Y-104956D01*
G01X157059Y-105009D01*
G01X157045Y-105029D01*
G01X157059Y-105049D01*
G01X157098Y-105102D01*
G01X157033Y-105095D01*
G01X157009Y-105092D01*
G01X156998Y-105115D01*
G01X156972Y-105175D01*
G01X156946Y-105115D01*
G01X156935Y-105092D01*
G01X156911Y-105095D01*
G01X156846Y-105102D01*
G01X156804D01*
G01X156773Y-105144D01*
G01X156915Y-105129D01*
G01X156972Y-105259D01*
G01X157029Y-105129D01*
G01X157172Y-105144D01*
G01X157087Y-105029D01*
G01X157172Y-104914D01*
G01X157029Y-104929D01*
G37*
G36*
G01X156972Y-102259D02*
G01X156915Y-102389D01*
G01X156773Y-102374D01*
G01X156857Y-102489D01*
G01X156804Y-102562D01*
G01X156846D01*
G01X156885Y-102509D01*
G01X156899Y-102489D01*
G01X156885Y-102469D01*
G01X156846Y-102416D01*
G01X156911Y-102423D01*
G01X156935Y-102426D01*
G01X156946Y-102403D01*
G01X156972Y-102343D01*
G01X156998Y-102403D01*
G01X157009Y-102426D01*
G01X157033Y-102423D01*
G01X157098Y-102416D01*
G01X157059Y-102469D01*
G01X157045Y-102489D01*
G01X157059Y-102509D01*
G01X157098Y-102562D01*
G01X157033Y-102555D01*
G01X157009Y-102552D01*
G01X156998Y-102575D01*
G01X156972Y-102635D01*
G01X156946Y-102575D01*
G01X156935Y-102552D01*
G01X156911Y-102555D01*
G01X156846Y-102562D01*
G01X156804D01*
G01X156773Y-102604D01*
G01X156915Y-102589D01*
G01X156972Y-102719D01*
G01X157029Y-102589D01*
G01X157172Y-102604D01*
G01X157087Y-102489D01*
G01X157172Y-102374D01*
G01X157029Y-102389D01*
G37*
G36*
G01X157280Y-86160D02*
G01X157311Y-86228D01*
G01X157348D01*
G01X157466Y-86282D01*
G01X157479Y-86289D01*
G01X157494Y-86282D01*
G01X157612Y-86228D01*
G01X157557Y-86346D01*
G01X157551Y-86360D01*
G01X157557Y-86374D01*
G01X157612Y-86492D01*
G01X157494Y-86437D01*
G01X157479Y-86431D01*
G01X157466Y-86437D01*
G01X157348Y-86492D01*
G01X157402Y-86374D01*
G01X157408Y-86360D01*
G01X157402Y-86346D01*
G01X157348Y-86228D01*
G01X157311D01*
G01X157372Y-86360D01*
G01X157280Y-86559D01*
G01X157479Y-86468D01*
G01X157679Y-86559D01*
G01X157588Y-86360D01*
G01X157679Y-86160D01*
G01X157479Y-86252D01*
G37*
G36*
G01X159820Y-86160D02*
G01X159851Y-86228D01*
G01X159888D01*
G01X160006Y-86282D01*
G01X160019Y-86289D01*
G01X160034Y-86282D01*
G01X160152Y-86228D01*
G01X160097Y-86346D01*
G01X160091Y-86360D01*
G01X160097Y-86374D01*
G01X160152Y-86492D01*
G01X160034Y-86437D01*
G01X160019Y-86431D01*
G01X160006Y-86437D01*
G01X159888Y-86492D01*
G01X159942Y-86374D01*
G01X159948Y-86360D01*
G01X159942Y-86346D01*
G01X159888Y-86228D01*
G01X159851D01*
G01X159912Y-86360D01*
G01X159820Y-86559D01*
G01X160019Y-86468D01*
G01X160219Y-86559D01*
G01X160128Y-86360D01*
G01X160219Y-86160D01*
G01X160019Y-86252D01*
G37*
G36*
G01X162360Y-86160D02*
G01X162391Y-86228D01*
G01X162428D01*
G01X162546Y-86282D01*
G01X162559Y-86289D01*
G01X162574Y-86282D01*
G01X162692Y-86228D01*
G01X162637Y-86346D01*
G01X162631Y-86360D01*
G01X162637Y-86374D01*
G01X162692Y-86492D01*
G01X162574Y-86437D01*
G01X162559Y-86431D01*
G01X162546Y-86437D01*
G01X162428Y-86492D01*
G01X162482Y-86374D01*
G01X162488Y-86360D01*
G01X162482Y-86346D01*
G01X162428Y-86228D01*
G01X162391D01*
G01X162452Y-86360D01*
G01X162360Y-86559D01*
G01X162559Y-86468D01*
G01X162759Y-86559D01*
G01X162668Y-86360D01*
G01X162759Y-86160D01*
G01X162559Y-86252D01*
G37*
G36*
G01X164900Y-86160D02*
G01X164931Y-86228D01*
G01X164968D01*
G01X165086Y-86282D01*
G01X165099Y-86289D01*
G01X165114Y-86282D01*
G01X165232Y-86228D01*
G01X165177Y-86346D01*
G01X165171Y-86360D01*
G01X165177Y-86374D01*
G01X165232Y-86492D01*
G01X165114Y-86437D01*
G01X165099Y-86431D01*
G01X165086Y-86437D01*
G01X164968Y-86492D01*
G01X165022Y-86374D01*
G01X165028Y-86360D01*
G01X165022Y-86346D01*
G01X164968Y-86228D01*
G01X164931D01*
G01X164992Y-86360D01*
G01X164900Y-86559D01*
G01X165099Y-86468D01*
G01X165299Y-86559D01*
G01X165207Y-86360D01*
G01X165299Y-86160D01*
G01X165099Y-86252D01*
G37*
G36*
G01X167440Y-86160D02*
G01X167471Y-86228D01*
G01X167508D01*
G01X167626Y-86282D01*
G01X167639Y-86289D01*
G01X167654Y-86282D01*
G01X167772Y-86228D01*
G01X167717Y-86346D01*
G01X167711Y-86360D01*
G01X167717Y-86374D01*
G01X167772Y-86492D01*
G01X167654Y-86437D01*
G01X167639Y-86431D01*
G01X167626Y-86437D01*
G01X167508Y-86492D01*
G01X167562Y-86374D01*
G01X167568Y-86360D01*
G01X167562Y-86346D01*
G01X167508Y-86228D01*
G01X167471D01*
G01X167532Y-86360D01*
G01X167440Y-86559D01*
G01X167639Y-86468D01*
G01X167839Y-86559D01*
G01X167747Y-86360D01*
G01X167839Y-86160D01*
G01X167639Y-86252D01*
G37*
G36*
G01X169980Y-86160D02*
G01X170011Y-86228D01*
G01X170048D01*
G01X170166Y-86282D01*
G01X170179Y-86289D01*
G01X170194Y-86282D01*
G01X170312Y-86228D01*
G01X170257Y-86346D01*
G01X170251Y-86360D01*
G01X170257Y-86374D01*
G01X170312Y-86492D01*
G01X170194Y-86437D01*
G01X170179Y-86431D01*
G01X170166Y-86437D01*
G01X170048Y-86492D01*
G01X170102Y-86374D01*
G01X170108Y-86360D01*
G01X170102Y-86346D01*
G01X170048Y-86228D01*
G01X170011D01*
G01X170072Y-86360D01*
G01X169980Y-86559D01*
G01X170179Y-86468D01*
G01X170379Y-86559D01*
G01X170287Y-86360D01*
G01X170379Y-86160D01*
G01X170179Y-86252D01*
G37*
G36*
G01X172520Y-86160D02*
G01X172551Y-86228D01*
G01X172588D01*
G01X172706Y-86282D01*
G01X172719Y-86289D01*
G01X172734Y-86282D01*
G01X172852Y-86228D01*
G01X172797Y-86346D01*
G01X172791Y-86360D01*
G01X172797Y-86374D01*
G01X172852Y-86492D01*
G01X172734Y-86437D01*
G01X172719Y-86431D01*
G01X172706Y-86437D01*
G01X172588Y-86492D01*
G01X172642Y-86374D01*
G01X172648Y-86360D01*
G01X172642Y-86346D01*
G01X172588Y-86228D01*
G01X172551D01*
G01X172612Y-86360D01*
G01X172520Y-86559D01*
G01X172719Y-86468D01*
G01X172919Y-86559D01*
G01X172827Y-86360D01*
G01X172919Y-86160D01*
G01X172719Y-86252D01*
G37*
G36*
G01X175060Y-86160D02*
G01X175091Y-86228D01*
G01X175128D01*
G01X175246Y-86282D01*
G01X175259Y-86289D01*
G01X175274Y-86282D01*
G01X175392Y-86228D01*
G01X175337Y-86346D01*
G01X175331Y-86360D01*
G01X175337Y-86374D01*
G01X175392Y-86492D01*
G01X175274Y-86437D01*
G01X175259Y-86431D01*
G01X175246Y-86437D01*
G01X175128Y-86492D01*
G01X175182Y-86374D01*
G01X175188Y-86360D01*
G01X175182Y-86346D01*
G01X175128Y-86228D01*
G01X175091D01*
G01X175152Y-86360D01*
G01X175060Y-86559D01*
G01X175259Y-86468D01*
G01X175459Y-86559D01*
G01X175367Y-86360D01*
G01X175459Y-86160D01*
G01X175259Y-86252D01*
G37*
G36*
G01X148390Y-110290D02*
G01X148421Y-110358D01*
G01X148458D01*
G01X148576Y-110412D01*
G01X148589Y-110418D01*
G01X148604Y-110412D01*
G01X148722Y-110358D01*
G01X148667Y-110476D01*
G01X148661Y-110490D01*
G01X148667Y-110504D01*
G01X148722Y-110622D01*
G01X148604Y-110567D01*
G01X148589Y-110561D01*
G01X148576Y-110567D01*
G01X148458Y-110622D01*
G01X148512Y-110504D01*
G01X148518Y-110490D01*
G01X148512Y-110476D01*
G01X148458Y-110358D01*
G01X148421D01*
G01X148482Y-110490D01*
G01X148390Y-110689D01*
G01X148589Y-110598D01*
G01X148789Y-110689D01*
G01X148698Y-110490D01*
G01X148789Y-110290D01*
G01X148589Y-110382D01*
G37*
G36*
G01X150930Y-110290D02*
G01X150961Y-110358D01*
G01X150998D01*
G01X151116Y-110412D01*
G01X151129Y-110418D01*
G01X151144Y-110412D01*
G01X151262Y-110358D01*
G01X151207Y-110476D01*
G01X151201Y-110490D01*
G01X151207Y-110504D01*
G01X151262Y-110622D01*
G01X151144Y-110567D01*
G01X151129Y-110561D01*
G01X151116Y-110567D01*
G01X150998Y-110622D01*
G01X151052Y-110504D01*
G01X151058Y-110490D01*
G01X151052Y-110476D01*
G01X150998Y-110358D01*
G01X150961D01*
G01X151022Y-110490D01*
G01X150930Y-110689D01*
G01X151129Y-110598D01*
G01X151329Y-110689D01*
G01X151238Y-110490D01*
G01X151329Y-110290D01*
G01X151129Y-110382D01*
G37*
G36*
G01X153470Y-110290D02*
G01X153501Y-110358D01*
G01X153538D01*
G01X153656Y-110412D01*
G01X153669Y-110418D01*
G01X153684Y-110412D01*
G01X153802Y-110358D01*
G01X153747Y-110476D01*
G01X153741Y-110490D01*
G01X153747Y-110504D01*
G01X153802Y-110622D01*
G01X153684Y-110567D01*
G01X153669Y-110561D01*
G01X153656Y-110567D01*
G01X153538Y-110622D01*
G01X153592Y-110504D01*
G01X153598Y-110490D01*
G01X153592Y-110476D01*
G01X153538Y-110358D01*
G01X153501D01*
G01X153562Y-110490D01*
G01X153470Y-110689D01*
G01X153669Y-110598D01*
G01X153869Y-110689D01*
G01X153778Y-110490D01*
G01X153869Y-110290D01*
G01X153669Y-110382D01*
G37*
G36*
G01X156010Y-110290D02*
G01X156041Y-110358D01*
G01X156078D01*
G01X156196Y-110412D01*
G01X156209Y-110418D01*
G01X156224Y-110412D01*
G01X156342Y-110358D01*
G01X156287Y-110476D01*
G01X156281Y-110490D01*
G01X156287Y-110504D01*
G01X156342Y-110622D01*
G01X156224Y-110567D01*
G01X156209Y-110561D01*
G01X156196Y-110567D01*
G01X156078Y-110622D01*
G01X156132Y-110504D01*
G01X156138Y-110490D01*
G01X156132Y-110476D01*
G01X156078Y-110358D01*
G01X156041D01*
G01X156102Y-110490D01*
G01X156010Y-110689D01*
G01X156209Y-110598D01*
G01X156409Y-110689D01*
G01X156318Y-110490D01*
G01X156409Y-110290D01*
G01X156209Y-110382D01*
G37*
G36*
G01X158550Y-110290D02*
G01X158581Y-110358D01*
G01X158618D01*
G01X158736Y-110412D01*
G01X158749Y-110418D01*
G01X158764Y-110412D01*
G01X158882Y-110358D01*
G01X158827Y-110476D01*
G01X158821Y-110490D01*
G01X158827Y-110504D01*
G01X158882Y-110622D01*
G01X158764Y-110567D01*
G01X158749Y-110561D01*
G01X158736Y-110567D01*
G01X158618Y-110622D01*
G01X158672Y-110504D01*
G01X158678Y-110490D01*
G01X158672Y-110476D01*
G01X158618Y-110358D01*
G01X158581D01*
G01X158642Y-110490D01*
G01X158550Y-110689D01*
G01X158749Y-110598D01*
G01X158949Y-110689D01*
G01X158858Y-110490D01*
G01X158949Y-110290D01*
G01X158749Y-110382D01*
G37*
G36*
G01X161090Y-110290D02*
G01X161121Y-110358D01*
G01X161158D01*
G01X161276Y-110412D01*
G01X161289Y-110418D01*
G01X161304Y-110412D01*
G01X161422Y-110358D01*
G01X161367Y-110476D01*
G01X161361Y-110490D01*
G01X161367Y-110504D01*
G01X161422Y-110622D01*
G01X161304Y-110567D01*
G01X161289Y-110561D01*
G01X161276Y-110567D01*
G01X161158Y-110622D01*
G01X161212Y-110504D01*
G01X161218Y-110490D01*
G01X161212Y-110476D01*
G01X161158Y-110358D01*
G01X161121D01*
G01X161182Y-110490D01*
G01X161090Y-110689D01*
G01X161289Y-110598D01*
G01X161489Y-110689D01*
G01X161398Y-110490D01*
G01X161489Y-110290D01*
G01X161289Y-110382D01*
G37*
G36*
G01X163630Y-110290D02*
G01X163661Y-110358D01*
G01X163698D01*
G01X163816Y-110412D01*
G01X163829Y-110418D01*
G01X163844Y-110412D01*
G01X163962Y-110358D01*
G01X163907Y-110476D01*
G01X163901Y-110490D01*
G01X163907Y-110504D01*
G01X163962Y-110622D01*
G01X163844Y-110567D01*
G01X163829Y-110561D01*
G01X163816Y-110567D01*
G01X163698Y-110622D01*
G01X163752Y-110504D01*
G01X163758Y-110490D01*
G01X163752Y-110476D01*
G01X163698Y-110358D01*
G01X163661D01*
G01X163722Y-110490D01*
G01X163630Y-110689D01*
G01X163829Y-110598D01*
G01X164029Y-110689D01*
G01X163938Y-110490D01*
G01X164029Y-110290D01*
G01X163829Y-110382D01*
G37*
G36*
G01X166170Y-110290D02*
G01X166201Y-110358D01*
G01X166238D01*
G01X166356Y-110412D01*
G01X166369Y-110418D01*
G01X166384Y-110412D01*
G01X166502Y-110358D01*
G01X166447Y-110476D01*
G01X166441Y-110490D01*
G01X166447Y-110504D01*
G01X166502Y-110622D01*
G01X166384Y-110567D01*
G01X166369Y-110561D01*
G01X166356Y-110567D01*
G01X166238Y-110622D01*
G01X166292Y-110504D01*
G01X166298Y-110490D01*
G01X166292Y-110476D01*
G01X166238Y-110358D01*
G01X166201D01*
G01X166262Y-110490D01*
G01X166170Y-110689D01*
G01X166369Y-110598D01*
G01X166569Y-110689D01*
G01X166477Y-110490D01*
G01X166569Y-110290D01*
G01X166369Y-110382D01*
G37*
G36*
G01X159820Y-107750D02*
G01X159851Y-107818D01*
G01X159888D01*
G01X160006Y-107872D01*
G01X160019Y-107878D01*
G01X160034Y-107872D01*
G01X160152Y-107818D01*
G01X160097Y-107936D01*
G01X160091Y-107950D01*
G01X160097Y-107964D01*
G01X160152Y-108082D01*
G01X160034Y-108027D01*
G01X160019Y-108021D01*
G01X160006Y-108027D01*
G01X159888Y-108082D01*
G01X159942Y-107964D01*
G01X159948Y-107950D01*
G01X159942Y-107936D01*
G01X159888Y-107818D01*
G01X159851D01*
G01X159912Y-107950D01*
G01X159820Y-108149D01*
G01X160019Y-108058D01*
G01X160219Y-108149D01*
G01X160128Y-107950D01*
G01X160219Y-107750D01*
G01X160019Y-107842D01*
G37*
G36*
G01X162360Y-107750D02*
G01X162391Y-107818D01*
G01X162428D01*
G01X162546Y-107872D01*
G01X162559Y-107878D01*
G01X162574Y-107872D01*
G01X162692Y-107818D01*
G01X162637Y-107936D01*
G01X162631Y-107950D01*
G01X162637Y-107964D01*
G01X162692Y-108082D01*
G01X162574Y-108027D01*
G01X162559Y-108021D01*
G01X162546Y-108027D01*
G01X162428Y-108082D01*
G01X162482Y-107964D01*
G01X162488Y-107950D01*
G01X162482Y-107936D01*
G01X162428Y-107818D01*
G01X162391D01*
G01X162452Y-107950D01*
G01X162360Y-108149D01*
G01X162559Y-108058D01*
G01X162759Y-108149D01*
G01X162668Y-107950D01*
G01X162759Y-107750D01*
G01X162559Y-107842D01*
G37*
G36*
G01X164900Y-107750D02*
G01X164931Y-107818D01*
G01X164968D01*
G01X165086Y-107872D01*
G01X165099Y-107878D01*
G01X165114Y-107872D01*
G01X165232Y-107818D01*
G01X165177Y-107936D01*
G01X165171Y-107950D01*
G01X165177Y-107964D01*
G01X165232Y-108082D01*
G01X165114Y-108027D01*
G01X165099Y-108021D01*
G01X165086Y-108027D01*
G01X164968Y-108082D01*
G01X165022Y-107964D01*
G01X165028Y-107950D01*
G01X165022Y-107936D01*
G01X164968Y-107818D01*
G01X164931D01*
G01X164992Y-107950D01*
G01X164900Y-108149D01*
G01X165099Y-108058D01*
G01X165299Y-108149D01*
G01X165207Y-107950D01*
G01X165299Y-107750D01*
G01X165099Y-107842D01*
G37*
G36*
G01X167440Y-107750D02*
G01X167471Y-107818D01*
G01X167508D01*
G01X167626Y-107872D01*
G01X167639Y-107878D01*
G01X167654Y-107872D01*
G01X167772Y-107818D01*
G01X167717Y-107936D01*
G01X167711Y-107950D01*
G01X167717Y-107964D01*
G01X167772Y-108082D01*
G01X167654Y-108027D01*
G01X167639Y-108021D01*
G01X167626Y-108027D01*
G01X167508Y-108082D01*
G01X167562Y-107964D01*
G01X167568Y-107950D01*
G01X167562Y-107936D01*
G01X167508Y-107818D01*
G01X167471D01*
G01X167532Y-107950D01*
G01X167440Y-108149D01*
G01X167639Y-108058D01*
G01X167839Y-108149D01*
G01X167747Y-107950D01*
G01X167839Y-107750D01*
G01X167639Y-107842D01*
G37*
G36*
G01X169963Y-93653D02*
G01X169963Y-93763D01*
G01X169854D01*
G01Y-93910D01*
G01X169887D01*
G01Y-93796D01*
G01X169996D01*
G01Y-93687D01*
G01X170110D01*
G01Y-93796D01*
G01X170219D01*
G01Y-93910D01*
G01X170110D01*
G01Y-94019D01*
G01X169996D01*
G01Y-93910D01*
G01X169887D01*
G01X169854D01*
G01Y-93943D01*
G01X169963D01*
G01Y-94052D01*
G01X170143D01*
G01Y-93943D01*
G01X170253D01*
G01Y-93763D01*
G01X170143D01*
G01Y-93653D01*
G37*
G36*
G01X169963Y-98733D02*
G01X169963Y-98843D01*
G01X169854D01*
G01Y-98990D01*
G01X169887D01*
G01Y-98876D01*
G01X169996D01*
G01Y-98767D01*
G01X170110D01*
G01Y-98876D01*
G01X170219D01*
G01Y-98990D01*
G01X170110D01*
G01Y-99099D01*
G01X169996D01*
G01Y-98990D01*
G01X169887D01*
G01X169854D01*
G01Y-99023D01*
G01X169963D01*
G01Y-99132D01*
G01X170143D01*
G01Y-99023D01*
G01X170253D01*
G01Y-98843D01*
G01X170143D01*
G01Y-98733D01*
G37*
G36*
G01X174789Y-98734D02*
G01X174789Y-98843D01*
G01X174680D01*
G01Y-98990D01*
G01X174713D01*
G01Y-98876D01*
G01X174822D01*
G01Y-98767D01*
G01X174936D01*
G01Y-98876D01*
G01X175045D01*
G01Y-98990D01*
G01X174936D01*
G01Y-99099D01*
G01X174822D01*
G01Y-98990D01*
G01X174713D01*
G01X174680D01*
G01Y-99023D01*
G01X174789D01*
G01Y-99133D01*
G01X174969D01*
G01Y-99023D01*
G01X175079D01*
G01Y-98843D01*
G01X174969D01*
G01Y-98734D01*
G37*
G36*
G01X174789Y-93654D02*
G01X174789Y-93763D01*
G01X174680D01*
G01Y-93910D01*
G01X174713D01*
G01Y-93796D01*
G01X174822D01*
G01Y-93687D01*
G01X174936D01*
G01Y-93796D01*
G01X175045D01*
G01Y-93910D01*
G01X174936D01*
G01Y-94019D01*
G01X174822D01*
G01Y-93910D01*
G01X174713D01*
G01X174680D01*
G01Y-93943D01*
G01X174789D01*
G01Y-94053D01*
G01X174969D01*
G01Y-93943D01*
G01X175079D01*
G01Y-93763D01*
G01X174969D01*
G01Y-93654D01*
G37*
G36*
G01X167600Y-89046D02*
G01X167600Y-89155D01*
G01X167491D01*
G01Y-89303D01*
G01X167524D01*
G01Y-89188D01*
G01X167633D01*
G01Y-89079D01*
G01X167748D01*
G01Y-89188D01*
G01X167856D01*
G01Y-89303D01*
G01X167748D01*
G01Y-89412D01*
G01X167633D01*
G01Y-89303D01*
G01X167524D01*
G01X167491D01*
G01Y-89336D01*
G01X167600D01*
G01Y-89445D01*
G01X167781D01*
G01Y-89336D01*
G01X167890D01*
G01Y-89155D01*
G01X167781D01*
G01Y-89046D01*
G37*
G36*
G01X167600Y-94126D02*
G01X167600Y-94235D01*
G01X167491D01*
G01Y-94383D01*
G01X167524D01*
G01Y-94268D01*
G01X167633D01*
G01Y-94159D01*
G01X167748D01*
G01Y-94268D01*
G01X167856D01*
G01Y-94383D01*
G01X167748D01*
G01Y-94492D01*
G01X167633D01*
G01Y-94383D01*
G01X167524D01*
G01X167491D01*
G01Y-94416D01*
G01X167600D01*
G01Y-94525D01*
G01X167781D01*
G01Y-94416D01*
G01X167890D01*
G01Y-94235D01*
G01X167781D01*
G01Y-94126D01*
G37*
G36*
G01X163002Y-89046D02*
G01X163002Y-89155D01*
G01X162894D01*
G01Y-89303D01*
G01X162927D01*
G01Y-89188D01*
G01X163035D01*
G01Y-89079D01*
G01X163150D01*
G01Y-89188D01*
G01X163259D01*
G01Y-89303D01*
G01X163150D01*
G01Y-89412D01*
G01X163035D01*
G01Y-89303D01*
G01X162927D01*
G01X162894D01*
G01Y-89336D01*
G01X163002D01*
G01Y-89445D01*
G01X163184D01*
G01Y-89336D01*
G01X163293D01*
G01Y-89155D01*
G01X163184D01*
G01Y-89046D01*
G37*
G36*
G01X163002Y-94126D02*
G01X163002Y-94235D01*
G01X162894D01*
G01Y-94383D01*
G01X162927D01*
G01Y-94268D01*
G01X163035D01*
G01Y-94159D01*
G01X163150D01*
G01Y-94268D01*
G01X163259D01*
G01Y-94383D01*
G01X163150D01*
G01Y-94492D01*
G01X163035D01*
G01Y-94383D01*
G01X162927D01*
G01X162894D01*
G01Y-94416D01*
G01X163002D01*
G01Y-94525D01*
G01X163184D01*
G01Y-94416D01*
G01X163293D01*
G01Y-94235D01*
G01X163184D01*
G01Y-94126D01*
G37*
G36*
G01X175029Y-91431D02*
G01X175029Y-91540D01*
G01X174921D01*
G01Y-91688D01*
G01X174954D01*
G01Y-91573D01*
G01X175062D01*
G01Y-91464D01*
G01X175177D01*
G01Y-91573D01*
G01X175286D01*
G01Y-91688D01*
G01X175177D01*
G01Y-91797D01*
G01X175062D01*
G01Y-91688D01*
G01X174954D01*
G01X174921D01*
G01Y-91721D01*
G01X175029D01*
G01Y-91830D01*
G01X175211D01*
G01Y-91721D01*
G01X175319D01*
G01Y-91540D01*
G01X175211D01*
G01Y-91431D01*
G37*
G36*
G01X169949Y-91431D02*
G01X169949Y-91540D01*
G01X169841D01*
G01Y-91688D01*
G01X169874D01*
G01Y-91573D01*
G01X169982D01*
G01Y-91464D01*
G01X170097D01*
G01Y-91573D01*
G01X170206D01*
G01Y-91688D01*
G01X170097D01*
G01Y-91797D01*
G01X169982D01*
G01Y-91688D01*
G01X169874D01*
G01X169841D01*
G01Y-91721D01*
G01X169949D01*
G01Y-91830D01*
G01X170131D01*
G01Y-91721D01*
G01X170239D01*
G01Y-91540D01*
G01X170131D01*
G01Y-91431D01*
G37*
G36*
G01X160615Y-89046D02*
G01X160615Y-89155D01*
G01X160506D01*
G01Y-89303D01*
G01X160539D01*
G01Y-89188D01*
G01X160648D01*
G01Y-89079D01*
G01X160763D01*
G01Y-89188D01*
G01X160871D01*
G01Y-89303D01*
G01X160763D01*
G01Y-89412D01*
G01X160648D01*
G01Y-89303D01*
G01X160539D01*
G01X160506D01*
G01Y-89336D01*
G01X160615D01*
G01Y-89445D01*
G01X160796D01*
G01Y-89336D01*
G01X160905D01*
G01Y-89155D01*
G01X160796D01*
G01Y-89046D01*
G37*
G36*
G01X160615Y-94126D02*
G01X160615Y-94235D01*
G01X160506D01*
G01Y-94383D01*
G01X160539D01*
G01Y-94268D01*
G01X160648D01*
G01Y-94159D01*
G01X160763D01*
G01Y-94268D01*
G01X160871D01*
G01Y-94383D01*
G01X160763D01*
G01Y-94492D01*
G01X160648D01*
G01Y-94383D01*
G01X160539D01*
G01X160506D01*
G01Y-94416D01*
G01X160615D01*
G01Y-94525D01*
G01X160796D01*
G01Y-94416D01*
G01X160905D01*
G01Y-94235D01*
G01X160796D01*
G01Y-94126D01*
G37*
G36*
G01X165288Y-94161D02*
G01X165288Y-94270D01*
G01X165180D01*
G01Y-94418D01*
G01X165213D01*
G01Y-94304D01*
G01X165321D01*
G01Y-94195D01*
G01X165436D01*
G01Y-94304D01*
G01X165545D01*
G01Y-94418D01*
G01X165436D01*
G01Y-94527D01*
G01X165321D01*
G01Y-94418D01*
G01X165213D01*
G01X165180D01*
G01Y-94451D01*
G01X165288D01*
G01Y-94560D01*
G01X165470D01*
G01Y-94451D01*
G01X165579D01*
G01Y-94270D01*
G01X165470D01*
G01Y-94161D01*
G37*
G36*
G01X165288Y-89081D02*
G01X165288Y-89190D01*
G01X165180D01*
G01Y-89338D01*
G01X165213D01*
G01Y-89224D01*
G01X165321D01*
G01Y-89115D01*
G01X165436D01*
G01Y-89224D01*
G01X165545D01*
G01Y-89338D01*
G01X165436D01*
G01Y-89447D01*
G01X165321D01*
G01Y-89338D01*
G01X165213D01*
G01X165180D01*
G01Y-89371D01*
G01X165288D01*
G01Y-89480D01*
G01X165470D01*
G01Y-89371D01*
G01X165579D01*
G01Y-89190D01*
G01X165470D01*
G01Y-89081D01*
G37*
G36*
G01X151294Y-97209D02*
G01X151294Y-97319D01*
G01X151185D01*
G01Y-97466D01*
G01X151218D01*
G01Y-97352D01*
G01X151327D01*
G01Y-97243D01*
G01X151441D01*
G01Y-97352D01*
G01X151550D01*
G01Y-97466D01*
G01X151441D01*
G01Y-97575D01*
G01X151327D01*
G01Y-97466D01*
G01X151218D01*
G01X151185D01*
G01Y-97499D01*
G01X151294D01*
G01Y-97608D01*
G01X151474D01*
G01Y-97499D01*
G01X151584D01*
G01Y-97319D01*
G01X151474D01*
G01Y-97209D01*
G37*
G36*
G01X156374Y-97209D02*
G01X156374Y-97319D01*
G01X156264D01*
G01Y-97466D01*
G01X156298D01*
G01Y-97352D01*
G01X156407D01*
G01Y-97243D01*
G01X156521D01*
G01Y-97352D01*
G01X156630D01*
G01Y-97466D01*
G01X156521D01*
G01Y-97575D01*
G01X156407D01*
G01Y-97466D01*
G01X156298D01*
G01X156264D01*
G01Y-97499D01*
G01X156374D01*
G01Y-97608D01*
G01X156554D01*
G01Y-97499D01*
G01X156663D01*
G01Y-97319D01*
G01X156554D01*
G01Y-97209D01*
G37*
G36*
G01X175043Y-89208D02*
G01X175043Y-89318D01*
G01X174934D01*
G01Y-89465D01*
G01X174967D01*
G01Y-89351D01*
G01X175076D01*
G01Y-89242D01*
G01X175190D01*
G01Y-89351D01*
G01X175299D01*
G01Y-89465D01*
G01X175190D01*
G01Y-89574D01*
G01X175076D01*
G01Y-89465D01*
G01X174967D01*
G01X174934D01*
G01Y-89498D01*
G01X175043D01*
G01Y-89607D01*
G01X175223D01*
G01Y-89498D01*
G01X175333D01*
G01Y-89318D01*
G01X175223D01*
G01Y-89208D01*
G37*
G36*
G01X169963Y-89208D02*
G01X169963Y-89318D01*
G01X169854D01*
G01Y-89465D01*
G01X169887D01*
G01Y-89351D01*
G01X169996D01*
G01Y-89242D01*
G01X170110D01*
G01Y-89351D01*
G01X170219D01*
G01Y-89465D01*
G01X170110D01*
G01Y-89574D01*
G01X169996D01*
G01Y-89465D01*
G01X169887D01*
G01X169854D01*
G01Y-89498D01*
G01X169963D01*
G01Y-89607D01*
G01X170143D01*
G01Y-89498D01*
G01X170253D01*
G01Y-89318D01*
G01X170143D01*
G01Y-89208D01*
G37*
G36*
G01X172376Y-93653D02*
G01X172376Y-93763D01*
G01X172267D01*
G01Y-93910D01*
G01X172300D01*
G01Y-93796D01*
G01X172409D01*
G01Y-93687D01*
G01X172523D01*
G01Y-93796D01*
G01X172632D01*
G01Y-93910D01*
G01X172523D01*
G01Y-94019D01*
G01X172409D01*
G01Y-93910D01*
G01X172300D01*
G01X172267D01*
G01Y-93943D01*
G01X172376D01*
G01Y-94052D01*
G01X172556D01*
G01Y-93943D01*
G01X172666D01*
G01Y-93763D01*
G01X172556D01*
G01Y-93653D01*
G37*
G36*
G01X172376Y-98733D02*
G01X172376Y-98843D01*
G01X172267D01*
G01Y-98990D01*
G01X172300D01*
G01Y-98876D01*
G01X172409D01*
G01Y-98767D01*
G01X172523D01*
G01Y-98876D01*
G01X172632D01*
G01Y-98990D01*
G01X172523D01*
G01Y-99099D01*
G01X172409D01*
G01Y-98990D01*
G01X172300D01*
G01X172267D01*
G01Y-99023D01*
G01X172376D01*
G01Y-99132D01*
G01X172556D01*
G01Y-99023D01*
G01X172666D01*
G01Y-98843D01*
G01X172556D01*
G01Y-98733D01*
G37*
G04 Image End*
G54D10*

M02*
