G04 Layer: TopSolderMaskLayer*
G04 EasyEDA Pro v2.0.34.720dcead, 2023-10-18 14:17:13*
G04 Gerber Generator version 0.3*
G04 Scale: 100 percent, Rotated: No, Reflected: No*
G04 Dimensions in millimeters*
G04 Leading zeros omitted, absolute positions, 3 integers and 3 decimals*
%FSLAX33Y33*%
%MOMM*%
%ADD10R,3.0X3.0*%
%ADD11C,3.0*%
%ADD12R,3.0X3.0*%
%ADD13R,1.6X1.6*%
%ADD14C,1.6*%
%ADD15R,1.6X1.5*%
%ADD16R,3.2X3.1*%
%ADD17R,6.7X6.5*%
%ADD18R,1.7X1.7*%
%ADD19C,1.7*%
%ADD20C,1.4*%
%ADD21R,1.6X1.6*%
%ADD22R,1.5X1.5*%
%ADD23C,1.5*%
%ADD24R,1.5X1.5*%
%ADD25R,1.8X1.8*%
%ADD26C,1.8*%
%ADD27R,1.8X1.8*%
G75*


G04 Pad Start*
G54D10*
G01X144399Y-88265D03*
G54D11*
G01X144399Y-93345D03*
G01X144399Y-98425D03*
G01X144399Y-103505D03*
G54D12*
G01X180340Y-108204D03*
G54D11*
G01X180340Y-103124D03*
G01X180340Y-98044D03*
G01X180340Y-92964D03*
G54D13*
G01X173609Y-103251D03*
G54D14*
G01X171109Y-103251D03*
G54D15*
G01X158397Y-95111D03*
G54D16*
G01X153997Y-94511D03*
G01X153997Y-91111D03*
G54D17*
G01X152247Y-92811D03*
G54D16*
G01X150497Y-94511D03*
G01X150497Y-91111D03*
G54D15*
G01X158397Y-90511D03*
G54D18*
G01X157480Y-86360D03*
G54D19*
G01X160020Y-86360D03*
G01X162560Y-86360D03*
G01X165100Y-86360D03*
G01X167640Y-86360D03*
G01X170180Y-86360D03*
G01X172720Y-86360D03*
G01X175260Y-86360D03*
G54D18*
G01X148590Y-110490D03*
G54D19*
G01X151130Y-110490D03*
G01X153670Y-110490D03*
G01X156210Y-110490D03*
G01X158750Y-110490D03*
G01X161290Y-110490D03*
G01X163830Y-110490D03*
G01X166370Y-110490D03*
G54D18*
G01X160020Y-107950D03*
G54D19*
G01X162560Y-107950D03*
G01X165100Y-107950D03*
G01X167640Y-107950D03*
G54D11*
G01X152405Y-86357D03*
G01X172400Y-109862D03*
G54D20*
G01X170053Y-93853D03*
G01X170053Y-98933D03*
G01X174879Y-98933D03*
G01X174879Y-93853D03*
G01X167690Y-89245D03*
G01X167690Y-94325D03*
G01X163093Y-89245D03*
G01X163093Y-94325D03*
G01X175120Y-91630D03*
G01X170040Y-91630D03*
G01X160705Y-89245D03*
G01X160705Y-94325D03*
G54D14*
G01X153035Y-107315D03*
G01X153035Y-99695D03*
G54D20*
G01X165379Y-94361D03*
G01X165379Y-89281D03*
G01X151384Y-97409D03*
G01X156464Y-97409D03*
G01X175133Y-89408D03*
G01X170053Y-89408D03*
G54D21*
G01X149987Y-107315D03*
G54D14*
G01X149987Y-99695D03*
G54D22*
G01X166624Y-102997D03*
G54D23*
G01X161544Y-102997D03*
G01X164084Y-102997D03*
G54D24*
G01X156972Y-99949D03*
G54D23*
G01X156972Y-105029D03*
G01X156972Y-102489D03*
G54D25*
G01X164846Y-98298D03*
G54D26*
G01X167386Y-98298D03*
G54D27*
G01X162306Y-98298D03*
G54D26*
G01X159766Y-98298D03*
G54D20*
G01X172466Y-93853D03*
G01X172466Y-98933D03*
G04 Pad End*

M02*
