G04 #@! TF.GenerationSoftware,KiCad,Pcbnew,7.0.1-3b83917a11~172~ubuntu20.04.1*
G04 #@! TF.CreationDate,2023-04-02T21:53:50+02:00*
G04 #@! TF.ProjectId,C64Saver2-addon,43363453-6176-4657-9232-2d6164646f6e,1.4*
G04 #@! TF.SameCoordinates,Original*
G04 #@! TF.FileFunction,Legend,Bot*
G04 #@! TF.FilePolarity,Positive*
%FSLAX46Y46*%
G04 Gerber Fmt 4.6, Leading zero omitted, Abs format (unit mm)*
G04 Created by KiCad (PCBNEW 7.0.1-3b83917a11~172~ubuntu20.04.1) date 2023-04-02 21:53:50*
%MOMM*%
%LPD*%
G01*
G04 APERTURE LIST*
%ADD10C,0.300000*%
G04 APERTURE END LIST*
D10*
X181614095Y-92414226D02*
X181673619Y-92473750D01*
X181673619Y-92473750D02*
X181852190Y-92533273D01*
X181852190Y-92533273D02*
X181971238Y-92533273D01*
X181971238Y-92533273D02*
X182149809Y-92473750D01*
X182149809Y-92473750D02*
X182268857Y-92354702D01*
X182268857Y-92354702D02*
X182328380Y-92235654D01*
X182328380Y-92235654D02*
X182387904Y-91997559D01*
X182387904Y-91997559D02*
X182387904Y-91818988D01*
X182387904Y-91818988D02*
X182328380Y-91580892D01*
X182328380Y-91580892D02*
X182268857Y-91461845D01*
X182268857Y-91461845D02*
X182149809Y-91342797D01*
X182149809Y-91342797D02*
X181971238Y-91283273D01*
X181971238Y-91283273D02*
X181852190Y-91283273D01*
X181852190Y-91283273D02*
X181673619Y-91342797D01*
X181673619Y-91342797D02*
X181614095Y-91402321D01*
X180542666Y-91283273D02*
X180780761Y-91283273D01*
X180780761Y-91283273D02*
X180899809Y-91342797D01*
X180899809Y-91342797D02*
X180959333Y-91402321D01*
X180959333Y-91402321D02*
X181078380Y-91580892D01*
X181078380Y-91580892D02*
X181137904Y-91818988D01*
X181137904Y-91818988D02*
X181137904Y-92295178D01*
X181137904Y-92295178D02*
X181078380Y-92414226D01*
X181078380Y-92414226D02*
X181018857Y-92473750D01*
X181018857Y-92473750D02*
X180899809Y-92533273D01*
X180899809Y-92533273D02*
X180661714Y-92533273D01*
X180661714Y-92533273D02*
X180542666Y-92473750D01*
X180542666Y-92473750D02*
X180483142Y-92414226D01*
X180483142Y-92414226D02*
X180423619Y-92295178D01*
X180423619Y-92295178D02*
X180423619Y-91997559D01*
X180423619Y-91997559D02*
X180483142Y-91878511D01*
X180483142Y-91878511D02*
X180542666Y-91818988D01*
X180542666Y-91818988D02*
X180661714Y-91759464D01*
X180661714Y-91759464D02*
X180899809Y-91759464D01*
X180899809Y-91759464D02*
X181018857Y-91818988D01*
X181018857Y-91818988D02*
X181078380Y-91878511D01*
X181078380Y-91878511D02*
X181137904Y-91997559D01*
X179352190Y-91699940D02*
X179352190Y-92533273D01*
X179649809Y-91223750D02*
X179947428Y-92116607D01*
X179947428Y-92116607D02*
X179173619Y-92116607D01*
X177804571Y-92473750D02*
X177626000Y-92533273D01*
X177626000Y-92533273D02*
X177328381Y-92533273D01*
X177328381Y-92533273D02*
X177209333Y-92473750D01*
X177209333Y-92473750D02*
X177149809Y-92414226D01*
X177149809Y-92414226D02*
X177090286Y-92295178D01*
X177090286Y-92295178D02*
X177090286Y-92176130D01*
X177090286Y-92176130D02*
X177149809Y-92057083D01*
X177149809Y-92057083D02*
X177209333Y-91997559D01*
X177209333Y-91997559D02*
X177328381Y-91938035D01*
X177328381Y-91938035D02*
X177566476Y-91878511D01*
X177566476Y-91878511D02*
X177685524Y-91818988D01*
X177685524Y-91818988D02*
X177745047Y-91759464D01*
X177745047Y-91759464D02*
X177804571Y-91640416D01*
X177804571Y-91640416D02*
X177804571Y-91521369D01*
X177804571Y-91521369D02*
X177745047Y-91402321D01*
X177745047Y-91402321D02*
X177685524Y-91342797D01*
X177685524Y-91342797D02*
X177566476Y-91283273D01*
X177566476Y-91283273D02*
X177268857Y-91283273D01*
X177268857Y-91283273D02*
X177090286Y-91342797D01*
X176018857Y-92533273D02*
X176018857Y-91878511D01*
X176018857Y-91878511D02*
X176078381Y-91759464D01*
X176078381Y-91759464D02*
X176197429Y-91699940D01*
X176197429Y-91699940D02*
X176435524Y-91699940D01*
X176435524Y-91699940D02*
X176554571Y-91759464D01*
X176018857Y-92473750D02*
X176137905Y-92533273D01*
X176137905Y-92533273D02*
X176435524Y-92533273D01*
X176435524Y-92533273D02*
X176554571Y-92473750D01*
X176554571Y-92473750D02*
X176614095Y-92354702D01*
X176614095Y-92354702D02*
X176614095Y-92235654D01*
X176614095Y-92235654D02*
X176554571Y-92116607D01*
X176554571Y-92116607D02*
X176435524Y-92057083D01*
X176435524Y-92057083D02*
X176137905Y-92057083D01*
X176137905Y-92057083D02*
X176018857Y-91997559D01*
X175542667Y-91699940D02*
X175245048Y-92533273D01*
X175245048Y-92533273D02*
X174947429Y-91699940D01*
X173995048Y-92473750D02*
X174114096Y-92533273D01*
X174114096Y-92533273D02*
X174352191Y-92533273D01*
X174352191Y-92533273D02*
X174471238Y-92473750D01*
X174471238Y-92473750D02*
X174530762Y-92354702D01*
X174530762Y-92354702D02*
X174530762Y-91878511D01*
X174530762Y-91878511D02*
X174471238Y-91759464D01*
X174471238Y-91759464D02*
X174352191Y-91699940D01*
X174352191Y-91699940D02*
X174114096Y-91699940D01*
X174114096Y-91699940D02*
X173995048Y-91759464D01*
X173995048Y-91759464D02*
X173935524Y-91878511D01*
X173935524Y-91878511D02*
X173935524Y-91997559D01*
X173935524Y-91997559D02*
X174530762Y-92116607D01*
X173399809Y-92533273D02*
X173399809Y-91699940D01*
X173399809Y-91938035D02*
X173340286Y-91818988D01*
X173340286Y-91818988D02*
X173280762Y-91759464D01*
X173280762Y-91759464D02*
X173161714Y-91699940D01*
X173161714Y-91699940D02*
X173042667Y-91699940D01*
X171733142Y-91402321D02*
X171673618Y-91342797D01*
X171673618Y-91342797D02*
X171554571Y-91283273D01*
X171554571Y-91283273D02*
X171256952Y-91283273D01*
X171256952Y-91283273D02*
X171137904Y-91342797D01*
X171137904Y-91342797D02*
X171078380Y-91402321D01*
X171078380Y-91402321D02*
X171018857Y-91521369D01*
X171018857Y-91521369D02*
X171018857Y-91640416D01*
X171018857Y-91640416D02*
X171078380Y-91818988D01*
X171078380Y-91818988D02*
X171792666Y-92533273D01*
X171792666Y-92533273D02*
X171018857Y-92533273D01*
X182387904Y-94201130D02*
X181792666Y-94201130D01*
X182506952Y-94558273D02*
X182090285Y-93308273D01*
X182090285Y-93308273D02*
X181673619Y-94558273D01*
X180721237Y-94558273D02*
X180721237Y-93308273D01*
X180721237Y-94498750D02*
X180840285Y-94558273D01*
X180840285Y-94558273D02*
X181078380Y-94558273D01*
X181078380Y-94558273D02*
X181197428Y-94498750D01*
X181197428Y-94498750D02*
X181256951Y-94439226D01*
X181256951Y-94439226D02*
X181316475Y-94320178D01*
X181316475Y-94320178D02*
X181316475Y-93963035D01*
X181316475Y-93963035D02*
X181256951Y-93843988D01*
X181256951Y-93843988D02*
X181197428Y-93784464D01*
X181197428Y-93784464D02*
X181078380Y-93724940D01*
X181078380Y-93724940D02*
X180840285Y-93724940D01*
X180840285Y-93724940D02*
X180721237Y-93784464D01*
X179590285Y-94558273D02*
X179590285Y-93308273D01*
X179590285Y-94498750D02*
X179709333Y-94558273D01*
X179709333Y-94558273D02*
X179947428Y-94558273D01*
X179947428Y-94558273D02*
X180066476Y-94498750D01*
X180066476Y-94498750D02*
X180125999Y-94439226D01*
X180125999Y-94439226D02*
X180185523Y-94320178D01*
X180185523Y-94320178D02*
X180185523Y-93963035D01*
X180185523Y-93963035D02*
X180125999Y-93843988D01*
X180125999Y-93843988D02*
X180066476Y-93784464D01*
X180066476Y-93784464D02*
X179947428Y-93724940D01*
X179947428Y-93724940D02*
X179709333Y-93724940D01*
X179709333Y-93724940D02*
X179590285Y-93784464D01*
X178816476Y-94558273D02*
X178935524Y-94498750D01*
X178935524Y-94498750D02*
X178995047Y-94439226D01*
X178995047Y-94439226D02*
X179054571Y-94320178D01*
X179054571Y-94320178D02*
X179054571Y-93963035D01*
X179054571Y-93963035D02*
X178995047Y-93843988D01*
X178995047Y-93843988D02*
X178935524Y-93784464D01*
X178935524Y-93784464D02*
X178816476Y-93724940D01*
X178816476Y-93724940D02*
X178637905Y-93724940D01*
X178637905Y-93724940D02*
X178518857Y-93784464D01*
X178518857Y-93784464D02*
X178459333Y-93843988D01*
X178459333Y-93843988D02*
X178399809Y-93963035D01*
X178399809Y-93963035D02*
X178399809Y-94320178D01*
X178399809Y-94320178D02*
X178459333Y-94439226D01*
X178459333Y-94439226D02*
X178518857Y-94498750D01*
X178518857Y-94498750D02*
X178637905Y-94558273D01*
X178637905Y-94558273D02*
X178816476Y-94558273D01*
X177864095Y-93724940D02*
X177864095Y-94558273D01*
X177864095Y-93843988D02*
X177804572Y-93784464D01*
X177804572Y-93784464D02*
X177685524Y-93724940D01*
X177685524Y-93724940D02*
X177506953Y-93724940D01*
X177506953Y-93724940D02*
X177387905Y-93784464D01*
X177387905Y-93784464D02*
X177328381Y-93903511D01*
X177328381Y-93903511D02*
X177328381Y-94558273D01*
X175364096Y-93903511D02*
X175185524Y-93963035D01*
X175185524Y-93963035D02*
X175126001Y-94022559D01*
X175126001Y-94022559D02*
X175066477Y-94141607D01*
X175066477Y-94141607D02*
X175066477Y-94320178D01*
X175066477Y-94320178D02*
X175126001Y-94439226D01*
X175126001Y-94439226D02*
X175185524Y-94498750D01*
X175185524Y-94498750D02*
X175304572Y-94558273D01*
X175304572Y-94558273D02*
X175780762Y-94558273D01*
X175780762Y-94558273D02*
X175780762Y-93308273D01*
X175780762Y-93308273D02*
X175364096Y-93308273D01*
X175364096Y-93308273D02*
X175245048Y-93367797D01*
X175245048Y-93367797D02*
X175185524Y-93427321D01*
X175185524Y-93427321D02*
X175126001Y-93546369D01*
X175126001Y-93546369D02*
X175126001Y-93665416D01*
X175126001Y-93665416D02*
X175185524Y-93784464D01*
X175185524Y-93784464D02*
X175245048Y-93843988D01*
X175245048Y-93843988D02*
X175364096Y-93903511D01*
X175364096Y-93903511D02*
X175780762Y-93903511D01*
X174352191Y-94558273D02*
X174471239Y-94498750D01*
X174471239Y-94498750D02*
X174530762Y-94439226D01*
X174530762Y-94439226D02*
X174590286Y-94320178D01*
X174590286Y-94320178D02*
X174590286Y-93963035D01*
X174590286Y-93963035D02*
X174530762Y-93843988D01*
X174530762Y-93843988D02*
X174471239Y-93784464D01*
X174471239Y-93784464D02*
X174352191Y-93724940D01*
X174352191Y-93724940D02*
X174173620Y-93724940D01*
X174173620Y-93724940D02*
X174054572Y-93784464D01*
X174054572Y-93784464D02*
X173995048Y-93843988D01*
X173995048Y-93843988D02*
X173935524Y-93963035D01*
X173935524Y-93963035D02*
X173935524Y-94320178D01*
X173935524Y-94320178D02*
X173995048Y-94439226D01*
X173995048Y-94439226D02*
X174054572Y-94498750D01*
X174054572Y-94498750D02*
X174173620Y-94558273D01*
X174173620Y-94558273D02*
X174352191Y-94558273D01*
X172864096Y-94558273D02*
X172864096Y-93903511D01*
X172864096Y-93903511D02*
X172923620Y-93784464D01*
X172923620Y-93784464D02*
X173042668Y-93724940D01*
X173042668Y-93724940D02*
X173280763Y-93724940D01*
X173280763Y-93724940D02*
X173399810Y-93784464D01*
X172864096Y-94498750D02*
X172983144Y-94558273D01*
X172983144Y-94558273D02*
X173280763Y-94558273D01*
X173280763Y-94558273D02*
X173399810Y-94498750D01*
X173399810Y-94498750D02*
X173459334Y-94379702D01*
X173459334Y-94379702D02*
X173459334Y-94260654D01*
X173459334Y-94260654D02*
X173399810Y-94141607D01*
X173399810Y-94141607D02*
X173280763Y-94082083D01*
X173280763Y-94082083D02*
X172983144Y-94082083D01*
X172983144Y-94082083D02*
X172864096Y-94022559D01*
X172268858Y-94558273D02*
X172268858Y-93724940D01*
X172268858Y-93963035D02*
X172209335Y-93843988D01*
X172209335Y-93843988D02*
X172149811Y-93784464D01*
X172149811Y-93784464D02*
X172030763Y-93724940D01*
X172030763Y-93724940D02*
X171911716Y-93724940D01*
X170959334Y-94558273D02*
X170959334Y-93308273D01*
X170959334Y-94498750D02*
X171078382Y-94558273D01*
X171078382Y-94558273D02*
X171316477Y-94558273D01*
X171316477Y-94558273D02*
X171435525Y-94498750D01*
X171435525Y-94498750D02*
X171495048Y-94439226D01*
X171495048Y-94439226D02*
X171554572Y-94320178D01*
X171554572Y-94320178D02*
X171554572Y-93963035D01*
X171554572Y-93963035D02*
X171495048Y-93843988D01*
X171495048Y-93843988D02*
X171435525Y-93784464D01*
X171435525Y-93784464D02*
X171316477Y-93724940D01*
X171316477Y-93724940D02*
X171078382Y-93724940D01*
X171078382Y-93724940D02*
X170959334Y-93784464D01*
X168756954Y-94558273D02*
X169471239Y-94558273D01*
X169114096Y-94558273D02*
X169114096Y-93308273D01*
X169114096Y-93308273D02*
X169233144Y-93486845D01*
X169233144Y-93486845D02*
X169352192Y-93605892D01*
X169352192Y-93605892D02*
X169471239Y-93665416D01*
X168221239Y-94439226D02*
X168161716Y-94498750D01*
X168161716Y-94498750D02*
X168221239Y-94558273D01*
X168221239Y-94558273D02*
X168280763Y-94498750D01*
X168280763Y-94498750D02*
X168221239Y-94439226D01*
X168221239Y-94439226D02*
X168221239Y-94558273D01*
X167090287Y-93724940D02*
X167090287Y-94558273D01*
X167387906Y-93248750D02*
X167685525Y-94141607D01*
X167685525Y-94141607D02*
X166911716Y-94141607D01*
X181911714Y-95928511D02*
X181733142Y-95988035D01*
X181733142Y-95988035D02*
X181673619Y-96047559D01*
X181673619Y-96047559D02*
X181614095Y-96166607D01*
X181614095Y-96166607D02*
X181614095Y-96345178D01*
X181614095Y-96345178D02*
X181673619Y-96464226D01*
X181673619Y-96464226D02*
X181733142Y-96523750D01*
X181733142Y-96523750D02*
X181852190Y-96583273D01*
X181852190Y-96583273D02*
X182328380Y-96583273D01*
X182328380Y-96583273D02*
X182328380Y-95333273D01*
X182328380Y-95333273D02*
X181911714Y-95333273D01*
X181911714Y-95333273D02*
X181792666Y-95392797D01*
X181792666Y-95392797D02*
X181733142Y-95452321D01*
X181733142Y-95452321D02*
X181673619Y-95571369D01*
X181673619Y-95571369D02*
X181673619Y-95690416D01*
X181673619Y-95690416D02*
X181733142Y-95809464D01*
X181733142Y-95809464D02*
X181792666Y-95868988D01*
X181792666Y-95868988D02*
X181911714Y-95928511D01*
X181911714Y-95928511D02*
X182328380Y-95928511D01*
X181197428Y-95333273D02*
X180899809Y-96583273D01*
X180899809Y-96583273D02*
X180661714Y-95690416D01*
X180661714Y-95690416D02*
X180423619Y-96583273D01*
X180423619Y-96583273D02*
X180126000Y-95333273D01*
X179709333Y-96226130D02*
X179114095Y-96226130D01*
X179828381Y-96583273D02*
X179411714Y-95333273D01*
X179411714Y-95333273D02*
X178995048Y-96583273D01*
X177864095Y-96464226D02*
X177923619Y-96523750D01*
X177923619Y-96523750D02*
X178102190Y-96583273D01*
X178102190Y-96583273D02*
X178221238Y-96583273D01*
X178221238Y-96583273D02*
X178399809Y-96523750D01*
X178399809Y-96523750D02*
X178518857Y-96404702D01*
X178518857Y-96404702D02*
X178578380Y-96285654D01*
X178578380Y-96285654D02*
X178637904Y-96047559D01*
X178637904Y-96047559D02*
X178637904Y-95868988D01*
X178637904Y-95868988D02*
X178578380Y-95630892D01*
X178578380Y-95630892D02*
X178518857Y-95511845D01*
X178518857Y-95511845D02*
X178399809Y-95392797D01*
X178399809Y-95392797D02*
X178221238Y-95333273D01*
X178221238Y-95333273D02*
X178102190Y-95333273D01*
X178102190Y-95333273D02*
X177923619Y-95392797D01*
X177923619Y-95392797D02*
X177864095Y-95452321D01*
X177328380Y-96583273D02*
X177328380Y-95333273D01*
X176614095Y-96583273D02*
X177149809Y-95868988D01*
X176614095Y-95333273D02*
X177328380Y-96047559D01*
X175185523Y-95452321D02*
X175125999Y-95392797D01*
X175125999Y-95392797D02*
X175006952Y-95333273D01*
X175006952Y-95333273D02*
X174709333Y-95333273D01*
X174709333Y-95333273D02*
X174590285Y-95392797D01*
X174590285Y-95392797D02*
X174530761Y-95452321D01*
X174530761Y-95452321D02*
X174471238Y-95571369D01*
X174471238Y-95571369D02*
X174471238Y-95690416D01*
X174471238Y-95690416D02*
X174530761Y-95868988D01*
X174530761Y-95868988D02*
X175245047Y-96583273D01*
X175245047Y-96583273D02*
X174471238Y-96583273D01*
X173697428Y-95333273D02*
X173578381Y-95333273D01*
X173578381Y-95333273D02*
X173459333Y-95392797D01*
X173459333Y-95392797D02*
X173399809Y-95452321D01*
X173399809Y-95452321D02*
X173340285Y-95571369D01*
X173340285Y-95571369D02*
X173280762Y-95809464D01*
X173280762Y-95809464D02*
X173280762Y-96107083D01*
X173280762Y-96107083D02*
X173340285Y-96345178D01*
X173340285Y-96345178D02*
X173399809Y-96464226D01*
X173399809Y-96464226D02*
X173459333Y-96523750D01*
X173459333Y-96523750D02*
X173578381Y-96583273D01*
X173578381Y-96583273D02*
X173697428Y-96583273D01*
X173697428Y-96583273D02*
X173816476Y-96523750D01*
X173816476Y-96523750D02*
X173876000Y-96464226D01*
X173876000Y-96464226D02*
X173935523Y-96345178D01*
X173935523Y-96345178D02*
X173995047Y-96107083D01*
X173995047Y-96107083D02*
X173995047Y-95809464D01*
X173995047Y-95809464D02*
X173935523Y-95571369D01*
X173935523Y-95571369D02*
X173876000Y-95452321D01*
X173876000Y-95452321D02*
X173816476Y-95392797D01*
X173816476Y-95392797D02*
X173697428Y-95333273D01*
X172804571Y-95452321D02*
X172745047Y-95392797D01*
X172745047Y-95392797D02*
X172626000Y-95333273D01*
X172626000Y-95333273D02*
X172328381Y-95333273D01*
X172328381Y-95333273D02*
X172209333Y-95392797D01*
X172209333Y-95392797D02*
X172149809Y-95452321D01*
X172149809Y-95452321D02*
X172090286Y-95571369D01*
X172090286Y-95571369D02*
X172090286Y-95690416D01*
X172090286Y-95690416D02*
X172149809Y-95868988D01*
X172149809Y-95868988D02*
X172864095Y-96583273D01*
X172864095Y-96583273D02*
X172090286Y-96583273D01*
X171673619Y-95333273D02*
X170899810Y-95333273D01*
X170899810Y-95333273D02*
X171316476Y-95809464D01*
X171316476Y-95809464D02*
X171137905Y-95809464D01*
X171137905Y-95809464D02*
X171018857Y-95868988D01*
X171018857Y-95868988D02*
X170959333Y-95928511D01*
X170959333Y-95928511D02*
X170899810Y-96047559D01*
X170899810Y-96047559D02*
X170899810Y-96345178D01*
X170899810Y-96345178D02*
X170959333Y-96464226D01*
X170959333Y-96464226D02*
X171018857Y-96523750D01*
X171018857Y-96523750D02*
X171137905Y-96583273D01*
X171137905Y-96583273D02*
X171495048Y-96583273D01*
X171495048Y-96583273D02*
X171614095Y-96523750D01*
X171614095Y-96523750D02*
X171673619Y-96464226D01*
M02*
