G04 #@! TF.GenerationSoftware,KiCad,Pcbnew,7.0.1-3b83917a11~172~ubuntu20.04.1*
G04 #@! TF.CreationDate,2023-04-02T21:53:50+02:00*
G04 #@! TF.ProjectId,C64Saver2-addon,43363453-6176-4657-9232-2d6164646f6e,1.4*
G04 #@! TF.SameCoordinates,Original*
G04 #@! TF.FileFunction,Copper,L2,Bot*
G04 #@! TF.FilePolarity,Positive*
%FSLAX46Y46*%
G04 Gerber Fmt 4.6, Leading zero omitted, Abs format (unit mm)*
G04 Created by KiCad (PCBNEW 7.0.1-3b83917a11~172~ubuntu20.04.1) date 2023-04-02 21:53:50*
%MOMM*%
%LPD*%
G01*
G04 APERTURE LIST*
G04 #@! TA.AperFunction,ComponentPad*
%ADD10C,2.000000*%
G04 #@! TD*
G04 #@! TA.AperFunction,ComponentPad*
%ADD11R,1.700000X1.700000*%
G04 #@! TD*
G04 #@! TA.AperFunction,ComponentPad*
%ADD12O,1.700000X1.700000*%
G04 #@! TD*
G04 #@! TA.AperFunction,ComponentPad*
%ADD13R,1.350000X1.350000*%
G04 #@! TD*
G04 #@! TA.AperFunction,ComponentPad*
%ADD14O,1.350000X1.350000*%
G04 #@! TD*
G04 #@! TA.AperFunction,ViaPad*
%ADD15C,0.600000*%
G04 #@! TD*
G04 #@! TA.AperFunction,Conductor*
%ADD16C,0.500000*%
G04 #@! TD*
G04 #@! TA.AperFunction,Conductor*
%ADD17C,1.000000*%
G04 #@! TD*
G04 #@! TA.AperFunction,Conductor*
%ADD18C,0.250000*%
G04 #@! TD*
G04 #@! TA.AperFunction,Conductor*
%ADD19C,0.127000*%
G04 #@! TD*
G04 #@! TA.AperFunction,Conductor*
%ADD20C,2.000000*%
G04 #@! TD*
G04 APERTURE END LIST*
D10*
X182372000Y-110617000D03*
X175872000Y-110617000D03*
X182372000Y-106117000D03*
X175872000Y-106117000D03*
D11*
X142240000Y-99441000D03*
D12*
X142240000Y-96901000D03*
X142240000Y-94361000D03*
X142240000Y-91821000D03*
D11*
X157480000Y-86360000D03*
D12*
X160020000Y-86360000D03*
X162560000Y-86360000D03*
X165100000Y-86360000D03*
X167640000Y-86360000D03*
X170180000Y-86360000D03*
X172720000Y-86360000D03*
X175260000Y-86360000D03*
D11*
X148590000Y-110490000D03*
D12*
X151130000Y-110490000D03*
X153670000Y-110490000D03*
X156210000Y-110490000D03*
X158750000Y-110490000D03*
X161290000Y-110490000D03*
X163830000Y-110490000D03*
X166370000Y-110490000D03*
D11*
X160020000Y-107950000D03*
D12*
X162560000Y-107950000D03*
X165100000Y-107950000D03*
X167640000Y-107950000D03*
D13*
X142018000Y-85122000D03*
D14*
X144018000Y-85122000D03*
X142018000Y-87122000D03*
X144018000Y-87122000D03*
X142018000Y-89122000D03*
X144018000Y-89122000D03*
D15*
X152146000Y-86106000D03*
X159250326Y-92075000D03*
X169672000Y-104267000D03*
X156210000Y-94488000D03*
X169799000Y-98933000D03*
X155067000Y-101346000D03*
X166370000Y-91948000D03*
X165039058Y-93532942D03*
X161036000Y-88900000D03*
X164084000Y-88900000D03*
X150202809Y-91195548D03*
X151522215Y-89523785D03*
X149479000Y-94869000D03*
X149479000Y-96139000D03*
X149796283Y-92964000D03*
X149034283Y-92202000D03*
X159766000Y-89916000D03*
X153187400Y-84836000D03*
X163576000Y-98806000D03*
X165481000Y-95250000D03*
X164084000Y-99314000D03*
X154813000Y-94869000D03*
X165100000Y-96266000D03*
X157607000Y-94996000D03*
X154686000Y-96647000D03*
X154813000Y-91440000D03*
X158750000Y-95123000D03*
X159367898Y-99204102D03*
X172654000Y-104714000D03*
X160404486Y-98570729D03*
X153924000Y-103505000D03*
X175006000Y-103060500D03*
X175006000Y-98171000D03*
X151003000Y-88900000D03*
X149606000Y-90170000D03*
D16*
X144018000Y-85122000D02*
X151162000Y-85122000D01*
X159250326Y-92892826D02*
X159766000Y-93408500D01*
D17*
X156210000Y-93408500D02*
X156210000Y-100203000D01*
X156210000Y-90170000D02*
X156210000Y-92202000D01*
X165633400Y-98882200D02*
X159766000Y-93408500D01*
X169799000Y-98933000D02*
X169672000Y-104267000D01*
D16*
X159250326Y-92075000D02*
X159250326Y-92892826D01*
D17*
X169799000Y-98933000D02*
X165633400Y-98882200D01*
X156210000Y-92202000D02*
X156210000Y-93408500D01*
X156210000Y-93408500D02*
X156210000Y-93027500D01*
X152146000Y-86106000D02*
X156210000Y-90170000D01*
X156210000Y-100203000D02*
X155067000Y-101346000D01*
X156210000Y-93408500D02*
X159766000Y-93408500D01*
D16*
X151162000Y-85122000D02*
X152146000Y-86106000D01*
D18*
X165039058Y-93532942D02*
X165039058Y-93278942D01*
X165039058Y-93278942D02*
X166370000Y-91948000D01*
D19*
X144018000Y-87122000D02*
X143079500Y-88060500D01*
X143079500Y-90981500D02*
X142240000Y-91821000D01*
X164084000Y-88900000D02*
X161036000Y-88900000D01*
X143079500Y-88060500D02*
X143079500Y-90981500D01*
X151522215Y-89523785D02*
X150202809Y-90843191D01*
X150202809Y-90843191D02*
X150202809Y-91195548D01*
D20*
X147151989Y-104416274D02*
X148422499Y-105686784D01*
X156210000Y-110490000D02*
X153670000Y-110490000D01*
X151130000Y-110490000D02*
X148590000Y-110490000D01*
X148422499Y-105686784D02*
X148422499Y-110322499D01*
X153670000Y-110490000D02*
X151130000Y-110490000D01*
D17*
X149479000Y-94869000D02*
X149479000Y-96139000D01*
D20*
X148422499Y-110322499D02*
X148590000Y-110490000D01*
X147151989Y-98466011D02*
X147151989Y-104416274D01*
X149479000Y-96139000D02*
X147151989Y-98466011D01*
X149606000Y-99123283D02*
X151679010Y-97050273D01*
X156464000Y-108204000D02*
X154813000Y-108204000D01*
X150220547Y-92964000D02*
X149796283Y-92964000D01*
X150749000Y-104140000D02*
X149606000Y-102997000D01*
X154813000Y-108204000D02*
X154727000Y-108290000D01*
X154727000Y-108290000D02*
X150749000Y-108290000D01*
X149796283Y-92964000D02*
X149034283Y-92202000D01*
X166370000Y-110490000D02*
X163830000Y-110490000D01*
X151679010Y-97050273D02*
X151679010Y-94422463D01*
X151679010Y-94422463D02*
X150220547Y-92964000D01*
X150749000Y-108290000D02*
X150749000Y-104140000D01*
D17*
X158750000Y-110490000D02*
X156464000Y-108204000D01*
D20*
X163830000Y-110490000D02*
X161290000Y-110490000D01*
X161290000Y-110490000D02*
X158750000Y-110490000D01*
X149606000Y-102997000D02*
X149606000Y-99123283D01*
D16*
X174307500Y-106614314D02*
X172371823Y-108549991D01*
X174307500Y-103759000D02*
X174307500Y-106614314D01*
X175006000Y-98171000D02*
X175006000Y-103060500D01*
X175006000Y-103060500D02*
X174307500Y-103759000D01*
X168842081Y-107950000D02*
X167640000Y-107950000D01*
X169037000Y-108144919D02*
X168842081Y-107950000D01*
X172371823Y-108549991D02*
X169037000Y-108549991D01*
X169037000Y-108549991D02*
X169037000Y-108144919D01*
D19*
X151003000Y-88900000D02*
X149733000Y-90170000D01*
X149733000Y-90170000D02*
X149606000Y-90170000D01*
G04 #@! TA.AperFunction,Conductor*
G36*
X177915500Y-83658381D02*
G01*
X177961619Y-83704500D01*
X177978500Y-83767500D01*
X177978500Y-89870470D01*
X177976586Y-89892350D01*
X177974875Y-89902047D01*
X177976586Y-89911746D01*
X177978128Y-89929373D01*
X177982707Y-89946467D01*
X177984418Y-89956171D01*
X177987935Y-89962262D01*
X177992452Y-89967645D01*
X178000982Y-89972570D01*
X178018972Y-89985167D01*
X178026518Y-89991499D01*
X178026519Y-89991499D01*
X178026520Y-89991500D01*
X178026521Y-89991500D01*
X178033123Y-89993903D01*
X178040047Y-89995124D01*
X178040047Y-89995123D01*
X178040048Y-89995124D01*
X178049746Y-89993413D01*
X178071625Y-89991500D01*
X184202500Y-89991500D01*
X184265500Y-90008381D01*
X184311619Y-90054500D01*
X184328500Y-90117500D01*
X184328500Y-112320500D01*
X184311619Y-112383500D01*
X184265500Y-112429619D01*
X184202500Y-112446500D01*
X147013500Y-112446500D01*
X146950500Y-112429619D01*
X146904381Y-112383500D01*
X146887500Y-112320500D01*
X146887500Y-110932930D01*
X146905375Y-110868239D01*
X146953927Y-110821903D01*
X147019382Y-110807067D01*
X147083167Y-110827942D01*
X147127187Y-110878605D01*
X147144608Y-110915062D01*
X147145736Y-110917488D01*
X147188412Y-111011899D01*
X147191587Y-111016597D01*
X147200881Y-111032827D01*
X147203324Y-111037940D01*
X147263156Y-111122537D01*
X147264677Y-111124737D01*
X147309892Y-111191635D01*
X147325977Y-111225296D01*
X147331500Y-111262191D01*
X147331500Y-111372146D01*
X147339701Y-111423925D01*
X147346651Y-111467807D01*
X147368429Y-111510549D01*
X147405398Y-111583105D01*
X147496894Y-111674601D01*
X147496896Y-111674602D01*
X147496897Y-111674603D01*
X147612193Y-111733349D01*
X147707851Y-111748500D01*
X147917393Y-111748499D01*
X147970063Y-111762812D01*
X147970495Y-111761669D01*
X147985830Y-111767456D01*
X148002792Y-111775341D01*
X148007740Y-111778105D01*
X148105464Y-111812633D01*
X148107879Y-111813515D01*
X148204850Y-111850111D01*
X148210414Y-111851187D01*
X148228459Y-111856090D01*
X148233806Y-111857980D01*
X148333758Y-111875118D01*
X148335915Y-111875488D01*
X148338546Y-111875968D01*
X148365189Y-111881120D01*
X148440250Y-111895638D01*
X148445922Y-111895758D01*
X148464529Y-111897541D01*
X148470119Y-111898500D01*
X148573704Y-111898500D01*
X148576377Y-111898527D01*
X148679957Y-111900727D01*
X148683013Y-111900269D01*
X148685564Y-111899888D01*
X148704214Y-111898500D01*
X156269828Y-111898500D01*
X156448898Y-111883259D01*
X156478743Y-111875488D01*
X156680924Y-111822844D01*
X156899402Y-111724086D01*
X157098047Y-111589825D01*
X157271144Y-111423925D01*
X157378469Y-111278811D01*
X157425447Y-111240050D01*
X157485120Y-111227851D01*
X157543543Y-111245066D01*
X157587065Y-111287675D01*
X157613477Y-111330571D01*
X157771878Y-111510549D01*
X157861734Y-111583103D01*
X157958424Y-111661175D01*
X158063081Y-111719639D01*
X158167741Y-111778106D01*
X158294362Y-111822844D01*
X158393806Y-111857980D01*
X158630119Y-111898500D01*
X161170119Y-111898500D01*
X161349827Y-111898500D01*
X163710119Y-111898500D01*
X163889827Y-111898500D01*
X166429827Y-111898500D01*
X166429828Y-111898500D01*
X166608898Y-111883259D01*
X166638743Y-111875488D01*
X166736239Y-111850102D01*
X174998107Y-111850102D01*
X175185261Y-111964791D01*
X175404559Y-112055627D01*
X175635366Y-112111039D01*
X175872000Y-112129662D01*
X176108633Y-112111039D01*
X176339440Y-112055627D01*
X176558738Y-111964791D01*
X176745891Y-111850102D01*
X181498107Y-111850102D01*
X181685261Y-111964791D01*
X181904559Y-112055627D01*
X182135366Y-112111039D01*
X182372000Y-112129662D01*
X182608633Y-112111039D01*
X182839440Y-112055627D01*
X183058738Y-111964791D01*
X183245891Y-111850102D01*
X183245892Y-111850101D01*
X182372001Y-110976210D01*
X182372000Y-110976210D01*
X181498107Y-111850101D01*
X181498107Y-111850102D01*
X176745891Y-111850102D01*
X176745892Y-111850101D01*
X175872001Y-110976210D01*
X175872000Y-110976210D01*
X174998107Y-111850101D01*
X174998107Y-111850102D01*
X166736239Y-111850102D01*
X166840924Y-111822844D01*
X167059402Y-111724086D01*
X167258047Y-111589825D01*
X167431144Y-111423925D01*
X167573715Y-111231157D01*
X167681657Y-111017067D01*
X167751864Y-110787815D01*
X167773738Y-110617000D01*
X174359337Y-110617000D01*
X174377960Y-110853633D01*
X174433372Y-111084440D01*
X174524208Y-111303738D01*
X174638896Y-111490891D01*
X174638897Y-111490891D01*
X175512789Y-110617001D01*
X176231210Y-110617001D01*
X177105101Y-111490892D01*
X177105102Y-111490891D01*
X177219791Y-111303738D01*
X177310627Y-111084440D01*
X177366039Y-110853633D01*
X177384662Y-110617000D01*
X180859337Y-110617000D01*
X180877960Y-110853633D01*
X180933372Y-111084440D01*
X181024208Y-111303738D01*
X181138896Y-111490891D01*
X181138897Y-111490891D01*
X182012789Y-110617001D01*
X182731210Y-110617001D01*
X183605101Y-111490892D01*
X183605102Y-111490891D01*
X183719791Y-111303738D01*
X183810627Y-111084440D01*
X183866039Y-110853633D01*
X183884662Y-110617000D01*
X183866039Y-110380366D01*
X183810627Y-110149559D01*
X183719791Y-109930261D01*
X183605102Y-109743107D01*
X183605101Y-109743107D01*
X182731210Y-110617000D01*
X182731210Y-110617001D01*
X182012789Y-110617001D01*
X182012790Y-110617000D01*
X182012790Y-110616999D01*
X181138898Y-109743107D01*
X181138896Y-109743107D01*
X181024207Y-109930264D01*
X180933372Y-110149559D01*
X180877960Y-110380366D01*
X180859337Y-110617000D01*
X177384662Y-110617000D01*
X177366039Y-110380366D01*
X177310627Y-110149559D01*
X177219791Y-109930261D01*
X177105102Y-109743107D01*
X177105101Y-109743107D01*
X176231210Y-110617000D01*
X176231210Y-110617001D01*
X175512789Y-110617001D01*
X175512790Y-110617000D01*
X175512790Y-110616999D01*
X174638898Y-109743107D01*
X174638896Y-109743107D01*
X174524207Y-109930264D01*
X174433372Y-110149559D01*
X174377960Y-110380366D01*
X174359337Y-110617000D01*
X167773738Y-110617000D01*
X167782318Y-110549995D01*
X167772143Y-110310449D01*
X167721630Y-110076068D01*
X167632233Y-109853596D01*
X167506524Y-109649431D01*
X167506523Y-109649430D01*
X167506522Y-109649428D01*
X167348120Y-109469450D01*
X167264567Y-109401984D01*
X167251679Y-109383898D01*
X174998107Y-109383898D01*
X175871999Y-110257790D01*
X175872000Y-110257790D01*
X176745890Y-109383898D01*
X181498107Y-109383898D01*
X182371999Y-110257790D01*
X182372000Y-110257790D01*
X183245891Y-109383897D01*
X183245891Y-109383896D01*
X183058738Y-109269208D01*
X182839440Y-109178372D01*
X182608633Y-109122960D01*
X182372000Y-109104337D01*
X182135366Y-109122960D01*
X181904559Y-109178372D01*
X181685264Y-109269207D01*
X181498107Y-109383896D01*
X181498107Y-109383898D01*
X176745890Y-109383898D01*
X176745891Y-109383897D01*
X176745891Y-109383896D01*
X176558738Y-109269208D01*
X176339440Y-109178372D01*
X176108633Y-109122960D01*
X175872000Y-109104337D01*
X175635366Y-109122960D01*
X175404559Y-109178372D01*
X175185264Y-109269207D01*
X174998107Y-109383896D01*
X174998107Y-109383898D01*
X167251679Y-109383898D01*
X167225220Y-109346766D01*
X167220188Y-109279151D01*
X167250928Y-109218717D01*
X167308538Y-109182964D01*
X167376334Y-109182246D01*
X167420629Y-109194115D01*
X167640000Y-109213307D01*
X167859371Y-109194115D01*
X167860036Y-109193937D01*
X167907424Y-109181239D01*
X168072076Y-109137120D01*
X168271654Y-109044056D01*
X168375932Y-108971039D01*
X168436489Y-108948798D01*
X168500119Y-108959445D01*
X168550138Y-109000191D01*
X168553158Y-109004348D01*
X168598254Y-109041654D01*
X168604190Y-109046886D01*
X168646867Y-109086963D01*
X168652087Y-109089833D01*
X168654781Y-109091314D01*
X168674394Y-109104642D01*
X168681354Y-109110400D01*
X168698294Y-109118371D01*
X168734320Y-109135324D01*
X168741374Y-109138918D01*
X168749112Y-109143172D01*
X168792663Y-109167115D01*
X168801405Y-109169359D01*
X168823718Y-109177392D01*
X168831895Y-109181240D01*
X168889414Y-109192211D01*
X168897116Y-109193933D01*
X168953812Y-109208491D01*
X168962844Y-109208491D01*
X168986452Y-109210722D01*
X168995324Y-109212415D01*
X168995324Y-109212414D01*
X168995325Y-109212415D01*
X169053735Y-109208740D01*
X169061648Y-109208491D01*
X172285212Y-109208491D01*
X172306697Y-109210862D01*
X172309357Y-109210778D01*
X172309360Y-109210779D01*
X172380192Y-109208552D01*
X172384150Y-109208491D01*
X172413257Y-109208491D01*
X172417648Y-109207936D01*
X172429485Y-109207003D01*
X172475654Y-109205553D01*
X172487235Y-109202188D01*
X172496241Y-109199572D01*
X172515603Y-109195561D01*
X172536887Y-109192873D01*
X172579855Y-109175860D01*
X172591054Y-109172026D01*
X172635423Y-109159136D01*
X172653887Y-109148215D01*
X172671630Y-109139523D01*
X172691579Y-109131626D01*
X172728971Y-109104457D01*
X172738848Y-109097969D01*
X172778630Y-109074444D01*
X172793797Y-109059276D01*
X172808829Y-109046438D01*
X172826177Y-109033834D01*
X172826176Y-109033834D01*
X172826180Y-109033832D01*
X172855635Y-108998224D01*
X172863604Y-108989468D01*
X174711887Y-107141185D01*
X174733477Y-107123891D01*
X174739900Y-107119816D01*
X174794655Y-107100856D01*
X174852106Y-107108408D01*
X174900100Y-107140872D01*
X174914780Y-107156818D01*
X175098983Y-107300190D01*
X175304273Y-107411287D01*
X175525049Y-107487080D01*
X175755288Y-107525500D01*
X175988709Y-107525500D01*
X175988712Y-107525500D01*
X176218951Y-107487080D01*
X176439727Y-107411287D01*
X176645017Y-107300190D01*
X176829220Y-107156818D01*
X176987314Y-106985083D01*
X177114984Y-106789669D01*
X177208749Y-106575907D01*
X177266051Y-106349626D01*
X177285327Y-106117000D01*
X180958673Y-106117000D01*
X180977949Y-106349626D01*
X180977949Y-106349629D01*
X180977950Y-106349630D01*
X181035250Y-106575905D01*
X181129016Y-106789669D01*
X181172315Y-106855944D01*
X181256686Y-106985083D01*
X181414780Y-107156818D01*
X181598983Y-107300190D01*
X181804273Y-107411287D01*
X182025049Y-107487080D01*
X182255288Y-107525500D01*
X182488709Y-107525500D01*
X182488712Y-107525500D01*
X182718951Y-107487080D01*
X182939727Y-107411287D01*
X183145017Y-107300190D01*
X183329220Y-107156818D01*
X183487314Y-106985083D01*
X183614984Y-106789669D01*
X183708749Y-106575907D01*
X183766051Y-106349626D01*
X183785327Y-106117000D01*
X183766051Y-105884374D01*
X183708749Y-105658093D01*
X183614984Y-105444331D01*
X183487314Y-105248917D01*
X183329220Y-105077182D01*
X183145017Y-104933810D01*
X183092032Y-104905136D01*
X182939726Y-104822712D01*
X182790275Y-104771405D01*
X182718951Y-104746920D01*
X182488712Y-104708500D01*
X182255288Y-104708500D01*
X182025049Y-104746920D01*
X182025046Y-104746920D01*
X182025046Y-104746921D01*
X181804273Y-104822712D01*
X181598984Y-104933809D01*
X181414779Y-105077182D01*
X181256684Y-105248919D01*
X181129016Y-105444330D01*
X181035250Y-105658094D01*
X180978701Y-105881405D01*
X180977949Y-105884374D01*
X180958673Y-106117000D01*
X177285327Y-106117000D01*
X177266051Y-105884374D01*
X177208749Y-105658093D01*
X177114984Y-105444331D01*
X176987314Y-105248917D01*
X176829220Y-105077182D01*
X176645017Y-104933810D01*
X176592032Y-104905136D01*
X176439726Y-104822712D01*
X176290275Y-104771405D01*
X176218951Y-104746920D01*
X175988712Y-104708500D01*
X175755288Y-104708500D01*
X175525049Y-104746920D01*
X175525046Y-104746920D01*
X175525046Y-104746921D01*
X175304273Y-104822712D01*
X175241712Y-104856569D01*
X175151967Y-104905136D01*
X175089396Y-104920295D01*
X175027503Y-104902563D01*
X174982449Y-104856569D01*
X174966000Y-104794322D01*
X174966000Y-104083951D01*
X174975591Y-104035733D01*
X175002904Y-103994856D01*
X175029641Y-103968118D01*
X175268362Y-103729396D01*
X175298899Y-103706926D01*
X175411430Y-103647867D01*
X175540215Y-103533773D01*
X175637954Y-103392175D01*
X175698965Y-103231301D01*
X175719704Y-103060500D01*
X175698965Y-102889699D01*
X175672688Y-102820412D01*
X175664500Y-102775732D01*
X175664500Y-98455768D01*
X175672688Y-98411088D01*
X175697323Y-98346130D01*
X175698965Y-98341801D01*
X175719704Y-98171000D01*
X175698965Y-98000199D01*
X175678696Y-97946753D01*
X175637955Y-97839327D01*
X175637954Y-97839325D01*
X175540215Y-97697727D01*
X175411430Y-97583633D01*
X175318562Y-97534892D01*
X175259085Y-97503676D01*
X175259084Y-97503675D01*
X175259083Y-97503675D01*
X175092028Y-97462500D01*
X174919972Y-97462500D01*
X174752917Y-97503675D01*
X174752916Y-97503675D01*
X174752914Y-97503676D01*
X174600571Y-97583632D01*
X174545373Y-97632533D01*
X174471785Y-97697727D01*
X174439205Y-97744926D01*
X174374044Y-97839327D01*
X174313034Y-98000199D01*
X174292296Y-98171000D01*
X174313034Y-98341800D01*
X174339312Y-98411088D01*
X174347500Y-98455768D01*
X174347500Y-102735550D01*
X174337909Y-102783768D01*
X174310595Y-102824646D01*
X173903109Y-103232129D01*
X173886241Y-103245643D01*
X173835894Y-103299257D01*
X173833144Y-103302095D01*
X173812570Y-103322670D01*
X173809843Y-103326185D01*
X173802150Y-103335191D01*
X173770527Y-103368868D01*
X173760190Y-103387668D01*
X173749344Y-103404179D01*
X173736195Y-103421131D01*
X173717850Y-103463524D01*
X173712630Y-103474179D01*
X173690376Y-103514660D01*
X173685042Y-103535435D01*
X173678639Y-103554135D01*
X173670120Y-103573820D01*
X173662893Y-103619452D01*
X173660486Y-103631073D01*
X173649000Y-103675811D01*
X173649000Y-103697259D01*
X173647449Y-103716970D01*
X173644094Y-103738152D01*
X173648441Y-103784138D01*
X173649000Y-103795996D01*
X173649000Y-106289364D01*
X173639409Y-106337582D01*
X173612095Y-106378459D01*
X172135968Y-107854586D01*
X172095091Y-107881900D01*
X172046873Y-107891491D01*
X169730526Y-107891491D01*
X169681707Y-107881649D01*
X169640514Y-107853661D01*
X169629605Y-107836869D01*
X169627992Y-107838042D01*
X169618635Y-107825164D01*
X169618635Y-107825163D01*
X169591473Y-107787779D01*
X169584964Y-107777869D01*
X169561453Y-107738112D01*
X169546288Y-107722947D01*
X169533447Y-107707913D01*
X169520840Y-107690561D01*
X169485246Y-107661115D01*
X169476467Y-107653126D01*
X169368955Y-107545614D01*
X169355437Y-107528742D01*
X169301823Y-107478395D01*
X169299011Y-107475670D01*
X169278414Y-107455073D01*
X169274909Y-107452354D01*
X169265884Y-107444646D01*
X169232212Y-107413026D01*
X169213419Y-107402694D01*
X169196898Y-107391842D01*
X169179951Y-107378697D01*
X169144674Y-107363431D01*
X169137540Y-107360343D01*
X169126899Y-107355130D01*
X169086418Y-107332876D01*
X169086415Y-107332875D01*
X169065649Y-107327543D01*
X169046945Y-107321139D01*
X169027259Y-107312620D01*
X168981633Y-107305394D01*
X168970009Y-107302987D01*
X168953261Y-107298687D01*
X168925269Y-107291500D01*
X168925268Y-107291500D01*
X168903822Y-107291500D01*
X168884113Y-107289949D01*
X168862929Y-107286594D01*
X168862928Y-107286594D01*
X168842851Y-107288491D01*
X168816940Y-107290941D01*
X168805085Y-107291500D01*
X168780849Y-107291500D01*
X168722669Y-107277263D01*
X168677636Y-107237771D01*
X168631912Y-107172471D01*
X168607749Y-107137962D01*
X168607748Y-107137961D01*
X168607746Y-107137958D01*
X168452041Y-106982253D01*
X168271653Y-106855943D01*
X168072074Y-106762879D01*
X167859375Y-106705885D01*
X167640000Y-106686693D01*
X167420624Y-106705885D01*
X167207925Y-106762879D01*
X167008347Y-106855943D01*
X166827958Y-106982253D01*
X166672253Y-107137958D01*
X166545944Y-107318345D01*
X166484195Y-107450769D01*
X166437700Y-107503786D01*
X166370000Y-107523519D01*
X166302300Y-107503786D01*
X166255805Y-107450769D01*
X166237394Y-107411287D01*
X166194056Y-107318347D01*
X166184986Y-107305394D01*
X166067746Y-107137958D01*
X165912041Y-106982253D01*
X165731653Y-106855943D01*
X165532074Y-106762879D01*
X165319375Y-106705885D01*
X165100000Y-106686693D01*
X164880624Y-106705885D01*
X164667925Y-106762879D01*
X164468347Y-106855943D01*
X164287958Y-106982253D01*
X164132253Y-107137958D01*
X164005944Y-107318345D01*
X163944195Y-107450769D01*
X163897700Y-107503786D01*
X163830000Y-107523519D01*
X163762300Y-107503786D01*
X163715805Y-107450769D01*
X163697394Y-107411287D01*
X163654056Y-107318347D01*
X163644986Y-107305394D01*
X163527746Y-107137958D01*
X163372041Y-106982253D01*
X163191653Y-106855943D01*
X162992074Y-106762879D01*
X162779375Y-106705885D01*
X162560000Y-106686693D01*
X162340624Y-106705885D01*
X162127925Y-106762879D01*
X161928347Y-106855943D01*
X161747958Y-106982253D01*
X161593095Y-107137117D01*
X161542936Y-107167855D01*
X161484289Y-107172471D01*
X161429939Y-107149958D01*
X161391733Y-107105225D01*
X161380382Y-107057947D01*
X161378722Y-107058126D01*
X161371494Y-106990906D01*
X161320445Y-106854037D01*
X161232904Y-106737095D01*
X161115962Y-106649554D01*
X160979093Y-106598505D01*
X160918589Y-106592000D01*
X160274000Y-106592000D01*
X160274000Y-108078000D01*
X160257119Y-108141000D01*
X160211000Y-108187119D01*
X160148000Y-108204000D01*
X158662000Y-108204000D01*
X158662000Y-108812997D01*
X158648267Y-108870200D01*
X158610061Y-108914933D01*
X158555711Y-108937446D01*
X158497064Y-108932830D01*
X158446905Y-108902092D01*
X157912396Y-108367583D01*
X157882249Y-108319197D01*
X157877745Y-108274669D01*
X157876774Y-108274711D01*
X157866143Y-108024451D01*
X157823193Y-107825163D01*
X157815630Y-107790068D01*
X157777830Y-107696000D01*
X158662000Y-107696000D01*
X159766000Y-107696000D01*
X159766000Y-106592000D01*
X159121411Y-106592000D01*
X159060906Y-106598505D01*
X158924037Y-106649554D01*
X158807095Y-106737095D01*
X158719554Y-106854037D01*
X158668505Y-106990906D01*
X158662000Y-107051411D01*
X158662000Y-107696000D01*
X157777830Y-107696000D01*
X157726233Y-107567596D01*
X157600524Y-107363431D01*
X157600523Y-107363430D01*
X157600522Y-107363428D01*
X157442121Y-107183450D01*
X157255576Y-107032825D01*
X157046258Y-106915893D01*
X156820198Y-106836021D01*
X156820195Y-106836020D01*
X156820194Y-106836020D01*
X156583881Y-106795500D01*
X156583879Y-106795500D01*
X154861870Y-106795500D01*
X154853853Y-106795245D01*
X154834005Y-106793979D01*
X154782996Y-106790727D01*
X154782994Y-106790727D01*
X154680008Y-106801698D01*
X154677347Y-106801953D01*
X154574100Y-106810740D01*
X154568602Y-106812172D01*
X154550228Y-106815523D01*
X154544592Y-106816124D01*
X154544586Y-106816125D01*
X154544583Y-106816126D01*
X154474328Y-106836020D01*
X154444924Y-106844346D01*
X154442347Y-106845046D01*
X154331702Y-106873857D01*
X154331478Y-106873000D01*
X154292037Y-106881500D01*
X152283500Y-106881500D01*
X152220500Y-106864619D01*
X152174381Y-106818500D01*
X152157500Y-106755500D01*
X152157500Y-104188869D01*
X152157755Y-104180852D01*
X152157797Y-104180188D01*
X152162273Y-104109996D01*
X152151300Y-104007000D01*
X152151045Y-104004336D01*
X152142259Y-103901103D01*
X152140831Y-103895618D01*
X152137473Y-103877213D01*
X152136874Y-103871583D01*
X152108624Y-103771822D01*
X152107976Y-103769441D01*
X152081844Y-103669076D01*
X152079508Y-103663909D01*
X152073089Y-103646335D01*
X152071548Y-103640893D01*
X152071548Y-103640892D01*
X152026850Y-103547353D01*
X152025801Y-103545096D01*
X151983086Y-103450598D01*
X151979913Y-103445903D01*
X151970617Y-103429670D01*
X151968175Y-103424559D01*
X151908333Y-103339948D01*
X151906859Y-103337817D01*
X151848825Y-103251953D01*
X151844905Y-103247863D01*
X151832996Y-103233430D01*
X151829728Y-103228809D01*
X151756460Y-103155541D01*
X151754636Y-103153678D01*
X151682925Y-103078856D01*
X151678369Y-103075486D01*
X151664198Y-103063279D01*
X151051404Y-102450484D01*
X151024091Y-102409607D01*
X151014500Y-102361389D01*
X151014500Y-99758893D01*
X151024091Y-99710675D01*
X151051402Y-99669800D01*
X152640446Y-98080755D01*
X152646249Y-98075311D01*
X152699561Y-98028392D01*
X152764670Y-97947755D01*
X152766307Y-97945771D01*
X152833119Y-97866529D01*
X152835987Y-97861641D01*
X152846625Y-97846257D01*
X152850185Y-97841849D01*
X152900780Y-97751276D01*
X152901969Y-97749200D01*
X152954467Y-97659742D01*
X152956468Y-97654436D01*
X152964358Y-97637467D01*
X152967115Y-97632533D01*
X153001635Y-97534830D01*
X153002532Y-97532378D01*
X153037026Y-97440978D01*
X153039122Y-97435423D01*
X153040198Y-97429856D01*
X153045102Y-97411807D01*
X153046990Y-97406467D01*
X153064507Y-97304303D01*
X153064964Y-97301800D01*
X153084648Y-97200023D01*
X153084768Y-97194350D01*
X153086551Y-97175742D01*
X153087510Y-97170154D01*
X153087510Y-97066569D01*
X153087538Y-97063895D01*
X153089737Y-96960315D01*
X153088898Y-96954709D01*
X153087510Y-96936058D01*
X153087510Y-94471332D01*
X153087765Y-94463315D01*
X153089060Y-94443000D01*
X153092283Y-94392459D01*
X153081310Y-94289463D01*
X153081055Y-94286799D01*
X153072269Y-94183566D01*
X153070841Y-94178081D01*
X153067483Y-94159676D01*
X153066884Y-94154046D01*
X153038634Y-94054285D01*
X153037986Y-94051904D01*
X153011854Y-93951539D01*
X153009518Y-93946372D01*
X153003099Y-93928798D01*
X153001558Y-93923356D01*
X153001558Y-93923355D01*
X152956860Y-93829816D01*
X152955811Y-93827559D01*
X152913096Y-93733061D01*
X152909923Y-93728366D01*
X152900627Y-93712133D01*
X152898185Y-93707022D01*
X152838343Y-93622411D01*
X152836869Y-93620280D01*
X152778835Y-93534416D01*
X152774915Y-93530326D01*
X152763006Y-93515893D01*
X152759738Y-93511272D01*
X152686470Y-93438004D01*
X152684646Y-93436141D01*
X152643539Y-93393251D01*
X152612935Y-93361319D01*
X152608371Y-93357943D01*
X152594205Y-93345739D01*
X151251067Y-92002600D01*
X151245578Y-91996750D01*
X151198670Y-91943452D01*
X151118055Y-91878359D01*
X151115994Y-91876658D01*
X151036802Y-91809890D01*
X151031918Y-91807024D01*
X151016537Y-91796389D01*
X151012119Y-91792822D01*
X150921662Y-91742289D01*
X150919342Y-91740961D01*
X150871109Y-91712657D01*
X150823826Y-91663510D01*
X150809077Y-91596925D01*
X150831184Y-91532408D01*
X150831205Y-91532376D01*
X150834763Y-91527223D01*
X150895774Y-91366349D01*
X150916513Y-91195548D01*
X150895774Y-91024747D01*
X150867738Y-90950821D01*
X150859577Y-90903609D01*
X150869634Y-90856758D01*
X150896453Y-90817053D01*
X151444318Y-90269189D01*
X151485196Y-90241876D01*
X151533414Y-90232285D01*
X151608241Y-90232285D01*
X151608243Y-90232285D01*
X151775298Y-90191110D01*
X151927645Y-90111152D01*
X152056430Y-89997058D01*
X152154169Y-89855460D01*
X152215180Y-89694586D01*
X152235919Y-89523785D01*
X152215180Y-89352984D01*
X152154169Y-89192110D01*
X152056430Y-89050512D01*
X151927645Y-88936418D01*
X151775298Y-88856460D01*
X151765623Y-88851382D01*
X151720483Y-88811391D01*
X151699098Y-88755002D01*
X151695965Y-88729199D01*
X151634955Y-88568327D01*
X151621730Y-88549167D01*
X151537215Y-88426727D01*
X151408430Y-88312633D01*
X151256083Y-88232675D01*
X151089028Y-88191500D01*
X150916972Y-88191500D01*
X150749917Y-88232675D01*
X150749916Y-88232675D01*
X150749914Y-88232676D01*
X150597571Y-88312632D01*
X150597569Y-88312633D01*
X150597570Y-88312633D01*
X150468785Y-88426727D01*
X150436205Y-88473926D01*
X150371044Y-88568327D01*
X150310034Y-88729199D01*
X150288152Y-88909415D01*
X150276356Y-88949386D01*
X150252167Y-88983322D01*
X149808034Y-89427456D01*
X149752777Y-89459732D01*
X149707327Y-89460421D01*
X149707327Y-89461500D01*
X149692028Y-89461500D01*
X149519972Y-89461500D01*
X149352917Y-89502675D01*
X149352916Y-89502675D01*
X149352914Y-89502676D01*
X149200571Y-89582632D01*
X149071786Y-89696726D01*
X148974044Y-89838327D01*
X148913034Y-89999199D01*
X148892296Y-90169999D01*
X148892296Y-90170000D01*
X148894180Y-90185513D01*
X148913034Y-90340800D01*
X148974046Y-90501675D01*
X149037665Y-90593842D01*
X149059371Y-90653145D01*
X149049576Y-90715531D01*
X149010742Y-90765329D01*
X148952623Y-90790031D01*
X148707205Y-90826768D01*
X148479490Y-90901827D01*
X148267747Y-91014286D01*
X148078043Y-91160919D01*
X147915855Y-91337496D01*
X147785842Y-91538944D01*
X147691744Y-91759471D01*
X147636267Y-91992727D01*
X147621010Y-92232006D01*
X147646407Y-92470415D01*
X147711735Y-92701110D01*
X147815106Y-92917439D01*
X147937859Y-93091000D01*
X147953554Y-93113191D01*
X148765784Y-93925421D01*
X148771245Y-93931241D01*
X148784571Y-93946382D01*
X148818165Y-93984552D01*
X148850605Y-94010746D01*
X148889810Y-94065572D01*
X148895145Y-94132761D01*
X148865086Y-94193088D01*
X148739958Y-94332057D01*
X148644472Y-94497443D01*
X148585458Y-94679070D01*
X148570500Y-94821393D01*
X148570500Y-95003389D01*
X148560909Y-95051607D01*
X148533595Y-95092484D01*
X146190587Y-97435491D01*
X146184740Y-97440978D01*
X146131439Y-97487890D01*
X146066351Y-97568498D01*
X146064652Y-97570557D01*
X145997876Y-97649759D01*
X145995006Y-97654650D01*
X145984383Y-97670014D01*
X145980814Y-97674433D01*
X145959247Y-97713041D01*
X145938468Y-97750238D01*
X145930300Y-97764859D01*
X145928971Y-97767178D01*
X145876530Y-97856543D01*
X145874523Y-97861861D01*
X145866652Y-97878794D01*
X145863885Y-97883747D01*
X145829373Y-97981422D01*
X145828457Y-97983930D01*
X145811678Y-98028393D01*
X145791907Y-98080786D01*
X145791875Y-98080870D01*
X145790797Y-98086442D01*
X145785900Y-98104461D01*
X145784009Y-98109812D01*
X145766504Y-98211899D01*
X145766025Y-98214526D01*
X145746350Y-98316263D01*
X145746230Y-98321929D01*
X145744449Y-98340527D01*
X145743489Y-98346129D01*
X145743489Y-98449715D01*
X145743461Y-98452389D01*
X145741262Y-98555972D01*
X145742101Y-98561575D01*
X145743489Y-98580225D01*
X145743489Y-104367404D01*
X145743234Y-104375421D01*
X145738716Y-104446280D01*
X145749689Y-104549284D01*
X145749944Y-104551946D01*
X145758729Y-104655171D01*
X145760158Y-104660658D01*
X145763512Y-104679046D01*
X145764113Y-104684689D01*
X145792351Y-104784407D01*
X145793052Y-104786988D01*
X145819144Y-104887196D01*
X145821479Y-104892362D01*
X145827896Y-104909928D01*
X145829440Y-104915381D01*
X145874098Y-105008837D01*
X145875226Y-105011263D01*
X145917902Y-105105674D01*
X145921077Y-105110372D01*
X145930369Y-105126598D01*
X145931435Y-105128829D01*
X145932814Y-105131715D01*
X145992646Y-105216312D01*
X145994167Y-105218512D01*
X146052162Y-105304319D01*
X146056082Y-105308409D01*
X146067982Y-105322830D01*
X146071260Y-105327465D01*
X146144572Y-105400777D01*
X146146350Y-105402593D01*
X146218064Y-105477418D01*
X146222620Y-105480788D01*
X146236790Y-105492995D01*
X146625200Y-105881405D01*
X146655938Y-105931564D01*
X146660554Y-105990211D01*
X146638041Y-106044561D01*
X146593308Y-106082767D01*
X146536105Y-106096500D01*
X140663500Y-106096500D01*
X140600500Y-106079619D01*
X140554381Y-106033500D01*
X140537500Y-105970500D01*
X140537500Y-99695000D01*
X140882000Y-99695000D01*
X140882000Y-100339589D01*
X140888505Y-100400093D01*
X140939554Y-100536962D01*
X141027095Y-100653904D01*
X141144037Y-100741445D01*
X141280906Y-100792494D01*
X141341411Y-100799000D01*
X141986000Y-100799000D01*
X141986000Y-99695000D01*
X142494000Y-99695000D01*
X142494000Y-100799000D01*
X143138589Y-100799000D01*
X143199093Y-100792494D01*
X143335962Y-100741445D01*
X143452904Y-100653904D01*
X143540445Y-100536962D01*
X143591494Y-100400093D01*
X143598000Y-100339589D01*
X143598000Y-99695000D01*
X142494000Y-99695000D01*
X141986000Y-99695000D01*
X140882000Y-99695000D01*
X140537500Y-99695000D01*
X140537500Y-99187000D01*
X140882000Y-99187000D01*
X143598000Y-99187000D01*
X143598000Y-98542411D01*
X143591494Y-98481906D01*
X143540445Y-98345037D01*
X143452904Y-98228095D01*
X143335962Y-98140554D01*
X143199093Y-98089505D01*
X143131874Y-98082278D01*
X143132052Y-98080617D01*
X143084775Y-98069267D01*
X143040042Y-98031061D01*
X143017529Y-97976711D01*
X143022145Y-97918064D01*
X143052883Y-97867905D01*
X143207746Y-97713041D01*
X143207749Y-97713038D01*
X143334056Y-97532654D01*
X143427120Y-97333076D01*
X143484115Y-97120371D01*
X143503307Y-96901000D01*
X143484115Y-96681629D01*
X143427120Y-96468924D01*
X143334056Y-96269347D01*
X143207749Y-96088962D01*
X143207748Y-96088961D01*
X143207746Y-96088958D01*
X143052041Y-95933253D01*
X142871653Y-95806943D01*
X142792707Y-95770130D01*
X142739230Y-95745194D01*
X142686213Y-95698700D01*
X142666480Y-95631000D01*
X142686213Y-95563300D01*
X142739230Y-95516805D01*
X142871654Y-95455056D01*
X143052038Y-95328749D01*
X143207749Y-95173038D01*
X143334056Y-94992654D01*
X143427120Y-94793076D01*
X143484115Y-94580371D01*
X143503307Y-94361000D01*
X143484115Y-94141629D01*
X143478402Y-94120309D01*
X143427120Y-93928925D01*
X143426803Y-93928246D01*
X143334056Y-93729347D01*
X143207749Y-93548962D01*
X143207748Y-93548961D01*
X143207746Y-93548958D01*
X143052041Y-93393253D01*
X142871653Y-93266943D01*
X142792707Y-93230130D01*
X142739230Y-93205194D01*
X142686213Y-93158700D01*
X142666480Y-93091000D01*
X142686213Y-93023300D01*
X142739230Y-92976805D01*
X142871654Y-92915056D01*
X143052038Y-92788749D01*
X143207749Y-92633038D01*
X143334056Y-92452654D01*
X143427120Y-92253076D01*
X143484115Y-92040371D01*
X143503307Y-91821000D01*
X143484115Y-91601629D01*
X143467318Y-91538944D01*
X143426450Y-91386424D01*
X143425363Y-91325564D01*
X143452933Y-91271298D01*
X143480655Y-91239307D01*
X143482138Y-91236058D01*
X143495886Y-91212886D01*
X143498024Y-91210032D01*
X143514281Y-91166443D01*
X143517705Y-91158175D01*
X143537038Y-91115845D01*
X143537545Y-91112312D01*
X143544209Y-91086204D01*
X143545456Y-91082863D01*
X143548773Y-91036474D01*
X143549731Y-91027556D01*
X143551500Y-91015260D01*
X143551500Y-91002861D01*
X143551821Y-90993873D01*
X143552058Y-90990549D01*
X143555139Y-90947482D01*
X143554378Y-90943984D01*
X143551500Y-90917209D01*
X143551500Y-90390023D01*
X143563442Y-90336480D01*
X143597006Y-90293087D01*
X143645827Y-90268069D01*
X143700653Y-90266169D01*
X143764000Y-90278011D01*
X143764000Y-89376000D01*
X144272000Y-89376000D01*
X144272000Y-90278010D01*
X144343131Y-90264713D01*
X144547570Y-90185513D01*
X144733967Y-90070101D01*
X144895993Y-89922394D01*
X145028114Y-89747439D01*
X145125840Y-89551178D01*
X145175683Y-89376000D01*
X144272000Y-89376000D01*
X143764000Y-89376000D01*
X143764000Y-88994000D01*
X143780881Y-88931000D01*
X143827000Y-88884881D01*
X143890000Y-88868000D01*
X145175683Y-88868000D01*
X145125840Y-88692821D01*
X145028114Y-88496560D01*
X144895993Y-88321605D01*
X144733967Y-88173898D01*
X144720065Y-88165290D01*
X144679269Y-88124493D01*
X144660934Y-88069788D01*
X144668906Y-88012646D01*
X144701509Y-87965052D01*
X144822147Y-87855077D01*
X144943157Y-87694833D01*
X145032662Y-87515082D01*
X145087614Y-87321946D01*
X145106142Y-87122000D01*
X145087614Y-86922054D01*
X145032662Y-86728918D01*
X144943157Y-86549167D01*
X144822147Y-86388923D01*
X144816533Y-86383805D01*
X144673755Y-86253646D01*
X144666090Y-86248900D01*
X144634153Y-86229125D01*
X144590410Y-86183312D01*
X144574486Y-86122000D01*
X144590410Y-86060688D01*
X144634153Y-86014874D01*
X144673752Y-85990356D01*
X144822147Y-85855077D01*
X144822148Y-85855076D01*
X144840656Y-85830568D01*
X144885043Y-85793709D01*
X144941206Y-85780500D01*
X150837050Y-85780500D01*
X150885268Y-85790091D01*
X150926145Y-85817405D01*
X151203242Y-86094502D01*
X151229254Y-86132348D01*
X151239974Y-86177002D01*
X151243742Y-86248900D01*
X151293171Y-86433372D01*
X151379871Y-86603531D01*
X151469927Y-86714741D01*
X155264595Y-90509408D01*
X155291909Y-90550285D01*
X155301500Y-90598503D01*
X155301500Y-99774497D01*
X155291909Y-99822715D01*
X155264597Y-99863589D01*
X155006603Y-100121584D01*
X154390923Y-100737263D01*
X154300871Y-100848468D01*
X154214172Y-101018627D01*
X154164742Y-101203100D01*
X154154748Y-101393807D01*
X154184623Y-101582434D01*
X154253061Y-101760720D01*
X154357076Y-101920890D01*
X154492109Y-102055923D01*
X154492111Y-102055924D01*
X154492113Y-102055926D01*
X154652278Y-102159938D01*
X154830568Y-102228377D01*
X155019190Y-102258252D01*
X155209903Y-102248257D01*
X155394370Y-102198829D01*
X155564530Y-102112129D01*
X155675741Y-102022072D01*
X156794845Y-100902966D01*
X156809868Y-100890136D01*
X156821253Y-100881866D01*
X156867026Y-100831028D01*
X156871529Y-100826282D01*
X156886072Y-100811741D01*
X156899008Y-100795765D01*
X156903278Y-100790768D01*
X156949039Y-100739945D01*
X156956072Y-100727764D01*
X156967272Y-100711467D01*
X156976129Y-100700530D01*
X157007182Y-100639581D01*
X157010321Y-100633799D01*
X157044527Y-100574556D01*
X157048878Y-100561162D01*
X157056439Y-100542910D01*
X157062829Y-100530370D01*
X157080532Y-100464298D01*
X157082393Y-100458014D01*
X157103542Y-100392928D01*
X157105012Y-100378937D01*
X157108614Y-100359495D01*
X157112257Y-100345904D01*
X157115836Y-100277594D01*
X157116353Y-100271037D01*
X157118500Y-100250614D01*
X157118500Y-100230075D01*
X157118673Y-100223481D01*
X157118676Y-100223420D01*
X157122252Y-100155190D01*
X157120051Y-100141293D01*
X157118500Y-100121584D01*
X157118500Y-94443000D01*
X157135381Y-94380000D01*
X157181500Y-94333881D01*
X157244500Y-94317000D01*
X159358377Y-94317000D01*
X159404568Y-94325772D01*
X159444327Y-94350866D01*
X160938944Y-95745195D01*
X164936252Y-99474286D01*
X164939873Y-99478431D01*
X164947129Y-99485126D01*
X164947131Y-99485129D01*
X165015214Y-99547952D01*
X165015473Y-99548192D01*
X165043497Y-99574335D01*
X165050956Y-99581294D01*
X165055072Y-99584729D01*
X165087484Y-99614637D01*
X165120528Y-99634256D01*
X165132051Y-99641986D01*
X165162749Y-99665129D01*
X165202723Y-99683778D01*
X165213772Y-99689618D01*
X165233021Y-99701046D01*
X165251695Y-99712134D01*
X165288125Y-99724464D01*
X165300970Y-99729616D01*
X165335815Y-99745873D01*
X165378779Y-99755801D01*
X165390791Y-99759212D01*
X165432590Y-99773360D01*
X165470781Y-99777845D01*
X165484444Y-99780218D01*
X165521885Y-99788871D01*
X165565969Y-99789649D01*
X165571314Y-99790010D01*
X165574709Y-99790051D01*
X165574715Y-99790052D01*
X165619877Y-99790602D01*
X165620306Y-99790609D01*
X165712830Y-99792244D01*
X165712831Y-99792243D01*
X165722696Y-99792418D01*
X165728185Y-99791923D01*
X168741419Y-99828669D01*
X168804626Y-99846567D01*
X168850234Y-99893848D01*
X168865845Y-99957659D01*
X168762624Y-104292966D01*
X168762624Y-104292972D01*
X168774190Y-104435605D01*
X168828865Y-104618587D01*
X168920389Y-104786201D01*
X169044761Y-104931124D01*
X169048279Y-104933810D01*
X169196545Y-105047021D01*
X169196546Y-105047021D01*
X169196547Y-105047022D01*
X169369112Y-105128829D01*
X169554915Y-105172970D01*
X169745835Y-105177515D01*
X169933528Y-105142267D01*
X170109792Y-105068766D01*
X170266921Y-104960223D01*
X170398050Y-104821383D01*
X170497446Y-104658315D01*
X170560768Y-104478143D01*
X170579109Y-104336221D01*
X170704798Y-99057266D01*
X170706189Y-99045998D01*
X170706268Y-99039558D01*
X170707361Y-98949908D01*
X170707382Y-98948730D01*
X170708376Y-98907028D01*
X170708375Y-98907027D01*
X170708387Y-98906565D01*
X170708019Y-98895895D01*
X170708597Y-98848599D01*
X170701689Y-98814040D01*
X170699658Y-98799526D01*
X170696810Y-98764393D01*
X170683269Y-98719077D01*
X170680437Y-98707691D01*
X170671173Y-98661329D01*
X170669235Y-98656831D01*
X170657224Y-98628944D01*
X170652227Y-98615190D01*
X170642135Y-98581413D01*
X170619469Y-98539904D01*
X170614335Y-98529361D01*
X170595629Y-98485929D01*
X170575254Y-98457153D01*
X170567499Y-98444727D01*
X170550611Y-98413799D01*
X170519810Y-98377907D01*
X170512597Y-98368664D01*
X170485270Y-98330071D01*
X170459358Y-98306160D01*
X170449190Y-98295618D01*
X170426240Y-98268876D01*
X170388645Y-98240170D01*
X170379667Y-98232628D01*
X170344915Y-98200562D01*
X170314614Y-98182571D01*
X170302476Y-98174375D01*
X170274453Y-98152978D01*
X170248246Y-98140554D01*
X170231704Y-98132711D01*
X170221371Y-98127210D01*
X170180705Y-98103066D01*
X170180703Y-98103065D01*
X170180701Y-98103064D01*
X170147318Y-98091765D01*
X170133744Y-98086272D01*
X170101890Y-98071171D01*
X170055873Y-98060239D01*
X170044603Y-98057000D01*
X169999808Y-98041838D01*
X169964799Y-98037726D01*
X169950381Y-98035176D01*
X169916084Y-98027029D01*
X169868798Y-98025903D01*
X169858152Y-98025154D01*
X169857687Y-98025148D01*
X169857685Y-98025148D01*
X169831896Y-98024833D01*
X169816048Y-98024640D01*
X169814587Y-98024613D01*
X169718749Y-98022330D01*
X169707422Y-98023315D01*
X166044801Y-97978648D01*
X165999433Y-97969601D01*
X165960387Y-97944790D01*
X161231212Y-93532942D01*
X164325354Y-93532942D01*
X164346092Y-93703742D01*
X164407102Y-93864614D01*
X164407103Y-93864616D01*
X164407104Y-93864617D01*
X164504843Y-94006215D01*
X164633628Y-94120309D01*
X164785975Y-94200267D01*
X164953030Y-94241442D01*
X165125084Y-94241442D01*
X165125086Y-94241442D01*
X165292141Y-94200267D01*
X165444488Y-94120309D01*
X165573273Y-94006215D01*
X165671012Y-93864617D01*
X165732023Y-93703743D01*
X165752762Y-93532942D01*
X165737070Y-93403707D01*
X165743043Y-93347419D01*
X165773054Y-93299427D01*
X166379078Y-92693404D01*
X166419956Y-92666091D01*
X166441574Y-92661790D01*
X166441173Y-92660161D01*
X166456026Y-92656500D01*
X166456028Y-92656500D01*
X166623083Y-92615325D01*
X166775430Y-92535367D01*
X166904215Y-92421273D01*
X167001954Y-92279675D01*
X167062965Y-92118801D01*
X167083704Y-91948000D01*
X167062965Y-91777199D01*
X167050118Y-91743325D01*
X167001955Y-91616327D01*
X167001954Y-91616325D01*
X166904215Y-91474727D01*
X166775430Y-91360633D01*
X166623083Y-91280675D01*
X166456028Y-91239500D01*
X166283972Y-91239500D01*
X166116917Y-91280675D01*
X166116916Y-91280675D01*
X166116914Y-91280676D01*
X165964571Y-91360632D01*
X165835786Y-91474726D01*
X165738044Y-91616327D01*
X165677034Y-91777199D01*
X165667172Y-91858423D01*
X165655376Y-91898393D01*
X165631186Y-91932329D01*
X164669795Y-92893720D01*
X164666703Y-92896709D01*
X164621325Y-92939090D01*
X164608280Y-92960541D01*
X164584179Y-92989381D01*
X164504846Y-93059665D01*
X164504843Y-93059668D01*
X164504843Y-93059669D01*
X164483217Y-93091000D01*
X164407102Y-93201269D01*
X164346092Y-93362141D01*
X164325354Y-93532942D01*
X161231212Y-93532942D01*
X160458491Y-92812070D01*
X160447389Y-92799519D01*
X160380671Y-92739445D01*
X160379068Y-92737975D01*
X160366083Y-92725862D01*
X160350923Y-92711719D01*
X160350881Y-92711687D01*
X160348880Y-92710179D01*
X160340422Y-92703205D01*
X160302946Y-92669461D01*
X160275139Y-92653407D01*
X160262294Y-92644903D01*
X160236651Y-92625571D01*
X160236650Y-92625570D01*
X160236648Y-92625569D01*
X160190949Y-92604247D01*
X160181227Y-92599185D01*
X160137553Y-92573971D01*
X160107023Y-92564051D01*
X160092690Y-92558404D01*
X160063584Y-92544825D01*
X160014444Y-92533469D01*
X160003876Y-92530537D01*
X159995887Y-92527941D01*
X159950514Y-92501744D01*
X159919719Y-92459357D01*
X159908826Y-92408109D01*
X159908826Y-92359768D01*
X159917014Y-92315088D01*
X159940532Y-92253076D01*
X159943291Y-92245801D01*
X159964030Y-92075000D01*
X159943291Y-91904199D01*
X159933491Y-91878359D01*
X159882281Y-91743327D01*
X159840798Y-91683229D01*
X159784541Y-91601727D01*
X159655756Y-91487633D01*
X159503409Y-91407675D01*
X159336354Y-91366500D01*
X159164298Y-91366500D01*
X158997243Y-91407675D01*
X158997242Y-91407675D01*
X158997240Y-91407676D01*
X158844897Y-91487632D01*
X158716112Y-91601726D01*
X158618370Y-91743327D01*
X158557360Y-91904199D01*
X158536622Y-92075000D01*
X158557360Y-92245800D01*
X158583638Y-92315088D01*
X158591826Y-92359768D01*
X158591826Y-92374000D01*
X158574945Y-92437000D01*
X158528826Y-92483119D01*
X158465826Y-92500000D01*
X157244500Y-92500000D01*
X157181500Y-92483119D01*
X157135381Y-92437000D01*
X157118500Y-92374000D01*
X157118500Y-90251416D01*
X157120051Y-90231707D01*
X157120204Y-90230738D01*
X157122252Y-90217810D01*
X157118672Y-90149519D01*
X157118500Y-90142926D01*
X157118500Y-90122395D01*
X157118500Y-90122390D01*
X157116349Y-90101930D01*
X157115836Y-90095406D01*
X157112257Y-90027097D01*
X157108613Y-90013501D01*
X157105012Y-89994063D01*
X157104622Y-89990356D01*
X157103542Y-89980072D01*
X157082405Y-89915021D01*
X157080531Y-89908694D01*
X157068651Y-89864355D01*
X157062830Y-89842630D01*
X157056437Y-89830084D01*
X157048875Y-89811827D01*
X157044527Y-89798444D01*
X157010326Y-89739207D01*
X157007195Y-89733441D01*
X156976129Y-89672470D01*
X156967267Y-89661526D01*
X156956076Y-89645242D01*
X156949040Y-89633056D01*
X156903639Y-89582632D01*
X156903271Y-89582223D01*
X156898991Y-89577212D01*
X156886071Y-89561258D01*
X156871538Y-89546725D01*
X156867034Y-89541979D01*
X156821253Y-89491134D01*
X156809864Y-89482859D01*
X156794832Y-89470019D01*
X156224813Y-88900000D01*
X160322296Y-88900000D01*
X160343034Y-89070800D01*
X160404044Y-89231672D01*
X160404045Y-89231674D01*
X160404046Y-89231675D01*
X160501785Y-89373273D01*
X160630570Y-89487367D01*
X160782917Y-89567325D01*
X160949972Y-89608500D01*
X161122026Y-89608500D01*
X161122028Y-89608500D01*
X161289083Y-89567325D01*
X161441430Y-89487367D01*
X161535885Y-89403686D01*
X161574757Y-89380188D01*
X161619437Y-89372000D01*
X163500563Y-89372000D01*
X163545243Y-89380188D01*
X163584114Y-89403686D01*
X163678570Y-89487367D01*
X163830917Y-89567325D01*
X163997972Y-89608500D01*
X164170026Y-89608500D01*
X164170028Y-89608500D01*
X164337083Y-89567325D01*
X164489430Y-89487367D01*
X164618215Y-89373273D01*
X164715954Y-89231675D01*
X164776965Y-89070801D01*
X164797704Y-88900000D01*
X164776965Y-88729199D01*
X164715954Y-88568325D01*
X164618215Y-88426727D01*
X164489430Y-88312633D01*
X164337083Y-88232675D01*
X164170028Y-88191500D01*
X163997972Y-88191500D01*
X163830917Y-88232675D01*
X163830916Y-88232675D01*
X163830914Y-88232676D01*
X163678571Y-88312632D01*
X163678569Y-88312633D01*
X163678570Y-88312633D01*
X163584114Y-88396313D01*
X163545243Y-88419812D01*
X163500563Y-88428000D01*
X161619437Y-88428000D01*
X161574757Y-88419812D01*
X161535885Y-88396313D01*
X161441430Y-88312633D01*
X161289083Y-88232675D01*
X161122028Y-88191500D01*
X160949972Y-88191500D01*
X160782917Y-88232675D01*
X160782916Y-88232675D01*
X160782914Y-88232676D01*
X160630571Y-88312632D01*
X160630569Y-88312633D01*
X160630570Y-88312633D01*
X160501785Y-88426727D01*
X160469205Y-88473926D01*
X160404044Y-88568327D01*
X160343034Y-88729199D01*
X160322296Y-88900000D01*
X156224813Y-88900000D01*
X154566961Y-87242147D01*
X156221500Y-87242147D01*
X156234139Y-87321943D01*
X156236651Y-87337807D01*
X156293281Y-87448950D01*
X156295398Y-87453105D01*
X156386894Y-87544601D01*
X156386896Y-87544602D01*
X156386897Y-87544603D01*
X156502193Y-87603349D01*
X156597851Y-87618500D01*
X158362148Y-87618499D01*
X158457807Y-87603349D01*
X158573103Y-87544603D01*
X158664603Y-87453103D01*
X158723349Y-87337807D01*
X158738500Y-87242149D01*
X158738499Y-87123573D01*
X158754296Y-87062491D01*
X158797728Y-87016722D01*
X158857904Y-86997749D01*
X158919733Y-87010328D01*
X158967712Y-87051305D01*
X159052253Y-87172041D01*
X159207958Y-87327746D01*
X159207961Y-87327748D01*
X159207962Y-87327749D01*
X159388346Y-87454056D01*
X159587924Y-87547120D01*
X159681707Y-87572249D01*
X159800624Y-87604114D01*
X159800625Y-87604114D01*
X159800629Y-87604115D01*
X160020000Y-87623307D01*
X160239371Y-87604115D01*
X160242234Y-87603348D01*
X160264509Y-87597379D01*
X160452076Y-87547120D01*
X160651654Y-87454056D01*
X160832038Y-87327749D01*
X160987749Y-87172038D01*
X161114056Y-86991654D01*
X161175805Y-86859230D01*
X161222300Y-86806213D01*
X161290000Y-86786480D01*
X161357700Y-86806213D01*
X161404195Y-86859231D01*
X161465943Y-86991653D01*
X161592253Y-87172041D01*
X161747958Y-87327746D01*
X161747961Y-87327748D01*
X161747962Y-87327749D01*
X161928346Y-87454056D01*
X162127924Y-87547120D01*
X162221707Y-87572249D01*
X162340624Y-87604114D01*
X162340625Y-87604114D01*
X162340629Y-87604115D01*
X162560000Y-87623307D01*
X162779371Y-87604115D01*
X162782234Y-87603348D01*
X162804509Y-87597379D01*
X162992076Y-87547120D01*
X163191654Y-87454056D01*
X163372038Y-87327749D01*
X163527749Y-87172038D01*
X163654056Y-86991654D01*
X163715805Y-86859230D01*
X163762300Y-86806213D01*
X163830000Y-86786480D01*
X163897700Y-86806213D01*
X163944195Y-86859231D01*
X164005943Y-86991653D01*
X164132253Y-87172041D01*
X164287958Y-87327746D01*
X164287961Y-87327748D01*
X164287962Y-87327749D01*
X164468346Y-87454056D01*
X164667924Y-87547120D01*
X164761707Y-87572249D01*
X164880624Y-87604114D01*
X164880625Y-87604114D01*
X164880629Y-87604115D01*
X165100000Y-87623307D01*
X165319371Y-87604115D01*
X165322234Y-87603348D01*
X165344509Y-87597379D01*
X165532076Y-87547120D01*
X165731654Y-87454056D01*
X165912038Y-87327749D01*
X166067749Y-87172038D01*
X166194056Y-86991654D01*
X166255805Y-86859230D01*
X166302300Y-86806213D01*
X166370000Y-86786480D01*
X166437700Y-86806213D01*
X166484195Y-86859231D01*
X166545943Y-86991653D01*
X166672253Y-87172041D01*
X166827958Y-87327746D01*
X166827961Y-87327748D01*
X166827962Y-87327749D01*
X167008346Y-87454056D01*
X167207924Y-87547120D01*
X167301707Y-87572249D01*
X167420624Y-87604114D01*
X167420625Y-87604114D01*
X167420629Y-87604115D01*
X167640000Y-87623307D01*
X167859371Y-87604115D01*
X167862234Y-87603348D01*
X167884509Y-87597379D01*
X168072076Y-87547120D01*
X168271654Y-87454056D01*
X168452038Y-87327749D01*
X168607749Y-87172038D01*
X168734056Y-86991654D01*
X168795805Y-86859230D01*
X168842300Y-86806213D01*
X168910000Y-86786480D01*
X168977700Y-86806213D01*
X169024195Y-86859231D01*
X169085943Y-86991653D01*
X169212253Y-87172041D01*
X169367958Y-87327746D01*
X169367961Y-87327748D01*
X169367962Y-87327749D01*
X169548346Y-87454056D01*
X169747924Y-87547120D01*
X169841707Y-87572249D01*
X169960624Y-87604114D01*
X169960625Y-87604114D01*
X169960629Y-87604115D01*
X170180000Y-87623307D01*
X170399371Y-87604115D01*
X170402234Y-87603348D01*
X170424509Y-87597379D01*
X170612076Y-87547120D01*
X170811654Y-87454056D01*
X170992038Y-87327749D01*
X171147749Y-87172038D01*
X171274056Y-86991654D01*
X171335805Y-86859230D01*
X171382300Y-86806213D01*
X171450000Y-86786480D01*
X171517700Y-86806213D01*
X171564195Y-86859231D01*
X171625943Y-86991653D01*
X171752253Y-87172041D01*
X171907958Y-87327746D01*
X171907961Y-87327748D01*
X171907962Y-87327749D01*
X172088346Y-87454056D01*
X172287924Y-87547120D01*
X172381707Y-87572249D01*
X172500624Y-87604114D01*
X172500625Y-87604114D01*
X172500629Y-87604115D01*
X172720000Y-87623307D01*
X172939371Y-87604115D01*
X172942234Y-87603348D01*
X172964509Y-87597379D01*
X173152076Y-87547120D01*
X173351654Y-87454056D01*
X173532038Y-87327749D01*
X173687749Y-87172038D01*
X173814056Y-86991654D01*
X173875805Y-86859230D01*
X173922300Y-86806213D01*
X173990000Y-86786480D01*
X174057700Y-86806213D01*
X174104195Y-86859231D01*
X174165943Y-86991653D01*
X174292253Y-87172041D01*
X174447958Y-87327746D01*
X174447961Y-87327748D01*
X174447962Y-87327749D01*
X174628346Y-87454056D01*
X174827924Y-87547120D01*
X174921707Y-87572249D01*
X175040624Y-87604114D01*
X175040625Y-87604114D01*
X175040629Y-87604115D01*
X175260000Y-87623307D01*
X175479371Y-87604115D01*
X175482234Y-87603348D01*
X175504509Y-87597379D01*
X175692076Y-87547120D01*
X175891654Y-87454056D01*
X176072038Y-87327749D01*
X176227749Y-87172038D01*
X176354056Y-86991654D01*
X176447120Y-86792076D01*
X176504115Y-86579371D01*
X176523307Y-86360000D01*
X176504115Y-86140629D01*
X176501696Y-86131603D01*
X176447120Y-85927925D01*
X176445666Y-85924807D01*
X176354056Y-85728347D01*
X176227749Y-85547962D01*
X176227748Y-85547961D01*
X176227746Y-85547958D01*
X176072041Y-85392253D01*
X175891653Y-85265943D01*
X175692074Y-85172879D01*
X175479375Y-85115885D01*
X175260000Y-85096693D01*
X175040624Y-85115885D01*
X174827925Y-85172879D01*
X174628347Y-85265943D01*
X174447958Y-85392253D01*
X174292253Y-85547958D01*
X174165944Y-85728345D01*
X174137152Y-85790091D01*
X174106850Y-85855076D01*
X174104195Y-85860769D01*
X174057700Y-85913786D01*
X173990000Y-85933519D01*
X173922300Y-85913786D01*
X173875805Y-85860769D01*
X173873150Y-85855076D01*
X173814056Y-85728347D01*
X173796502Y-85703278D01*
X173687746Y-85547958D01*
X173532041Y-85392253D01*
X173351653Y-85265943D01*
X173152074Y-85172879D01*
X172939375Y-85115885D01*
X172720000Y-85096693D01*
X172500624Y-85115885D01*
X172287925Y-85172879D01*
X172088347Y-85265943D01*
X171907958Y-85392253D01*
X171752253Y-85547958D01*
X171625944Y-85728345D01*
X171597152Y-85790091D01*
X171566850Y-85855076D01*
X171564195Y-85860769D01*
X171517700Y-85913786D01*
X171450000Y-85933519D01*
X171382300Y-85913786D01*
X171335805Y-85860769D01*
X171333150Y-85855076D01*
X171274056Y-85728347D01*
X171256502Y-85703278D01*
X171147746Y-85547958D01*
X170992041Y-85392253D01*
X170811653Y-85265943D01*
X170612074Y-85172879D01*
X170399375Y-85115885D01*
X170180000Y-85096693D01*
X169960624Y-85115885D01*
X169747925Y-85172879D01*
X169548347Y-85265943D01*
X169367958Y-85392253D01*
X169212253Y-85547958D01*
X169085944Y-85728345D01*
X169057152Y-85790091D01*
X169026850Y-85855076D01*
X169024195Y-85860769D01*
X168977700Y-85913786D01*
X168910000Y-85933519D01*
X168842300Y-85913786D01*
X168795805Y-85860769D01*
X168793150Y-85855076D01*
X168734056Y-85728347D01*
X168716502Y-85703278D01*
X168607746Y-85547958D01*
X168452041Y-85392253D01*
X168271653Y-85265943D01*
X168072074Y-85172879D01*
X167859375Y-85115885D01*
X167640000Y-85096693D01*
X167420624Y-85115885D01*
X167207925Y-85172879D01*
X167008347Y-85265943D01*
X166827958Y-85392253D01*
X166672253Y-85547958D01*
X166545944Y-85728345D01*
X166517152Y-85790091D01*
X166486850Y-85855076D01*
X166484195Y-85860769D01*
X166437700Y-85913786D01*
X166370000Y-85933519D01*
X166302300Y-85913786D01*
X166255805Y-85860769D01*
X166253150Y-85855076D01*
X166194056Y-85728347D01*
X166176502Y-85703278D01*
X166067746Y-85547958D01*
X165912041Y-85392253D01*
X165731653Y-85265943D01*
X165532074Y-85172879D01*
X165319375Y-85115885D01*
X165100000Y-85096693D01*
X164880624Y-85115885D01*
X164667925Y-85172879D01*
X164468347Y-85265943D01*
X164287958Y-85392253D01*
X164132253Y-85547958D01*
X164005944Y-85728345D01*
X163977152Y-85790091D01*
X163946850Y-85855076D01*
X163944195Y-85860769D01*
X163897700Y-85913786D01*
X163830000Y-85933519D01*
X163762300Y-85913786D01*
X163715805Y-85860769D01*
X163713150Y-85855076D01*
X163654056Y-85728347D01*
X163636502Y-85703278D01*
X163527746Y-85547958D01*
X163372041Y-85392253D01*
X163191653Y-85265943D01*
X162992074Y-85172879D01*
X162779375Y-85115885D01*
X162560000Y-85096693D01*
X162340624Y-85115885D01*
X162127925Y-85172879D01*
X161928347Y-85265943D01*
X161747958Y-85392253D01*
X161592253Y-85547958D01*
X161465944Y-85728345D01*
X161437152Y-85790091D01*
X161406850Y-85855076D01*
X161404195Y-85860769D01*
X161357700Y-85913786D01*
X161290000Y-85933519D01*
X161222300Y-85913786D01*
X161175805Y-85860769D01*
X161173150Y-85855076D01*
X161114056Y-85728347D01*
X161096502Y-85703278D01*
X160987746Y-85547958D01*
X160832041Y-85392253D01*
X160651653Y-85265943D01*
X160452074Y-85172879D01*
X160239375Y-85115885D01*
X160020000Y-85096693D01*
X159800624Y-85115885D01*
X159587925Y-85172879D01*
X159388347Y-85265943D01*
X159207958Y-85392253D01*
X159052253Y-85547958D01*
X158967712Y-85668695D01*
X158919733Y-85709672D01*
X158857904Y-85722251D01*
X158797729Y-85703278D01*
X158754297Y-85657510D01*
X158738499Y-85596424D01*
X158738499Y-85477853D01*
X158738499Y-85477851D01*
X158723349Y-85382193D01*
X158664603Y-85266897D01*
X158664602Y-85266896D01*
X158664601Y-85266894D01*
X158573105Y-85175398D01*
X158457807Y-85116651D01*
X158452971Y-85115885D01*
X158362149Y-85101500D01*
X158362147Y-85101500D01*
X156597852Y-85101500D01*
X156502193Y-85116651D01*
X156386894Y-85175398D01*
X156295398Y-85266894D01*
X156236651Y-85382192D01*
X156221500Y-85477852D01*
X156221500Y-87242147D01*
X154566961Y-87242147D01*
X152754741Y-85429927D01*
X152643531Y-85339871D01*
X152473372Y-85253171D01*
X152288900Y-85203742D01*
X152217002Y-85199974D01*
X152172348Y-85189254D01*
X152134502Y-85163242D01*
X151688874Y-84717614D01*
X151675356Y-84700742D01*
X151621742Y-84650395D01*
X151618930Y-84647670D01*
X151598333Y-84627073D01*
X151594828Y-84624354D01*
X151585803Y-84616646D01*
X151552131Y-84585026D01*
X151533338Y-84574694D01*
X151516817Y-84563842D01*
X151499870Y-84550697D01*
X151499868Y-84550696D01*
X151457459Y-84532343D01*
X151446818Y-84527130D01*
X151406337Y-84504876D01*
X151406334Y-84504875D01*
X151385568Y-84499543D01*
X151366864Y-84493139D01*
X151347178Y-84484620D01*
X151301552Y-84477394D01*
X151289928Y-84474987D01*
X151273180Y-84470687D01*
X151245188Y-84463500D01*
X151245187Y-84463500D01*
X151223741Y-84463500D01*
X151204032Y-84461949D01*
X151182848Y-84458594D01*
X151182847Y-84458594D01*
X151162770Y-84460491D01*
X151136859Y-84462941D01*
X151125004Y-84463500D01*
X144941206Y-84463500D01*
X144885043Y-84450291D01*
X144840656Y-84413432D01*
X144822148Y-84388923D01*
X144744168Y-84317836D01*
X144673752Y-84253644D01*
X144626297Y-84224261D01*
X144503028Y-84147935D01*
X144409405Y-84111665D01*
X144315784Y-84075397D01*
X144118401Y-84038500D01*
X143917599Y-84038500D01*
X143836548Y-84053651D01*
X143720216Y-84075397D01*
X143532971Y-84147935D01*
X143362249Y-84253643D01*
X143273176Y-84334843D01*
X143223052Y-84362837D01*
X143165710Y-84365687D01*
X143113057Y-84342801D01*
X143076024Y-84298929D01*
X143027602Y-84203895D01*
X142936105Y-84112398D01*
X142820807Y-84053651D01*
X142820806Y-84053650D01*
X142725149Y-84038500D01*
X142725147Y-84038500D01*
X141310852Y-84038500D01*
X141215193Y-84053651D01*
X141099894Y-84112398D01*
X141008398Y-84203894D01*
X140949651Y-84319192D01*
X140934500Y-84414852D01*
X140934500Y-85829147D01*
X140945912Y-85901199D01*
X140949651Y-85924807D01*
X140983049Y-85990355D01*
X141008398Y-86040105D01*
X141099894Y-86131601D01*
X141099896Y-86131602D01*
X141099897Y-86131603D01*
X141188998Y-86177002D01*
X141191785Y-86178422D01*
X141237366Y-86217809D01*
X141259453Y-86273856D01*
X141252995Y-86333750D01*
X141219470Y-86383802D01*
X141213853Y-86388922D01*
X141092844Y-86549165D01*
X141003337Y-86728919D01*
X140948385Y-86922056D01*
X140929857Y-87121999D01*
X140948385Y-87321943D01*
X140985974Y-87454056D01*
X141003338Y-87515082D01*
X141092843Y-87694833D01*
X141213851Y-87855075D01*
X141213854Y-87855078D01*
X141362247Y-87990356D01*
X141401844Y-88014874D01*
X141445589Y-88060689D01*
X141461512Y-88122000D01*
X141445589Y-88183311D01*
X141401844Y-88229126D01*
X141362247Y-88253643D01*
X141213854Y-88388921D01*
X141092844Y-88549165D01*
X141003337Y-88728919D01*
X140948385Y-88922056D01*
X140929857Y-89122000D01*
X140948385Y-89321943D01*
X140999807Y-89502675D01*
X141003338Y-89515082D01*
X141092843Y-89694833D01*
X141200108Y-89836876D01*
X141213854Y-89855078D01*
X141362245Y-89990354D01*
X141465843Y-90054500D01*
X141532973Y-90096065D01*
X141720216Y-90168603D01*
X141917599Y-90205500D01*
X142118400Y-90205500D01*
X142118401Y-90205500D01*
X142315784Y-90168603D01*
X142435985Y-90122036D01*
X142496021Y-90114369D01*
X142552707Y-90135579D01*
X142592963Y-90180776D01*
X142607500Y-90239529D01*
X142607500Y-90452369D01*
X142594544Y-90508021D01*
X142558339Y-90552228D01*
X142506331Y-90575898D01*
X142470618Y-90574813D01*
X142470353Y-90577846D01*
X142459372Y-90576885D01*
X142459371Y-90576885D01*
X142240000Y-90557693D01*
X142239999Y-90557693D01*
X142020624Y-90576885D01*
X141807925Y-90633879D01*
X141608347Y-90726943D01*
X141427958Y-90853253D01*
X141272253Y-91008958D01*
X141145943Y-91189347D01*
X141052879Y-91388925D01*
X140995885Y-91601624D01*
X140976693Y-91821000D01*
X140995885Y-92040375D01*
X141052879Y-92253074D01*
X141145943Y-92452653D01*
X141272253Y-92633041D01*
X141427958Y-92788746D01*
X141427961Y-92788748D01*
X141427962Y-92788749D01*
X141443343Y-92799519D01*
X141608346Y-92915056D01*
X141740768Y-92976805D01*
X141793786Y-93023300D01*
X141813519Y-93091000D01*
X141793786Y-93158700D01*
X141740769Y-93205195D01*
X141608345Y-93266944D01*
X141427958Y-93393253D01*
X141272253Y-93548958D01*
X141145943Y-93729347D01*
X141052879Y-93928925D01*
X140995885Y-94141624D01*
X140976693Y-94361000D01*
X140995885Y-94580375D01*
X141052879Y-94793074D01*
X141145943Y-94992653D01*
X141272253Y-95173041D01*
X141427958Y-95328746D01*
X141608346Y-95455056D01*
X141740768Y-95516805D01*
X141793786Y-95563300D01*
X141813519Y-95631000D01*
X141793786Y-95698700D01*
X141740769Y-95745195D01*
X141608345Y-95806944D01*
X141427958Y-95933253D01*
X141272253Y-96088958D01*
X141145943Y-96269347D01*
X141052879Y-96468925D01*
X140995885Y-96681624D01*
X140976693Y-96901000D01*
X140995885Y-97120375D01*
X141052879Y-97333074D01*
X141145943Y-97532653D01*
X141272253Y-97713041D01*
X141427117Y-97867905D01*
X141457855Y-97918064D01*
X141462471Y-97976711D01*
X141439958Y-98031061D01*
X141395225Y-98069267D01*
X141347947Y-98080617D01*
X141348126Y-98082278D01*
X141280906Y-98089505D01*
X141144037Y-98140554D01*
X141027095Y-98228095D01*
X140939554Y-98345037D01*
X140888505Y-98481906D01*
X140882000Y-98542411D01*
X140882000Y-99187000D01*
X140537500Y-99187000D01*
X140537500Y-83767500D01*
X140554381Y-83704500D01*
X140600500Y-83658381D01*
X140663500Y-83641500D01*
X177852500Y-83641500D01*
X177915500Y-83658381D01*
G37*
G04 #@! TD.AperFunction*
M02*
