M48
; DRILL file {KiCad 7.0.1-3b83917a11~172~ubuntu20.04.1} date Sun 02 Apr 2023 21:53:53 CEST
; FORMAT={-:-/ absolute / inch / decimal}
; #@! TF.CreationDate,2023-04-02T21:53:53+02:00
; #@! TF.GenerationSoftware,Kicad,Pcbnew,7.0.1-3b83917a11~172~ubuntu20.04.1
; #@! TF.FileFunction,Plated,1,2,PTH
FMAT,2
INCH
; #@! TA.AperFunction,Plated,PTH,ViaDrill
T1C0.0157
; #@! TA.AperFunction,Plated,PTH,ComponentDrill
T2C0.0315
; #@! TA.AperFunction,Plated,PTH,ComponentDrill
T3C0.0394
; #@! TA.AperFunction,Plated,PTH,ComponentDrill
T4C0.0433
%
G90
G05
T1
X5.8675Y-3.63
X5.885Y-3.735
X5.885Y-3.785
X5.89Y-3.55
X5.8975Y-3.66
X5.9135Y-3.5904
X5.945Y-3.5
X5.9654Y-3.5246
X5.99Y-3.39
X6.031Y-3.34
X6.06Y-4.075
X6.09Y-3.805
X6.095Y-3.6
X6.095Y-3.735
X6.105Y-3.99
X6.15Y-3.72
X6.205Y-3.74
X6.25Y-3.745
X6.2697Y-3.625
X6.2743Y-3.9057
X6.29Y-3.54
X6.3151Y-3.8807
X6.34Y-3.5
X6.44Y-3.89
X6.46Y-3.5
X6.46Y-3.91
X6.4976Y-3.6824
X6.5Y-3.79
X6.515Y-3.75
X6.55Y-3.62
X6.68Y-4.105
X6.685Y-3.895
X6.7974Y-4.1226
X6.89Y-3.865
X6.89Y-4.0575
T2
X5.5913Y-3.3513
X5.5913Y-3.43
X5.5913Y-3.5087
X5.67Y-3.3513
X5.67Y-3.43
X5.67Y-3.5087
T3
X5.6Y-3.615
X5.6Y-3.715
X5.6Y-3.815
X5.6Y-3.915
X5.85Y-4.35
X5.95Y-4.35
X6.05Y-4.35
X6.15Y-4.35
X6.2Y-3.4
X6.25Y-4.35
X6.3Y-3.4
X6.3Y-4.25
X6.35Y-4.35
X6.4Y-3.4
X6.4Y-4.25
X6.45Y-4.35
X6.5Y-3.4
X6.5Y-4.25
X6.55Y-4.35
X6.6Y-3.4
X6.6Y-4.25
X6.7Y-3.4
X6.8Y-3.4
X6.9Y-3.4
T4
X6.9241Y-4.1778
X6.9241Y-4.355
X7.18Y-4.1778
X7.18Y-4.355
T0
M30
