G04 #@! TF.GenerationSoftware,KiCad,Pcbnew,7.0.1-3b83917a11~172~ubuntu20.04.1*
G04 #@! TF.CreationDate,2023-04-02T21:53:50+02:00*
G04 #@! TF.ProjectId,C64Saver2-addon,43363453-6176-4657-9232-2d6164646f6e,1.4*
G04 #@! TF.SameCoordinates,Original*
G04 #@! TF.FileFunction,Legend,Top*
G04 #@! TF.FilePolarity,Positive*
%FSLAX46Y46*%
G04 Gerber Fmt 4.6, Leading zero omitted, Abs format (unit mm)*
G04 Created by KiCad (PCBNEW 7.0.1-3b83917a11~172~ubuntu20.04.1) date 2023-04-02 21:53:50*
%MOMM*%
%LPD*%
G01*
G04 APERTURE LIST*
%ADD10C,0.200000*%
%ADD11C,0.275000*%
%ADD12C,0.150000*%
%ADD13C,0.120000*%
G04 APERTURE END LIST*
D10*
X162589981Y-102743000D02*
G75*
G03*
X162589981Y-102743000I-283981J0D01*
G01*
X167288981Y-102235000D02*
G75*
G03*
X167288981Y-102235000I-283981J0D01*
G01*
D11*
X143934880Y-95323618D02*
X143934880Y-95114094D01*
X143934880Y-95114094D02*
X143987261Y-95009332D01*
X143987261Y-95009332D02*
X144092023Y-94904570D01*
X144092023Y-94904570D02*
X144301547Y-94852189D01*
X144301547Y-94852189D02*
X144668214Y-94852189D01*
X144668214Y-94852189D02*
X144877738Y-94904570D01*
X144877738Y-94904570D02*
X144982500Y-95009332D01*
X144982500Y-95009332D02*
X145034880Y-95114094D01*
X145034880Y-95114094D02*
X145034880Y-95323618D01*
X145034880Y-95323618D02*
X144982500Y-95428380D01*
X144982500Y-95428380D02*
X144877738Y-95533142D01*
X144877738Y-95533142D02*
X144668214Y-95585523D01*
X144668214Y-95585523D02*
X144301547Y-95585523D01*
X144301547Y-95585523D02*
X144092023Y-95533142D01*
X144092023Y-95533142D02*
X143987261Y-95428380D01*
X143987261Y-95428380D02*
X143934880Y-95323618D01*
X145034880Y-93856951D02*
X145034880Y-94380761D01*
X145034880Y-94380761D02*
X143934880Y-94380761D01*
X144458690Y-93490285D02*
X144458690Y-93123618D01*
X145034880Y-92966475D02*
X145034880Y-93490285D01*
X145034880Y-93490285D02*
X143934880Y-93490285D01*
X143934880Y-93490285D02*
X143934880Y-92966475D01*
X145034880Y-92495047D02*
X143934880Y-92495047D01*
X143934880Y-92495047D02*
X143934880Y-92233142D01*
X143934880Y-92233142D02*
X143987261Y-92075999D01*
X143987261Y-92075999D02*
X144092023Y-91971237D01*
X144092023Y-91971237D02*
X144196785Y-91918856D01*
X144196785Y-91918856D02*
X144406309Y-91866475D01*
X144406309Y-91866475D02*
X144563452Y-91866475D01*
X144563452Y-91866475D02*
X144772976Y-91918856D01*
X144772976Y-91918856D02*
X144877738Y-91971237D01*
X144877738Y-91971237D02*
X144982500Y-92075999D01*
X144982500Y-92075999D02*
X145034880Y-92233142D01*
X145034880Y-92233142D02*
X145034880Y-92495047D01*
D12*
X177736667Y-111159000D02*
X177879524Y-111206619D01*
X177879524Y-111206619D02*
X178117619Y-111206619D01*
X178117619Y-111206619D02*
X178212857Y-111159000D01*
X178212857Y-111159000D02*
X178260476Y-111111380D01*
X178260476Y-111111380D02*
X178308095Y-111016142D01*
X178308095Y-111016142D02*
X178308095Y-110920904D01*
X178308095Y-110920904D02*
X178260476Y-110825666D01*
X178260476Y-110825666D02*
X178212857Y-110778047D01*
X178212857Y-110778047D02*
X178117619Y-110730428D01*
X178117619Y-110730428D02*
X177927143Y-110682809D01*
X177927143Y-110682809D02*
X177831905Y-110635190D01*
X177831905Y-110635190D02*
X177784286Y-110587571D01*
X177784286Y-110587571D02*
X177736667Y-110492333D01*
X177736667Y-110492333D02*
X177736667Y-110397095D01*
X177736667Y-110397095D02*
X177784286Y-110301857D01*
X177784286Y-110301857D02*
X177831905Y-110254238D01*
X177831905Y-110254238D02*
X177927143Y-110206619D01*
X177927143Y-110206619D02*
X178165238Y-110206619D01*
X178165238Y-110206619D02*
X178308095Y-110254238D01*
X178641429Y-110206619D02*
X178879524Y-111206619D01*
X178879524Y-111206619D02*
X179070000Y-110492333D01*
X179070000Y-110492333D02*
X179260476Y-111206619D01*
X179260476Y-111206619D02*
X179498572Y-110206619D01*
X180403333Y-111206619D02*
X179831905Y-111206619D01*
X180117619Y-111206619D02*
X180117619Y-110206619D01*
X180117619Y-110206619D02*
X180022381Y-110349476D01*
X180022381Y-110349476D02*
X179927143Y-110444714D01*
X179927143Y-110444714D02*
X179831905Y-110492333D01*
X143455219Y-100790333D02*
X144169504Y-100790333D01*
X144169504Y-100790333D02*
X144312361Y-100837952D01*
X144312361Y-100837952D02*
X144407600Y-100933190D01*
X144407600Y-100933190D02*
X144455219Y-101076047D01*
X144455219Y-101076047D02*
X144455219Y-101171285D01*
X143455219Y-100409380D02*
X143455219Y-99790333D01*
X143455219Y-99790333D02*
X143836171Y-100123666D01*
X143836171Y-100123666D02*
X143836171Y-99980809D01*
X143836171Y-99980809D02*
X143883790Y-99885571D01*
X143883790Y-99885571D02*
X143931409Y-99837952D01*
X143931409Y-99837952D02*
X144026647Y-99790333D01*
X144026647Y-99790333D02*
X144264742Y-99790333D01*
X144264742Y-99790333D02*
X144359980Y-99837952D01*
X144359980Y-99837952D02*
X144407600Y-99885571D01*
X144407600Y-99885571D02*
X144455219Y-99980809D01*
X144455219Y-99980809D02*
X144455219Y-100266523D01*
X144455219Y-100266523D02*
X144407600Y-100361761D01*
X144407600Y-100361761D02*
X144359980Y-100409380D01*
X177384333Y-94220380D02*
X177336714Y-94268000D01*
X177336714Y-94268000D02*
X177193857Y-94315619D01*
X177193857Y-94315619D02*
X177098619Y-94315619D01*
X177098619Y-94315619D02*
X176955762Y-94268000D01*
X176955762Y-94268000D02*
X176860524Y-94172761D01*
X176860524Y-94172761D02*
X176812905Y-94077523D01*
X176812905Y-94077523D02*
X176765286Y-93887047D01*
X176765286Y-93887047D02*
X176765286Y-93744190D01*
X176765286Y-93744190D02*
X176812905Y-93553714D01*
X176812905Y-93553714D02*
X176860524Y-93458476D01*
X176860524Y-93458476D02*
X176955762Y-93363238D01*
X176955762Y-93363238D02*
X177098619Y-93315619D01*
X177098619Y-93315619D02*
X177193857Y-93315619D01*
X177193857Y-93315619D02*
X177336714Y-93363238D01*
X177336714Y-93363238D02*
X177384333Y-93410857D01*
X177765286Y-93410857D02*
X177812905Y-93363238D01*
X177812905Y-93363238D02*
X177908143Y-93315619D01*
X177908143Y-93315619D02*
X178146238Y-93315619D01*
X178146238Y-93315619D02*
X178241476Y-93363238D01*
X178241476Y-93363238D02*
X178289095Y-93410857D01*
X178289095Y-93410857D02*
X178336714Y-93506095D01*
X178336714Y-93506095D02*
X178336714Y-93601333D01*
X178336714Y-93601333D02*
X178289095Y-93744190D01*
X178289095Y-93744190D02*
X177717667Y-94315619D01*
X177717667Y-94315619D02*
X178336714Y-94315619D01*
X154036733Y-98201819D02*
X153703400Y-97725628D01*
X153465305Y-98201819D02*
X153465305Y-97201819D01*
X153465305Y-97201819D02*
X153846257Y-97201819D01*
X153846257Y-97201819D02*
X153941495Y-97249438D01*
X153941495Y-97249438D02*
X153989114Y-97297057D01*
X153989114Y-97297057D02*
X154036733Y-97392295D01*
X154036733Y-97392295D02*
X154036733Y-97535152D01*
X154036733Y-97535152D02*
X153989114Y-97630390D01*
X153989114Y-97630390D02*
X153941495Y-97678009D01*
X153941495Y-97678009D02*
X153846257Y-97725628D01*
X153846257Y-97725628D02*
X153465305Y-97725628D01*
X154989114Y-98201819D02*
X154417686Y-98201819D01*
X154703400Y-98201819D02*
X154703400Y-97201819D01*
X154703400Y-97201819D02*
X154608162Y-97344676D01*
X154608162Y-97344676D02*
X154512924Y-97439914D01*
X154512924Y-97439914D02*
X154417686Y-97487533D01*
X164907933Y-97744619D02*
X164574600Y-97268428D01*
X164336505Y-97744619D02*
X164336505Y-96744619D01*
X164336505Y-96744619D02*
X164717457Y-96744619D01*
X164717457Y-96744619D02*
X164812695Y-96792238D01*
X164812695Y-96792238D02*
X164860314Y-96839857D01*
X164860314Y-96839857D02*
X164907933Y-96935095D01*
X164907933Y-96935095D02*
X164907933Y-97077952D01*
X164907933Y-97077952D02*
X164860314Y-97173190D01*
X164860314Y-97173190D02*
X164812695Y-97220809D01*
X164812695Y-97220809D02*
X164717457Y-97268428D01*
X164717457Y-97268428D02*
X164336505Y-97268428D01*
X165241267Y-96744619D02*
X165860314Y-96744619D01*
X165860314Y-96744619D02*
X165526981Y-97125571D01*
X165526981Y-97125571D02*
X165669838Y-97125571D01*
X165669838Y-97125571D02*
X165765076Y-97173190D01*
X165765076Y-97173190D02*
X165812695Y-97220809D01*
X165812695Y-97220809D02*
X165860314Y-97316047D01*
X165860314Y-97316047D02*
X165860314Y-97554142D01*
X165860314Y-97554142D02*
X165812695Y-97649380D01*
X165812695Y-97649380D02*
X165765076Y-97697000D01*
X165765076Y-97697000D02*
X165669838Y-97744619D01*
X165669838Y-97744619D02*
X165384124Y-97744619D01*
X165384124Y-97744619D02*
X165288886Y-97697000D01*
X165288886Y-97697000D02*
X165241267Y-97649380D01*
X171643833Y-92982119D02*
X171310500Y-92505928D01*
X171072405Y-92982119D02*
X171072405Y-91982119D01*
X171072405Y-91982119D02*
X171453357Y-91982119D01*
X171453357Y-91982119D02*
X171548595Y-92029738D01*
X171548595Y-92029738D02*
X171596214Y-92077357D01*
X171596214Y-92077357D02*
X171643833Y-92172595D01*
X171643833Y-92172595D02*
X171643833Y-92315452D01*
X171643833Y-92315452D02*
X171596214Y-92410690D01*
X171596214Y-92410690D02*
X171548595Y-92458309D01*
X171548595Y-92458309D02*
X171453357Y-92505928D01*
X171453357Y-92505928D02*
X171072405Y-92505928D01*
X172500976Y-92315452D02*
X172500976Y-92982119D01*
X172262881Y-91934500D02*
X172024786Y-92648785D01*
X172024786Y-92648785D02*
X172643833Y-92648785D01*
X157394533Y-92569380D02*
X157346914Y-92617000D01*
X157346914Y-92617000D02*
X157204057Y-92664619D01*
X157204057Y-92664619D02*
X157108819Y-92664619D01*
X157108819Y-92664619D02*
X156965962Y-92617000D01*
X156965962Y-92617000D02*
X156870724Y-92521761D01*
X156870724Y-92521761D02*
X156823105Y-92426523D01*
X156823105Y-92426523D02*
X156775486Y-92236047D01*
X156775486Y-92236047D02*
X156775486Y-92093190D01*
X156775486Y-92093190D02*
X156823105Y-91902714D01*
X156823105Y-91902714D02*
X156870724Y-91807476D01*
X156870724Y-91807476D02*
X156965962Y-91712238D01*
X156965962Y-91712238D02*
X157108819Y-91664619D01*
X157108819Y-91664619D02*
X157204057Y-91664619D01*
X157204057Y-91664619D02*
X157346914Y-91712238D01*
X157346914Y-91712238D02*
X157394533Y-91759857D01*
X158251676Y-91997952D02*
X158251676Y-92664619D01*
X158013581Y-91617000D02*
X157775486Y-92331285D01*
X157775486Y-92331285D02*
X158394533Y-92331285D01*
X162103235Y-89343420D02*
X161769902Y-88867229D01*
X161531807Y-89343420D02*
X161531807Y-88343420D01*
X161531807Y-88343420D02*
X161912759Y-88343420D01*
X161912759Y-88343420D02*
X162007997Y-88391039D01*
X162007997Y-88391039D02*
X162055616Y-88438658D01*
X162055616Y-88438658D02*
X162103235Y-88533896D01*
X162103235Y-88533896D02*
X162103235Y-88676753D01*
X162103235Y-88676753D02*
X162055616Y-88771991D01*
X162055616Y-88771991D02*
X162007997Y-88819610D01*
X162007997Y-88819610D02*
X161912759Y-88867229D01*
X161912759Y-88867229D02*
X161531807Y-88867229D01*
X163007997Y-88343420D02*
X162531807Y-88343420D01*
X162531807Y-88343420D02*
X162484188Y-88819610D01*
X162484188Y-88819610D02*
X162531807Y-88771991D01*
X162531807Y-88771991D02*
X162627045Y-88724372D01*
X162627045Y-88724372D02*
X162865140Y-88724372D01*
X162865140Y-88724372D02*
X162960378Y-88771991D01*
X162960378Y-88771991D02*
X163007997Y-88819610D01*
X163007997Y-88819610D02*
X163055616Y-88914848D01*
X163055616Y-88914848D02*
X163055616Y-89152943D01*
X163055616Y-89152943D02*
X163007997Y-89248181D01*
X163007997Y-89248181D02*
X162960378Y-89295801D01*
X162960378Y-89295801D02*
X162865140Y-89343420D01*
X162865140Y-89343420D02*
X162627045Y-89343420D01*
X162627045Y-89343420D02*
X162531807Y-89295801D01*
X162531807Y-89295801D02*
X162484188Y-89248181D01*
X181767013Y-99620695D02*
X181433680Y-99144504D01*
X181195585Y-99620695D02*
X181195585Y-98620695D01*
X181195585Y-98620695D02*
X181576537Y-98620695D01*
X181576537Y-98620695D02*
X181671775Y-98668314D01*
X181671775Y-98668314D02*
X181719394Y-98715933D01*
X181719394Y-98715933D02*
X181767013Y-98811171D01*
X181767013Y-98811171D02*
X181767013Y-98954028D01*
X181767013Y-98954028D02*
X181719394Y-99049266D01*
X181719394Y-99049266D02*
X181671775Y-99096885D01*
X181671775Y-99096885D02*
X181576537Y-99144504D01*
X181576537Y-99144504D02*
X181195585Y-99144504D01*
X182100347Y-98620695D02*
X182767013Y-98620695D01*
X182767013Y-98620695D02*
X182338442Y-99620695D01*
X145121333Y-96982619D02*
X144788000Y-96506428D01*
X144549905Y-96982619D02*
X144549905Y-95982619D01*
X144549905Y-95982619D02*
X144930857Y-95982619D01*
X144930857Y-95982619D02*
X145026095Y-96030238D01*
X145026095Y-96030238D02*
X145073714Y-96077857D01*
X145073714Y-96077857D02*
X145121333Y-96173095D01*
X145121333Y-96173095D02*
X145121333Y-96315952D01*
X145121333Y-96315952D02*
X145073714Y-96411190D01*
X145073714Y-96411190D02*
X145026095Y-96458809D01*
X145026095Y-96458809D02*
X144930857Y-96506428D01*
X144930857Y-96506428D02*
X144549905Y-96506428D01*
X145692762Y-96411190D02*
X145597524Y-96363571D01*
X145597524Y-96363571D02*
X145549905Y-96315952D01*
X145549905Y-96315952D02*
X145502286Y-96220714D01*
X145502286Y-96220714D02*
X145502286Y-96173095D01*
X145502286Y-96173095D02*
X145549905Y-96077857D01*
X145549905Y-96077857D02*
X145597524Y-96030238D01*
X145597524Y-96030238D02*
X145692762Y-95982619D01*
X145692762Y-95982619D02*
X145883238Y-95982619D01*
X145883238Y-95982619D02*
X145978476Y-96030238D01*
X145978476Y-96030238D02*
X146026095Y-96077857D01*
X146026095Y-96077857D02*
X146073714Y-96173095D01*
X146073714Y-96173095D02*
X146073714Y-96220714D01*
X146073714Y-96220714D02*
X146026095Y-96315952D01*
X146026095Y-96315952D02*
X145978476Y-96363571D01*
X145978476Y-96363571D02*
X145883238Y-96411190D01*
X145883238Y-96411190D02*
X145692762Y-96411190D01*
X145692762Y-96411190D02*
X145597524Y-96458809D01*
X145597524Y-96458809D02*
X145549905Y-96506428D01*
X145549905Y-96506428D02*
X145502286Y-96601666D01*
X145502286Y-96601666D02*
X145502286Y-96792142D01*
X145502286Y-96792142D02*
X145549905Y-96887380D01*
X145549905Y-96887380D02*
X145597524Y-96935000D01*
X145597524Y-96935000D02*
X145692762Y-96982619D01*
X145692762Y-96982619D02*
X145883238Y-96982619D01*
X145883238Y-96982619D02*
X145978476Y-96935000D01*
X145978476Y-96935000D02*
X146026095Y-96887380D01*
X146026095Y-96887380D02*
X146073714Y-96792142D01*
X146073714Y-96792142D02*
X146073714Y-96601666D01*
X146073714Y-96601666D02*
X146026095Y-96506428D01*
X146026095Y-96506428D02*
X145978476Y-96458809D01*
X145978476Y-96458809D02*
X145883238Y-96411190D01*
X181719833Y-102443619D02*
X181386500Y-101967428D01*
X181148405Y-102443619D02*
X181148405Y-101443619D01*
X181148405Y-101443619D02*
X181529357Y-101443619D01*
X181529357Y-101443619D02*
X181624595Y-101491238D01*
X181624595Y-101491238D02*
X181672214Y-101538857D01*
X181672214Y-101538857D02*
X181719833Y-101634095D01*
X181719833Y-101634095D02*
X181719833Y-101776952D01*
X181719833Y-101776952D02*
X181672214Y-101872190D01*
X181672214Y-101872190D02*
X181624595Y-101919809D01*
X181624595Y-101919809D02*
X181529357Y-101967428D01*
X181529357Y-101967428D02*
X181148405Y-101967428D01*
X182196024Y-102443619D02*
X182386500Y-102443619D01*
X182386500Y-102443619D02*
X182481738Y-102396000D01*
X182481738Y-102396000D02*
X182529357Y-102348380D01*
X182529357Y-102348380D02*
X182624595Y-102205523D01*
X182624595Y-102205523D02*
X182672214Y-102015047D01*
X182672214Y-102015047D02*
X182672214Y-101634095D01*
X182672214Y-101634095D02*
X182624595Y-101538857D01*
X182624595Y-101538857D02*
X182576976Y-101491238D01*
X182576976Y-101491238D02*
X182481738Y-101443619D01*
X182481738Y-101443619D02*
X182291262Y-101443619D01*
X182291262Y-101443619D02*
X182196024Y-101491238D01*
X182196024Y-101491238D02*
X182148405Y-101538857D01*
X182148405Y-101538857D02*
X182100786Y-101634095D01*
X182100786Y-101634095D02*
X182100786Y-101872190D01*
X182100786Y-101872190D02*
X182148405Y-101967428D01*
X182148405Y-101967428D02*
X182196024Y-102015047D01*
X182196024Y-102015047D02*
X182291262Y-102062666D01*
X182291262Y-102062666D02*
X182481738Y-102062666D01*
X182481738Y-102062666D02*
X182576976Y-102015047D01*
X182576976Y-102015047D02*
X182624595Y-101967428D01*
X182624595Y-101967428D02*
X182672214Y-101872190D01*
X171231142Y-107650619D02*
X170897809Y-107174428D01*
X170659714Y-107650619D02*
X170659714Y-106650619D01*
X170659714Y-106650619D02*
X171040666Y-106650619D01*
X171040666Y-106650619D02*
X171135904Y-106698238D01*
X171135904Y-106698238D02*
X171183523Y-106745857D01*
X171183523Y-106745857D02*
X171231142Y-106841095D01*
X171231142Y-106841095D02*
X171231142Y-106983952D01*
X171231142Y-106983952D02*
X171183523Y-107079190D01*
X171183523Y-107079190D02*
X171135904Y-107126809D01*
X171135904Y-107126809D02*
X171040666Y-107174428D01*
X171040666Y-107174428D02*
X170659714Y-107174428D01*
X172183523Y-107650619D02*
X171612095Y-107650619D01*
X171897809Y-107650619D02*
X171897809Y-106650619D01*
X171897809Y-106650619D02*
X171802571Y-106793476D01*
X171802571Y-106793476D02*
X171707333Y-106888714D01*
X171707333Y-106888714D02*
X171612095Y-106936333D01*
X172802571Y-106650619D02*
X172897809Y-106650619D01*
X172897809Y-106650619D02*
X172993047Y-106698238D01*
X172993047Y-106698238D02*
X173040666Y-106745857D01*
X173040666Y-106745857D02*
X173088285Y-106841095D01*
X173088285Y-106841095D02*
X173135904Y-107031571D01*
X173135904Y-107031571D02*
X173135904Y-107269666D01*
X173135904Y-107269666D02*
X173088285Y-107460142D01*
X173088285Y-107460142D02*
X173040666Y-107555380D01*
X173040666Y-107555380D02*
X172993047Y-107603000D01*
X172993047Y-107603000D02*
X172897809Y-107650619D01*
X172897809Y-107650619D02*
X172802571Y-107650619D01*
X172802571Y-107650619D02*
X172707333Y-107603000D01*
X172707333Y-107603000D02*
X172659714Y-107555380D01*
X172659714Y-107555380D02*
X172612095Y-107460142D01*
X172612095Y-107460142D02*
X172564476Y-107269666D01*
X172564476Y-107269666D02*
X172564476Y-107031571D01*
X172564476Y-107031571D02*
X172612095Y-106841095D01*
X172612095Y-106841095D02*
X172659714Y-106745857D01*
X172659714Y-106745857D02*
X172707333Y-106698238D01*
X172707333Y-106698238D02*
X172802571Y-106650619D01*
X171231142Y-110190619D02*
X170897809Y-109714428D01*
X170659714Y-110190619D02*
X170659714Y-109190619D01*
X170659714Y-109190619D02*
X171040666Y-109190619D01*
X171040666Y-109190619D02*
X171135904Y-109238238D01*
X171135904Y-109238238D02*
X171183523Y-109285857D01*
X171183523Y-109285857D02*
X171231142Y-109381095D01*
X171231142Y-109381095D02*
X171231142Y-109523952D01*
X171231142Y-109523952D02*
X171183523Y-109619190D01*
X171183523Y-109619190D02*
X171135904Y-109666809D01*
X171135904Y-109666809D02*
X171040666Y-109714428D01*
X171040666Y-109714428D02*
X170659714Y-109714428D01*
X172183523Y-110190619D02*
X171612095Y-110190619D01*
X171897809Y-110190619D02*
X171897809Y-109190619D01*
X171897809Y-109190619D02*
X171802571Y-109333476D01*
X171802571Y-109333476D02*
X171707333Y-109428714D01*
X171707333Y-109428714D02*
X171612095Y-109476333D01*
X173135904Y-110190619D02*
X172564476Y-110190619D01*
X172850190Y-110190619D02*
X172850190Y-109190619D01*
X172850190Y-109190619D02*
X172754952Y-109333476D01*
X172754952Y-109333476D02*
X172659714Y-109428714D01*
X172659714Y-109428714D02*
X172564476Y-109476333D01*
X163038619Y-104800304D02*
X163848142Y-104800304D01*
X163848142Y-104800304D02*
X163943380Y-104752685D01*
X163943380Y-104752685D02*
X163991000Y-104705066D01*
X163991000Y-104705066D02*
X164038619Y-104609828D01*
X164038619Y-104609828D02*
X164038619Y-104419352D01*
X164038619Y-104419352D02*
X163991000Y-104324114D01*
X163991000Y-104324114D02*
X163943380Y-104276495D01*
X163943380Y-104276495D02*
X163848142Y-104228876D01*
X163848142Y-104228876D02*
X163038619Y-104228876D01*
X163371952Y-103324114D02*
X164038619Y-103324114D01*
X162991000Y-103562209D02*
X163705285Y-103800304D01*
X163705285Y-103800304D02*
X163705285Y-103181257D01*
X165145619Y-101650704D02*
X165955142Y-101650704D01*
X165955142Y-101650704D02*
X166050380Y-101603085D01*
X166050380Y-101603085D02*
X166098000Y-101555466D01*
X166098000Y-101555466D02*
X166145619Y-101460228D01*
X166145619Y-101460228D02*
X166145619Y-101269752D01*
X166145619Y-101269752D02*
X166098000Y-101174514D01*
X166098000Y-101174514D02*
X166050380Y-101126895D01*
X166050380Y-101126895D02*
X165955142Y-101079276D01*
X165955142Y-101079276D02*
X165145619Y-101079276D01*
X165145619Y-100126895D02*
X165145619Y-100603085D01*
X165145619Y-100603085D02*
X165621809Y-100650704D01*
X165621809Y-100650704D02*
X165574190Y-100603085D01*
X165574190Y-100603085D02*
X165526571Y-100507847D01*
X165526571Y-100507847D02*
X165526571Y-100269752D01*
X165526571Y-100269752D02*
X165574190Y-100174514D01*
X165574190Y-100174514D02*
X165621809Y-100126895D01*
X165621809Y-100126895D02*
X165717047Y-100079276D01*
X165717047Y-100079276D02*
X165955142Y-100079276D01*
X165955142Y-100079276D02*
X166050380Y-100126895D01*
X166050380Y-100126895D02*
X166098000Y-100174514D01*
X166098000Y-100174514D02*
X166145619Y-100269752D01*
X166145619Y-100269752D02*
X166145619Y-100507847D01*
X166145619Y-100507847D02*
X166098000Y-100603085D01*
X166098000Y-100603085D02*
X166050380Y-100650704D01*
X157125333Y-95363380D02*
X157077714Y-95411000D01*
X157077714Y-95411000D02*
X156934857Y-95458619D01*
X156934857Y-95458619D02*
X156839619Y-95458619D01*
X156839619Y-95458619D02*
X156696762Y-95411000D01*
X156696762Y-95411000D02*
X156601524Y-95315761D01*
X156601524Y-95315761D02*
X156553905Y-95220523D01*
X156553905Y-95220523D02*
X156506286Y-95030047D01*
X156506286Y-95030047D02*
X156506286Y-94887190D01*
X156506286Y-94887190D02*
X156553905Y-94696714D01*
X156553905Y-94696714D02*
X156601524Y-94601476D01*
X156601524Y-94601476D02*
X156696762Y-94506238D01*
X156696762Y-94506238D02*
X156839619Y-94458619D01*
X156839619Y-94458619D02*
X156934857Y-94458619D01*
X156934857Y-94458619D02*
X157077714Y-94506238D01*
X157077714Y-94506238D02*
X157125333Y-94553857D01*
X157458667Y-94458619D02*
X158077714Y-94458619D01*
X158077714Y-94458619D02*
X157744381Y-94839571D01*
X157744381Y-94839571D02*
X157887238Y-94839571D01*
X157887238Y-94839571D02*
X157982476Y-94887190D01*
X157982476Y-94887190D02*
X158030095Y-94934809D01*
X158030095Y-94934809D02*
X158077714Y-95030047D01*
X158077714Y-95030047D02*
X158077714Y-95268142D01*
X158077714Y-95268142D02*
X158030095Y-95363380D01*
X158030095Y-95363380D02*
X157982476Y-95411000D01*
X157982476Y-95411000D02*
X157887238Y-95458619D01*
X157887238Y-95458619D02*
X157601524Y-95458619D01*
X157601524Y-95458619D02*
X157506286Y-95411000D01*
X157506286Y-95411000D02*
X157458667Y-95363380D01*
X154874933Y-99909980D02*
X154827314Y-99957600D01*
X154827314Y-99957600D02*
X154684457Y-100005219D01*
X154684457Y-100005219D02*
X154589219Y-100005219D01*
X154589219Y-100005219D02*
X154446362Y-99957600D01*
X154446362Y-99957600D02*
X154351124Y-99862361D01*
X154351124Y-99862361D02*
X154303505Y-99767123D01*
X154303505Y-99767123D02*
X154255886Y-99576647D01*
X154255886Y-99576647D02*
X154255886Y-99433790D01*
X154255886Y-99433790D02*
X154303505Y-99243314D01*
X154303505Y-99243314D02*
X154351124Y-99148076D01*
X154351124Y-99148076D02*
X154446362Y-99052838D01*
X154446362Y-99052838D02*
X154589219Y-99005219D01*
X154589219Y-99005219D02*
X154684457Y-99005219D01*
X154684457Y-99005219D02*
X154827314Y-99052838D01*
X154827314Y-99052838D02*
X154874933Y-99100457D01*
X155779695Y-99005219D02*
X155303505Y-99005219D01*
X155303505Y-99005219D02*
X155255886Y-99481409D01*
X155255886Y-99481409D02*
X155303505Y-99433790D01*
X155303505Y-99433790D02*
X155398743Y-99386171D01*
X155398743Y-99386171D02*
X155636838Y-99386171D01*
X155636838Y-99386171D02*
X155732076Y-99433790D01*
X155732076Y-99433790D02*
X155779695Y-99481409D01*
X155779695Y-99481409D02*
X155827314Y-99576647D01*
X155827314Y-99576647D02*
X155827314Y-99814742D01*
X155827314Y-99814742D02*
X155779695Y-99909980D01*
X155779695Y-99909980D02*
X155732076Y-99957600D01*
X155732076Y-99957600D02*
X155636838Y-100005219D01*
X155636838Y-100005219D02*
X155398743Y-100005219D01*
X155398743Y-100005219D02*
X155303505Y-99957600D01*
X155303505Y-99957600D02*
X155255886Y-99909980D01*
X177379333Y-91614380D02*
X177331714Y-91662000D01*
X177331714Y-91662000D02*
X177188857Y-91709619D01*
X177188857Y-91709619D02*
X177093619Y-91709619D01*
X177093619Y-91709619D02*
X176950762Y-91662000D01*
X176950762Y-91662000D02*
X176855524Y-91566761D01*
X176855524Y-91566761D02*
X176807905Y-91471523D01*
X176807905Y-91471523D02*
X176760286Y-91281047D01*
X176760286Y-91281047D02*
X176760286Y-91138190D01*
X176760286Y-91138190D02*
X176807905Y-90947714D01*
X176807905Y-90947714D02*
X176855524Y-90852476D01*
X176855524Y-90852476D02*
X176950762Y-90757238D01*
X176950762Y-90757238D02*
X177093619Y-90709619D01*
X177093619Y-90709619D02*
X177188857Y-90709619D01*
X177188857Y-90709619D02*
X177331714Y-90757238D01*
X177331714Y-90757238D02*
X177379333Y-90804857D01*
X178236476Y-90709619D02*
X178046000Y-90709619D01*
X178046000Y-90709619D02*
X177950762Y-90757238D01*
X177950762Y-90757238D02*
X177903143Y-90804857D01*
X177903143Y-90804857D02*
X177807905Y-90947714D01*
X177807905Y-90947714D02*
X177760286Y-91138190D01*
X177760286Y-91138190D02*
X177760286Y-91519142D01*
X177760286Y-91519142D02*
X177807905Y-91614380D01*
X177807905Y-91614380D02*
X177855524Y-91662000D01*
X177855524Y-91662000D02*
X177950762Y-91709619D01*
X177950762Y-91709619D02*
X178141238Y-91709619D01*
X178141238Y-91709619D02*
X178236476Y-91662000D01*
X178236476Y-91662000D02*
X178284095Y-91614380D01*
X178284095Y-91614380D02*
X178331714Y-91519142D01*
X178331714Y-91519142D02*
X178331714Y-91281047D01*
X178331714Y-91281047D02*
X178284095Y-91185809D01*
X178284095Y-91185809D02*
X178236476Y-91138190D01*
X178236476Y-91138190D02*
X178141238Y-91090571D01*
X178141238Y-91090571D02*
X177950762Y-91090571D01*
X177950762Y-91090571D02*
X177855524Y-91138190D01*
X177855524Y-91138190D02*
X177807905Y-91185809D01*
X177807905Y-91185809D02*
X177760286Y-91281047D01*
X181760833Y-96823880D02*
X181713214Y-96871500D01*
X181713214Y-96871500D02*
X181570357Y-96919119D01*
X181570357Y-96919119D02*
X181475119Y-96919119D01*
X181475119Y-96919119D02*
X181332262Y-96871500D01*
X181332262Y-96871500D02*
X181237024Y-96776261D01*
X181237024Y-96776261D02*
X181189405Y-96681023D01*
X181189405Y-96681023D02*
X181141786Y-96490547D01*
X181141786Y-96490547D02*
X181141786Y-96347690D01*
X181141786Y-96347690D02*
X181189405Y-96157214D01*
X181189405Y-96157214D02*
X181237024Y-96061976D01*
X181237024Y-96061976D02*
X181332262Y-95966738D01*
X181332262Y-95966738D02*
X181475119Y-95919119D01*
X181475119Y-95919119D02*
X181570357Y-95919119D01*
X181570357Y-95919119D02*
X181713214Y-95966738D01*
X181713214Y-95966738D02*
X181760833Y-96014357D01*
X182094167Y-95919119D02*
X182760833Y-95919119D01*
X182760833Y-95919119D02*
X182332262Y-96919119D01*
X177379333Y-96823880D02*
X177331714Y-96871500D01*
X177331714Y-96871500D02*
X177188857Y-96919119D01*
X177188857Y-96919119D02*
X177093619Y-96919119D01*
X177093619Y-96919119D02*
X176950762Y-96871500D01*
X176950762Y-96871500D02*
X176855524Y-96776261D01*
X176855524Y-96776261D02*
X176807905Y-96681023D01*
X176807905Y-96681023D02*
X176760286Y-96490547D01*
X176760286Y-96490547D02*
X176760286Y-96347690D01*
X176760286Y-96347690D02*
X176807905Y-96157214D01*
X176807905Y-96157214D02*
X176855524Y-96061976D01*
X176855524Y-96061976D02*
X176950762Y-95966738D01*
X176950762Y-95966738D02*
X177093619Y-95919119D01*
X177093619Y-95919119D02*
X177188857Y-95919119D01*
X177188857Y-95919119D02*
X177331714Y-95966738D01*
X177331714Y-95966738D02*
X177379333Y-96014357D01*
X177950762Y-96347690D02*
X177855524Y-96300071D01*
X177855524Y-96300071D02*
X177807905Y-96252452D01*
X177807905Y-96252452D02*
X177760286Y-96157214D01*
X177760286Y-96157214D02*
X177760286Y-96109595D01*
X177760286Y-96109595D02*
X177807905Y-96014357D01*
X177807905Y-96014357D02*
X177855524Y-95966738D01*
X177855524Y-95966738D02*
X177950762Y-95919119D01*
X177950762Y-95919119D02*
X178141238Y-95919119D01*
X178141238Y-95919119D02*
X178236476Y-95966738D01*
X178236476Y-95966738D02*
X178284095Y-96014357D01*
X178284095Y-96014357D02*
X178331714Y-96109595D01*
X178331714Y-96109595D02*
X178331714Y-96157214D01*
X178331714Y-96157214D02*
X178284095Y-96252452D01*
X178284095Y-96252452D02*
X178236476Y-96300071D01*
X178236476Y-96300071D02*
X178141238Y-96347690D01*
X178141238Y-96347690D02*
X177950762Y-96347690D01*
X177950762Y-96347690D02*
X177855524Y-96395309D01*
X177855524Y-96395309D02*
X177807905Y-96442928D01*
X177807905Y-96442928D02*
X177760286Y-96538166D01*
X177760286Y-96538166D02*
X177760286Y-96728642D01*
X177760286Y-96728642D02*
X177807905Y-96823880D01*
X177807905Y-96823880D02*
X177855524Y-96871500D01*
X177855524Y-96871500D02*
X177950762Y-96919119D01*
X177950762Y-96919119D02*
X178141238Y-96919119D01*
X178141238Y-96919119D02*
X178236476Y-96871500D01*
X178236476Y-96871500D02*
X178284095Y-96823880D01*
X178284095Y-96823880D02*
X178331714Y-96728642D01*
X178331714Y-96728642D02*
X178331714Y-96538166D01*
X178331714Y-96538166D02*
X178284095Y-96442928D01*
X178284095Y-96442928D02*
X178236476Y-96395309D01*
X178236476Y-96395309D02*
X178141238Y-96347690D01*
X170648333Y-105142380D02*
X170600714Y-105190000D01*
X170600714Y-105190000D02*
X170457857Y-105237619D01*
X170457857Y-105237619D02*
X170362619Y-105237619D01*
X170362619Y-105237619D02*
X170219762Y-105190000D01*
X170219762Y-105190000D02*
X170124524Y-105094761D01*
X170124524Y-105094761D02*
X170076905Y-104999523D01*
X170076905Y-104999523D02*
X170029286Y-104809047D01*
X170029286Y-104809047D02*
X170029286Y-104666190D01*
X170029286Y-104666190D02*
X170076905Y-104475714D01*
X170076905Y-104475714D02*
X170124524Y-104380476D01*
X170124524Y-104380476D02*
X170219762Y-104285238D01*
X170219762Y-104285238D02*
X170362619Y-104237619D01*
X170362619Y-104237619D02*
X170457857Y-104237619D01*
X170457857Y-104237619D02*
X170600714Y-104285238D01*
X170600714Y-104285238D02*
X170648333Y-104332857D01*
X171124524Y-105237619D02*
X171315000Y-105237619D01*
X171315000Y-105237619D02*
X171410238Y-105190000D01*
X171410238Y-105190000D02*
X171457857Y-105142380D01*
X171457857Y-105142380D02*
X171553095Y-104999523D01*
X171553095Y-104999523D02*
X171600714Y-104809047D01*
X171600714Y-104809047D02*
X171600714Y-104428095D01*
X171600714Y-104428095D02*
X171553095Y-104332857D01*
X171553095Y-104332857D02*
X171505476Y-104285238D01*
X171505476Y-104285238D02*
X171410238Y-104237619D01*
X171410238Y-104237619D02*
X171219762Y-104237619D01*
X171219762Y-104237619D02*
X171124524Y-104285238D01*
X171124524Y-104285238D02*
X171076905Y-104332857D01*
X171076905Y-104332857D02*
X171029286Y-104428095D01*
X171029286Y-104428095D02*
X171029286Y-104666190D01*
X171029286Y-104666190D02*
X171076905Y-104761428D01*
X171076905Y-104761428D02*
X171124524Y-104809047D01*
X171124524Y-104809047D02*
X171219762Y-104856666D01*
X171219762Y-104856666D02*
X171410238Y-104856666D01*
X171410238Y-104856666D02*
X171505476Y-104809047D01*
X171505476Y-104809047D02*
X171553095Y-104761428D01*
X171553095Y-104761428D02*
X171600714Y-104666190D01*
X181102095Y-90902619D02*
X181102095Y-91712142D01*
X181102095Y-91712142D02*
X181149714Y-91807380D01*
X181149714Y-91807380D02*
X181197333Y-91855000D01*
X181197333Y-91855000D02*
X181292571Y-91902619D01*
X181292571Y-91902619D02*
X181483047Y-91902619D01*
X181483047Y-91902619D02*
X181578285Y-91855000D01*
X181578285Y-91855000D02*
X181625904Y-91807380D01*
X181625904Y-91807380D02*
X181673523Y-91712142D01*
X181673523Y-91712142D02*
X181673523Y-90902619D01*
X182292571Y-91331190D02*
X182197333Y-91283571D01*
X182197333Y-91283571D02*
X182149714Y-91235952D01*
X182149714Y-91235952D02*
X182102095Y-91140714D01*
X182102095Y-91140714D02*
X182102095Y-91093095D01*
X182102095Y-91093095D02*
X182149714Y-90997857D01*
X182149714Y-90997857D02*
X182197333Y-90950238D01*
X182197333Y-90950238D02*
X182292571Y-90902619D01*
X182292571Y-90902619D02*
X182483047Y-90902619D01*
X182483047Y-90902619D02*
X182578285Y-90950238D01*
X182578285Y-90950238D02*
X182625904Y-90997857D01*
X182625904Y-90997857D02*
X182673523Y-91093095D01*
X182673523Y-91093095D02*
X182673523Y-91140714D01*
X182673523Y-91140714D02*
X182625904Y-91235952D01*
X182625904Y-91235952D02*
X182578285Y-91283571D01*
X182578285Y-91283571D02*
X182483047Y-91331190D01*
X182483047Y-91331190D02*
X182292571Y-91331190D01*
X182292571Y-91331190D02*
X182197333Y-91378809D01*
X182197333Y-91378809D02*
X182149714Y-91426428D01*
X182149714Y-91426428D02*
X182102095Y-91521666D01*
X182102095Y-91521666D02*
X182102095Y-91712142D01*
X182102095Y-91712142D02*
X182149714Y-91807380D01*
X182149714Y-91807380D02*
X182197333Y-91855000D01*
X182197333Y-91855000D02*
X182292571Y-91902619D01*
X182292571Y-91902619D02*
X182483047Y-91902619D01*
X182483047Y-91902619D02*
X182578285Y-91855000D01*
X182578285Y-91855000D02*
X182625904Y-91807380D01*
X182625904Y-91807380D02*
X182673523Y-91712142D01*
X182673523Y-91712142D02*
X182673523Y-91521666D01*
X182673523Y-91521666D02*
X182625904Y-91426428D01*
X182625904Y-91426428D02*
X182578285Y-91378809D01*
X182578285Y-91378809D02*
X182483047Y-91331190D01*
X157040342Y-99376580D02*
X156992723Y-99424200D01*
X156992723Y-99424200D02*
X156849866Y-99471819D01*
X156849866Y-99471819D02*
X156754628Y-99471819D01*
X156754628Y-99471819D02*
X156611771Y-99424200D01*
X156611771Y-99424200D02*
X156516533Y-99328961D01*
X156516533Y-99328961D02*
X156468914Y-99233723D01*
X156468914Y-99233723D02*
X156421295Y-99043247D01*
X156421295Y-99043247D02*
X156421295Y-98900390D01*
X156421295Y-98900390D02*
X156468914Y-98709914D01*
X156468914Y-98709914D02*
X156516533Y-98614676D01*
X156516533Y-98614676D02*
X156611771Y-98519438D01*
X156611771Y-98519438D02*
X156754628Y-98471819D01*
X156754628Y-98471819D02*
X156849866Y-98471819D01*
X156849866Y-98471819D02*
X156992723Y-98519438D01*
X156992723Y-98519438D02*
X157040342Y-98567057D01*
X157992723Y-99471819D02*
X157421295Y-99471819D01*
X157707009Y-99471819D02*
X157707009Y-98471819D01*
X157707009Y-98471819D02*
X157611771Y-98614676D01*
X157611771Y-98614676D02*
X157516533Y-98709914D01*
X157516533Y-98709914D02*
X157421295Y-98757533D01*
X158611771Y-98471819D02*
X158707009Y-98471819D01*
X158707009Y-98471819D02*
X158802247Y-98519438D01*
X158802247Y-98519438D02*
X158849866Y-98567057D01*
X158849866Y-98567057D02*
X158897485Y-98662295D01*
X158897485Y-98662295D02*
X158945104Y-98852771D01*
X158945104Y-98852771D02*
X158945104Y-99090866D01*
X158945104Y-99090866D02*
X158897485Y-99281342D01*
X158897485Y-99281342D02*
X158849866Y-99376580D01*
X158849866Y-99376580D02*
X158802247Y-99424200D01*
X158802247Y-99424200D02*
X158707009Y-99471819D01*
X158707009Y-99471819D02*
X158611771Y-99471819D01*
X158611771Y-99471819D02*
X158516533Y-99424200D01*
X158516533Y-99424200D02*
X158468914Y-99376580D01*
X158468914Y-99376580D02*
X158421295Y-99281342D01*
X158421295Y-99281342D02*
X158373676Y-99090866D01*
X158373676Y-99090866D02*
X158373676Y-98852771D01*
X158373676Y-98852771D02*
X158421295Y-98662295D01*
X158421295Y-98662295D02*
X158468914Y-98567057D01*
X158468914Y-98567057D02*
X158516533Y-98519438D01*
X158516533Y-98519438D02*
X158611771Y-98471819D01*
X156003666Y-84082719D02*
X156003666Y-84797004D01*
X156003666Y-84797004D02*
X155956047Y-84939861D01*
X155956047Y-84939861D02*
X155860809Y-85035100D01*
X155860809Y-85035100D02*
X155717952Y-85082719D01*
X155717952Y-85082719D02*
X155622714Y-85082719D01*
X157003666Y-85082719D02*
X156432238Y-85082719D01*
X156717952Y-85082719D02*
X156717952Y-84082719D01*
X156717952Y-84082719D02*
X156622714Y-84225576D01*
X156622714Y-84225576D02*
X156527476Y-84320814D01*
X156527476Y-84320814D02*
X156432238Y-84368433D01*
X168576666Y-110714619D02*
X168576666Y-111428904D01*
X168576666Y-111428904D02*
X168529047Y-111571761D01*
X168529047Y-111571761D02*
X168433809Y-111667000D01*
X168433809Y-111667000D02*
X168290952Y-111714619D01*
X168290952Y-111714619D02*
X168195714Y-111714619D01*
X169005238Y-110809857D02*
X169052857Y-110762238D01*
X169052857Y-110762238D02*
X169148095Y-110714619D01*
X169148095Y-110714619D02*
X169386190Y-110714619D01*
X169386190Y-110714619D02*
X169481428Y-110762238D01*
X169481428Y-110762238D02*
X169529047Y-110809857D01*
X169529047Y-110809857D02*
X169576666Y-110905095D01*
X169576666Y-110905095D02*
X169576666Y-111000333D01*
X169576666Y-111000333D02*
X169529047Y-111143190D01*
X169529047Y-111143190D02*
X168957619Y-111714619D01*
X168957619Y-111714619D02*
X169576666Y-111714619D01*
X157356666Y-107412619D02*
X157356666Y-108126904D01*
X157356666Y-108126904D02*
X157309047Y-108269761D01*
X157309047Y-108269761D02*
X157213809Y-108365000D01*
X157213809Y-108365000D02*
X157070952Y-108412619D01*
X157070952Y-108412619D02*
X156975714Y-108412619D01*
X158261428Y-107745952D02*
X158261428Y-108412619D01*
X158023333Y-107365000D02*
X157785238Y-108079285D01*
X157785238Y-108079285D02*
X158404285Y-108079285D01*
X153204942Y-85177980D02*
X153157323Y-85225600D01*
X153157323Y-85225600D02*
X153014466Y-85273219D01*
X153014466Y-85273219D02*
X152919228Y-85273219D01*
X152919228Y-85273219D02*
X152776371Y-85225600D01*
X152776371Y-85225600D02*
X152681133Y-85130361D01*
X152681133Y-85130361D02*
X152633514Y-85035123D01*
X152633514Y-85035123D02*
X152585895Y-84844647D01*
X152585895Y-84844647D02*
X152585895Y-84701790D01*
X152585895Y-84701790D02*
X152633514Y-84511314D01*
X152633514Y-84511314D02*
X152681133Y-84416076D01*
X152681133Y-84416076D02*
X152776371Y-84320838D01*
X152776371Y-84320838D02*
X152919228Y-84273219D01*
X152919228Y-84273219D02*
X153014466Y-84273219D01*
X153014466Y-84273219D02*
X153157323Y-84320838D01*
X153157323Y-84320838D02*
X153204942Y-84368457D01*
X154157323Y-85273219D02*
X153585895Y-85273219D01*
X153871609Y-85273219D02*
X153871609Y-84273219D01*
X153871609Y-84273219D02*
X153776371Y-84416076D01*
X153776371Y-84416076D02*
X153681133Y-84511314D01*
X153681133Y-84511314D02*
X153585895Y-84558933D01*
X155109704Y-85273219D02*
X154538276Y-85273219D01*
X154823990Y-85273219D02*
X154823990Y-84273219D01*
X154823990Y-84273219D02*
X154728752Y-84416076D01*
X154728752Y-84416076D02*
X154633514Y-84511314D01*
X154633514Y-84511314D02*
X154538276Y-84558933D01*
X148960599Y-100145833D02*
X148727266Y-99812500D01*
X148560599Y-100145833D02*
X148560599Y-99445833D01*
X148560599Y-99445833D02*
X148827266Y-99445833D01*
X148827266Y-99445833D02*
X148893933Y-99479166D01*
X148893933Y-99479166D02*
X148927266Y-99512500D01*
X148927266Y-99512500D02*
X148960599Y-99579166D01*
X148960599Y-99579166D02*
X148960599Y-99679166D01*
X148960599Y-99679166D02*
X148927266Y-99745833D01*
X148927266Y-99745833D02*
X148893933Y-99779166D01*
X148893933Y-99779166D02*
X148827266Y-99812500D01*
X148827266Y-99812500D02*
X148560599Y-99812500D01*
X149627266Y-100145833D02*
X149227266Y-100145833D01*
X149427266Y-100145833D02*
X149427266Y-99445833D01*
X149427266Y-99445833D02*
X149360599Y-99545833D01*
X149360599Y-99545833D02*
X149293933Y-99612500D01*
X149293933Y-99612500D02*
X149227266Y-99645833D01*
X149893933Y-99512500D02*
X149927266Y-99479166D01*
X149927266Y-99479166D02*
X149993933Y-99445833D01*
X149993933Y-99445833D02*
X150160600Y-99445833D01*
X150160600Y-99445833D02*
X150227266Y-99479166D01*
X150227266Y-99479166D02*
X150260600Y-99512500D01*
X150260600Y-99512500D02*
X150293933Y-99579166D01*
X150293933Y-99579166D02*
X150293933Y-99645833D01*
X150293933Y-99645833D02*
X150260600Y-99745833D01*
X150260600Y-99745833D02*
X149860600Y-100145833D01*
X149860600Y-100145833D02*
X150293933Y-100145833D01*
X145682600Y-85016966D02*
X145649267Y-85050300D01*
X145649267Y-85050300D02*
X145549267Y-85083633D01*
X145549267Y-85083633D02*
X145482600Y-85083633D01*
X145482600Y-85083633D02*
X145382600Y-85050300D01*
X145382600Y-85050300D02*
X145315934Y-84983633D01*
X145315934Y-84983633D02*
X145282600Y-84916966D01*
X145282600Y-84916966D02*
X145249267Y-84783633D01*
X145249267Y-84783633D02*
X145249267Y-84683633D01*
X145249267Y-84683633D02*
X145282600Y-84550300D01*
X145282600Y-84550300D02*
X145315934Y-84483633D01*
X145315934Y-84483633D02*
X145382600Y-84416966D01*
X145382600Y-84416966D02*
X145482600Y-84383633D01*
X145482600Y-84383633D02*
X145549267Y-84383633D01*
X145549267Y-84383633D02*
X145649267Y-84416966D01*
X145649267Y-84416966D02*
X145682600Y-84450300D01*
X146115934Y-84383633D02*
X146249267Y-84383633D01*
X146249267Y-84383633D02*
X146315934Y-84416966D01*
X146315934Y-84416966D02*
X146382600Y-84483633D01*
X146382600Y-84483633D02*
X146415934Y-84616966D01*
X146415934Y-84616966D02*
X146415934Y-84850300D01*
X146415934Y-84850300D02*
X146382600Y-84983633D01*
X146382600Y-84983633D02*
X146315934Y-85050300D01*
X146315934Y-85050300D02*
X146249267Y-85083633D01*
X146249267Y-85083633D02*
X146115934Y-85083633D01*
X146115934Y-85083633D02*
X146049267Y-85050300D01*
X146049267Y-85050300D02*
X145982600Y-84983633D01*
X145982600Y-84983633D02*
X145949267Y-84850300D01*
X145949267Y-84850300D02*
X145949267Y-84616966D01*
X145949267Y-84616966D02*
X145982600Y-84483633D01*
X145982600Y-84483633D02*
X146049267Y-84416966D01*
X146049267Y-84416966D02*
X146115934Y-84383633D01*
X146715933Y-85083633D02*
X146715933Y-84383633D01*
X146715933Y-84383633D02*
X147115933Y-85083633D01*
X147115933Y-85083633D02*
X147115933Y-84383633D01*
X147815933Y-85083633D02*
X147415933Y-85083633D01*
X147615933Y-85083633D02*
X147615933Y-84383633D01*
X147615933Y-84383633D02*
X147549266Y-84483633D01*
X147549266Y-84483633D02*
X147482600Y-84550300D01*
X147482600Y-84550300D02*
X147415933Y-84583633D01*
X171029333Y-90251619D02*
X170696000Y-89775428D01*
X170457905Y-90251619D02*
X170457905Y-89251619D01*
X170457905Y-89251619D02*
X170838857Y-89251619D01*
X170838857Y-89251619D02*
X170934095Y-89299238D01*
X170934095Y-89299238D02*
X170981714Y-89346857D01*
X170981714Y-89346857D02*
X171029333Y-89442095D01*
X171029333Y-89442095D02*
X171029333Y-89584952D01*
X171029333Y-89584952D02*
X170981714Y-89680190D01*
X170981714Y-89680190D02*
X170934095Y-89727809D01*
X170934095Y-89727809D02*
X170838857Y-89775428D01*
X170838857Y-89775428D02*
X170457905Y-89775428D01*
X171410286Y-89346857D02*
X171457905Y-89299238D01*
X171457905Y-89299238D02*
X171553143Y-89251619D01*
X171553143Y-89251619D02*
X171791238Y-89251619D01*
X171791238Y-89251619D02*
X171886476Y-89299238D01*
X171886476Y-89299238D02*
X171934095Y-89346857D01*
X171934095Y-89346857D02*
X171981714Y-89442095D01*
X171981714Y-89442095D02*
X171981714Y-89537333D01*
X171981714Y-89537333D02*
X171934095Y-89680190D01*
X171934095Y-89680190D02*
X171362667Y-90251619D01*
X171362667Y-90251619D02*
X171981714Y-90251619D01*
X164871856Y-94834964D02*
X164621856Y-94477821D01*
X164443285Y-94834964D02*
X164443285Y-94084964D01*
X164443285Y-94084964D02*
X164728999Y-94084964D01*
X164728999Y-94084964D02*
X164800428Y-94120678D01*
X164800428Y-94120678D02*
X164836142Y-94156392D01*
X164836142Y-94156392D02*
X164871856Y-94227821D01*
X164871856Y-94227821D02*
X164871856Y-94334964D01*
X164871856Y-94334964D02*
X164836142Y-94406392D01*
X164836142Y-94406392D02*
X164800428Y-94442107D01*
X164800428Y-94442107D02*
X164728999Y-94477821D01*
X164728999Y-94477821D02*
X164443285Y-94477821D01*
X165586142Y-94834964D02*
X165157571Y-94834964D01*
X165371856Y-94834964D02*
X165371856Y-94084964D01*
X165371856Y-94084964D02*
X165300428Y-94192107D01*
X165300428Y-94192107D02*
X165228999Y-94263535D01*
X165228999Y-94263535D02*
X165157571Y-94299250D01*
X165836142Y-94084964D02*
X166300428Y-94084964D01*
X166300428Y-94084964D02*
X166050428Y-94370678D01*
X166050428Y-94370678D02*
X166157571Y-94370678D01*
X166157571Y-94370678D02*
X166229000Y-94406392D01*
X166229000Y-94406392D02*
X166264714Y-94442107D01*
X166264714Y-94442107D02*
X166300428Y-94513535D01*
X166300428Y-94513535D02*
X166300428Y-94692107D01*
X166300428Y-94692107D02*
X166264714Y-94763535D01*
X166264714Y-94763535D02*
X166229000Y-94799250D01*
X166229000Y-94799250D02*
X166157571Y-94834964D01*
X166157571Y-94834964D02*
X165943285Y-94834964D01*
X165943285Y-94834964D02*
X165871857Y-94799250D01*
X165871857Y-94799250D02*
X165836142Y-94763535D01*
X164839714Y-92826095D02*
X164573047Y-92445142D01*
X164382571Y-92826095D02*
X164382571Y-92026095D01*
X164382571Y-92026095D02*
X164687333Y-92026095D01*
X164687333Y-92026095D02*
X164763523Y-92064190D01*
X164763523Y-92064190D02*
X164801618Y-92102285D01*
X164801618Y-92102285D02*
X164839714Y-92178476D01*
X164839714Y-92178476D02*
X164839714Y-92292761D01*
X164839714Y-92292761D02*
X164801618Y-92368952D01*
X164801618Y-92368952D02*
X164763523Y-92407047D01*
X164763523Y-92407047D02*
X164687333Y-92445142D01*
X164687333Y-92445142D02*
X164382571Y-92445142D01*
X165601618Y-92826095D02*
X165144475Y-92826095D01*
X165373047Y-92826095D02*
X165373047Y-92026095D01*
X165373047Y-92026095D02*
X165296856Y-92140380D01*
X165296856Y-92140380D02*
X165220666Y-92216571D01*
X165220666Y-92216571D02*
X165144475Y-92254666D01*
X166287333Y-92292761D02*
X166287333Y-92826095D01*
X166096857Y-91988000D02*
X165906380Y-92559428D01*
X165906380Y-92559428D02*
X166401619Y-92559428D01*
X142225533Y-103973780D02*
X142177914Y-104021400D01*
X142177914Y-104021400D02*
X142035057Y-104069019D01*
X142035057Y-104069019D02*
X141939819Y-104069019D01*
X141939819Y-104069019D02*
X141796962Y-104021400D01*
X141796962Y-104021400D02*
X141701724Y-103926161D01*
X141701724Y-103926161D02*
X141654105Y-103830923D01*
X141654105Y-103830923D02*
X141606486Y-103640447D01*
X141606486Y-103640447D02*
X141606486Y-103497590D01*
X141606486Y-103497590D02*
X141654105Y-103307114D01*
X141654105Y-103307114D02*
X141701724Y-103211876D01*
X141701724Y-103211876D02*
X141796962Y-103116638D01*
X141796962Y-103116638D02*
X141939819Y-103069019D01*
X141939819Y-103069019D02*
X142035057Y-103069019D01*
X142035057Y-103069019D02*
X142177914Y-103116638D01*
X142177914Y-103116638D02*
X142225533Y-103164257D01*
X143177914Y-104069019D02*
X142606486Y-104069019D01*
X142892200Y-104069019D02*
X142892200Y-103069019D01*
X142892200Y-103069019D02*
X142796962Y-103211876D01*
X142796962Y-103211876D02*
X142701724Y-103307114D01*
X142701724Y-103307114D02*
X142606486Y-103354733D01*
X147098599Y-103894966D02*
X147065266Y-103928300D01*
X147065266Y-103928300D02*
X146965266Y-103961633D01*
X146965266Y-103961633D02*
X146898599Y-103961633D01*
X146898599Y-103961633D02*
X146798599Y-103928300D01*
X146798599Y-103928300D02*
X146731933Y-103861633D01*
X146731933Y-103861633D02*
X146698599Y-103794966D01*
X146698599Y-103794966D02*
X146665266Y-103661633D01*
X146665266Y-103661633D02*
X146665266Y-103561633D01*
X146665266Y-103561633D02*
X146698599Y-103428300D01*
X146698599Y-103428300D02*
X146731933Y-103361633D01*
X146731933Y-103361633D02*
X146798599Y-103294966D01*
X146798599Y-103294966D02*
X146898599Y-103261633D01*
X146898599Y-103261633D02*
X146965266Y-103261633D01*
X146965266Y-103261633D02*
X147065266Y-103294966D01*
X147065266Y-103294966D02*
X147098599Y-103328300D01*
X147765266Y-103961633D02*
X147365266Y-103961633D01*
X147565266Y-103961633D02*
X147565266Y-103261633D01*
X147565266Y-103261633D02*
X147498599Y-103361633D01*
X147498599Y-103361633D02*
X147431933Y-103428300D01*
X147431933Y-103428300D02*
X147365266Y-103461633D01*
X148031933Y-103328300D02*
X148065266Y-103294966D01*
X148065266Y-103294966D02*
X148131933Y-103261633D01*
X148131933Y-103261633D02*
X148298600Y-103261633D01*
X148298600Y-103261633D02*
X148365266Y-103294966D01*
X148365266Y-103294966D02*
X148398600Y-103328300D01*
X148398600Y-103328300D02*
X148431933Y-103394966D01*
X148431933Y-103394966D02*
X148431933Y-103461633D01*
X148431933Y-103461633D02*
X148398600Y-103561633D01*
X148398600Y-103561633D02*
X147998600Y-103961633D01*
X147998600Y-103961633D02*
X148431933Y-103961633D01*
X144431599Y-103866566D02*
X144398266Y-103899900D01*
X144398266Y-103899900D02*
X144298266Y-103933233D01*
X144298266Y-103933233D02*
X144231599Y-103933233D01*
X144231599Y-103933233D02*
X144131599Y-103899900D01*
X144131599Y-103899900D02*
X144064933Y-103833233D01*
X144064933Y-103833233D02*
X144031599Y-103766566D01*
X144031599Y-103766566D02*
X143998266Y-103633233D01*
X143998266Y-103633233D02*
X143998266Y-103533233D01*
X143998266Y-103533233D02*
X144031599Y-103399900D01*
X144031599Y-103399900D02*
X144064933Y-103333233D01*
X144064933Y-103333233D02*
X144131599Y-103266566D01*
X144131599Y-103266566D02*
X144231599Y-103233233D01*
X144231599Y-103233233D02*
X144298266Y-103233233D01*
X144298266Y-103233233D02*
X144398266Y-103266566D01*
X144398266Y-103266566D02*
X144431599Y-103299900D01*
X145098266Y-103933233D02*
X144698266Y-103933233D01*
X144898266Y-103933233D02*
X144898266Y-103233233D01*
X144898266Y-103233233D02*
X144831599Y-103333233D01*
X144831599Y-103333233D02*
X144764933Y-103399900D01*
X144764933Y-103399900D02*
X144698266Y-103433233D01*
X145331600Y-103233233D02*
X145764933Y-103233233D01*
X145764933Y-103233233D02*
X145531600Y-103499900D01*
X145531600Y-103499900D02*
X145631600Y-103499900D01*
X145631600Y-103499900D02*
X145698266Y-103533233D01*
X145698266Y-103533233D02*
X145731600Y-103566566D01*
X145731600Y-103566566D02*
X145764933Y-103633233D01*
X145764933Y-103633233D02*
X145764933Y-103799900D01*
X145764933Y-103799900D02*
X145731600Y-103866566D01*
X145731600Y-103866566D02*
X145698266Y-103899900D01*
X145698266Y-103899900D02*
X145631600Y-103933233D01*
X145631600Y-103933233D02*
X145431600Y-103933233D01*
X145431600Y-103933233D02*
X145364933Y-103899900D01*
X145364933Y-103899900D02*
X145331600Y-103866566D01*
X149352095Y-107107819D02*
X149352095Y-107917342D01*
X149352095Y-107917342D02*
X149399714Y-108012580D01*
X149399714Y-108012580D02*
X149447333Y-108060200D01*
X149447333Y-108060200D02*
X149542571Y-108107819D01*
X149542571Y-108107819D02*
X149733047Y-108107819D01*
X149733047Y-108107819D02*
X149828285Y-108060200D01*
X149828285Y-108060200D02*
X149875904Y-108012580D01*
X149875904Y-108012580D02*
X149923523Y-107917342D01*
X149923523Y-107917342D02*
X149923523Y-107107819D01*
X150304476Y-107107819D02*
X150971142Y-107107819D01*
X150971142Y-107107819D02*
X150542571Y-108107819D01*
X159644419Y-104381794D02*
X158644419Y-104381794D01*
X158644419Y-104381794D02*
X158644419Y-104143699D01*
X158644419Y-104143699D02*
X158692038Y-104000842D01*
X158692038Y-104000842D02*
X158787276Y-103905604D01*
X158787276Y-103905604D02*
X158882514Y-103857985D01*
X158882514Y-103857985D02*
X159072990Y-103810366D01*
X159072990Y-103810366D02*
X159215847Y-103810366D01*
X159215847Y-103810366D02*
X159406323Y-103857985D01*
X159406323Y-103857985D02*
X159501561Y-103905604D01*
X159501561Y-103905604D02*
X159596800Y-104000842D01*
X159596800Y-104000842D02*
X159644419Y-104143699D01*
X159644419Y-104143699D02*
X159644419Y-104381794D01*
X159644419Y-102857985D02*
X159644419Y-103429413D01*
X159644419Y-103143699D02*
X158644419Y-103143699D01*
X158644419Y-103143699D02*
X158787276Y-103238937D01*
X158787276Y-103238937D02*
X158882514Y-103334175D01*
X158882514Y-103334175D02*
X158930133Y-103429413D01*
X173520195Y-91982119D02*
X173520195Y-92791642D01*
X173520195Y-92791642D02*
X173567814Y-92886880D01*
X173567814Y-92886880D02*
X173615433Y-92934500D01*
X173615433Y-92934500D02*
X173710671Y-92982119D01*
X173710671Y-92982119D02*
X173901147Y-92982119D01*
X173901147Y-92982119D02*
X173996385Y-92934500D01*
X173996385Y-92934500D02*
X174044004Y-92886880D01*
X174044004Y-92886880D02*
X174091623Y-92791642D01*
X174091623Y-92791642D02*
X174091623Y-91982119D01*
X175091623Y-92982119D02*
X174520195Y-92982119D01*
X174805909Y-92982119D02*
X174805909Y-91982119D01*
X174805909Y-91982119D02*
X174710671Y-92124976D01*
X174710671Y-92124976D02*
X174615433Y-92220214D01*
X174615433Y-92220214D02*
X174520195Y-92267833D01*
X178041395Y-99170319D02*
X178041395Y-99979842D01*
X178041395Y-99979842D02*
X178089014Y-100075080D01*
X178089014Y-100075080D02*
X178136633Y-100122700D01*
X178136633Y-100122700D02*
X178231871Y-100170319D01*
X178231871Y-100170319D02*
X178422347Y-100170319D01*
X178422347Y-100170319D02*
X178517585Y-100122700D01*
X178517585Y-100122700D02*
X178565204Y-100075080D01*
X178565204Y-100075080D02*
X178612823Y-99979842D01*
X178612823Y-99979842D02*
X178612823Y-99170319D01*
X179041395Y-99265557D02*
X179089014Y-99217938D01*
X179089014Y-99217938D02*
X179184252Y-99170319D01*
X179184252Y-99170319D02*
X179422347Y-99170319D01*
X179422347Y-99170319D02*
X179517585Y-99217938D01*
X179517585Y-99217938D02*
X179565204Y-99265557D01*
X179565204Y-99265557D02*
X179612823Y-99360795D01*
X179612823Y-99360795D02*
X179612823Y-99456033D01*
X179612823Y-99456033D02*
X179565204Y-99598890D01*
X179565204Y-99598890D02*
X178993776Y-100170319D01*
X178993776Y-100170319D02*
X179612823Y-100170319D01*
X154381276Y-91238695D02*
X154381276Y-91886314D01*
X154381276Y-91886314D02*
X154419371Y-91962504D01*
X154419371Y-91962504D02*
X154457466Y-92000600D01*
X154457466Y-92000600D02*
X154533657Y-92038695D01*
X154533657Y-92038695D02*
X154686038Y-92038695D01*
X154686038Y-92038695D02*
X154762228Y-92000600D01*
X154762228Y-92000600D02*
X154800323Y-91962504D01*
X154800323Y-91962504D02*
X154838419Y-91886314D01*
X154838419Y-91886314D02*
X154838419Y-91238695D01*
X155143180Y-91238695D02*
X155638418Y-91238695D01*
X155638418Y-91238695D02*
X155371752Y-91543457D01*
X155371752Y-91543457D02*
X155486037Y-91543457D01*
X155486037Y-91543457D02*
X155562228Y-91581552D01*
X155562228Y-91581552D02*
X155600323Y-91619647D01*
X155600323Y-91619647D02*
X155638418Y-91695838D01*
X155638418Y-91695838D02*
X155638418Y-91886314D01*
X155638418Y-91886314D02*
X155600323Y-91962504D01*
X155600323Y-91962504D02*
X155562228Y-92000600D01*
X155562228Y-92000600D02*
X155486037Y-92038695D01*
X155486037Y-92038695D02*
X155257466Y-92038695D01*
X155257466Y-92038695D02*
X155181275Y-92000600D01*
X155181275Y-92000600D02*
X155143180Y-91962504D01*
X154192595Y-94335523D02*
X154840214Y-94335523D01*
X154840214Y-94335523D02*
X154916404Y-94297428D01*
X154916404Y-94297428D02*
X154954500Y-94259333D01*
X154954500Y-94259333D02*
X154992595Y-94183142D01*
X154992595Y-94183142D02*
X154992595Y-94030761D01*
X154992595Y-94030761D02*
X154954500Y-93954571D01*
X154954500Y-93954571D02*
X154916404Y-93916476D01*
X154916404Y-93916476D02*
X154840214Y-93878380D01*
X154840214Y-93878380D02*
X154192595Y-93878380D01*
X154192595Y-93154571D02*
X154192595Y-93306952D01*
X154192595Y-93306952D02*
X154230690Y-93383143D01*
X154230690Y-93383143D02*
X154268785Y-93421238D01*
X154268785Y-93421238D02*
X154383071Y-93497428D01*
X154383071Y-93497428D02*
X154535452Y-93535524D01*
X154535452Y-93535524D02*
X154840214Y-93535524D01*
X154840214Y-93535524D02*
X154916404Y-93497428D01*
X154916404Y-93497428D02*
X154954500Y-93459333D01*
X154954500Y-93459333D02*
X154992595Y-93383143D01*
X154992595Y-93383143D02*
X154992595Y-93230762D01*
X154992595Y-93230762D02*
X154954500Y-93154571D01*
X154954500Y-93154571D02*
X154916404Y-93116476D01*
X154916404Y-93116476D02*
X154840214Y-93078381D01*
X154840214Y-93078381D02*
X154649738Y-93078381D01*
X154649738Y-93078381D02*
X154573547Y-93116476D01*
X154573547Y-93116476D02*
X154535452Y-93154571D01*
X154535452Y-93154571D02*
X154497357Y-93230762D01*
X154497357Y-93230762D02*
X154497357Y-93383143D01*
X154497357Y-93383143D02*
X154535452Y-93459333D01*
X154535452Y-93459333D02*
X154573547Y-93497428D01*
X154573547Y-93497428D02*
X154649738Y-93535524D01*
X157567333Y-89362619D02*
X157234000Y-88886428D01*
X156995905Y-89362619D02*
X156995905Y-88362619D01*
X156995905Y-88362619D02*
X157376857Y-88362619D01*
X157376857Y-88362619D02*
X157472095Y-88410238D01*
X157472095Y-88410238D02*
X157519714Y-88457857D01*
X157519714Y-88457857D02*
X157567333Y-88553095D01*
X157567333Y-88553095D02*
X157567333Y-88695952D01*
X157567333Y-88695952D02*
X157519714Y-88791190D01*
X157519714Y-88791190D02*
X157472095Y-88838809D01*
X157472095Y-88838809D02*
X157376857Y-88886428D01*
X157376857Y-88886428D02*
X156995905Y-88886428D01*
X158424476Y-88362619D02*
X158234000Y-88362619D01*
X158234000Y-88362619D02*
X158138762Y-88410238D01*
X158138762Y-88410238D02*
X158091143Y-88457857D01*
X158091143Y-88457857D02*
X157995905Y-88600714D01*
X157995905Y-88600714D02*
X157948286Y-88791190D01*
X157948286Y-88791190D02*
X157948286Y-89172142D01*
X157948286Y-89172142D02*
X157995905Y-89267380D01*
X157995905Y-89267380D02*
X158043524Y-89315000D01*
X158043524Y-89315000D02*
X158138762Y-89362619D01*
X158138762Y-89362619D02*
X158329238Y-89362619D01*
X158329238Y-89362619D02*
X158424476Y-89315000D01*
X158424476Y-89315000D02*
X158472095Y-89267380D01*
X158472095Y-89267380D02*
X158519714Y-89172142D01*
X158519714Y-89172142D02*
X158519714Y-88934047D01*
X158519714Y-88934047D02*
X158472095Y-88838809D01*
X158472095Y-88838809D02*
X158424476Y-88791190D01*
X158424476Y-88791190D02*
X158329238Y-88743571D01*
X158329238Y-88743571D02*
X158138762Y-88743571D01*
X158138762Y-88743571D02*
X158043524Y-88791190D01*
X158043524Y-88791190D02*
X157995905Y-88838809D01*
X157995905Y-88838809D02*
X157948286Y-88934047D01*
D13*
X182622000Y-109117000D02*
X182622000Y-107617000D01*
X181372000Y-105117000D02*
X176872000Y-105117000D01*
X176872000Y-111617000D02*
X181372000Y-111617000D01*
X175622000Y-107617000D02*
X175622000Y-109117000D01*
X143570000Y-100771000D02*
X142240000Y-100771000D01*
X143570000Y-99441000D02*
X143570000Y-100771000D01*
X143570000Y-98171000D02*
X143570000Y-90491000D01*
X143570000Y-98171000D02*
X140910000Y-98171000D01*
X143570000Y-90491000D02*
X140910000Y-90491000D01*
X140910000Y-98171000D02*
X140910000Y-90491000D01*
X177198500Y-94459500D02*
X177898500Y-94459500D01*
X177898500Y-95659500D02*
X177198500Y-95659500D01*
X150800000Y-97110000D02*
X151800000Y-97110000D01*
X151800000Y-98470000D02*
X150800000Y-98470000D01*
X161696600Y-96170200D02*
X162696600Y-96170200D01*
X162696600Y-97530200D02*
X161696600Y-97530200D01*
X169410000Y-93009000D02*
X168410000Y-93009000D01*
X168410000Y-91649000D02*
X169410000Y-91649000D01*
X157642000Y-94072000D02*
X156942000Y-94072000D01*
X156942000Y-92872000D02*
X157642000Y-92872000D01*
X162722000Y-90850000D02*
X161722000Y-90850000D01*
X161722000Y-89490000D02*
X162722000Y-89490000D01*
X181343500Y-99777000D02*
X182343500Y-99777000D01*
X182343500Y-101137000D02*
X181343500Y-101137000D01*
X146974000Y-98470000D02*
X145974000Y-98470000D01*
X145974000Y-97110000D02*
X146974000Y-97110000D01*
X181343500Y-102571000D02*
X182343500Y-102571000D01*
X182343500Y-103931000D02*
X181343500Y-103931000D01*
X172374000Y-109138000D02*
X171374000Y-109138000D01*
X171374000Y-107778000D02*
X172374000Y-107778000D01*
X172374000Y-111678000D02*
X171374000Y-111678000D01*
X171374000Y-110318000D02*
X172374000Y-110318000D01*
X164668200Y-102755400D02*
X160618200Y-102755400D01*
X164668200Y-102755400D02*
X166943200Y-102755400D01*
X164668200Y-105575400D02*
X162393200Y-105575400D01*
X164668200Y-105575400D02*
X166943200Y-105575400D01*
X164667000Y-102171800D02*
X168717000Y-102171800D01*
X164667000Y-102171800D02*
X162392000Y-102171800D01*
X164667000Y-99351800D02*
X166942000Y-99351800D01*
X164667000Y-99351800D02*
X162392000Y-99351800D01*
X157642000Y-96866000D02*
X156942000Y-96866000D01*
X156942000Y-95666000D02*
X157642000Y-95666000D01*
X151862000Y-98942600D02*
X152562000Y-98942600D01*
X152562000Y-100142600D02*
X151862000Y-100142600D01*
X177898500Y-93056000D02*
X177198500Y-93056000D01*
X177198500Y-91856000D02*
X177898500Y-91856000D01*
X181516500Y-97063000D02*
X182216500Y-97063000D01*
X182216500Y-98263000D02*
X181516500Y-98263000D01*
X177198500Y-97063000D02*
X177898500Y-97063000D01*
X177898500Y-98263000D02*
X177198500Y-98263000D01*
X171354000Y-105318000D02*
X172054000Y-105318000D01*
X172054000Y-106518000D02*
X171354000Y-106518000D01*
X180286500Y-92982000D02*
X180286500Y-95142000D01*
X180286500Y-92982000D02*
X181216500Y-92982000D01*
X183446500Y-92982000D02*
X183446500Y-94442000D01*
X183446500Y-92982000D02*
X182516500Y-92982000D01*
X158048400Y-100904600D02*
X157348400Y-100904600D01*
X157348400Y-99704600D02*
X158048400Y-99704600D01*
X156150000Y-87690000D02*
X156150000Y-86360000D01*
X157480000Y-87690000D02*
X156150000Y-87690000D01*
X158750000Y-87690000D02*
X176590000Y-87690000D01*
X158750000Y-87690000D02*
X158750000Y-85030000D01*
X176590000Y-87690000D02*
X176590000Y-85030000D01*
X158750000Y-85030000D02*
X176590000Y-85030000D01*
X147260000Y-111820000D02*
X147260000Y-110490000D01*
X148590000Y-111820000D02*
X147260000Y-111820000D01*
X149860000Y-111820000D02*
X167700000Y-111820000D01*
X149860000Y-111820000D02*
X149860000Y-109160000D01*
X167700000Y-111820000D02*
X167700000Y-109160000D01*
X149860000Y-109160000D02*
X167700000Y-109160000D01*
X158690000Y-109280000D02*
X158690000Y-107950000D01*
X160020000Y-109280000D02*
X158690000Y-109280000D01*
X161290000Y-109280000D02*
X168970000Y-109280000D01*
X161290000Y-109280000D02*
X161290000Y-106620000D01*
X168970000Y-109280000D02*
X168970000Y-106620000D01*
X161290000Y-106620000D02*
X168970000Y-106620000D01*
X150906000Y-85436000D02*
X150206000Y-85436000D01*
X150206000Y-84236000D02*
X150906000Y-84236000D01*
X145931000Y-99065800D02*
X146931000Y-99065800D01*
X146931000Y-100425800D02*
X145931000Y-100425800D01*
X140958000Y-84062000D02*
X142018000Y-84062000D01*
X140958000Y-85122000D02*
X140958000Y-84062000D01*
X140958000Y-86122000D02*
X140958000Y-90182000D01*
X140958000Y-86122000D02*
X143018000Y-86122000D01*
X140958000Y-90182000D02*
X145078000Y-90182000D01*
X143018000Y-84062000D02*
X145078000Y-84062000D01*
X143018000Y-86122000D02*
X143018000Y-84062000D01*
X145078000Y-84062000D02*
X145078000Y-90182000D01*
X168456000Y-87842000D02*
X173656000Y-87842000D01*
X173656000Y-91482000D02*
X168456000Y-91482000D01*
X161722000Y-93554000D02*
X162722000Y-93554000D01*
X162722000Y-94914000D02*
X161722000Y-94914000D01*
X162722000Y-92882000D02*
X161722000Y-92882000D01*
X161722000Y-91522000D02*
X162722000Y-91522000D01*
X141406000Y-104186064D02*
X141406000Y-102981936D01*
X143226000Y-104186064D02*
X143226000Y-102981936D01*
X146689400Y-104186064D02*
X146689400Y-102981936D01*
X148509400Y-104186064D02*
X148509400Y-102981936D01*
X144073200Y-104186064D02*
X144073200Y-102981936D01*
X145893200Y-104186064D02*
X145893200Y-102981936D01*
X157364000Y-108312000D02*
X151354000Y-108312000D01*
X155114000Y-101492000D02*
X151354000Y-101492000D01*
X151354000Y-108312000D02*
X151354000Y-107052000D01*
X151354000Y-101492000D02*
X151354000Y-102752000D01*
X160156400Y-101469900D02*
X158156400Y-101469900D01*
X160156400Y-101469900D02*
X160156400Y-105369900D01*
X158156400Y-101469900D02*
X158156400Y-105369900D01*
X170724600Y-93312300D02*
X167274600Y-93312300D01*
X170724600Y-93312300D02*
X172674600Y-93312300D01*
X170724600Y-98432300D02*
X168774600Y-98432300D01*
X170724600Y-98432300D02*
X172674600Y-98432300D01*
X174090100Y-99281300D02*
X170640100Y-99281300D01*
X174090100Y-99281300D02*
X176040100Y-99281300D01*
X174090100Y-104401300D02*
X172140100Y-104401300D01*
X174090100Y-104401300D02*
X176040100Y-104401300D01*
D12*
X147712000Y-85764000D02*
X147712000Y-85969000D01*
X147712000Y-85764000D02*
X153212000Y-85764000D01*
X147712000Y-85969000D02*
X145962000Y-85969000D01*
X147712000Y-91274000D02*
X147712000Y-90974000D01*
X147712000Y-91274000D02*
X153212000Y-91274000D01*
X153212000Y-85764000D02*
X153212000Y-86064000D01*
X153212000Y-91274000D02*
X153212000Y-90974000D01*
D13*
X150353800Y-91674000D02*
X146903800Y-91674000D01*
X150353800Y-91674000D02*
X152303800Y-91674000D01*
X150353800Y-96794000D02*
X148403800Y-96794000D01*
X150353800Y-96794000D02*
X152303800Y-96794000D01*
X157821267Y-90680000D02*
X157478733Y-90680000D01*
X157821267Y-89660000D02*
X157478733Y-89660000D01*
M02*
