G04 #@! TF.GenerationSoftware,KiCad,Pcbnew,7.0.1-3b83917a11~172~ubuntu20.04.1*
G04 #@! TF.CreationDate,2023-04-02T21:53:50+02:00*
G04 #@! TF.ProjectId,C64Saver2-addon,43363453-6176-4657-9232-2d6164646f6e,1.4*
G04 #@! TF.SameCoordinates,Original*
G04 #@! TF.FileFunction,Soldermask,Top*
G04 #@! TF.FilePolarity,Negative*
%FSLAX46Y46*%
G04 Gerber Fmt 4.6, Leading zero omitted, Abs format (unit mm)*
G04 Created by KiCad (PCBNEW 7.0.1-3b83917a11~172~ubuntu20.04.1) date 2023-04-02 21:53:50*
%MOMM*%
%LPD*%
G01*
G04 APERTURE LIST*
G04 Aperture macros list*
%AMRoundRect*
0 Rectangle with rounded corners*
0 $1 Rounding radius*
0 $2 $3 $4 $5 $6 $7 $8 $9 X,Y pos of 4 corners*
0 Add a 4 corners polygon primitive as box body*
4,1,4,$2,$3,$4,$5,$6,$7,$8,$9,$2,$3,0*
0 Add four circle primitives for the rounded corners*
1,1,$1+$1,$2,$3*
1,1,$1+$1,$4,$5*
1,1,$1+$1,$6,$7*
1,1,$1+$1,$8,$9*
0 Add four rect primitives between the rounded corners*
20,1,$1+$1,$2,$3,$4,$5,0*
20,1,$1+$1,$4,$5,$6,$7,0*
20,1,$1+$1,$6,$7,$8,$9,0*
20,1,$1+$1,$8,$9,$2,$3,0*%
G04 Aperture macros list end*
%ADD10C,2.200000*%
%ADD11RoundRect,0.100000X0.850000X0.850000X-0.850000X0.850000X-0.850000X-0.850000X0.850000X-0.850000X0*%
%ADD12O,1.900000X1.900000*%
%ADD13RoundRect,0.100000X-0.600000X-0.375000X0.600000X-0.375000X0.600000X0.375000X-0.600000X0.375000X0*%
%ADD14RoundRect,0.100000X-0.600000X-0.450000X0.600000X-0.450000X0.600000X0.450000X-0.600000X0.450000X0*%
%ADD15RoundRect,0.100000X0.600000X0.450000X-0.600000X0.450000X-0.600000X-0.450000X0.600000X-0.450000X0*%
%ADD16RoundRect,0.100000X0.600000X0.375000X-0.600000X0.375000X-0.600000X-0.375000X0.600000X-0.375000X0*%
%ADD17RoundRect,0.237500X-0.662500X-0.137500X0.662500X-0.137500X0.662500X0.137500X-0.662500X0.137500X0*%
%ADD18RoundRect,0.237500X0.662500X0.137500X-0.662500X0.137500X-0.662500X-0.137500X0.662500X-0.137500X0*%
%ADD19RoundRect,0.100000X0.400000X-0.450000X0.400000X0.450000X-0.400000X0.450000X-0.400000X-0.450000X0*%
%ADD20RoundRect,0.100000X0.850000X-0.850000X0.850000X0.850000X-0.850000X0.850000X-0.850000X-0.850000X0*%
%ADD21RoundRect,0.100000X-0.675000X-0.675000X0.675000X-0.675000X0.675000X0.675000X-0.675000X0.675000X0*%
%ADD22O,1.550000X1.550000*%
%ADD23RoundRect,0.100000X-1.350000X-1.600000X1.350000X-1.600000X1.350000X1.600000X-1.350000X1.600000X0*%
%ADD24RoundRect,0.350000X0.625000X-0.375000X0.625000X0.375000X-0.625000X0.375000X-0.625000X-0.375000X0*%
%ADD25RoundRect,0.100000X1.000000X0.750000X-1.000000X0.750000X-1.000000X-0.750000X1.000000X-0.750000X0*%
%ADD26RoundRect,0.100000X1.000000X1.900000X-1.000000X1.900000X-1.000000X-1.900000X1.000000X-1.900000X0*%
%ADD27RoundRect,0.100000X-0.600000X0.450000X-0.600000X-0.450000X0.600000X-0.450000X0.600000X0.450000X0*%
%ADD28RoundRect,0.250000X-0.825000X-0.150000X0.825000X-0.150000X0.825000X0.150000X-0.825000X0.150000X0*%
%ADD29RoundRect,0.100000X-0.850000X-0.325000X0.850000X-0.325000X0.850000X0.325000X-0.850000X0.325000X0*%
%ADD30RoundRect,0.337500X0.287500X0.237500X-0.287500X0.237500X-0.287500X-0.237500X0.287500X-0.237500X0*%
G04 APERTURE END LIST*
D10*
X182372000Y-110617000D03*
X175872000Y-110617000D03*
X182372000Y-106117000D03*
X175872000Y-106117000D03*
D11*
X142240000Y-99441000D03*
D12*
X142240000Y-96901000D03*
X142240000Y-94361000D03*
X142240000Y-91821000D03*
D13*
X176598500Y-95059500D03*
X178498500Y-95059500D03*
D14*
X150200000Y-97790000D03*
X152400000Y-97790000D03*
X161096600Y-96850200D03*
X163296600Y-96850200D03*
D15*
X170010000Y-92329000D03*
X167810000Y-92329000D03*
D16*
X158242000Y-93472000D03*
X156342000Y-93472000D03*
D15*
X163322000Y-90170000D03*
X161122000Y-90170000D03*
D14*
X180743500Y-100457000D03*
X182943500Y-100457000D03*
D15*
X147574000Y-97790000D03*
X145374000Y-97790000D03*
D14*
X180743500Y-103251000D03*
X182943500Y-103251000D03*
D15*
X172974000Y-108458000D03*
X170774000Y-108458000D03*
X172974000Y-110998000D03*
X170774000Y-110998000D03*
D17*
X161418200Y-103530400D03*
X161418200Y-104800400D03*
X167918200Y-104800400D03*
X167918200Y-103530400D03*
D18*
X167917000Y-101396800D03*
X167917000Y-100126800D03*
X161417000Y-100126800D03*
X161417000Y-101396800D03*
D16*
X158242000Y-96266000D03*
X156342000Y-96266000D03*
D13*
X151262000Y-99542600D03*
X153162000Y-99542600D03*
D16*
X178498500Y-92456000D03*
X176598500Y-92456000D03*
D13*
X180916500Y-97663000D03*
X182816500Y-97663000D03*
X176598500Y-97663000D03*
X178498500Y-97663000D03*
X170754000Y-105918000D03*
X172654000Y-105918000D03*
D19*
X180916500Y-94742000D03*
X182816500Y-94742000D03*
X181866500Y-92742000D03*
D16*
X158648400Y-100304600D03*
X156748400Y-100304600D03*
D20*
X157480000Y-86360000D03*
D12*
X160020000Y-86360000D03*
X162560000Y-86360000D03*
X165100000Y-86360000D03*
X167640000Y-86360000D03*
X170180000Y-86360000D03*
X172720000Y-86360000D03*
X175260000Y-86360000D03*
D20*
X148590000Y-110490000D03*
D12*
X151130000Y-110490000D03*
X153670000Y-110490000D03*
X156210000Y-110490000D03*
X158750000Y-110490000D03*
X161290000Y-110490000D03*
X163830000Y-110490000D03*
X166370000Y-110490000D03*
D20*
X160020000Y-107950000D03*
D12*
X162560000Y-107950000D03*
X165100000Y-107950000D03*
X167640000Y-107950000D03*
D16*
X151506000Y-84836000D03*
X149606000Y-84836000D03*
D14*
X145331000Y-99745800D03*
X147531000Y-99745800D03*
D21*
X142018000Y-85122000D03*
D22*
X144018000Y-85122000D03*
X142018000Y-87122000D03*
X144018000Y-87122000D03*
X142018000Y-89122000D03*
X144018000Y-89122000D03*
D23*
X167106000Y-89662000D03*
X175006000Y-89662000D03*
D14*
X161122000Y-94234000D03*
X163322000Y-94234000D03*
D15*
X163322000Y-92202000D03*
X161122000Y-92202000D03*
D24*
X142316000Y-104984000D03*
X142316000Y-102184000D03*
X147599400Y-104984000D03*
X147599400Y-102184000D03*
X144983200Y-104984000D03*
X144983200Y-102184000D03*
D25*
X156414000Y-107202000D03*
X156414000Y-104902000D03*
D26*
X150114000Y-104902000D03*
D25*
X156414000Y-102602000D03*
D27*
X159156400Y-102069900D03*
X159156400Y-105369900D03*
D28*
X168249600Y-93967300D03*
X168249600Y-95237300D03*
X168249600Y-96507300D03*
X168249600Y-97777300D03*
X173199600Y-97777300D03*
X173199600Y-96507300D03*
X173199600Y-95237300D03*
X173199600Y-93967300D03*
X171615100Y-99936300D03*
X171615100Y-101206300D03*
X171615100Y-102476300D03*
X171615100Y-103746300D03*
X176565100Y-103746300D03*
X176565100Y-102476300D03*
X176565100Y-101206300D03*
X176565100Y-99936300D03*
D29*
X146812000Y-86614000D03*
X146812000Y-87884000D03*
X146812000Y-89154000D03*
X146812000Y-90424000D03*
X154112000Y-90424000D03*
X154112000Y-89154000D03*
X154112000Y-87884000D03*
X154112000Y-86614000D03*
D28*
X147878800Y-92329000D03*
X147878800Y-93599000D03*
X147878800Y-94869000D03*
X147878800Y-96139000D03*
X152828800Y-96139000D03*
X152828800Y-94869000D03*
X152828800Y-93599000D03*
X152828800Y-92329000D03*
D30*
X158525000Y-90170000D03*
X156775000Y-90170000D03*
M02*
