G04 #@! TF.GenerationSoftware,KiCad,Pcbnew,7.0.1-3b83917a11~172~ubuntu20.04.1*
G04 #@! TF.CreationDate,2023-04-02T22:20:07+02:00*
G04 #@! TF.ProjectId,C64Saver2,43363453-6176-4657-9232-2e6b69636164,2.6*
G04 #@! TF.SameCoordinates,Original*
G04 #@! TF.FileFunction,Copper,L1,Top*
G04 #@! TF.FilePolarity,Positive*
%FSLAX46Y46*%
G04 Gerber Fmt 4.6, Leading zero omitted, Abs format (unit mm)*
G04 Created by KiCad (PCBNEW 7.0.1-3b83917a11~172~ubuntu20.04.1) date 2023-04-02 22:20:07*
%MOMM*%
%LPD*%
G01*
G04 APERTURE LIST*
G04 #@! TA.AperFunction,ComponentPad*
%ADD10R,3.000000X3.000000*%
G04 #@! TD*
G04 #@! TA.AperFunction,ComponentPad*
%ADD11C,3.000000*%
G04 #@! TD*
G04 #@! TA.AperFunction,ComponentPad*
%ADD12R,1.600000X1.600000*%
G04 #@! TD*
G04 #@! TA.AperFunction,ComponentPad*
%ADD13C,1.600000*%
G04 #@! TD*
G04 #@! TA.AperFunction,SMDPad,CuDef*
%ADD14R,1.600000X1.500000*%
G04 #@! TD*
G04 #@! TA.AperFunction,SMDPad,CuDef*
%ADD15R,3.200000X3.100000*%
G04 #@! TD*
G04 #@! TA.AperFunction,SMDPad,CuDef*
%ADD16R,6.700000X6.500000*%
G04 #@! TD*
G04 #@! TA.AperFunction,ComponentPad*
%ADD17R,1.700000X1.700000*%
G04 #@! TD*
G04 #@! TA.AperFunction,ComponentPad*
%ADD18O,1.700000X1.700000*%
G04 #@! TD*
G04 #@! TA.AperFunction,ComponentPad*
%ADD19C,1.400000*%
G04 #@! TD*
G04 #@! TA.AperFunction,ComponentPad*
%ADD20O,1.400000X1.400000*%
G04 #@! TD*
G04 #@! TA.AperFunction,ComponentPad*
%ADD21O,1.600000X1.600000*%
G04 #@! TD*
G04 #@! TA.AperFunction,ComponentPad*
%ADD22R,1.050000X1.500000*%
G04 #@! TD*
G04 #@! TA.AperFunction,ComponentPad*
%ADD23O,1.050000X1.500000*%
G04 #@! TD*
G04 #@! TA.AperFunction,ComponentPad*
%ADD24R,1.800000X1.800000*%
G04 #@! TD*
G04 #@! TA.AperFunction,ComponentPad*
%ADD25C,1.800000*%
G04 #@! TD*
G04 #@! TA.AperFunction,ViaPad*
%ADD26C,0.600000*%
G04 #@! TD*
G04 #@! TA.AperFunction,Conductor*
%ADD27C,0.254000*%
G04 #@! TD*
G04 #@! TA.AperFunction,Conductor*
%ADD28C,2.000000*%
G04 #@! TD*
G04 #@! TA.AperFunction,Conductor*
%ADD29C,1.000000*%
G04 #@! TD*
G04 #@! TA.AperFunction,Conductor*
%ADD30C,1.270000*%
G04 #@! TD*
G04 #@! TA.AperFunction,Profile*
%ADD31C,0.150000*%
G04 #@! TD*
G04 APERTURE END LIST*
D10*
X144399000Y-88265000D03*
D11*
X144399000Y-93345000D03*
X144399000Y-98425000D03*
X144399000Y-103505000D03*
D10*
X180340000Y-108204000D03*
D11*
X180340000Y-103124000D03*
X180340000Y-98044000D03*
X180340000Y-92964000D03*
D12*
X173970000Y-98856800D03*
D13*
X171470000Y-98856800D03*
D14*
X158397600Y-95111600D03*
D15*
X153997600Y-94511600D03*
X153997600Y-91111600D03*
D16*
X152247600Y-92811600D03*
D15*
X150497600Y-94511600D03*
X150497600Y-91111600D03*
D14*
X158397600Y-90511600D03*
D17*
X157480000Y-86360000D03*
D18*
X160020000Y-86360000D03*
X162560000Y-86360000D03*
X165100000Y-86360000D03*
X167640000Y-86360000D03*
X170180000Y-86360000D03*
X172720000Y-86360000D03*
X175260000Y-86360000D03*
D17*
X148590000Y-110490000D03*
D18*
X151130000Y-110490000D03*
X153670000Y-110490000D03*
X156210000Y-110490000D03*
X158750000Y-110490000D03*
X161290000Y-110490000D03*
X163830000Y-110490000D03*
X166370000Y-110490000D03*
D17*
X160020000Y-107950000D03*
D18*
X162560000Y-107950000D03*
X165100000Y-107950000D03*
X167640000Y-107950000D03*
D19*
X174599600Y-89230200D03*
D20*
X174599600Y-94310200D03*
D19*
X172389800Y-94335600D03*
D20*
X172389800Y-89255600D03*
D19*
X170103800Y-89245600D03*
D20*
X170103800Y-94325600D03*
D19*
X163093400Y-89245600D03*
D20*
X163093400Y-94325600D03*
D19*
X167690800Y-89255600D03*
D20*
X167690800Y-94335600D03*
D19*
X160705800Y-89245600D03*
D20*
X160705800Y-94325600D03*
D13*
X156464000Y-107569000D03*
D21*
X156464000Y-99949000D03*
D19*
X165379400Y-94361000D03*
D20*
X165379400Y-89281000D03*
D22*
X159532000Y-98094800D03*
D23*
X160802000Y-98094800D03*
X162072000Y-98094800D03*
D24*
X164998400Y-102463600D03*
D25*
X167538400Y-102463600D03*
D19*
X151866600Y-97485200D03*
D20*
X156946600Y-97485200D03*
D24*
X159613600Y-102463600D03*
D25*
X162153600Y-102463600D03*
D19*
X175310800Y-103581200D03*
D20*
X170230800Y-103581200D03*
D12*
X153416000Y-107569000D03*
D21*
X153416000Y-99949000D03*
D22*
X165100000Y-98044000D03*
D23*
X166370000Y-98044000D03*
X167640000Y-98044000D03*
D26*
X163646451Y-101169716D03*
X158046218Y-101912218D03*
D27*
X157261500Y-102154927D02*
X157261500Y-101669510D01*
X157387598Y-102281025D02*
X157261500Y-102154927D01*
D28*
X171123851Y-91255600D02*
X170103800Y-90235549D01*
D29*
X174599600Y-89230200D02*
X174983028Y-91255600D01*
D27*
X162919951Y-100868789D02*
X163345524Y-100443216D01*
D30*
X165100000Y-86360000D02*
X165100000Y-86664800D01*
D28*
X170103800Y-89245600D02*
X167700800Y-89245600D01*
D27*
X167538400Y-103736392D02*
X168510208Y-104708200D01*
X165518016Y-100443216D02*
X167538400Y-102463600D01*
X157691000Y-103863769D02*
X157387598Y-103560367D01*
X157015000Y-108796000D02*
X157691000Y-108120000D01*
D28*
X158397600Y-87277600D02*
X157480000Y-86360000D01*
X160020000Y-86360000D02*
X157480000Y-86360000D01*
X171571051Y-91255600D02*
X171123851Y-91255600D01*
D27*
X153416000Y-107569000D02*
X154643000Y-108796000D01*
D28*
X171571051Y-91255600D02*
X174373428Y-91255600D01*
X173827828Y-91255600D02*
X174983028Y-91255600D01*
D27*
X157261500Y-101669510D02*
X157930507Y-101000502D01*
D28*
X174373428Y-91255600D02*
X176661600Y-93543772D01*
D27*
X173970000Y-101467600D02*
X173970000Y-98856800D01*
D28*
X158397600Y-90511600D02*
X158397600Y-87277600D01*
X165100000Y-86360000D02*
X162560000Y-86360000D01*
D27*
X157387598Y-103560367D02*
X157387598Y-102281025D01*
D30*
X165100000Y-86664800D02*
X167690800Y-89255600D01*
D28*
X176661600Y-96165200D02*
X173970000Y-98856800D01*
X167700800Y-89245600D02*
X167690800Y-89255600D01*
D27*
X162919951Y-100900359D02*
X162919951Y-100868789D01*
X157691000Y-108120000D02*
X157691000Y-103863769D01*
D28*
X171571051Y-91255600D02*
X173827828Y-91255600D01*
D27*
X163345524Y-100443216D02*
X165518016Y-100443216D01*
D28*
X176661600Y-93543772D02*
X176661600Y-96165200D01*
D27*
X154643000Y-108796000D02*
X157015000Y-108796000D01*
X157930507Y-101000502D02*
X160690502Y-101000502D01*
D28*
X170103800Y-90235549D02*
X170103800Y-89245600D01*
D27*
X162153600Y-102463600D02*
X162153600Y-101666710D01*
X162153600Y-101666710D02*
X162919951Y-100900359D01*
X168510208Y-104708200D02*
X170729400Y-104708200D01*
D28*
X160020000Y-86360000D02*
X162560000Y-86360000D01*
D27*
X167538400Y-102463600D02*
X167538400Y-103736392D01*
X160690502Y-101000502D02*
X162153600Y-102463600D01*
X170729400Y-104708200D02*
X173970000Y-101467600D01*
X157343600Y-95111600D02*
X153416000Y-99039200D01*
X153416000Y-99039200D02*
X153416000Y-99949000D01*
X165100000Y-107950000D02*
X163646451Y-106496451D01*
X163646451Y-106496451D02*
X163646451Y-101169716D01*
X158397600Y-95111600D02*
X158397600Y-93875200D01*
X160705800Y-91567000D02*
X160705800Y-89245600D01*
X158397600Y-93875200D02*
X160705800Y-91567000D01*
X158397600Y-95111600D02*
X157343600Y-95111600D01*
D28*
X175260000Y-86360000D02*
X167640000Y-86360000D01*
D27*
X160705800Y-94325600D02*
X160705800Y-95936760D01*
X163322000Y-94325600D02*
X160705800Y-94325600D01*
X159532000Y-97110560D02*
X159532000Y-98094800D01*
X168021000Y-94335600D02*
X167303419Y-94335600D01*
X162560000Y-107950000D02*
X158046218Y-103436218D01*
X160705800Y-95917000D02*
X160705800Y-94325600D01*
X156946600Y-97485200D02*
X158922400Y-97485200D01*
X166176419Y-93208600D02*
X164439000Y-93208600D01*
X158922400Y-97485200D02*
X159532000Y-98094800D01*
X164439000Y-93208600D02*
X163322000Y-94325600D01*
X158046218Y-103436218D02*
X158046218Y-101912218D01*
X160705800Y-95936760D02*
X159532000Y-97110560D01*
X167303419Y-94335600D02*
X166176419Y-93208600D01*
X156464000Y-99822000D02*
X156473503Y-99812497D01*
X160802000Y-99098800D02*
X160802000Y-98094800D01*
X156473503Y-99812497D02*
X160088303Y-99812497D01*
X160802000Y-98094800D02*
X160802000Y-97090800D01*
X160088303Y-99812497D02*
X160802000Y-99098800D01*
X163982400Y-96062800D02*
X165709600Y-94335600D01*
X160802000Y-97090800D02*
X161830000Y-96062800D01*
X161830000Y-96062800D02*
X163982400Y-96062800D01*
X165120000Y-97008000D02*
X166243000Y-95885000D01*
X168910000Y-92837000D02*
X168783000Y-92710000D01*
X172415200Y-94310200D02*
X172389800Y-94335600D01*
X167894000Y-92710000D02*
X166751000Y-91567000D01*
X172389800Y-92760800D02*
X172339000Y-92710000D01*
X165414800Y-91567000D02*
X163093400Y-89245600D01*
X174599600Y-94310200D02*
X172415200Y-94310200D01*
X166243000Y-95885000D02*
X168910000Y-95885000D01*
X168783000Y-92710000D02*
X167894000Y-92710000D01*
X165120000Y-98094800D02*
X165120000Y-97008000D01*
X166751000Y-91567000D02*
X165414800Y-91567000D01*
X172389800Y-94335600D02*
X172389800Y-92760800D01*
X172339000Y-92710000D02*
X168783000Y-92710000D01*
X168910000Y-95885000D02*
X168910000Y-92837000D01*
D28*
X168910000Y-110490000D02*
X169849959Y-109550041D01*
X169849959Y-109550041D02*
X169849959Y-108638619D01*
X175920400Y-108356400D02*
X176072800Y-108204000D01*
X174876619Y-107312619D02*
X175920400Y-108356400D01*
X176072800Y-108204000D02*
X180340000Y-108204000D01*
X171175959Y-107312619D02*
X174876619Y-107312619D01*
X166370000Y-110490000D02*
X168910000Y-110490000D01*
X169849959Y-108638619D02*
X171175959Y-107312619D01*
D27*
X165241870Y-102463600D02*
X168039971Y-105261701D01*
X164998400Y-102463600D02*
X165241870Y-102463600D01*
X168039971Y-105261701D02*
X173630299Y-105261701D01*
X173630299Y-105261701D02*
X175310800Y-103581200D01*
X170230800Y-100665600D02*
X167660000Y-98094800D01*
X169768301Y-95128299D02*
X169768301Y-95986499D01*
X157702463Y-100446999D02*
X157783465Y-100365998D01*
X156464000Y-107442000D02*
X156464000Y-101325232D01*
X167660000Y-98498800D02*
X167660000Y-98094800D01*
X170561000Y-94335600D02*
X169768301Y-95128299D01*
X157783465Y-100365998D02*
X162639974Y-100365998D01*
X156613232Y-101176000D02*
X156972241Y-101176000D01*
X163116257Y-99889715D02*
X166269085Y-99889715D01*
X162639974Y-100365998D02*
X163116257Y-99889715D01*
X156464000Y-101325232D02*
X156613232Y-101176000D01*
X170230800Y-103581200D02*
X170230800Y-100665600D01*
X166269085Y-99889715D02*
X167660000Y-98498800D01*
X157701242Y-100446999D02*
X157702463Y-100446999D01*
X169768301Y-95986499D02*
X167660000Y-98094800D01*
X156972241Y-101176000D02*
X157701242Y-100446999D01*
G04 #@! TA.AperFunction,Conductor*
G36*
X158110788Y-83781711D02*
G01*
X158155176Y-83818572D01*
X158178479Y-83871355D01*
X158175809Y-83928992D01*
X157903147Y-84886994D01*
X157877642Y-84934483D01*
X157834622Y-84966968D01*
X157781962Y-84978500D01*
X157496005Y-84978500D01*
X157493332Y-84978472D01*
X157467696Y-84977927D01*
X157391766Y-84976316D01*
X157391764Y-84976316D01*
X157322969Y-84986613D01*
X157315004Y-84987547D01*
X157245680Y-84993447D01*
X157209375Y-85002900D01*
X157196285Y-85005576D01*
X157159189Y-85011129D01*
X157093118Y-85032907D01*
X157085427Y-85035174D01*
X157018105Y-85052704D01*
X157018102Y-85052705D01*
X157018103Y-85052705D01*
X156983912Y-85068159D01*
X156971468Y-85073007D01*
X156935844Y-85084749D01*
X156881183Y-85113780D01*
X156822084Y-85128500D01*
X156593794Y-85128500D01*
X156556716Y-85133901D01*
X156519637Y-85139304D01*
X156405252Y-85195224D01*
X156315224Y-85285252D01*
X156259304Y-85399637D01*
X156248500Y-85473796D01*
X156248500Y-85700283D01*
X156238389Y-85749737D01*
X156228188Y-85773642D01*
X156224808Y-85780913D01*
X156193484Y-85843039D01*
X156182503Y-85878897D01*
X156177919Y-85891447D01*
X156163195Y-85925953D01*
X156147095Y-85993647D01*
X156144992Y-86001386D01*
X156124624Y-86067893D01*
X156119859Y-86105102D01*
X156117462Y-86118245D01*
X156108782Y-86154744D01*
X156104354Y-86224164D01*
X156103590Y-86232146D01*
X156094753Y-86301158D01*
X156096345Y-86338622D01*
X156096204Y-86351986D01*
X156093817Y-86389430D01*
X156101187Y-86458613D01*
X156101782Y-86466611D01*
X156104734Y-86536105D01*
X156112637Y-86572777D01*
X156114755Y-86585969D01*
X156118730Y-86623273D01*
X156137681Y-86690198D01*
X156139619Y-86697978D01*
X156154279Y-86765995D01*
X156168262Y-86800794D01*
X156172579Y-86813440D01*
X156182801Y-86849536D01*
X156212802Y-86912321D01*
X156216027Y-86919663D01*
X156239413Y-86977859D01*
X156248500Y-87024841D01*
X156248500Y-87246204D01*
X156259304Y-87320362D01*
X156315224Y-87434747D01*
X156405252Y-87524775D01*
X156405253Y-87524775D01*
X156405254Y-87524776D01*
X156519639Y-87580696D01*
X156593794Y-87591500D01*
X156705574Y-87591500D01*
X156753792Y-87601091D01*
X156794669Y-87628405D01*
X156979195Y-87812931D01*
X157006509Y-87853808D01*
X157016100Y-87902026D01*
X157016100Y-87986068D01*
X157011287Y-88020560D01*
X156616400Y-89407999D01*
X156616400Y-95067481D01*
X156606809Y-95115699D01*
X156579495Y-95156576D01*
X153104670Y-98631400D01*
X153083701Y-98648300D01*
X153079577Y-98650949D01*
X153046543Y-98689073D01*
X153040424Y-98695646D01*
X153030723Y-98705348D01*
X153022504Y-98716327D01*
X153016865Y-98723323D01*
X152983823Y-98761457D01*
X152981786Y-98765917D01*
X152968050Y-98789069D01*
X152965110Y-98792995D01*
X152957147Y-98814345D01*
X152928751Y-98858836D01*
X152896574Y-98879950D01*
X152897030Y-98880687D01*
X152700937Y-99002102D01*
X152539119Y-99149619D01*
X152407165Y-99324355D01*
X152309564Y-99520362D01*
X152249641Y-99730967D01*
X152229438Y-99949000D01*
X152249641Y-100167032D01*
X152290691Y-100311306D01*
X152309564Y-100377636D01*
X152407165Y-100573644D01*
X152539120Y-100748382D01*
X152700937Y-100895897D01*
X152835357Y-100979126D01*
X152881021Y-101007401D01*
X152887104Y-101011167D01*
X153091282Y-101090266D01*
X153306518Y-101130500D01*
X153525480Y-101130500D01*
X153525482Y-101130500D01*
X153740718Y-101090266D01*
X153944896Y-101011167D01*
X154131063Y-100895897D01*
X154292880Y-100748382D01*
X154424835Y-100573644D01*
X154522436Y-100377636D01*
X154582359Y-100167030D01*
X154602562Y-99949000D01*
X154582359Y-99730970D01*
X154522436Y-99520364D01*
X154424835Y-99324356D01*
X154292880Y-99149618D01*
X154250112Y-99110630D01*
X154214355Y-99053861D01*
X154212805Y-98986784D01*
X154245902Y-98928424D01*
X155656146Y-97518180D01*
X155717810Y-97484299D01*
X155788029Y-97488766D01*
X155844905Y-97530189D01*
X155870702Y-97595651D01*
X155878960Y-97684778D01*
X155933811Y-97877559D01*
X156023149Y-98056973D01*
X156023151Y-98056975D01*
X156143938Y-98216923D01*
X156292059Y-98351953D01*
X156373965Y-98402667D01*
X156462470Y-98457467D01*
X156535917Y-98485921D01*
X156578113Y-98512955D01*
X156606434Y-98554299D01*
X156616400Y-98603412D01*
X156616400Y-98641500D01*
X156599519Y-98704500D01*
X156553400Y-98750619D01*
X156490400Y-98767500D01*
X156354518Y-98767500D01*
X156139281Y-98807734D01*
X156139282Y-98807734D01*
X155935102Y-98886833D01*
X155748938Y-99002102D01*
X155587119Y-99149619D01*
X155455165Y-99324355D01*
X155357564Y-99520362D01*
X155297641Y-99730967D01*
X155277438Y-99949000D01*
X155297641Y-100167032D01*
X155338691Y-100311306D01*
X155357564Y-100377636D01*
X155455165Y-100573644D01*
X155587120Y-100748382D01*
X155748937Y-100895897D01*
X155853905Y-100960890D01*
X155929021Y-101007401D01*
X155971096Y-101050309D01*
X155988512Y-101107825D01*
X155977306Y-101166866D01*
X155971080Y-101180499D01*
X155970382Y-101185353D01*
X155963725Y-101211430D01*
X155962010Y-101216026D01*
X155958410Y-101266364D01*
X155957450Y-101275297D01*
X155955500Y-101288866D01*
X155955500Y-101302571D01*
X155955179Y-101311559D01*
X155951580Y-101361882D01*
X155952621Y-101366668D01*
X155955500Y-101393448D01*
X155955500Y-106424023D01*
X155939576Y-106485335D01*
X155895831Y-106531150D01*
X155748937Y-106622102D01*
X155587119Y-106769619D01*
X155455165Y-106944355D01*
X155357564Y-107140362D01*
X155297641Y-107350967D01*
X155277438Y-107569000D01*
X155297641Y-107787032D01*
X155312940Y-107840800D01*
X155357564Y-107997636D01*
X155392739Y-108068277D01*
X155411193Y-108105336D01*
X155424269Y-108167318D01*
X155405531Y-108227830D01*
X155359715Y-108271576D01*
X155298403Y-108287500D01*
X154905818Y-108287500D01*
X154857600Y-108277909D01*
X154816723Y-108250595D01*
X154634405Y-108068277D01*
X154607091Y-108027400D01*
X154597500Y-107979182D01*
X154597500Y-106732796D01*
X154593434Y-106704888D01*
X154586696Y-106658639D01*
X154530776Y-106544254D01*
X154530775Y-106544253D01*
X154530775Y-106544252D01*
X154440747Y-106454224D01*
X154326362Y-106398304D01*
X154301642Y-106394702D01*
X154252206Y-106387500D01*
X152579794Y-106387500D01*
X152542716Y-106392902D01*
X152505637Y-106398304D01*
X152391252Y-106454224D01*
X152301224Y-106544252D01*
X152245304Y-106658637D01*
X152234500Y-106732796D01*
X152234500Y-108405204D01*
X152245304Y-108479362D01*
X152301224Y-108593747D01*
X152391252Y-108683775D01*
X152391253Y-108683775D01*
X152391254Y-108683776D01*
X152505639Y-108739696D01*
X152579794Y-108750500D01*
X153826182Y-108750500D01*
X153874400Y-108760091D01*
X153915277Y-108787405D01*
X154132777Y-109004905D01*
X154163515Y-109055064D01*
X154168131Y-109113711D01*
X154145618Y-109168061D01*
X154100885Y-109206267D01*
X154043682Y-109220000D01*
X146886500Y-109220000D01*
X146823500Y-109203119D01*
X146777381Y-109157000D01*
X146760500Y-109094000D01*
X146760500Y-106344530D01*
X146762414Y-106322650D01*
X146764124Y-106312952D01*
X146762414Y-106303254D01*
X146760871Y-106285619D01*
X146756290Y-106268522D01*
X146754581Y-106258829D01*
X146754581Y-106258828D01*
X146754579Y-106258827D01*
X146751062Y-106252735D01*
X146746549Y-106247355D01*
X146738016Y-106242429D01*
X146720025Y-106229831D01*
X146712479Y-106223499D01*
X146705881Y-106221097D01*
X146698952Y-106219875D01*
X146689254Y-106221586D01*
X146667375Y-106223500D01*
X140663500Y-106223500D01*
X140600500Y-106206619D01*
X140554381Y-106160500D01*
X140537500Y-106097500D01*
X140537500Y-103504999D01*
X142512693Y-103504999D01*
X142531894Y-103773453D01*
X142589100Y-104036426D01*
X142589103Y-104036434D01*
X142683156Y-104288600D01*
X142683157Y-104288601D01*
X142812139Y-104524816D01*
X142973426Y-104740270D01*
X143163729Y-104930573D01*
X143163732Y-104930575D01*
X143379186Y-105091862D01*
X143615400Y-105220844D01*
X143867566Y-105314897D01*
X143867569Y-105314897D01*
X143867573Y-105314899D01*
X144130546Y-105372105D01*
X144130551Y-105372106D01*
X144399000Y-105391306D01*
X144667449Y-105372106D01*
X144755110Y-105353036D01*
X144930426Y-105314899D01*
X144930427Y-105314898D01*
X144930434Y-105314897D01*
X145182600Y-105220844D01*
X145418814Y-105091862D01*
X145634268Y-104930575D01*
X145824575Y-104740268D01*
X145985862Y-104524814D01*
X146114844Y-104288600D01*
X146208897Y-104036434D01*
X146228001Y-103948617D01*
X146266105Y-103773453D01*
X146266104Y-103773453D01*
X146266106Y-103773449D01*
X146285306Y-103505000D01*
X146266106Y-103236551D01*
X146208897Y-102973566D01*
X146114844Y-102721400D01*
X145985862Y-102485186D01*
X145824575Y-102269732D01*
X145824573Y-102269729D01*
X145634270Y-102079426D01*
X145418816Y-101918139D01*
X145378983Y-101896388D01*
X145182600Y-101789156D01*
X144930434Y-101695103D01*
X144930426Y-101695100D01*
X144667453Y-101637894D01*
X144399000Y-101618693D01*
X144130546Y-101637894D01*
X143867573Y-101695100D01*
X143715001Y-101752006D01*
X143615400Y-101789156D01*
X143615398Y-101789156D01*
X143615398Y-101789157D01*
X143379183Y-101918139D01*
X143163729Y-102079426D01*
X142973426Y-102269729D01*
X142812139Y-102485183D01*
X142683157Y-102721398D01*
X142589100Y-102973573D01*
X142531894Y-103236546D01*
X142512693Y-103504999D01*
X140537500Y-103504999D01*
X140537500Y-98425000D01*
X142512693Y-98425000D01*
X142531894Y-98693453D01*
X142589100Y-98956426D01*
X142589103Y-98956434D01*
X142683156Y-99208600D01*
X142743754Y-99319578D01*
X142812139Y-99444816D01*
X142973426Y-99660270D01*
X143163729Y-99850573D01*
X143193793Y-99873079D01*
X143379186Y-100011862D01*
X143615400Y-100140844D01*
X143867566Y-100234897D01*
X143867569Y-100234897D01*
X143867573Y-100234899D01*
X144130546Y-100292105D01*
X144130551Y-100292106D01*
X144399000Y-100311306D01*
X144667449Y-100292106D01*
X144755110Y-100273036D01*
X144930426Y-100234899D01*
X144930427Y-100234898D01*
X144930434Y-100234897D01*
X145182600Y-100140844D01*
X145418814Y-100011862D01*
X145634268Y-99850575D01*
X145824575Y-99660268D01*
X145985862Y-99444814D01*
X146114844Y-99208600D01*
X146208897Y-98956434D01*
X146266106Y-98693449D01*
X146285306Y-98425000D01*
X146266106Y-98156551D01*
X146266105Y-98156546D01*
X146208899Y-97893573D01*
X146208897Y-97893569D01*
X146208897Y-97893566D01*
X146114844Y-97641400D01*
X146029553Y-97485200D01*
X150780467Y-97485200D01*
X150798960Y-97684778D01*
X150853811Y-97877559D01*
X150943149Y-98056973D01*
X150943151Y-98056975D01*
X151063938Y-98216923D01*
X151212059Y-98351953D01*
X151288473Y-98399266D01*
X151382471Y-98457468D01*
X151569360Y-98529869D01*
X151569361Y-98529869D01*
X151569366Y-98529871D01*
X151766384Y-98566700D01*
X151966814Y-98566700D01*
X151966816Y-98566700D01*
X152163834Y-98529871D01*
X152207499Y-98512955D01*
X152350728Y-98457468D01*
X152368312Y-98446580D01*
X152521141Y-98351953D01*
X152669262Y-98216923D01*
X152790049Y-98056975D01*
X152825590Y-97985600D01*
X152879388Y-97877559D01*
X152887629Y-97848596D01*
X152934240Y-97684776D01*
X152952733Y-97485200D01*
X152934240Y-97285624D01*
X152879389Y-97092844D01*
X152879388Y-97092840D01*
X152790050Y-96913426D01*
X152760476Y-96874264D01*
X152669262Y-96753477D01*
X152521141Y-96618447D01*
X152491724Y-96600233D01*
X152350728Y-96512931D01*
X152163839Y-96440530D01*
X152163834Y-96440529D01*
X151966816Y-96403700D01*
X151766384Y-96403700D01*
X151617713Y-96431491D01*
X151569360Y-96440530D01*
X151382471Y-96512931D01*
X151212060Y-96618446D01*
X151063937Y-96753478D01*
X150943149Y-96913426D01*
X150853811Y-97092840D01*
X150798960Y-97285621D01*
X150780467Y-97485200D01*
X146029553Y-97485200D01*
X145985862Y-97405186D01*
X145824575Y-97189732D01*
X145824573Y-97189729D01*
X145634270Y-96999426D01*
X145418816Y-96838139D01*
X145263768Y-96753477D01*
X145182600Y-96709156D01*
X144930434Y-96615103D01*
X144930426Y-96615100D01*
X144667453Y-96557894D01*
X144399000Y-96538693D01*
X144130546Y-96557894D01*
X143867573Y-96615100D01*
X143715001Y-96672006D01*
X143615400Y-96709156D01*
X143615398Y-96709156D01*
X143615398Y-96709157D01*
X143379183Y-96838139D01*
X143163729Y-96999426D01*
X142973426Y-97189729D01*
X142812139Y-97405183D01*
X142683157Y-97641398D01*
X142589100Y-97893573D01*
X142531894Y-98156546D01*
X142512693Y-98425000D01*
X140537500Y-98425000D01*
X140537500Y-93345000D01*
X142512693Y-93345000D01*
X142531894Y-93613453D01*
X142589100Y-93876426D01*
X142589103Y-93876434D01*
X142683156Y-94128600D01*
X142683157Y-94128601D01*
X142812139Y-94364816D01*
X142973426Y-94580270D01*
X143163729Y-94770573D01*
X143163732Y-94770575D01*
X143379186Y-94931862D01*
X143615400Y-95060844D01*
X143867566Y-95154897D01*
X143867569Y-95154897D01*
X143867573Y-95154899D01*
X144130546Y-95212105D01*
X144130551Y-95212106D01*
X144399000Y-95231306D01*
X144667449Y-95212106D01*
X144755110Y-95193036D01*
X144930426Y-95154899D01*
X144930427Y-95154898D01*
X144930434Y-95154897D01*
X145182600Y-95060844D01*
X145418814Y-94931862D01*
X145634268Y-94770575D01*
X145824575Y-94580268D01*
X145985862Y-94364814D01*
X146114844Y-94128600D01*
X146208897Y-93876434D01*
X146213117Y-93857038D01*
X146266105Y-93613453D01*
X146266104Y-93613453D01*
X146266106Y-93613449D01*
X146285306Y-93345000D01*
X146266106Y-93076551D01*
X146208897Y-92813566D01*
X146114844Y-92561400D01*
X145985862Y-92325186D01*
X145824575Y-92109732D01*
X145824573Y-92109729D01*
X145634270Y-91919426D01*
X145418816Y-91758139D01*
X145268755Y-91676200D01*
X145182600Y-91629156D01*
X144930434Y-91535103D01*
X144930426Y-91535100D01*
X144667453Y-91477894D01*
X144399000Y-91458693D01*
X144130546Y-91477894D01*
X143867573Y-91535100D01*
X143715001Y-91592006D01*
X143615400Y-91629156D01*
X143615398Y-91629156D01*
X143615398Y-91629157D01*
X143379183Y-91758139D01*
X143163729Y-91919426D01*
X142973426Y-92109729D01*
X142812139Y-92325183D01*
X142683157Y-92561398D01*
X142589100Y-92813573D01*
X142531894Y-93076546D01*
X142512693Y-93345000D01*
X140537500Y-93345000D01*
X140537500Y-86481795D01*
X150904580Y-86481795D01*
X150945509Y-86727074D01*
X150945510Y-86727076D01*
X151026250Y-86962266D01*
X151026251Y-86962269D01*
X151026252Y-86962270D01*
X151144606Y-87180969D01*
X151195382Y-87246206D01*
X151297342Y-87377204D01*
X151480297Y-87545626D01*
X151688469Y-87681631D01*
X151688471Y-87681632D01*
X151688473Y-87681633D01*
X151916199Y-87781523D01*
X152157259Y-87842568D01*
X152343013Y-87857960D01*
X152467142Y-87857960D01*
X152467147Y-87857960D01*
X152652901Y-87842568D01*
X152893961Y-87781523D01*
X153121687Y-87681633D01*
X153329865Y-87545624D01*
X153512818Y-87377204D01*
X153665554Y-87180969D01*
X153783908Y-86962270D01*
X153864651Y-86727074D01*
X153905580Y-86481795D01*
X153905580Y-86233125D01*
X153864651Y-85987846D01*
X153783908Y-85752650D01*
X153665554Y-85533951D01*
X153512818Y-85337716D01*
X153455827Y-85285252D01*
X153329862Y-85169293D01*
X153121690Y-85033288D01*
X152970495Y-84966968D01*
X152893961Y-84933397D01*
X152893959Y-84933396D01*
X152893956Y-84933395D01*
X152652905Y-84872353D01*
X152652904Y-84872352D01*
X152652901Y-84872352D01*
X152467147Y-84856960D01*
X152343013Y-84856960D01*
X152157259Y-84872352D01*
X152157255Y-84872352D01*
X152157254Y-84872353D01*
X151916203Y-84933395D01*
X151688469Y-85033288D01*
X151480297Y-85169293D01*
X151297342Y-85337715D01*
X151144607Y-85533949D01*
X151026250Y-85752653D01*
X150966757Y-85925953D01*
X150945509Y-85987846D01*
X150904580Y-86233125D01*
X150904580Y-86481795D01*
X140537500Y-86481795D01*
X140537500Y-83894500D01*
X140554381Y-83831500D01*
X140600500Y-83785381D01*
X140663500Y-83768500D01*
X158054623Y-83768500D01*
X158110788Y-83781711D01*
G37*
G04 #@! TD.AperFunction*
G04 #@! TA.AperFunction,Conductor*
G36*
X178042500Y-83785381D02*
G01*
X178088619Y-83831500D01*
X178105500Y-83894500D01*
X178105500Y-89870470D01*
X178103586Y-89892350D01*
X178101875Y-89902047D01*
X178103586Y-89911746D01*
X178105128Y-89929373D01*
X178109707Y-89946467D01*
X178111418Y-89956171D01*
X178114935Y-89962262D01*
X178119452Y-89967645D01*
X178127982Y-89972570D01*
X178145972Y-89985167D01*
X178153518Y-89991499D01*
X178153519Y-89991499D01*
X178153520Y-89991500D01*
X178153521Y-89991500D01*
X178160123Y-89993903D01*
X178167047Y-89995124D01*
X178167047Y-89995123D01*
X178167048Y-89995124D01*
X178176746Y-89993413D01*
X178198625Y-89991500D01*
X184202500Y-89991500D01*
X184265500Y-90008381D01*
X184311619Y-90054500D01*
X184328500Y-90117500D01*
X184328500Y-95505000D01*
X184311619Y-95568000D01*
X184265500Y-95614119D01*
X184202500Y-95631000D01*
X179141555Y-95631000D01*
X179079333Y-95614565D01*
X179033344Y-95569547D01*
X178459974Y-94608310D01*
X178426680Y-94552494D01*
X179110715Y-94552494D01*
X179179321Y-94608310D01*
X179414026Y-94751036D01*
X179665989Y-94860480D01*
X179930513Y-94934596D01*
X180202645Y-94972000D01*
X180477355Y-94972000D01*
X180749486Y-94934596D01*
X181014010Y-94860480D01*
X181265970Y-94751038D01*
X181500681Y-94608307D01*
X181569283Y-94552493D01*
X181569283Y-94552492D01*
X180340001Y-93323210D01*
X180339999Y-93323210D01*
X179110715Y-94552492D01*
X179110715Y-94552494D01*
X178426680Y-94552494D01*
X177933888Y-93726342D01*
X177916100Y-93661797D01*
X177916100Y-93621297D01*
X177916892Y-93607192D01*
X177917779Y-93599317D01*
X177920853Y-93572034D01*
X177916385Y-93505763D01*
X177916100Y-93497288D01*
X177916100Y-93487432D01*
X177912436Y-93446724D01*
X177912214Y-93443904D01*
X177905663Y-93346735D01*
X177905663Y-93346732D01*
X177904623Y-93342606D01*
X177901310Y-93323106D01*
X177900929Y-93318867D01*
X177874993Y-93224892D01*
X177874289Y-93222223D01*
X177850488Y-93127762D01*
X177848723Y-93123877D01*
X177841988Y-93105300D01*
X177840854Y-93101190D01*
X177798582Y-93013412D01*
X177797384Y-93010851D01*
X177776104Y-92964000D01*
X178327308Y-92964000D01*
X178346053Y-93238056D01*
X178401945Y-93507020D01*
X178493936Y-93765860D01*
X178620318Y-94009765D01*
X178750540Y-94194248D01*
X178750541Y-94194248D01*
X179980790Y-92964001D01*
X180699210Y-92964001D01*
X181929457Y-94194247D01*
X182059683Y-94009761D01*
X182186063Y-93765860D01*
X182278054Y-93507020D01*
X182333946Y-93238056D01*
X182352691Y-92964000D01*
X182333946Y-92689943D01*
X182278054Y-92420979D01*
X182186063Y-92162139D01*
X182059683Y-91918238D01*
X181929457Y-91733750D01*
X180699210Y-92963999D01*
X180699210Y-92964001D01*
X179980790Y-92964001D01*
X179980790Y-92963999D01*
X178750541Y-91733750D01*
X178620316Y-91918240D01*
X178493936Y-92162139D01*
X178401945Y-92420979D01*
X178346053Y-92689943D01*
X178327308Y-92964000D01*
X177776104Y-92964000D01*
X177757101Y-92922163D01*
X177754675Y-92918662D01*
X177744720Y-92901567D01*
X177742877Y-92897739D01*
X177685600Y-92818903D01*
X177683986Y-92816628D01*
X177628503Y-92736544D01*
X177625499Y-92733540D01*
X177612652Y-92718499D01*
X177610146Y-92715050D01*
X177539698Y-92647695D01*
X177537677Y-92645718D01*
X176933233Y-92041274D01*
X176914117Y-92016726D01*
X176745324Y-91733750D01*
X176531634Y-91375505D01*
X179110714Y-91375505D01*
X180339999Y-92604790D01*
X180340000Y-92604790D01*
X181569283Y-91375504D01*
X181500678Y-91319689D01*
X181265973Y-91176963D01*
X181014010Y-91067519D01*
X180749486Y-90993403D01*
X180477355Y-90956000D01*
X180202645Y-90956000D01*
X179930513Y-90993403D01*
X179665989Y-91067519D01*
X179414026Y-91176963D01*
X179179322Y-91319689D01*
X179110715Y-91375505D01*
X179110714Y-91375505D01*
X176531634Y-91375505D01*
X175509251Y-89661509D01*
X175492393Y-89612252D01*
X175496887Y-89560388D01*
X175540289Y-89417315D01*
X175558718Y-89230200D01*
X175540289Y-89043085D01*
X175540289Y-89043084D01*
X175485710Y-88863162D01*
X175444452Y-88785976D01*
X175397077Y-88697343D01*
X175337438Y-88624672D01*
X175277799Y-88552000D01*
X175189247Y-88479329D01*
X175132457Y-88432723D01*
X175115437Y-88423625D01*
X174966642Y-88344092D01*
X174966639Y-88344091D01*
X174841420Y-88306105D01*
X174794922Y-88280265D01*
X174763231Y-88237534D01*
X174752000Y-88185533D01*
X174752000Y-87797872D01*
X174765971Y-87740205D01*
X174804785Y-87695326D01*
X174859836Y-87673188D01*
X174918914Y-87678700D01*
X174925484Y-87680955D01*
X175006000Y-87694391D01*
X175006000Y-86614000D01*
X175514000Y-86614000D01*
X175514000Y-87694391D01*
X175594514Y-87680955D01*
X175807368Y-87607883D01*
X176005302Y-87500766D01*
X176182903Y-87362533D01*
X176335321Y-87196962D01*
X176458419Y-87008548D01*
X176548822Y-86802451D01*
X176596544Y-86614000D01*
X175514000Y-86614000D01*
X175006000Y-86614000D01*
X175006000Y-85025609D01*
X175514000Y-85025609D01*
X175514000Y-86106000D01*
X176596544Y-86106000D01*
X176596544Y-86105999D01*
X176548822Y-85917548D01*
X176458419Y-85711451D01*
X176335321Y-85523037D01*
X176182903Y-85357466D01*
X176005302Y-85219233D01*
X175807368Y-85112116D01*
X175594514Y-85039044D01*
X175514000Y-85025609D01*
X175006000Y-85025609D01*
X174925484Y-85039044D01*
X174918914Y-85041300D01*
X174859836Y-85046812D01*
X174804785Y-85024674D01*
X174765971Y-84979795D01*
X174752000Y-84922128D01*
X174752000Y-83894500D01*
X174768881Y-83831500D01*
X174815000Y-83785381D01*
X174878000Y-83768500D01*
X177979500Y-83768500D01*
X178042500Y-83785381D01*
G37*
G04 #@! TD.AperFunction*
D31*
X184404000Y-112522000D02*
X146685000Y-112522000D01*
X140462000Y-83693000D02*
X178181000Y-83693000D01*
X140462000Y-106299000D02*
X140462000Y-83693000D01*
X178181000Y-89916000D02*
X184404000Y-89916000D01*
X146685000Y-112522000D02*
X146685000Y-106299000D01*
X146685000Y-106299000D02*
X140462000Y-106299000D01*
X178181000Y-83693000D02*
X178181000Y-89916000D01*
X184404000Y-89916000D02*
X184404000Y-112522000D01*
M02*
