G04 #@! TF.GenerationSoftware,KiCad,Pcbnew,7.0.1-3b83917a11~172~ubuntu20.04.1*
G04 #@! TF.CreationDate,2023-03-26T00:43:29+01:00*
G04 #@! TF.ProjectId,C64Saver2,43363453-6176-4657-9232-2e6b69636164,rev?*
G04 #@! TF.SameCoordinates,Original*
G04 #@! TF.FileFunction,Soldermask,Top*
G04 #@! TF.FilePolarity,Negative*
%FSLAX46Y46*%
G04 Gerber Fmt 4.6, Leading zero omitted, Abs format (unit mm)*
G04 Created by KiCad (PCBNEW 7.0.1-3b83917a11~172~ubuntu20.04.1) date 2023-03-26 00:43:29*
%MOMM*%
%LPD*%
G01*
G04 APERTURE LIST*
G04 Aperture macros list*
%AMRoundRect*
0 Rectangle with rounded corners*
0 $1 Rounding radius*
0 $2 $3 $4 $5 $6 $7 $8 $9 X,Y pos of 4 corners*
0 Add a 4 corners polygon primitive as box body*
4,1,4,$2,$3,$4,$5,$6,$7,$8,$9,$2,$3,0*
0 Add four circle primitives for the rounded corners*
1,1,$1+$1,$2,$3*
1,1,$1+$1,$4,$5*
1,1,$1+$1,$6,$7*
1,1,$1+$1,$8,$9*
0 Add four rect primitives between the rounded corners*
20,1,$1+$1,$2,$3,$4,$5,0*
20,1,$1+$1,$4,$5,$6,$7,0*
20,1,$1+$1,$6,$7,$8,$9,0*
20,1,$1+$1,$8,$9,$2,$3,0*%
G04 Aperture macros list end*
%ADD10RoundRect,0.200000X0.800000X-0.800000X0.800000X0.800000X-0.800000X0.800000X-0.800000X-0.800000X0*%
%ADD11O,2.000000X2.000000*%
%ADD12RoundRect,0.200000X-0.525000X-0.750000X0.525000X-0.750000X0.525000X0.750000X-0.525000X0.750000X0*%
%ADD13O,1.450000X1.900000*%
%ADD14C,1.800000*%
%ADD15O,1.800000X1.800000*%
%ADD16C,2.000000*%
%ADD17C,3.400000*%
%ADD18RoundRect,0.200000X-1.500000X1.500000X-1.500000X-1.500000X1.500000X-1.500000X1.500000X1.500000X0*%
%ADD19RoundRect,0.200000X1.500000X-1.500000X1.500000X1.500000X-1.500000X1.500000X-1.500000X-1.500000X0*%
%ADD20RoundRect,0.200000X0.800000X0.800000X-0.800000X0.800000X-0.800000X-0.800000X0.800000X-0.800000X0*%
%ADD21RoundRect,0.200000X0.800000X0.750000X-0.800000X0.750000X-0.800000X-0.750000X0.800000X-0.750000X0*%
%ADD22RoundRect,0.200000X3.350000X3.250000X-3.350000X3.250000X-3.350000X-3.250000X3.350000X-3.250000X0*%
%ADD23O,2.100000X2.100000*%
%ADD24RoundRect,0.200000X0.850000X-0.850000X0.850000X0.850000X-0.850000X0.850000X-0.850000X-0.850000X0*%
%ADD25C,2.900000*%
%ADD26C,2.200000*%
%ADD27RoundRect,0.200000X-0.900000X-0.900000X0.900000X-0.900000X0.900000X0.900000X-0.900000X0.900000X0*%
G04 #@! TA.AperFunction,Profile*
%ADD28C,0.150000*%
G04 #@! TD*
G04 APERTURE END LIST*
D10*
X153416000Y-107569000D03*
D11*
X153416000Y-99949000D03*
D12*
X165100000Y-98044000D03*
D13*
X166370000Y-98044000D03*
X167640000Y-98044000D03*
D14*
X160705800Y-89245600D03*
D15*
X160705800Y-94325600D03*
D14*
X167690800Y-89255600D03*
D15*
X167690800Y-94335600D03*
D14*
X163093400Y-89245600D03*
D15*
X163093400Y-94325600D03*
D14*
X170103800Y-89245600D03*
D15*
X170103800Y-94325600D03*
D16*
X156464000Y-107569000D03*
D11*
X156464000Y-99949000D03*
D15*
X165379400Y-89281000D03*
D14*
X165379400Y-94361000D03*
D15*
X174599600Y-94310200D03*
D14*
X174599600Y-89230200D03*
D15*
X172389800Y-89255600D03*
D14*
X172389800Y-94335600D03*
D17*
X144399000Y-103505000D03*
X144399000Y-98425000D03*
X144399000Y-93345000D03*
D18*
X144399000Y-88265000D03*
D17*
X180340000Y-92964000D03*
X180340000Y-98044000D03*
X180340000Y-103124000D03*
D19*
X180340000Y-108204000D03*
D16*
X171470000Y-98856800D03*
D20*
X173970000Y-98856800D03*
D21*
X158397600Y-90511600D03*
D22*
X152247600Y-92811600D03*
D21*
X158397600Y-95111600D03*
D23*
X175260000Y-86360000D03*
X172720000Y-86360000D03*
X170180000Y-86360000D03*
X167640000Y-86360000D03*
X165100000Y-86360000D03*
X162560000Y-86360000D03*
X160020000Y-86360000D03*
D24*
X157480000Y-86360000D03*
D23*
X166370000Y-110490000D03*
X163830000Y-110490000D03*
X161290000Y-110490000D03*
X158750000Y-110490000D03*
X156210000Y-110490000D03*
X153670000Y-110490000D03*
X151130000Y-110490000D03*
D24*
X148590000Y-110490000D03*
D23*
X167640000Y-107950000D03*
X165100000Y-107950000D03*
X162560000Y-107950000D03*
D24*
X160020000Y-107950000D03*
D25*
X152405080Y-86357460D03*
X172399960Y-109862620D03*
D13*
X162072000Y-98094800D03*
X160802000Y-98094800D03*
D12*
X159532000Y-98094800D03*
D26*
X167538400Y-102463600D03*
D27*
X164998400Y-102463600D03*
D15*
X156946600Y-97485200D03*
D14*
X151866600Y-97485200D03*
D26*
X162153600Y-102463600D03*
D27*
X159613600Y-102463600D03*
D15*
X170230800Y-103581200D03*
D14*
X175310800Y-103581200D03*
D28*
X184404000Y-112522000D02*
X146685000Y-112522000D01*
X140462000Y-83693000D02*
X178181000Y-83693000D01*
X140462000Y-106299000D02*
X140462000Y-83693000D01*
X178181000Y-89916000D02*
X184404000Y-89916000D01*
X146685000Y-112522000D02*
X146685000Y-106299000D01*
X146685000Y-106299000D02*
X140462000Y-106299000D01*
X178181000Y-83693000D02*
X178181000Y-89916000D01*
X184404000Y-89916000D02*
X184404000Y-112522000D01*
M02*
