G04 #@! TF.GenerationSoftware,KiCad,Pcbnew,5.1.4+dfsg1-1*
G04 #@! TF.CreationDate,2020-09-13T01:28:56+02:00*
G04 #@! TF.ProjectId,C64Saver2,43363453-6176-4657-9232-2e6b69636164,rev?*
G04 #@! TF.SameCoordinates,Original*
G04 #@! TF.FileFunction,Legend,Top*
G04 #@! TF.FilePolarity,Positive*
%FSLAX46Y46*%
G04 Gerber Fmt 4.6, Leading zero omitted, Abs format (unit mm)*
G04 Created by KiCad (PCBNEW 5.1.4+dfsg1-1) date 2020-09-13 01:28:56*
%MOMM*%
%LPD*%
G04 APERTURE LIST*
%ADD10C,0.150000*%
%ADD11C,0.300000*%
%ADD12C,0.120000*%
G04 APERTURE END LIST*
D10*
X140462000Y-106299000D02*
X140462000Y-83693000D01*
X146685000Y-106299000D02*
X140462000Y-106299000D01*
X146685000Y-112522000D02*
X146685000Y-106299000D01*
X184404000Y-112522000D02*
X146685000Y-112522000D01*
X184404000Y-89916000D02*
X184404000Y-112522000D01*
X178181000Y-89916000D02*
X184404000Y-89916000D01*
X178181000Y-83693000D02*
X178181000Y-89916000D01*
X140462000Y-83693000D02*
X178181000Y-83693000D01*
D11*
X147885476Y-103026523D02*
X147885476Y-102788428D01*
X147825952Y-102669380D01*
X147766428Y-102609857D01*
X147587857Y-102490809D01*
X147349761Y-102431285D01*
X146873571Y-102431285D01*
X146754523Y-102490809D01*
X146695000Y-102550333D01*
X146635476Y-102669380D01*
X146635476Y-102907476D01*
X146695000Y-103026523D01*
X146754523Y-103086047D01*
X146873571Y-103145571D01*
X147171190Y-103145571D01*
X147290238Y-103086047D01*
X147349761Y-103026523D01*
X147409285Y-102907476D01*
X147409285Y-102669380D01*
X147349761Y-102550333D01*
X147290238Y-102490809D01*
X147171190Y-102431285D01*
X146635476Y-102074142D02*
X147885476Y-101657476D01*
X146635476Y-101240809D01*
X147528333Y-100883666D02*
X147528333Y-100288428D01*
X147885476Y-101002714D02*
X146635476Y-100586047D01*
X147885476Y-100169380D01*
X147766428Y-99038428D02*
X147825952Y-99097952D01*
X147885476Y-99276523D01*
X147885476Y-99395571D01*
X147825952Y-99574142D01*
X147706904Y-99693190D01*
X147587857Y-99752714D01*
X147349761Y-99812238D01*
X147171190Y-99812238D01*
X146933095Y-99752714D01*
X146814047Y-99693190D01*
X146695000Y-99574142D01*
X146635476Y-99395571D01*
X146635476Y-99276523D01*
X146695000Y-99097952D01*
X146754523Y-99038428D01*
X146695000Y-94297380D02*
X146635476Y-94416428D01*
X146635476Y-94595000D01*
X146695000Y-94773571D01*
X146814047Y-94892619D01*
X146933095Y-94952142D01*
X147171190Y-95011666D01*
X147349761Y-95011666D01*
X147587857Y-94952142D01*
X147706904Y-94892619D01*
X147825952Y-94773571D01*
X147885476Y-94595000D01*
X147885476Y-94475952D01*
X147825952Y-94297380D01*
X147766428Y-94237857D01*
X147349761Y-94237857D01*
X147349761Y-94475952D01*
X147885476Y-93702142D02*
X146635476Y-93702142D01*
X147885476Y-92987857D01*
X146635476Y-92987857D01*
X147885476Y-92392619D02*
X146635476Y-92392619D01*
X146635476Y-92095000D01*
X146695000Y-91916428D01*
X146814047Y-91797380D01*
X146933095Y-91737857D01*
X147171190Y-91678333D01*
X147349761Y-91678333D01*
X147587857Y-91737857D01*
X147706904Y-91797380D01*
X147825952Y-91916428D01*
X147885476Y-92095000D01*
X147885476Y-92392619D01*
X146635476Y-88503095D02*
X146635476Y-89098333D01*
X147230714Y-89157857D01*
X147171190Y-89098333D01*
X147111666Y-88979285D01*
X147111666Y-88681666D01*
X147171190Y-88562619D01*
X147230714Y-88503095D01*
X147349761Y-88443571D01*
X147647380Y-88443571D01*
X147766428Y-88503095D01*
X147825952Y-88562619D01*
X147885476Y-88681666D01*
X147885476Y-88979285D01*
X147825952Y-89098333D01*
X147766428Y-89157857D01*
X146635476Y-88086428D02*
X147885476Y-87669761D01*
X146635476Y-87253095D01*
X174220285Y-106723571D02*
X174220285Y-105223571D01*
X174934571Y-106723571D02*
X174934571Y-105223571D01*
X175791714Y-106723571D01*
X175791714Y-105223571D01*
X176726523Y-103348476D02*
X176726523Y-103586571D01*
X176786047Y-103705619D01*
X176845571Y-103765142D01*
X177024142Y-103884190D01*
X177262238Y-103943714D01*
X177738428Y-103943714D01*
X177857476Y-103884190D01*
X177917000Y-103824666D01*
X177976523Y-103705619D01*
X177976523Y-103467523D01*
X177917000Y-103348476D01*
X177857476Y-103288952D01*
X177738428Y-103229428D01*
X177440809Y-103229428D01*
X177321761Y-103288952D01*
X177262238Y-103348476D01*
X177202714Y-103467523D01*
X177202714Y-103705619D01*
X177262238Y-103824666D01*
X177321761Y-103884190D01*
X177440809Y-103943714D01*
X177976523Y-104300857D02*
X176726523Y-104717523D01*
X177976523Y-105134190D01*
X177083666Y-105491333D02*
X177083666Y-106086571D01*
X176726523Y-105372285D02*
X177976523Y-105788952D01*
X176726523Y-106205619D01*
X176845571Y-107336571D02*
X176786047Y-107277047D01*
X176726523Y-107098476D01*
X176726523Y-106979428D01*
X176786047Y-106800857D01*
X176905095Y-106681809D01*
X177024142Y-106622285D01*
X177262238Y-106562761D01*
X177440809Y-106562761D01*
X177678904Y-106622285D01*
X177797952Y-106681809D01*
X177917000Y-106800857D01*
X177976523Y-106979428D01*
X177976523Y-107098476D01*
X177917000Y-107277047D01*
X177857476Y-107336571D01*
X177917000Y-96964619D02*
X177976523Y-96845571D01*
X177976523Y-96667000D01*
X177917000Y-96488428D01*
X177797952Y-96369380D01*
X177678904Y-96309857D01*
X177440809Y-96250333D01*
X177262238Y-96250333D01*
X177024142Y-96309857D01*
X176905095Y-96369380D01*
X176786047Y-96488428D01*
X176726523Y-96667000D01*
X176726523Y-96786047D01*
X176786047Y-96964619D01*
X176845571Y-97024142D01*
X177262238Y-97024142D01*
X177262238Y-96786047D01*
X176726523Y-97559857D02*
X177976523Y-97559857D01*
X176726523Y-98274142D01*
X177976523Y-98274142D01*
X176726523Y-98869380D02*
X177976523Y-98869380D01*
X177976523Y-99167000D01*
X177917000Y-99345571D01*
X177797952Y-99464619D01*
X177678904Y-99524142D01*
X177440809Y-99583666D01*
X177262238Y-99583666D01*
X177024142Y-99524142D01*
X176905095Y-99464619D01*
X176786047Y-99345571D01*
X176726523Y-99167000D01*
X176726523Y-98869380D01*
X177976523Y-92725904D02*
X177976523Y-92130666D01*
X177381285Y-92071142D01*
X177440809Y-92130666D01*
X177500333Y-92249714D01*
X177500333Y-92547333D01*
X177440809Y-92666380D01*
X177381285Y-92725904D01*
X177262238Y-92785428D01*
X176964619Y-92785428D01*
X176845571Y-92725904D01*
X176786047Y-92666380D01*
X176726523Y-92547333D01*
X176726523Y-92249714D01*
X176786047Y-92130666D01*
X176845571Y-92071142D01*
X177976523Y-93142571D02*
X176726523Y-93559238D01*
X177976523Y-93975904D01*
D12*
X160330000Y-89516500D02*
X160330000Y-92376500D01*
X162250000Y-89516500D02*
X160330000Y-89516500D01*
X162250000Y-92376500D02*
X162250000Y-89516500D01*
X174300000Y-94660000D02*
X174300000Y-97520000D01*
X176220000Y-94660000D02*
X174300000Y-94660000D01*
X176220000Y-97520000D02*
X176220000Y-94660000D01*
X156500000Y-102552000D02*
X156500000Y-102396000D01*
X156500000Y-104868000D02*
X156500000Y-104712000D01*
X153898870Y-102552163D02*
G75*
G02X155980961Y-102552000I1041130J-1079837D01*
G01*
X153898870Y-104711837D02*
G75*
G03X155980961Y-104712000I1041130J1079837D01*
G01*
X153267665Y-102553392D02*
G75*
G02X156500000Y-102396484I1672335J-1078608D01*
G01*
X153267665Y-104710608D02*
G75*
G03X156500000Y-104867516I1672335J1078608D01*
G01*
X153380000Y-100140000D02*
X153380000Y-100296000D01*
X153380000Y-97824000D02*
X153380000Y-97980000D01*
X155981130Y-100139837D02*
G75*
G02X153899039Y-100140000I-1041130J1079837D01*
G01*
X155981130Y-97980163D02*
G75*
G03X153899039Y-97980000I-1041130J-1079837D01*
G01*
X156612335Y-100138608D02*
G75*
G02X153380000Y-100295516I-1672335J1078608D01*
G01*
X156612335Y-97981392D02*
G75*
G03X153380000Y-97824484I-1672335J-1078608D01*
G01*
X158675000Y-101338748D02*
X158675000Y-101861252D01*
X160095000Y-101338748D02*
X160095000Y-101861252D01*
X161215000Y-101338748D02*
X161215000Y-101861252D01*
X162635000Y-101338748D02*
X162635000Y-101861252D01*
X149404000Y-99433748D02*
X149404000Y-99956252D01*
X150824000Y-99433748D02*
X150824000Y-99956252D01*
X172010000Y-96258748D02*
X172010000Y-96781252D01*
X173430000Y-96258748D02*
X173430000Y-96781252D01*
X172010000Y-91178748D02*
X172010000Y-91701252D01*
X173430000Y-91178748D02*
X173430000Y-91701252D01*
X162000000Y-96781252D02*
X162000000Y-96258748D01*
X160580000Y-96781252D02*
X160580000Y-96258748D01*
X163120000Y-96258748D02*
X163120000Y-96781252D01*
X164540000Y-96258748D02*
X164540000Y-96781252D01*
X164390000Y-101338748D02*
X164390000Y-101861252D01*
X165810000Y-101338748D02*
X165810000Y-101861252D01*
X165660000Y-91115248D02*
X165660000Y-91637752D01*
X167080000Y-91115248D02*
X167080000Y-91637752D01*
X165660000Y-96258748D02*
X165660000Y-96781252D01*
X167080000Y-96258748D02*
X167080000Y-96781252D01*
X163120000Y-91115248D02*
X163120000Y-91637752D01*
X164540000Y-91115248D02*
X164540000Y-91637752D01*
X167406250Y-99993750D02*
X167406250Y-100781250D01*
X167012500Y-100387500D02*
X167800000Y-100387500D01*
X168040000Y-104580563D02*
X169104437Y-105645000D01*
X168040000Y-99889437D02*
X169104437Y-98825000D01*
X168040000Y-99889437D02*
X168040000Y-101175000D01*
X168040000Y-104580563D02*
X168040000Y-103295000D01*
X169104437Y-105645000D02*
X174860000Y-105645000D01*
X169104437Y-98825000D02*
X174860000Y-98825000D01*
X174860000Y-98825000D02*
X174860000Y-101175000D01*
X174860000Y-105645000D02*
X174860000Y-103295000D01*
X170305000Y-92956500D02*
X168845000Y-92956500D01*
X170305000Y-89796500D02*
X168145000Y-89796500D01*
X170305000Y-89796500D02*
X170305000Y-90726500D01*
X170305000Y-92956500D02*
X170305000Y-92026500D01*
X170305000Y-98100000D02*
X168845000Y-98100000D01*
X170305000Y-94940000D02*
X168145000Y-94940000D01*
X170305000Y-94940000D02*
X170305000Y-95870000D01*
X170305000Y-98100000D02*
X170305000Y-97170000D01*
X148209000Y-85725000D02*
X140589000Y-85725000D01*
X140589000Y-106045000D02*
X148209000Y-106045000D01*
X141859000Y-106045000D02*
X141859000Y-85725000D01*
X148209000Y-85725000D02*
X148209000Y-106045000D01*
X140589000Y-85725000D02*
X140589000Y-106045000D01*
X176784000Y-110744000D02*
X184404000Y-110744000D01*
X184404000Y-90424000D02*
X176784000Y-90424000D01*
X183134000Y-90424000D02*
X183134000Y-110744000D01*
X176784000Y-110744000D02*
X176784000Y-90424000D01*
X184404000Y-110744000D02*
X184404000Y-90424000D01*
X155797600Y-96261600D02*
X157297600Y-96261600D01*
X157297600Y-96261600D02*
X157297600Y-96161600D01*
X157297600Y-96161600D02*
X159197600Y-96161600D01*
X155797600Y-89361600D02*
X157297600Y-89361600D01*
X157297600Y-89361600D02*
X157297600Y-89461600D01*
X157297600Y-89461600D02*
X158397600Y-89461600D01*
X176590000Y-87690000D02*
X176590000Y-85030000D01*
X158750000Y-87690000D02*
X176590000Y-87690000D01*
X158750000Y-85030000D02*
X176590000Y-85030000D01*
X158750000Y-87690000D02*
X158750000Y-85030000D01*
X157480000Y-87690000D02*
X156150000Y-87690000D01*
X156150000Y-87690000D02*
X156150000Y-86360000D01*
X167700000Y-111820000D02*
X167700000Y-109160000D01*
X149860000Y-111820000D02*
X167700000Y-111820000D01*
X149860000Y-109160000D02*
X167700000Y-109160000D01*
X149860000Y-111820000D02*
X149860000Y-109160000D01*
X148590000Y-111820000D02*
X147260000Y-111820000D01*
X147260000Y-111820000D02*
X147260000Y-110490000D01*
X168970000Y-109280000D02*
X168970000Y-106620000D01*
X161290000Y-109280000D02*
X168970000Y-109280000D01*
X161290000Y-106620000D02*
X168970000Y-106620000D01*
X161290000Y-109280000D02*
X161290000Y-106620000D01*
X160020000Y-109280000D02*
X158690000Y-109280000D01*
X158690000Y-109280000D02*
X158690000Y-107950000D01*
D10*
X160551904Y-89288880D02*
X160551904Y-88288880D01*
X160790000Y-88288880D01*
X160932857Y-88336500D01*
X161028095Y-88431738D01*
X161075714Y-88526976D01*
X161123333Y-88717452D01*
X161123333Y-88860309D01*
X161075714Y-89050785D01*
X161028095Y-89146023D01*
X160932857Y-89241261D01*
X160790000Y-89288880D01*
X160551904Y-89288880D01*
X161504285Y-88384119D02*
X161551904Y-88336500D01*
X161647142Y-88288880D01*
X161885238Y-88288880D01*
X161980476Y-88336500D01*
X162028095Y-88384119D01*
X162075714Y-88479357D01*
X162075714Y-88574595D01*
X162028095Y-88717452D01*
X161456666Y-89288880D01*
X162075714Y-89288880D01*
X174521904Y-94432380D02*
X174521904Y-93432380D01*
X174760000Y-93432380D01*
X174902857Y-93480000D01*
X174998095Y-93575238D01*
X175045714Y-93670476D01*
X175093333Y-93860952D01*
X175093333Y-94003809D01*
X175045714Y-94194285D01*
X174998095Y-94289523D01*
X174902857Y-94384761D01*
X174760000Y-94432380D01*
X174521904Y-94432380D01*
X176045714Y-94432380D02*
X175474285Y-94432380D01*
X175760000Y-94432380D02*
X175760000Y-93432380D01*
X175664761Y-93575238D01*
X175569523Y-93670476D01*
X175474285Y-93718095D01*
X152344380Y-104624047D02*
X152344380Y-105100238D01*
X151344380Y-105100238D01*
X151820571Y-104290714D02*
X151820571Y-103957380D01*
X152344380Y-103814523D02*
X152344380Y-104290714D01*
X151344380Y-104290714D01*
X151344380Y-103814523D01*
X152344380Y-103385952D02*
X151344380Y-103385952D01*
X151344380Y-103147857D01*
X151392000Y-103005000D01*
X151487238Y-102909761D01*
X151582476Y-102862142D01*
X151772952Y-102814523D01*
X151915809Y-102814523D01*
X152106285Y-102862142D01*
X152201523Y-102909761D01*
X152296761Y-103005000D01*
X152344380Y-103147857D01*
X152344380Y-103385952D01*
X151439619Y-102433571D02*
X151392000Y-102385952D01*
X151344380Y-102290714D01*
X151344380Y-102052619D01*
X151392000Y-101957380D01*
X151439619Y-101909761D01*
X151534857Y-101862142D01*
X151630095Y-101862142D01*
X151772952Y-101909761D01*
X152344380Y-102481190D01*
X152344380Y-101862142D01*
X152344380Y-100052047D02*
X152344380Y-100528238D01*
X151344380Y-100528238D01*
X151820571Y-99718714D02*
X151820571Y-99385380D01*
X152344380Y-99242523D02*
X152344380Y-99718714D01*
X151344380Y-99718714D01*
X151344380Y-99242523D01*
X152344380Y-98813952D02*
X151344380Y-98813952D01*
X151344380Y-98575857D01*
X151392000Y-98433000D01*
X151487238Y-98337761D01*
X151582476Y-98290142D01*
X151772952Y-98242523D01*
X151915809Y-98242523D01*
X152106285Y-98290142D01*
X152201523Y-98337761D01*
X152296761Y-98433000D01*
X152344380Y-98575857D01*
X152344380Y-98813952D01*
X152344380Y-97290142D02*
X152344380Y-97861571D01*
X152344380Y-97575857D02*
X151344380Y-97575857D01*
X151487238Y-97671095D01*
X151582476Y-97766333D01*
X151630095Y-97861571D01*
X158551642Y-99575880D02*
X158218309Y-99099690D01*
X157980214Y-99575880D02*
X157980214Y-98575880D01*
X158361166Y-98575880D01*
X158456404Y-98623500D01*
X158504023Y-98671119D01*
X158551642Y-98766357D01*
X158551642Y-98909214D01*
X158504023Y-99004452D01*
X158456404Y-99052071D01*
X158361166Y-99099690D01*
X157980214Y-99099690D01*
X159504023Y-99575880D02*
X158932595Y-99575880D01*
X159218309Y-99575880D02*
X159218309Y-98575880D01*
X159123071Y-98718738D01*
X159027833Y-98813976D01*
X158932595Y-98861595D01*
X160456404Y-99575880D02*
X159884976Y-99575880D01*
X160170690Y-99575880D02*
X160170690Y-98575880D01*
X160075452Y-98718738D01*
X159980214Y-98813976D01*
X159884976Y-98861595D01*
X161536142Y-99575880D02*
X161202809Y-99099690D01*
X160964714Y-99575880D02*
X160964714Y-98575880D01*
X161345666Y-98575880D01*
X161440904Y-98623500D01*
X161488523Y-98671119D01*
X161536142Y-98766357D01*
X161536142Y-98909214D01*
X161488523Y-99004452D01*
X161440904Y-99052071D01*
X161345666Y-99099690D01*
X160964714Y-99099690D01*
X162488523Y-99575880D02*
X161917095Y-99575880D01*
X162202809Y-99575880D02*
X162202809Y-98575880D01*
X162107571Y-98718738D01*
X162012333Y-98813976D01*
X161917095Y-98861595D01*
X163107571Y-98575880D02*
X163202809Y-98575880D01*
X163298047Y-98623500D01*
X163345666Y-98671119D01*
X163393285Y-98766357D01*
X163440904Y-98956833D01*
X163440904Y-99194928D01*
X163393285Y-99385404D01*
X163345666Y-99480642D01*
X163298047Y-99528261D01*
X163202809Y-99575880D01*
X163107571Y-99575880D01*
X163012333Y-99528261D01*
X162964714Y-99480642D01*
X162917095Y-99385404D01*
X162869476Y-99194928D01*
X162869476Y-98956833D01*
X162917095Y-98766357D01*
X162964714Y-98671119D01*
X163012333Y-98623500D01*
X163107571Y-98575880D01*
X149947333Y-97607380D02*
X149614000Y-97131190D01*
X149375904Y-97607380D02*
X149375904Y-96607380D01*
X149756857Y-96607380D01*
X149852095Y-96655000D01*
X149899714Y-96702619D01*
X149947333Y-96797857D01*
X149947333Y-96940714D01*
X149899714Y-97035952D01*
X149852095Y-97083571D01*
X149756857Y-97131190D01*
X149375904Y-97131190D01*
X150423523Y-97607380D02*
X150614000Y-97607380D01*
X150709238Y-97559761D01*
X150756857Y-97512142D01*
X150852095Y-97369285D01*
X150899714Y-97178809D01*
X150899714Y-96797857D01*
X150852095Y-96702619D01*
X150804476Y-96655000D01*
X150709238Y-96607380D01*
X150518761Y-96607380D01*
X150423523Y-96655000D01*
X150375904Y-96702619D01*
X150328285Y-96797857D01*
X150328285Y-97035952D01*
X150375904Y-97131190D01*
X150423523Y-97178809D01*
X150518761Y-97226428D01*
X150709238Y-97226428D01*
X150804476Y-97178809D01*
X150852095Y-97131190D01*
X150899714Y-97035952D01*
X172553333Y-94495880D02*
X172220000Y-94019690D01*
X171981904Y-94495880D02*
X171981904Y-93495880D01*
X172362857Y-93495880D01*
X172458095Y-93543500D01*
X172505714Y-93591119D01*
X172553333Y-93686357D01*
X172553333Y-93829214D01*
X172505714Y-93924452D01*
X172458095Y-93972071D01*
X172362857Y-94019690D01*
X171981904Y-94019690D01*
X173124761Y-93924452D02*
X173029523Y-93876833D01*
X172981904Y-93829214D01*
X172934285Y-93733976D01*
X172934285Y-93686357D01*
X172981904Y-93591119D01*
X173029523Y-93543500D01*
X173124761Y-93495880D01*
X173315238Y-93495880D01*
X173410476Y-93543500D01*
X173458095Y-93591119D01*
X173505714Y-93686357D01*
X173505714Y-93733976D01*
X173458095Y-93829214D01*
X173410476Y-93876833D01*
X173315238Y-93924452D01*
X173124761Y-93924452D01*
X173029523Y-93972071D01*
X172981904Y-94019690D01*
X172934285Y-94114928D01*
X172934285Y-94305404D01*
X172981904Y-94400642D01*
X173029523Y-94448261D01*
X173124761Y-94495880D01*
X173315238Y-94495880D01*
X173410476Y-94448261D01*
X173458095Y-94400642D01*
X173505714Y-94305404D01*
X173505714Y-94114928D01*
X173458095Y-94019690D01*
X173410476Y-93972071D01*
X173315238Y-93924452D01*
X172616833Y-89352380D02*
X172283500Y-88876190D01*
X172045404Y-89352380D02*
X172045404Y-88352380D01*
X172426357Y-88352380D01*
X172521595Y-88400000D01*
X172569214Y-88447619D01*
X172616833Y-88542857D01*
X172616833Y-88685714D01*
X172569214Y-88780952D01*
X172521595Y-88828571D01*
X172426357Y-88876190D01*
X172045404Y-88876190D01*
X172950166Y-88352380D02*
X173616833Y-88352380D01*
X173188261Y-89352380D01*
X161123333Y-94495880D02*
X160790000Y-94019690D01*
X160551904Y-94495880D02*
X160551904Y-93495880D01*
X160932857Y-93495880D01*
X161028095Y-93543500D01*
X161075714Y-93591119D01*
X161123333Y-93686357D01*
X161123333Y-93829214D01*
X161075714Y-93924452D01*
X161028095Y-93972071D01*
X160932857Y-94019690D01*
X160551904Y-94019690D01*
X161980476Y-93495880D02*
X161790000Y-93495880D01*
X161694761Y-93543500D01*
X161647142Y-93591119D01*
X161551904Y-93733976D01*
X161504285Y-93924452D01*
X161504285Y-94305404D01*
X161551904Y-94400642D01*
X161599523Y-94448261D01*
X161694761Y-94495880D01*
X161885238Y-94495880D01*
X161980476Y-94448261D01*
X162028095Y-94400642D01*
X162075714Y-94305404D01*
X162075714Y-94067309D01*
X162028095Y-93972071D01*
X161980476Y-93924452D01*
X161885238Y-93876833D01*
X161694761Y-93876833D01*
X161599523Y-93924452D01*
X161551904Y-93972071D01*
X161504285Y-94067309D01*
X163663333Y-94495880D02*
X163330000Y-94019690D01*
X163091904Y-94495880D02*
X163091904Y-93495880D01*
X163472857Y-93495880D01*
X163568095Y-93543500D01*
X163615714Y-93591119D01*
X163663333Y-93686357D01*
X163663333Y-93829214D01*
X163615714Y-93924452D01*
X163568095Y-93972071D01*
X163472857Y-94019690D01*
X163091904Y-94019690D01*
X164568095Y-93495880D02*
X164091904Y-93495880D01*
X164044285Y-93972071D01*
X164091904Y-93924452D01*
X164187142Y-93876833D01*
X164425238Y-93876833D01*
X164520476Y-93924452D01*
X164568095Y-93972071D01*
X164615714Y-94067309D01*
X164615714Y-94305404D01*
X164568095Y-94400642D01*
X164520476Y-94448261D01*
X164425238Y-94495880D01*
X164187142Y-94495880D01*
X164091904Y-94448261D01*
X164044285Y-94400642D01*
X164933333Y-99575880D02*
X164600000Y-99099690D01*
X164361904Y-99575880D02*
X164361904Y-98575880D01*
X164742857Y-98575880D01*
X164838095Y-98623500D01*
X164885714Y-98671119D01*
X164933333Y-98766357D01*
X164933333Y-98909214D01*
X164885714Y-99004452D01*
X164838095Y-99052071D01*
X164742857Y-99099690D01*
X164361904Y-99099690D01*
X165790476Y-98909214D02*
X165790476Y-99575880D01*
X165552380Y-98528261D02*
X165314285Y-99242547D01*
X165933333Y-99242547D01*
X166203333Y-89288880D02*
X165870000Y-88812690D01*
X165631904Y-89288880D02*
X165631904Y-88288880D01*
X166012857Y-88288880D01*
X166108095Y-88336500D01*
X166155714Y-88384119D01*
X166203333Y-88479357D01*
X166203333Y-88622214D01*
X166155714Y-88717452D01*
X166108095Y-88765071D01*
X166012857Y-88812690D01*
X165631904Y-88812690D01*
X166536666Y-88288880D02*
X167155714Y-88288880D01*
X166822380Y-88669833D01*
X166965238Y-88669833D01*
X167060476Y-88717452D01*
X167108095Y-88765071D01*
X167155714Y-88860309D01*
X167155714Y-89098404D01*
X167108095Y-89193642D01*
X167060476Y-89241261D01*
X166965238Y-89288880D01*
X166679523Y-89288880D01*
X166584285Y-89241261D01*
X166536666Y-89193642D01*
X166203333Y-94495880D02*
X165870000Y-94019690D01*
X165631904Y-94495880D02*
X165631904Y-93495880D01*
X166012857Y-93495880D01*
X166108095Y-93543500D01*
X166155714Y-93591119D01*
X166203333Y-93686357D01*
X166203333Y-93829214D01*
X166155714Y-93924452D01*
X166108095Y-93972071D01*
X166012857Y-94019690D01*
X165631904Y-94019690D01*
X166584285Y-93591119D02*
X166631904Y-93543500D01*
X166727142Y-93495880D01*
X166965238Y-93495880D01*
X167060476Y-93543500D01*
X167108095Y-93591119D01*
X167155714Y-93686357D01*
X167155714Y-93781595D01*
X167108095Y-93924452D01*
X166536666Y-94495880D01*
X167155714Y-94495880D01*
X163663333Y-89288880D02*
X163330000Y-88812690D01*
X163091904Y-89288880D02*
X163091904Y-88288880D01*
X163472857Y-88288880D01*
X163568095Y-88336500D01*
X163615714Y-88384119D01*
X163663333Y-88479357D01*
X163663333Y-88622214D01*
X163615714Y-88717452D01*
X163568095Y-88765071D01*
X163472857Y-88812690D01*
X163091904Y-88812690D01*
X164615714Y-89288880D02*
X164044285Y-89288880D01*
X164330000Y-89288880D02*
X164330000Y-88288880D01*
X164234761Y-88431738D01*
X164139523Y-88526976D01*
X164044285Y-88574595D01*
X166711333Y-105132142D02*
X166663714Y-105179761D01*
X166520857Y-105227380D01*
X166425619Y-105227380D01*
X166282761Y-105179761D01*
X166187523Y-105084523D01*
X166139904Y-104989285D01*
X166092285Y-104798809D01*
X166092285Y-104655952D01*
X166139904Y-104465476D01*
X166187523Y-104370238D01*
X166282761Y-104275000D01*
X166425619Y-104227380D01*
X166520857Y-104227380D01*
X166663714Y-104275000D01*
X166711333Y-104322619D01*
X167663714Y-105227380D02*
X167092285Y-105227380D01*
X167378000Y-105227380D02*
X167378000Y-104227380D01*
X167282761Y-104370238D01*
X167187523Y-104465476D01*
X167092285Y-104513095D01*
X168783095Y-88328880D02*
X168783095Y-89138404D01*
X168830714Y-89233642D01*
X168878333Y-89281261D01*
X168973571Y-89328880D01*
X169164047Y-89328880D01*
X169259285Y-89281261D01*
X169306904Y-89233642D01*
X169354523Y-89138404D01*
X169354523Y-88328880D01*
X170354523Y-89328880D02*
X169783095Y-89328880D01*
X170068809Y-89328880D02*
X170068809Y-88328880D01*
X169973571Y-88471738D01*
X169878333Y-88566976D01*
X169783095Y-88614595D01*
X169449761Y-94567619D02*
X169354523Y-94520000D01*
X169259285Y-94424761D01*
X169116428Y-94281904D01*
X169021190Y-94234285D01*
X168925952Y-94234285D01*
X168973571Y-94472380D02*
X168878333Y-94424761D01*
X168783095Y-94329523D01*
X168735476Y-94139047D01*
X168735476Y-93805714D01*
X168783095Y-93615238D01*
X168878333Y-93520000D01*
X168973571Y-93472380D01*
X169164047Y-93472380D01*
X169259285Y-93520000D01*
X169354523Y-93615238D01*
X169402142Y-93805714D01*
X169402142Y-94139047D01*
X169354523Y-94329523D01*
X169259285Y-94424761D01*
X169164047Y-94472380D01*
X168973571Y-94472380D01*
X170354523Y-94472380D02*
X169783095Y-94472380D01*
X170068809Y-94472380D02*
X170068809Y-93472380D01*
X169973571Y-93615238D01*
X169878333Y-93710476D01*
X169783095Y-93758095D01*
X141271666Y-84161380D02*
X141271666Y-84875666D01*
X141224047Y-85018523D01*
X141128809Y-85113761D01*
X140985952Y-85161380D01*
X140890714Y-85161380D01*
X142176428Y-84161380D02*
X141985952Y-84161380D01*
X141890714Y-84209000D01*
X141843095Y-84256619D01*
X141747857Y-84399476D01*
X141700238Y-84589952D01*
X141700238Y-84970904D01*
X141747857Y-85066142D01*
X141795476Y-85113761D01*
X141890714Y-85161380D01*
X142081190Y-85161380D01*
X142176428Y-85113761D01*
X142224047Y-85066142D01*
X142271666Y-84970904D01*
X142271666Y-84732809D01*
X142224047Y-84637571D01*
X142176428Y-84589952D01*
X142081190Y-84542333D01*
X141890714Y-84542333D01*
X141795476Y-84589952D01*
X141747857Y-84637571D01*
X141700238Y-84732809D01*
X177438726Y-111212380D02*
X177438726Y-111926666D01*
X177391107Y-112069523D01*
X177295869Y-112164761D01*
X177153012Y-112212380D01*
X177057774Y-112212380D01*
X178438726Y-112212380D02*
X177867298Y-112212380D01*
X178153012Y-112212380D02*
X178153012Y-111212380D01*
X178057774Y-111355238D01*
X177962536Y-111450476D01*
X177867298Y-111498095D01*
X149380361Y-88812619D02*
X149285123Y-88765000D01*
X149189885Y-88669761D01*
X149047028Y-88526904D01*
X148951790Y-88479285D01*
X148856552Y-88479285D01*
X148904171Y-88717380D02*
X148808933Y-88669761D01*
X148713695Y-88574523D01*
X148666076Y-88384047D01*
X148666076Y-88050714D01*
X148713695Y-87860238D01*
X148808933Y-87765000D01*
X148904171Y-87717380D01*
X149094647Y-87717380D01*
X149189885Y-87765000D01*
X149285123Y-87860238D01*
X149332742Y-88050714D01*
X149332742Y-88384047D01*
X149285123Y-88574523D01*
X149189885Y-88669761D01*
X149094647Y-88717380D01*
X148904171Y-88717380D01*
X149713695Y-87812619D02*
X149761314Y-87765000D01*
X149856552Y-87717380D01*
X150094647Y-87717380D01*
X150189885Y-87765000D01*
X150237504Y-87812619D01*
X150285123Y-87907857D01*
X150285123Y-88003095D01*
X150237504Y-88145952D01*
X149666076Y-88717380D01*
X150285123Y-88717380D01*
X154816666Y-85812380D02*
X154816666Y-86526666D01*
X154769047Y-86669523D01*
X154673809Y-86764761D01*
X154530952Y-86812380D01*
X154435714Y-86812380D01*
X155245238Y-85907619D02*
X155292857Y-85860000D01*
X155388095Y-85812380D01*
X155626190Y-85812380D01*
X155721428Y-85860000D01*
X155769047Y-85907619D01*
X155816666Y-86002857D01*
X155816666Y-86098095D01*
X155769047Y-86240952D01*
X155197619Y-86812380D01*
X155816666Y-86812380D01*
X148002666Y-108164380D02*
X148002666Y-108878666D01*
X147955047Y-109021523D01*
X147859809Y-109116761D01*
X147716952Y-109164380D01*
X147621714Y-109164380D01*
X148907428Y-108497714D02*
X148907428Y-109164380D01*
X148669333Y-108116761D02*
X148431238Y-108831047D01*
X149050285Y-108831047D01*
X157146666Y-107402380D02*
X157146666Y-108116666D01*
X157099047Y-108259523D01*
X157003809Y-108354761D01*
X156860952Y-108402380D01*
X156765714Y-108402380D01*
X158099047Y-107402380D02*
X157622857Y-107402380D01*
X157575238Y-107878571D01*
X157622857Y-107830952D01*
X157718095Y-107783333D01*
X157956190Y-107783333D01*
X158051428Y-107830952D01*
X158099047Y-107878571D01*
X158146666Y-107973809D01*
X158146666Y-108211904D01*
X158099047Y-108307142D01*
X158051428Y-108354761D01*
X157956190Y-108402380D01*
X157718095Y-108402380D01*
X157622857Y-108354761D01*
X157575238Y-108307142D01*
M02*
