M48
;DRILL file {KiCad 4.0.7} date 07/23/18 00:28:18
;FORMAT={-:-/ absolute / inch / decimal}
FMAT,2
INCH,TZ
T1C0.016
T2C0.024
T3C0.031
T4C0.039
T5C0.043
%
G90
G05
M72
T1
X5.88Y-3.67
X5.88Y-3.72
X6.06Y-4.0175
X6.085Y-3.34
X6.15Y-3.6775
X6.22Y-3.795
X6.22Y-3.93
X6.26Y-3.86
X6.285Y-3.6
X6.285Y-3.795
X6.29Y-3.95
X6.295Y-3.5175
X6.33Y-3.91
X6.3925Y-3.49
X6.66Y-3.9075
X6.7Y-4.12
X6.785Y-4.08
X6.89Y-4.0575
X7.07Y-3.8025
T2
X5.71Y-3.65
X5.71Y-3.72
T3
X5.6113Y-3.345
X5.6113Y-3.4237
X5.6113Y-3.5025
X5.69Y-3.345
X5.69Y-3.4237
X5.69Y-3.5025
T4
X5.6Y-3.615
X5.6Y-3.715
X5.6Y-3.815
X5.6Y-3.915
X5.85Y-4.35
X5.95Y-4.35
X6.05Y-4.35
X6.15Y-4.35
X6.2Y-3.4
X6.25Y-4.35
X6.3Y-3.4
X6.3Y-4.25
X6.35Y-4.35
X6.4Y-3.4
X6.4Y-4.25
X6.45Y-4.35
X6.5Y-3.4
X6.5Y-4.25
X6.55Y-4.35
X6.6Y-3.4
X6.6Y-4.25
X6.7Y-3.4
X6.8Y-3.4
X6.9Y-3.4
T5
X6.9241Y-4.1778
X6.9241Y-4.355
X7.18Y-4.1778
X7.18Y-4.355
T0
M30
