G04 #@! TF.FileFunction,Soldermask,Top*
%FSLAX46Y46*%
G04 Gerber Fmt 4.6, Leading zero omitted, Abs format (unit mm)*
G04 Created by KiCad (PCBNEW 4.0.7) date 07/23/18 00:28:13*
%MOMM*%
%LPD*%
G01*
G04 APERTURE LIST*
%ADD10C,0.100000*%
%ADD11R,2.100000X2.100000*%
%ADD12O,2.100000X2.100000*%
%ADD13C,2.400000*%
%ADD14R,1.543000X0.908000*%
%ADD15R,1.600000X1.150000*%
%ADD16R,1.600000X1.300000*%
%ADD17R,1.300000X1.600000*%
%ADD18R,2.400000X1.040000*%
%ADD19R,1.200000X1.300000*%
%ADD20R,1.950000X1.000000*%
%ADD21R,1.750000X1.750000*%
%ADD22O,1.750000X1.750000*%
%ADD23R,2.950000X3.100000*%
%ADD24R,3.100000X3.600000*%
G04 APERTURE END LIST*
D10*
D11*
X142240000Y-99441000D03*
D12*
X142240000Y-96901000D03*
X142240000Y-94361000D03*
X142240000Y-91821000D03*
D13*
X182372000Y-106117000D03*
X182372000Y-110617000D03*
X175872000Y-106117000D03*
X175872000Y-110617000D03*
D14*
X173926500Y-93980000D03*
X173926500Y-95250000D03*
X173926500Y-96520000D03*
X173926500Y-97790000D03*
X167576500Y-97790000D03*
X167576500Y-96520000D03*
X167576500Y-95250000D03*
X167576500Y-93980000D03*
X177292000Y-99949000D03*
X177292000Y-101219000D03*
X177292000Y-102489000D03*
X177292000Y-103759000D03*
X170942000Y-103759000D03*
X170942000Y-102489000D03*
X170942000Y-101219000D03*
X170942000Y-99949000D03*
D15*
X176598500Y-95059500D03*
X178498500Y-95059500D03*
D16*
X150200000Y-97790000D03*
X152400000Y-97790000D03*
X161122000Y-94996000D03*
X163322000Y-94996000D03*
X169903500Y-92265500D03*
X167703500Y-92265500D03*
D15*
X158160800Y-92202000D03*
X156260800Y-92202000D03*
D16*
X156042000Y-89408000D03*
X158242000Y-89408000D03*
X161122000Y-92202000D03*
X163322000Y-92202000D03*
X180743500Y-100457000D03*
X182943500Y-100457000D03*
X147574000Y-97790000D03*
X145374000Y-97790000D03*
D14*
X153543000Y-92329000D03*
X153543000Y-93599000D03*
X153543000Y-94869000D03*
X153543000Y-96139000D03*
X147193000Y-96139000D03*
X147193000Y-94869000D03*
X147193000Y-93599000D03*
X147193000Y-92329000D03*
D16*
X180743500Y-103251000D03*
X182943500Y-103251000D03*
X172720000Y-111506000D03*
X170520000Y-111506000D03*
X172720000Y-108712000D03*
X170520000Y-108712000D03*
D17*
X147830000Y-107442000D03*
X151130000Y-107442000D03*
D18*
X155346000Y-98044000D03*
X155346000Y-100584000D03*
X164846000Y-100584000D03*
X164846000Y-98044000D03*
X167488000Y-105156000D03*
X167488000Y-102616000D03*
X157988000Y-102616000D03*
X157988000Y-105156000D03*
D15*
X158242000Y-94996000D03*
X156342000Y-94996000D03*
X150246000Y-100584000D03*
X152146000Y-100584000D03*
X178498500Y-92456000D03*
X176598500Y-92456000D03*
X180916500Y-97663000D03*
X182816500Y-97663000D03*
X176598500Y-97663000D03*
X178498500Y-97663000D03*
X170754000Y-105918000D03*
X172654000Y-105918000D03*
D19*
X180916500Y-94742000D03*
X182816500Y-94742000D03*
X181866500Y-92742000D03*
D15*
X154940000Y-103419156D03*
X153040000Y-103419156D03*
D19*
X155067000Y-106016556D03*
X153167000Y-106016556D03*
X154117000Y-108016556D03*
D11*
X157480000Y-86360000D03*
D12*
X160020000Y-86360000D03*
X162560000Y-86360000D03*
X165100000Y-86360000D03*
X167640000Y-86360000D03*
X170180000Y-86360000D03*
X172720000Y-86360000D03*
X175260000Y-86360000D03*
D11*
X148590000Y-110490000D03*
D12*
X151130000Y-110490000D03*
X153670000Y-110490000D03*
X156210000Y-110490000D03*
X158750000Y-110490000D03*
X161290000Y-110490000D03*
X163830000Y-110490000D03*
X166370000Y-110490000D03*
D11*
X160020000Y-107950000D03*
D12*
X162560000Y-107950000D03*
X165100000Y-107950000D03*
X167640000Y-107950000D03*
D15*
X153035000Y-84836000D03*
X151135000Y-84836000D03*
D16*
X145374000Y-100584000D03*
X147574000Y-100584000D03*
D20*
X147668000Y-86487000D03*
X147668000Y-87757000D03*
X147668000Y-89027000D03*
X147668000Y-90297000D03*
X153068000Y-90297000D03*
X153068000Y-89027000D03*
X153068000Y-87757000D03*
X153068000Y-86487000D03*
D21*
X142526000Y-84963000D03*
D22*
X144526000Y-84963000D03*
X142526000Y-86963000D03*
X144526000Y-86963000D03*
X142526000Y-88963000D03*
X144526000Y-88963000D03*
D23*
X142367000Y-103759000D03*
X148717000Y-103759000D03*
D24*
X167106000Y-89535000D03*
X175006000Y-89535000D03*
M02*
