G04 #@! TF.GenerationSoftware,KiCad,Pcbnew,7.0.1-3b83917a11~172~ubuntu20.04.1*
G04 #@! TF.CreationDate,2023-04-02T03:02:38+02:00*
G04 #@! TF.ProjectId,C64Saver2,43363453-6176-4657-9232-2e6b69636164,2.6*
G04 #@! TF.SameCoordinates,Original*
G04 #@! TF.FileFunction,Copper,L2,Bot*
G04 #@! TF.FilePolarity,Positive*
%FSLAX46Y46*%
G04 Gerber Fmt 4.6, Leading zero omitted, Abs format (unit mm)*
G04 Created by KiCad (PCBNEW 7.0.1-3b83917a11~172~ubuntu20.04.1) date 2023-04-02 03:02:38*
%MOMM*%
%LPD*%
G01*
G04 APERTURE LIST*
G04 #@! TA.AperFunction,ComponentPad*
%ADD10R,3.000000X3.000000*%
G04 #@! TD*
G04 #@! TA.AperFunction,ComponentPad*
%ADD11C,3.000000*%
G04 #@! TD*
G04 #@! TA.AperFunction,ComponentPad*
%ADD12R,1.700000X1.700000*%
G04 #@! TD*
G04 #@! TA.AperFunction,ComponentPad*
%ADD13O,1.700000X1.700000*%
G04 #@! TD*
G04 #@! TA.AperFunction,ViaPad*
%ADD14C,0.600000*%
G04 #@! TD*
G04 #@! TA.AperFunction,Conductor*
%ADD15C,2.000000*%
G04 #@! TD*
G04 #@! TA.AperFunction,Conductor*
%ADD16C,1.000000*%
G04 #@! TD*
G04 #@! TA.AperFunction,Conductor*
%ADD17C,0.254000*%
G04 #@! TD*
G04 #@! TA.AperFunction,Conductor*
%ADD18C,0.250000*%
G04 #@! TD*
G04 #@! TA.AperFunction,Profile*
%ADD19C,0.150000*%
G04 #@! TD*
G04 APERTURE END LIST*
D10*
X144399000Y-88265000D03*
D11*
X144399000Y-93345000D03*
X144399000Y-98425000D03*
X144399000Y-103505000D03*
D10*
X180340000Y-108204000D03*
D11*
X180340000Y-103124000D03*
X180340000Y-98044000D03*
X180340000Y-92964000D03*
D12*
X157480000Y-86360000D03*
D13*
X160020000Y-86360000D03*
X162560000Y-86360000D03*
X165100000Y-86360000D03*
X167640000Y-86360000D03*
X170180000Y-86360000D03*
X172720000Y-86360000D03*
X175260000Y-86360000D03*
D12*
X148590000Y-110490000D03*
D13*
X151130000Y-110490000D03*
X153670000Y-110490000D03*
X156210000Y-110490000D03*
X158750000Y-110490000D03*
X161290000Y-110490000D03*
X163830000Y-110490000D03*
X166370000Y-110490000D03*
D12*
X160020000Y-107950000D03*
D13*
X162560000Y-107950000D03*
X165100000Y-107950000D03*
X167640000Y-107950000D03*
D12*
X151252000Y-98425000D03*
D13*
X153792000Y-98425000D03*
D12*
X151252000Y-102108000D03*
D13*
X153792000Y-102108000D03*
D14*
X155575000Y-99441000D03*
X156591000Y-101219000D03*
X165862000Y-99441000D03*
X163576000Y-99568000D03*
X155913460Y-101875270D03*
X152908000Y-103632000D03*
D15*
X157480000Y-86360000D02*
X165100000Y-86360000D01*
D16*
X175431706Y-105512608D02*
X182967892Y-105512608D01*
X182967892Y-100417892D02*
X180594000Y-98044000D01*
X182967892Y-105512608D02*
X182967892Y-100417892D01*
X167640000Y-107950000D02*
X170277392Y-105312608D01*
X175231706Y-105312608D02*
X175431706Y-105512608D01*
X170277392Y-105312608D02*
X175231706Y-105312608D01*
D17*
X155575000Y-99441000D02*
X156591000Y-100584000D01*
X156591000Y-100584000D02*
X156591000Y-101219000D01*
D15*
X170180000Y-86360000D02*
X167640000Y-86360000D01*
X175260000Y-86360000D02*
X172720000Y-86360000D01*
X172720000Y-86360000D02*
X170180000Y-86360000D01*
D18*
X163576000Y-99568000D02*
X165735000Y-99568000D01*
X165735000Y-99568000D02*
X165862000Y-99441000D01*
D15*
X169790001Y-108982001D02*
X168282002Y-110490000D01*
X174811342Y-108204000D02*
X173719961Y-107112619D01*
X169790001Y-108402577D02*
X169790001Y-108982001D01*
X167572081Y-110490000D02*
X166370000Y-110490000D01*
X163830000Y-110490000D02*
X161290000Y-110490000D01*
X180594000Y-108204000D02*
X174811342Y-108204000D01*
X171079959Y-107112619D02*
X169790001Y-108402577D01*
X173719961Y-107112619D02*
X171079959Y-107112619D01*
X168282002Y-110490000D02*
X167572081Y-110490000D01*
X161290000Y-110490000D02*
X158750000Y-110490000D01*
X166370000Y-110490000D02*
X163830000Y-110490000D01*
X151003000Y-107823000D02*
X151130000Y-107950000D01*
X160020000Y-106426000D02*
X160020000Y-107950000D01*
X163322000Y-103124000D02*
X160020000Y-106426000D01*
X144399000Y-98425000D02*
X145415000Y-100203000D01*
X180594000Y-103124000D02*
X163322000Y-103124000D01*
X151130000Y-107950000D02*
X160020000Y-107950000D01*
X151003000Y-105844734D02*
X151003000Y-107823000D01*
X145415000Y-100203000D02*
X151003000Y-105844734D01*
X148590000Y-106683720D02*
X148590000Y-110490000D01*
X153670000Y-110490000D02*
X151130000Y-110490000D01*
X151130000Y-110490000D02*
X148590000Y-110490000D01*
X144399000Y-103505000D02*
X145411280Y-103505000D01*
X145411280Y-103505000D02*
X148590000Y-106683720D01*
X156210000Y-110490000D02*
X153670000Y-110490000D01*
D17*
X154813000Y-104013000D02*
X155302547Y-103523453D01*
X155302547Y-102486183D02*
X155913460Y-101875270D01*
X155302547Y-103523453D02*
X155302547Y-102486183D01*
X153289000Y-104013000D02*
X154813000Y-104013000D01*
X152908000Y-103632000D02*
X153289000Y-104013000D01*
G04 #@! TA.AperFunction,Conductor*
G36*
X178042500Y-83785381D02*
G01*
X178088619Y-83831500D01*
X178105500Y-83894500D01*
X178105500Y-89870470D01*
X178103586Y-89892350D01*
X178101875Y-89902047D01*
X178103586Y-89911746D01*
X178105128Y-89929373D01*
X178109707Y-89946467D01*
X178111418Y-89956171D01*
X178114935Y-89962262D01*
X178119452Y-89967645D01*
X178127982Y-89972570D01*
X178145972Y-89985167D01*
X178153518Y-89991499D01*
X178153519Y-89991499D01*
X178153520Y-89991500D01*
X178153521Y-89991500D01*
X178160123Y-89993903D01*
X178167047Y-89995124D01*
X178167047Y-89995123D01*
X178167048Y-89995124D01*
X178176746Y-89993413D01*
X178198625Y-89991500D01*
X184202500Y-89991500D01*
X184265500Y-90008381D01*
X184311619Y-90054500D01*
X184328500Y-90117500D01*
X184328500Y-101091006D01*
X184311560Y-101154108D01*
X184265296Y-101200243D01*
X184202146Y-101217005D01*
X184052024Y-101216584D01*
X157292677Y-101141416D01*
X157244595Y-101131734D01*
X157203852Y-101104428D01*
X157176622Y-101063634D01*
X157163354Y-101031603D01*
X157115536Y-100916159D01*
X157044537Y-100823631D01*
X157025187Y-100787428D01*
X157018500Y-100746927D01*
X157018500Y-100631431D01*
X157020337Y-100609995D01*
X157020484Y-100609141D01*
X157023231Y-100593232D01*
X157019535Y-100564571D01*
X157018892Y-100554563D01*
X157018500Y-100551961D01*
X157014598Y-100526080D01*
X157014246Y-100523566D01*
X157006749Y-100465420D01*
X157006748Y-100465419D01*
X157006151Y-100460783D01*
X157004122Y-100456569D01*
X156978715Y-100403812D01*
X156977597Y-100401423D01*
X156951387Y-100343887D01*
X156908388Y-100297546D01*
X156906578Y-100295553D01*
X156259865Y-99568000D01*
X162970318Y-99568000D01*
X162970922Y-99572585D01*
X162990955Y-99724761D01*
X163051464Y-99870842D01*
X163147717Y-99996282D01*
X163273157Y-100092535D01*
X163273158Y-100092535D01*
X163273159Y-100092536D01*
X163419238Y-100153044D01*
X163576000Y-100173682D01*
X163732762Y-100153044D01*
X163878841Y-100092536D01*
X163878841Y-100092535D01*
X163878843Y-100092535D01*
X163973975Y-100019538D01*
X164010178Y-100000187D01*
X164050679Y-99993500D01*
X165601607Y-99993500D01*
X165649823Y-100003090D01*
X165705238Y-100026044D01*
X165862000Y-100046682D01*
X166018762Y-100026044D01*
X166164841Y-99965536D01*
X166290282Y-99869282D01*
X166386536Y-99743841D01*
X166432658Y-99632494D01*
X179110715Y-99632494D01*
X179179321Y-99688310D01*
X179414026Y-99831036D01*
X179665989Y-99940480D01*
X179930513Y-100014596D01*
X180202645Y-100052000D01*
X180477355Y-100052000D01*
X180749486Y-100014596D01*
X181014010Y-99940480D01*
X181265970Y-99831038D01*
X181500681Y-99688307D01*
X181569283Y-99632493D01*
X181569283Y-99632492D01*
X180340001Y-98403210D01*
X180339999Y-98403210D01*
X179110715Y-99632492D01*
X179110715Y-99632494D01*
X166432658Y-99632494D01*
X166447044Y-99597762D01*
X166467682Y-99441000D01*
X166447044Y-99284238D01*
X166386536Y-99138159D01*
X166386535Y-99138158D01*
X166386535Y-99138157D01*
X166290282Y-99012717D01*
X166164842Y-98916464D01*
X166018761Y-98855955D01*
X165862000Y-98835318D01*
X165705238Y-98855955D01*
X165559157Y-98916464D01*
X165433719Y-99012716D01*
X165371958Y-99093205D01*
X165327724Y-99129506D01*
X165271996Y-99142500D01*
X164050679Y-99142500D01*
X164010178Y-99135813D01*
X163973975Y-99116462D01*
X163878843Y-99043464D01*
X163732761Y-98982955D01*
X163576000Y-98962318D01*
X163419238Y-98982955D01*
X163273157Y-99043464D01*
X163147717Y-99139717D01*
X163051464Y-99265157D01*
X162990955Y-99411238D01*
X162970318Y-99567999D01*
X162970318Y-99568000D01*
X156259865Y-99568000D01*
X156212240Y-99514422D01*
X156191820Y-99483097D01*
X156181492Y-99447158D01*
X156180681Y-99441002D01*
X156180682Y-99441000D01*
X156160044Y-99284238D01*
X156099536Y-99138159D01*
X156099535Y-99138158D01*
X156099535Y-99138157D01*
X156003282Y-99012717D01*
X155877842Y-98916464D01*
X155731761Y-98855955D01*
X155575000Y-98835318D01*
X155418238Y-98855955D01*
X155272157Y-98916464D01*
X155146717Y-99012717D01*
X155050464Y-99138157D01*
X154989955Y-99284238D01*
X154969318Y-99441000D01*
X154989955Y-99597761D01*
X155050464Y-99743842D01*
X155146717Y-99869282D01*
X155272156Y-99965535D01*
X155326119Y-99987887D01*
X155418238Y-100026044D01*
X155490415Y-100035545D01*
X155532991Y-100049146D01*
X155568141Y-100076756D01*
X155654297Y-100173682D01*
X156112106Y-100688717D01*
X156139492Y-100739273D01*
X156141566Y-100796732D01*
X156117895Y-100849130D01*
X156066465Y-100916156D01*
X156007008Y-101059696D01*
X155979611Y-101100656D01*
X155938599Y-101127976D01*
X155890245Y-101137477D01*
X154438932Y-101133401D01*
X154372955Y-101114528D01*
X154307020Y-101073702D01*
X154108198Y-100996679D01*
X154014806Y-100979221D01*
X153898610Y-100957500D01*
X153685390Y-100957500D01*
X153569194Y-100979221D01*
X153475801Y-100996679D01*
X153385652Y-101031603D01*
X153276981Y-101073702D01*
X153276980Y-101073702D01*
X153276979Y-101073703D01*
X153216887Y-101110909D01*
X153150205Y-101129780D01*
X152448617Y-101127809D01*
X152400589Y-101118150D01*
X152359876Y-101090904D01*
X152274766Y-101005794D01*
X152171992Y-100960415D01*
X152166965Y-100959831D01*
X152146865Y-100957500D01*
X152146861Y-100957500D01*
X150357134Y-100957500D01*
X150332009Y-100960414D01*
X150229234Y-101005794D01*
X150150828Y-101084200D01*
X150109787Y-101111581D01*
X150061379Y-101121104D01*
X148201823Y-101115881D01*
X148153517Y-101106106D01*
X148112658Y-101078550D01*
X146470972Y-99421078D01*
X146451094Y-99394924D01*
X146423739Y-99347052D01*
X146408204Y-99319865D01*
X150101500Y-99319865D01*
X150104414Y-99344990D01*
X150149794Y-99447766D01*
X150229233Y-99527205D01*
X150229234Y-99527205D01*
X150229235Y-99527206D01*
X150332009Y-99572585D01*
X150357135Y-99575500D01*
X152146864Y-99575499D01*
X152146865Y-99575499D01*
X152159427Y-99574041D01*
X152171991Y-99572585D01*
X152274765Y-99527206D01*
X152354206Y-99447765D01*
X152399585Y-99344991D01*
X152402500Y-99319865D01*
X152402499Y-98624305D01*
X152418422Y-98562996D01*
X152462168Y-98517181D01*
X152522679Y-98498442D01*
X152584661Y-98511517D01*
X152632448Y-98553099D01*
X152653961Y-98612680D01*
X152656243Y-98637307D01*
X152714594Y-98842387D01*
X152809635Y-99033257D01*
X152872470Y-99116462D01*
X152938128Y-99203407D01*
X153093436Y-99344990D01*
X153095698Y-99347052D01*
X153276978Y-99459297D01*
X153276981Y-99459298D01*
X153475802Y-99536321D01*
X153685390Y-99575500D01*
X153898608Y-99575500D01*
X153898610Y-99575500D01*
X154108198Y-99536321D01*
X154307019Y-99459298D01*
X154325646Y-99447765D01*
X154410986Y-99394924D01*
X154488302Y-99347052D01*
X154645872Y-99203407D01*
X154774366Y-99033255D01*
X154869405Y-98842389D01*
X154927756Y-98637310D01*
X154947429Y-98425000D01*
X154927756Y-98212690D01*
X154879759Y-98044000D01*
X178327308Y-98044000D01*
X178346053Y-98318056D01*
X178401945Y-98587020D01*
X178493936Y-98845860D01*
X178620318Y-99089765D01*
X178750540Y-99274248D01*
X178750541Y-99274248D01*
X179980790Y-98044001D01*
X180699210Y-98044001D01*
X181929457Y-99274247D01*
X182059683Y-99089761D01*
X182186063Y-98845860D01*
X182278054Y-98587020D01*
X182333946Y-98318056D01*
X182352691Y-98044000D01*
X182333946Y-97769943D01*
X182278054Y-97500979D01*
X182186063Y-97242139D01*
X182059683Y-96998238D01*
X181929457Y-96813750D01*
X180699210Y-98043999D01*
X180699210Y-98044001D01*
X179980790Y-98044001D01*
X179980790Y-98043999D01*
X178750541Y-96813750D01*
X178620316Y-96998240D01*
X178493936Y-97242139D01*
X178401945Y-97500979D01*
X178346053Y-97769943D01*
X178327308Y-98044000D01*
X154879759Y-98044000D01*
X154869405Y-98007611D01*
X154774366Y-97816745D01*
X154645872Y-97646593D01*
X154488302Y-97502948D01*
X154488301Y-97502947D01*
X154307021Y-97390702D01*
X154108198Y-97313679D01*
X153898610Y-97274500D01*
X153685390Y-97274500D01*
X153545664Y-97300619D01*
X153475801Y-97313679D01*
X153276978Y-97390702D01*
X153095698Y-97502947D01*
X152938127Y-97646594D01*
X152809635Y-97816742D01*
X152714594Y-98007612D01*
X152656243Y-98212693D01*
X152653961Y-98237321D01*
X152632448Y-98296902D01*
X152584661Y-98338485D01*
X152522679Y-98351560D01*
X152462168Y-98332821D01*
X152418422Y-98287006D01*
X152402499Y-98225694D01*
X152402499Y-97530134D01*
X152399585Y-97505009D01*
X152354205Y-97402233D01*
X152274766Y-97322794D01*
X152171992Y-97277415D01*
X152166965Y-97276832D01*
X152146865Y-97274500D01*
X152146861Y-97274500D01*
X150357134Y-97274500D01*
X150332009Y-97277414D01*
X150229233Y-97322794D01*
X150149794Y-97402233D01*
X150104415Y-97505007D01*
X150101500Y-97530138D01*
X150101500Y-99319865D01*
X146408204Y-99319865D01*
X146170578Y-98904021D01*
X146155344Y-98860011D01*
X146157137Y-98813471D01*
X146184383Y-98694103D01*
X146204549Y-98425000D01*
X146184383Y-98155897D01*
X146124334Y-97892805D01*
X146025743Y-97641602D01*
X145890815Y-97407898D01*
X145722561Y-97196915D01*
X145524741Y-97013365D01*
X145301775Y-96861349D01*
X145202935Y-96813750D01*
X145058641Y-96744261D01*
X144872197Y-96686751D01*
X144800772Y-96664720D01*
X144533929Y-96624500D01*
X144264071Y-96624500D01*
X143997228Y-96664720D01*
X143997224Y-96664721D01*
X143997225Y-96664721D01*
X143739358Y-96744261D01*
X143496225Y-96861349D01*
X143273258Y-97013364D01*
X143075442Y-97196912D01*
X143075439Y-97196915D01*
X142907185Y-97407898D01*
X142907183Y-97407901D01*
X142772258Y-97641599D01*
X142673665Y-97892806D01*
X142613617Y-98155894D01*
X142593451Y-98425000D01*
X142613617Y-98694105D01*
X142673665Y-98957193D01*
X142695457Y-99012716D01*
X142772257Y-99208398D01*
X142907185Y-99442102D01*
X143075439Y-99653085D01*
X143166012Y-99737124D01*
X143273258Y-99836635D01*
X143425274Y-99940276D01*
X143496226Y-99988651D01*
X143593602Y-100035545D01*
X143739358Y-100105738D01*
X143840154Y-100136829D01*
X143881794Y-100158895D01*
X143912414Y-100194717D01*
X144286364Y-100849130D01*
X144286448Y-100849276D01*
X144324663Y-100916204D01*
X144341242Y-100979221D01*
X144324122Y-101042094D01*
X144277882Y-101088007D01*
X144214889Y-101104680D01*
X140663146Y-101094705D01*
X140600296Y-101077706D01*
X140554322Y-101031603D01*
X140537500Y-100968705D01*
X140537500Y-96455505D01*
X179110714Y-96455505D01*
X180339999Y-97684790D01*
X180340000Y-97684790D01*
X181569283Y-96455504D01*
X181500678Y-96399689D01*
X181265973Y-96256963D01*
X181014010Y-96147519D01*
X180749486Y-96073403D01*
X180477355Y-96036000D01*
X180202645Y-96036000D01*
X179930513Y-96073403D01*
X179665989Y-96147519D01*
X179414026Y-96256963D01*
X179179322Y-96399689D01*
X179110715Y-96455505D01*
X179110714Y-96455505D01*
X140537500Y-96455505D01*
X140537500Y-94933494D01*
X143169715Y-94933494D01*
X143238321Y-94989310D01*
X143473026Y-95132036D01*
X143724989Y-95241480D01*
X143989513Y-95315596D01*
X144261645Y-95353000D01*
X144536355Y-95353000D01*
X144808486Y-95315596D01*
X145073010Y-95241480D01*
X145324970Y-95132038D01*
X145559681Y-94989307D01*
X145628283Y-94933493D01*
X145628283Y-94933492D01*
X144399001Y-93704210D01*
X144398999Y-93704210D01*
X143169715Y-94933492D01*
X143169715Y-94933494D01*
X140537500Y-94933494D01*
X140537500Y-93345000D01*
X142386308Y-93345000D01*
X142405053Y-93619056D01*
X142460945Y-93888020D01*
X142552936Y-94146860D01*
X142679318Y-94390765D01*
X142809540Y-94575248D01*
X142809541Y-94575248D01*
X144039790Y-93345001D01*
X144758210Y-93345001D01*
X145988457Y-94575247D01*
X146118683Y-94390761D01*
X146245063Y-94146860D01*
X146337054Y-93888020D01*
X146392946Y-93619056D01*
X146411691Y-93345000D01*
X146392946Y-93070943D01*
X146370723Y-92963999D01*
X178534451Y-92963999D01*
X178554617Y-93233105D01*
X178614665Y-93496193D01*
X178614666Y-93496195D01*
X178713257Y-93747398D01*
X178848185Y-93981102D01*
X179016439Y-94192085D01*
X179107012Y-94276124D01*
X179214258Y-94375635D01*
X179366273Y-94479276D01*
X179437226Y-94527651D01*
X179536060Y-94575247D01*
X179680358Y-94644738D01*
X179737868Y-94662477D01*
X179938228Y-94724280D01*
X180205071Y-94764500D01*
X180474927Y-94764500D01*
X180474929Y-94764500D01*
X180741772Y-94724280D01*
X180999641Y-94644738D01*
X181242775Y-94527651D01*
X181465741Y-94375635D01*
X181663561Y-94192085D01*
X181831815Y-93981102D01*
X181966743Y-93747398D01*
X182065334Y-93496195D01*
X182125383Y-93233103D01*
X182145549Y-92964000D01*
X182125383Y-92694897D01*
X182065334Y-92431805D01*
X181966743Y-92180602D01*
X181831815Y-91946898D01*
X181663561Y-91735915D01*
X181465741Y-91552365D01*
X181242775Y-91400349D01*
X181188898Y-91374403D01*
X180999641Y-91283261D01*
X180813197Y-91225751D01*
X180741772Y-91203720D01*
X180474929Y-91163500D01*
X180205071Y-91163500D01*
X179938228Y-91203720D01*
X179938224Y-91203721D01*
X179938225Y-91203721D01*
X179680358Y-91283261D01*
X179437225Y-91400349D01*
X179214258Y-91552364D01*
X179016442Y-91735912D01*
X179016439Y-91735915D01*
X178848185Y-91946898D01*
X178848183Y-91946901D01*
X178713258Y-92180599D01*
X178614665Y-92431806D01*
X178554617Y-92694894D01*
X178534451Y-92963999D01*
X146370723Y-92963999D01*
X146337054Y-92801979D01*
X146245063Y-92543139D01*
X146118683Y-92299238D01*
X145988457Y-92114750D01*
X144758210Y-93344999D01*
X144758210Y-93345001D01*
X144039790Y-93345001D01*
X144039790Y-93344999D01*
X142809541Y-92114750D01*
X142679316Y-92299240D01*
X142552936Y-92543139D01*
X142460945Y-92801979D01*
X142405053Y-93070943D01*
X142386308Y-93345000D01*
X140537500Y-93345000D01*
X140537500Y-91756505D01*
X143169714Y-91756505D01*
X144398999Y-92985790D01*
X144399000Y-92985790D01*
X145628283Y-91756504D01*
X145559678Y-91700689D01*
X145324973Y-91557963D01*
X145073010Y-91448519D01*
X144808486Y-91374403D01*
X144536355Y-91337000D01*
X144261645Y-91337000D01*
X143989513Y-91374403D01*
X143724989Y-91448519D01*
X143473026Y-91557963D01*
X143238322Y-91700689D01*
X143169715Y-91756505D01*
X143169714Y-91756505D01*
X140537500Y-91756505D01*
X140537500Y-89809865D01*
X142598500Y-89809865D01*
X142601414Y-89834990D01*
X142646794Y-89937766D01*
X142726233Y-90017205D01*
X142726234Y-90017205D01*
X142726235Y-90017206D01*
X142829009Y-90062585D01*
X142854135Y-90065500D01*
X145943864Y-90065499D01*
X145943865Y-90065499D01*
X145956427Y-90064041D01*
X145968991Y-90062585D01*
X146071765Y-90017206D01*
X146151206Y-89937765D01*
X146196585Y-89834991D01*
X146199500Y-89809865D01*
X146199499Y-86720136D01*
X146196585Y-86695009D01*
X146151206Y-86592235D01*
X146151205Y-86592234D01*
X146151205Y-86592233D01*
X146071766Y-86512794D01*
X145968992Y-86467415D01*
X145962709Y-86466686D01*
X145943865Y-86464500D01*
X145943862Y-86464500D01*
X142854134Y-86464500D01*
X142829009Y-86467414D01*
X142726233Y-86512794D01*
X142646794Y-86592233D01*
X142601415Y-86695007D01*
X142598500Y-86720137D01*
X142598500Y-89809865D01*
X140537500Y-89809865D01*
X140537500Y-86432833D01*
X150150803Y-86432833D01*
X150179705Y-86720136D01*
X150180962Y-86732622D01*
X150250811Y-87025721D01*
X150359103Y-87306894D01*
X150444216Y-87462206D01*
X150503906Y-87571127D01*
X150682632Y-87813696D01*
X150682634Y-87813698D01*
X150892100Y-88030284D01*
X151128565Y-88217018D01*
X151387810Y-88370569D01*
X151537446Y-88434020D01*
X151665208Y-88488196D01*
X151955806Y-88567800D01*
X152142237Y-88592872D01*
X152254427Y-88607960D01*
X152480319Y-88607960D01*
X152480324Y-88607960D01*
X152705714Y-88592872D01*
X153000983Y-88532856D01*
X153285617Y-88434020D01*
X153554539Y-88298128D01*
X153802949Y-88127604D01*
X154026413Y-87925492D01*
X154220945Y-87695399D01*
X154220947Y-87695397D01*
X154369810Y-87462206D01*
X154383073Y-87441430D01*
X154509903Y-87168118D01*
X154599173Y-86880339D01*
X154649289Y-86583230D01*
X154656752Y-86360000D01*
X156174532Y-86360000D01*
X156194365Y-86586692D01*
X156253260Y-86806496D01*
X156317695Y-86944675D01*
X156329500Y-86997925D01*
X156329500Y-87254865D01*
X156332414Y-87279990D01*
X156377794Y-87382766D01*
X156457233Y-87462205D01*
X156457234Y-87462205D01*
X156457235Y-87462206D01*
X156560009Y-87507585D01*
X156585135Y-87510500D01*
X156842075Y-87510499D01*
X156895324Y-87522303D01*
X157033504Y-87586739D01*
X157253308Y-87645635D01*
X157423216Y-87660500D01*
X165156779Y-87660500D01*
X165156784Y-87660500D01*
X165326692Y-87645635D01*
X165546496Y-87586739D01*
X165752734Y-87490568D01*
X165939139Y-87360047D01*
X166100047Y-87199139D01*
X166230568Y-87012734D01*
X166255805Y-86958612D01*
X166302300Y-86905596D01*
X166370000Y-86885863D01*
X166437700Y-86905596D01*
X166484194Y-86958612D01*
X166491902Y-86975142D01*
X166509432Y-87012735D01*
X166518526Y-87025722D01*
X166639953Y-87199139D01*
X166800861Y-87360047D01*
X166987266Y-87490568D01*
X167193504Y-87586739D01*
X167413308Y-87645635D01*
X167583216Y-87660500D01*
X170123216Y-87660500D01*
X170236784Y-87660500D01*
X172663216Y-87660500D01*
X172776784Y-87660500D01*
X175316779Y-87660500D01*
X175316784Y-87660500D01*
X175486692Y-87645635D01*
X175706496Y-87586739D01*
X175912734Y-87490568D01*
X176099139Y-87360047D01*
X176260047Y-87199139D01*
X176390568Y-87012734D01*
X176486739Y-86806496D01*
X176545635Y-86586692D01*
X176565468Y-86360000D01*
X176545635Y-86133308D01*
X176486739Y-85913504D01*
X176390568Y-85707266D01*
X176260047Y-85520861D01*
X176099139Y-85359953D01*
X175912734Y-85229432D01*
X175869990Y-85209500D01*
X175706495Y-85133260D01*
X175486692Y-85074365D01*
X175486691Y-85074364D01*
X175316784Y-85059500D01*
X172776784Y-85059500D01*
X170236784Y-85059500D01*
X167583216Y-85059500D01*
X167441625Y-85071887D01*
X167413307Y-85074365D01*
X167193504Y-85133260D01*
X166987265Y-85229432D01*
X166800858Y-85359955D01*
X166639955Y-85520858D01*
X166509430Y-85707267D01*
X166484194Y-85761387D01*
X166437699Y-85814404D01*
X166370000Y-85834136D01*
X166302301Y-85814404D01*
X166255806Y-85761387D01*
X166230569Y-85707267D01*
X166197937Y-85660664D01*
X166100047Y-85520861D01*
X165939139Y-85359953D01*
X165752734Y-85229432D01*
X165709990Y-85209500D01*
X165546495Y-85133260D01*
X165326692Y-85074365D01*
X165326691Y-85074364D01*
X165156784Y-85059500D01*
X157423216Y-85059500D01*
X157281625Y-85071887D01*
X157253307Y-85074365D01*
X157033501Y-85133261D01*
X156895322Y-85197695D01*
X156842073Y-85209500D01*
X156585134Y-85209500D01*
X156560009Y-85212414D01*
X156457233Y-85257794D01*
X156377794Y-85337233D01*
X156332415Y-85440007D01*
X156329500Y-85465138D01*
X156329500Y-85722075D01*
X156317695Y-85775325D01*
X156253260Y-85913503D01*
X156194365Y-86133307D01*
X156174532Y-86360000D01*
X154656752Y-86360000D01*
X154659357Y-86282091D01*
X154629198Y-85982298D01*
X154559349Y-85689199D01*
X154451057Y-85408026D01*
X154306255Y-85143795D01*
X154306253Y-85143792D01*
X154127527Y-84901223D01*
X154019407Y-84789428D01*
X153918060Y-84684636D01*
X153681595Y-84497902D01*
X153422350Y-84344351D01*
X153422347Y-84344350D01*
X153422346Y-84344349D01*
X153144951Y-84226723D01*
X152854353Y-84147119D01*
X152584347Y-84110808D01*
X152555733Y-84106960D01*
X152329836Y-84106960D01*
X152217141Y-84114503D01*
X152104441Y-84122048D01*
X151809176Y-84182063D01*
X151524542Y-84280899D01*
X151255625Y-84416789D01*
X151007210Y-84587316D01*
X150783745Y-84789429D01*
X150589212Y-85019522D01*
X150427087Y-85273488D01*
X150300258Y-85546798D01*
X150210986Y-85834581D01*
X150160871Y-86131687D01*
X150150803Y-86432833D01*
X140537500Y-86432833D01*
X140537500Y-83894500D01*
X140554381Y-83831500D01*
X140600500Y-83785381D01*
X140663500Y-83768500D01*
X177979500Y-83768500D01*
X178042500Y-83785381D01*
G37*
G04 #@! TD.AperFunction*
D19*
X146685000Y-106299000D02*
X140462000Y-106299000D01*
X184404000Y-89916000D02*
X184404000Y-112522000D01*
X140462000Y-106299000D02*
X140462000Y-83693000D01*
X178181000Y-83693000D02*
X178181000Y-89916000D01*
X140462000Y-83693000D02*
X178181000Y-83693000D01*
X184404000Y-112522000D02*
X146685000Y-112522000D01*
X178181000Y-89916000D02*
X184404000Y-89916000D01*
X146685000Y-112522000D02*
X146685000Y-106299000D01*
M02*
