G04 #@! TF.GenerationSoftware,KiCad,Pcbnew,5.1.4+dfsg1-1*
G04 #@! TF.CreationDate,2020-09-13T01:28:56+02:00*
G04 #@! TF.ProjectId,C64Saver2,43363453-6176-4657-9232-2e6b69636164,rev?*
G04 #@! TF.SameCoordinates,Original*
G04 #@! TF.FileFunction,Legend,Bot*
G04 #@! TF.FilePolarity,Positive*
%FSLAX46Y46*%
G04 Gerber Fmt 4.6, Leading zero omitted, Abs format (unit mm)*
G04 Created by KiCad (PCBNEW 5.1.4+dfsg1-1) date 2020-09-13 01:28:56*
%MOMM*%
%LPD*%
G04 APERTURE LIST*
%ADD10C,0.300000*%
%ADD11C,0.150000*%
%ADD12C,0.250000*%
G04 APERTURE END LIST*
D10*
X152000000Y-101428571D02*
X151714285Y-101428571D01*
X151571428Y-101500000D01*
X151428571Y-101642857D01*
X151357142Y-101928571D01*
X151357142Y-102428571D01*
X151428571Y-102714285D01*
X151571428Y-102857142D01*
X151714285Y-102928571D01*
X152000000Y-102928571D01*
X152142857Y-102857142D01*
X152285714Y-102714285D01*
X152357142Y-102428571D01*
X152357142Y-101928571D01*
X152285714Y-101642857D01*
X152142857Y-101500000D01*
X152000000Y-101428571D01*
X150714285Y-101428571D02*
X150714285Y-102642857D01*
X150642857Y-102785714D01*
X150571428Y-102857142D01*
X150428571Y-102928571D01*
X150142857Y-102928571D01*
X150000000Y-102857142D01*
X149928571Y-102785714D01*
X149857142Y-102642857D01*
X149857142Y-101428571D01*
X149357142Y-101428571D02*
X148500000Y-101428571D01*
X148928571Y-102928571D02*
X148928571Y-101428571D01*
X175791714Y-106678571D02*
X175791714Y-105178571D01*
X175077428Y-106678571D02*
X175077428Y-105178571D01*
X174220285Y-106678571D01*
X174220285Y-105178571D01*
D11*
X140462000Y-106299000D02*
X140462000Y-83693000D01*
X146685000Y-106299000D02*
X140462000Y-106299000D01*
X146685000Y-112522000D02*
X146685000Y-106299000D01*
X184404000Y-112522000D02*
X146685000Y-112522000D01*
X184404000Y-89916000D02*
X184404000Y-112522000D01*
X178181000Y-89916000D02*
X184404000Y-89916000D01*
X178181000Y-83693000D02*
X178181000Y-89916000D01*
X140462000Y-83693000D02*
X178181000Y-83693000D01*
D12*
X165206285Y-91995714D02*
X165277714Y-92067142D01*
X165492000Y-92138571D01*
X165634857Y-92138571D01*
X165849142Y-92067142D01*
X165992000Y-91924285D01*
X166063428Y-91781428D01*
X166134857Y-91495714D01*
X166134857Y-91281428D01*
X166063428Y-90995714D01*
X165992000Y-90852857D01*
X165849142Y-90710000D01*
X165634857Y-90638571D01*
X165492000Y-90638571D01*
X165277714Y-90710000D01*
X165206285Y-90781428D01*
X163920571Y-90638571D02*
X164206285Y-90638571D01*
X164349142Y-90710000D01*
X164420571Y-90781428D01*
X164563428Y-90995714D01*
X164634857Y-91281428D01*
X164634857Y-91852857D01*
X164563428Y-91995714D01*
X164492000Y-92067142D01*
X164349142Y-92138571D01*
X164063428Y-92138571D01*
X163920571Y-92067142D01*
X163849142Y-91995714D01*
X163777714Y-91852857D01*
X163777714Y-91495714D01*
X163849142Y-91352857D01*
X163920571Y-91281428D01*
X164063428Y-91210000D01*
X164349142Y-91210000D01*
X164492000Y-91281428D01*
X164563428Y-91352857D01*
X164634857Y-91495714D01*
X162492000Y-91138571D02*
X162492000Y-92138571D01*
X162849142Y-90567142D02*
X163206285Y-91638571D01*
X162277714Y-91638571D01*
X160634857Y-92067142D02*
X160420571Y-92138571D01*
X160063428Y-92138571D01*
X159920571Y-92067142D01*
X159849142Y-91995714D01*
X159777714Y-91852857D01*
X159777714Y-91710000D01*
X159849142Y-91567142D01*
X159920571Y-91495714D01*
X160063428Y-91424285D01*
X160349142Y-91352857D01*
X160492000Y-91281428D01*
X160563428Y-91210000D01*
X160634857Y-91067142D01*
X160634857Y-90924285D01*
X160563428Y-90781428D01*
X160492000Y-90710000D01*
X160349142Y-90638571D01*
X159992000Y-90638571D01*
X159777714Y-90710000D01*
X158492000Y-92138571D02*
X158492000Y-91352857D01*
X158563428Y-91210000D01*
X158706285Y-91138571D01*
X158992000Y-91138571D01*
X159134857Y-91210000D01*
X158492000Y-92067142D02*
X158634857Y-92138571D01*
X158992000Y-92138571D01*
X159134857Y-92067142D01*
X159206285Y-91924285D01*
X159206285Y-91781428D01*
X159134857Y-91638571D01*
X158992000Y-91567142D01*
X158634857Y-91567142D01*
X158492000Y-91495714D01*
X157920571Y-91138571D02*
X157563428Y-92138571D01*
X157206285Y-91138571D01*
X156063428Y-92067142D02*
X156206285Y-92138571D01*
X156492000Y-92138571D01*
X156634857Y-92067142D01*
X156706285Y-91924285D01*
X156706285Y-91352857D01*
X156634857Y-91210000D01*
X156492000Y-91138571D01*
X156206285Y-91138571D01*
X156063428Y-91210000D01*
X155992000Y-91352857D01*
X155992000Y-91495714D01*
X156706285Y-91638571D01*
X155349142Y-92138571D02*
X155349142Y-91138571D01*
X155349142Y-91424285D02*
X155277714Y-91281428D01*
X155206285Y-91210000D01*
X155063428Y-91138571D01*
X154920571Y-91138571D01*
X153349142Y-90781428D02*
X153277714Y-90710000D01*
X153134857Y-90638571D01*
X152777714Y-90638571D01*
X152634857Y-90710000D01*
X152563428Y-90781428D01*
X152492000Y-90924285D01*
X152492000Y-91067142D01*
X152563428Y-91281428D01*
X153420571Y-92138571D01*
X152492000Y-92138571D01*
X151849142Y-91995714D02*
X151777714Y-92067142D01*
X151849142Y-92138571D01*
X151920571Y-92067142D01*
X151849142Y-91995714D01*
X151849142Y-92138571D01*
X150420571Y-90638571D02*
X151134857Y-90638571D01*
X151206285Y-91352857D01*
X151134857Y-91281428D01*
X150992000Y-91210000D01*
X150634857Y-91210000D01*
X150492000Y-91281428D01*
X150420571Y-91352857D01*
X150349142Y-91495714D01*
X150349142Y-91852857D01*
X150420571Y-91995714D01*
X150492000Y-92067142D01*
X150634857Y-92138571D01*
X150992000Y-92138571D01*
X151134857Y-92067142D01*
X151206285Y-91995714D01*
X164563428Y-93852857D02*
X164349142Y-93924285D01*
X164277714Y-93995714D01*
X164206285Y-94138571D01*
X164206285Y-94352857D01*
X164277714Y-94495714D01*
X164349142Y-94567142D01*
X164492000Y-94638571D01*
X165063428Y-94638571D01*
X165063428Y-93138571D01*
X164563428Y-93138571D01*
X164420571Y-93210000D01*
X164349142Y-93281428D01*
X164277714Y-93424285D01*
X164277714Y-93567142D01*
X164349142Y-93710000D01*
X164420571Y-93781428D01*
X164563428Y-93852857D01*
X165063428Y-93852857D01*
X163706285Y-93138571D02*
X163349142Y-94638571D01*
X163063428Y-93567142D01*
X162777714Y-94638571D01*
X162420571Y-93138571D01*
X161920571Y-94210000D02*
X161206285Y-94210000D01*
X162063428Y-94638571D02*
X161563428Y-93138571D01*
X161063428Y-94638571D01*
X159706285Y-94495714D02*
X159777714Y-94567142D01*
X159992000Y-94638571D01*
X160134857Y-94638571D01*
X160349142Y-94567142D01*
X160492000Y-94424285D01*
X160563428Y-94281428D01*
X160634857Y-93995714D01*
X160634857Y-93781428D01*
X160563428Y-93495714D01*
X160492000Y-93352857D01*
X160349142Y-93210000D01*
X160134857Y-93138571D01*
X159992000Y-93138571D01*
X159777714Y-93210000D01*
X159706285Y-93281428D01*
X159063428Y-94638571D02*
X159063428Y-93138571D01*
X158206285Y-94638571D02*
X158849142Y-93781428D01*
X158206285Y-93138571D02*
X159063428Y-93995714D01*
X156492000Y-93281428D02*
X156420571Y-93210000D01*
X156277714Y-93138571D01*
X155920571Y-93138571D01*
X155777714Y-93210000D01*
X155706285Y-93281428D01*
X155634857Y-93424285D01*
X155634857Y-93567142D01*
X155706285Y-93781428D01*
X156563428Y-94638571D01*
X155634857Y-94638571D01*
X154706285Y-93138571D02*
X154563428Y-93138571D01*
X154420571Y-93210000D01*
X154349142Y-93281428D01*
X154277714Y-93424285D01*
X154206285Y-93710000D01*
X154206285Y-94067142D01*
X154277714Y-94352857D01*
X154349142Y-94495714D01*
X154420571Y-94567142D01*
X154563428Y-94638571D01*
X154706285Y-94638571D01*
X154849142Y-94567142D01*
X154920571Y-94495714D01*
X154992000Y-94352857D01*
X155063428Y-94067142D01*
X155063428Y-93710000D01*
X154992000Y-93424285D01*
X154920571Y-93281428D01*
X154849142Y-93210000D01*
X154706285Y-93138571D01*
X153634857Y-93281428D02*
X153563428Y-93210000D01*
X153420571Y-93138571D01*
X153063428Y-93138571D01*
X152920571Y-93210000D01*
X152849142Y-93281428D01*
X152777714Y-93424285D01*
X152777714Y-93567142D01*
X152849142Y-93781428D01*
X153706285Y-94638571D01*
X152777714Y-94638571D01*
X151849142Y-93138571D02*
X151706285Y-93138571D01*
X151563428Y-93210000D01*
X151492000Y-93281428D01*
X151420571Y-93424285D01*
X151349142Y-93710000D01*
X151349142Y-94067142D01*
X151420571Y-94352857D01*
X151492000Y-94495714D01*
X151563428Y-94567142D01*
X151706285Y-94638571D01*
X151849142Y-94638571D01*
X151992000Y-94567142D01*
X152063428Y-94495714D01*
X152134857Y-94352857D01*
X152206285Y-94067142D01*
X152206285Y-93710000D01*
X152134857Y-93424285D01*
X152063428Y-93281428D01*
X151992000Y-93210000D01*
X151849142Y-93138571D01*
D10*
X147885476Y-99030476D02*
X147885476Y-99268571D01*
X147825952Y-99387619D01*
X147766428Y-99447142D01*
X147587857Y-99566190D01*
X147349761Y-99625714D01*
X146873571Y-99625714D01*
X146754523Y-99566190D01*
X146695000Y-99506666D01*
X146635476Y-99387619D01*
X146635476Y-99149523D01*
X146695000Y-99030476D01*
X146754523Y-98970952D01*
X146873571Y-98911428D01*
X147171190Y-98911428D01*
X147290238Y-98970952D01*
X147349761Y-99030476D01*
X147409285Y-99149523D01*
X147409285Y-99387619D01*
X147349761Y-99506666D01*
X147290238Y-99566190D01*
X147171190Y-99625714D01*
X146635476Y-99982857D02*
X147885476Y-100399523D01*
X146635476Y-100816190D01*
X147528333Y-101173333D02*
X147528333Y-101768571D01*
X147885476Y-101054285D02*
X146635476Y-101470952D01*
X147885476Y-101887619D01*
X147766428Y-103018571D02*
X147825952Y-102959047D01*
X147885476Y-102780476D01*
X147885476Y-102661428D01*
X147825952Y-102482857D01*
X147706904Y-102363809D01*
X147587857Y-102304285D01*
X147349761Y-102244761D01*
X147171190Y-102244761D01*
X146933095Y-102304285D01*
X146814047Y-102363809D01*
X146695000Y-102482857D01*
X146635476Y-102661428D01*
X146635476Y-102780476D01*
X146695000Y-102959047D01*
X146754523Y-103018571D01*
X146695000Y-92392619D02*
X146635476Y-92273571D01*
X146635476Y-92095000D01*
X146695000Y-91916428D01*
X146814047Y-91797380D01*
X146933095Y-91737857D01*
X147171190Y-91678333D01*
X147349761Y-91678333D01*
X147587857Y-91737857D01*
X147706904Y-91797380D01*
X147825952Y-91916428D01*
X147885476Y-92095000D01*
X147885476Y-92214047D01*
X147825952Y-92392619D01*
X147766428Y-92452142D01*
X147349761Y-92452142D01*
X147349761Y-92214047D01*
X147885476Y-92987857D02*
X146635476Y-92987857D01*
X147885476Y-93702142D01*
X146635476Y-93702142D01*
X147885476Y-94297380D02*
X146635476Y-94297380D01*
X146635476Y-94595000D01*
X146695000Y-94773571D01*
X146814047Y-94892619D01*
X146933095Y-94952142D01*
X147171190Y-95011666D01*
X147349761Y-95011666D01*
X147587857Y-94952142D01*
X147706904Y-94892619D01*
X147825952Y-94773571D01*
X147885476Y-94595000D01*
X147885476Y-94297380D01*
X146635476Y-88153904D02*
X146635476Y-87558666D01*
X147230714Y-87499142D01*
X147171190Y-87558666D01*
X147111666Y-87677714D01*
X147111666Y-87975333D01*
X147171190Y-88094380D01*
X147230714Y-88153904D01*
X147349761Y-88213428D01*
X147647380Y-88213428D01*
X147766428Y-88153904D01*
X147825952Y-88094380D01*
X147885476Y-87975333D01*
X147885476Y-87677714D01*
X147825952Y-87558666D01*
X147766428Y-87499142D01*
X146635476Y-88570571D02*
X147885476Y-88987238D01*
X146635476Y-89403904D01*
X177976523Y-93329095D02*
X177976523Y-93924333D01*
X177381285Y-93983857D01*
X177440809Y-93924333D01*
X177500333Y-93805285D01*
X177500333Y-93507666D01*
X177440809Y-93388619D01*
X177381285Y-93329095D01*
X177262238Y-93269571D01*
X176964619Y-93269571D01*
X176845571Y-93329095D01*
X176786047Y-93388619D01*
X176726523Y-93507666D01*
X176726523Y-93805285D01*
X176786047Y-93924333D01*
X176845571Y-93983857D01*
X177976523Y-92912428D02*
X176726523Y-92495761D01*
X177976523Y-92079095D01*
X177917000Y-98869380D02*
X177976523Y-98988428D01*
X177976523Y-99167000D01*
X177917000Y-99345571D01*
X177797952Y-99464619D01*
X177678904Y-99524142D01*
X177440809Y-99583666D01*
X177262238Y-99583666D01*
X177024142Y-99524142D01*
X176905095Y-99464619D01*
X176786047Y-99345571D01*
X176726523Y-99167000D01*
X176726523Y-99047952D01*
X176786047Y-98869380D01*
X176845571Y-98809857D01*
X177262238Y-98809857D01*
X177262238Y-99047952D01*
X176726523Y-98274142D02*
X177976523Y-98274142D01*
X176726523Y-97559857D01*
X177976523Y-97559857D01*
X176726523Y-96964619D02*
X177976523Y-96964619D01*
X177976523Y-96667000D01*
X177917000Y-96488428D01*
X177797952Y-96369380D01*
X177678904Y-96309857D01*
X177440809Y-96250333D01*
X177262238Y-96250333D01*
X177024142Y-96309857D01*
X176905095Y-96369380D01*
X176786047Y-96488428D01*
X176726523Y-96667000D01*
X176726523Y-96964619D01*
X176726523Y-107217523D02*
X176726523Y-106979428D01*
X176786047Y-106860380D01*
X176845571Y-106800857D01*
X177024142Y-106681809D01*
X177262238Y-106622285D01*
X177738428Y-106622285D01*
X177857476Y-106681809D01*
X177917000Y-106741333D01*
X177976523Y-106860380D01*
X177976523Y-107098476D01*
X177917000Y-107217523D01*
X177857476Y-107277047D01*
X177738428Y-107336571D01*
X177440809Y-107336571D01*
X177321761Y-107277047D01*
X177262238Y-107217523D01*
X177202714Y-107098476D01*
X177202714Y-106860380D01*
X177262238Y-106741333D01*
X177321761Y-106681809D01*
X177440809Y-106622285D01*
X177976523Y-106265142D02*
X176726523Y-105848476D01*
X177976523Y-105431809D01*
X177083666Y-105074666D02*
X177083666Y-104479428D01*
X176726523Y-105193714D02*
X177976523Y-104777047D01*
X176726523Y-104360380D01*
X176845571Y-103229428D02*
X176786047Y-103288952D01*
X176726523Y-103467523D01*
X176726523Y-103586571D01*
X176786047Y-103765142D01*
X176905095Y-103884190D01*
X177024142Y-103943714D01*
X177262238Y-104003238D01*
X177440809Y-104003238D01*
X177678904Y-103943714D01*
X177797952Y-103884190D01*
X177917000Y-103765142D01*
X177976523Y-103586571D01*
X177976523Y-103467523D01*
X177917000Y-103288952D01*
X177857476Y-103229428D01*
M02*
