M48
; DRILL file {KiCad 7.0.1-3b83917a11~172~ubuntu20.04.1} date Sun 02 Apr 2023 03:02:40 CEST
; FORMAT={-:-/ absolute / inch / decimal}
; #@! TF.CreationDate,2023-04-02T03:02:40+02:00
; #@! TF.GenerationSoftware,Kicad,Pcbnew,7.0.1-3b83917a11~172~ubuntu20.04.1
; #@! TF.FileFunction,Plated,1,2,PTH
FMAT,2
INCH
; #@! TA.AperFunction,Plated,PTH,ViaDrill
T1C0.0118
; #@! TA.AperFunction,Plated,PTH,ComponentDrill
T2C0.0394
; #@! TA.AperFunction,Plated,PTH,ComponentDrill
T3C0.0598
%
G90
G05
T1
X6.02Y-4.08
X6.125Y-3.915
X6.1383Y-4.0108
X6.165Y-3.985
X6.44Y-3.92
X6.53Y-3.915
T2
X5.85Y-4.35
X5.95Y-4.35
X5.9548Y-3.875
X5.9548Y-4.02
X6.05Y-4.35
X6.0548Y-3.875
X6.0548Y-4.02
X6.15Y-4.35
X6.2Y-3.4
X6.25Y-4.35
X6.3Y-3.4
X6.3Y-4.25
X6.35Y-4.35
X6.4Y-3.4
X6.4Y-4.25
X6.45Y-4.35
X6.5Y-3.4
X6.5Y-4.25
X6.55Y-4.35
X6.6Y-3.4
X6.6Y-4.25
X6.7Y-3.4
X6.8Y-3.4
X6.9Y-3.4
T3
X5.685Y-3.475
X5.685Y-3.675
X5.685Y-3.875
X5.685Y-4.075
X7.1Y-3.66
X7.1Y-3.86
X7.1Y-4.06
X7.1Y-4.26
T0
M30
