G04 #@! TF.GenerationSoftware,KiCad,Pcbnew,7.0.1-3b83917a11~172~ubuntu20.04.1*
G04 #@! TF.CreationDate,2023-04-02T03:02:38+02:00*
G04 #@! TF.ProjectId,C64Saver2,43363453-6176-4657-9232-2e6b69636164,2.6*
G04 #@! TF.SameCoordinates,Original*
G04 #@! TF.FileFunction,Copper,L1,Top*
G04 #@! TF.FilePolarity,Positive*
%FSLAX46Y46*%
G04 Gerber Fmt 4.6, Leading zero omitted, Abs format (unit mm)*
G04 Created by KiCad (PCBNEW 7.0.1-3b83917a11~172~ubuntu20.04.1) date 2023-04-02 03:02:38*
%MOMM*%
%LPD*%
G01*
G04 APERTURE LIST*
G04 Aperture macros list*
%AMRoundRect*
0 Rectangle with rounded corners*
0 $1 Rounding radius*
0 $2 $3 $4 $5 $6 $7 $8 $9 X,Y pos of 4 corners*
0 Add a 4 corners polygon primitive as box body*
4,1,4,$2,$3,$4,$5,$6,$7,$8,$9,$2,$3,0*
0 Add four circle primitives for the rounded corners*
1,1,$1+$1,$2,$3*
1,1,$1+$1,$4,$5*
1,1,$1+$1,$6,$7*
1,1,$1+$1,$8,$9*
0 Add four rect primitives between the rounded corners*
20,1,$1+$1,$2,$3,$4,$5,0*
20,1,$1+$1,$4,$5,$6,$7,0*
20,1,$1+$1,$6,$7,$8,$9,0*
20,1,$1+$1,$8,$9,$2,$3,0*%
G04 Aperture macros list end*
G04 #@! TA.AperFunction,ComponentPad*
%ADD10R,3.000000X3.000000*%
G04 #@! TD*
G04 #@! TA.AperFunction,ComponentPad*
%ADD11C,3.000000*%
G04 #@! TD*
G04 #@! TA.AperFunction,SMDPad,CuDef*
%ADD12RoundRect,0.250000X-0.550000X1.500000X-0.550000X-1.500000X0.550000X-1.500000X0.550000X1.500000X0*%
G04 #@! TD*
G04 #@! TA.AperFunction,SMDPad,CuDef*
%ADD13R,1.600000X1.500000*%
G04 #@! TD*
G04 #@! TA.AperFunction,SMDPad,CuDef*
%ADD14R,3.200000X3.100000*%
G04 #@! TD*
G04 #@! TA.AperFunction,SMDPad,CuDef*
%ADD15R,6.700000X6.500000*%
G04 #@! TD*
G04 #@! TA.AperFunction,ComponentPad*
%ADD16R,1.700000X1.700000*%
G04 #@! TD*
G04 #@! TA.AperFunction,ComponentPad*
%ADD17O,1.700000X1.700000*%
G04 #@! TD*
G04 #@! TA.AperFunction,SMDPad,CuDef*
%ADD18RoundRect,0.250000X-0.350000X-0.450000X0.350000X-0.450000X0.350000X0.450000X-0.350000X0.450000X0*%
G04 #@! TD*
G04 #@! TA.AperFunction,SMDPad,CuDef*
%ADD19RoundRect,0.250000X0.350000X0.450000X-0.350000X0.450000X-0.350000X-0.450000X0.350000X-0.450000X0*%
G04 #@! TD*
G04 #@! TA.AperFunction,SMDPad,CuDef*
%ADD20R,0.800000X0.900000*%
G04 #@! TD*
G04 #@! TA.AperFunction,SMDPad,CuDef*
%ADD21RoundRect,0.250000X0.325000X0.450000X-0.325000X0.450000X-0.325000X-0.450000X0.325000X-0.450000X0*%
G04 #@! TD*
G04 #@! TA.AperFunction,SMDPad,CuDef*
%ADD22R,0.900000X0.800000*%
G04 #@! TD*
G04 #@! TA.AperFunction,ViaPad*
%ADD23C,0.600000*%
G04 #@! TD*
G04 #@! TA.AperFunction,Conductor*
%ADD24C,2.000000*%
G04 #@! TD*
G04 #@! TA.AperFunction,Conductor*
%ADD25C,0.500000*%
G04 #@! TD*
G04 #@! TA.AperFunction,Conductor*
%ADD26C,0.254000*%
G04 #@! TD*
G04 #@! TA.AperFunction,Conductor*
%ADD27C,0.250000*%
G04 #@! TD*
G04 #@! TA.AperFunction,Conductor*
%ADD28C,3.000000*%
G04 #@! TD*
G04 #@! TA.AperFunction,Profile*
%ADD29C,0.150000*%
G04 #@! TD*
G04 APERTURE END LIST*
D10*
X144399000Y-88265000D03*
D11*
X144399000Y-93345000D03*
X144399000Y-98425000D03*
X144399000Y-103505000D03*
D10*
X180340000Y-108204000D03*
D11*
X180340000Y-103124000D03*
X180340000Y-98044000D03*
X180340000Y-92964000D03*
D12*
X172720000Y-91180000D03*
X172720000Y-96780000D03*
D13*
X158397600Y-95111600D03*
D14*
X153997600Y-94511600D03*
X153997600Y-91111600D03*
D15*
X152247600Y-92811600D03*
D14*
X150497600Y-94511600D03*
X150497600Y-91111600D03*
D13*
X158397600Y-90511600D03*
D16*
X157480000Y-86360000D03*
D17*
X160020000Y-86360000D03*
X162560000Y-86360000D03*
X165100000Y-86360000D03*
X167640000Y-86360000D03*
X170180000Y-86360000D03*
X172720000Y-86360000D03*
X175260000Y-86360000D03*
D16*
X148590000Y-110490000D03*
D17*
X151130000Y-110490000D03*
X153670000Y-110490000D03*
X156210000Y-110490000D03*
X158750000Y-110490000D03*
X161290000Y-110490000D03*
X163830000Y-110490000D03*
X166370000Y-110490000D03*
D16*
X160020000Y-107950000D03*
D17*
X162560000Y-107950000D03*
X165100000Y-107950000D03*
X167640000Y-107950000D03*
D18*
X161560000Y-90678000D03*
X163560000Y-90678000D03*
X161560000Y-100965000D03*
X163560000Y-100965000D03*
X156988000Y-104394000D03*
X158988000Y-104394000D03*
D19*
X168005000Y-104394000D03*
X166005000Y-104394000D03*
D18*
X170450000Y-100965000D03*
X172450000Y-100965000D03*
X161560000Y-97409000D03*
X163560000Y-97409000D03*
D19*
X163560000Y-104394000D03*
X161560000Y-104394000D03*
D20*
X170627000Y-105267000D03*
X172527000Y-105267000D03*
X171577000Y-103267000D03*
D21*
X152282000Y-105029000D03*
X150232000Y-105029000D03*
D18*
X161560000Y-93980000D03*
X163560000Y-93980000D03*
X166005000Y-100965000D03*
X168005000Y-100965000D03*
D22*
X166005000Y-94300000D03*
X166005000Y-96200000D03*
X168005000Y-95250000D03*
D18*
X166005000Y-91059000D03*
X168005000Y-91059000D03*
D21*
X152282000Y-107315000D03*
X150232000Y-107315000D03*
D16*
X151252000Y-98425000D03*
D17*
X153792000Y-98425000D03*
D16*
X151252000Y-102108000D03*
D17*
X153792000Y-102108000D03*
D21*
X159013000Y-99060000D03*
X156963000Y-99060000D03*
D23*
X155575000Y-99441000D03*
X156591000Y-101219000D03*
X165862000Y-99441000D03*
X163576000Y-99568000D03*
X155913460Y-101875270D03*
X152908000Y-103632000D03*
D24*
X165100000Y-86360000D02*
X165100000Y-87562081D01*
D25*
X151252000Y-98425000D02*
X152652000Y-97025000D01*
X160544000Y-94996000D02*
X159893000Y-94996000D01*
D24*
X160020000Y-86360000D02*
X157480000Y-86360000D01*
D25*
X150232000Y-105029000D02*
X150232000Y-103128000D01*
X150232000Y-107315000D02*
X150232000Y-105029000D01*
X151252000Y-102108000D02*
X151252000Y-98425000D01*
X158564000Y-90678000D02*
X158397600Y-90511600D01*
X159893000Y-98180000D02*
X159013000Y-99060000D01*
X159893000Y-94996000D02*
X159893000Y-98180000D01*
X161560000Y-93980000D02*
X160544000Y-94996000D01*
X150232000Y-103128000D02*
X151252000Y-102108000D01*
X161560000Y-90678000D02*
X158564000Y-90678000D01*
X157047600Y-91861600D02*
X157047600Y-96901000D01*
D26*
X154432000Y-108712000D02*
X156988000Y-106156000D01*
D25*
X161560000Y-90678000D02*
X161560000Y-93980000D01*
D26*
X156988000Y-106156000D02*
X156988000Y-104394000D01*
D25*
X152652000Y-97025000D02*
X156923600Y-97025000D01*
D24*
X165100000Y-86360000D02*
X162560000Y-86360000D01*
D25*
X156923600Y-97025000D02*
X157047600Y-96901000D01*
D26*
X150232000Y-107315000D02*
X151629000Y-108712000D01*
D24*
X166342919Y-88805000D02*
X170345000Y-88805000D01*
X158397600Y-90511600D02*
X158397600Y-87277600D01*
X158397600Y-87277600D02*
X157480000Y-86360000D01*
X165100000Y-87562081D02*
X166342919Y-88805000D01*
X170345000Y-88805000D02*
X172720000Y-91180000D01*
D26*
X151629000Y-108712000D02*
X154432000Y-108712000D01*
D25*
X158397600Y-90511600D02*
X157047600Y-91861600D01*
D24*
X160020000Y-86360000D02*
X162560000Y-86360000D01*
D25*
X171190000Y-95250000D02*
X168005000Y-95250000D01*
X168005000Y-95250000D02*
X168005000Y-91059000D01*
X172720000Y-96780000D02*
X171190000Y-95250000D01*
X172450000Y-100965000D02*
X172450000Y-97050000D01*
X172450000Y-97050000D02*
X172720000Y-96780000D01*
D24*
X172726000Y-96774000D02*
X179324000Y-96774000D01*
D25*
X172720000Y-96780000D02*
X172726000Y-96774000D01*
X172527000Y-101042000D02*
X172527000Y-105267000D01*
D24*
X179324000Y-96774000D02*
X180594000Y-98044000D01*
D26*
X168005000Y-105045000D02*
X168005000Y-104394000D01*
X164846000Y-103505000D02*
X163532499Y-102191499D01*
X158092267Y-102191499D02*
X157279230Y-101378462D01*
D27*
X158397600Y-95111600D02*
X158397600Y-97625400D01*
X158397600Y-97625400D02*
X156963000Y-99060000D01*
D26*
X165100000Y-107950000D02*
X165100000Y-105791000D01*
X155575000Y-99441000D02*
X156582000Y-99441000D01*
X164846000Y-105537000D02*
X164846000Y-103505000D01*
X156591000Y-101283924D02*
X156591000Y-101219000D01*
X165100000Y-105791000D02*
X164846000Y-105537000D01*
X156685538Y-101378462D02*
X156591000Y-101283924D01*
X157279230Y-101378462D02*
X156685538Y-101378462D01*
X156582000Y-99441000D02*
X156963000Y-99060000D01*
X165100000Y-107950000D02*
X168005000Y-105045000D01*
X163532499Y-102191499D02*
X158092267Y-102191499D01*
D24*
X167640000Y-86360000D02*
X175260000Y-86360000D01*
D28*
X180594000Y-92964000D02*
X178472680Y-92964000D01*
X178472680Y-92964000D02*
X176606000Y-91097320D01*
X176606000Y-91097320D02*
X176606000Y-87706000D01*
X176606000Y-87706000D02*
X175260000Y-86360000D01*
D26*
X161793423Y-105918000D02*
X160512000Y-105918000D01*
X166005000Y-103410000D02*
X165084000Y-102489000D01*
X165084000Y-102489000D02*
X163560000Y-100965000D01*
X167159951Y-109474000D02*
X166828476Y-109142524D01*
X163576000Y-108966000D02*
X164084000Y-108966000D01*
X166109000Y-109227000D02*
X166193476Y-109142524D01*
X163317423Y-104394000D02*
X161793423Y-105918000D01*
X164084000Y-108966000D02*
X164345000Y-109227000D01*
X163560000Y-104394000D02*
X163317423Y-104394000D01*
X169545000Y-106045000D02*
X169672000Y-106172000D01*
X162560000Y-107950000D02*
X163576000Y-108966000D01*
X162560000Y-107950000D02*
X163560000Y-106950000D01*
X163560000Y-106950000D02*
X163560000Y-104394000D01*
X164345000Y-109227000D02*
X166109000Y-109227000D01*
X167921951Y-109474000D02*
X167159951Y-109474000D01*
X169672000Y-106172000D02*
X169672000Y-106299000D01*
X171577000Y-106021000D02*
X171299000Y-106299000D01*
X169799000Y-106299000D02*
X169799000Y-106426000D01*
X168529000Y-102489000D02*
X169545000Y-103505000D01*
X169799000Y-107596951D02*
X167921951Y-109474000D01*
X166193476Y-109142524D02*
X166828476Y-109142524D01*
X168529000Y-102489000D02*
X165084000Y-102489000D01*
X171299000Y-106299000D02*
X169799000Y-106299000D01*
X169799000Y-106426000D02*
X169799000Y-107596951D01*
X169545000Y-103505000D02*
X169545000Y-106045000D01*
X166005000Y-104394000D02*
X166005000Y-103410000D01*
X171577000Y-103267000D02*
X171577000Y-106021000D01*
X160512000Y-105918000D02*
X158988000Y-104394000D01*
X168005000Y-100965000D02*
X170450000Y-100965000D01*
X170627000Y-105267000D02*
X170450000Y-100965000D01*
D27*
X166005000Y-96200000D02*
X166005000Y-99298000D01*
D26*
X166005000Y-92440000D02*
X164846000Y-93599000D01*
X163560000Y-90535000D02*
X166005000Y-90535000D01*
D27*
X164846000Y-98425000D02*
X164846000Y-93599000D01*
X166005000Y-99298000D02*
X165862000Y-99441000D01*
D26*
X166005000Y-90535000D02*
X166005000Y-92440000D01*
D27*
X161560000Y-100965000D02*
X162957000Y-99568000D01*
X162957000Y-99568000D02*
X163576000Y-99568000D01*
X165862000Y-99441000D02*
X164846000Y-98425000D01*
D26*
X161086501Y-97882499D02*
X161086501Y-98791497D01*
X152282000Y-104766000D02*
X153035000Y-104013000D01*
X155636000Y-100269000D02*
X155302547Y-100602453D01*
X152908000Y-103632000D02*
X152908000Y-103886000D01*
X156668427Y-100269000D02*
X155636000Y-100269000D01*
X155636000Y-100269000D02*
X154433919Y-100269000D01*
X155302547Y-101483500D02*
X155694317Y-101875270D01*
X153792000Y-99627081D02*
X153792000Y-98425000D01*
X159212499Y-100665499D02*
X157064926Y-100665499D01*
X161086501Y-98791497D02*
X159212499Y-100665499D01*
X157064926Y-100665499D02*
X156668427Y-100269000D01*
X152908000Y-103886000D02*
X153035000Y-104013000D01*
X154433919Y-100269000D02*
X153792000Y-99627081D01*
X155302547Y-100602453D02*
X155302547Y-101483500D01*
X155694317Y-101875270D02*
X155913460Y-101875270D01*
X161560000Y-97409000D02*
X161086501Y-97882499D01*
X152282000Y-105029000D02*
X152282000Y-104766000D01*
X161560000Y-104394000D02*
X160036000Y-102870000D01*
X155702000Y-102870000D02*
X154940000Y-102108000D01*
X153792000Y-105805000D02*
X153792000Y-102108000D01*
X154940000Y-102108000D02*
X153792000Y-102108000D01*
X152282000Y-107315000D02*
X153792000Y-105805000D01*
X160036000Y-102870000D02*
X155702000Y-102870000D01*
X166005000Y-100965000D02*
X166005000Y-100727000D01*
X166882000Y-100088000D02*
X166882000Y-95177000D01*
X166005000Y-100965000D02*
X166882000Y-100088000D01*
X166882000Y-95177000D02*
X166005000Y-94300000D01*
X163560000Y-98282000D02*
X163560000Y-97409000D01*
X166005000Y-100727000D02*
X163560000Y-98282000D01*
X163560000Y-97409000D02*
X163560000Y-93980000D01*
G04 #@! TA.AperFunction,Conductor*
G36*
X156787091Y-83785280D02*
G01*
X156833183Y-83831149D01*
X156850265Y-83893889D01*
X156852135Y-84280899D01*
X156856009Y-85082891D01*
X156839332Y-85146148D01*
X156793186Y-85192517D01*
X156730011Y-85209500D01*
X156585134Y-85209500D01*
X156560009Y-85212414D01*
X156457233Y-85257794D01*
X156377794Y-85337233D01*
X156332415Y-85440007D01*
X156329500Y-85465138D01*
X156329500Y-85717961D01*
X156312620Y-85780960D01*
X156296843Y-85808286D01*
X156279231Y-85856675D01*
X156275026Y-85866828D01*
X156253261Y-85913504D01*
X156239930Y-85963252D01*
X156236627Y-85973728D01*
X156219014Y-86022122D01*
X156210070Y-86072841D01*
X156207692Y-86083567D01*
X156194363Y-86133309D01*
X156189876Y-86184600D01*
X156188442Y-86195494D01*
X156179499Y-86246219D01*
X156179499Y-86297721D01*
X156179020Y-86308701D01*
X156174532Y-86360000D01*
X156179020Y-86411299D01*
X156179499Y-86422279D01*
X156179499Y-86473781D01*
X156188442Y-86524506D01*
X156189876Y-86535400D01*
X156194363Y-86586687D01*
X156207693Y-86636433D01*
X156210071Y-86647162D01*
X156219014Y-86697877D01*
X156236624Y-86746261D01*
X156239928Y-86756740D01*
X156253261Y-86806496D01*
X156275020Y-86853157D01*
X156279227Y-86863313D01*
X156296843Y-86911714D01*
X156312619Y-86939038D01*
X156329500Y-87002038D01*
X156329500Y-87254865D01*
X156332414Y-87279990D01*
X156377794Y-87382766D01*
X156457233Y-87462205D01*
X156457234Y-87462205D01*
X156457235Y-87462206D01*
X156560009Y-87507585D01*
X156585135Y-87510500D01*
X156739125Y-87510499D01*
X156787343Y-87520090D01*
X156828220Y-87547404D01*
X156831453Y-87550637D01*
X156858650Y-87591233D01*
X156868357Y-87639123D01*
X156885523Y-91192349D01*
X156876049Y-91240895D01*
X156848619Y-91282053D01*
X156666499Y-91464173D01*
X156663408Y-91467162D01*
X156616554Y-91510922D01*
X156595262Y-91545934D01*
X156588006Y-91556595D01*
X156563238Y-91589257D01*
X156556716Y-91605796D01*
X156547163Y-91625031D01*
X156537926Y-91640220D01*
X156526867Y-91679688D01*
X156522757Y-91691909D01*
X156507723Y-91730033D01*
X156505905Y-91747718D01*
X156501896Y-91768814D01*
X156497100Y-91785935D01*
X156497100Y-91826920D01*
X156496439Y-91839805D01*
X156492248Y-91880571D01*
X156495268Y-91898089D01*
X156497100Y-91919496D01*
X156497100Y-96348500D01*
X156480219Y-96411500D01*
X156434100Y-96457619D01*
X156371100Y-96474500D01*
X152663561Y-96474500D01*
X152659260Y-96474427D01*
X152654233Y-96474255D01*
X152595174Y-96472238D01*
X152595173Y-96472238D01*
X152555353Y-96481941D01*
X152542681Y-96484349D01*
X152502079Y-96489929D01*
X152485771Y-96497013D01*
X152465411Y-96503860D01*
X152448149Y-96508066D01*
X152412416Y-96528157D01*
X152400873Y-96533889D01*
X152380036Y-96542941D01*
X152363277Y-96550221D01*
X152349493Y-96561435D01*
X152331738Y-96573519D01*
X152316242Y-96582232D01*
X152287255Y-96611218D01*
X152277683Y-96619857D01*
X152245889Y-96645724D01*
X152235637Y-96660247D01*
X152221798Y-96676675D01*
X151660878Y-97237595D01*
X151620001Y-97264909D01*
X151571783Y-97274500D01*
X150357134Y-97274500D01*
X150332009Y-97277414D01*
X150229233Y-97322794D01*
X150149794Y-97402233D01*
X150104415Y-97505007D01*
X150101500Y-97530138D01*
X150101500Y-99319865D01*
X150104414Y-99344990D01*
X150149794Y-99447766D01*
X150229233Y-99527205D01*
X150229234Y-99527205D01*
X150229235Y-99527206D01*
X150332009Y-99572585D01*
X150357135Y-99575500D01*
X150575500Y-99575500D01*
X150638500Y-99592381D01*
X150684619Y-99638500D01*
X150701500Y-99701500D01*
X150701500Y-100831501D01*
X150684619Y-100894501D01*
X150638500Y-100940620D01*
X150575500Y-100957501D01*
X150357134Y-100957501D01*
X150332009Y-100960414D01*
X150229233Y-101005794D01*
X150149794Y-101085233D01*
X150104415Y-101188007D01*
X150101500Y-101213138D01*
X150101500Y-102427784D01*
X150091909Y-102476002D01*
X150064597Y-102516876D01*
X149927638Y-102653836D01*
X149850913Y-102730561D01*
X149847822Y-102733549D01*
X149800954Y-102777322D01*
X149779662Y-102812334D01*
X149772406Y-102822995D01*
X149747638Y-102855657D01*
X149741116Y-102872196D01*
X149731563Y-102891431D01*
X149722326Y-102906620D01*
X149711267Y-102946088D01*
X149707157Y-102958309D01*
X149692123Y-102996433D01*
X149690305Y-103014118D01*
X149686296Y-103035214D01*
X149681500Y-103052335D01*
X149681500Y-103093320D01*
X149680839Y-103106205D01*
X149676648Y-103146971D01*
X149679668Y-103164489D01*
X149681500Y-103185896D01*
X149681500Y-103996535D01*
X149668347Y-104052585D01*
X149631634Y-104096932D01*
X149514077Y-104186078D01*
X149422639Y-104306656D01*
X149367122Y-104447436D01*
X149356500Y-104535897D01*
X149356500Y-105522103D01*
X149367122Y-105610563D01*
X149422639Y-105751343D01*
X149471179Y-105815352D01*
X149514078Y-105871922D01*
X149581596Y-105923122D01*
X149631634Y-105961068D01*
X149668347Y-106005415D01*
X149681500Y-106061465D01*
X149681500Y-106282535D01*
X149668347Y-106338585D01*
X149631634Y-106382932D01*
X149514077Y-106472078D01*
X149422639Y-106592656D01*
X149367122Y-106733436D01*
X149356500Y-106821897D01*
X149356500Y-107808103D01*
X149367122Y-107896563D01*
X149422639Y-108037343D01*
X149514077Y-108157922D01*
X149634656Y-108249360D01*
X149634657Y-108249360D01*
X149634658Y-108249361D01*
X149675822Y-108265594D01*
X149775436Y-108304877D01*
X149863897Y-108315500D01*
X150575732Y-108315500D01*
X150623950Y-108325091D01*
X150664827Y-108352404D01*
X151256283Y-108943859D01*
X151286932Y-108993747D01*
X151291725Y-109052100D01*
X151269627Y-109106319D01*
X151225409Y-109144697D01*
X151168620Y-109158947D01*
X147196729Y-109204082D01*
X146887931Y-109207591D01*
X146824328Y-109191193D01*
X146777620Y-109145013D01*
X146760500Y-109081600D01*
X146760500Y-106344530D01*
X146762414Y-106322650D01*
X146764124Y-106312952D01*
X146762414Y-106303254D01*
X146760871Y-106285619D01*
X146756290Y-106268522D01*
X146754581Y-106258829D01*
X146754581Y-106258828D01*
X146754579Y-106258827D01*
X146751062Y-106252735D01*
X146746549Y-106247355D01*
X146738016Y-106242429D01*
X146720025Y-106229831D01*
X146712479Y-106223499D01*
X146705881Y-106221097D01*
X146698952Y-106219875D01*
X146689254Y-106221586D01*
X146667375Y-106223500D01*
X140663500Y-106223500D01*
X140600500Y-106206619D01*
X140554381Y-106160500D01*
X140537500Y-106097500D01*
X140537500Y-103505000D01*
X142593451Y-103505000D01*
X142613617Y-103774105D01*
X142673665Y-104037193D01*
X142696211Y-104094639D01*
X142772257Y-104288398D01*
X142907185Y-104522102D01*
X143075439Y-104733085D01*
X143166012Y-104817124D01*
X143273258Y-104916635D01*
X143359692Y-104975564D01*
X143496226Y-105068651D01*
X143595257Y-105116342D01*
X143739358Y-105185738D01*
X143796868Y-105203477D01*
X143997228Y-105265280D01*
X144264071Y-105305500D01*
X144533927Y-105305500D01*
X144533929Y-105305500D01*
X144800772Y-105265280D01*
X145058641Y-105185738D01*
X145301775Y-105068651D01*
X145524741Y-104916635D01*
X145722561Y-104733085D01*
X145890815Y-104522102D01*
X146025743Y-104288398D01*
X146124334Y-104037195D01*
X146184383Y-103774103D01*
X146204549Y-103505000D01*
X146184383Y-103235897D01*
X146124334Y-102972805D01*
X146025743Y-102721602D01*
X145890815Y-102487898D01*
X145722561Y-102276915D01*
X145524741Y-102093365D01*
X145301775Y-101941349D01*
X145258110Y-101920321D01*
X145058641Y-101824261D01*
X144863273Y-101763999D01*
X144800772Y-101744720D01*
X144533929Y-101704500D01*
X144264071Y-101704500D01*
X143997228Y-101744720D01*
X143997224Y-101744721D01*
X143997225Y-101744721D01*
X143739358Y-101824261D01*
X143496225Y-101941349D01*
X143273258Y-102093364D01*
X143075442Y-102276912D01*
X143075439Y-102276915D01*
X142907185Y-102487898D01*
X142907183Y-102487901D01*
X142772258Y-102721599D01*
X142673665Y-102972806D01*
X142613617Y-103235894D01*
X142593451Y-103505000D01*
X140537500Y-103505000D01*
X140537500Y-98425000D01*
X142593451Y-98425000D01*
X142613617Y-98694105D01*
X142673665Y-98957193D01*
X142673666Y-98957195D01*
X142772257Y-99208398D01*
X142907185Y-99442102D01*
X143075439Y-99653085D01*
X143127617Y-99701499D01*
X143273258Y-99836635D01*
X143403508Y-99925437D01*
X143496226Y-99988651D01*
X143622271Y-100049351D01*
X143739358Y-100105738D01*
X143796868Y-100123477D01*
X143997228Y-100185280D01*
X144264071Y-100225500D01*
X144533927Y-100225500D01*
X144533929Y-100225500D01*
X144800772Y-100185280D01*
X145058641Y-100105738D01*
X145301775Y-99988651D01*
X145524741Y-99836635D01*
X145722561Y-99653085D01*
X145890815Y-99442102D01*
X146025743Y-99208398D01*
X146124334Y-98957195D01*
X146184383Y-98694103D01*
X146204549Y-98425000D01*
X146184383Y-98155897D01*
X146124334Y-97892805D01*
X146025743Y-97641602D01*
X145890815Y-97407898D01*
X145722561Y-97196915D01*
X145524741Y-97013365D01*
X145511241Y-97004161D01*
X145301775Y-96861349D01*
X145058641Y-96744261D01*
X144839529Y-96676675D01*
X144800772Y-96664720D01*
X144533929Y-96624500D01*
X144264071Y-96624500D01*
X143997228Y-96664720D01*
X143997224Y-96664721D01*
X143997225Y-96664721D01*
X143739358Y-96744261D01*
X143496225Y-96861349D01*
X143273258Y-97013364D01*
X143075442Y-97196912D01*
X143075439Y-97196915D01*
X142910072Y-97404278D01*
X142907183Y-97407901D01*
X142772258Y-97641599D01*
X142673665Y-97892806D01*
X142613617Y-98155894D01*
X142593451Y-98425000D01*
X140537500Y-98425000D01*
X140537500Y-93344999D01*
X142593451Y-93344999D01*
X142613617Y-93614105D01*
X142673665Y-93877193D01*
X142673666Y-93877195D01*
X142772257Y-94128398D01*
X142907185Y-94362102D01*
X143075439Y-94573085D01*
X143166012Y-94657124D01*
X143273258Y-94756635D01*
X143425274Y-94860276D01*
X143496226Y-94908651D01*
X143622270Y-94969351D01*
X143739358Y-95025738D01*
X143796868Y-95043477D01*
X143997228Y-95105280D01*
X144264071Y-95145500D01*
X144533927Y-95145500D01*
X144533929Y-95145500D01*
X144800772Y-95105280D01*
X145058641Y-95025738D01*
X145301775Y-94908651D01*
X145524741Y-94756635D01*
X145722561Y-94573085D01*
X145890815Y-94362102D01*
X146025743Y-94128398D01*
X146124334Y-93877195D01*
X146184383Y-93614103D01*
X146204549Y-93345000D01*
X146184383Y-93075897D01*
X146124334Y-92812805D01*
X146025743Y-92561602D01*
X145890815Y-92327898D01*
X145722561Y-92116915D01*
X145524741Y-91933365D01*
X145488583Y-91908713D01*
X145301775Y-91781349D01*
X145058641Y-91664261D01*
X144869099Y-91605796D01*
X144800772Y-91584720D01*
X144533929Y-91544500D01*
X144264071Y-91544500D01*
X143997228Y-91584720D01*
X143997224Y-91584721D01*
X143997225Y-91584721D01*
X143739358Y-91664261D01*
X143496225Y-91781349D01*
X143273258Y-91933364D01*
X143075442Y-92116912D01*
X143075439Y-92116915D01*
X142907185Y-92327898D01*
X142907183Y-92327901D01*
X142772258Y-92561599D01*
X142673665Y-92812806D01*
X142613617Y-93075894D01*
X142593451Y-93344999D01*
X140537500Y-93344999D01*
X140537500Y-86432833D01*
X150150803Y-86432833D01*
X150177466Y-86697880D01*
X150180962Y-86732622D01*
X150250811Y-87025721D01*
X150359103Y-87306894D01*
X150444216Y-87462206D01*
X150503906Y-87571127D01*
X150682632Y-87813696D01*
X150682634Y-87813698D01*
X150892100Y-88030284D01*
X151128565Y-88217018D01*
X151387810Y-88370569D01*
X151537446Y-88434020D01*
X151665208Y-88488196D01*
X151955806Y-88567800D01*
X152142237Y-88592872D01*
X152254427Y-88607960D01*
X152480319Y-88607960D01*
X152480324Y-88607960D01*
X152705714Y-88592872D01*
X153000983Y-88532856D01*
X153285617Y-88434020D01*
X153554539Y-88298128D01*
X153802949Y-88127604D01*
X154026413Y-87925492D01*
X154220945Y-87695399D01*
X154220947Y-87695397D01*
X154369810Y-87462206D01*
X154383073Y-87441430D01*
X154509903Y-87168118D01*
X154599173Y-86880339D01*
X154649289Y-86583230D01*
X154659357Y-86282091D01*
X154629198Y-85982298D01*
X154559349Y-85689199D01*
X154451057Y-85408026D01*
X154306255Y-85143795D01*
X154306253Y-85143792D01*
X154127527Y-84901223D01*
X154019407Y-84789428D01*
X153918060Y-84684636D01*
X153681595Y-84497902D01*
X153422350Y-84344351D01*
X153422347Y-84344350D01*
X153422346Y-84344349D01*
X153144951Y-84226723D01*
X152854353Y-84147119D01*
X152584347Y-84110808D01*
X152555733Y-84106960D01*
X152329836Y-84106960D01*
X152217141Y-84114503D01*
X152104441Y-84122048D01*
X151809176Y-84182063D01*
X151524542Y-84280899D01*
X151255625Y-84416789D01*
X151007210Y-84587316D01*
X150783745Y-84789429D01*
X150589212Y-85019522D01*
X150427087Y-85273488D01*
X150300258Y-85546798D01*
X150210986Y-85834581D01*
X150160871Y-86131687D01*
X150150803Y-86432833D01*
X140537500Y-86432833D01*
X140537500Y-83894500D01*
X140554381Y-83831500D01*
X140600500Y-83785381D01*
X140663500Y-83768500D01*
X156724267Y-83768500D01*
X156787091Y-83785280D01*
G37*
G04 #@! TD.AperFunction*
D29*
X146685000Y-106299000D02*
X140462000Y-106299000D01*
X184404000Y-89916000D02*
X184404000Y-112522000D01*
X140462000Y-106299000D02*
X140462000Y-83693000D01*
X178181000Y-83693000D02*
X178181000Y-89916000D01*
X140462000Y-83693000D02*
X178181000Y-83693000D01*
X184404000Y-112522000D02*
X146685000Y-112522000D01*
X178181000Y-89916000D02*
X184404000Y-89916000D01*
X146685000Y-112522000D02*
X146685000Y-106299000D01*
M02*
