G04 #@! TF.GenerationSoftware,KiCad,Pcbnew,7.0.1-3b83917a11~172~ubuntu20.04.1*
G04 #@! TF.CreationDate,2023-03-26T04:48:50+02:00*
G04 #@! TF.ProjectId,C64Saver2,43363453-6176-4657-9232-2e6b69636164,2.6*
G04 #@! TF.SameCoordinates,Original*
G04 #@! TF.FileFunction,Soldermask,Top*
G04 #@! TF.FilePolarity,Negative*
%FSLAX46Y46*%
G04 Gerber Fmt 4.6, Leading zero omitted, Abs format (unit mm)*
G04 Created by KiCad (PCBNEW 7.0.1-3b83917a11~172~ubuntu20.04.1) date 2023-03-26 04:48:50*
%MOMM*%
%LPD*%
G01*
G04 APERTURE LIST*
G04 Aperture macros list*
%AMRoundRect*
0 Rectangle with rounded corners*
0 $1 Rounding radius*
0 $2 $3 $4 $5 $6 $7 $8 $9 X,Y pos of 4 corners*
0 Add a 4 corners polygon primitive as box body*
4,1,4,$2,$3,$4,$5,$6,$7,$8,$9,$2,$3,0*
0 Add four circle primitives for the rounded corners*
1,1,$1+$1,$2,$3*
1,1,$1+$1,$4,$5*
1,1,$1+$1,$6,$7*
1,1,$1+$1,$8,$9*
0 Add four rect primitives between the rounded corners*
20,1,$1+$1,$2,$3,$4,$5,0*
20,1,$1+$1,$4,$5,$6,$7,0*
20,1,$1+$1,$6,$7,$8,$9,0*
20,1,$1+$1,$8,$9,$2,$3,0*%
G04 Aperture macros list end*
%ADD10RoundRect,0.200000X-1.500000X1.500000X-1.500000X-1.500000X1.500000X-1.500000X1.500000X1.500000X0*%
%ADD11C,3.400000*%
%ADD12RoundRect,0.200000X1.500000X-1.500000X1.500000X1.500000X-1.500000X1.500000X-1.500000X-1.500000X0*%
%ADD13RoundRect,0.450000X-0.550000X1.500000X-0.550000X-1.500000X0.550000X-1.500000X0.550000X1.500000X0*%
%ADD14RoundRect,0.200000X0.800000X0.750000X-0.800000X0.750000X-0.800000X-0.750000X0.800000X-0.750000X0*%
%ADD15RoundRect,0.200000X3.350000X3.250000X-3.350000X3.250000X-3.350000X-3.250000X3.350000X-3.250000X0*%
%ADD16RoundRect,0.200000X0.850000X-0.850000X0.850000X0.850000X-0.850000X0.850000X-0.850000X-0.850000X0*%
%ADD17O,2.100000X2.100000*%
%ADD18C,2.900000*%
%ADD19RoundRect,0.450000X-0.350000X-0.450000X0.350000X-0.450000X0.350000X0.450000X-0.350000X0.450000X0*%
%ADD20RoundRect,0.450000X0.350000X0.450000X-0.350000X0.450000X-0.350000X-0.450000X0.350000X-0.450000X0*%
%ADD21RoundRect,0.200000X0.400000X-0.450000X0.400000X0.450000X-0.400000X0.450000X-0.400000X-0.450000X0*%
%ADD22RoundRect,0.450000X0.325000X0.450000X-0.325000X0.450000X-0.325000X-0.450000X0.325000X-0.450000X0*%
%ADD23RoundRect,0.200000X-0.450000X-0.400000X0.450000X-0.400000X0.450000X0.400000X-0.450000X0.400000X0*%
G04 #@! TA.AperFunction,Profile*
%ADD24C,0.150000*%
G04 #@! TD*
G04 APERTURE END LIST*
D10*
X144399000Y-88265000D03*
D11*
X144399000Y-93345000D03*
X144399000Y-98425000D03*
X144399000Y-103505000D03*
D12*
X180340000Y-108204000D03*
D11*
X180340000Y-103124000D03*
X180340000Y-98044000D03*
X180340000Y-92964000D03*
D13*
X172720000Y-91180000D03*
X172720000Y-96780000D03*
D14*
X158397600Y-95111600D03*
D15*
X152247600Y-92811600D03*
D14*
X158397600Y-90511600D03*
D16*
X157480000Y-86360000D03*
D17*
X160020000Y-86360000D03*
X162560000Y-86360000D03*
X165100000Y-86360000D03*
X167640000Y-86360000D03*
X170180000Y-86360000D03*
X172720000Y-86360000D03*
X175260000Y-86360000D03*
X166370000Y-110490000D03*
X163830000Y-110490000D03*
X161290000Y-110490000D03*
X158750000Y-110490000D03*
X156210000Y-110490000D03*
X153670000Y-110490000D03*
X151130000Y-110490000D03*
D16*
X148590000Y-110490000D03*
X160020000Y-107950000D03*
D17*
X162560000Y-107950000D03*
X165100000Y-107950000D03*
X167640000Y-107950000D03*
D18*
X152405080Y-86357460D03*
X172399960Y-109862620D03*
D19*
X161560000Y-90678000D03*
X163560000Y-90678000D03*
X161560000Y-100965000D03*
X163560000Y-100965000D03*
X156988000Y-104394000D03*
X158988000Y-104394000D03*
D20*
X168005000Y-104394000D03*
X166005000Y-104394000D03*
D19*
X170450000Y-100965000D03*
X172450000Y-100965000D03*
X161560000Y-97409000D03*
X163560000Y-97409000D03*
D20*
X163560000Y-104394000D03*
X161560000Y-104394000D03*
D21*
X170627000Y-105267000D03*
X172527000Y-105267000D03*
X171577000Y-103267000D03*
D22*
X152282000Y-105029000D03*
X150232000Y-105029000D03*
D19*
X161560000Y-93980000D03*
X163560000Y-93980000D03*
X166005000Y-100965000D03*
X168005000Y-100965000D03*
D23*
X166005000Y-94300000D03*
X166005000Y-96200000D03*
X168005000Y-95250000D03*
D19*
X166005000Y-91059000D03*
X168005000Y-91059000D03*
D22*
X152282000Y-107315000D03*
X150232000Y-107315000D03*
D16*
X151252000Y-98425000D03*
D17*
X153792000Y-98425000D03*
D16*
X151252000Y-102108000D03*
D17*
X153792000Y-102108000D03*
D22*
X159013000Y-99060000D03*
X156963000Y-99060000D03*
D24*
X146685000Y-106299000D02*
X140462000Y-106299000D01*
X184404000Y-89916000D02*
X184404000Y-112522000D01*
X140462000Y-106299000D02*
X140462000Y-83693000D01*
X178181000Y-83693000D02*
X178181000Y-89916000D01*
X140462000Y-83693000D02*
X178181000Y-83693000D01*
X184404000Y-112522000D02*
X146685000Y-112522000D01*
X178181000Y-89916000D02*
X184404000Y-89916000D01*
X146685000Y-112522000D02*
X146685000Y-106299000D01*
M02*
