;TYPE=PLATED
;Layer: PTH_Through
;EasyEDA Pro v2.0.34.720dcead, 2023-10-18 14:17:13
;Gerber Generator version 0.3
M48
METRIC,LZ,000.000
;Hole size 1 = 0.700 METRIC
T01C0.700
;Hole size 2 = 0.800 METRIC
T02C0.800
;Hole size 3 = 0.900 METRIC
T03C0.900
;Hole size 4 = 1.000 METRIC
T04C1.000
;Hole size 5 = 1.520 METRIC
T05C1.520
%
G05
G90
T01
X170053Y-093853
X170053Y-098933
X174879Y-098933
X174879Y-093853
X167690Y-089245
X167690Y-094325
X163093Y-089245
X163093Y-094325
X175120Y-091630
X170040Y-091630
X160705Y-089245
X160705Y-094325
X165379Y-094361
X165379Y-089281
X151384Y-097409
X156464Y-097409
X175133Y-089408
X170053Y-089408
X172466Y-093853
X172466Y-098933
T02
X173609Y-103251
X171109Y-103251
X153035Y-107315
X153035Y-099695
X149987Y-107315
X149987Y-099695
X166624Y-102997
X161544Y-102997
X164084Y-102997
X156972Y-099949
X156972Y-105029
X156972Y-102489
T03
X164846Y-098298
X167386Y-098298
X162306Y-098298
X159766Y-098298
T04
X157480Y-086360
X160020Y-086360
X162560Y-086360
X165100Y-086360
X167640Y-086360
X170180Y-086360
X172720Y-086360
X175260Y-086360
X148590Y-110490
X151130Y-110490
X153670Y-110490
X156210Y-110490
X158750Y-110490
X161290Y-110490
X163830Y-110490
X166370Y-110490
X160020Y-107950
X162560Y-107950
X165100Y-107950
X167640Y-107950
T05
X144399Y-088265
X144399Y-093345
X144399Y-098425
X144399Y-103505
X180340Y-108204
X180340Y-103124
X180340Y-098044
X180340Y-092964
M30