G04 Layer: BottomSilkscreenLayer*
G04 EasyEDA Pro v2.0.34.720dcead, 2023-10-18 14:17:13*
G04 Gerber Generator version 0.3*
G04 Scale: 100 percent, Rotated: No, Reflected: No*
G04 Dimensions in millimeters*
G04 Leading zeros omitted, absolute positions, 3 integers and 3 decimals*
%FSLAX33Y33*%
%MOMM*%
%ADD10C,0.15*%
G75*


G04 Text Start*
G04 //text: 9VAC*
G54D10*
G01X177822Y-106326D02*
G01X177731Y-106357D01*
G01X177672Y-106415D01*
G01X177642Y-106504D01*
G01Y-106534D01*
G01X177672Y-106623D01*
G01X177731Y-106682D01*
G01X177822Y-106712D01*
G01X177850D01*
G01X177939Y-106682D01*
G01X178000Y-106623D01*
G01X178028Y-106534D01*
G01Y-106504D01*
G01X178000Y-106415D01*
G01X177939Y-106357D01*
G01X177822Y-106326D01*
G01X177672D01*
G01X177525Y-106357D01*
G01X177436Y-106415D01*
G01X177406Y-106504D01*
G01Y-106565D01*
G01X177436Y-106654D01*
G01X177495Y-106682D01*
G01X178028Y-105884D02*
G01X177406Y-105645D01*
G01X178028Y-105409D02*
G01X177406Y-105645D01*
G01X178028Y-104728D02*
G01X177406Y-104967D01*
G01X178028Y-104728D02*
G01X177406Y-104492D01*
G01X177614Y-104878D02*
G01X177614Y-104581D01*
G01X177881Y-103603D02*
G01X177939Y-103634D01*
G01X178000Y-103692D01*
G01X178028Y-103751D01*
G01Y-103870D01*
G01X178000Y-103931D01*
G01X177939Y-103989D01*
G01X177881Y-104020D01*
G01X177792Y-104048D01*
G01X177642D01*
G01X177553Y-104020D01*
G01X177495Y-103989D01*
G01X177436Y-103931D01*
G01X177406Y-103870D01*
G01Y-103751D01*
G01X177436Y-103692D01*
G01X177495Y-103634D01*
G01X177553Y-103603D01*
G04 //text: GND*
G01X177881Y-98451D02*
G01X177940Y-98479D01*
G01X178001Y-98540D01*
G01X178028Y-98598D01*
G01Y-98718D01*
G01X178001Y-98776D01*
G01X177940Y-98837D01*
G01X177881Y-98865D01*
G01X177792Y-98896D01*
G01X177642D01*
G01X177553Y-98865D01*
G01X177495Y-98837D01*
G01X177437Y-98776D01*
G01X177406Y-98718D01*
G01Y-98598D01*
G01X177437Y-98540D01*
G01X177495Y-98479D01*
G01X177553Y-98451D01*
G01X177642D01*
G01X177642Y-98598D02*
G01X177642Y-98451D01*
G01X178028Y-98007D02*
G01X177406Y-98007D01*
G01X178028Y-98007D02*
G01X177406Y-97593D01*
G01X178028Y-97593D02*
G01X177406Y-97593D01*
G01X178028Y-97151D02*
G01X177406Y-97151D01*
G01X178028Y-97151D02*
G01X178028Y-96942D01*
G01X178001Y-96853D01*
G01X177940Y-96792D01*
G01X177881Y-96765D01*
G01X177792Y-96734D01*
G01X177642D01*
G01X177553Y-96765D01*
G01X177495Y-96792D01*
G01X177437Y-96853D01*
G01X177406Y-96942D01*
G01Y-97151D01*
G04 //text: 5V*
G01X178028Y-93334D02*
G01X178028Y-93631D01*
G01X177761Y-93659D01*
G01X177792Y-93631D01*
G01X177822Y-93542D01*
G01Y-93451D01*
G01X177792Y-93362D01*
G01X177731Y-93304D01*
G01X177642Y-93273D01*
G01X177584D01*
G01X177495Y-93304D01*
G01X177436Y-93362D01*
G01X177406Y-93451D01*
G01Y-93542D01*
G01X177436Y-93631D01*
G01X177464Y-93659D01*
G01X177525Y-93690D01*
G01X178028Y-92831D02*
G01X177406Y-92595D01*
G01X178028Y-92356D02*
G01X177406Y-92595D01*
G04 //text: 5V*
G01X146964Y-88149D02*
G01X146964Y-87851D01*
G01X147231Y-87823D01*
G01X147200Y-87851D01*
G01X147170Y-87940D01*
G01Y-88032D01*
G01X147200Y-88121D01*
G01X147261Y-88179D01*
G01X147350Y-88210D01*
G01X147409D01*
G01X147498Y-88179D01*
G01X147556Y-88121D01*
G01X147587Y-88032D01*
G01Y-87940D01*
G01X147556Y-87851D01*
G01X147528Y-87823D01*
G01X147467Y-87793D01*
G01X146964Y-88652D02*
G01X147587Y-88888D01*
G01X146964Y-89126D02*
G01X147587Y-88888D01*
G04 //text: GND*
G01X147112Y-92811D02*
G01X147053Y-92783D01*
G01X146992Y-92722D01*
G01X146964Y-92663D01*
G01Y-92544D01*
G01X146992Y-92486D01*
G01X147053Y-92425D01*
G01X147112Y-92397D01*
G01X147200Y-92366D01*
G01X147350D01*
G01X147439Y-92397D01*
G01X147498Y-92425D01*
G01X147556Y-92486D01*
G01X147587Y-92544D01*
G01Y-92663D01*
G01X147556Y-92722D01*
G01X147498Y-92783D01*
G01X147439Y-92811D01*
G01X147350D01*
G01X147350Y-92663D02*
G01X147350Y-92811D01*
G01X146964Y-93255D02*
G01X147587Y-93255D01*
G01X146964Y-93255D02*
G01X147587Y-93669D01*
G01X146964Y-93669D02*
G01X147587Y-93669D01*
G01X146964Y-94111D02*
G01X147587Y-94111D01*
G01X146964Y-94111D02*
G01X146964Y-94320D01*
G01X146992Y-94408D01*
G01X147053Y-94469D01*
G01X147112Y-94497D01*
G01X147200Y-94528D01*
G01X147350D01*
G01X147439Y-94497D01*
G01X147498Y-94469D01*
G01X147556Y-94408D01*
G01X147587Y-94320D01*
G01Y-94111D01*
G04 //text: 9VAC*
G01X147170Y-99921D02*
G01X147261Y-99891D01*
G01X147320Y-99833D01*
G01X147350Y-99744D01*
G01Y-99713D01*
G01X147320Y-99624D01*
G01X147261Y-99566D01*
G01X147170Y-99535D01*
G01X147142D01*
G01X147053Y-99566D01*
G01X146992Y-99624D01*
G01X146964Y-99713D01*
G01Y-99744D01*
G01X146992Y-99833D01*
G01X147053Y-99891D01*
G01X147170Y-99921D01*
G01X147320D01*
G01X147467Y-99891D01*
G01X147556Y-99833D01*
G01X147587Y-99744D01*
G01Y-99683D01*
G01X147556Y-99594D01*
G01X147498Y-99566D01*
G01X146964Y-100363D02*
G01X147587Y-100602D01*
G01X146964Y-100838D02*
G01X147587Y-100602D01*
G01X146964Y-101519D02*
G01X147587Y-101280D01*
G01X146964Y-101519D02*
G01X147587Y-101755D01*
G01X147378Y-101369D02*
G01X147378Y-101666D01*
G01X147112Y-102644D02*
G01X147053Y-102614D01*
G01X146992Y-102555D01*
G01X146964Y-102497D01*
G01Y-102378D01*
G01X146992Y-102317D01*
G01X147053Y-102258D01*
G01X147112Y-102228D01*
G01X147200Y-102200D01*
G01X147350D01*
G01X147439Y-102228D01*
G01X147498Y-102258D01*
G01X147556Y-102317D01*
G01X147587Y-102378D01*
G01Y-102497D01*
G01X147556Y-102555D01*
G01X147498Y-102614D01*
G01X147439Y-102644D01*
G04 //text: IN*
G01X176090Y-110294D02*
G01X175302Y-110294D01*
G01X176090Y-109814D02*
G01X175302Y-109814D01*
G01X176090Y-109814D02*
G01X175302Y-109288D01*
G01X176090Y-109288D02*
G01X175302Y-109288D01*
G04 //text: OUT*
G01X148776Y-86142D02*
G01X148812Y-86066D01*
G01X148888Y-85992D01*
G01X148962Y-85954D01*
G01X149076Y-85916D01*
G01X149261D01*
G01X149376Y-85954D01*
G01X149449Y-85992D01*
G01X149525Y-86066D01*
G01X149564Y-86142D01*
G01Y-86292D01*
G01X149525Y-86366D01*
G01X149449Y-86442D01*
G01X149376Y-86480D01*
G01X149261Y-86516D01*
G01X149076D01*
G01X148962Y-86480D01*
G01X148888Y-86442D01*
G01X148812Y-86366D01*
G01X148776Y-86292D01*
G01Y-86142D01*
G01X148776Y-86996D02*
G01X149337Y-86996D01*
G01X149449Y-87034D01*
G01X149525Y-87110D01*
G01X149564Y-87222D01*
G01Y-87295D01*
G01X149525Y-87410D01*
G01X149449Y-87483D01*
G01X149337Y-87521D01*
G01X148776D01*
G01X148776Y-88263D02*
G01X149564Y-88263D01*
G01X148776Y-88001D02*
G01X148776Y-88527D01*
G04 //text: C64 Saver 2*
G04 THT version*
G04 Rev 2.7*
G04 BWACK, Everlast*
G04 2023*
G01X158227Y-90323D02*
G01X158252Y-90270D01*
G01X158306Y-90217D01*
G01X158359Y-90191D01*
G01X158466D01*
G01X158519Y-90217D01*
G01X158572Y-90270D01*
G01X158598Y-90323D01*
G01X158626Y-90405D01*
G01Y-90537D01*
G01X158598Y-90616D01*
G01X158572Y-90669D01*
G01X158519Y-90722D01*
G01X158466Y-90750D01*
G01X158359D01*
G01X158306Y-90722D01*
G01X158252Y-90669D01*
G01X158227Y-90616D01*
G01X157531Y-90270D02*
G01X157556Y-90217D01*
G01X157637Y-90191D01*
G01X157691D01*
G01X157770Y-90217D01*
G01X157823Y-90298D01*
G01X157848Y-90430D01*
G01Y-90562D01*
G01X157823Y-90669D01*
G01X157770Y-90722D01*
G01X157691Y-90750D01*
G01X157663D01*
G01X157584Y-90722D01*
G01X157531Y-90669D01*
G01X157503Y-90590D01*
G01Y-90562D01*
G01X157531Y-90483D01*
G01X157584Y-90430D01*
G01X157663Y-90405D01*
G01X157691D01*
G01X157770Y-90430D01*
G01X157823Y-90483D01*
G01X157848Y-90562D01*
G01X156860Y-90191D02*
G01X157127Y-90562D01*
G01X156728D01*
G01X156860Y-90191D02*
G01X156860Y-90750D01*
G01X155385Y-90270D02*
G01X155435Y-90217D01*
G01X155517Y-90191D01*
G01X155623D01*
G01X155702Y-90217D01*
G01X155755Y-90270D01*
G01Y-90323D01*
G01X155730Y-90377D01*
G01X155702Y-90405D01*
G01X155649Y-90430D01*
G01X155489Y-90483D01*
G01X155435Y-90509D01*
G01X155410Y-90537D01*
G01X155385Y-90590D01*
G01Y-90669D01*
G01X155435Y-90722D01*
G01X155517Y-90750D01*
G01X155623D01*
G01X155702Y-90722D01*
G01X155755Y-90669D01*
G01X154686Y-90377D02*
G01X154686Y-90750D01*
G01X154686Y-90458D02*
G01X154739Y-90405D01*
G01X154793Y-90377D01*
G01X154874D01*
G01X154927Y-90405D01*
G01X154981Y-90458D01*
G01X155006Y-90537D01*
G01Y-90590D01*
G01X154981Y-90669D01*
G01X154927Y-90722D01*
G01X154874Y-90750D01*
G01X154793D01*
G01X154739Y-90722D01*
G01X154686Y-90669D01*
G01X154310Y-90377D02*
G01X154150Y-90750D01*
G01X153990Y-90377D02*
G01X154150Y-90750D01*
G01X153614Y-90537D02*
G01X153294Y-90537D01*
G01Y-90483D01*
G01X153322Y-90430D01*
G01X153347Y-90405D01*
G01X153401Y-90377D01*
G01X153480D01*
G01X153533Y-90405D01*
G01X153586Y-90458D01*
G01X153614Y-90537D01*
G01Y-90590D01*
G01X153586Y-90669D01*
G01X153533Y-90722D01*
G01X153480Y-90750D01*
G01X153401D01*
G01X153347Y-90722D01*
G01X153294Y-90669D01*
G01X152918Y-90377D02*
G01X152918Y-90750D01*
G01X152918Y-90537D02*
G01X152890Y-90458D01*
G01X152837Y-90405D01*
G01X152784Y-90377D01*
G01X152705D01*
G01X151707Y-90323D02*
G01X151707Y-90298D01*
G01X151679Y-90245D01*
G01X151653Y-90217D01*
G01X151600Y-90191D01*
G01X151493D01*
G01X151440Y-90217D01*
G01X151414Y-90245D01*
G01X151387Y-90298D01*
G01Y-90351D01*
G01X151414Y-90405D01*
G01X151468Y-90483D01*
G01X151732Y-90750D01*
G01X151361D01*
G01X158440Y-91291D02*
G01X158440Y-91850D01*
G01X158626Y-91291D02*
G01X158252Y-91291D01*
G01X157876Y-91291D02*
G01X157876Y-91850D01*
G01X157503Y-91291D02*
G01X157503Y-91850D01*
G01X157876Y-91558D02*
G01X157503Y-91558D01*
G01X156942Y-91291D02*
G01X156942Y-91850D01*
G01X157127Y-91291D02*
G01X156754Y-91291D01*
G01X155781Y-91477D02*
G01X155623Y-91850D01*
G01X155463Y-91477D02*
G01X155623Y-91850D01*
G01X155085Y-91637D02*
G01X154767Y-91637D01*
G01Y-91583D01*
G01X154793Y-91530D01*
G01X154821Y-91505D01*
G01X154874Y-91477D01*
G01X154953D01*
G01X155006Y-91505D01*
G01X155059Y-91558D01*
G01X155085Y-91637D01*
G01Y-91690D01*
G01X155059Y-91769D01*
G01X155006Y-91822D01*
G01X154953Y-91850D01*
G01X154874D01*
G01X154821Y-91822D01*
G01X154767Y-91769D01*
G01X154389Y-91477D02*
G01X154389Y-91850D01*
G01X154389Y-91637D02*
G01X154363Y-91558D01*
G01X154310Y-91505D01*
G01X154257Y-91477D01*
G01X154178D01*
G01X153507Y-91558D02*
G01X153533Y-91505D01*
G01X153614Y-91477D01*
G01X153693D01*
G01X153772Y-91505D01*
G01X153800Y-91558D01*
G01X153772Y-91611D01*
G01X153721Y-91637D01*
G01X153586Y-91662D01*
G01X153533Y-91690D01*
G01X153507Y-91743D01*
G01Y-91769D01*
G01X153533Y-91822D01*
G01X153614Y-91850D01*
G01X153693D01*
G01X153772Y-91822D01*
G01X153800Y-91769D01*
G01X153129Y-91291D02*
G01X153104Y-91319D01*
G01X153076Y-91291D01*
G01X153104Y-91266D01*
G01X153129Y-91291D01*
G01X153104Y-91477D02*
G01X153104Y-91850D01*
G01X152565Y-91477D02*
G01X152618Y-91505D01*
G01X152672Y-91558D01*
G01X152700Y-91637D01*
G01Y-91690D01*
G01X152672Y-91769D01*
G01X152618Y-91822D01*
G01X152565Y-91850D01*
G01X152486D01*
G01X152433Y-91822D01*
G01X152380Y-91769D01*
G01X152354Y-91690D01*
G01Y-91637D01*
G01X152380Y-91558D01*
G01X152433Y-91505D01*
G01X152486Y-91477D01*
G01X152565D01*
G01X151976Y-91477D02*
G01X151976Y-91850D01*
G01X151976Y-91583D02*
G01X151897Y-91505D01*
G01X151844Y-91477D01*
G01X151765D01*
G01X151712Y-91505D01*
G01X151684Y-91583D01*
G01Y-91850D01*
G01X158626Y-92391D02*
G01X158626Y-92950D01*
G01X158626Y-92391D02*
G01X158387Y-92391D01*
G01X158306Y-92419D01*
G01X158280Y-92444D01*
G01X158252Y-92498D01*
G01Y-92551D01*
G01X158280Y-92604D01*
G01X158306Y-92630D01*
G01X158387Y-92658D01*
G01X158626D01*
G01X158440Y-92658D02*
G01X158252Y-92950D01*
G01X157876Y-92736D02*
G01X157556Y-92736D01*
G01Y-92683D01*
G01X157584Y-92630D01*
G01X157610Y-92604D01*
G01X157663Y-92576D01*
G01X157742D01*
G01X157795Y-92604D01*
G01X157848Y-92658D01*
G01X157876Y-92736D01*
G01Y-92790D01*
G01X157848Y-92868D01*
G01X157795Y-92922D01*
G01X157742Y-92950D01*
G01X157663D01*
G01X157610Y-92922D01*
G01X157556Y-92868D01*
G01X157180Y-92576D02*
G01X157020Y-92950D01*
G01X156860Y-92576D02*
G01X157020Y-92950D01*
G01X155862Y-92523D02*
G01X155862Y-92498D01*
G01X155834Y-92444D01*
G01X155809Y-92419D01*
G01X155755Y-92391D01*
G01X155649D01*
G01X155595Y-92419D01*
G01X155570Y-92444D01*
G01X155542Y-92498D01*
G01Y-92551D01*
G01X155570Y-92604D01*
G01X155623Y-92683D01*
G01X155887Y-92950D01*
G01X155517D01*
G01X155113Y-92815D02*
G01X155138Y-92843D01*
G01X155113Y-92868D01*
G01X155085Y-92843D01*
G01X155113Y-92815D01*
G01X154335Y-92391D02*
G01X154602Y-92950D01*
G01X154709Y-92391D02*
G01X154335Y-92391D01*
G01X158626Y-93491D02*
G01X158626Y-94050D01*
G01X158626Y-93491D02*
G01X158387Y-93491D01*
G01X158306Y-93519D01*
G01X158280Y-93544D01*
G01X158252Y-93597D01*
G01Y-93651D01*
G01X158280Y-93704D01*
G01X158306Y-93730D01*
G01X158387Y-93757D01*
G01X158626Y-93757D02*
G01X158387Y-93757D01*
G01X158306Y-93783D01*
G01X158280Y-93811D01*
G01X158252Y-93864D01*
G01Y-93943D01*
G01X158280Y-93996D01*
G01X158306Y-94022D01*
G01X158387Y-94050D01*
G01X158626D01*
G01X157876Y-93491D02*
G01X157742Y-94050D01*
G01X157610Y-93491D02*
G01X157742Y-94050D01*
G01X157610Y-93491D02*
G01X157477Y-94050D01*
G01X157345Y-93491D02*
G01X157477Y-94050D01*
G01X156754Y-93491D02*
G01X156967Y-94050D01*
G01X156754Y-93491D02*
G01X156543Y-94050D01*
G01X156888Y-93864D02*
G01X156621Y-93864D01*
G01X155766Y-93623D02*
G01X155793Y-93572D01*
G01X155847Y-93519D01*
G01X155898Y-93491D01*
G01X156004D01*
G01X156058Y-93519D01*
G01X156111Y-93572D01*
G01X156139Y-93623D01*
G01X156164Y-93704D01*
G01Y-93836D01*
G01X156139Y-93918D01*
G01X156111Y-93968D01*
G01X156058Y-94022D01*
G01X156004Y-94050D01*
G01X155898D01*
G01X155847Y-94022D01*
G01X155793Y-93968D01*
G01X155766Y-93918D01*
G01X155390Y-93491D02*
G01X155390Y-94050D01*
G01X155016Y-93491D02*
G01X155390Y-93864D01*
G01X155255Y-93730D02*
G01X155016Y-94050D01*
G01X154587Y-93943D02*
G01X154612Y-93968D01*
G01X154640Y-93943D01*
G01X154612Y-93918D01*
G01X154587Y-93943D01*
G01Y-93996D01*
G01X154640Y-94050D01*
G01X153614Y-93491D02*
G01X153614Y-94050D01*
G01X153614Y-93491D02*
G01X153269Y-93491D01*
G01X153614Y-93757D02*
G01X153401Y-93757D01*
G01X153614Y-94050D02*
G01X153269Y-94050D01*
G01X152890Y-93676D02*
G01X152730Y-94050D01*
G01X152573Y-93676D02*
G01X152730Y-94050D01*
G01X152194Y-93836D02*
G01X151877Y-93836D01*
G01Y-93783D01*
G01X151902Y-93730D01*
G01X151928Y-93704D01*
G01X151981Y-93676D01*
G01X152062D01*
G01X152116Y-93704D01*
G01X152169Y-93757D01*
G01X152194Y-93836D01*
G01Y-93890D01*
G01X152169Y-93968D01*
G01X152116Y-94022D01*
G01X152062Y-94050D01*
G01X151981D01*
G01X151928Y-94022D01*
G01X151877Y-93968D01*
G01X151498Y-93676D02*
G01X151498Y-94050D01*
G01X151498Y-93836D02*
G01X151470Y-93757D01*
G01X151420Y-93704D01*
G01X151366Y-93676D01*
G01X151285D01*
G01X150909Y-93491D02*
G01X150909Y-94050D01*
G01X150213Y-93676D02*
G01X150213Y-94050D01*
G01X150213Y-93757D02*
G01X150264Y-93704D01*
G01X150317Y-93676D01*
G01X150398D01*
G01X150452Y-93704D01*
G01X150505Y-93757D01*
G01X150531Y-93836D01*
G01Y-93890D01*
G01X150505Y-93968D01*
G01X150452Y-94022D01*
G01X150398Y-94050D01*
G01X150317D01*
G01X150264Y-94022D01*
G01X150213Y-93968D01*
G01X149543Y-93757D02*
G01X149568Y-93704D01*
G01X149649Y-93676D01*
G01X149728D01*
G01X149807Y-93704D01*
G01X149835Y-93757D01*
G01X149807Y-93811D01*
G01X149756Y-93836D01*
G01X149621Y-93864D01*
G01X149568Y-93890D01*
G01X149543Y-93943D01*
G01Y-93968D01*
G01X149568Y-94022D01*
G01X149649Y-94050D01*
G01X149728D01*
G01X149807Y-94022D01*
G01X149835Y-93968D01*
G01X149085Y-93491D02*
G01X149085Y-93943D01*
G01X149057Y-94022D01*
G01X149007Y-94050D01*
G01X148953D01*
G01X149164Y-93676D02*
G01X148979Y-93676D01*
G01X158598Y-94725D02*
G01X158598Y-94697D01*
G01X158572Y-94644D01*
G01X158544Y-94619D01*
G01X158491Y-94591D01*
G01X158387D01*
G01X158333Y-94619D01*
G01X158306Y-94644D01*
G01X158280Y-94697D01*
G01Y-94751D01*
G01X158306Y-94804D01*
G01X158359Y-94883D01*
G01X158626Y-95149D01*
G01X158252D01*
G01X157716Y-94591D02*
G01X157795Y-94619D01*
G01X157848Y-94697D01*
G01X157876Y-94829D01*
G01Y-94911D01*
G01X157848Y-95043D01*
G01X157795Y-95121D01*
G01X157716Y-95149D01*
G01X157663D01*
G01X157584Y-95121D01*
G01X157531Y-95043D01*
G01X157503Y-94911D01*
G01Y-94829D01*
G01X157531Y-94697D01*
G01X157584Y-94619D01*
G01X157663Y-94591D01*
G01X157716D01*
G01X157099Y-94725D02*
G01X157099Y-94697D01*
G01X157074Y-94644D01*
G01X157046Y-94619D01*
G01X156992Y-94591D01*
G01X156888D01*
G01X156835Y-94619D01*
G01X156807Y-94644D01*
G01X156782Y-94697D01*
G01Y-94751D01*
G01X156807Y-94804D01*
G01X156860Y-94883D01*
G01X157127Y-95149D01*
G01X156754D01*
G01X156324Y-94591D02*
G01X156032Y-94591D01*
G01X156190Y-94804D01*
G01X156111D01*
G01X156058Y-94829D01*
G01X156032Y-94857D01*
G01X156004Y-94936D01*
G01Y-94989D01*
G01X156032Y-95068D01*
G01X156086Y-95121D01*
G01X156164Y-95149D01*
G01X156243D01*
G01X156324Y-95121D01*
G01X156350Y-95096D01*
G01X156378Y-95043D01*
G04 Text End*

M02*
