G04 Layer: TopAssemblyLayer*
G04 EasyEDA Pro v2.0.34.720dcead, 2023-10-18 14:17:13*
G04 Gerber Generator version 0.3*
G04 Scale: 100 percent, Rotated: No, Reflected: No*
G04 Dimensions in millimeters*
G04 Leading zeros omitted, absolute positions, 3 integers and 3 decimals*
%FSLAX33Y33*%
%MOMM*%
%ADD10C,0.15*%
%ADD11C,0.254*%
%ADD12C,0.025*%
G75*


G04 Text Start*
G04 //text: C64Saver2-rescue_Conn_01x04*
G54D10*
G01X139463Y-103644D02*
G01X139410Y-103670D01*
G01X139356Y-103723D01*
G01X139331Y-103776D01*
G01Y-103883D01*
G01X139356Y-103936D01*
G01X139410Y-103990D01*
G01X139463Y-104015D01*
G01X139542Y-104040D01*
G01X139676D01*
G01X139755Y-104015D01*
G01X139808Y-103990D01*
G01X139862Y-103936D01*
G01X139887Y-103883D01*
G01Y-103776D01*
G01X139862Y-103723D01*
G01X139808Y-103670D01*
G01X139755Y-103644D01*
G01X139410Y-103047D02*
G01X139356Y-103073D01*
G01X139331Y-103154D01*
G01Y-103207D01*
G01X139356Y-103286D01*
G01X139435Y-103339D01*
G01X139570Y-103365D01*
G01X139702D01*
G01X139808Y-103339D01*
G01X139862Y-103286D01*
G01X139887Y-103207D01*
G01Y-103179D01*
G01X139862Y-103101D01*
G01X139808Y-103047D01*
G01X139730Y-103019D01*
G01X139702D01*
G01X139623Y-103047D01*
G01X139570Y-103101D01*
G01X139542Y-103179D01*
G01Y-103207D01*
G01X139570Y-103286D01*
G01X139623Y-103339D01*
G01X139702Y-103365D01*
G01X139331Y-102478D02*
G01X139702Y-102743D01*
G01Y-102344D01*
G01X139331Y-102478D02*
G01X139887Y-102478D01*
G01X139410Y-101696D02*
G01X139356Y-101749D01*
G01X139331Y-101828D01*
G01Y-101935D01*
G01X139356Y-102014D01*
G01X139410Y-102067D01*
G01X139463D01*
G01X139516Y-102041D01*
G01X139542Y-102014D01*
G01X139570Y-101960D01*
G01X139623Y-101800D01*
G01X139648Y-101749D01*
G01X139676Y-101721D01*
G01X139730Y-101696D01*
G01X139808D01*
G01X139862Y-101749D01*
G01X139887Y-101828D01*
G01Y-101935D01*
G01X139862Y-102014D01*
G01X139808Y-102067D01*
G01X139516Y-101099D02*
G01X139887Y-101099D01*
G01X139595Y-101099D02*
G01X139542Y-101152D01*
G01X139516Y-101206D01*
G01Y-101285D01*
G01X139542Y-101338D01*
G01X139595Y-101391D01*
G01X139676Y-101417D01*
G01X139730D01*
G01X139808Y-101391D01*
G01X139862Y-101338D01*
G01X139887Y-101285D01*
G01Y-101206D01*
G01X139862Y-101152D01*
G01X139808Y-101099D01*
G01X139516Y-100822D02*
G01X139887Y-100662D01*
G01X139516Y-100502D02*
G01X139887Y-100662D01*
G01X139676Y-100225D02*
G01X139676Y-99905D01*
G01X139623D01*
G01X139570Y-99933D01*
G01X139542Y-99959D01*
G01X139516Y-100012D01*
G01Y-100093D01*
G01X139542Y-100147D01*
G01X139595Y-100197D01*
G01X139676Y-100225D01*
G01X139730D01*
G01X139808Y-100197D01*
G01X139862Y-100147D01*
G01X139887Y-100093D01*
G01Y-100012D01*
G01X139862Y-99959D01*
G01X139808Y-99905D01*
G01X139516Y-99628D02*
G01X139887Y-99628D01*
G01X139676Y-99628D02*
G01X139595Y-99603D01*
G01X139542Y-99550D01*
G01X139516Y-99496D01*
G01Y-99415D01*
G01X139463Y-99113D02*
G01X139435Y-99113D01*
G01X139384Y-99085D01*
G01X139356Y-99060D01*
G01X139331Y-99006D01*
G01Y-98900D01*
G01X139356Y-98846D01*
G01X139384Y-98821D01*
G01X139435Y-98793D01*
G01X139488D01*
G01X139542Y-98821D01*
G01X139623Y-98874D01*
G01X139887Y-99138D01*
G01Y-98767D01*
G01X139648Y-98491D02*
G01X139648Y-98011D01*
G01X139516Y-97734D02*
G01X139887Y-97734D01*
G01X139676Y-97734D02*
G01X139595Y-97708D01*
G01X139542Y-97655D01*
G01X139516Y-97602D01*
G01Y-97520D01*
G01X139676Y-97243D02*
G01X139676Y-96926D01*
G01X139623D01*
G01X139570Y-96951D01*
G01X139542Y-96979D01*
G01X139516Y-97033D01*
G01Y-97111D01*
G01X139542Y-97165D01*
G01X139595Y-97218D01*
G01X139676Y-97243D01*
G01X139730D01*
G01X139808Y-97218D01*
G01X139862Y-97165D01*
G01X139887Y-97111D01*
G01Y-97033D01*
G01X139862Y-96979D01*
G01X139808Y-96926D01*
G01X139595Y-96354D02*
G01X139542Y-96382D01*
G01X139516Y-96461D01*
G01Y-96542D01*
G01X139542Y-96621D01*
G01X139595Y-96647D01*
G01X139648Y-96621D01*
G01X139676Y-96568D01*
G01X139702Y-96436D01*
G01X139730Y-96382D01*
G01X139780Y-96354D01*
G01X139808D01*
G01X139862Y-96382D01*
G01X139887Y-96461D01*
G01Y-96542D01*
G01X139862Y-96621D01*
G01X139808Y-96647D01*
G01X139595Y-95760D02*
G01X139542Y-95813D01*
G01X139516Y-95864D01*
G01Y-95945D01*
G01X139542Y-95999D01*
G01X139595Y-96052D01*
G01X139676Y-96078D01*
G01X139730D01*
G01X139808Y-96052D01*
G01X139862Y-95999D01*
G01X139887Y-95945D01*
G01Y-95864D01*
G01X139862Y-95813D01*
G01X139808Y-95760D01*
G01X139516Y-95481D02*
G01X139780Y-95481D01*
G01X139862Y-95455D01*
G01X139887Y-95402D01*
G01Y-95323D01*
G01X139862Y-95270D01*
G01X139780Y-95189D01*
G01X139516Y-95189D02*
G01X139887Y-95189D01*
G01X139676Y-94912D02*
G01X139676Y-94594D01*
G01X139623D01*
G01X139570Y-94620D01*
G01X139542Y-94648D01*
G01X139516Y-94698D01*
G01Y-94780D01*
G01X139542Y-94833D01*
G01X139595Y-94886D01*
G01X139676Y-94912D01*
G01X139730D01*
G01X139808Y-94886D01*
G01X139862Y-94833D01*
G01X139887Y-94780D01*
G01Y-94698D01*
G01X139862Y-94648D01*
G01X139808Y-94594D01*
G01X140073Y-94315D02*
G01X140073Y-93837D01*
G01X139463Y-93162D02*
G01X139410Y-93187D01*
G01X139356Y-93240D01*
G01X139331Y-93294D01*
G01Y-93400D01*
G01X139356Y-93454D01*
G01X139410Y-93507D01*
G01X139463Y-93532D01*
G01X139542Y-93560D01*
G01X139676D01*
G01X139755Y-93532D01*
G01X139808Y-93507D01*
G01X139862Y-93454D01*
G01X139887Y-93400D01*
G01Y-93294D01*
G01X139862Y-93240D01*
G01X139808Y-93187D01*
G01X139755Y-93162D01*
G01X139516Y-92750D02*
G01X139542Y-92804D01*
G01X139595Y-92857D01*
G01X139676Y-92885D01*
G01X139730D01*
G01X139808Y-92857D01*
G01X139862Y-92804D01*
G01X139887Y-92750D01*
G01Y-92671D01*
G01X139862Y-92618D01*
G01X139808Y-92565D01*
G01X139730Y-92539D01*
G01X139676D01*
G01X139595Y-92565D01*
G01X139542Y-92618D01*
G01X139516Y-92671D01*
G01Y-92750D01*
G01X139516Y-92262D02*
G01X139887Y-92262D01*
G01X139623Y-92262D02*
G01X139542Y-92181D01*
G01X139516Y-92128D01*
G01Y-92049D01*
G01X139542Y-91996D01*
G01X139623Y-91970D01*
G01X139887D01*
G01X139516Y-91691D02*
G01X139887Y-91691D01*
G01X139623Y-91691D02*
G01X139542Y-91612D01*
G01X139516Y-91559D01*
G01Y-91480D01*
G01X139542Y-91427D01*
G01X139623Y-91399D01*
G01X139887D01*
G01X140073Y-91122D02*
G01X140073Y-90645D01*
G01X139331Y-90208D02*
G01X139356Y-90286D01*
G01X139435Y-90340D01*
G01X139570Y-90368D01*
G01X139648D01*
G01X139780Y-90340D01*
G01X139862Y-90286D01*
G01X139887Y-90208D01*
G01Y-90154D01*
G01X139862Y-90073D01*
G01X139780Y-90022D01*
G01X139648Y-89994D01*
G01X139570D01*
G01X139435Y-90022D01*
G01X139356Y-90073D01*
G01X139331Y-90154D01*
G01Y-90208D01*
G01X139435Y-89717D02*
G01X139410Y-89664D01*
G01X139331Y-89585D01*
G01X139887D01*
G01X139516Y-89306D02*
G01X139887Y-89014D01*
G01X139516Y-89014D02*
G01X139887Y-89306D01*
G01X139331Y-88577D02*
G01X139356Y-88658D01*
G01X139435Y-88712D01*
G01X139570Y-88737D01*
G01X139648D01*
G01X139780Y-88712D01*
G01X139862Y-88658D01*
G01X139887Y-88577D01*
G01Y-88524D01*
G01X139862Y-88445D01*
G01X139780Y-88392D01*
G01X139648Y-88366D01*
G01X139570D01*
G01X139435Y-88392D01*
G01X139356Y-88445D01*
G01X139331Y-88524D01*
G01Y-88577D01*
G01X139331Y-87823D02*
G01X139702Y-88087D01*
G01Y-87688D01*
G01X139331Y-87823D02*
G01X139887Y-87823D01*
G04 //text: C64Saver2-rescue_Conn_01x04*
G01X184904Y-108383D02*
G01X184850Y-108409D01*
G01X184797Y-108462D01*
G01X184772Y-108515D01*
G01Y-108622D01*
G01X184797Y-108675D01*
G01X184850Y-108729D01*
G01X184904Y-108754D01*
G01X184983Y-108779D01*
G01X185117D01*
G01X185196Y-108754D01*
G01X185249Y-108729D01*
G01X185303Y-108675D01*
G01X185328Y-108622D01*
G01Y-108515D01*
G01X185303Y-108462D01*
G01X185249Y-108409D01*
G01X185196Y-108383D01*
G01X184850Y-107786D02*
G01X184797Y-107812D01*
G01X184772Y-107893D01*
G01Y-107946D01*
G01X184797Y-108025D01*
G01X184876Y-108078D01*
G01X185011Y-108104D01*
G01X185143D01*
G01X185249Y-108078D01*
G01X185303Y-108025D01*
G01X185328Y-107946D01*
G01Y-107918D01*
G01X185303Y-107840D01*
G01X185249Y-107786D01*
G01X185171Y-107758D01*
G01X185143D01*
G01X185064Y-107786D01*
G01X185011Y-107840D01*
G01X184983Y-107918D01*
G01Y-107946D01*
G01X185011Y-108025D01*
G01X185064Y-108078D01*
G01X185143Y-108104D01*
G01X184772Y-107217D02*
G01X185143Y-107482D01*
G01Y-107083D01*
G01X184772Y-107217D02*
G01X185328Y-107217D01*
G01X184850Y-106435D02*
G01X184797Y-106488D01*
G01X184772Y-106567D01*
G01Y-106674D01*
G01X184797Y-106753D01*
G01X184850Y-106806D01*
G01X184904D01*
G01X184957Y-106780D01*
G01X184983Y-106753D01*
G01X185011Y-106699D01*
G01X185064Y-106539D01*
G01X185089Y-106488D01*
G01X185117Y-106460D01*
G01X185171Y-106435D01*
G01X185249D01*
G01X185303Y-106488D01*
G01X185328Y-106567D01*
G01Y-106674D01*
G01X185303Y-106753D01*
G01X185249Y-106806D01*
G01X184957Y-105838D02*
G01X185328Y-105838D01*
G01X185036Y-105838D02*
G01X184983Y-105891D01*
G01X184957Y-105945D01*
G01Y-106024D01*
G01X184983Y-106077D01*
G01X185036Y-106130D01*
G01X185117Y-106156D01*
G01X185171D01*
G01X185249Y-106130D01*
G01X185303Y-106077D01*
G01X185328Y-106024D01*
G01Y-105945D01*
G01X185303Y-105891D01*
G01X185249Y-105838D01*
G01X184957Y-105561D02*
G01X185328Y-105401D01*
G01X184957Y-105241D02*
G01X185328Y-105401D01*
G01X185117Y-104964D02*
G01X185117Y-104644D01*
G01X185064D01*
G01X185011Y-104672D01*
G01X184983Y-104698D01*
G01X184957Y-104751D01*
G01Y-104832D01*
G01X184983Y-104886D01*
G01X185036Y-104936D01*
G01X185117Y-104964D01*
G01X185171D01*
G01X185249Y-104936D01*
G01X185303Y-104886D01*
G01X185328Y-104832D01*
G01Y-104751D01*
G01X185303Y-104698D01*
G01X185249Y-104644D01*
G01X184957Y-104367D02*
G01X185328Y-104367D01*
G01X185117Y-104367D02*
G01X185036Y-104342D01*
G01X184983Y-104289D01*
G01X184957Y-104235D01*
G01Y-104154D01*
G01X184904Y-103852D02*
G01X184876Y-103852D01*
G01X184825Y-103824D01*
G01X184797Y-103799D01*
G01X184772Y-103745D01*
G01Y-103638D01*
G01X184797Y-103585D01*
G01X184825Y-103560D01*
G01X184876Y-103532D01*
G01X184929D01*
G01X184983Y-103560D01*
G01X185064Y-103613D01*
G01X185328Y-103877D01*
G01Y-103506D01*
G01X185089Y-103230D02*
G01X185089Y-102749D01*
G01X184957Y-102473D02*
G01X185328Y-102473D01*
G01X185117Y-102473D02*
G01X185036Y-102447D01*
G01X184983Y-102394D01*
G01X184957Y-102341D01*
G01Y-102259D01*
G01X185117Y-101982D02*
G01X185117Y-101665D01*
G01X185064D01*
G01X185011Y-101690D01*
G01X184983Y-101718D01*
G01X184957Y-101772D01*
G01Y-101850D01*
G01X184983Y-101904D01*
G01X185036Y-101957D01*
G01X185117Y-101982D01*
G01X185171D01*
G01X185249Y-101957D01*
G01X185303Y-101904D01*
G01X185328Y-101850D01*
G01Y-101772D01*
G01X185303Y-101718D01*
G01X185249Y-101665D01*
G01X185036Y-101093D02*
G01X184983Y-101121D01*
G01X184957Y-101200D01*
G01Y-101281D01*
G01X184983Y-101360D01*
G01X185036Y-101386D01*
G01X185089Y-101360D01*
G01X185117Y-101307D01*
G01X185143Y-101175D01*
G01X185171Y-101121D01*
G01X185221Y-101093D01*
G01X185249D01*
G01X185303Y-101121D01*
G01X185328Y-101200D01*
G01Y-101281D01*
G01X185303Y-101360D01*
G01X185249Y-101386D01*
G01X185036Y-100499D02*
G01X184983Y-100552D01*
G01X184957Y-100603D01*
G01Y-100684D01*
G01X184983Y-100738D01*
G01X185036Y-100791D01*
G01X185117Y-100817D01*
G01X185171D01*
G01X185249Y-100791D01*
G01X185303Y-100738D01*
G01X185328Y-100684D01*
G01Y-100603D01*
G01X185303Y-100552D01*
G01X185249Y-100499D01*
G01X184957Y-100220D02*
G01X185221Y-100220D01*
G01X185303Y-100194D01*
G01X185328Y-100141D01*
G01Y-100062D01*
G01X185303Y-100009D01*
G01X185221Y-99928D01*
G01X184957Y-99928D02*
G01X185328Y-99928D01*
G01X185117Y-99651D02*
G01X185117Y-99333D01*
G01X185064D01*
G01X185011Y-99359D01*
G01X184983Y-99387D01*
G01X184957Y-99437D01*
G01Y-99519D01*
G01X184983Y-99572D01*
G01X185036Y-99625D01*
G01X185117Y-99651D01*
G01X185171D01*
G01X185249Y-99625D01*
G01X185303Y-99572D01*
G01X185328Y-99519D01*
G01Y-99437D01*
G01X185303Y-99387D01*
G01X185249Y-99333D01*
G01X185513Y-99054D02*
G01X185513Y-98576D01*
G01X184904Y-97901D02*
G01X184850Y-97926D01*
G01X184797Y-97979D01*
G01X184772Y-98033D01*
G01Y-98139D01*
G01X184797Y-98193D01*
G01X184850Y-98246D01*
G01X184904Y-98271D01*
G01X184983Y-98299D01*
G01X185117D01*
G01X185196Y-98271D01*
G01X185249Y-98246D01*
G01X185303Y-98193D01*
G01X185328Y-98139D01*
G01Y-98033D01*
G01X185303Y-97979D01*
G01X185249Y-97926D01*
G01X185196Y-97901D01*
G01X184957Y-97489D02*
G01X184983Y-97542D01*
G01X185036Y-97596D01*
G01X185117Y-97624D01*
G01X185171D01*
G01X185249Y-97596D01*
G01X185303Y-97542D01*
G01X185328Y-97489D01*
G01Y-97410D01*
G01X185303Y-97357D01*
G01X185249Y-97304D01*
G01X185171Y-97278D01*
G01X185117D01*
G01X185036Y-97304D01*
G01X184983Y-97357D01*
G01X184957Y-97410D01*
G01Y-97489D01*
G01X184957Y-97001D02*
G01X185328Y-97001D01*
G01X185064Y-97001D02*
G01X184983Y-96920D01*
G01X184957Y-96867D01*
G01Y-96788D01*
G01X184983Y-96735D01*
G01X185064Y-96709D01*
G01X185328D01*
G01X184957Y-96430D02*
G01X185328Y-96430D01*
G01X185064Y-96430D02*
G01X184983Y-96351D01*
G01X184957Y-96298D01*
G01Y-96219D01*
G01X184983Y-96166D01*
G01X185064Y-96138D01*
G01X185328D01*
G01X185513Y-95861D02*
G01X185513Y-95383D01*
G01X184772Y-94947D02*
G01X184797Y-95025D01*
G01X184876Y-95079D01*
G01X185011Y-95107D01*
G01X185089D01*
G01X185221Y-95079D01*
G01X185303Y-95025D01*
G01X185328Y-94947D01*
G01Y-94893D01*
G01X185303Y-94812D01*
G01X185221Y-94761D01*
G01X185089Y-94733D01*
G01X185011D01*
G01X184876Y-94761D01*
G01X184797Y-94812D01*
G01X184772Y-94893D01*
G01Y-94947D01*
G01X184876Y-94456D02*
G01X184850Y-94403D01*
G01X184772Y-94324D01*
G01X185328D01*
G01X184957Y-94045D02*
G01X185328Y-93753D01*
G01X184957Y-93753D02*
G01X185328Y-94045D01*
G01X184772Y-93316D02*
G01X184797Y-93397D01*
G01X184876Y-93451D01*
G01X185011Y-93476D01*
G01X185089D01*
G01X185221Y-93451D01*
G01X185303Y-93397D01*
G01X185328Y-93316D01*
G01Y-93263D01*
G01X185303Y-93184D01*
G01X185221Y-93131D01*
G01X185089Y-93105D01*
G01X185011D01*
G01X184876Y-93131D01*
G01X184797Y-93184D01*
G01X184772Y-93263D01*
G01Y-93316D01*
G01X184772Y-92562D02*
G01X185143Y-92826D01*
G01Y-92427D01*
G01X184772Y-92562D02*
G01X185328Y-92562D01*
G04 //text: C64Saver2-rescue_Conn_01x08*
G01X177404Y-94125D02*
G01X177351Y-94151D01*
G01X177297Y-94204D01*
G01X177272Y-94257D01*
G01Y-94364D01*
G01X177297Y-94417D01*
G01X177351Y-94471D01*
G01X177404Y-94496D01*
G01X177483Y-94522D01*
G01X177617D01*
G01X177696Y-94496D01*
G01X177749Y-94471D01*
G01X177803Y-94417D01*
G01X177828Y-94364D01*
G01Y-94257D01*
G01X177803Y-94204D01*
G01X177749Y-94151D01*
G01X177696Y-94125D01*
G01X177351Y-93528D02*
G01X177297Y-93554D01*
G01X177272Y-93635D01*
G01Y-93688D01*
G01X177297Y-93767D01*
G01X177376Y-93820D01*
G01X177511Y-93846D01*
G01X177643D01*
G01X177749Y-93820D01*
G01X177803Y-93767D01*
G01X177828Y-93688D01*
G01Y-93660D01*
G01X177803Y-93582D01*
G01X177749Y-93528D01*
G01X177671Y-93500D01*
G01X177643D01*
G01X177564Y-93528D01*
G01X177511Y-93582D01*
G01X177483Y-93660D01*
G01Y-93688D01*
G01X177511Y-93767D01*
G01X177564Y-93820D01*
G01X177643Y-93846D01*
G01X177272Y-92959D02*
G01X177643Y-93224D01*
G01Y-92825D01*
G01X177272Y-92959D02*
G01X177828Y-92959D01*
G01X177351Y-92177D02*
G01X177297Y-92230D01*
G01X177272Y-92309D01*
G01Y-92416D01*
G01X177297Y-92495D01*
G01X177351Y-92548D01*
G01X177404D01*
G01X177457Y-92523D01*
G01X177483Y-92495D01*
G01X177511Y-92441D01*
G01X177564Y-92281D01*
G01X177589Y-92230D01*
G01X177617Y-92202D01*
G01X177671Y-92177D01*
G01X177749D01*
G01X177803Y-92230D01*
G01X177828Y-92309D01*
G01Y-92416D01*
G01X177803Y-92495D01*
G01X177749Y-92548D01*
G01X177457Y-91580D02*
G01X177828Y-91580D01*
G01X177536Y-91580D02*
G01X177483Y-91634D01*
G01X177457Y-91687D01*
G01Y-91766D01*
G01X177483Y-91819D01*
G01X177536Y-91872D01*
G01X177617Y-91898D01*
G01X177671D01*
G01X177749Y-91872D01*
G01X177803Y-91819D01*
G01X177828Y-91766D01*
G01Y-91687D01*
G01X177803Y-91634D01*
G01X177749Y-91580D01*
G01X177457Y-91303D02*
G01X177828Y-91143D01*
G01X177457Y-90983D02*
G01X177828Y-91143D01*
G01X177617Y-90706D02*
G01X177617Y-90386D01*
G01X177564D01*
G01X177511Y-90414D01*
G01X177483Y-90440D01*
G01X177457Y-90493D01*
G01Y-90574D01*
G01X177483Y-90628D01*
G01X177536Y-90678D01*
G01X177617Y-90706D01*
G01X177671D01*
G01X177749Y-90678D01*
G01X177803Y-90628D01*
G01X177828Y-90574D01*
G01Y-90493D01*
G01X177803Y-90440D01*
G01X177749Y-90386D01*
G01X177457Y-90110D02*
G01X177828Y-90110D01*
G01X177617Y-90110D02*
G01X177536Y-90084D01*
G01X177483Y-90031D01*
G01X177457Y-89977D01*
G01Y-89896D01*
G01X177404Y-89594D02*
G01X177376Y-89594D01*
G01X177325Y-89566D01*
G01X177297Y-89541D01*
G01X177272Y-89487D01*
G01Y-89381D01*
G01X177297Y-89327D01*
G01X177325Y-89302D01*
G01X177376Y-89274D01*
G01X177429D01*
G01X177483Y-89302D01*
G01X177564Y-89355D01*
G01X177828Y-89619D01*
G01Y-89248D01*
G01X177589Y-88972D02*
G01X177589Y-88492D01*
G01X177457Y-88215D02*
G01X177828Y-88215D01*
G01X177617Y-88215D02*
G01X177536Y-88189D01*
G01X177483Y-88136D01*
G01X177457Y-88083D01*
G01Y-88001D01*
G01X177617Y-87724D02*
G01X177617Y-87407D01*
G01X177564D01*
G01X177511Y-87432D01*
G01X177483Y-87460D01*
G01X177457Y-87514D01*
G01Y-87592D01*
G01X177483Y-87646D01*
G01X177536Y-87699D01*
G01X177617Y-87724D01*
G01X177671D01*
G01X177749Y-87699D01*
G01X177803Y-87646D01*
G01X177828Y-87592D01*
G01Y-87514D01*
G01X177803Y-87460D01*
G01X177749Y-87407D01*
G01X177536Y-86835D02*
G01X177483Y-86863D01*
G01X177457Y-86942D01*
G01Y-87023D01*
G01X177483Y-87102D01*
G01X177536Y-87128D01*
G01X177589Y-87102D01*
G01X177617Y-87049D01*
G01X177643Y-86917D01*
G01X177671Y-86863D01*
G01X177721Y-86835D01*
G01X177749D01*
G01X177803Y-86863D01*
G01X177828Y-86942D01*
G01Y-87023D01*
G01X177803Y-87102D01*
G01X177749Y-87128D01*
G01X177536Y-86241D02*
G01X177483Y-86294D01*
G01X177457Y-86345D01*
G01Y-86427D01*
G01X177483Y-86480D01*
G01X177536Y-86533D01*
G01X177617Y-86559D01*
G01X177671D01*
G01X177749Y-86533D01*
G01X177803Y-86480D01*
G01X177828Y-86427D01*
G01Y-86345D01*
G01X177803Y-86294D01*
G01X177749Y-86241D01*
G01X177457Y-85962D02*
G01X177721Y-85962D01*
G01X177803Y-85936D01*
G01X177828Y-85883D01*
G01Y-85804D01*
G01X177803Y-85751D01*
G01X177721Y-85670D01*
G01X177457Y-85670D02*
G01X177828Y-85670D01*
G01X177617Y-85393D02*
G01X177617Y-85075D01*
G01X177564D01*
G01X177511Y-85101D01*
G01X177483Y-85129D01*
G01X177457Y-85179D01*
G01Y-85261D01*
G01X177483Y-85314D01*
G01X177536Y-85367D01*
G01X177617Y-85393D01*
G01X177671D01*
G01X177749Y-85367D01*
G01X177803Y-85314D01*
G01X177828Y-85261D01*
G01Y-85179D01*
G01X177803Y-85129D01*
G01X177749Y-85075D01*
G01X178013Y-84796D02*
G01X178013Y-84318D01*
G01X177404Y-83643D02*
G01X177351Y-83668D01*
G01X177297Y-83721D01*
G01X177272Y-83775D01*
G01Y-83881D01*
G01X177297Y-83935D01*
G01X177351Y-83988D01*
G01X177404Y-84014D01*
G01X177483Y-84041D01*
G01X177617D01*
G01X177696Y-84014D01*
G01X177749Y-83988D01*
G01X177803Y-83935D01*
G01X177828Y-83881D01*
G01Y-83775D01*
G01X177803Y-83721D01*
G01X177749Y-83668D01*
G01X177696Y-83643D01*
G01X177457Y-83231D02*
G01X177483Y-83285D01*
G01X177536Y-83338D01*
G01X177617Y-83366D01*
G01X177671D01*
G01X177749Y-83338D01*
G01X177803Y-83285D01*
G01X177828Y-83231D01*
G01Y-83152D01*
G01X177803Y-83099D01*
G01X177749Y-83046D01*
G01X177671Y-83020D01*
G01X177617D01*
G01X177536Y-83046D01*
G01X177483Y-83099D01*
G01X177457Y-83152D01*
G01Y-83231D01*
G01X177457Y-82744D02*
G01X177828Y-82744D01*
G01X177564Y-82744D02*
G01X177483Y-82662D01*
G01X177457Y-82609D01*
G01Y-82530D01*
G01X177483Y-82477D01*
G01X177564Y-82451D01*
G01X177828D01*
G01X177457Y-82172D02*
G01X177828Y-82172D01*
G01X177564Y-82172D02*
G01X177483Y-82093D01*
G01X177457Y-82040D01*
G01Y-81961D01*
G01X177483Y-81908D01*
G01X177564Y-81880D01*
G01X177828D01*
G01X178013Y-81603D02*
G01X178013Y-81126D01*
G01X177272Y-80689D02*
G01X177297Y-80767D01*
G01X177376Y-80821D01*
G01X177511Y-80849D01*
G01X177589D01*
G01X177721Y-80821D01*
G01X177803Y-80767D01*
G01X177828Y-80689D01*
G01Y-80635D01*
G01X177803Y-80554D01*
G01X177721Y-80503D01*
G01X177589Y-80475D01*
G01X177511D01*
G01X177376Y-80503D01*
G01X177297Y-80554D01*
G01X177272Y-80635D01*
G01Y-80689D01*
G01X177376Y-80198D02*
G01X177351Y-80145D01*
G01X177272Y-80066D01*
G01X177828D01*
G01X177457Y-79787D02*
G01X177828Y-79495D01*
G01X177457Y-79495D02*
G01X177828Y-79787D01*
G01X177272Y-79058D02*
G01X177297Y-79139D01*
G01X177376Y-79193D01*
G01X177511Y-79218D01*
G01X177589D01*
G01X177721Y-79193D01*
G01X177803Y-79139D01*
G01X177828Y-79058D01*
G01Y-79005D01*
G01X177803Y-78926D01*
G01X177721Y-78873D01*
G01X177589Y-78847D01*
G01X177511D01*
G01X177376Y-78873D01*
G01X177297Y-78926D01*
G01X177272Y-79005D01*
G01Y-79058D01*
G01X177272Y-78436D02*
G01X177297Y-78514D01*
G01X177351Y-78542D01*
G01X177404D01*
G01X177457Y-78514D01*
G01X177483Y-78464D01*
G01X177511Y-78357D01*
G01X177536Y-78276D01*
G01X177589Y-78222D01*
G01X177643Y-78197D01*
G01X177721D01*
G01X177775Y-78222D01*
G01X177803Y-78250D01*
G01X177828Y-78329D01*
G01Y-78436D01*
G01X177803Y-78514D01*
G01X177775Y-78542D01*
G01X177721Y-78568D01*
G01X177643D01*
G01X177589Y-78542D01*
G01X177536Y-78489D01*
G01X177511Y-78410D01*
G01X177483Y-78304D01*
G01X177457Y-78250D01*
G01X177404Y-78222D01*
G01X177351D01*
G01X177297Y-78250D01*
G01X177272Y-78329D01*
G01Y-78436D01*
G04 //text: C64Saver2-rescue_Conn_01x08*
G01X168514Y-118255D02*
G01X168461Y-118281D01*
G01X168407Y-118334D01*
G01X168382Y-118387D01*
G01Y-118494D01*
G01X168407Y-118547D01*
G01X168461Y-118601D01*
G01X168514Y-118626D01*
G01X168593Y-118651D01*
G01X168727D01*
G01X168806Y-118626D01*
G01X168859Y-118601D01*
G01X168913Y-118547D01*
G01X168938Y-118494D01*
G01Y-118387D01*
G01X168913Y-118334D01*
G01X168859Y-118281D01*
G01X168806Y-118255D01*
G01X168461Y-117658D02*
G01X168407Y-117684D01*
G01X168382Y-117765D01*
G01Y-117818D01*
G01X168407Y-117897D01*
G01X168486Y-117950D01*
G01X168621Y-117976D01*
G01X168753D01*
G01X168859Y-117950D01*
G01X168913Y-117897D01*
G01X168938Y-117818D01*
G01Y-117790D01*
G01X168913Y-117712D01*
G01X168859Y-117658D01*
G01X168781Y-117630D01*
G01X168753D01*
G01X168674Y-117658D01*
G01X168621Y-117712D01*
G01X168593Y-117790D01*
G01Y-117818D01*
G01X168621Y-117897D01*
G01X168674Y-117950D01*
G01X168753Y-117976D01*
G01X168382Y-117089D02*
G01X168753Y-117354D01*
G01Y-116955D01*
G01X168382Y-117089D02*
G01X168938Y-117089D01*
G01X168461Y-116307D02*
G01X168407Y-116360D01*
G01X168382Y-116439D01*
G01Y-116546D01*
G01X168407Y-116625D01*
G01X168461Y-116678D01*
G01X168514D01*
G01X168567Y-116652D01*
G01X168593Y-116625D01*
G01X168621Y-116571D01*
G01X168674Y-116411D01*
G01X168699Y-116360D01*
G01X168727Y-116332D01*
G01X168781Y-116307D01*
G01X168859D01*
G01X168913Y-116360D01*
G01X168938Y-116439D01*
G01Y-116546D01*
G01X168913Y-116625D01*
G01X168859Y-116678D01*
G01X168567Y-115710D02*
G01X168938Y-115710D01*
G01X168646Y-115710D02*
G01X168593Y-115763D01*
G01X168567Y-115817D01*
G01Y-115896D01*
G01X168593Y-115949D01*
G01X168646Y-116002D01*
G01X168727Y-116028D01*
G01X168781D01*
G01X168859Y-116002D01*
G01X168913Y-115949D01*
G01X168938Y-115896D01*
G01Y-115817D01*
G01X168913Y-115763D01*
G01X168859Y-115710D01*
G01X168567Y-115433D02*
G01X168938Y-115273D01*
G01X168567Y-115113D02*
G01X168938Y-115273D01*
G01X168727Y-114836D02*
G01X168727Y-114516D01*
G01X168674D01*
G01X168621Y-114544D01*
G01X168593Y-114570D01*
G01X168567Y-114623D01*
G01Y-114704D01*
G01X168593Y-114758D01*
G01X168646Y-114808D01*
G01X168727Y-114836D01*
G01X168781D01*
G01X168859Y-114808D01*
G01X168913Y-114758D01*
G01X168938Y-114704D01*
G01Y-114623D01*
G01X168913Y-114570D01*
G01X168859Y-114516D01*
G01X168567Y-114239D02*
G01X168938Y-114239D01*
G01X168727Y-114239D02*
G01X168646Y-114214D01*
G01X168593Y-114161D01*
G01X168567Y-114107D01*
G01Y-114026D01*
G01X168514Y-113724D02*
G01X168486Y-113724D01*
G01X168435Y-113696D01*
G01X168407Y-113671D01*
G01X168382Y-113617D01*
G01Y-113511D01*
G01X168407Y-113457D01*
G01X168435Y-113432D01*
G01X168486Y-113404D01*
G01X168539D01*
G01X168593Y-113432D01*
G01X168674Y-113485D01*
G01X168938Y-113749D01*
G01Y-113378D01*
G01X168699Y-113102D02*
G01X168699Y-112622D01*
G01X168567Y-112345D02*
G01X168938Y-112345D01*
G01X168727Y-112345D02*
G01X168646Y-112319D01*
G01X168593Y-112266D01*
G01X168567Y-112213D01*
G01Y-112131D01*
G01X168727Y-111854D02*
G01X168727Y-111537D01*
G01X168674D01*
G01X168621Y-111562D01*
G01X168593Y-111590D01*
G01X168567Y-111644D01*
G01Y-111722D01*
G01X168593Y-111776D01*
G01X168646Y-111829D01*
G01X168727Y-111854D01*
G01X168781D01*
G01X168859Y-111829D01*
G01X168913Y-111776D01*
G01X168938Y-111722D01*
G01Y-111644D01*
G01X168913Y-111590D01*
G01X168859Y-111537D01*
G01X168646Y-110965D02*
G01X168593Y-110993D01*
G01X168567Y-111072D01*
G01Y-111153D01*
G01X168593Y-111232D01*
G01X168646Y-111258D01*
G01X168699Y-111232D01*
G01X168727Y-111179D01*
G01X168753Y-111047D01*
G01X168781Y-110993D01*
G01X168831Y-110965D01*
G01X168859D01*
G01X168913Y-110993D01*
G01X168938Y-111072D01*
G01Y-111153D01*
G01X168913Y-111232D01*
G01X168859Y-111258D01*
G01X168646Y-110371D02*
G01X168593Y-110424D01*
G01X168567Y-110475D01*
G01Y-110556D01*
G01X168593Y-110610D01*
G01X168646Y-110663D01*
G01X168727Y-110689D01*
G01X168781D01*
G01X168859Y-110663D01*
G01X168913Y-110610D01*
G01X168938Y-110556D01*
G01Y-110475D01*
G01X168913Y-110424D01*
G01X168859Y-110371D01*
G01X168567Y-110092D02*
G01X168831Y-110092D01*
G01X168913Y-110066D01*
G01X168938Y-110013D01*
G01Y-109934D01*
G01X168913Y-109881D01*
G01X168831Y-109800D01*
G01X168567Y-109800D02*
G01X168938Y-109800D01*
G01X168727Y-109523D02*
G01X168727Y-109205D01*
G01X168674D01*
G01X168621Y-109231D01*
G01X168593Y-109259D01*
G01X168567Y-109309D01*
G01Y-109391D01*
G01X168593Y-109444D01*
G01X168646Y-109497D01*
G01X168727Y-109523D01*
G01X168781D01*
G01X168859Y-109497D01*
G01X168913Y-109444D01*
G01X168938Y-109391D01*
G01Y-109309D01*
G01X168913Y-109259D01*
G01X168859Y-109205D01*
G01X169123Y-108926D02*
G01X169123Y-108448D01*
G01X168514Y-107773D02*
G01X168461Y-107798D01*
G01X168407Y-107851D01*
G01X168382Y-107905D01*
G01Y-108011D01*
G01X168407Y-108065D01*
G01X168461Y-108118D01*
G01X168514Y-108143D01*
G01X168593Y-108171D01*
G01X168727D01*
G01X168806Y-108143D01*
G01X168859Y-108118D01*
G01X168913Y-108065D01*
G01X168938Y-108011D01*
G01Y-107905D01*
G01X168913Y-107851D01*
G01X168859Y-107798D01*
G01X168806Y-107773D01*
G01X168567Y-107361D02*
G01X168593Y-107415D01*
G01X168646Y-107468D01*
G01X168727Y-107496D01*
G01X168781D01*
G01X168859Y-107468D01*
G01X168913Y-107415D01*
G01X168938Y-107361D01*
G01Y-107282D01*
G01X168913Y-107229D01*
G01X168859Y-107176D01*
G01X168781Y-107150D01*
G01X168727D01*
G01X168646Y-107176D01*
G01X168593Y-107229D01*
G01X168567Y-107282D01*
G01Y-107361D01*
G01X168567Y-106873D02*
G01X168938Y-106873D01*
G01X168674Y-106873D02*
G01X168593Y-106792D01*
G01X168567Y-106739D01*
G01Y-106660D01*
G01X168593Y-106607D01*
G01X168674Y-106581D01*
G01X168938D01*
G01X168567Y-106302D02*
G01X168938Y-106302D01*
G01X168674Y-106302D02*
G01X168593Y-106223D01*
G01X168567Y-106170D01*
G01Y-106091D01*
G01X168593Y-106038D01*
G01X168674Y-106010D01*
G01X168938D01*
G01X169123Y-105733D02*
G01X169123Y-105256D01*
G01X168382Y-104819D02*
G01X168407Y-104897D01*
G01X168486Y-104951D01*
G01X168621Y-104979D01*
G01X168699D01*
G01X168831Y-104951D01*
G01X168913Y-104897D01*
G01X168938Y-104819D01*
G01Y-104765D01*
G01X168913Y-104684D01*
G01X168831Y-104633D01*
G01X168699Y-104605D01*
G01X168621D01*
G01X168486Y-104633D01*
G01X168407Y-104684D01*
G01X168382Y-104765D01*
G01Y-104819D01*
G01X168486Y-104328D02*
G01X168461Y-104275D01*
G01X168382Y-104196D01*
G01X168938D01*
G01X168567Y-103917D02*
G01X168938Y-103625D01*
G01X168567Y-103625D02*
G01X168938Y-103917D01*
G01X168382Y-103188D02*
G01X168407Y-103269D01*
G01X168486Y-103323D01*
G01X168621Y-103348D01*
G01X168699D01*
G01X168831Y-103323D01*
G01X168913Y-103269D01*
G01X168938Y-103188D01*
G01Y-103135D01*
G01X168913Y-103056D01*
G01X168831Y-103003D01*
G01X168699Y-102977D01*
G01X168621D01*
G01X168486Y-103003D01*
G01X168407Y-103056D01*
G01X168382Y-103135D01*
G01Y-103188D01*
G01X168382Y-102566D02*
G01X168407Y-102644D01*
G01X168461Y-102672D01*
G01X168514D01*
G01X168567Y-102644D01*
G01X168593Y-102594D01*
G01X168621Y-102487D01*
G01X168646Y-102406D01*
G01X168699Y-102352D01*
G01X168753Y-102327D01*
G01X168831D01*
G01X168885Y-102352D01*
G01X168913Y-102380D01*
G01X168938Y-102459D01*
G01Y-102566D01*
G01X168913Y-102644D01*
G01X168885Y-102672D01*
G01X168831Y-102698D01*
G01X168753D01*
G01X168699Y-102672D01*
G01X168646Y-102619D01*
G01X168621Y-102540D01*
G01X168593Y-102434D01*
G01X168567Y-102380D01*
G01X168514Y-102352D01*
G01X168461D01*
G01X168407Y-102380D01*
G01X168382Y-102459D01*
G01Y-102566D01*
G04 //text: C64Saver2-rescue_Conn_01x04*
G01X169784Y-115729D02*
G01X169731Y-115755D01*
G01X169677Y-115808D01*
G01X169652Y-115861D01*
G01Y-115968D01*
G01X169677Y-116021D01*
G01X169731Y-116075D01*
G01X169784Y-116100D01*
G01X169863Y-116125D01*
G01X169997D01*
G01X170076Y-116100D01*
G01X170129Y-116075D01*
G01X170183Y-116021D01*
G01X170208Y-115968D01*
G01Y-115861D01*
G01X170183Y-115808D01*
G01X170129Y-115755D01*
G01X170076Y-115729D01*
G01X169731Y-115132D02*
G01X169677Y-115158D01*
G01X169652Y-115239D01*
G01Y-115292D01*
G01X169677Y-115371D01*
G01X169756Y-115424D01*
G01X169891Y-115450D01*
G01X170023D01*
G01X170129Y-115424D01*
G01X170183Y-115371D01*
G01X170208Y-115292D01*
G01Y-115264D01*
G01X170183Y-115186D01*
G01X170129Y-115132D01*
G01X170051Y-115104D01*
G01X170023D01*
G01X169944Y-115132D01*
G01X169891Y-115186D01*
G01X169863Y-115264D01*
G01Y-115292D01*
G01X169891Y-115371D01*
G01X169944Y-115424D01*
G01X170023Y-115450D01*
G01X169652Y-114563D02*
G01X170023Y-114828D01*
G01Y-114429D01*
G01X169652Y-114563D02*
G01X170208Y-114563D01*
G01X169731Y-113781D02*
G01X169677Y-113834D01*
G01X169652Y-113913D01*
G01Y-114020D01*
G01X169677Y-114099D01*
G01X169731Y-114152D01*
G01X169784D01*
G01X169837Y-114126D01*
G01X169863Y-114099D01*
G01X169891Y-114045D01*
G01X169944Y-113885D01*
G01X169969Y-113834D01*
G01X169997Y-113806D01*
G01X170051Y-113781D01*
G01X170129D01*
G01X170183Y-113834D01*
G01X170208Y-113913D01*
G01Y-114020D01*
G01X170183Y-114099D01*
G01X170129Y-114152D01*
G01X169837Y-113184D02*
G01X170208Y-113184D01*
G01X169916Y-113184D02*
G01X169863Y-113237D01*
G01X169837Y-113291D01*
G01Y-113370D01*
G01X169863Y-113423D01*
G01X169916Y-113476D01*
G01X169997Y-113502D01*
G01X170051D01*
G01X170129Y-113476D01*
G01X170183Y-113423D01*
G01X170208Y-113370D01*
G01Y-113291D01*
G01X170183Y-113237D01*
G01X170129Y-113184D01*
G01X169837Y-112907D02*
G01X170208Y-112747D01*
G01X169837Y-112587D02*
G01X170208Y-112747D01*
G01X169997Y-112310D02*
G01X169997Y-111990D01*
G01X169944D01*
G01X169891Y-112018D01*
G01X169863Y-112044D01*
G01X169837Y-112097D01*
G01Y-112178D01*
G01X169863Y-112232D01*
G01X169916Y-112282D01*
G01X169997Y-112310D01*
G01X170051D01*
G01X170129Y-112282D01*
G01X170183Y-112232D01*
G01X170208Y-112178D01*
G01Y-112097D01*
G01X170183Y-112044D01*
G01X170129Y-111990D01*
G01X169837Y-111713D02*
G01X170208Y-111713D01*
G01X169997Y-111713D02*
G01X169916Y-111688D01*
G01X169863Y-111635D01*
G01X169837Y-111581D01*
G01Y-111500D01*
G01X169784Y-111198D02*
G01X169756Y-111198D01*
G01X169705Y-111170D01*
G01X169677Y-111145D01*
G01X169652Y-111091D01*
G01Y-110984D01*
G01X169677Y-110931D01*
G01X169705Y-110906D01*
G01X169756Y-110878D01*
G01X169809D01*
G01X169863Y-110906D01*
G01X169944Y-110959D01*
G01X170208Y-111223D01*
G01Y-110852D01*
G01X169969Y-110576D02*
G01X169969Y-110095D01*
G01X169837Y-109819D02*
G01X170208Y-109819D01*
G01X169997Y-109819D02*
G01X169916Y-109793D01*
G01X169863Y-109740D01*
G01X169837Y-109687D01*
G01Y-109605D01*
G01X169997Y-109328D02*
G01X169997Y-109011D01*
G01X169944D01*
G01X169891Y-109036D01*
G01X169863Y-109064D01*
G01X169837Y-109118D01*
G01Y-109196D01*
G01X169863Y-109250D01*
G01X169916Y-109303D01*
G01X169997Y-109328D01*
G01X170051D01*
G01X170129Y-109303D01*
G01X170183Y-109250D01*
G01X170208Y-109196D01*
G01Y-109118D01*
G01X170183Y-109064D01*
G01X170129Y-109011D01*
G01X169916Y-108439D02*
G01X169863Y-108467D01*
G01X169837Y-108546D01*
G01Y-108627D01*
G01X169863Y-108706D01*
G01X169916Y-108732D01*
G01X169969Y-108706D01*
G01X169997Y-108653D01*
G01X170023Y-108521D01*
G01X170051Y-108467D01*
G01X170101Y-108439D01*
G01X170129D01*
G01X170183Y-108467D01*
G01X170208Y-108546D01*
G01Y-108627D01*
G01X170183Y-108706D01*
G01X170129Y-108732D01*
G01X169916Y-107845D02*
G01X169863Y-107898D01*
G01X169837Y-107949D01*
G01Y-108030D01*
G01X169863Y-108084D01*
G01X169916Y-108137D01*
G01X169997Y-108163D01*
G01X170051D01*
G01X170129Y-108137D01*
G01X170183Y-108084D01*
G01X170208Y-108030D01*
G01Y-107949D01*
G01X170183Y-107898D01*
G01X170129Y-107845D01*
G01X169837Y-107566D02*
G01X170101Y-107566D01*
G01X170183Y-107540D01*
G01X170208Y-107487D01*
G01Y-107408D01*
G01X170183Y-107355D01*
G01X170101Y-107274D01*
G01X169837Y-107274D02*
G01X170208Y-107274D01*
G01X169997Y-106997D02*
G01X169997Y-106679D01*
G01X169944D01*
G01X169891Y-106705D01*
G01X169863Y-106733D01*
G01X169837Y-106783D01*
G01Y-106865D01*
G01X169863Y-106918D01*
G01X169916Y-106971D01*
G01X169997Y-106997D01*
G01X170051D01*
G01X170129Y-106971D01*
G01X170183Y-106918D01*
G01X170208Y-106865D01*
G01Y-106783D01*
G01X170183Y-106733D01*
G01X170129Y-106679D01*
G01X170393Y-106400D02*
G01X170393Y-105922D01*
G01X169784Y-105247D02*
G01X169731Y-105272D01*
G01X169677Y-105325D01*
G01X169652Y-105379D01*
G01Y-105485D01*
G01X169677Y-105539D01*
G01X169731Y-105592D01*
G01X169784Y-105617D01*
G01X169863Y-105645D01*
G01X169997D01*
G01X170076Y-105617D01*
G01X170129Y-105592D01*
G01X170183Y-105539D01*
G01X170208Y-105485D01*
G01Y-105379D01*
G01X170183Y-105325D01*
G01X170129Y-105272D01*
G01X170076Y-105247D01*
G01X169837Y-104835D02*
G01X169863Y-104888D01*
G01X169916Y-104942D01*
G01X169997Y-104970D01*
G01X170051D01*
G01X170129Y-104942D01*
G01X170183Y-104888D01*
G01X170208Y-104835D01*
G01Y-104756D01*
G01X170183Y-104703D01*
G01X170129Y-104650D01*
G01X170051Y-104624D01*
G01X169997D01*
G01X169916Y-104650D01*
G01X169863Y-104703D01*
G01X169837Y-104756D01*
G01Y-104835D01*
G01X169837Y-104347D02*
G01X170208Y-104347D01*
G01X169944Y-104347D02*
G01X169863Y-104266D01*
G01X169837Y-104213D01*
G01Y-104134D01*
G01X169863Y-104081D01*
G01X169944Y-104055D01*
G01X170208D01*
G01X169837Y-103776D02*
G01X170208Y-103776D01*
G01X169944Y-103776D02*
G01X169863Y-103697D01*
G01X169837Y-103644D01*
G01Y-103565D01*
G01X169863Y-103512D01*
G01X169944Y-103484D01*
G01X170208D01*
G01X170393Y-103207D02*
G01X170393Y-102729D01*
G01X169652Y-102293D02*
G01X169677Y-102371D01*
G01X169756Y-102425D01*
G01X169891Y-102453D01*
G01X169969D01*
G01X170101Y-102425D01*
G01X170183Y-102371D01*
G01X170208Y-102293D01*
G01Y-102239D01*
G01X170183Y-102158D01*
G01X170101Y-102107D01*
G01X169969Y-102079D01*
G01X169891D01*
G01X169756Y-102107D01*
G01X169677Y-102158D01*
G01X169652Y-102239D01*
G01Y-102293D01*
G01X169756Y-101802D02*
G01X169731Y-101749D01*
G01X169652Y-101670D01*
G01X170208D01*
G01X169837Y-101391D02*
G01X170208Y-101099D01*
G01X169837Y-101099D02*
G01X170208Y-101391D01*
G01X169652Y-100662D02*
G01X169677Y-100743D01*
G01X169756Y-100797D01*
G01X169891Y-100822D01*
G01X169969D01*
G01X170101Y-100797D01*
G01X170183Y-100743D01*
G01X170208Y-100662D01*
G01Y-100609D01*
G01X170183Y-100530D01*
G01X170101Y-100477D01*
G01X169969Y-100451D01*
G01X169891D01*
G01X169756Y-100477D01*
G01X169677Y-100530D01*
G01X169652Y-100609D01*
G01Y-100662D01*
G01X169652Y-99908D02*
G01X170023Y-100172D01*
G01Y-99773D01*
G01X169652Y-99908D02*
G01X170208Y-99908D01*
G04 //text: C64Saver2-rescue_Mounting_Hole*
G01X144023Y-89671D02*
G01X143998Y-89618D01*
G01X143945Y-89565D01*
G01X143891Y-89539D01*
G01X143785D01*
G01X143731Y-89565D01*
G01X143678Y-89618D01*
G01X143653Y-89671D01*
G01X143627Y-89750D01*
G01Y-89885D01*
G01X143653Y-89964D01*
G01X143678Y-90017D01*
G01X143731Y-90070D01*
G01X143785Y-90096D01*
G01X143891D01*
G01X143945Y-90070D01*
G01X143998Y-90017D01*
G01X144023Y-89964D01*
G01X144620Y-89618D02*
G01X144595Y-89565D01*
G01X144514Y-89539D01*
G01X144460D01*
G01X144382Y-89565D01*
G01X144328Y-89644D01*
G01X144303Y-89778D01*
G01Y-89910D01*
G01X144328Y-90017D01*
G01X144382Y-90070D01*
G01X144460Y-90096D01*
G01X144488D01*
G01X144567Y-90070D01*
G01X144620Y-90017D01*
G01X144648Y-89938D01*
G01Y-89910D01*
G01X144620Y-89831D01*
G01X144567Y-89778D01*
G01X144488Y-89750D01*
G01X144460D01*
G01X144382Y-89778D01*
G01X144328Y-89831D01*
G01X144303Y-89910D01*
G01X145189Y-89539D02*
G01X144925Y-89910D01*
G01X145324D01*
G01X145189Y-89539D02*
G01X145189Y-90096D01*
G01X145972Y-89618D02*
G01X145918Y-89565D01*
G01X145839Y-89539D01*
G01X145733D01*
G01X145654Y-89565D01*
G01X145601Y-89618D01*
G01Y-89671D01*
G01X145626Y-89725D01*
G01X145654Y-89750D01*
G01X145707Y-89778D01*
G01X145867Y-89831D01*
G01X145918Y-89857D01*
G01X145946Y-89885D01*
G01X145972Y-89938D01*
G01Y-90017D01*
G01X145918Y-90070D01*
G01X145839Y-90096D01*
G01X145733D01*
G01X145654Y-90070D01*
G01X145601Y-90017D01*
G01X146568Y-89725D02*
G01X146568Y-90096D01*
G01X146568Y-89804D02*
G01X146515Y-89750D01*
G01X146462Y-89725D01*
G01X146383D01*
G01X146330Y-89750D01*
G01X146276Y-89804D01*
G01X146251Y-89885D01*
G01Y-89938D01*
G01X146276Y-90017D01*
G01X146330Y-90070D01*
G01X146383Y-90096D01*
G01X146462D01*
G01X146515Y-90070D01*
G01X146568Y-90017D01*
G01X146845Y-89725D02*
G01X147005Y-90096D01*
G01X147165Y-89725D02*
G01X147005Y-90096D01*
G01X147442Y-89885D02*
G01X147762Y-89885D01*
G01Y-89831D01*
G01X147734Y-89778D01*
G01X147709Y-89750D01*
G01X147656Y-89725D01*
G01X147574D01*
G01X147521Y-89750D01*
G01X147470Y-89804D01*
G01X147442Y-89885D01*
G01Y-89938D01*
G01X147470Y-90017D01*
G01X147521Y-90070D01*
G01X147574Y-90096D01*
G01X147656D01*
G01X147709Y-90070D01*
G01X147762Y-90017D01*
G01X148039Y-89725D02*
G01X148039Y-90096D01*
G01X148039Y-89885D02*
G01X148065Y-89804D01*
G01X148118Y-89750D01*
G01X148171Y-89725D01*
G01X148252D01*
G01X148555Y-89671D02*
G01X148555Y-89644D01*
G01X148583Y-89593D01*
G01X148608Y-89565D01*
G01X148661Y-89539D01*
G01X148768D01*
G01X148821Y-89565D01*
G01X148847Y-89593D01*
G01X148875Y-89644D01*
G01Y-89697D01*
G01X148847Y-89750D01*
G01X148793Y-89831D01*
G01X148529Y-90096D01*
G01X148900D01*
G01X149177Y-89857D02*
G01X149657Y-89857D01*
G01X149934Y-89725D02*
G01X149934Y-90096D01*
G01X149934Y-89885D02*
G01X149959Y-89804D01*
G01X150013Y-89750D01*
G01X150066Y-89725D01*
G01X150147D01*
G01X150424Y-89885D02*
G01X150742Y-89885D01*
G01Y-89831D01*
G01X150716Y-89778D01*
G01X150688Y-89750D01*
G01X150635Y-89725D01*
G01X150556D01*
G01X150503Y-89750D01*
G01X150450Y-89804D01*
G01X150424Y-89885D01*
G01Y-89938D01*
G01X150450Y-90017D01*
G01X150503Y-90070D01*
G01X150556Y-90096D01*
G01X150635D01*
G01X150688Y-90070D01*
G01X150742Y-90017D01*
G01X151313Y-89804D02*
G01X151285Y-89750D01*
G01X151206Y-89725D01*
G01X151125D01*
G01X151046Y-89750D01*
G01X151021Y-89804D01*
G01X151046Y-89857D01*
G01X151100Y-89885D01*
G01X151232Y-89910D01*
G01X151285Y-89938D01*
G01X151313Y-89989D01*
G01Y-90017D01*
G01X151285Y-90070D01*
G01X151206Y-90096D01*
G01X151125D01*
G01X151046Y-90070D01*
G01X151021Y-90017D01*
G01X151908Y-89804D02*
G01X151854Y-89750D01*
G01X151803Y-89725D01*
G01X151722D01*
G01X151669Y-89750D01*
G01X151615Y-89804D01*
G01X151590Y-89885D01*
G01Y-89938D01*
G01X151615Y-90017D01*
G01X151669Y-90070D01*
G01X151722Y-90096D01*
G01X151803D01*
G01X151854Y-90070D01*
G01X151908Y-90017D01*
G01X152187Y-89725D02*
G01X152187Y-89989D01*
G01X152212Y-90070D01*
G01X152266Y-90096D01*
G01X152344D01*
G01X152398Y-90070D01*
G01X152479Y-89989D01*
G01X152479Y-89725D02*
G01X152479Y-90096D01*
G01X152756Y-89885D02*
G01X153073Y-89885D01*
G01Y-89831D01*
G01X153048Y-89778D01*
G01X153020Y-89750D01*
G01X152969Y-89725D01*
G01X152888D01*
G01X152835Y-89750D01*
G01X152781Y-89804D01*
G01X152756Y-89885D01*
G01Y-89938D01*
G01X152781Y-90017D01*
G01X152835Y-90070D01*
G01X152888Y-90096D01*
G01X152969D01*
G01X153020Y-90070D01*
G01X153073Y-90017D01*
G01X153353Y-90281D02*
G01X153830Y-90281D01*
G01X154107Y-89539D02*
G01X154107Y-90096D01*
G01X154107Y-89539D02*
G01X154321Y-90096D01*
G01X154531Y-89539D02*
G01X154321Y-90096D01*
G01X154531Y-89539D02*
G01X154531Y-90096D01*
G01X154943Y-89725D02*
G01X154889Y-89750D01*
G01X154836Y-89804D01*
G01X154811Y-89885D01*
G01Y-89938D01*
G01X154836Y-90017D01*
G01X154889Y-90070D01*
G01X154943Y-90096D01*
G01X155022D01*
G01X155075Y-90070D01*
G01X155128Y-90017D01*
G01X155156Y-89938D01*
G01Y-89885D01*
G01X155128Y-89804D01*
G01X155075Y-89750D01*
G01X155022Y-89725D01*
G01X154943D01*
G01X155433Y-89725D02*
G01X155433Y-89989D01*
G01X155458Y-90070D01*
G01X155512Y-90096D01*
G01X155593D01*
G01X155646Y-90070D01*
G01X155725Y-89989D01*
G01X155725Y-89725D02*
G01X155725Y-90096D01*
G01X156002Y-89725D02*
G01X156002Y-90096D01*
G01X156002Y-89831D02*
G01X156083Y-89750D01*
G01X156134Y-89725D01*
G01X156215D01*
G01X156269Y-89750D01*
G01X156294Y-89831D01*
G01Y-90096D01*
G01X156652Y-89539D02*
G01X156652Y-89989D01*
G01X156678Y-90070D01*
G01X156731Y-90096D01*
G01X156784D01*
G01X156571Y-89725D02*
G01X156759Y-89725D01*
G01X157061Y-89539D02*
G01X157089Y-89565D01*
G01X157115Y-89539D01*
G01X157089Y-89511D01*
G01X157061Y-89539D01*
G01X157089Y-89725D02*
G01X157089Y-90096D01*
G01X157394Y-89725D02*
G01X157394Y-90096D01*
G01X157394Y-89831D02*
G01X157473Y-89750D01*
G01X157526Y-89725D01*
G01X157605D01*
G01X157658Y-89750D01*
G01X157686Y-89831D01*
G01Y-90096D01*
G01X158280Y-89725D02*
G01X158280Y-90149D01*
G01X158255Y-90230D01*
G01X158227Y-90256D01*
G01X158174Y-90281D01*
G01X158095D01*
G01X158042Y-90256D01*
G01X158280Y-89804D02*
G01X158227Y-89750D01*
G01X158174Y-89725D01*
G01X158095D01*
G01X158042Y-89750D01*
G01X157988Y-89804D01*
G01X157963Y-89885D01*
G01Y-89938D01*
G01X157988Y-90017D01*
G01X158042Y-90070D01*
G01X158095Y-90096D01*
G01X158174D01*
G01X158227Y-90070D01*
G01X158280Y-90017D01*
G01X158560Y-90281D02*
G01X159037Y-90281D01*
G01X159314Y-89539D02*
G01X159314Y-90096D01*
G01X159685Y-89539D02*
G01X159685Y-90096D01*
G01X159314Y-89804D02*
G01X159685Y-89804D01*
G01X160096Y-89725D02*
G01X160043Y-89750D01*
G01X159990Y-89804D01*
G01X159964Y-89885D01*
G01Y-89938D01*
G01X159990Y-90017D01*
G01X160043Y-90070D01*
G01X160096Y-90096D01*
G01X160175D01*
G01X160229Y-90070D01*
G01X160282Y-90017D01*
G01X160310Y-89938D01*
G01Y-89885D01*
G01X160282Y-89804D01*
G01X160229Y-89750D01*
G01X160175Y-89725D01*
G01X160096D01*
G01X160587Y-89539D02*
G01X160587Y-90096D01*
G01X160864Y-89885D02*
G01X161184Y-89885D01*
G01Y-89831D01*
G01X161156Y-89778D01*
G01X161130Y-89750D01*
G01X161077Y-89725D01*
G01X160996D01*
G01X160945Y-89750D01*
G01X160892Y-89804D01*
G01X160864Y-89885D01*
G01Y-89938D01*
G01X160892Y-90017D01*
G01X160945Y-90070D01*
G01X160996Y-90096D01*
G01X161077D01*
G01X161130Y-90070D01*
G01X161184Y-90017D01*
G04 //text: C64Saver2-rescue_Mounting_Hole*
G01X164018Y-113177D02*
G01X163993Y-113123D01*
G01X163939Y-113070D01*
G01X163886Y-113045D01*
G01X163779D01*
G01X163726Y-113070D01*
G01X163673Y-113123D01*
G01X163647Y-113177D01*
G01X163622Y-113255D01*
G01Y-113390D01*
G01X163647Y-113469D01*
G01X163673Y-113522D01*
G01X163726Y-113575D01*
G01X163779Y-113601D01*
G01X163886D01*
G01X163939Y-113575D01*
G01X163993Y-113522D01*
G01X164018Y-113469D01*
G01X164615Y-113123D02*
G01X164590Y-113070D01*
G01X164508Y-113045D01*
G01X164455D01*
G01X164376Y-113070D01*
G01X164323Y-113149D01*
G01X164298Y-113283D01*
G01Y-113415D01*
G01X164323Y-113522D01*
G01X164376Y-113575D01*
G01X164455Y-113601D01*
G01X164483D01*
G01X164562Y-113575D01*
G01X164615Y-113522D01*
G01X164643Y-113443D01*
G01Y-113415D01*
G01X164615Y-113337D01*
G01X164562Y-113283D01*
G01X164483Y-113255D01*
G01X164455D01*
G01X164376Y-113283D01*
G01X164323Y-113337D01*
G01X164298Y-113415D01*
G01X165184Y-113045D02*
G01X164920Y-113415D01*
G01X165319D01*
G01X165184Y-113045D02*
G01X165184Y-113601D01*
G01X165966Y-113123D02*
G01X165913Y-113070D01*
G01X165834Y-113045D01*
G01X165728D01*
G01X165649Y-113070D01*
G01X165596Y-113123D01*
G01Y-113177D01*
G01X165621Y-113230D01*
G01X165649Y-113255D01*
G01X165702Y-113283D01*
G01X165862Y-113337D01*
G01X165913Y-113362D01*
G01X165941Y-113390D01*
G01X165966Y-113443D01*
G01Y-113522D01*
G01X165913Y-113575D01*
G01X165834Y-113601D01*
G01X165728D01*
G01X165649Y-113575D01*
G01X165596Y-113522D01*
G01X166563Y-113230D02*
G01X166563Y-113601D01*
G01X166563Y-113309D02*
G01X166510Y-113255D01*
G01X166457Y-113230D01*
G01X166378D01*
G01X166325Y-113255D01*
G01X166271Y-113309D01*
G01X166246Y-113390D01*
G01Y-113443D01*
G01X166271Y-113522D01*
G01X166325Y-113575D01*
G01X166378Y-113601D01*
G01X166457D01*
G01X166510Y-113575D01*
G01X166563Y-113522D01*
G01X166840Y-113230D02*
G01X167000Y-113601D01*
G01X167160Y-113230D02*
G01X167000Y-113601D01*
G01X167437Y-113390D02*
G01X167757Y-113390D01*
G01Y-113337D01*
G01X167729Y-113283D01*
G01X167704Y-113255D01*
G01X167650Y-113230D01*
G01X167569D01*
G01X167516Y-113255D01*
G01X167465Y-113309D01*
G01X167437Y-113390D01*
G01Y-113443D01*
G01X167465Y-113522D01*
G01X167516Y-113575D01*
G01X167569Y-113601D01*
G01X167650D01*
G01X167704Y-113575D01*
G01X167757Y-113522D01*
G01X168034Y-113230D02*
G01X168034Y-113601D01*
G01X168034Y-113390D02*
G01X168059Y-113309D01*
G01X168113Y-113255D01*
G01X168166Y-113230D01*
G01X168247D01*
G01X168550Y-113177D02*
G01X168550Y-113149D01*
G01X168578Y-113098D01*
G01X168603Y-113070D01*
G01X168656Y-113045D01*
G01X168763D01*
G01X168816Y-113070D01*
G01X168842Y-113098D01*
G01X168870Y-113149D01*
G01Y-113202D01*
G01X168842Y-113255D01*
G01X168788Y-113337D01*
G01X168524Y-113601D01*
G01X168895D01*
G01X169172Y-113362D02*
G01X169652Y-113362D01*
G01X169929Y-113230D02*
G01X169929Y-113601D01*
G01X169929Y-113390D02*
G01X169954Y-113309D01*
G01X170008Y-113255D01*
G01X170061Y-113230D01*
G01X170142D01*
G01X170419Y-113390D02*
G01X170737Y-113390D01*
G01Y-113337D01*
G01X170711Y-113283D01*
G01X170683Y-113255D01*
G01X170630Y-113230D01*
G01X170551D01*
G01X170498Y-113255D01*
G01X170444Y-113309D01*
G01X170419Y-113390D01*
G01Y-113443D01*
G01X170444Y-113522D01*
G01X170498Y-113575D01*
G01X170551Y-113601D01*
G01X170630D01*
G01X170683Y-113575D01*
G01X170737Y-113522D01*
G01X171308Y-113309D02*
G01X171280Y-113255D01*
G01X171201Y-113230D01*
G01X171120D01*
G01X171041Y-113255D01*
G01X171016Y-113309D01*
G01X171041Y-113362D01*
G01X171095Y-113390D01*
G01X171227Y-113415D01*
G01X171280Y-113443D01*
G01X171308Y-113494D01*
G01Y-113522D01*
G01X171280Y-113575D01*
G01X171201Y-113601D01*
G01X171120D01*
G01X171041Y-113575D01*
G01X171016Y-113522D01*
G01X171902Y-113309D02*
G01X171849Y-113255D01*
G01X171798Y-113230D01*
G01X171717D01*
G01X171664Y-113255D01*
G01X171610Y-113309D01*
G01X171585Y-113390D01*
G01Y-113443D01*
G01X171610Y-113522D01*
G01X171664Y-113575D01*
G01X171717Y-113601D01*
G01X171798D01*
G01X171849Y-113575D01*
G01X171902Y-113522D01*
G01X172182Y-113230D02*
G01X172182Y-113494D01*
G01X172207Y-113575D01*
G01X172261Y-113601D01*
G01X172339D01*
G01X172393Y-113575D01*
G01X172474Y-113494D01*
G01X172474Y-113230D02*
G01X172474Y-113601D01*
G01X172751Y-113390D02*
G01X173068Y-113390D01*
G01Y-113337D01*
G01X173043Y-113283D01*
G01X173015Y-113255D01*
G01X172964Y-113230D01*
G01X172883D01*
G01X172829Y-113255D01*
G01X172776Y-113309D01*
G01X172751Y-113390D01*
G01Y-113443D01*
G01X172776Y-113522D01*
G01X172829Y-113575D01*
G01X172883Y-113601D01*
G01X172964D01*
G01X173015Y-113575D01*
G01X173068Y-113522D01*
G01X173348Y-113786D02*
G01X173825Y-113786D01*
G01X174102Y-113045D02*
G01X174102Y-113601D01*
G01X174102Y-113045D02*
G01X174315Y-113601D01*
G01X174526Y-113045D02*
G01X174315Y-113601D01*
G01X174526Y-113045D02*
G01X174526Y-113601D01*
G01X174938Y-113230D02*
G01X174884Y-113255D01*
G01X174831Y-113309D01*
G01X174806Y-113390D01*
G01Y-113443D01*
G01X174831Y-113522D01*
G01X174884Y-113575D01*
G01X174938Y-113601D01*
G01X175016D01*
G01X175070Y-113575D01*
G01X175123Y-113522D01*
G01X175151Y-113443D01*
G01Y-113390D01*
G01X175123Y-113309D01*
G01X175070Y-113255D01*
G01X175016Y-113230D01*
G01X174938D01*
G01X175428Y-113230D02*
G01X175428Y-113494D01*
G01X175453Y-113575D01*
G01X175507Y-113601D01*
G01X175588D01*
G01X175641Y-113575D01*
G01X175720Y-113494D01*
G01X175720Y-113230D02*
G01X175720Y-113601D01*
G01X175997Y-113230D02*
G01X175997Y-113601D01*
G01X175997Y-113337D02*
G01X176078Y-113255D01*
G01X176129Y-113230D01*
G01X176210D01*
G01X176264Y-113255D01*
G01X176289Y-113337D01*
G01Y-113601D01*
G01X176647Y-113045D02*
G01X176647Y-113494D01*
G01X176672Y-113575D01*
G01X176726Y-113601D01*
G01X176779D01*
G01X176566Y-113230D02*
G01X176754Y-113230D01*
G01X177056Y-113045D02*
G01X177084Y-113070D01*
G01X177109Y-113045D01*
G01X177084Y-113017D01*
G01X177056Y-113045D01*
G01X177084Y-113230D02*
G01X177084Y-113601D01*
G01X177389Y-113230D02*
G01X177389Y-113601D01*
G01X177389Y-113337D02*
G01X177468Y-113255D01*
G01X177521Y-113230D01*
G01X177600D01*
G01X177653Y-113255D01*
G01X177681Y-113337D01*
G01Y-113601D01*
G01X178275Y-113230D02*
G01X178275Y-113654D01*
G01X178250Y-113735D01*
G01X178222Y-113761D01*
G01X178169Y-113786D01*
G01X178090D01*
G01X178036Y-113761D01*
G01X178275Y-113309D02*
G01X178222Y-113255D01*
G01X178169Y-113230D01*
G01X178090D01*
G01X178036Y-113255D01*
G01X177983Y-113309D01*
G01X177958Y-113390D01*
G01Y-113443D01*
G01X177983Y-113522D01*
G01X178036Y-113575D01*
G01X178090Y-113601D01*
G01X178169D01*
G01X178222Y-113575D01*
G01X178275Y-113522D01*
G01X178555Y-113786D02*
G01X179032Y-113786D01*
G01X179309Y-113045D02*
G01X179309Y-113601D01*
G01X179680Y-113045D02*
G01X179680Y-113601D01*
G01X179309Y-113309D02*
G01X179680Y-113309D01*
G01X180091Y-113230D02*
G01X180038Y-113255D01*
G01X179985Y-113309D01*
G01X179959Y-113390D01*
G01Y-113443D01*
G01X179985Y-113522D01*
G01X180038Y-113575D01*
G01X180091Y-113601D01*
G01X180170D01*
G01X180223Y-113575D01*
G01X180277Y-113522D01*
G01X180305Y-113443D01*
G01Y-113390D01*
G01X180277Y-113309D01*
G01X180223Y-113255D01*
G01X180170Y-113230D01*
G01X180091D01*
G01X180582Y-113045D02*
G01X180582Y-113601D01*
G01X180858Y-113390D02*
G01X181178Y-113390D01*
G01Y-113337D01*
G01X181151Y-113283D01*
G01X181125Y-113255D01*
G01X181072Y-113230D01*
G01X180990D01*
G01X180940Y-113255D01*
G01X180886Y-113309D01*
G01X180858Y-113390D01*
G01Y-113443D01*
G01X180886Y-113522D01*
G01X180940Y-113575D01*
G01X180990Y-113601D01*
G01X181072D01*
G01X181125Y-113575D01*
G01X181178Y-113522D01*
G04 //text: C64Saver2-rescue_R*
G01X167947Y-101423D02*
G01X167894Y-101448D01*
G01X167841Y-101502D01*
G01X167815Y-101555D01*
G01Y-101662D01*
G01X167841Y-101715D01*
G01X167894Y-101768D01*
G01X167947Y-101794D01*
G01X168026Y-101819D01*
G01X168161D01*
G01X168239Y-101794D01*
G01X168293Y-101768D01*
G01X168346Y-101715D01*
G01X168371Y-101662D01*
G01Y-101555D01*
G01X168346Y-101502D01*
G01X168293Y-101448D01*
G01X168239Y-101423D01*
G01X167894Y-100826D02*
G01X167841Y-100851D01*
G01X167815Y-100933D01*
G01Y-100986D01*
G01X167841Y-101065D01*
G01X167919Y-101118D01*
G01X168054Y-101143D01*
G01X168186D01*
G01X168293Y-101118D01*
G01X168346Y-101065D01*
G01X168371Y-100986D01*
G01Y-100958D01*
G01X168346Y-100879D01*
G01X168293Y-100826D01*
G01X168214Y-100798D01*
G01X168186D01*
G01X168107Y-100826D01*
G01X168054Y-100879D01*
G01X168026Y-100958D01*
G01Y-100986D01*
G01X168054Y-101065D01*
G01X168107Y-101118D01*
G01X168186Y-101143D01*
G01X167815Y-100257D02*
G01X168186Y-100521D01*
G01Y-100122D01*
G01X167815Y-100257D02*
G01X168371Y-100257D01*
G01X167894Y-99475D02*
G01X167841Y-99528D01*
G01X167815Y-99607D01*
G01Y-99713D01*
G01X167841Y-99792D01*
G01X167894Y-99846D01*
G01X167947D01*
G01X168001Y-99820D01*
G01X168026Y-99792D01*
G01X168054Y-99739D01*
G01X168107Y-99579D01*
G01X168133Y-99528D01*
G01X168161Y-99500D01*
G01X168214Y-99475D01*
G01X168293D01*
G01X168346Y-99528D01*
G01X168371Y-99607D01*
G01Y-99713D01*
G01X168346Y-99792D01*
G01X168293Y-99846D01*
G01X168001Y-98878D02*
G01X168371Y-98878D01*
G01X168079Y-98878D02*
G01X168026Y-98931D01*
G01X168001Y-98984D01*
G01Y-99063D01*
G01X168026Y-99117D01*
G01X168079Y-99170D01*
G01X168161Y-99195D01*
G01X168214D01*
G01X168293Y-99170D01*
G01X168346Y-99117D01*
G01X168371Y-99063D01*
G01Y-98984D01*
G01X168346Y-98931D01*
G01X168293Y-98878D01*
G01X168001Y-98601D02*
G01X168371Y-98441D01*
G01X168001Y-98281D02*
G01X168371Y-98441D01*
G01X168161Y-98004D02*
G01X168161Y-97684D01*
G01X168107D01*
G01X168054Y-97712D01*
G01X168026Y-97737D01*
G01X168001Y-97791D01*
G01Y-97872D01*
G01X168026Y-97925D01*
G01X168079Y-97976D01*
G01X168161Y-98004D01*
G01X168214D01*
G01X168293Y-97976D01*
G01X168346Y-97925D01*
G01X168371Y-97872D01*
G01Y-97791D01*
G01X168346Y-97737D01*
G01X168293Y-97684D01*
G01X168001Y-97407D02*
G01X168371Y-97407D01*
G01X168161Y-97407D02*
G01X168079Y-97382D01*
G01X168026Y-97328D01*
G01X168001Y-97275D01*
G01Y-97194D01*
G01X167947Y-96892D02*
G01X167919Y-96892D01*
G01X167868Y-96864D01*
G01X167841Y-96838D01*
G01X167815Y-96785D01*
G01Y-96678D01*
G01X167841Y-96625D01*
G01X167868Y-96599D01*
G01X167919Y-96571D01*
G01X167973D01*
G01X168026Y-96599D01*
G01X168107Y-96653D01*
G01X168371Y-96917D01*
G01Y-96546D01*
G01X168133Y-96269D02*
G01X168133Y-95789D01*
G01X168001Y-95512D02*
G01X168371Y-95512D01*
G01X168161Y-95512D02*
G01X168079Y-95487D01*
G01X168026Y-95434D01*
G01X168001Y-95380D01*
G01Y-95299D01*
G01X168161Y-95022D02*
G01X168161Y-94705D01*
G01X168107D01*
G01X168054Y-94730D01*
G01X168026Y-94758D01*
G01X168001Y-94811D01*
G01Y-94890D01*
G01X168026Y-94943D01*
G01X168079Y-94997D01*
G01X168161Y-95022D01*
G01X168214D01*
G01X168293Y-94997D01*
G01X168346Y-94943D01*
G01X168371Y-94890D01*
G01Y-94811D01*
G01X168346Y-94758D01*
G01X168293Y-94705D01*
G01X168079Y-94133D02*
G01X168026Y-94161D01*
G01X168001Y-94240D01*
G01Y-94321D01*
G01X168026Y-94400D01*
G01X168079Y-94425D01*
G01X168133Y-94400D01*
G01X168161Y-94346D01*
G01X168186Y-94214D01*
G01X168214Y-94161D01*
G01X168265Y-94133D01*
G01X168293D01*
G01X168346Y-94161D01*
G01X168371Y-94240D01*
G01Y-94321D01*
G01X168346Y-94400D01*
G01X168293Y-94425D01*
G01X168079Y-93539D02*
G01X168026Y-93592D01*
G01X168001Y-93643D01*
G01Y-93724D01*
G01X168026Y-93777D01*
G01X168079Y-93831D01*
G01X168161Y-93856D01*
G01X168214D01*
G01X168293Y-93831D01*
G01X168346Y-93777D01*
G01X168371Y-93724D01*
G01Y-93643D01*
G01X168346Y-93592D01*
G01X168293Y-93539D01*
G01X168001Y-93259D02*
G01X168265Y-93259D01*
G01X168346Y-93234D01*
G01X168371Y-93181D01*
G01Y-93102D01*
G01X168346Y-93048D01*
G01X168265Y-92967D01*
G01X168001Y-92967D02*
G01X168371Y-92967D01*
G01X168161Y-92690D02*
G01X168161Y-92373D01*
G01X168107D01*
G01X168054Y-92398D01*
G01X168026Y-92426D01*
G01X168001Y-92477D01*
G01Y-92558D01*
G01X168026Y-92612D01*
G01X168079Y-92665D01*
G01X168161Y-92690D01*
G01X168214D01*
G01X168293Y-92665D01*
G01X168346Y-92612D01*
G01X168371Y-92558D01*
G01Y-92477D01*
G01X168346Y-92426D01*
G01X168293Y-92373D01*
G01X168557Y-92093D02*
G01X168557Y-91616D01*
G01X167815Y-91339D02*
G01X168371Y-91339D01*
G01X167815Y-91339D02*
G01X167815Y-91100D01*
G01X167841Y-91019D01*
G01X167868Y-90994D01*
G01X167919Y-90966D01*
G01X167973D01*
G01X168026Y-90994D01*
G01X168054Y-91019D01*
G01X168079Y-91100D01*
G01Y-91339D01*
G01X168079Y-91154D02*
G01X168371Y-90966D01*
G04 //text: C64Saver2-rescue_R*
G01X176613Y-101423D02*
G01X176560Y-101448D01*
G01X176507Y-101502D01*
G01X176481Y-101555D01*
G01Y-101662D01*
G01X176507Y-101715D01*
G01X176560Y-101768D01*
G01X176613Y-101794D01*
G01X176692Y-101819D01*
G01X176827D01*
G01X176905Y-101794D01*
G01X176959Y-101768D01*
G01X177012Y-101715D01*
G01X177037Y-101662D01*
G01Y-101555D01*
G01X177012Y-101502D01*
G01X176959Y-101448D01*
G01X176905Y-101423D01*
G01X176560Y-100826D02*
G01X176507Y-100851D01*
G01X176481Y-100933D01*
G01Y-100986D01*
G01X176507Y-101065D01*
G01X176585Y-101118D01*
G01X176720Y-101143D01*
G01X176852D01*
G01X176959Y-101118D01*
G01X177012Y-101065D01*
G01X177037Y-100986D01*
G01Y-100958D01*
G01X177012Y-100879D01*
G01X176959Y-100826D01*
G01X176880Y-100798D01*
G01X176852D01*
G01X176773Y-100826D01*
G01X176720Y-100879D01*
G01X176692Y-100958D01*
G01Y-100986D01*
G01X176720Y-101065D01*
G01X176773Y-101118D01*
G01X176852Y-101143D01*
G01X176481Y-100257D02*
G01X176852Y-100521D01*
G01Y-100122D01*
G01X176481Y-100257D02*
G01X177037Y-100257D01*
G01X176560Y-99475D02*
G01X176507Y-99528D01*
G01X176481Y-99607D01*
G01Y-99713D01*
G01X176507Y-99792D01*
G01X176560Y-99846D01*
G01X176613D01*
G01X176667Y-99820D01*
G01X176692Y-99792D01*
G01X176720Y-99739D01*
G01X176773Y-99579D01*
G01X176799Y-99528D01*
G01X176827Y-99500D01*
G01X176880Y-99475D01*
G01X176959D01*
G01X177012Y-99528D01*
G01X177037Y-99607D01*
G01Y-99713D01*
G01X177012Y-99792D01*
G01X176959Y-99846D01*
G01X176667Y-98878D02*
G01X177037Y-98878D01*
G01X176745Y-98878D02*
G01X176692Y-98931D01*
G01X176667Y-98984D01*
G01Y-99063D01*
G01X176692Y-99117D01*
G01X176745Y-99170D01*
G01X176827Y-99195D01*
G01X176880D01*
G01X176959Y-99170D01*
G01X177012Y-99117D01*
G01X177037Y-99063D01*
G01Y-98984D01*
G01X177012Y-98931D01*
G01X176959Y-98878D01*
G01X176667Y-98601D02*
G01X177037Y-98441D01*
G01X176667Y-98281D02*
G01X177037Y-98441D01*
G01X176827Y-98004D02*
G01X176827Y-97684D01*
G01X176773D01*
G01X176720Y-97712D01*
G01X176692Y-97737D01*
G01X176667Y-97791D01*
G01Y-97872D01*
G01X176692Y-97925D01*
G01X176745Y-97976D01*
G01X176827Y-98004D01*
G01X176880D01*
G01X176959Y-97976D01*
G01X177012Y-97925D01*
G01X177037Y-97872D01*
G01Y-97791D01*
G01X177012Y-97737D01*
G01X176959Y-97684D01*
G01X176667Y-97407D02*
G01X177037Y-97407D01*
G01X176827Y-97407D02*
G01X176745Y-97382D01*
G01X176692Y-97328D01*
G01X176667Y-97275D01*
G01Y-97194D01*
G01X176613Y-96892D02*
G01X176585Y-96892D01*
G01X176534Y-96864D01*
G01X176507Y-96838D01*
G01X176481Y-96785D01*
G01Y-96678D01*
G01X176507Y-96625D01*
G01X176534Y-96599D01*
G01X176585Y-96571D01*
G01X176639D01*
G01X176692Y-96599D01*
G01X176773Y-96653D01*
G01X177037Y-96917D01*
G01Y-96546D01*
G01X176799Y-96269D02*
G01X176799Y-95789D01*
G01X176667Y-95512D02*
G01X177037Y-95512D01*
G01X176827Y-95512D02*
G01X176745Y-95487D01*
G01X176692Y-95434D01*
G01X176667Y-95380D01*
G01Y-95299D01*
G01X176827Y-95022D02*
G01X176827Y-94705D01*
G01X176773D01*
G01X176720Y-94730D01*
G01X176692Y-94758D01*
G01X176667Y-94811D01*
G01Y-94890D01*
G01X176692Y-94943D01*
G01X176745Y-94997D01*
G01X176827Y-95022D01*
G01X176880D01*
G01X176959Y-94997D01*
G01X177012Y-94943D01*
G01X177037Y-94890D01*
G01Y-94811D01*
G01X177012Y-94758D01*
G01X176959Y-94705D01*
G01X176745Y-94133D02*
G01X176692Y-94161D01*
G01X176667Y-94240D01*
G01Y-94321D01*
G01X176692Y-94400D01*
G01X176745Y-94425D01*
G01X176799Y-94400D01*
G01X176827Y-94346D01*
G01X176852Y-94214D01*
G01X176880Y-94161D01*
G01X176931Y-94133D01*
G01X176959D01*
G01X177012Y-94161D01*
G01X177037Y-94240D01*
G01Y-94321D01*
G01X177012Y-94400D01*
G01X176959Y-94425D01*
G01X176745Y-93539D02*
G01X176692Y-93592D01*
G01X176667Y-93643D01*
G01Y-93724D01*
G01X176692Y-93777D01*
G01X176745Y-93831D01*
G01X176827Y-93856D01*
G01X176880D01*
G01X176959Y-93831D01*
G01X177012Y-93777D01*
G01X177037Y-93724D01*
G01Y-93643D01*
G01X177012Y-93592D01*
G01X176959Y-93539D01*
G01X176667Y-93259D02*
G01X176931Y-93259D01*
G01X177012Y-93234D01*
G01X177037Y-93181D01*
G01Y-93102D01*
G01X177012Y-93048D01*
G01X176931Y-92967D01*
G01X176667Y-92967D02*
G01X177037Y-92967D01*
G01X176827Y-92690D02*
G01X176827Y-92373D01*
G01X176773D01*
G01X176720Y-92398D01*
G01X176692Y-92426D01*
G01X176667Y-92477D01*
G01Y-92558D01*
G01X176692Y-92612D01*
G01X176745Y-92665D01*
G01X176827Y-92690D01*
G01X176880D01*
G01X176959Y-92665D01*
G01X177012Y-92612D01*
G01X177037Y-92558D01*
G01Y-92477D01*
G01X177012Y-92426D01*
G01X176959Y-92373D01*
G01X177223Y-92093D02*
G01X177223Y-91616D01*
G01X176481Y-91339D02*
G01X177037Y-91339D01*
G01X176481Y-91339D02*
G01X176481Y-91100D01*
G01X176507Y-91019D01*
G01X176534Y-90994D01*
G01X176585Y-90966D01*
G01X176639D01*
G01X176692Y-90994D01*
G01X176720Y-91019D01*
G01X176745Y-91100D01*
G01Y-91339D01*
G01X176745Y-91154D02*
G01X177037Y-90966D01*
G04 //text: C64Saver2-rescue_R*
G01X165585Y-96815D02*
G01X165531Y-96841D01*
G01X165478Y-96894D01*
G01X165453Y-96947D01*
G01Y-97054D01*
G01X165478Y-97107D01*
G01X165531Y-97161D01*
G01X165585Y-97186D01*
G01X165663Y-97212D01*
G01X165798D01*
G01X165877Y-97186D01*
G01X165930Y-97161D01*
G01X165983Y-97107D01*
G01X166009Y-97054D01*
G01Y-96947D01*
G01X165983Y-96894D01*
G01X165930Y-96841D01*
G01X165877Y-96815D01*
G01X165531Y-96218D02*
G01X165478Y-96244D01*
G01X165453Y-96325D01*
G01Y-96378D01*
G01X165478Y-96457D01*
G01X165557Y-96510D01*
G01X165691Y-96536D01*
G01X165823D01*
G01X165930Y-96510D01*
G01X165983Y-96457D01*
G01X166009Y-96378D01*
G01Y-96350D01*
G01X165983Y-96272D01*
G01X165930Y-96218D01*
G01X165851Y-96190D01*
G01X165823D01*
G01X165745Y-96218D01*
G01X165691Y-96272D01*
G01X165663Y-96350D01*
G01Y-96378D01*
G01X165691Y-96457D01*
G01X165745Y-96510D01*
G01X165823Y-96536D01*
G01X165453Y-95649D02*
G01X165823Y-95914D01*
G01Y-95515D01*
G01X165453Y-95649D02*
G01X166009Y-95649D01*
G01X165531Y-94867D02*
G01X165478Y-94920D01*
G01X165453Y-94999D01*
G01Y-95106D01*
G01X165478Y-95185D01*
G01X165531Y-95238D01*
G01X165585D01*
G01X165638Y-95213D01*
G01X165663Y-95185D01*
G01X165691Y-95131D01*
G01X165745Y-94971D01*
G01X165770Y-94920D01*
G01X165798Y-94893D01*
G01X165851Y-94867D01*
G01X165930D01*
G01X165983Y-94920D01*
G01X166009Y-94999D01*
G01Y-95106D01*
G01X165983Y-95185D01*
G01X165930Y-95238D01*
G01X165638Y-94270D02*
G01X166009Y-94270D01*
G01X165717Y-94270D02*
G01X165663Y-94324D01*
G01X165638Y-94377D01*
G01Y-94456D01*
G01X165663Y-94509D01*
G01X165717Y-94562D01*
G01X165798Y-94588D01*
G01X165851D01*
G01X165930Y-94562D01*
G01X165983Y-94509D01*
G01X166009Y-94456D01*
G01Y-94377D01*
G01X165983Y-94324D01*
G01X165930Y-94270D01*
G01X165638Y-93993D02*
G01X166009Y-93833D01*
G01X165638Y-93673D02*
G01X166009Y-93833D01*
G01X165798Y-93396D02*
G01X165798Y-93076D01*
G01X165745D01*
G01X165691Y-93104D01*
G01X165663Y-93130D01*
G01X165638Y-93183D01*
G01Y-93264D01*
G01X165663Y-93318D01*
G01X165717Y-93369D01*
G01X165798Y-93396D01*
G01X165851D01*
G01X165930Y-93369D01*
G01X165983Y-93318D01*
G01X166009Y-93264D01*
G01Y-93183D01*
G01X165983Y-93130D01*
G01X165930Y-93076D01*
G01X165638Y-92800D02*
G01X166009Y-92800D01*
G01X165798Y-92800D02*
G01X165717Y-92774D01*
G01X165663Y-92721D01*
G01X165638Y-92667D01*
G01Y-92586D01*
G01X165585Y-92284D02*
G01X165557Y-92284D01*
G01X165506Y-92256D01*
G01X165478Y-92231D01*
G01X165453Y-92177D01*
G01Y-92071D01*
G01X165478Y-92017D01*
G01X165506Y-91992D01*
G01X165557Y-91964D01*
G01X165610D01*
G01X165663Y-91992D01*
G01X165745Y-92045D01*
G01X166009Y-92309D01*
G01Y-91938D01*
G01X165770Y-91662D02*
G01X165770Y-91182D01*
G01X165638Y-90905D02*
G01X166009Y-90905D01*
G01X165798Y-90905D02*
G01X165717Y-90879D01*
G01X165663Y-90826D01*
G01X165638Y-90773D01*
G01Y-90691D01*
G01X165798Y-90414D02*
G01X165798Y-90097D01*
G01X165745D01*
G01X165691Y-90122D01*
G01X165663Y-90150D01*
G01X165638Y-90204D01*
G01Y-90282D01*
G01X165663Y-90336D01*
G01X165717Y-90389D01*
G01X165798Y-90414D01*
G01X165851D01*
G01X165930Y-90389D01*
G01X165983Y-90336D01*
G01X166009Y-90282D01*
G01Y-90204D01*
G01X165983Y-90150D01*
G01X165930Y-90097D01*
G01X165717Y-89525D02*
G01X165663Y-89553D01*
G01X165638Y-89632D01*
G01Y-89713D01*
G01X165663Y-89792D01*
G01X165717Y-89818D01*
G01X165770Y-89792D01*
G01X165798Y-89739D01*
G01X165823Y-89607D01*
G01X165851Y-89553D01*
G01X165902Y-89525D01*
G01X165930D01*
G01X165983Y-89553D01*
G01X166009Y-89632D01*
G01Y-89713D01*
G01X165983Y-89792D01*
G01X165930Y-89818D01*
G01X165717Y-88931D02*
G01X165663Y-88984D01*
G01X165638Y-89035D01*
G01Y-89117D01*
G01X165663Y-89170D01*
G01X165717Y-89223D01*
G01X165798Y-89249D01*
G01X165851D01*
G01X165930Y-89223D01*
G01X165983Y-89170D01*
G01X166009Y-89117D01*
G01Y-89035D01*
G01X165983Y-88984D01*
G01X165930Y-88931D01*
G01X165638Y-88652D02*
G01X165902Y-88652D01*
G01X165983Y-88626D01*
G01X166009Y-88573D01*
G01Y-88494D01*
G01X165983Y-88441D01*
G01X165902Y-88360D01*
G01X165638Y-88360D02*
G01X166009Y-88360D01*
G01X165798Y-88083D02*
G01X165798Y-87765D01*
G01X165745D01*
G01X165691Y-87791D01*
G01X165663Y-87819D01*
G01X165638Y-87869D01*
G01Y-87951D01*
G01X165663Y-88004D01*
G01X165717Y-88057D01*
G01X165798Y-88083D01*
G01X165851D01*
G01X165930Y-88057D01*
G01X165983Y-88004D01*
G01X166009Y-87951D01*
G01Y-87869D01*
G01X165983Y-87819D01*
G01X165930Y-87765D01*
G01X166194Y-87486D02*
G01X166194Y-87008D01*
G01X165453Y-86731D02*
G01X166009Y-86731D01*
G01X165453Y-86731D02*
G01X165453Y-86493D01*
G01X165478Y-86411D01*
G01X165506Y-86386D01*
G01X165557Y-86358D01*
G01X165610D01*
G01X165663Y-86386D01*
G01X165691Y-86411D01*
G01X165717Y-86493D01*
G01Y-86731D01*
G01X165717Y-86546D02*
G01X166009Y-86358D01*
G04 //text: C64Saver2-rescue_R*
G01X160987Y-96815D02*
G01X160934Y-96841D01*
G01X160881Y-96894D01*
G01X160855Y-96947D01*
G01Y-97054D01*
G01X160881Y-97107D01*
G01X160934Y-97161D01*
G01X160987Y-97186D01*
G01X161066Y-97212D01*
G01X161201D01*
G01X161279Y-97186D01*
G01X161333Y-97161D01*
G01X161386Y-97107D01*
G01X161411Y-97054D01*
G01Y-96947D01*
G01X161386Y-96894D01*
G01X161333Y-96841D01*
G01X161279Y-96815D01*
G01X160934Y-96218D02*
G01X160881Y-96244D01*
G01X160855Y-96325D01*
G01Y-96378D01*
G01X160881Y-96457D01*
G01X160959Y-96510D01*
G01X161094Y-96536D01*
G01X161226D01*
G01X161333Y-96510D01*
G01X161386Y-96457D01*
G01X161411Y-96378D01*
G01Y-96350D01*
G01X161386Y-96272D01*
G01X161333Y-96218D01*
G01X161254Y-96190D01*
G01X161226D01*
G01X161147Y-96218D01*
G01X161094Y-96272D01*
G01X161066Y-96350D01*
G01Y-96378D01*
G01X161094Y-96457D01*
G01X161147Y-96510D01*
G01X161226Y-96536D01*
G01X160855Y-95649D02*
G01X161226Y-95914D01*
G01Y-95515D01*
G01X160855Y-95649D02*
G01X161411Y-95649D01*
G01X160934Y-94867D02*
G01X160881Y-94920D01*
G01X160855Y-94999D01*
G01Y-95106D01*
G01X160881Y-95185D01*
G01X160934Y-95238D01*
G01X160987D01*
G01X161041Y-95213D01*
G01X161066Y-95185D01*
G01X161094Y-95131D01*
G01X161147Y-94971D01*
G01X161173Y-94920D01*
G01X161201Y-94893D01*
G01X161254Y-94867D01*
G01X161333D01*
G01X161386Y-94920D01*
G01X161411Y-94999D01*
G01Y-95106D01*
G01X161386Y-95185D01*
G01X161333Y-95238D01*
G01X161041Y-94270D02*
G01X161411Y-94270D01*
G01X161119Y-94270D02*
G01X161066Y-94324D01*
G01X161041Y-94377D01*
G01Y-94456D01*
G01X161066Y-94509D01*
G01X161119Y-94562D01*
G01X161201Y-94588D01*
G01X161254D01*
G01X161333Y-94562D01*
G01X161386Y-94509D01*
G01X161411Y-94456D01*
G01Y-94377D01*
G01X161386Y-94324D01*
G01X161333Y-94270D01*
G01X161041Y-93993D02*
G01X161411Y-93833D01*
G01X161041Y-93673D02*
G01X161411Y-93833D01*
G01X161201Y-93396D02*
G01X161201Y-93076D01*
G01X161147D01*
G01X161094Y-93104D01*
G01X161066Y-93130D01*
G01X161041Y-93183D01*
G01Y-93264D01*
G01X161066Y-93318D01*
G01X161119Y-93369D01*
G01X161201Y-93396D01*
G01X161254D01*
G01X161333Y-93369D01*
G01X161386Y-93318D01*
G01X161411Y-93264D01*
G01Y-93183D01*
G01X161386Y-93130D01*
G01X161333Y-93076D01*
G01X161041Y-92800D02*
G01X161411Y-92800D01*
G01X161201Y-92800D02*
G01X161119Y-92774D01*
G01X161066Y-92721D01*
G01X161041Y-92667D01*
G01Y-92586D01*
G01X160987Y-92284D02*
G01X160959Y-92284D01*
G01X160909Y-92256D01*
G01X160881Y-92231D01*
G01X160855Y-92177D01*
G01Y-92071D01*
G01X160881Y-92017D01*
G01X160909Y-91992D01*
G01X160959Y-91964D01*
G01X161013D01*
G01X161066Y-91992D01*
G01X161147Y-92045D01*
G01X161411Y-92309D01*
G01Y-91938D01*
G01X161173Y-91662D02*
G01X161173Y-91182D01*
G01X161041Y-90905D02*
G01X161411Y-90905D01*
G01X161201Y-90905D02*
G01X161119Y-90879D01*
G01X161066Y-90826D01*
G01X161041Y-90773D01*
G01Y-90691D01*
G01X161201Y-90414D02*
G01X161201Y-90097D01*
G01X161147D01*
G01X161094Y-90122D01*
G01X161066Y-90150D01*
G01X161041Y-90204D01*
G01Y-90282D01*
G01X161066Y-90336D01*
G01X161119Y-90389D01*
G01X161201Y-90414D01*
G01X161254D01*
G01X161333Y-90389D01*
G01X161386Y-90336D01*
G01X161411Y-90282D01*
G01Y-90204D01*
G01X161386Y-90150D01*
G01X161333Y-90097D01*
G01X161119Y-89525D02*
G01X161066Y-89553D01*
G01X161041Y-89632D01*
G01Y-89713D01*
G01X161066Y-89792D01*
G01X161119Y-89818D01*
G01X161173Y-89792D01*
G01X161201Y-89739D01*
G01X161226Y-89607D01*
G01X161254Y-89553D01*
G01X161305Y-89525D01*
G01X161333D01*
G01X161386Y-89553D01*
G01X161411Y-89632D01*
G01Y-89713D01*
G01X161386Y-89792D01*
G01X161333Y-89818D01*
G01X161119Y-88931D02*
G01X161066Y-88984D01*
G01X161041Y-89035D01*
G01Y-89117D01*
G01X161066Y-89170D01*
G01X161119Y-89223D01*
G01X161201Y-89249D01*
G01X161254D01*
G01X161333Y-89223D01*
G01X161386Y-89170D01*
G01X161411Y-89117D01*
G01Y-89035D01*
G01X161386Y-88984D01*
G01X161333Y-88931D01*
G01X161041Y-88652D02*
G01X161305Y-88652D01*
G01X161386Y-88626D01*
G01X161411Y-88573D01*
G01Y-88494D01*
G01X161386Y-88441D01*
G01X161305Y-88360D01*
G01X161041Y-88360D02*
G01X161411Y-88360D01*
G01X161201Y-88083D02*
G01X161201Y-87765D01*
G01X161147D01*
G01X161094Y-87791D01*
G01X161066Y-87819D01*
G01X161041Y-87869D01*
G01Y-87951D01*
G01X161066Y-88004D01*
G01X161119Y-88057D01*
G01X161201Y-88083D01*
G01X161254D01*
G01X161333Y-88057D01*
G01X161386Y-88004D01*
G01X161411Y-87951D01*
G01Y-87869D01*
G01X161386Y-87819D01*
G01X161333Y-87765D01*
G01X161597Y-87486D02*
G01X161597Y-87008D01*
G01X160855Y-86731D02*
G01X161411Y-86731D01*
G01X160855Y-86731D02*
G01X160855Y-86493D01*
G01X160881Y-86411D01*
G01X160909Y-86386D01*
G01X160959Y-86358D01*
G01X161013D01*
G01X161066Y-86386D01*
G01X161094Y-86411D01*
G01X161119Y-86493D01*
G01Y-86731D01*
G01X161119Y-86546D02*
G01X161411Y-86358D01*
G04 //text: C64Saver2-rescue_R*
G01X167550Y-89525D02*
G01X167525Y-89471D01*
G01X167471Y-89418D01*
G01X167418Y-89392D01*
G01X167311D01*
G01X167258Y-89418D01*
G01X167205Y-89471D01*
G01X167179Y-89525D01*
G01X167154Y-89603D01*
G01Y-89738D01*
G01X167179Y-89817D01*
G01X167205Y-89870D01*
G01X167258Y-89923D01*
G01X167311Y-89949D01*
G01X167418D01*
G01X167471Y-89923D01*
G01X167525Y-89870D01*
G01X167550Y-89817D01*
G01X168147Y-89471D02*
G01X168122Y-89418D01*
G01X168040Y-89392D01*
G01X167987D01*
G01X167908Y-89418D01*
G01X167855Y-89497D01*
G01X167829Y-89631D01*
G01Y-89763D01*
G01X167855Y-89870D01*
G01X167908Y-89923D01*
G01X167987Y-89949D01*
G01X168015D01*
G01X168094Y-89923D01*
G01X168147Y-89870D01*
G01X168175Y-89791D01*
G01Y-89763D01*
G01X168147Y-89685D01*
G01X168094Y-89631D01*
G01X168015Y-89603D01*
G01X167987D01*
G01X167908Y-89631D01*
G01X167855Y-89685D01*
G01X167829Y-89763D01*
G01X168716Y-89392D02*
G01X168452Y-89763D01*
G01X168851D01*
G01X168716Y-89392D02*
G01X168716Y-89949D01*
G01X169498Y-89471D02*
G01X169445Y-89418D01*
G01X169366Y-89392D01*
G01X169260D01*
G01X169181Y-89418D01*
G01X169127Y-89471D01*
G01Y-89525D01*
G01X169153Y-89578D01*
G01X169181Y-89603D01*
G01X169234Y-89631D01*
G01X169394Y-89685D01*
G01X169445Y-89710D01*
G01X169473Y-89738D01*
G01X169498Y-89791D01*
G01Y-89870D01*
G01X169445Y-89923D01*
G01X169366Y-89949D01*
G01X169260D01*
G01X169181Y-89923D01*
G01X169127Y-89870D01*
G01X170095Y-89578D02*
G01X170095Y-89949D01*
G01X170095Y-89657D02*
G01X170042Y-89603D01*
G01X169988Y-89578D01*
G01X169910D01*
G01X169856Y-89603D01*
G01X169803Y-89657D01*
G01X169778Y-89738D01*
G01Y-89791D01*
G01X169803Y-89870D01*
G01X169856Y-89923D01*
G01X169910Y-89949D01*
G01X169988D01*
G01X170042Y-89923D01*
G01X170095Y-89870D01*
G01X170372Y-89578D02*
G01X170532Y-89949D01*
G01X170692Y-89578D02*
G01X170532Y-89949D01*
G01X170969Y-89738D02*
G01X171289Y-89738D01*
G01Y-89685D01*
G01X171261Y-89631D01*
G01X171236Y-89603D01*
G01X171182Y-89578D01*
G01X171101D01*
G01X171048Y-89603D01*
G01X170997Y-89657D01*
G01X170969Y-89738D01*
G01Y-89791D01*
G01X170997Y-89870D01*
G01X171048Y-89923D01*
G01X171101Y-89949D01*
G01X171182D01*
G01X171236Y-89923D01*
G01X171289Y-89870D01*
G01X171566Y-89578D02*
G01X171566Y-89949D01*
G01X171566Y-89738D02*
G01X171591Y-89657D01*
G01X171645Y-89603D01*
G01X171698Y-89578D01*
G01X171779D01*
G01X172081Y-89525D02*
G01X172081Y-89497D01*
G01X172109Y-89446D01*
G01X172135Y-89418D01*
G01X172188Y-89392D01*
G01X172295D01*
G01X172348Y-89418D01*
G01X172374Y-89446D01*
G01X172401Y-89497D01*
G01Y-89550D01*
G01X172374Y-89603D01*
G01X172320Y-89685D01*
G01X172056Y-89949D01*
G01X172427D01*
G01X172704Y-89710D02*
G01X173184Y-89710D01*
G01X173461Y-89578D02*
G01X173461Y-89949D01*
G01X173461Y-89738D02*
G01X173486Y-89657D01*
G01X173539Y-89603D01*
G01X173593Y-89578D01*
G01X173674D01*
G01X173951Y-89738D02*
G01X174268Y-89738D01*
G01Y-89685D01*
G01X174243Y-89631D01*
G01X174215Y-89603D01*
G01X174162Y-89578D01*
G01X174083D01*
G01X174030Y-89603D01*
G01X173976Y-89657D01*
G01X173951Y-89738D01*
G01Y-89791D01*
G01X173976Y-89870D01*
G01X174030Y-89923D01*
G01X174083Y-89949D01*
G01X174162D01*
G01X174215Y-89923D01*
G01X174268Y-89870D01*
G01X174840Y-89657D02*
G01X174812Y-89603D01*
G01X174733Y-89578D01*
G01X174652D01*
G01X174573Y-89603D01*
G01X174548Y-89657D01*
G01X174573Y-89710D01*
G01X174627Y-89738D01*
G01X174759Y-89763D01*
G01X174812Y-89791D01*
G01X174840Y-89842D01*
G01Y-89870D01*
G01X174812Y-89923D01*
G01X174733Y-89949D01*
G01X174652D01*
G01X174573Y-89923D01*
G01X174548Y-89870D01*
G01X175434Y-89657D02*
G01X175381Y-89603D01*
G01X175330Y-89578D01*
G01X175249D01*
G01X175195Y-89603D01*
G01X175142Y-89657D01*
G01X175117Y-89738D01*
G01Y-89791D01*
G01X175142Y-89870D01*
G01X175195Y-89923D01*
G01X175249Y-89949D01*
G01X175330D01*
G01X175381Y-89923D01*
G01X175434Y-89870D01*
G01X175714Y-89578D02*
G01X175714Y-89842D01*
G01X175739Y-89923D01*
G01X175792Y-89949D01*
G01X175871D01*
G01X175924Y-89923D01*
G01X176006Y-89842D01*
G01X176006Y-89578D02*
G01X176006Y-89949D01*
G01X176283Y-89738D02*
G01X176600Y-89738D01*
G01Y-89685D01*
G01X176575Y-89631D01*
G01X176547Y-89603D01*
G01X176496Y-89578D01*
G01X176415D01*
G01X176361Y-89603D01*
G01X176308Y-89657D01*
G01X176283Y-89738D01*
G01Y-89791D01*
G01X176308Y-89870D01*
G01X176361Y-89923D01*
G01X176415Y-89949D01*
G01X176496D01*
G01X176547Y-89923D01*
G01X176600Y-89870D01*
G01X176880Y-90134D02*
G01X177357Y-90134D01*
G01X177634Y-89392D02*
G01X177634Y-89949D01*
G01X177634Y-89392D02*
G01X177873Y-89392D01*
G01X177954Y-89418D01*
G01X177979Y-89446D01*
G01X178007Y-89497D01*
G01Y-89550D01*
G01X177979Y-89603D01*
G01X177954Y-89631D01*
G01X177873Y-89657D01*
G01X177634D01*
G01X177819Y-89657D02*
G01X178007Y-89949D01*
G04 //text: C64Saver2-rescue_R*
G01X158600Y-96815D02*
G01X158546Y-96841D01*
G01X158493Y-96894D01*
G01X158468Y-96947D01*
G01Y-97054D01*
G01X158493Y-97107D01*
G01X158546Y-97161D01*
G01X158600Y-97186D01*
G01X158678Y-97212D01*
G01X158813D01*
G01X158892Y-97186D01*
G01X158945Y-97161D01*
G01X158998Y-97107D01*
G01X159024Y-97054D01*
G01Y-96947D01*
G01X158998Y-96894D01*
G01X158945Y-96841D01*
G01X158892Y-96815D01*
G01X158546Y-96218D02*
G01X158493Y-96244D01*
G01X158468Y-96325D01*
G01Y-96378D01*
G01X158493Y-96457D01*
G01X158572Y-96510D01*
G01X158706Y-96536D01*
G01X158838D01*
G01X158945Y-96510D01*
G01X158998Y-96457D01*
G01X159024Y-96378D01*
G01Y-96350D01*
G01X158998Y-96272D01*
G01X158945Y-96218D01*
G01X158866Y-96190D01*
G01X158838D01*
G01X158760Y-96218D01*
G01X158706Y-96272D01*
G01X158678Y-96350D01*
G01Y-96378D01*
G01X158706Y-96457D01*
G01X158760Y-96510D01*
G01X158838Y-96536D01*
G01X158468Y-95649D02*
G01X158838Y-95914D01*
G01Y-95515D01*
G01X158468Y-95649D02*
G01X159024Y-95649D01*
G01X158546Y-94867D02*
G01X158493Y-94920D01*
G01X158468Y-94999D01*
G01Y-95106D01*
G01X158493Y-95185D01*
G01X158546Y-95238D01*
G01X158600D01*
G01X158653Y-95213D01*
G01X158678Y-95185D01*
G01X158706Y-95131D01*
G01X158760Y-94971D01*
G01X158785Y-94920D01*
G01X158813Y-94893D01*
G01X158866Y-94867D01*
G01X158945D01*
G01X158998Y-94920D01*
G01X159024Y-94999D01*
G01Y-95106D01*
G01X158998Y-95185D01*
G01X158945Y-95238D01*
G01X158653Y-94270D02*
G01X159024Y-94270D01*
G01X158732Y-94270D02*
G01X158678Y-94324D01*
G01X158653Y-94377D01*
G01Y-94456D01*
G01X158678Y-94509D01*
G01X158732Y-94562D01*
G01X158813Y-94588D01*
G01X158866D01*
G01X158945Y-94562D01*
G01X158998Y-94509D01*
G01X159024Y-94456D01*
G01Y-94377D01*
G01X158998Y-94324D01*
G01X158945Y-94270D01*
G01X158653Y-93993D02*
G01X159024Y-93833D01*
G01X158653Y-93673D02*
G01X159024Y-93833D01*
G01X158813Y-93396D02*
G01X158813Y-93076D01*
G01X158760D01*
G01X158706Y-93104D01*
G01X158678Y-93130D01*
G01X158653Y-93183D01*
G01Y-93264D01*
G01X158678Y-93318D01*
G01X158732Y-93369D01*
G01X158813Y-93396D01*
G01X158866D01*
G01X158945Y-93369D01*
G01X158998Y-93318D01*
G01X159024Y-93264D01*
G01Y-93183D01*
G01X158998Y-93130D01*
G01X158945Y-93076D01*
G01X158653Y-92800D02*
G01X159024Y-92800D01*
G01X158813Y-92800D02*
G01X158732Y-92774D01*
G01X158678Y-92721D01*
G01X158653Y-92667D01*
G01Y-92586D01*
G01X158600Y-92284D02*
G01X158572Y-92284D01*
G01X158521Y-92256D01*
G01X158493Y-92231D01*
G01X158468Y-92177D01*
G01Y-92071D01*
G01X158493Y-92017D01*
G01X158521Y-91992D01*
G01X158572Y-91964D01*
G01X158625D01*
G01X158678Y-91992D01*
G01X158760Y-92045D01*
G01X159024Y-92309D01*
G01Y-91938D01*
G01X158785Y-91662D02*
G01X158785Y-91182D01*
G01X158653Y-90905D02*
G01X159024Y-90905D01*
G01X158813Y-90905D02*
G01X158732Y-90879D01*
G01X158678Y-90826D01*
G01X158653Y-90773D01*
G01Y-90691D01*
G01X158813Y-90414D02*
G01X158813Y-90097D01*
G01X158760D01*
G01X158706Y-90122D01*
G01X158678Y-90150D01*
G01X158653Y-90204D01*
G01Y-90282D01*
G01X158678Y-90336D01*
G01X158732Y-90389D01*
G01X158813Y-90414D01*
G01X158866D01*
G01X158945Y-90389D01*
G01X158998Y-90336D01*
G01X159024Y-90282D01*
G01Y-90204D01*
G01X158998Y-90150D01*
G01X158945Y-90097D01*
G01X158732Y-89525D02*
G01X158678Y-89553D01*
G01X158653Y-89632D01*
G01Y-89713D01*
G01X158678Y-89792D01*
G01X158732Y-89818D01*
G01X158785Y-89792D01*
G01X158813Y-89739D01*
G01X158838Y-89607D01*
G01X158866Y-89553D01*
G01X158917Y-89525D01*
G01X158945D01*
G01X158998Y-89553D01*
G01X159024Y-89632D01*
G01Y-89713D01*
G01X158998Y-89792D01*
G01X158945Y-89818D01*
G01X158732Y-88931D02*
G01X158678Y-88984D01*
G01X158653Y-89035D01*
G01Y-89117D01*
G01X158678Y-89170D01*
G01X158732Y-89223D01*
G01X158813Y-89249D01*
G01X158866D01*
G01X158945Y-89223D01*
G01X158998Y-89170D01*
G01X159024Y-89117D01*
G01Y-89035D01*
G01X158998Y-88984D01*
G01X158945Y-88931D01*
G01X158653Y-88652D02*
G01X158917Y-88652D01*
G01X158998Y-88626D01*
G01X159024Y-88573D01*
G01Y-88494D01*
G01X158998Y-88441D01*
G01X158917Y-88360D01*
G01X158653Y-88360D02*
G01X159024Y-88360D01*
G01X158813Y-88083D02*
G01X158813Y-87765D01*
G01X158760D01*
G01X158706Y-87791D01*
G01X158678Y-87819D01*
G01X158653Y-87869D01*
G01Y-87951D01*
G01X158678Y-88004D01*
G01X158732Y-88057D01*
G01X158813Y-88083D01*
G01X158866D01*
G01X158945Y-88057D01*
G01X158998Y-88004D01*
G01X159024Y-87951D01*
G01Y-87869D01*
G01X158998Y-87819D01*
G01X158945Y-87765D01*
G01X159209Y-87486D02*
G01X159209Y-87008D01*
G01X158468Y-86731D02*
G01X159024Y-86731D01*
G01X158468Y-86731D02*
G01X158468Y-86493D01*
G01X158493Y-86411D01*
G01X158521Y-86386D01*
G01X158572Y-86358D01*
G01X158625D01*
G01X158678Y-86386D01*
G01X158706Y-86411D01*
G01X158732Y-86493D01*
G01Y-86731D01*
G01X158732Y-86546D02*
G01X159024Y-86358D01*
G04 //text: C64Saver2-rescue_R*
G01X155219Y-108535D02*
G01X155166Y-108560D01*
G01X155113Y-108614D01*
G01X155087Y-108667D01*
G01Y-108774D01*
G01X155113Y-108827D01*
G01X155166Y-108880D01*
G01X155219Y-108906D01*
G01X155298Y-108931D01*
G01X155433D01*
G01X155511Y-108906D01*
G01X155565Y-108880D01*
G01X155618Y-108827D01*
G01X155643Y-108774D01*
G01Y-108667D01*
G01X155618Y-108614D01*
G01X155565Y-108560D01*
G01X155511Y-108535D01*
G01X155166Y-107938D02*
G01X155113Y-107963D01*
G01X155087Y-108045D01*
G01Y-108098D01*
G01X155113Y-108177D01*
G01X155191Y-108230D01*
G01X155326Y-108255D01*
G01X155458D01*
G01X155565Y-108230D01*
G01X155618Y-108177D01*
G01X155643Y-108098D01*
G01Y-108070D01*
G01X155618Y-107991D01*
G01X155565Y-107938D01*
G01X155486Y-107910D01*
G01X155458D01*
G01X155379Y-107938D01*
G01X155326Y-107991D01*
G01X155298Y-108070D01*
G01Y-108098D01*
G01X155326Y-108177D01*
G01X155379Y-108230D01*
G01X155458Y-108255D01*
G01X155087Y-107369D02*
G01X155458Y-107633D01*
G01Y-107234D01*
G01X155087Y-107369D02*
G01X155643Y-107369D01*
G01X155166Y-106587D02*
G01X155113Y-106640D01*
G01X155087Y-106719D01*
G01Y-106825D01*
G01X155113Y-106904D01*
G01X155166Y-106958D01*
G01X155219D01*
G01X155273Y-106932D01*
G01X155298Y-106904D01*
G01X155326Y-106851D01*
G01X155379Y-106691D01*
G01X155405Y-106640D01*
G01X155433Y-106612D01*
G01X155486Y-106587D01*
G01X155565D01*
G01X155618Y-106640D01*
G01X155643Y-106719D01*
G01Y-106825D01*
G01X155618Y-106904D01*
G01X155565Y-106958D01*
G01X155273Y-105990D02*
G01X155643Y-105990D01*
G01X155351Y-105990D02*
G01X155298Y-106043D01*
G01X155273Y-106096D01*
G01Y-106175D01*
G01X155298Y-106229D01*
G01X155351Y-106282D01*
G01X155433Y-106307D01*
G01X155486D01*
G01X155565Y-106282D01*
G01X155618Y-106229D01*
G01X155643Y-106175D01*
G01Y-106096D01*
G01X155618Y-106043D01*
G01X155565Y-105990D01*
G01X155273Y-105713D02*
G01X155643Y-105553D01*
G01X155273Y-105393D02*
G01X155643Y-105553D01*
G01X155433Y-105116D02*
G01X155433Y-104796D01*
G01X155379D01*
G01X155326Y-104824D01*
G01X155298Y-104849D01*
G01X155273Y-104903D01*
G01Y-104984D01*
G01X155298Y-105037D01*
G01X155351Y-105088D01*
G01X155433Y-105116D01*
G01X155486D01*
G01X155565Y-105088D01*
G01X155618Y-105037D01*
G01X155643Y-104984D01*
G01Y-104903D01*
G01X155618Y-104849D01*
G01X155565Y-104796D01*
G01X155273Y-104519D02*
G01X155643Y-104519D01*
G01X155433Y-104519D02*
G01X155351Y-104494D01*
G01X155298Y-104440D01*
G01X155273Y-104387D01*
G01Y-104306D01*
G01X155219Y-104004D02*
G01X155191Y-104004D01*
G01X155140Y-103976D01*
G01X155113Y-103950D01*
G01X155087Y-103897D01*
G01Y-103790D01*
G01X155113Y-103737D01*
G01X155140Y-103711D01*
G01X155191Y-103683D01*
G01X155245D01*
G01X155298Y-103711D01*
G01X155379Y-103765D01*
G01X155643Y-104029D01*
G01Y-103658D01*
G01X155405Y-103381D02*
G01X155405Y-102901D01*
G01X155273Y-102624D02*
G01X155643Y-102624D01*
G01X155433Y-102624D02*
G01X155351Y-102599D01*
G01X155298Y-102546D01*
G01X155273Y-102492D01*
G01Y-102411D01*
G01X155433Y-102134D02*
G01X155433Y-101817D01*
G01X155379D01*
G01X155326Y-101842D01*
G01X155298Y-101870D01*
G01X155273Y-101923D01*
G01Y-102002D01*
G01X155298Y-102055D01*
G01X155351Y-102109D01*
G01X155433Y-102134D01*
G01X155486D01*
G01X155565Y-102109D01*
G01X155618Y-102055D01*
G01X155643Y-102002D01*
G01Y-101923D01*
G01X155618Y-101870D01*
G01X155565Y-101817D01*
G01X155351Y-101245D02*
G01X155298Y-101273D01*
G01X155273Y-101352D01*
G01Y-101433D01*
G01X155298Y-101512D01*
G01X155351Y-101537D01*
G01X155405Y-101512D01*
G01X155433Y-101458D01*
G01X155458Y-101326D01*
G01X155486Y-101273D01*
G01X155537Y-101245D01*
G01X155565D01*
G01X155618Y-101273D01*
G01X155643Y-101352D01*
G01Y-101433D01*
G01X155618Y-101512D01*
G01X155565Y-101537D01*
G01X155351Y-100651D02*
G01X155298Y-100704D01*
G01X155273Y-100755D01*
G01Y-100836D01*
G01X155298Y-100889D01*
G01X155351Y-100943D01*
G01X155433Y-100968D01*
G01X155486D01*
G01X155565Y-100943D01*
G01X155618Y-100889D01*
G01X155643Y-100836D01*
G01Y-100755D01*
G01X155618Y-100704D01*
G01X155565Y-100651D01*
G01X155273Y-100371D02*
G01X155537Y-100371D01*
G01X155618Y-100346D01*
G01X155643Y-100293D01*
G01Y-100214D01*
G01X155618Y-100160D01*
G01X155537Y-100079D01*
G01X155273Y-100079D02*
G01X155643Y-100079D01*
G01X155433Y-99802D02*
G01X155433Y-99485D01*
G01X155379D01*
G01X155326Y-99510D01*
G01X155298Y-99538D01*
G01X155273Y-99589D01*
G01Y-99670D01*
G01X155298Y-99724D01*
G01X155351Y-99777D01*
G01X155433Y-99802D01*
G01X155486D01*
G01X155565Y-99777D01*
G01X155618Y-99724D01*
G01X155643Y-99670D01*
G01Y-99589D01*
G01X155618Y-99538D01*
G01X155565Y-99485D01*
G01X155829Y-99205D02*
G01X155829Y-98728D01*
G01X155087Y-98451D02*
G01X155643Y-98451D01*
G01X155087Y-98451D02*
G01X155087Y-98212D01*
G01X155113Y-98131D01*
G01X155140Y-98106D01*
G01X155191Y-98078D01*
G01X155245D01*
G01X155298Y-98106D01*
G01X155326Y-98131D01*
G01X155351Y-98212D01*
G01Y-98451D01*
G01X155351Y-98266D02*
G01X155643Y-98078D01*
G04 //text: C64Saver2-rescue_R*
G01X167113Y-96851D02*
G01X167060Y-96876D01*
G01X167007Y-96929D01*
G01X166981Y-96983D01*
G01Y-97089D01*
G01X167007Y-97143D01*
G01X167060Y-97196D01*
G01X167113Y-97222D01*
G01X167192Y-97247D01*
G01X167327D01*
G01X167405Y-97222D01*
G01X167459Y-97196D01*
G01X167512Y-97143D01*
G01X167537Y-97089D01*
G01Y-96983D01*
G01X167512Y-96929D01*
G01X167459Y-96876D01*
G01X167405Y-96851D01*
G01X167060Y-96254D02*
G01X167007Y-96279D01*
G01X166981Y-96360D01*
G01Y-96414D01*
G01X167007Y-96493D01*
G01X167085Y-96546D01*
G01X167220Y-96571D01*
G01X167352D01*
G01X167459Y-96546D01*
G01X167512Y-96493D01*
G01X167537Y-96414D01*
G01Y-96386D01*
G01X167512Y-96307D01*
G01X167459Y-96254D01*
G01X167380Y-96226D01*
G01X167352D01*
G01X167273Y-96254D01*
G01X167220Y-96307D01*
G01X167192Y-96386D01*
G01Y-96414D01*
G01X167220Y-96493D01*
G01X167273Y-96546D01*
G01X167352Y-96571D01*
G01X166981Y-95685D02*
G01X167352Y-95949D01*
G01Y-95550D01*
G01X166981Y-95685D02*
G01X167537Y-95685D01*
G01X167060Y-94903D02*
G01X167007Y-94956D01*
G01X166981Y-95035D01*
G01Y-95141D01*
G01X167007Y-95220D01*
G01X167060Y-95273D01*
G01X167113D01*
G01X167167Y-95248D01*
G01X167192Y-95220D01*
G01X167220Y-95167D01*
G01X167273Y-95007D01*
G01X167299Y-94956D01*
G01X167327Y-94928D01*
G01X167380Y-94903D01*
G01X167459D01*
G01X167512Y-94956D01*
G01X167537Y-95035D01*
G01Y-95141D01*
G01X167512Y-95220D01*
G01X167459Y-95273D01*
G01X167167Y-94306D02*
G01X167537Y-94306D01*
G01X167245Y-94306D02*
G01X167192Y-94359D01*
G01X167167Y-94412D01*
G01Y-94491D01*
G01X167192Y-94544D01*
G01X167245Y-94598D01*
G01X167327Y-94623D01*
G01X167380D01*
G01X167459Y-94598D01*
G01X167512Y-94544D01*
G01X167537Y-94491D01*
G01Y-94412D01*
G01X167512Y-94359D01*
G01X167459Y-94306D01*
G01X167167Y-94029D02*
G01X167537Y-93869D01*
G01X167167Y-93709D02*
G01X167537Y-93869D01*
G01X167327Y-93432D02*
G01X167327Y-93112D01*
G01X167273D01*
G01X167220Y-93140D01*
G01X167192Y-93165D01*
G01X167167Y-93218D01*
G01Y-93300D01*
G01X167192Y-93353D01*
G01X167245Y-93404D01*
G01X167327Y-93432D01*
G01X167380D01*
G01X167459Y-93404D01*
G01X167512Y-93353D01*
G01X167537Y-93300D01*
G01Y-93218D01*
G01X167512Y-93165D01*
G01X167459Y-93112D01*
G01X167167Y-92835D02*
G01X167537Y-92835D01*
G01X167327Y-92835D02*
G01X167245Y-92810D01*
G01X167192Y-92756D01*
G01X167167Y-92703D01*
G01Y-92622D01*
G01X167113Y-92319D02*
G01X167085Y-92319D01*
G01X167035Y-92291D01*
G01X167007Y-92266D01*
G01X166981Y-92213D01*
G01Y-92106D01*
G01X167007Y-92053D01*
G01X167035Y-92027D01*
G01X167085Y-91999D01*
G01X167139D01*
G01X167192Y-92027D01*
G01X167273Y-92081D01*
G01X167537Y-92345D01*
G01Y-91974D01*
G01X167299Y-91697D02*
G01X167299Y-91217D01*
G01X167167Y-90940D02*
G01X167537Y-90940D01*
G01X167327Y-90940D02*
G01X167245Y-90915D01*
G01X167192Y-90861D01*
G01X167167Y-90808D01*
G01Y-90727D01*
G01X167327Y-90450D02*
G01X167327Y-90132D01*
G01X167273D01*
G01X167220Y-90158D01*
G01X167192Y-90186D01*
G01X167167Y-90239D01*
G01Y-90318D01*
G01X167192Y-90371D01*
G01X167245Y-90424D01*
G01X167327Y-90450D01*
G01X167380D01*
G01X167459Y-90424D01*
G01X167512Y-90371D01*
G01X167537Y-90318D01*
G01Y-90239D01*
G01X167512Y-90186D01*
G01X167459Y-90132D01*
G01X167245Y-89561D02*
G01X167192Y-89589D01*
G01X167167Y-89668D01*
G01Y-89749D01*
G01X167192Y-89828D01*
G01X167245Y-89853D01*
G01X167299Y-89828D01*
G01X167327Y-89774D01*
G01X167352Y-89642D01*
G01X167380Y-89589D01*
G01X167431Y-89561D01*
G01X167459D01*
G01X167512Y-89589D01*
G01X167537Y-89668D01*
G01Y-89749D01*
G01X167512Y-89828D01*
G01X167459Y-89853D01*
G01X167245Y-88967D02*
G01X167192Y-89020D01*
G01X167167Y-89071D01*
G01Y-89152D01*
G01X167192Y-89205D01*
G01X167245Y-89259D01*
G01X167327Y-89284D01*
G01X167380D01*
G01X167459Y-89259D01*
G01X167512Y-89205D01*
G01X167537Y-89152D01*
G01Y-89071D01*
G01X167512Y-89020D01*
G01X167459Y-88967D01*
G01X167167Y-88687D02*
G01X167431Y-88687D01*
G01X167512Y-88662D01*
G01X167537Y-88608D01*
G01Y-88530D01*
G01X167512Y-88476D01*
G01X167431Y-88395D01*
G01X167167Y-88395D02*
G01X167537Y-88395D01*
G01X167327Y-88118D02*
G01X167327Y-87801D01*
G01X167273D01*
G01X167220Y-87826D01*
G01X167192Y-87854D01*
G01X167167Y-87905D01*
G01Y-87986D01*
G01X167192Y-88039D01*
G01X167245Y-88093D01*
G01X167327Y-88118D01*
G01X167380D01*
G01X167459Y-88093D01*
G01X167512Y-88039D01*
G01X167537Y-87986D01*
G01Y-87905D01*
G01X167512Y-87854D01*
G01X167459Y-87801D01*
G01X167723Y-87521D02*
G01X167723Y-87044D01*
G01X166981Y-86767D02*
G01X167537Y-86767D01*
G01X166981Y-86767D02*
G01X166981Y-86528D01*
G01X167007Y-86447D01*
G01X167035Y-86421D01*
G01X167085Y-86394D01*
G01X167139D01*
G01X167192Y-86421D01*
G01X167220Y-86447D01*
G01X167245Y-86528D01*
G01Y-86767D01*
G01X167245Y-86581D02*
G01X167537Y-86394D01*
G04 //text: C64Saver2-rescue_R*
G01X148894Y-99143D02*
G01X148869Y-99090D01*
G01X148815Y-99037D01*
G01X148762Y-99011D01*
G01X148655D01*
G01X148602Y-99037D01*
G01X148549Y-99090D01*
G01X148523Y-99143D01*
G01X148498Y-99222D01*
G01Y-99357D01*
G01X148523Y-99435D01*
G01X148549Y-99489D01*
G01X148602Y-99542D01*
G01X148655Y-99567D01*
G01X148762D01*
G01X148815Y-99542D01*
G01X148869Y-99489D01*
G01X148894Y-99435D01*
G01X149491Y-99090D02*
G01X149466Y-99037D01*
G01X149384Y-99011D01*
G01X149331D01*
G01X149252Y-99037D01*
G01X149199Y-99115D01*
G01X149174Y-99250D01*
G01Y-99382D01*
G01X149199Y-99489D01*
G01X149252Y-99542D01*
G01X149331Y-99567D01*
G01X149359D01*
G01X149438Y-99542D01*
G01X149491Y-99489D01*
G01X149519Y-99410D01*
G01Y-99382D01*
G01X149491Y-99303D01*
G01X149438Y-99250D01*
G01X149359Y-99222D01*
G01X149331D01*
G01X149252Y-99250D01*
G01X149199Y-99303D01*
G01X149174Y-99382D01*
G01X150060Y-99011D02*
G01X149796Y-99382D01*
G01X150195D01*
G01X150060Y-99011D02*
G01X150060Y-99567D01*
G01X150842Y-99090D02*
G01X150789Y-99037D01*
G01X150710Y-99011D01*
G01X150604D01*
G01X150525Y-99037D01*
G01X150471Y-99090D01*
G01Y-99143D01*
G01X150497Y-99197D01*
G01X150525Y-99222D01*
G01X150578Y-99250D01*
G01X150738Y-99303D01*
G01X150789Y-99329D01*
G01X150817Y-99357D01*
G01X150842Y-99410D01*
G01Y-99489D01*
G01X150789Y-99542D01*
G01X150710Y-99567D01*
G01X150604D01*
G01X150525Y-99542D01*
G01X150471Y-99489D01*
G01X151439Y-99197D02*
G01X151439Y-99567D01*
G01X151439Y-99275D02*
G01X151386Y-99222D01*
G01X151333Y-99197D01*
G01X151254D01*
G01X151200Y-99222D01*
G01X151147Y-99275D01*
G01X151122Y-99357D01*
G01Y-99410D01*
G01X151147Y-99489D01*
G01X151200Y-99542D01*
G01X151254Y-99567D01*
G01X151333D01*
G01X151386Y-99542D01*
G01X151439Y-99489D01*
G01X151716Y-99197D02*
G01X151876Y-99567D01*
G01X152036Y-99197D02*
G01X151876Y-99567D01*
G01X152313Y-99357D02*
G01X152633Y-99357D01*
G01Y-99303D01*
G01X152605Y-99250D01*
G01X152580Y-99222D01*
G01X152526Y-99197D01*
G01X152445D01*
G01X152392Y-99222D01*
G01X152341Y-99275D01*
G01X152313Y-99357D01*
G01Y-99410D01*
G01X152341Y-99489D01*
G01X152392Y-99542D01*
G01X152445Y-99567D01*
G01X152526D01*
G01X152580Y-99542D01*
G01X152633Y-99489D01*
G01X152910Y-99197D02*
G01X152910Y-99567D01*
G01X152910Y-99357D02*
G01X152935Y-99275D01*
G01X152989Y-99222D01*
G01X153042Y-99197D01*
G01X153123D01*
G01X153425Y-99143D02*
G01X153425Y-99115D01*
G01X153453Y-99064D01*
G01X153479Y-99037D01*
G01X153532Y-99011D01*
G01X153639D01*
G01X153692Y-99037D01*
G01X153718Y-99064D01*
G01X153746Y-99115D01*
G01Y-99169D01*
G01X153718Y-99222D01*
G01X153664Y-99303D01*
G01X153400Y-99567D01*
G01X153771D01*
G01X154048Y-99329D02*
G01X154528Y-99329D01*
G01X154805Y-99197D02*
G01X154805Y-99567D01*
G01X154805Y-99357D02*
G01X154830Y-99275D01*
G01X154883Y-99222D01*
G01X154937Y-99197D01*
G01X155018D01*
G01X155295Y-99357D02*
G01X155612Y-99357D01*
G01Y-99303D01*
G01X155587Y-99250D01*
G01X155559Y-99222D01*
G01X155506Y-99197D01*
G01X155427D01*
G01X155374Y-99222D01*
G01X155320Y-99275D01*
G01X155295Y-99357D01*
G01Y-99410D01*
G01X155320Y-99489D01*
G01X155374Y-99542D01*
G01X155427Y-99567D01*
G01X155506D01*
G01X155559Y-99542D01*
G01X155612Y-99489D01*
G01X156184Y-99275D02*
G01X156156Y-99222D01*
G01X156077Y-99197D01*
G01X155996D01*
G01X155917Y-99222D01*
G01X155892Y-99275D01*
G01X155917Y-99329D01*
G01X155971Y-99357D01*
G01X156103Y-99382D01*
G01X156156Y-99410D01*
G01X156184Y-99461D01*
G01Y-99489D01*
G01X156156Y-99542D01*
G01X156077Y-99567D01*
G01X155996D01*
G01X155917Y-99542D01*
G01X155892Y-99489D01*
G01X156778Y-99275D02*
G01X156725Y-99222D01*
G01X156674Y-99197D01*
G01X156593D01*
G01X156540Y-99222D01*
G01X156486Y-99275D01*
G01X156461Y-99357D01*
G01Y-99410D01*
G01X156486Y-99489D01*
G01X156540Y-99542D01*
G01X156593Y-99567D01*
G01X156674D01*
G01X156725Y-99542D01*
G01X156778Y-99489D01*
G01X157058Y-99197D02*
G01X157058Y-99461D01*
G01X157083Y-99542D01*
G01X157136Y-99567D01*
G01X157215D01*
G01X157269Y-99542D01*
G01X157350Y-99461D01*
G01X157350Y-99197D02*
G01X157350Y-99567D01*
G01X157627Y-99357D02*
G01X157944Y-99357D01*
G01Y-99303D01*
G01X157919Y-99250D01*
G01X157891Y-99222D01*
G01X157840Y-99197D01*
G01X157759D01*
G01X157705Y-99222D01*
G01X157652Y-99275D01*
G01X157627Y-99357D01*
G01Y-99410D01*
G01X157652Y-99489D01*
G01X157705Y-99542D01*
G01X157759Y-99567D01*
G01X157840D01*
G01X157891Y-99542D01*
G01X157944Y-99489D01*
G01X158224Y-99753D02*
G01X158701Y-99753D01*
G01X158978Y-99011D02*
G01X158978Y-99567D01*
G01X158978Y-99011D02*
G01X159217Y-99011D01*
G01X159298Y-99037D01*
G01X159323Y-99064D01*
G01X159351Y-99115D01*
G01Y-99169D01*
G01X159323Y-99222D01*
G01X159298Y-99250D01*
G01X159217Y-99275D01*
G01X158978D01*
G01X159163Y-99275D02*
G01X159351Y-99567D01*
G04 //text: C64Saver2-rescue_R*
G01X167563Y-87302D02*
G01X167538Y-87249D01*
G01X167484Y-87196D01*
G01X167431Y-87170D01*
G01X167324D01*
G01X167271Y-87196D01*
G01X167218Y-87249D01*
G01X167192Y-87302D01*
G01X167167Y-87381D01*
G01Y-87516D01*
G01X167192Y-87594D01*
G01X167218Y-87648D01*
G01X167271Y-87701D01*
G01X167324Y-87726D01*
G01X167431D01*
G01X167484Y-87701D01*
G01X167538Y-87648D01*
G01X167563Y-87594D01*
G01X168160Y-87249D02*
G01X168135Y-87196D01*
G01X168053Y-87170D01*
G01X168000D01*
G01X167921Y-87196D01*
G01X167868Y-87274D01*
G01X167843Y-87409D01*
G01Y-87541D01*
G01X167868Y-87648D01*
G01X167921Y-87701D01*
G01X168000Y-87726D01*
G01X168028D01*
G01X168107Y-87701D01*
G01X168160Y-87648D01*
G01X168188Y-87569D01*
G01Y-87541D01*
G01X168160Y-87462D01*
G01X168107Y-87409D01*
G01X168028Y-87381D01*
G01X168000D01*
G01X167921Y-87409D01*
G01X167868Y-87462D01*
G01X167843Y-87541D01*
G01X168729Y-87170D02*
G01X168465Y-87541D01*
G01X168864D01*
G01X168729Y-87170D02*
G01X168729Y-87726D01*
G01X169511Y-87249D02*
G01X169458Y-87196D01*
G01X169379Y-87170D01*
G01X169273D01*
G01X169194Y-87196D01*
G01X169140Y-87249D01*
G01Y-87302D01*
G01X169166Y-87356D01*
G01X169194Y-87381D01*
G01X169247Y-87409D01*
G01X169407Y-87462D01*
G01X169458Y-87488D01*
G01X169486Y-87516D01*
G01X169511Y-87569D01*
G01Y-87648D01*
G01X169458Y-87701D01*
G01X169379Y-87726D01*
G01X169273D01*
G01X169194Y-87701D01*
G01X169140Y-87648D01*
G01X170108Y-87356D02*
G01X170108Y-87726D01*
G01X170108Y-87434D02*
G01X170055Y-87381D01*
G01X170002Y-87356D01*
G01X169923D01*
G01X169869Y-87381D01*
G01X169816Y-87434D01*
G01X169791Y-87516D01*
G01Y-87569D01*
G01X169816Y-87648D01*
G01X169869Y-87701D01*
G01X169923Y-87726D01*
G01X170002D01*
G01X170055Y-87701D01*
G01X170108Y-87648D01*
G01X170385Y-87356D02*
G01X170545Y-87726D01*
G01X170705Y-87356D02*
G01X170545Y-87726D01*
G01X170982Y-87516D02*
G01X171302Y-87516D01*
G01Y-87462D01*
G01X171274Y-87409D01*
G01X171249Y-87381D01*
G01X171195Y-87356D01*
G01X171114D01*
G01X171061Y-87381D01*
G01X171010Y-87434D01*
G01X170982Y-87516D01*
G01Y-87569D01*
G01X171010Y-87648D01*
G01X171061Y-87701D01*
G01X171114Y-87726D01*
G01X171195D01*
G01X171249Y-87701D01*
G01X171302Y-87648D01*
G01X171579Y-87356D02*
G01X171579Y-87726D01*
G01X171579Y-87516D02*
G01X171604Y-87434D01*
G01X171658Y-87381D01*
G01X171711Y-87356D01*
G01X171792D01*
G01X172094Y-87302D02*
G01X172094Y-87274D01*
G01X172122Y-87223D01*
G01X172148Y-87196D01*
G01X172201Y-87170D01*
G01X172308D01*
G01X172361Y-87196D01*
G01X172387Y-87223D01*
G01X172415Y-87274D01*
G01Y-87328D01*
G01X172387Y-87381D01*
G01X172333Y-87462D01*
G01X172069Y-87726D01*
G01X172440D01*
G01X172717Y-87488D02*
G01X173197Y-87488D01*
G01X173474Y-87356D02*
G01X173474Y-87726D01*
G01X173474Y-87516D02*
G01X173499Y-87434D01*
G01X173552Y-87381D01*
G01X173606Y-87356D01*
G01X173687D01*
G01X173964Y-87516D02*
G01X174281Y-87516D01*
G01Y-87462D01*
G01X174256Y-87409D01*
G01X174228Y-87381D01*
G01X174175Y-87356D01*
G01X174096D01*
G01X174043Y-87381D01*
G01X173989Y-87434D01*
G01X173964Y-87516D01*
G01Y-87569D01*
G01X173989Y-87648D01*
G01X174043Y-87701D01*
G01X174096Y-87726D01*
G01X174175D01*
G01X174228Y-87701D01*
G01X174281Y-87648D01*
G01X174853Y-87434D02*
G01X174825Y-87381D01*
G01X174746Y-87356D01*
G01X174665D01*
G01X174586Y-87381D01*
G01X174561Y-87434D01*
G01X174586Y-87488D01*
G01X174640Y-87516D01*
G01X174772Y-87541D01*
G01X174825Y-87569D01*
G01X174853Y-87620D01*
G01Y-87648D01*
G01X174825Y-87701D01*
G01X174746Y-87726D01*
G01X174665D01*
G01X174586Y-87701D01*
G01X174561Y-87648D01*
G01X175447Y-87434D02*
G01X175394Y-87381D01*
G01X175343Y-87356D01*
G01X175262D01*
G01X175209Y-87381D01*
G01X175155Y-87434D01*
G01X175130Y-87516D01*
G01Y-87569D01*
G01X175155Y-87648D01*
G01X175209Y-87701D01*
G01X175262Y-87726D01*
G01X175343D01*
G01X175394Y-87701D01*
G01X175447Y-87648D01*
G01X175727Y-87356D02*
G01X175727Y-87620D01*
G01X175752Y-87701D01*
G01X175805Y-87726D01*
G01X175884D01*
G01X175938Y-87701D01*
G01X176019Y-87620D01*
G01X176019Y-87356D02*
G01X176019Y-87726D01*
G01X176296Y-87516D02*
G01X176613Y-87516D01*
G01Y-87462D01*
G01X176588Y-87409D01*
G01X176560Y-87381D01*
G01X176509Y-87356D01*
G01X176428D01*
G01X176374Y-87381D01*
G01X176321Y-87434D01*
G01X176296Y-87516D01*
G01Y-87569D01*
G01X176321Y-87648D01*
G01X176374Y-87701D01*
G01X176428Y-87726D01*
G01X176509D01*
G01X176560Y-87701D01*
G01X176613Y-87648D01*
G01X176893Y-87912D02*
G01X177370Y-87912D01*
G01X177647Y-87170D02*
G01X177647Y-87726D01*
G01X177647Y-87170D02*
G01X177886Y-87170D01*
G01X177967Y-87196D01*
G01X177992Y-87223D01*
G01X178020Y-87274D01*
G01Y-87328D01*
G01X177992Y-87381D01*
G01X177967Y-87409D01*
G01X177886Y-87434D01*
G01X177647D01*
G01X177832Y-87434D02*
G01X178020Y-87726D01*
G04 //text: C64Saver2-rescue_D_Zener_Small*
G01X151921Y-112072D02*
G01X151868Y-112097D01*
G01X151815Y-112151D01*
G01X151789Y-112204D01*
G01Y-112311D01*
G01X151815Y-112364D01*
G01X151868Y-112417D01*
G01X151921Y-112443D01*
G01X152000Y-112468D01*
G01X152135D01*
G01X152213Y-112443D01*
G01X152267Y-112417D01*
G01X152320Y-112364D01*
G01X152345Y-112311D01*
G01Y-112204D01*
G01X152320Y-112151D01*
G01X152267Y-112097D01*
G01X152213Y-112072D01*
G01X151868Y-111475D02*
G01X151815Y-111500D01*
G01X151789Y-111582D01*
G01Y-111635D01*
G01X151815Y-111714D01*
G01X151893Y-111767D01*
G01X152028Y-111792D01*
G01X152160D01*
G01X152267Y-111767D01*
G01X152320Y-111714D01*
G01X152345Y-111635D01*
G01Y-111607D01*
G01X152320Y-111528D01*
G01X152267Y-111475D01*
G01X152188Y-111447D01*
G01X152160D01*
G01X152081Y-111475D01*
G01X152028Y-111528D01*
G01X152000Y-111607D01*
G01Y-111635D01*
G01X152028Y-111714D01*
G01X152081Y-111767D01*
G01X152160Y-111792D01*
G01X151789Y-110906D02*
G01X152160Y-111170D01*
G01Y-110771D01*
G01X151789Y-110906D02*
G01X152345Y-110906D01*
G01X151868Y-110124D02*
G01X151815Y-110177D01*
G01X151789Y-110256D01*
G01Y-110362D01*
G01X151815Y-110441D01*
G01X151868Y-110494D01*
G01X151921D01*
G01X151975Y-110469D01*
G01X152000Y-110441D01*
G01X152028Y-110388D01*
G01X152081Y-110228D01*
G01X152107Y-110177D01*
G01X152135Y-110149D01*
G01X152188Y-110124D01*
G01X152267D01*
G01X152320Y-110177D01*
G01X152345Y-110256D01*
G01Y-110362D01*
G01X152320Y-110441D01*
G01X152267Y-110494D01*
G01X151975Y-109527D02*
G01X152345Y-109527D01*
G01X152053Y-109527D02*
G01X152000Y-109580D01*
G01X151975Y-109633D01*
G01Y-109712D01*
G01X152000Y-109766D01*
G01X152053Y-109819D01*
G01X152135Y-109844D01*
G01X152188D01*
G01X152267Y-109819D01*
G01X152320Y-109766D01*
G01X152345Y-109712D01*
G01Y-109633D01*
G01X152320Y-109580D01*
G01X152267Y-109527D01*
G01X151975Y-109250D02*
G01X152345Y-109090D01*
G01X151975Y-108930D02*
G01X152345Y-109090D01*
G01X152135Y-108653D02*
G01X152135Y-108333D01*
G01X152081D01*
G01X152028Y-108361D01*
G01X152000Y-108386D01*
G01X151975Y-108440D01*
G01Y-108521D01*
G01X152000Y-108574D01*
G01X152053Y-108625D01*
G01X152135Y-108653D01*
G01X152188D01*
G01X152267Y-108625D01*
G01X152320Y-108574D01*
G01X152345Y-108521D01*
G01Y-108440D01*
G01X152320Y-108386D01*
G01X152267Y-108333D01*
G01X151975Y-108056D02*
G01X152345Y-108056D01*
G01X152135Y-108056D02*
G01X152053Y-108031D01*
G01X152000Y-107977D01*
G01X151975Y-107924D01*
G01Y-107843D01*
G01X151921Y-107540D02*
G01X151893Y-107540D01*
G01X151842Y-107513D01*
G01X151815Y-107487D01*
G01X151789Y-107434D01*
G01Y-107327D01*
G01X151815Y-107274D01*
G01X151842Y-107248D01*
G01X151893Y-107220D01*
G01X151947D01*
G01X152000Y-107248D01*
G01X152081Y-107302D01*
G01X152345Y-107566D01*
G01Y-107195D01*
G01X152107Y-106918D02*
G01X152107Y-106438D01*
G01X151975Y-106161D02*
G01X152345Y-106161D01*
G01X152135Y-106161D02*
G01X152053Y-106136D01*
G01X152000Y-106083D01*
G01X151975Y-106029D01*
G01Y-105948D01*
G01X152135Y-105671D02*
G01X152135Y-105354D01*
G01X152081D01*
G01X152028Y-105379D01*
G01X152000Y-105407D01*
G01X151975Y-105460D01*
G01Y-105539D01*
G01X152000Y-105592D01*
G01X152053Y-105646D01*
G01X152135Y-105671D01*
G01X152188D01*
G01X152267Y-105646D01*
G01X152320Y-105592D01*
G01X152345Y-105539D01*
G01Y-105460D01*
G01X152320Y-105407D01*
G01X152267Y-105354D01*
G01X152053Y-104782D02*
G01X152000Y-104810D01*
G01X151975Y-104889D01*
G01Y-104970D01*
G01X152000Y-105049D01*
G01X152053Y-105074D01*
G01X152107Y-105049D01*
G01X152135Y-104995D01*
G01X152160Y-104863D01*
G01X152188Y-104810D01*
G01X152239Y-104782D01*
G01X152267D01*
G01X152320Y-104810D01*
G01X152345Y-104889D01*
G01Y-104970D01*
G01X152320Y-105049D01*
G01X152267Y-105074D01*
G01X152053Y-104188D02*
G01X152000Y-104241D01*
G01X151975Y-104292D01*
G01Y-104373D01*
G01X152000Y-104426D01*
G01X152053Y-104480D01*
G01X152135Y-104505D01*
G01X152188D01*
G01X152267Y-104480D01*
G01X152320Y-104426D01*
G01X152345Y-104373D01*
G01Y-104292D01*
G01X152320Y-104241D01*
G01X152267Y-104188D01*
G01X151975Y-103908D02*
G01X152239Y-103908D01*
G01X152320Y-103883D01*
G01X152345Y-103830D01*
G01Y-103751D01*
G01X152320Y-103697D01*
G01X152239Y-103616D01*
G01X151975Y-103616D02*
G01X152345Y-103616D01*
G01X152135Y-103339D02*
G01X152135Y-103022D01*
G01X152081D01*
G01X152028Y-103047D01*
G01X152000Y-103075D01*
G01X151975Y-103126D01*
G01Y-103207D01*
G01X152000Y-103261D01*
G01X152053Y-103314D01*
G01X152135Y-103339D01*
G01X152188D01*
G01X152267Y-103314D01*
G01X152320Y-103261D01*
G01X152345Y-103207D01*
G01Y-103126D01*
G01X152320Y-103075D01*
G01X152267Y-103022D01*
G01X152531Y-102742D02*
G01X152531Y-102265D01*
G01X151789Y-101988D02*
G01X152345Y-101988D01*
G01X151789Y-101988D02*
G01X151789Y-101803D01*
G01X151815Y-101721D01*
G01X151868Y-101668D01*
G01X151921Y-101643D01*
G01X152000Y-101615D01*
G01X152135D01*
G01X152213Y-101643D01*
G01X152267Y-101668D01*
G01X152320Y-101721D01*
G01X152345Y-101803D01*
G01Y-101988D01*
G01X152531Y-101338D02*
G01X152531Y-100860D01*
G01X151789Y-100210D02*
G01X152345Y-100583D01*
G01X151789Y-100583D02*
G01X151789Y-100210D01*
G01X152345Y-100583D02*
G01X152345Y-100210D01*
G01X152135Y-99933D02*
G01X152135Y-99616D01*
G01X152081D01*
G01X152028Y-99641D01*
G01X152000Y-99666D01*
G01X151975Y-99720D01*
G01Y-99801D01*
G01X152000Y-99854D01*
G01X152053Y-99908D01*
G01X152135Y-99933D01*
G01X152188D01*
G01X152267Y-99908D01*
G01X152320Y-99854D01*
G01X152345Y-99801D01*
G01Y-99720D01*
G01X152320Y-99666D01*
G01X152267Y-99616D01*
G01X151975Y-99336D02*
G01X152345Y-99336D01*
G01X152081Y-99336D02*
G01X152000Y-99258D01*
G01X151975Y-99204D01*
G01Y-99125D01*
G01X152000Y-99072D01*
G01X152081Y-99044D01*
G01X152345D01*
G01X152135Y-98767D02*
G01X152135Y-98450D01*
G01X152081D01*
G01X152028Y-98475D01*
G01X152000Y-98501D01*
G01X151975Y-98554D01*
G01Y-98635D01*
G01X152000Y-98689D01*
G01X152053Y-98742D01*
G01X152135Y-98767D01*
G01X152188D01*
G01X152267Y-98742D01*
G01X152320Y-98689D01*
G01X152345Y-98635D01*
G01Y-98554D01*
G01X152320Y-98501D01*
G01X152267Y-98450D01*
G01X151975Y-98170D02*
G01X152345Y-98170D01*
G01X152135Y-98170D02*
G01X152053Y-98145D01*
G01X152000Y-98092D01*
G01X151975Y-98038D01*
G01Y-97960D01*
G01X152531Y-97680D02*
G01X152531Y-97203D01*
G01X151868Y-96552D02*
G01X151815Y-96606D01*
G01X151789Y-96687D01*
G01Y-96794D01*
G01X151815Y-96872D01*
G01X151868Y-96926D01*
G01X151921D01*
G01X151975Y-96898D01*
G01X152000Y-96872D01*
G01X152028Y-96819D01*
G01X152081Y-96659D01*
G01X152107Y-96606D01*
G01X152135Y-96580D01*
G01X152188Y-96552D01*
G01X152267D01*
G01X152320Y-96606D01*
G01X152345Y-96687D01*
G01Y-96794D01*
G01X152320Y-96872D01*
G01X152267Y-96926D01*
G01X151975Y-96276D02*
G01X152345Y-96276D01*
G01X152081Y-96276D02*
G01X152000Y-96197D01*
G01X151975Y-96143D01*
G01Y-96065D01*
G01X152000Y-96011D01*
G01X152081Y-95983D01*
G01X152345D01*
G01X152081Y-95983D02*
G01X152000Y-95905D01*
G01X151975Y-95851D01*
G01Y-95773D01*
G01X152000Y-95719D01*
G01X152081Y-95691D01*
G01X152345D01*
G01X151975Y-95094D02*
G01X152345Y-95094D01*
G01X152053Y-95094D02*
G01X152000Y-95148D01*
G01X151975Y-95201D01*
G01Y-95282D01*
G01X152000Y-95336D01*
G01X152053Y-95387D01*
G01X152135Y-95415D01*
G01X152188D01*
G01X152267Y-95387D01*
G01X152320Y-95336D01*
G01X152345Y-95282D01*
G01Y-95201D01*
G01X152320Y-95148D01*
G01X152267Y-95094D01*
G01X151789Y-94818D02*
G01X152345Y-94818D01*
G01X151789Y-94541D02*
G01X152345Y-94541D01*
G04 //text: Device_LED_Small*
G01X161552Y-100940D02*
G01X161552Y-101496D01*
G01X161552Y-100940D02*
G01X161738Y-100940D01*
G01X161816Y-100966D01*
G01X161870Y-101019D01*
G01X161895Y-101072D01*
G01X161923Y-101151D01*
G01Y-101286D01*
G01X161895Y-101364D01*
G01X161870Y-101418D01*
G01X161816Y-101471D01*
G01X161738Y-101496D01*
G01X161552D01*
G01X162200Y-101286D02*
G01X162520Y-101286D01*
G01Y-101232D01*
G01X162492Y-101179D01*
G01X162467Y-101151D01*
G01X162413Y-101126D01*
G01X162332D01*
G01X162281Y-101151D01*
G01X162228Y-101204D01*
G01X162200Y-101286D01*
G01Y-101339D01*
G01X162228Y-101418D01*
G01X162281Y-101471D01*
G01X162332Y-101496D01*
G01X162413D01*
G01X162467Y-101471D01*
G01X162520Y-101418D01*
G01X162797Y-101126D02*
G01X162957Y-101496D01*
G01X163114Y-101126D02*
G01X162957Y-101496D01*
G01X163394Y-100940D02*
G01X163419Y-100966D01*
G01X163447Y-100940D01*
G01X163419Y-100912D01*
G01X163394Y-100940D01*
G01X163419Y-101126D02*
G01X163419Y-101496D01*
G01X164041Y-101204D02*
G01X163988Y-101151D01*
G01X163937Y-101126D01*
G01X163856D01*
G01X163803Y-101151D01*
G01X163749Y-101204D01*
G01X163724Y-101286D01*
G01Y-101339D01*
G01X163749Y-101418D01*
G01X163803Y-101471D01*
G01X163856Y-101496D01*
G01X163937D01*
G01X163988Y-101471D01*
G01X164041Y-101418D01*
G01X164321Y-101286D02*
G01X164638Y-101286D01*
G01Y-101232D01*
G01X164613Y-101179D01*
G01X164585Y-101151D01*
G01X164532Y-101126D01*
G01X164453D01*
G01X164400Y-101151D01*
G01X164346Y-101204D01*
G01X164321Y-101286D01*
G01Y-101339D01*
G01X164346Y-101418D01*
G01X164400Y-101471D01*
G01X164453Y-101496D01*
G01X164532D01*
G01X164585Y-101471D01*
G01X164638Y-101418D01*
G01X164915Y-101682D02*
G01X165395Y-101682D01*
G01X165672Y-100940D02*
G01X165672Y-101496D01*
G01X165672Y-101496D02*
G01X165990Y-101496D01*
G01X166269Y-100940D02*
G01X166269Y-101496D01*
G01X166269Y-100940D02*
G01X166614Y-100940D01*
G01X166269Y-101204D02*
G01X166480Y-101204D01*
G01X166269Y-101496D02*
G01X166614Y-101496D01*
G01X166891Y-100940D02*
G01X166891Y-101496D01*
G01X166891Y-100940D02*
G01X167077Y-100940D01*
G01X167155Y-100966D01*
G01X167209Y-101019D01*
G01X167237Y-101072D01*
G01X167262Y-101151D01*
G01Y-101286D01*
G01X167237Y-101364D01*
G01X167209Y-101418D01*
G01X167155Y-101471D01*
G01X167077Y-101496D01*
G01X166891D01*
G01X167539Y-101682D02*
G01X168019Y-101682D01*
G01X168667Y-101019D02*
G01X168613Y-100966D01*
G01X168535Y-100940D01*
G01X168428D01*
G01X168349Y-100966D01*
G01X168296Y-101019D01*
G01Y-101072D01*
G01X168321Y-101126D01*
G01X168349Y-101151D01*
G01X168403Y-101179D01*
G01X168560Y-101232D01*
G01X168613Y-101258D01*
G01X168641Y-101286D01*
G01X168667Y-101339D01*
G01Y-101418D01*
G01X168613Y-101471D01*
G01X168535Y-101496D01*
G01X168428D01*
G01X168349Y-101471D01*
G01X168296Y-101418D01*
G01X168946Y-101126D02*
G01X168946Y-101496D01*
G01X168946Y-101232D02*
G01X169025Y-101151D01*
G01X169078Y-101126D01*
G01X169157D01*
G01X169210Y-101151D01*
G01X169238Y-101232D01*
G01Y-101496D01*
G01X169238Y-101232D02*
G01X169317Y-101151D01*
G01X169370Y-101126D01*
G01X169449D01*
G01X169502Y-101151D01*
G01X169530Y-101232D01*
G01Y-101496D01*
G01X170125Y-101126D02*
G01X170125Y-101496D01*
G01X170125Y-101204D02*
G01X170071Y-101151D01*
G01X170021Y-101126D01*
G01X169939D01*
G01X169886Y-101151D01*
G01X169833Y-101204D01*
G01X169807Y-101286D01*
G01Y-101339D01*
G01X169833Y-101418D01*
G01X169886Y-101471D01*
G01X169939Y-101496D01*
G01X170021D01*
G01X170071Y-101471D01*
G01X170125Y-101418D01*
G01X170404Y-100940D02*
G01X170404Y-101496D01*
G01X170681Y-100940D02*
G01X170681Y-101496D01*
G04 //text: C64Saver2-rescue_CP*
G01X166991Y-98605D02*
G01X166966Y-98552D01*
G01X166913Y-98499D01*
G01X166859Y-98473D01*
G01X166753D01*
G01X166699Y-98499D01*
G01X166646Y-98552D01*
G01X166620Y-98605D01*
G01X166595Y-98684D01*
G01Y-98819D01*
G01X166620Y-98897D01*
G01X166646Y-98951D01*
G01X166699Y-99004D01*
G01X166753Y-99029D01*
G01X166859D01*
G01X166913Y-99004D01*
G01X166966Y-98951D01*
G01X166991Y-98897D01*
G01X167588Y-98552D02*
G01X167563Y-98499D01*
G01X167482Y-98473D01*
G01X167428D01*
G01X167349Y-98499D01*
G01X167296Y-98577D01*
G01X167271Y-98712D01*
G01Y-98844D01*
G01X167296Y-98951D01*
G01X167349Y-99004D01*
G01X167428Y-99029D01*
G01X167456D01*
G01X167535Y-99004D01*
G01X167588Y-98951D01*
G01X167616Y-98872D01*
G01Y-98844D01*
G01X167588Y-98765D01*
G01X167535Y-98712D01*
G01X167456Y-98684D01*
G01X167428D01*
G01X167349Y-98712D01*
G01X167296Y-98765D01*
G01X167271Y-98844D01*
G01X168157Y-98473D02*
G01X167893Y-98844D01*
G01X168292D01*
G01X168157Y-98473D02*
G01X168157Y-99029D01*
G01X168939Y-98552D02*
G01X168886Y-98499D01*
G01X168807Y-98473D01*
G01X168701D01*
G01X168622Y-98499D01*
G01X168569Y-98552D01*
G01Y-98605D01*
G01X168594Y-98659D01*
G01X168622Y-98684D01*
G01X168675Y-98712D01*
G01X168835Y-98765D01*
G01X168886Y-98791D01*
G01X168914Y-98819D01*
G01X168939Y-98872D01*
G01Y-98951D01*
G01X168886Y-99004D01*
G01X168807Y-99029D01*
G01X168701D01*
G01X168622Y-99004D01*
G01X168569Y-98951D01*
G01X169536Y-98659D02*
G01X169536Y-99029D01*
G01X169536Y-98737D02*
G01X169483Y-98684D01*
G01X169430Y-98659D01*
G01X169351D01*
G01X169298Y-98684D01*
G01X169244Y-98737D01*
G01X169219Y-98819D01*
G01Y-98872D01*
G01X169244Y-98951D01*
G01X169298Y-99004D01*
G01X169351Y-99029D01*
G01X169430D01*
G01X169483Y-99004D01*
G01X169536Y-98951D01*
G01X169813Y-98659D02*
G01X169973Y-99029D01*
G01X170133Y-98659D02*
G01X169973Y-99029D01*
G01X170410Y-98819D02*
G01X170730Y-98819D01*
G01Y-98765D01*
G01X170702Y-98712D01*
G01X170677Y-98684D01*
G01X170624Y-98659D01*
G01X170542D01*
G01X170489Y-98684D01*
G01X170438Y-98737D01*
G01X170410Y-98819D01*
G01Y-98872D01*
G01X170438Y-98951D01*
G01X170489Y-99004D01*
G01X170542Y-99029D01*
G01X170624D01*
G01X170677Y-99004D01*
G01X170730Y-98951D01*
G01X171007Y-98659D02*
G01X171007Y-99029D01*
G01X171007Y-98819D02*
G01X171032Y-98737D01*
G01X171086Y-98684D01*
G01X171139Y-98659D01*
G01X171220D01*
G01X171523Y-98605D02*
G01X171523Y-98577D01*
G01X171551Y-98526D01*
G01X171576Y-98499D01*
G01X171629Y-98473D01*
G01X171736D01*
G01X171789Y-98499D01*
G01X171815Y-98526D01*
G01X171843Y-98577D01*
G01Y-98631D01*
G01X171815Y-98684D01*
G01X171761Y-98765D01*
G01X171497Y-99029D01*
G01X171868D01*
G01X172145Y-98791D02*
G01X172625Y-98791D01*
G01X172902Y-98659D02*
G01X172902Y-99029D01*
G01X172902Y-98819D02*
G01X172927Y-98737D01*
G01X172981Y-98684D01*
G01X173034Y-98659D01*
G01X173115D01*
G01X173392Y-98819D02*
G01X173710Y-98819D01*
G01Y-98765D01*
G01X173684Y-98712D01*
G01X173656Y-98684D01*
G01X173603Y-98659D01*
G01X173524D01*
G01X173471Y-98684D01*
G01X173418Y-98737D01*
G01X173392Y-98819D01*
G01Y-98872D01*
G01X173418Y-98951D01*
G01X173471Y-99004D01*
G01X173524Y-99029D01*
G01X173603D01*
G01X173656Y-99004D01*
G01X173710Y-98951D01*
G01X174281Y-98737D02*
G01X174253Y-98684D01*
G01X174174Y-98659D01*
G01X174093D01*
G01X174014Y-98684D01*
G01X173989Y-98737D01*
G01X174014Y-98791D01*
G01X174068Y-98819D01*
G01X174200Y-98844D01*
G01X174253Y-98872D01*
G01X174281Y-98923D01*
G01Y-98951D01*
G01X174253Y-99004D01*
G01X174174Y-99029D01*
G01X174093D01*
G01X174014Y-99004D01*
G01X173989Y-98951D01*
G01X174875Y-98737D02*
G01X174822Y-98684D01*
G01X174771Y-98659D01*
G01X174690D01*
G01X174637Y-98684D01*
G01X174583Y-98737D01*
G01X174558Y-98819D01*
G01Y-98872D01*
G01X174583Y-98951D01*
G01X174637Y-99004D01*
G01X174690Y-99029D01*
G01X174771D01*
G01X174822Y-99004D01*
G01X174875Y-98951D01*
G01X175155Y-98659D02*
G01X175155Y-98923D01*
G01X175180Y-99004D01*
G01X175234Y-99029D01*
G01X175312D01*
G01X175366Y-99004D01*
G01X175447Y-98923D01*
G01X175447Y-98659D02*
G01X175447Y-99029D01*
G01X175724Y-98819D02*
G01X176041Y-98819D01*
G01Y-98765D01*
G01X176016Y-98712D01*
G01X175988Y-98684D01*
G01X175937Y-98659D01*
G01X175856D01*
G01X175803Y-98684D01*
G01X175749Y-98737D01*
G01X175724Y-98819D01*
G01Y-98872D01*
G01X175749Y-98951D01*
G01X175803Y-99004D01*
G01X175856Y-99029D01*
G01X175937D01*
G01X175988Y-99004D01*
G01X176041Y-98951D01*
G01X176321Y-99215D02*
G01X176798Y-99215D01*
G01X177474Y-98605D02*
G01X177448Y-98552D01*
G01X177395Y-98499D01*
G01X177342Y-98473D01*
G01X177235D01*
G01X177182Y-98499D01*
G01X177128Y-98552D01*
G01X177103Y-98605D01*
G01X177075Y-98684D01*
G01Y-98819D01*
G01X177103Y-98897D01*
G01X177128Y-98951D01*
G01X177182Y-99004D01*
G01X177235Y-99029D01*
G01X177342D01*
G01X177395Y-99004D01*
G01X177448Y-98951D01*
G01X177474Y-98897D01*
G01X177751Y-98473D02*
G01X177751Y-99029D01*
G01X177751Y-98473D02*
G01X177990Y-98473D01*
G01X178071Y-98499D01*
G01X178096Y-98526D01*
G01X178124Y-98577D01*
G01Y-98659D01*
G01X178096Y-98712D01*
G01X178071Y-98737D01*
G01X177990Y-98765D01*
G01X177751D01*
G04 //text: Device_LED_Small*
G01X165600Y-95656D02*
G01X165600Y-95100D01*
G01X165600Y-95656D02*
G01X165414Y-95656D01*
G01X165336Y-95630D01*
G01X165282Y-95577D01*
G01X165257Y-95524D01*
G01X165229Y-95445D01*
G01Y-95310D01*
G01X165257Y-95232D01*
G01X165282Y-95178D01*
G01X165336Y-95125D01*
G01X165414Y-95100D01*
G01X165600D01*
G01X164952Y-95310D02*
G01X164632Y-95310D01*
G01Y-95364D01*
G01X164660Y-95417D01*
G01X164685Y-95445D01*
G01X164739Y-95470D01*
G01X164820D01*
G01X164871Y-95445D01*
G01X164924Y-95392D01*
G01X164952Y-95310D01*
G01Y-95257D01*
G01X164924Y-95178D01*
G01X164871Y-95125D01*
G01X164820Y-95100D01*
G01X164739D01*
G01X164685Y-95125D01*
G01X164632Y-95178D01*
G01X164355Y-95470D02*
G01X164195Y-95100D01*
G01X164038Y-95470D02*
G01X164195Y-95100D01*
G01X163758Y-95656D02*
G01X163733Y-95630D01*
G01X163705Y-95656D01*
G01X163733Y-95684D01*
G01X163758Y-95656D01*
G01X163733Y-95470D02*
G01X163733Y-95100D01*
G01X163111Y-95392D02*
G01X163164Y-95445D01*
G01X163215Y-95470D01*
G01X163296D01*
G01X163349Y-95445D01*
G01X163403Y-95392D01*
G01X163428Y-95310D01*
G01Y-95257D01*
G01X163403Y-95178D01*
G01X163349Y-95125D01*
G01X163296Y-95100D01*
G01X163215D01*
G01X163164Y-95125D01*
G01X163111Y-95178D01*
G01X162831Y-95310D02*
G01X162514Y-95310D01*
G01Y-95364D01*
G01X162539Y-95417D01*
G01X162567Y-95445D01*
G01X162620Y-95470D01*
G01X162699D01*
G01X162752Y-95445D01*
G01X162806Y-95392D01*
G01X162831Y-95310D01*
G01Y-95257D01*
G01X162806Y-95178D01*
G01X162752Y-95125D01*
G01X162699Y-95100D01*
G01X162620D01*
G01X162567Y-95125D01*
G01X162514Y-95178D01*
G01X162237Y-94914D02*
G01X161757Y-94914D01*
G01X161480Y-95656D02*
G01X161480Y-95100D01*
G01X161480Y-95100D02*
G01X161162Y-95100D01*
G01X160883Y-95656D02*
G01X160883Y-95100D01*
G01X160883Y-95656D02*
G01X160538Y-95656D01*
G01X160883Y-95392D02*
G01X160672Y-95392D01*
G01X160883Y-95100D02*
G01X160538Y-95100D01*
G01X160261Y-95656D02*
G01X160261Y-95100D01*
G01X160261Y-95656D02*
G01X160075Y-95656D01*
G01X159997Y-95630D01*
G01X159943Y-95577D01*
G01X159915Y-95524D01*
G01X159890Y-95445D01*
G01Y-95310D01*
G01X159915Y-95232D01*
G01X159943Y-95178D01*
G01X159997Y-95125D01*
G01X160075Y-95100D01*
G01X160261D01*
G01X159613Y-94914D02*
G01X159133Y-94914D01*
G01X158485Y-95577D02*
G01X158539Y-95630D01*
G01X158617Y-95656D01*
G01X158724D01*
G01X158803Y-95630D01*
G01X158856Y-95577D01*
G01Y-95524D01*
G01X158831Y-95470D01*
G01X158803Y-95445D01*
G01X158749Y-95417D01*
G01X158592Y-95364D01*
G01X158539Y-95338D01*
G01X158511Y-95310D01*
G01X158485Y-95257D01*
G01Y-95178D01*
G01X158539Y-95125D01*
G01X158617Y-95100D01*
G01X158724D01*
G01X158803Y-95125D01*
G01X158856Y-95178D01*
G01X158206Y-95470D02*
G01X158206Y-95100D01*
G01X158206Y-95364D02*
G01X158127Y-95445D01*
G01X158074Y-95470D01*
G01X157995D01*
G01X157942Y-95445D01*
G01X157914Y-95364D01*
G01Y-95100D01*
G01X157914Y-95364D02*
G01X157835Y-95445D01*
G01X157782Y-95470D01*
G01X157703D01*
G01X157650Y-95445D01*
G01X157622Y-95364D01*
G01Y-95100D01*
G01X157027Y-95470D02*
G01X157027Y-95100D01*
G01X157027Y-95392D02*
G01X157081Y-95445D01*
G01X157131Y-95470D01*
G01X157213D01*
G01X157266Y-95445D01*
G01X157319Y-95392D01*
G01X157345Y-95310D01*
G01Y-95257D01*
G01X157319Y-95178D01*
G01X157266Y-95125D01*
G01X157213Y-95100D01*
G01X157131D01*
G01X157081Y-95125D01*
G01X157027Y-95178D01*
G01X156748Y-95656D02*
G01X156748Y-95100D01*
G01X156471Y-95656D02*
G01X156471Y-95100D01*
G04 //text: C64Saver2-rescue_Q_PMOS_GDS*
G01X145897Y-88126D02*
G01X145872Y-88072D01*
G01X145818Y-88019D01*
G01X145765Y-87994D01*
G01X145658D01*
G01X145605Y-88019D01*
G01X145552Y-88072D01*
G01X145526Y-88126D01*
G01X145501Y-88204D01*
G01Y-88339D01*
G01X145526Y-88418D01*
G01X145552Y-88471D01*
G01X145605Y-88524D01*
G01X145658Y-88550D01*
G01X145765D01*
G01X145818Y-88524D01*
G01X145872Y-88471D01*
G01X145897Y-88418D01*
G01X146494Y-88072D02*
G01X146469Y-88019D01*
G01X146387Y-87994D01*
G01X146334D01*
G01X146255Y-88019D01*
G01X146202Y-88098D01*
G01X146176Y-88232D01*
G01Y-88364D01*
G01X146202Y-88471D01*
G01X146255Y-88524D01*
G01X146334Y-88550D01*
G01X146362D01*
G01X146441Y-88524D01*
G01X146494Y-88471D01*
G01X146522Y-88392D01*
G01Y-88364D01*
G01X146494Y-88286D01*
G01X146441Y-88232D01*
G01X146362Y-88204D01*
G01X146334D01*
G01X146255Y-88232D01*
G01X146202Y-88286D01*
G01X146176Y-88364D01*
G01X147063Y-87994D02*
G01X146799Y-88364D01*
G01X147198D01*
G01X147063Y-87994D02*
G01X147063Y-88550D01*
G01X147845Y-88072D02*
G01X147792Y-88019D01*
G01X147713Y-87994D01*
G01X147606D01*
G01X147528Y-88019D01*
G01X147474Y-88072D01*
G01Y-88126D01*
G01X147500Y-88179D01*
G01X147528Y-88204D01*
G01X147581Y-88232D01*
G01X147741Y-88286D01*
G01X147792Y-88311D01*
G01X147820Y-88339D01*
G01X147845Y-88392D01*
G01Y-88471D01*
G01X147792Y-88524D01*
G01X147713Y-88550D01*
G01X147606D01*
G01X147528Y-88524D01*
G01X147474Y-88471D01*
G01X148442Y-88179D02*
G01X148442Y-88550D01*
G01X148442Y-88258D02*
G01X148389Y-88204D01*
G01X148335Y-88179D01*
G01X148257D01*
G01X148203Y-88204D01*
G01X148150Y-88258D01*
G01X148125Y-88339D01*
G01Y-88392D01*
G01X148150Y-88471D01*
G01X148203Y-88524D01*
G01X148257Y-88550D01*
G01X148335D01*
G01X148389Y-88524D01*
G01X148442Y-88471D01*
G01X148719Y-88179D02*
G01X148879Y-88550D01*
G01X149039Y-88179D02*
G01X148879Y-88550D01*
G01X149316Y-88339D02*
G01X149636Y-88339D01*
G01Y-88286D01*
G01X149608Y-88232D01*
G01X149583Y-88204D01*
G01X149529Y-88179D01*
G01X149448D01*
G01X149395Y-88204D01*
G01X149344Y-88258D01*
G01X149316Y-88339D01*
G01Y-88392D01*
G01X149344Y-88471D01*
G01X149395Y-88524D01*
G01X149448Y-88550D01*
G01X149529D01*
G01X149583Y-88524D01*
G01X149636Y-88471D01*
G01X149913Y-88179D02*
G01X149913Y-88550D01*
G01X149913Y-88339D02*
G01X149938Y-88258D01*
G01X149992Y-88204D01*
G01X150045Y-88179D01*
G01X150126D01*
G01X150428Y-88126D02*
G01X150428Y-88098D01*
G01X150456Y-88047D01*
G01X150482Y-88019D01*
G01X150535Y-87994D01*
G01X150642D01*
G01X150695Y-88019D01*
G01X150720Y-88047D01*
G01X150748Y-88098D01*
G01Y-88151D01*
G01X150720Y-88204D01*
G01X150667Y-88286D01*
G01X150403Y-88550D01*
G01X150774D01*
G01X151051Y-88311D02*
G01X151531Y-88311D01*
G01X151808Y-88179D02*
G01X151808Y-88550D01*
G01X151808Y-88339D02*
G01X151833Y-88258D01*
G01X151886Y-88204D01*
G01X151940Y-88179D01*
G01X152021D01*
G01X152298Y-88339D02*
G01X152615Y-88339D01*
G01Y-88286D01*
G01X152590Y-88232D01*
G01X152562Y-88204D01*
G01X152509Y-88179D01*
G01X152430D01*
G01X152377Y-88204D01*
G01X152323Y-88258D01*
G01X152298Y-88339D01*
G01Y-88392D01*
G01X152323Y-88471D01*
G01X152377Y-88524D01*
G01X152430Y-88550D01*
G01X152509D01*
G01X152562Y-88524D01*
G01X152615Y-88471D01*
G01X153187Y-88258D02*
G01X153159Y-88204D01*
G01X153080Y-88179D01*
G01X152999D01*
G01X152920Y-88204D01*
G01X152895Y-88258D01*
G01X152920Y-88311D01*
G01X152973Y-88339D01*
G01X153106Y-88364D01*
G01X153159Y-88392D01*
G01X153187Y-88443D01*
G01Y-88471D01*
G01X153159Y-88524D01*
G01X153080Y-88550D01*
G01X152999D01*
G01X152920Y-88524D01*
G01X152895Y-88471D01*
G01X153781Y-88258D02*
G01X153728Y-88204D01*
G01X153677Y-88179D01*
G01X153596D01*
G01X153542Y-88204D01*
G01X153489Y-88258D01*
G01X153464Y-88339D01*
G01Y-88392D01*
G01X153489Y-88471D01*
G01X153542Y-88524D01*
G01X153596Y-88550D01*
G01X153677D01*
G01X153728Y-88524D01*
G01X153781Y-88471D01*
G01X154061Y-88179D02*
G01X154061Y-88443D01*
G01X154086Y-88524D01*
G01X154139Y-88550D01*
G01X154218D01*
G01X154271Y-88524D01*
G01X154353Y-88443D01*
G01X154353Y-88179D02*
G01X154353Y-88550D01*
G01X154630Y-88339D02*
G01X154947Y-88339D01*
G01Y-88286D01*
G01X154922Y-88232D01*
G01X154894Y-88204D01*
G01X154843Y-88179D01*
G01X154762D01*
G01X154708Y-88204D01*
G01X154655Y-88258D01*
G01X154630Y-88339D01*
G01Y-88392D01*
G01X154655Y-88471D01*
G01X154708Y-88524D01*
G01X154762Y-88550D01*
G01X154843D01*
G01X154894Y-88524D01*
G01X154947Y-88471D01*
G01X155226Y-88735D02*
G01X155704Y-88735D01*
G01X156141Y-87994D02*
G01X156088Y-88019D01*
G01X156034Y-88072D01*
G01X156009Y-88126D01*
G01X155981Y-88204D01*
G01Y-88339D01*
G01X156009Y-88418D01*
G01X156034Y-88471D01*
G01X156088Y-88524D01*
G01X156141Y-88550D01*
G01X156248D01*
G01X156301Y-88524D01*
G01X156354Y-88471D01*
G01X156380Y-88418D01*
G01X156405Y-88339D01*
G01Y-88204D01*
G01X156380Y-88126D01*
G01X156354Y-88072D01*
G01X156301Y-88019D01*
G01X156248Y-87994D01*
G01X156141D01*
G01X156220Y-88443D02*
G01X156380Y-88603D01*
G01X156684Y-88735D02*
G01X157162Y-88735D01*
G01X157439Y-87994D02*
G01X157439Y-88550D01*
G01X157439Y-87994D02*
G01X157678Y-87994D01*
G01X157759Y-88019D01*
G01X157784Y-88047D01*
G01X157812Y-88098D01*
G01Y-88179D01*
G01X157784Y-88232D01*
G01X157759Y-88258D01*
G01X157678Y-88286D01*
G01X157439D01*
G01X158089Y-87994D02*
G01X158089Y-88550D01*
G01X158089Y-87994D02*
G01X158302Y-88550D01*
G01X158513Y-87994D02*
G01X158302Y-88550D01*
G01X158513Y-87994D02*
G01X158513Y-88550D01*
G01X158950Y-87994D02*
G01X158897Y-88019D01*
G01X158843Y-88072D01*
G01X158818Y-88126D01*
G01X158790Y-88204D01*
G01Y-88339D01*
G01X158818Y-88418D01*
G01X158843Y-88471D01*
G01X158897Y-88524D01*
G01X158950Y-88550D01*
G01X159057D01*
G01X159110Y-88524D01*
G01X159163Y-88471D01*
G01X159189Y-88418D01*
G01X159217Y-88339D01*
G01Y-88204D01*
G01X159189Y-88126D01*
G01X159163Y-88072D01*
G01X159110Y-88019D01*
G01X159057Y-87994D01*
G01X158950D01*
G01X159864Y-88072D02*
G01X159811Y-88019D01*
G01X159732Y-87994D01*
G01X159626D01*
G01X159547Y-88019D01*
G01X159494Y-88072D01*
G01Y-88126D01*
G01X159519Y-88179D01*
G01X159547Y-88204D01*
G01X159600Y-88232D01*
G01X159760Y-88286D01*
G01X159811Y-88311D01*
G01X159839Y-88339D01*
G01X159864Y-88392D01*
G01Y-88471D01*
G01X159811Y-88524D01*
G01X159732Y-88550D01*
G01X159626D01*
G01X159547Y-88524D01*
G01X159494Y-88471D01*
G01X160144Y-88735D02*
G01X160621Y-88735D01*
G01X161297Y-88126D02*
G01X161272Y-88072D01*
G01X161218Y-88019D01*
G01X161165Y-87994D01*
G01X161058D01*
G01X161005Y-88019D01*
G01X160952Y-88072D01*
G01X160926Y-88126D01*
G01X160898Y-88204D01*
G01Y-88339D01*
G01X160926Y-88418D01*
G01X160952Y-88471D01*
G01X161005Y-88524D01*
G01X161058Y-88550D01*
G01X161165D01*
G01X161218Y-88524D01*
G01X161272Y-88471D01*
G01X161297Y-88418D01*
G01Y-88339D01*
G01X161165Y-88339D02*
G01X161297Y-88339D01*
G01X161574Y-87994D02*
G01X161574Y-88550D01*
G01X161574Y-87994D02*
G01X161759Y-87994D01*
G01X161841Y-88019D01*
G01X161894Y-88072D01*
G01X161919Y-88126D01*
G01X161947Y-88204D01*
G01Y-88339D01*
G01X161919Y-88418D01*
G01X161894Y-88471D01*
G01X161841Y-88524D01*
G01X161759Y-88550D01*
G01X161574D01*
G01X162595Y-88072D02*
G01X162542Y-88019D01*
G01X162463Y-87994D01*
G01X162356D01*
G01X162277Y-88019D01*
G01X162224Y-88072D01*
G01Y-88126D01*
G01X162250Y-88179D01*
G01X162277Y-88204D01*
G01X162331Y-88232D01*
G01X162488Y-88286D01*
G01X162542Y-88311D01*
G01X162570Y-88339D01*
G01X162595Y-88392D01*
G01Y-88471D01*
G01X162542Y-88524D01*
G01X162463Y-88550D01*
G01X162356D01*
G01X162277Y-88524D01*
G01X162224Y-88471D01*
G04 Text End*

G04 PolygonModel Start*
G54D11*
G01X148149Y-85785D02*
G01X148149Y-105985D01*
G01X141849Y-85785D02*
G01X141849Y-105985D01*
G01X140649Y-85785D02*
G01X148149Y-85785D01*
G01X140649Y-85835D02*
G01X140649Y-85785D01*
G01X148149Y-105985D02*
G01X140649Y-105985D01*
G01X140649Y-105985D02*
G01X140649Y-85835D01*
G01X176590Y-110684D02*
G01X176590Y-90484D01*
G01X182890Y-110684D02*
G01X182890Y-90484D01*
G01X184090Y-110684D02*
G01X176590Y-110684D01*
G01X184090Y-110634D02*
G01X184090Y-110684D01*
G01X176590Y-90484D02*
G01X184090Y-90484D01*
G01X184090Y-90484D02*
G01X184090Y-110634D01*
G01X175809Y-103251D02*
G01X174609Y-103251D01*
G01X175209Y-103901D02*
G01X175209Y-102601D01*
G01X158797Y-95411D02*
G01X158797Y-94811D01*
G01X158797Y-94811D02*
G01X157097Y-94811D01*
G01X158797Y-90811D02*
G01X158797Y-90211D01*
G01X158797Y-90211D02*
G01X157097Y-90211D01*
G01X157097Y-95061D02*
G01X156097Y-96061D01*
G01X157097Y-90811D02*
G01X158797Y-90811D01*
G01X157097Y-89561D02*
G01X157097Y-95061D01*
G01X156747Y-95411D02*
G01X158797Y-95411D01*
G01X156097Y-96061D02*
G01X149797Y-96061D01*
G01X149797Y-96061D02*
G01X149797Y-89561D01*
G01X149797Y-96061D02*
G01X149297Y-96061D01*
G01X149797Y-89561D02*
G01X157097Y-89561D01*
G01X149297Y-96061D02*
G01X149297Y-89561D01*
G01X149297Y-89561D02*
G01X149797Y-89561D01*
G01X156845Y-87630D02*
G01X156210Y-86995D01*
G01X176530Y-87630D02*
G01X156845Y-87630D01*
G01X156210Y-86995D02*
G01X156210Y-85090D01*
G01X156210Y-85090D02*
G01X176530Y-85090D01*
G01X176530Y-85090D02*
G01X176530Y-87630D01*
G01X147955Y-111760D02*
G01X147320Y-111125D01*
G01X167640Y-111760D02*
G01X147955Y-111760D01*
G01X147320Y-111125D02*
G01X147320Y-109220D01*
G01X147320Y-109220D02*
G01X167640Y-109220D01*
G01X167640Y-109220D02*
G01X167640Y-111760D01*
G01X159385Y-109220D02*
G01X158750Y-108585D01*
G01X168910Y-109220D02*
G01X159385Y-109220D01*
G01X158750Y-108585D02*
G01X158750Y-106680D01*
G01X158750Y-106680D02*
G01X168910Y-106680D01*
G01X168910Y-106680D02*
G01X168910Y-109220D01*
G01X170053Y-93853D02*
G01X170053Y-94593D01*
G01X170853Y-94593D02*
G01X169253Y-94593D01*
G01X169253Y-94593D02*
G01X169253Y-98193D01*
G01X170853Y-98193D02*
G01X170853Y-94593D01*
G01X169253Y-98193D02*
G01X170853Y-98193D01*
G01X170053Y-98933D02*
G01X170053Y-98193D01*
G01X174879Y-98933D02*
G01X174879Y-98193D01*
G01X174079Y-98193D02*
G01X175679Y-98193D01*
G01X175679Y-98193D02*
G01X175679Y-94593D01*
G01X174079Y-94593D02*
G01X174079Y-98193D01*
G01X175679Y-94593D02*
G01X174079Y-94593D01*
G01X174879Y-93853D02*
G01X174879Y-94593D01*
G01X167690Y-89245D02*
G01X167690Y-89985D01*
G01X168490Y-89985D02*
G01X166890Y-89985D01*
G01X166890Y-89985D02*
G01X166890Y-93585D01*
G01X168490Y-93585D02*
G01X168490Y-89985D01*
G01X166890Y-93585D02*
G01X168490Y-93585D01*
G01X167690Y-94325D02*
G01X167690Y-93585D01*
G01X163093Y-89245D02*
G01X163093Y-89985D01*
G01X163893Y-89985D02*
G01X162293Y-89985D01*
G01X162293Y-89985D02*
G01X162293Y-93585D01*
G01X163893Y-93585D02*
G01X163893Y-89985D01*
G01X162293Y-93585D02*
G01X163893Y-93585D01*
G01X163093Y-94325D02*
G01X163093Y-93585D01*
G01X175120Y-91630D02*
G01X174380Y-91630D01*
G01X174380Y-92430D02*
G01X174380Y-90830D01*
G01X174380Y-90830D02*
G01X170780Y-90830D01*
G01X170780Y-92430D02*
G01X174380Y-92430D01*
G01X170780Y-90830D02*
G01X170780Y-92430D01*
G01X170040Y-91630D02*
G01X170780Y-91630D01*
G01X160705Y-89245D02*
G01X160705Y-89985D01*
G01X161505Y-89985D02*
G01X159905Y-89985D01*
G01X159905Y-89985D02*
G01X159905Y-93585D01*
G01X161505Y-93585D02*
G01X161505Y-89985D01*
G01X159905Y-93585D02*
G01X161505Y-93585D01*
G01X160705Y-94325D02*
G01X160705Y-93585D01*
G01X153035Y-107315D02*
G01X153035Y-106655D01*
G01X151785Y-106655D02*
G01X154285Y-106655D01*
G01X154285Y-106655D02*
G01X154285Y-100355D01*
G01X151785Y-100355D02*
G01X151785Y-106655D01*
G01X154285Y-100355D02*
G01X151785Y-100355D01*
G01X153035Y-99695D02*
G01X153035Y-100355D01*
G01X165379Y-94361D02*
G01X165379Y-93621D01*
G01X164579Y-93621D02*
G01X166179Y-93621D01*
G01X166179Y-93621D02*
G01X166179Y-90021D01*
G01X164579Y-90021D02*
G01X164579Y-93621D01*
G01X166179Y-90021D02*
G01X164579Y-90021D01*
G01X165379Y-89281D02*
G01X165379Y-90021D01*
G01X151384Y-97409D02*
G01X152124Y-97409D01*
G01X152124Y-96609D02*
G01X152124Y-98209D01*
G01X152124Y-98209D02*
G01X155724Y-98209D01*
G01X155724Y-96609D02*
G01X152124Y-96609D01*
G01X155724Y-98209D02*
G01X155724Y-96609D01*
G01X156464Y-97409D02*
G01X155724Y-97409D01*
G01X175133Y-89408D02*
G01X174393Y-89408D01*
G01X174393Y-90208D02*
G01X174393Y-88608D01*
G01X174393Y-88608D02*
G01X170793Y-88608D01*
G01X170793Y-90208D02*
G01X174393Y-90208D01*
G01X170793Y-88608D02*
G01X170793Y-90208D01*
G01X170053Y-89408D02*
G01X170793Y-89408D01*
G01X149987Y-107315D02*
G01X149987Y-105505D01*
G01X148987Y-105505D02*
G01X150987Y-105505D01*
G01X150987Y-105505D02*
G01X150987Y-101505D01*
G01X148987Y-105005D02*
G01X150987Y-105005D01*
G01X148987Y-104905D02*
G01X150987Y-104905D01*
G01X148987Y-104805D02*
G01X150987Y-104805D01*
G01X148987Y-101505D02*
G01X148987Y-105505D01*
G01X150987Y-101505D02*
G01X148987Y-101505D01*
G01X149987Y-99695D02*
G01X149987Y-101505D01*
G01X164084Y-105477D02*
G03X165837Y-101243I0J2480D01*
G01X164084Y-105477D02*
G02X162330Y-101243I0J2480D01*
G01X165824Y-101247D02*
G01X162324Y-101247D01*
G01X159452Y-102489D02*
G03X155218Y-100735I-2480J0D01*
G01X159452Y-102489D02*
G02X155218Y-104243I-2480J0D01*
G01X155222Y-100749D02*
G01X155222Y-104249D01*
G01X164616Y-97132D02*
G01X164616Y-99464D01*
G01X164616Y-97132D02*
G02X164615Y-99463I1500J-1166D01*
G01X162536Y-99464D02*
G01X162536Y-97132D01*
G01X162536Y-99464D02*
G02X162537Y-97133I-1500J1166D01*
G01X172466Y-93853D02*
G01X172466Y-94593D01*
G01X173266Y-94593D02*
G01X171666Y-94593D01*
G01X171666Y-94593D02*
G01X171666Y-98193D01*
G01X173266Y-98193D02*
G01X173266Y-94593D01*
G01X171666Y-98193D02*
G01X173266Y-98193D01*
G01X172466Y-98933D02*
G01X172466Y-98193D01*
G04 PolygonModel End*

G04 Circle Start*
G54D12*
G01X169209Y-103251D02*
G03X175509Y-103251I3150J0D01*
G03X169209I-3150J0D01*
G01X164616Y-98298D02*
G03X167616Y-98298I1500J0D01*
G03X164616I-1500J0D01*
G01X159536Y-98298D02*
G03X162536Y-98298I1500J0D01*
G03X159536I-1500J0D01*
G04 Circle End*

M02*
