G04 Layer: BottomLayer*
G04 EasyEDA Pro v2.0.34.720dcead, 2023-10-18 14:17:13*
G04 Gerber Generator version 0.3*
G04 Scale: 100 percent, Rotated: No, Reflected: No*
G04 Dimensions in millimeters*
G04 Leading zeros omitted, absolute positions, 3 integers and 3 decimals*
%FSLAX33Y33*%
%MOMM*%
%ADD8191C,0.203*%
%ADD10C,1.505*%
%ADD11C,0.855*%
%ADD12C,0.705*%
%ADD13C,0.755*%
%ADD14C,0.8184*%
%ADD15C,0.805*%
%ADD16R,3.0X3.0*%
%ADD17C,3.0*%
%ADD18R,3.0X3.0*%
%ADD19R,1.6X1.6*%
%ADD20C,1.6*%
%ADD21R,1.7X1.7*%
%ADD22C,1.7*%
%ADD23C,1.4*%
%ADD24R,1.6X1.6*%
%ADD25R,1.5X1.5*%
%ADD26C,1.5*%
%ADD27R,1.5X1.5*%
%ADD28R,1.8X1.8*%
%ADD29C,1.8*%
%ADD30R,1.8X1.8*%
%ADD31C,2.0*%
%ADD32C,0.254*%
G75*


G04 Copper Start*
G36*
G01X147043Y-112164D02*
G01X147043Y-111043D01*
G01X147255Y-111255D01*
G01Y-111340D01*
G03X147740Y-111825I485J0D01*
G01X147939D01*
G03X148590Y-111975I650J1335D01*
G01X151130D01*
G01X153670D01*
G01X156210D01*
G03X157480Y-111260I0J1485D01*
G03X158750Y-111975I1270J770D01*
G01X161290D01*
G01X163830D01*
G01X166370D01*
G03X167855Y-110490I0J1485D01*
G03X166370Y-109005I-1485J0D01*
G01X165918D01*
G03X166370Y-108362I-818J1055D01*
G03X167640Y-109285I1270J412D01*
G03X168975Y-107950I0J1335D01*
G03X168807Y-107302I-1335J0D01*
G01X177691D01*
G03X178355Y-107146I0J1485D01*
G01Y-109704D01*
G03X178840Y-110189I485J0D01*
G01X181840D01*
G03X182325Y-109704I0J485D01*
G01Y-106704D01*
G03X181840Y-106219I-485J0D01*
G01X179390D01*
G01X180507Y-105102D01*
G03X182325Y-103124I-168J1978D01*
G03X180340Y-101139I-1985J0D01*
G03X178356Y-103053I0J-1985D01*
G01X177076Y-104332D01*
G01X174804D01*
G03X174894Y-104051I-395J281D01*
G01Y-102451D01*
G03X174409Y-101966I-485J0D01*
G01X172809D01*
G03X172324Y-102451I0J-485D01*
G01Y-102832D01*
G03X171109Y-101966I-1215J-419D01*
G03X169824Y-103251I0J-1285D01*
G03X170414Y-104332I1285J0D01*
G01X160020D01*
G03X158535Y-105817I0J-1485D01*
G01Y-106464D01*
G01X157313D01*
G01X157105Y-106257D01*
G03X158207Y-105029I-133J1228D01*
G03X156972Y-103794I-1235J0D01*
G03X155744Y-104896I0J-1235D01*
G01X154974Y-104126D01*
G03X153924Y-103691I-1050J-1050D01*
G01X151765D01*
G01X146380Y-98306D01*
G03X144399Y-96440I-1982J-119D01*
G03X142414Y-98425I0J-1985D01*
G03X144280Y-100406I1985J0D01*
G01X146024Y-102150D01*
G03X145761Y-102060I-609J-1354D01*
G03X144399Y-101520I-1362J-1444D01*
G03X142414Y-103505I0J-1985D01*
G03X144399Y-105490I1985J0D01*
G03X145151Y-105342I0J1985D01*
G01X145750Y-105941D01*
G01X140820D01*
G01Y-84051D01*
G01X174394D01*
G01Y-84875D01*
G01X172720D01*
G01X170180D01*
G01X167640D01*
G03X166370Y-85590I0J-1485D01*
G03X165100Y-84875I-1270J-770D01*
G01X162560D01*
G01X160020D01*
G01X157480D01*
G03X156829Y-85025I0J-1485D01*
G01X156630D01*
G03X156145Y-85510I0J-485D01*
G01Y-85709D01*
G03X155995Y-86360I1335J-650D01*
G03X156145Y-87010I1485J0D01*
G01Y-87210D01*
G03X156630Y-87695I485J0D01*
G01X156829D01*
G03X157480Y-87845I650J1335D01*
G01X160020D01*
G01X162560D01*
G01X165100D01*
G03X166370Y-87130I0J1485D01*
G03X167640Y-87845I1270J770D01*
G01X170180D01*
G01X172720D01*
G01X174394D01*
G01Y-88392D01*
G03X174403Y-88474I358J0D01*
G03X173948Y-89408I730J-934D01*
G03X173983Y-89693I1185J0D01*
G01X171808Y-91867D01*
G01Y-90551D01*
G03X171629Y-90118I-612J0D01*
G01X171203Y-89693D01*
G03X171238Y-89408I-1150J285D01*
G03X170053Y-88223I-1185J0D01*
G03X168875Y-89276I0J-1185D01*
G03X168876Y-89245I-1185J31D01*
G03X167690Y-88060I-1185J0D01*
G03X166531Y-89001I0J-1185D01*
G03X165379Y-88096I-1152J-280D01*
G03X164241Y-88950I0J-1185D01*
G03X163093Y-88060I-1148J-295D01*
G03X161908Y-89245I0J-1185D01*
G03X163093Y-90431I1185J0D01*
G03X164231Y-89576I0J1185D01*
G03X165379Y-90466I1148J295D01*
G03X166539Y-89525I0J1185D01*
G03X167690Y-90431I1152J280D01*
G03X168868Y-89377I0J1185D01*
G03Y-89408I1185J-31D01*
G03X169634Y-90517I1185J0D01*
G03X169025Y-91018I406J-1114D01*
G01X163894D01*
G03X163461Y-91197I0J-612D01*
G01X162635Y-92023D01*
G03X162456Y-92456I433J-433D01*
G01Y-93326D01*
G03X162078Y-93713I637J-999D01*
G01X161720D01*
G03X160705Y-93140I-1015J-612D01*
G03X159520Y-94325I0J-1185D01*
G03X160093Y-95340I1185J0D01*
G01Y-95581D01*
G01X159528Y-96146D01*
G01X158893D01*
G03X158460Y-96325I0J-612D01*
G01X157623Y-97162D01*
G03X156464Y-96224I-1159J-247D01*
G03X155279Y-97409I0J-1185D01*
G03X156464Y-98594I1185J0D01*
G03X156741Y-98561I0J1185D01*
G01Y-98714D01*
G01X156222D01*
G03X155737Y-99199I0J-485D01*
G01Y-100699D01*
G03X156222Y-101184I485J0D01*
G01X157722D01*
G03X158207Y-100699I0J485D01*
G01Y-99199D01*
G03X157965Y-98779I-485J0D01*
G01Y-98552D01*
G01X158392Y-98125D01*
G03X158381Y-98298I1374J-173D01*
G03X159766Y-99683I1385J0D01*
G03X160424Y-99517I0J1385D01*
G01Y-100330D01*
G01X158877Y-101877D01*
G01X158045D01*
G03X156972Y-101254I-1073J-612D01*
G03X155737Y-102489I0J-1235D01*
G03X156972Y-103724I1235J0D01*
G03X158045Y-103101I0J1235D01*
G01X159131D01*
G03X159564Y-102922I0J612D01*
G01X161469Y-101017D01*
G03X161648Y-100584I-433J433D01*
G01Y-99683D01*
G01X162964D01*
G01Y-100711D01*
G01X161869Y-101805D01*
G03X161544Y-101762I-326J-1191D01*
G03X160309Y-102997I0J-1235D01*
G03X161544Y-104232I1235J0D01*
G03X162779Y-102997I0J1235D01*
G03X162735Y-102671I-1235J0D01*
G01X162998Y-102409D01*
G03X162849Y-102997I1086J-588D01*
G03X164084Y-104232I1235J0D01*
G03X165319Y-102997I0J1235D01*
G03X164084Y-101762I-1235J0D01*
G03X163495Y-101911I0J-1235D01*
G01X164009Y-101397D01*
G03X164188Y-100964I-433J433D01*
G01Y-99683D01*
G01X165746D01*
G03X166231Y-99198I0J485D01*
G01Y-99063D01*
G03X167386Y-99683I1155J765D01*
G03X168771Y-98298I0J1385D01*
G03X167386Y-96913I-1385J0D01*
G03X167057Y-96952I0J-1385D01*
G01X167894Y-96116D01*
G01X170245D01*
G01X169585Y-96776D01*
G03X169406Y-97209I433J-433D01*
G01Y-97940D01*
G03X168868Y-98933I647J-993D01*
G03X170053Y-100118I1185J0D01*
G03X171238Y-98933I0J1185D01*
G03X170630Y-97898I-1185J0D01*
G01Y-97462D01*
G01X172899Y-95194D01*
G03X173068Y-94874I-433J433D01*
G03X173651Y-93853I-602J1021D01*
G03X172713Y-92694I-1185J0D01*
G01X173947Y-91459D01*
G03X173935Y-91630I1173J-171D01*
G03X174608Y-92699I1185J0D01*
G03X173694Y-93853I271J-1154D01*
G03X174879Y-95038I1185J0D01*
G03X176064Y-93853I0J1185D01*
G03X175391Y-92784I-1185J0D01*
G03X176303Y-91693I-271J1154D01*
G01X178762Y-95814D01*
G03X179070Y-95989I308J183D01*
G01X184045D01*
G01Y-112164D01*
G01X147043D01*
G37*
%LPC*%
G36*
G01X148702Y-99695D02*
G03X149987Y-100980I1285J0D01*
G03X151272Y-99695I0J1285D01*
G03X150599Y-98565I-1285J0D01*
G01Y-98297D01*
G03X151384Y-98594I785J888D01*
G03X152569Y-97409I0J1185D01*
G03X151384Y-96224I-1185J0D01*
G03X150599Y-96521I0J-1185D01*
G01Y-89916D01*
G01X150749Y-89766D01*
G01X159641D01*
G03X160705Y-90431I1065J521D01*
G03X161891Y-89245I0J1185D01*
G03X160705Y-88060I-1185J0D01*
G03X159752Y-88542I0J-1185D01*
G01X150495D01*
G03X150062Y-88721I0J-612D01*
G01X149554Y-89229D01*
G03X149375Y-89662I433J-433D01*
G01Y-98565D01*
G03X148702Y-99695I612J-1130D01*
G37*
G36*
G01X172400Y-111848D02*
G03X174385Y-109862I0J1985D01*
G03X172400Y-107877I-1985J0D01*
G03X170414Y-109862I0J-1985D01*
G03X172400Y-111848I1985J0D01*
G37*
G36*
G01X150420Y-86357D02*
G03X152405Y-88342I1985J0D01*
G03X154390Y-86357I0J1985D01*
G03X152405Y-84372I-1985J0D01*
G03X150420Y-86357I0J-1985D01*
G37*
G36*
G01X180340Y-100029D02*
G03X182325Y-98044I0J1985D01*
G03X180340Y-96059I-1985J0D01*
G03X178355Y-98044I0J-1985D01*
G03X180340Y-100029I1985J0D01*
G37*
G36*
G01X145899Y-90250D02*
G03X146384Y-89765I0J485D01*
G01Y-86765D01*
G03X145899Y-86280I-485J0D01*
G01X142899D01*
G03X142414Y-86765I0J-485D01*
G01Y-89765D01*
G03X142899Y-90250I485J0D01*
G01X145899D01*
G37*
G36*
G01X142414Y-93345D02*
G03X144399Y-95330I1985J0D01*
G03X146384Y-93345I0J1985D01*
G03X144399Y-91360I-1985J0D01*
G03X142414Y-93345I0J-1985D01*
G37*
G36*
G01X153035Y-100980D02*
G03X154320Y-99695I0J1285D01*
G03X153035Y-98410I-1285J0D01*
G03X151750Y-99695I0J-1285D01*
G03X153035Y-100980I1285J0D01*
G37*
G36*
G01X167374Y-104232D02*
G03X167859Y-103747I0J485D01*
G01Y-102247D01*
G03X167374Y-101762I-485J0D01*
G01X165874D01*
G03X165389Y-102247I0J-485D01*
G01Y-103747D01*
G03X165874Y-104232I485J0D01*
G01X167374D01*
G37*
G36*
G01X171281Y-98933D02*
G03X172466Y-100118I1185J0D01*
G03X173651Y-98933I0J1185D01*
G03X172466Y-97748I-1185J0D01*
G03X171281Y-98933I0J-1185D01*
G37*
G36*
G01X173694Y-98933D02*
G03X174879Y-100118I1185J0D01*
G03X176064Y-98933I0J1185D01*
G03X174879Y-97748I-1185J0D01*
G03X173694Y-98933I0J-1185D01*
G37*
%LPD*%
G36*
G01X184045Y-90274D02*
G01X184045Y-95529D01*
G01X179127D01*
G01X175907Y-90130D01*
G03X176191Y-89408I-774J722D01*
G03X175133Y-88350I-1058J0D01*
G03X174865Y-88384I0J-1058D01*
G01X174853Y-88364D01*
G01Y-87498D01*
G03X175260Y-87568I406J1138D01*
G03X176468Y-86360I0J1208D01*
G03X175260Y-85152I-1208J0D01*
G03X174853Y-85222I0J-1208D01*
G01Y-84051D01*
G01X177823D01*
G01Y-89916D01*
G03X178181Y-90274I358J0D01*
G01X184045D01*
G37*
%LPC*%
G36*
G01X180340Y-94822D02*
G03X182198Y-92964I0J1858D01*
G03X180340Y-91106I-1858J0D01*
G03X178482Y-92964I0J-1858D01*
G03X180340Y-94822I1858J0D01*
G37*
%LPD*%
G54D8191*
G01X147043Y-112164D02*
G01X147043Y-111043D01*
G01X147255Y-111255D01*
G01Y-111340D01*
G03X147740Y-111825I485J0D01*
G01X147939D01*
G03X148590Y-111975I650J1335D01*
G01X151130D01*
G01X153670D01*
G01X156210D01*
G03X157480Y-111260I0J1485D01*
G03X158750Y-111975I1270J770D01*
G01X161290D01*
G01X163830D01*
G01X166370D01*
G03X167855Y-110490I0J1485D01*
G03X166370Y-109005I-1485J0D01*
G01X165918D01*
G03X166370Y-108362I-818J1055D01*
G03X167640Y-109285I1270J412D01*
G03X168975Y-107950I0J1335D01*
G03X168807Y-107302I-1335J0D01*
G01X177691D01*
G03X178355Y-107146I0J1485D01*
G01Y-109704D01*
G03X178840Y-110189I485J0D01*
G01X181840D01*
G03X182325Y-109704I0J485D01*
G01Y-106704D01*
G03X181840Y-106219I-485J0D01*
G01X179390D01*
G01X180507Y-105102D01*
G03X182325Y-103124I-168J1978D01*
G03X180340Y-101139I-1985J0D01*
G03X178356Y-103053I0J-1985D01*
G01X177076Y-104332D01*
G01X174804D01*
G03X174894Y-104051I-395J281D01*
G01Y-102451D01*
G03X174409Y-101966I-485J0D01*
G01X172809D01*
G03X172324Y-102451I0J-485D01*
G01Y-102832D01*
G03X171109Y-101966I-1215J-419D01*
G03X169824Y-103251I0J-1285D01*
G03X170414Y-104332I1285J0D01*
G01X160020D01*
G03X158535Y-105817I0J-1485D01*
G01Y-106464D01*
G01X157313D01*
G01X157105Y-106257D01*
G03X158207Y-105029I-133J1228D01*
G03X156972Y-103794I-1235J0D01*
G03X155744Y-104896I0J-1235D01*
G01X154974Y-104126D01*
G03X153924Y-103691I-1050J-1050D01*
G01X151765D01*
G01X146380Y-98306D01*
G03X144399Y-96440I-1982J-119D01*
G03X142414Y-98425I0J-1985D01*
G03X144280Y-100406I1985J0D01*
G01X146024Y-102150D01*
G03X145761Y-102060I-609J-1354D01*
G03X144399Y-101520I-1362J-1444D01*
G03X142414Y-103505I0J-1985D01*
G03X144399Y-105490I1985J0D01*
G03X145151Y-105342I0J1985D01*
G01X145750Y-105941D01*
G01X140820D01*
G01Y-84051D01*
G01X174394D01*
G01Y-84875D01*
G01X172720D01*
G01X170180D01*
G01X167640D01*
G03X166370Y-85590I0J-1485D01*
G03X165100Y-84875I-1270J-770D01*
G01X162560D01*
G01X160020D01*
G01X157480D01*
G03X156829Y-85025I0J-1485D01*
G01X156630D01*
G03X156145Y-85510I0J-485D01*
G01Y-85709D01*
G03X155995Y-86360I1335J-650D01*
G03X156145Y-87010I1485J0D01*
G01Y-87210D01*
G03X156630Y-87695I485J0D01*
G01X156829D01*
G03X157480Y-87845I650J1335D01*
G01X160020D01*
G01X162560D01*
G01X165100D01*
G03X166370Y-87130I0J1485D01*
G03X167640Y-87845I1270J770D01*
G01X170180D01*
G01X172720D01*
G01X174394D01*
G01Y-88392D01*
G03X174403Y-88474I358J0D01*
G03X173948Y-89408I730J-934D01*
G03X173983Y-89693I1185J0D01*
G01X171808Y-91867D01*
G01Y-90551D01*
G03X171629Y-90118I-612J0D01*
G01X171203Y-89693D01*
G03X171238Y-89408I-1150J285D01*
G03X170053Y-88223I-1185J0D01*
G03X168875Y-89276I0J-1185D01*
G03X168876Y-89245I-1185J31D01*
G03X167690Y-88060I-1185J0D01*
G03X166531Y-89001I0J-1185D01*
G03X165379Y-88096I-1152J-280D01*
G03X164241Y-88950I0J-1185D01*
G03X163093Y-88060I-1148J-295D01*
G03X161908Y-89245I0J-1185D01*
G03X163093Y-90431I1185J0D01*
G03X164231Y-89576I0J1185D01*
G03X165379Y-90466I1148J295D01*
G03X166539Y-89525I0J1185D01*
G03X167690Y-90431I1152J280D01*
G03X168868Y-89377I0J1185D01*
G03Y-89408I1185J-31D01*
G03X169634Y-90517I1185J0D01*
G03X169025Y-91018I406J-1114D01*
G01X163894D01*
G03X163461Y-91197I0J-612D01*
G01X162635Y-92023D01*
G03X162456Y-92456I433J-433D01*
G01Y-93326D01*
G03X162078Y-93713I637J-999D01*
G01X161720D01*
G03X160705Y-93140I-1015J-612D01*
G03X159520Y-94325I0J-1185D01*
G03X160093Y-95340I1185J0D01*
G01Y-95581D01*
G01X159528Y-96146D01*
G01X158893D01*
G03X158460Y-96325I0J-612D01*
G01X157623Y-97162D01*
G03X156464Y-96224I-1159J-247D01*
G03X155279Y-97409I0J-1185D01*
G03X156464Y-98594I1185J0D01*
G03X156741Y-98561I0J1185D01*
G01Y-98714D01*
G01X156222D01*
G03X155737Y-99199I0J-485D01*
G01Y-100699D01*
G03X156222Y-101184I485J0D01*
G01X157722D01*
G03X158207Y-100699I0J485D01*
G01Y-99199D01*
G03X157965Y-98779I-485J0D01*
G01Y-98552D01*
G01X158392Y-98125D01*
G03X158381Y-98298I1374J-173D01*
G03X159766Y-99683I1385J0D01*
G03X160424Y-99517I0J1385D01*
G01Y-100330D01*
G01X158877Y-101877D01*
G01X158045D01*
G03X156972Y-101254I-1073J-612D01*
G03X155737Y-102489I0J-1235D01*
G03X156972Y-103724I1235J0D01*
G03X158045Y-103101I0J1235D01*
G01X159131D01*
G03X159564Y-102922I0J612D01*
G01X161469Y-101017D01*
G03X161648Y-100584I-433J433D01*
G01Y-99683D01*
G01X162964D01*
G01Y-100711D01*
G01X161869Y-101805D01*
G03X161544Y-101762I-326J-1191D01*
G03X160309Y-102997I0J-1235D01*
G03X161544Y-104232I1235J0D01*
G03X162779Y-102997I0J1235D01*
G03X162735Y-102671I-1235J0D01*
G01X162998Y-102409D01*
G03X162849Y-102997I1086J-588D01*
G03X164084Y-104232I1235J0D01*
G03X165319Y-102997I0J1235D01*
G03X164084Y-101762I-1235J0D01*
G03X163495Y-101911I0J-1235D01*
G01X164009Y-101397D01*
G03X164188Y-100964I-433J433D01*
G01Y-99683D01*
G01X165746D01*
G03X166231Y-99198I0J485D01*
G01Y-99063D01*
G03X167386Y-99683I1155J765D01*
G03X168771Y-98298I0J1385D01*
G03X167386Y-96913I-1385J0D01*
G03X167057Y-96952I0J-1385D01*
G01X167894Y-96116D01*
G01X170245D01*
G01X169585Y-96776D01*
G03X169406Y-97209I433J-433D01*
G01Y-97940D01*
G03X168868Y-98933I647J-993D01*
G03X170053Y-100118I1185J0D01*
G03X171238Y-98933I0J1185D01*
G03X170630Y-97898I-1185J0D01*
G01Y-97462D01*
G01X172899Y-95194D01*
G03X173068Y-94874I-433J433D01*
G03X173651Y-93853I-602J1021D01*
G03X172713Y-92694I-1185J0D01*
G01X173947Y-91459D01*
G03X173935Y-91630I1173J-171D01*
G03X174608Y-92699I1185J0D01*
G03X173694Y-93853I271J-1154D01*
G03X174879Y-95038I1185J0D01*
G03X176064Y-93853I0J1185D01*
G03X175391Y-92784I-1185J0D01*
G03X176303Y-91693I-271J1154D01*
G01X178762Y-95814D01*
G03X179070Y-95989I308J183D01*
G01X184045D01*
G01Y-112164D01*
G01X147043D01*
G01X148702Y-99695D02*
G03X149987Y-100980I1285J0D01*
G03X151272Y-99695I0J1285D01*
G03X150599Y-98565I-1285J0D01*
G01Y-98297D01*
G03X151384Y-98594I785J888D01*
G03X152569Y-97409I0J1185D01*
G03X151384Y-96224I-1185J0D01*
G03X150599Y-96521I0J-1185D01*
G01Y-89916D01*
G01X150749Y-89766D01*
G01X159641D01*
G03X160705Y-90431I1065J521D01*
G03X161891Y-89245I0J1185D01*
G03X160705Y-88060I-1185J0D01*
G03X159752Y-88542I0J-1185D01*
G01X150495D01*
G03X150062Y-88721I0J-612D01*
G01X149554Y-89229D01*
G03X149375Y-89662I433J-433D01*
G01Y-98565D01*
G03X148702Y-99695I612J-1130D01*
G01X172400Y-111848D02*
G03X174385Y-109862I0J1985D01*
G03X172400Y-107877I-1985J0D01*
G03X170414Y-109862I0J-1985D01*
G03X172400Y-111848I1985J0D01*
G01X150420Y-86357D02*
G03X152405Y-88342I1985J0D01*
G03X154390Y-86357I0J1985D01*
G03X152405Y-84372I-1985J0D01*
G03X150420Y-86357I0J-1985D01*
G01X180340Y-100029D02*
G03X182325Y-98044I0J1985D01*
G03X180340Y-96059I-1985J0D01*
G03X178355Y-98044I0J-1985D01*
G03X180340Y-100029I1985J0D01*
G01X145899Y-90250D02*
G03X146384Y-89765I0J485D01*
G01Y-86765D01*
G03X145899Y-86280I-485J0D01*
G01X142899D01*
G03X142414Y-86765I0J-485D01*
G01Y-89765D01*
G03X142899Y-90250I485J0D01*
G01X145899D01*
G01X142414Y-93345D02*
G03X144399Y-95330I1985J0D01*
G03X146384Y-93345I0J1985D01*
G03X144399Y-91360I-1985J0D01*
G03X142414Y-93345I0J-1985D01*
G01X153035Y-100980D02*
G03X154320Y-99695I0J1285D01*
G03X153035Y-98410I-1285J0D01*
G03X151750Y-99695I0J-1285D01*
G03X153035Y-100980I1285J0D01*
G01X167374Y-104232D02*
G03X167859Y-103747I0J485D01*
G01Y-102247D01*
G03X167374Y-101762I-485J0D01*
G01X165874D01*
G03X165389Y-102247I0J-485D01*
G01Y-103747D01*
G03X165874Y-104232I485J0D01*
G01X167374D01*
G01X171281Y-98933D02*
G03X172466Y-100118I1185J0D01*
G03X173651Y-98933I0J1185D01*
G03X172466Y-97748I-1185J0D01*
G03X171281Y-98933I0J-1185D01*
G01X173694Y-98933D02*
G03X174879Y-100118I1185J0D01*
G03X176064Y-98933I0J1185D01*
G03X174879Y-97748I-1185J0D01*
G03X173694Y-98933I0J-1185D01*
G01X184045Y-90274D02*
G01X184045Y-95529D01*
G01X179127D01*
G01X175907Y-90130D01*
G03X176191Y-89408I-774J722D01*
G03X175133Y-88350I-1058J0D01*
G03X174865Y-88384I0J-1058D01*
G01X174853Y-88364D01*
G01Y-87498D01*
G03X175260Y-87568I406J1138D01*
G03X176468Y-86360I0J1208D01*
G03X175260Y-85152I-1208J0D01*
G03X174853Y-85222I0J-1208D01*
G01Y-84051D01*
G01X177823D01*
G01Y-89916D01*
G03X178181Y-90274I358J0D01*
G01X184045D01*
G01X180340Y-94822D02*
G03X182198Y-92964I0J1858D01*
G03X180340Y-91106I-1858J0D01*
G03X178482Y-92964I0J-1858D01*
G03X180340Y-94822I1858J0D01*
G54D10*
G01X180340Y-92964D02*
G01X180340Y-94723D01*
G01X180340Y-92964D02*
G01X180340Y-91205D01*
G01X180340Y-92964D02*
G01X178581Y-92964D01*
G01X180340Y-92964D02*
G01X182099Y-92964D01*
G54D11*
G01X175260Y-86360D02*
G01X175260Y-87469D01*
G01X175260Y-86360D02*
G01X175260Y-85251D01*
G01X175260Y-86360D02*
G01X176369Y-86360D01*
G54D12*
G01X156464Y-97409D02*
G01X155378Y-97409D01*
G01X156464Y-97409D02*
G01X156464Y-96323D01*
G01X174879Y-93853D02*
G01X174879Y-94939D01*
G01X174879Y-93853D02*
G01X175965Y-93853D01*
G54D11*
G01X167640Y-107950D02*
G01X167640Y-109186D01*
G01X167640Y-107950D02*
G01X168876Y-107950D01*
G54D13*
G01X156972Y-105029D02*
G01X158108Y-105029D01*
G54D10*
G01X180340Y-98044D02*
G01X180340Y-99930D01*
G01X180340Y-98044D02*
G01X178454Y-98044D01*
G01X180340Y-98044D02*
G01X182226Y-98044D01*
G01X144399Y-93345D02*
G01X144399Y-91459D01*
G01X144399Y-93345D02*
G01X144399Y-95231D01*
G01X144399Y-93345D02*
G01X146285Y-93345D01*
G01X144399Y-93345D02*
G01X142513Y-93345D01*
G54D12*
G01X165379Y-89281D02*
G01X165379Y-90367D01*
G01X165379Y-89281D02*
G01X165379Y-88195D01*
G54D15*
G01X171109Y-103251D02*
G01X169923Y-103251D01*
G01X171109Y-103251D02*
G01X171109Y-102065D01*
G54D13*
G01X164084Y-102997D02*
G01X164084Y-101861D01*
G04 Copper End*

G04 Pad Start*
G54D16*
G01X144399Y-88265D03*
G54D17*
G01X144399Y-93345D03*
G01X144399Y-98425D03*
G01X144399Y-103505D03*
G54D18*
G01X180340Y-108204D03*
G54D17*
G01X180340Y-103124D03*
G01X180340Y-98044D03*
G01X180340Y-92964D03*
G54D19*
G01X173609Y-103251D03*
G54D20*
G01X171109Y-103251D03*
G54D21*
G01X157480Y-86360D03*
G54D22*
G01X160020Y-86360D03*
G01X162560Y-86360D03*
G01X165100Y-86360D03*
G01X167640Y-86360D03*
G01X170180Y-86360D03*
G01X172720Y-86360D03*
G01X175260Y-86360D03*
G54D21*
G01X148590Y-110490D03*
G54D22*
G01X151130Y-110490D03*
G01X153670Y-110490D03*
G01X156210Y-110490D03*
G01X158750Y-110490D03*
G01X161290Y-110490D03*
G01X163830Y-110490D03*
G01X166370Y-110490D03*
G54D21*
G01X160020Y-107950D03*
G54D22*
G01X162560Y-107950D03*
G01X165100Y-107950D03*
G01X167640Y-107950D03*
G54D17*
G01X152405Y-86357D03*
G01X172400Y-109862D03*
G54D23*
G01X170053Y-93853D03*
G01X170053Y-98933D03*
G01X174879Y-98933D03*
G01X174879Y-93853D03*
G01X167690Y-89245D03*
G01X167690Y-94325D03*
G01X163093Y-89245D03*
G01X163093Y-94325D03*
G01X175120Y-91630D03*
G01X170040Y-91630D03*
G01X160705Y-89245D03*
G01X160705Y-94325D03*
G54D20*
G01X153035Y-107315D03*
G01X153035Y-99695D03*
G54D23*
G01X165379Y-94361D03*
G01X165379Y-89281D03*
G01X151384Y-97409D03*
G01X156464Y-97409D03*
G01X175133Y-89408D03*
G01X170053Y-89408D03*
G54D24*
G01X149987Y-107315D03*
G54D20*
G01X149987Y-99695D03*
G54D25*
G01X166624Y-102997D03*
G54D26*
G01X161544Y-102997D03*
G01X164084Y-102997D03*
G54D27*
G01X156972Y-99949D03*
G54D26*
G01X156972Y-105029D03*
G01X156972Y-102489D03*
G54D28*
G01X164846Y-98298D03*
G54D29*
G01X167386Y-98298D03*
G54D30*
G01X162306Y-98298D03*
G54D29*
G01X159766Y-98298D03*
G54D23*
G01X172466Y-93853D03*
G01X172466Y-98933D03*
G04 Pad End*

G04 Track Start*
G54D31*
G01X175260Y-86360D02*
G01X172720Y-86360D01*
G01X170180D01*
G01X167640D01*
G01X163830Y-110490D02*
G01X161290Y-110490D01*
G01X166370Y-110490D02*
G01X163830Y-110490D01*
G01X161290Y-110490D02*
G01X158750Y-110490D01*
G01X147760Y-105850D02*
G01X145415Y-103505D01*
G01X153670Y-110490D02*
G01X151130Y-110490D01*
G01X147760Y-109660D02*
G01X147760Y-105850D01*
G01X148590Y-110490D02*
G01X147760Y-109660D01*
G01X145415Y-103505D02*
G01X144399Y-103505D01*
G01X151130Y-110490D02*
G01X148590Y-110490D01*
G01X165100Y-86360D02*
G01X162560Y-86360D01*
G01X160020D01*
G01X157480D01*
G54D32*
G01X170053Y-89408D02*
G01X171196Y-90551D01*
G01X170040Y-91630D02*
G01X163894Y-91630D01*
G01X163068Y-92456D01*
G01Y-94300D01*
G01X163093Y-94325D01*
G01X160705D01*
G01X171196Y-90551D02*
G01X171196Y-92202D01*
G54D31*
G01X156210Y-110490D02*
G01X153670Y-110490D01*
G01X144399Y-98425D02*
G01X151150Y-105176D01*
G01X153924D01*
G01X156698Y-107949D01*
G01X160020D01*
G54D32*
G01X159131Y-102489D02*
G01X156972Y-102489D01*
G01X167690Y-94325D02*
G01X166512Y-95504D01*
G01X175133Y-89408D02*
G01X171450Y-93091D01*
G01X167690Y-94325D02*
G01X169341Y-92674D01*
G01X170724D01*
G01X171196Y-92202D01*
G01X161036Y-100584D02*
G01X159131Y-102489D01*
G01X165379Y-94361D02*
G01X165020Y-94361D01*
G01X163929Y-95452D01*
G01X166512Y-95504D02*
G01X164719Y-95504D01*
G01X163929Y-95452D02*
G01X162024Y-95452D01*
G01X161036Y-96440D01*
G01Y-100584D01*
G01X164719Y-95504D02*
G01X163576Y-96647D01*
G01Y-100964D01*
G01X161544Y-102997D01*
G01X159782Y-96758D02*
G01X160705Y-95835D01*
G01Y-94325D01*
G01X167640Y-95504D02*
G01X164846Y-98298D01*
G01X171450Y-93091D02*
G01X171450Y-94869D01*
G01X170815Y-95504D01*
G01X167640D01*
G01X170053Y-98933D02*
G01X170018Y-98898D01*
G01Y-97209D01*
G01X172466Y-94761D02*
G01X172466Y-93853D01*
G01X172466Y-94761D02*
G01X170018Y-97209D01*
G01X158893Y-96758D02*
G01X159782Y-96758D01*
G01X156972Y-99949D02*
G01X157353Y-99568D01*
G01Y-98298D01*
G01X158893Y-96758D01*
G01X160614Y-89154D02*
G01X160705Y-89245D01*
G01X149987Y-99695D02*
G01X149987Y-89662D01*
G01X150495Y-89154D01*
G01X160614D01*
G54D31*
G01X180384Y-103125D02*
G01X177691Y-105817D01*
G01X160020D01*
G01Y-107949D01*
G04 Track End*

M02*
