G04 #@! TF.GenerationSoftware,KiCad,Pcbnew,7.0.1-3b83917a11~172~ubuntu20.04.1*
G04 #@! TF.CreationDate,2023-04-02T02:43:19+02:00*
G04 #@! TF.ProjectId,C64Saver2,43363453-6176-4657-9232-2e6b69636164,0.1*
G04 #@! TF.SameCoordinates,Original*
G04 #@! TF.FileFunction,Legend,Top*
G04 #@! TF.FilePolarity,Positive*
%FSLAX46Y46*%
G04 Gerber Fmt 4.6, Leading zero omitted, Abs format (unit mm)*
G04 Created by KiCad (PCBNEW 7.0.1-3b83917a11~172~ubuntu20.04.1) date 2023-04-02 02:43:19*
%MOMM*%
%LPD*%
G01*
G04 APERTURE LIST*
%ADD10C,0.300000*%
%ADD11C,0.150000*%
%ADD12C,0.120000*%
G04 #@! TA.AperFunction,Profile*
%ADD13C,0.150000*%
G04 #@! TD*
G04 APERTURE END LIST*
D10*
X146648273Y-88503094D02*
X146648273Y-89098332D01*
X146648273Y-89098332D02*
X147243511Y-89157856D01*
X147243511Y-89157856D02*
X147183988Y-89098332D01*
X147183988Y-89098332D02*
X147124464Y-88979285D01*
X147124464Y-88979285D02*
X147124464Y-88681666D01*
X147124464Y-88681666D02*
X147183988Y-88562618D01*
X147183988Y-88562618D02*
X147243511Y-88503094D01*
X147243511Y-88503094D02*
X147362559Y-88443571D01*
X147362559Y-88443571D02*
X147660178Y-88443571D01*
X147660178Y-88443571D02*
X147779226Y-88503094D01*
X147779226Y-88503094D02*
X147838750Y-88562618D01*
X147838750Y-88562618D02*
X147898273Y-88681666D01*
X147898273Y-88681666D02*
X147898273Y-88979285D01*
X147898273Y-88979285D02*
X147838750Y-89098332D01*
X147838750Y-89098332D02*
X147779226Y-89157856D01*
X146648273Y-88086428D02*
X147898273Y-87669761D01*
X147898273Y-87669761D02*
X146648273Y-87253095D01*
X146707797Y-94297381D02*
X146648273Y-94416428D01*
X146648273Y-94416428D02*
X146648273Y-94595000D01*
X146648273Y-94595000D02*
X146707797Y-94773571D01*
X146707797Y-94773571D02*
X146826845Y-94892619D01*
X146826845Y-94892619D02*
X146945892Y-94952142D01*
X146945892Y-94952142D02*
X147183988Y-95011666D01*
X147183988Y-95011666D02*
X147362559Y-95011666D01*
X147362559Y-95011666D02*
X147600654Y-94952142D01*
X147600654Y-94952142D02*
X147719702Y-94892619D01*
X147719702Y-94892619D02*
X147838750Y-94773571D01*
X147838750Y-94773571D02*
X147898273Y-94595000D01*
X147898273Y-94595000D02*
X147898273Y-94475952D01*
X147898273Y-94475952D02*
X147838750Y-94297381D01*
X147838750Y-94297381D02*
X147779226Y-94237857D01*
X147779226Y-94237857D02*
X147362559Y-94237857D01*
X147362559Y-94237857D02*
X147362559Y-94475952D01*
X147898273Y-93702142D02*
X146648273Y-93702142D01*
X146648273Y-93702142D02*
X147898273Y-92987857D01*
X147898273Y-92987857D02*
X146648273Y-92987857D01*
X147898273Y-92392618D02*
X146648273Y-92392618D01*
X146648273Y-92392618D02*
X146648273Y-92094999D01*
X146648273Y-92094999D02*
X146707797Y-91916428D01*
X146707797Y-91916428D02*
X146826845Y-91797380D01*
X146826845Y-91797380D02*
X146945892Y-91737857D01*
X146945892Y-91737857D02*
X147183988Y-91678333D01*
X147183988Y-91678333D02*
X147362559Y-91678333D01*
X147362559Y-91678333D02*
X147600654Y-91737857D01*
X147600654Y-91737857D02*
X147719702Y-91797380D01*
X147719702Y-91797380D02*
X147838750Y-91916428D01*
X147838750Y-91916428D02*
X147898273Y-92094999D01*
X147898273Y-92094999D02*
X147898273Y-92392618D01*
X147898273Y-103026524D02*
X147898273Y-102788428D01*
X147898273Y-102788428D02*
X147838750Y-102669381D01*
X147838750Y-102669381D02*
X147779226Y-102609857D01*
X147779226Y-102609857D02*
X147600654Y-102490809D01*
X147600654Y-102490809D02*
X147362559Y-102431286D01*
X147362559Y-102431286D02*
X146886369Y-102431286D01*
X146886369Y-102431286D02*
X146767321Y-102490809D01*
X146767321Y-102490809D02*
X146707797Y-102550333D01*
X146707797Y-102550333D02*
X146648273Y-102669381D01*
X146648273Y-102669381D02*
X146648273Y-102907476D01*
X146648273Y-102907476D02*
X146707797Y-103026524D01*
X146707797Y-103026524D02*
X146767321Y-103086047D01*
X146767321Y-103086047D02*
X146886369Y-103145571D01*
X146886369Y-103145571D02*
X147183988Y-103145571D01*
X147183988Y-103145571D02*
X147303035Y-103086047D01*
X147303035Y-103086047D02*
X147362559Y-103026524D01*
X147362559Y-103026524D02*
X147422083Y-102907476D01*
X147422083Y-102907476D02*
X147422083Y-102669381D01*
X147422083Y-102669381D02*
X147362559Y-102550333D01*
X147362559Y-102550333D02*
X147303035Y-102490809D01*
X147303035Y-102490809D02*
X147183988Y-102431286D01*
X146648273Y-102074143D02*
X147898273Y-101657476D01*
X147898273Y-101657476D02*
X146648273Y-101240810D01*
X147541130Y-100883666D02*
X147541130Y-100288428D01*
X147898273Y-101002714D02*
X146648273Y-100586047D01*
X146648273Y-100586047D02*
X147898273Y-100169381D01*
X147779226Y-99038428D02*
X147838750Y-99097952D01*
X147838750Y-99097952D02*
X147898273Y-99276523D01*
X147898273Y-99276523D02*
X147898273Y-99395571D01*
X147898273Y-99395571D02*
X147838750Y-99574142D01*
X147838750Y-99574142D02*
X147719702Y-99693190D01*
X147719702Y-99693190D02*
X147600654Y-99752713D01*
X147600654Y-99752713D02*
X147362559Y-99812237D01*
X147362559Y-99812237D02*
X147183988Y-99812237D01*
X147183988Y-99812237D02*
X146945892Y-99752713D01*
X146945892Y-99752713D02*
X146826845Y-99693190D01*
X146826845Y-99693190D02*
X146707797Y-99574142D01*
X146707797Y-99574142D02*
X146648273Y-99395571D01*
X146648273Y-99395571D02*
X146648273Y-99276523D01*
X146648273Y-99276523D02*
X146707797Y-99097952D01*
X146707797Y-99097952D02*
X146767321Y-99038428D01*
X178031202Y-96964618D02*
X178090726Y-96845571D01*
X178090726Y-96845571D02*
X178090726Y-96666999D01*
X178090726Y-96666999D02*
X178031202Y-96488428D01*
X178031202Y-96488428D02*
X177912154Y-96369380D01*
X177912154Y-96369380D02*
X177793107Y-96309857D01*
X177793107Y-96309857D02*
X177555011Y-96250333D01*
X177555011Y-96250333D02*
X177376440Y-96250333D01*
X177376440Y-96250333D02*
X177138345Y-96309857D01*
X177138345Y-96309857D02*
X177019297Y-96369380D01*
X177019297Y-96369380D02*
X176900250Y-96488428D01*
X176900250Y-96488428D02*
X176840726Y-96666999D01*
X176840726Y-96666999D02*
X176840726Y-96786047D01*
X176840726Y-96786047D02*
X176900250Y-96964618D01*
X176900250Y-96964618D02*
X176959773Y-97024142D01*
X176959773Y-97024142D02*
X177376440Y-97024142D01*
X177376440Y-97024142D02*
X177376440Y-96786047D01*
X176840726Y-97559857D02*
X178090726Y-97559857D01*
X178090726Y-97559857D02*
X176840726Y-98274142D01*
X176840726Y-98274142D02*
X178090726Y-98274142D01*
X176840726Y-98869381D02*
X178090726Y-98869381D01*
X178090726Y-98869381D02*
X178090726Y-99167000D01*
X178090726Y-99167000D02*
X178031202Y-99345571D01*
X178031202Y-99345571D02*
X177912154Y-99464619D01*
X177912154Y-99464619D02*
X177793107Y-99524142D01*
X177793107Y-99524142D02*
X177555011Y-99583666D01*
X177555011Y-99583666D02*
X177376440Y-99583666D01*
X177376440Y-99583666D02*
X177138345Y-99524142D01*
X177138345Y-99524142D02*
X177019297Y-99464619D01*
X177019297Y-99464619D02*
X176900250Y-99345571D01*
X176900250Y-99345571D02*
X176840726Y-99167000D01*
X176840726Y-99167000D02*
X176840726Y-98869381D01*
X176840726Y-103348475D02*
X176840726Y-103586571D01*
X176840726Y-103586571D02*
X176900250Y-103705618D01*
X176900250Y-103705618D02*
X176959773Y-103765142D01*
X176959773Y-103765142D02*
X177138345Y-103884190D01*
X177138345Y-103884190D02*
X177376440Y-103943713D01*
X177376440Y-103943713D02*
X177852630Y-103943713D01*
X177852630Y-103943713D02*
X177971678Y-103884190D01*
X177971678Y-103884190D02*
X178031202Y-103824666D01*
X178031202Y-103824666D02*
X178090726Y-103705618D01*
X178090726Y-103705618D02*
X178090726Y-103467523D01*
X178090726Y-103467523D02*
X178031202Y-103348475D01*
X178031202Y-103348475D02*
X177971678Y-103288952D01*
X177971678Y-103288952D02*
X177852630Y-103229428D01*
X177852630Y-103229428D02*
X177555011Y-103229428D01*
X177555011Y-103229428D02*
X177435964Y-103288952D01*
X177435964Y-103288952D02*
X177376440Y-103348475D01*
X177376440Y-103348475D02*
X177316916Y-103467523D01*
X177316916Y-103467523D02*
X177316916Y-103705618D01*
X177316916Y-103705618D02*
X177376440Y-103824666D01*
X177376440Y-103824666D02*
X177435964Y-103884190D01*
X177435964Y-103884190D02*
X177555011Y-103943713D01*
X178090726Y-104300856D02*
X176840726Y-104717523D01*
X176840726Y-104717523D02*
X178090726Y-105134189D01*
X177197869Y-105491333D02*
X177197869Y-106086571D01*
X176840726Y-105372285D02*
X178090726Y-105788952D01*
X178090726Y-105788952D02*
X176840726Y-106205618D01*
X176959773Y-107336571D02*
X176900250Y-107277047D01*
X176900250Y-107277047D02*
X176840726Y-107098476D01*
X176840726Y-107098476D02*
X176840726Y-106979428D01*
X176840726Y-106979428D02*
X176900250Y-106800857D01*
X176900250Y-106800857D02*
X177019297Y-106681809D01*
X177019297Y-106681809D02*
X177138345Y-106622286D01*
X177138345Y-106622286D02*
X177376440Y-106562762D01*
X177376440Y-106562762D02*
X177555011Y-106562762D01*
X177555011Y-106562762D02*
X177793107Y-106622286D01*
X177793107Y-106622286D02*
X177912154Y-106681809D01*
X177912154Y-106681809D02*
X178031202Y-106800857D01*
X178031202Y-106800857D02*
X178090726Y-106979428D01*
X178090726Y-106979428D02*
X178090726Y-107098476D01*
X178090726Y-107098476D02*
X178031202Y-107277047D01*
X178031202Y-107277047D02*
X177971678Y-107336571D01*
X178090726Y-92725905D02*
X178090726Y-92130667D01*
X178090726Y-92130667D02*
X177495488Y-92071143D01*
X177495488Y-92071143D02*
X177555011Y-92130667D01*
X177555011Y-92130667D02*
X177614535Y-92249714D01*
X177614535Y-92249714D02*
X177614535Y-92547333D01*
X177614535Y-92547333D02*
X177555011Y-92666381D01*
X177555011Y-92666381D02*
X177495488Y-92725905D01*
X177495488Y-92725905D02*
X177376440Y-92785428D01*
X177376440Y-92785428D02*
X177078821Y-92785428D01*
X177078821Y-92785428D02*
X176959773Y-92725905D01*
X176959773Y-92725905D02*
X176900250Y-92666381D01*
X176900250Y-92666381D02*
X176840726Y-92547333D01*
X176840726Y-92547333D02*
X176840726Y-92249714D01*
X176840726Y-92249714D02*
X176900250Y-92130667D01*
X176900250Y-92130667D02*
X176959773Y-92071143D01*
X178090726Y-93142571D02*
X176840726Y-93559238D01*
X176840726Y-93559238D02*
X178090726Y-93975904D01*
X174450819Y-107661065D02*
X174450819Y-106161065D01*
X175165105Y-107661065D02*
X175165105Y-106161065D01*
X175165105Y-106161065D02*
X176022248Y-107661065D01*
X176022248Y-107661065D02*
X176022248Y-106161065D01*
D11*
X171323095Y-90677619D02*
X171323095Y-91487142D01*
X171323095Y-91487142D02*
X171370714Y-91582380D01*
X171370714Y-91582380D02*
X171418333Y-91630000D01*
X171418333Y-91630000D02*
X171513571Y-91677619D01*
X171513571Y-91677619D02*
X171704047Y-91677619D01*
X171704047Y-91677619D02*
X171799285Y-91630000D01*
X171799285Y-91630000D02*
X171846904Y-91582380D01*
X171846904Y-91582380D02*
X171894523Y-91487142D01*
X171894523Y-91487142D02*
X171894523Y-90677619D01*
X172894523Y-91677619D02*
X172323095Y-91677619D01*
X172608809Y-91677619D02*
X172608809Y-90677619D01*
X172608809Y-90677619D02*
X172513571Y-90820476D01*
X172513571Y-90820476D02*
X172418333Y-90915714D01*
X172418333Y-90915714D02*
X172323095Y-90963333D01*
X176798706Y-111168520D02*
X176798706Y-111882805D01*
X176798706Y-111882805D02*
X176751087Y-112025662D01*
X176751087Y-112025662D02*
X176655849Y-112120901D01*
X176655849Y-112120901D02*
X176512992Y-112168520D01*
X176512992Y-112168520D02*
X176417754Y-112168520D01*
X177798706Y-112168520D02*
X177227278Y-112168520D01*
X177512992Y-112168520D02*
X177512992Y-111168520D01*
X177512992Y-111168520D02*
X177417754Y-111311377D01*
X177417754Y-111311377D02*
X177322516Y-111406615D01*
X177322516Y-111406615D02*
X177227278Y-111454234D01*
X170071515Y-106859122D02*
X170023896Y-106906742D01*
X170023896Y-106906742D02*
X169881039Y-106954361D01*
X169881039Y-106954361D02*
X169785801Y-106954361D01*
X169785801Y-106954361D02*
X169642944Y-106906742D01*
X169642944Y-106906742D02*
X169547706Y-106811503D01*
X169547706Y-106811503D02*
X169500087Y-106716265D01*
X169500087Y-106716265D02*
X169452468Y-106525789D01*
X169452468Y-106525789D02*
X169452468Y-106382932D01*
X169452468Y-106382932D02*
X169500087Y-106192456D01*
X169500087Y-106192456D02*
X169547706Y-106097218D01*
X169547706Y-106097218D02*
X169642944Y-106001980D01*
X169642944Y-106001980D02*
X169785801Y-105954361D01*
X169785801Y-105954361D02*
X169881039Y-105954361D01*
X169881039Y-105954361D02*
X170023896Y-106001980D01*
X170023896Y-106001980D02*
X170071515Y-106049599D01*
X171023896Y-106954361D02*
X170452468Y-106954361D01*
X170738182Y-106954361D02*
X170738182Y-105954361D01*
X170738182Y-105954361D02*
X170642944Y-106097218D01*
X170642944Y-106097218D02*
X170547706Y-106192456D01*
X170547706Y-106192456D02*
X170452468Y-106240075D01*
X165192639Y-96554650D02*
X164925972Y-96173697D01*
X164735496Y-96554650D02*
X164735496Y-95754650D01*
X164735496Y-95754650D02*
X165040258Y-95754650D01*
X165040258Y-95754650D02*
X165116448Y-95792745D01*
X165116448Y-95792745D02*
X165154543Y-95830840D01*
X165154543Y-95830840D02*
X165192639Y-95907031D01*
X165192639Y-95907031D02*
X165192639Y-96021316D01*
X165192639Y-96021316D02*
X165154543Y-96097507D01*
X165154543Y-96097507D02*
X165116448Y-96135602D01*
X165116448Y-96135602D02*
X165040258Y-96173697D01*
X165040258Y-96173697D02*
X164735496Y-96173697D01*
X165954543Y-96554650D02*
X165497400Y-96554650D01*
X165725972Y-96554650D02*
X165725972Y-95754650D01*
X165725972Y-95754650D02*
X165649781Y-95868935D01*
X165649781Y-95868935D02*
X165573591Y-95945126D01*
X165573591Y-95945126D02*
X165497400Y-95983221D01*
X166716448Y-96554650D02*
X166259305Y-96554650D01*
X166487877Y-96554650D02*
X166487877Y-95754650D01*
X166487877Y-95754650D02*
X166411686Y-95868935D01*
X166411686Y-95868935D02*
X166335496Y-95945126D01*
X166335496Y-95945126D02*
X166259305Y-95983221D01*
X172246962Y-90985972D02*
X171980295Y-90605019D01*
X171789819Y-90985972D02*
X171789819Y-90185972D01*
X171789819Y-90185972D02*
X172094581Y-90185972D01*
X172094581Y-90185972D02*
X172170771Y-90224067D01*
X172170771Y-90224067D02*
X172208866Y-90262162D01*
X172208866Y-90262162D02*
X172246962Y-90338353D01*
X172246962Y-90338353D02*
X172246962Y-90452638D01*
X172246962Y-90452638D02*
X172208866Y-90528829D01*
X172208866Y-90528829D02*
X172170771Y-90566924D01*
X172170771Y-90566924D02*
X172094581Y-90605019D01*
X172094581Y-90605019D02*
X171789819Y-90605019D01*
X172513628Y-90185972D02*
X173008866Y-90185972D01*
X173008866Y-90185972D02*
X172742200Y-90490734D01*
X172742200Y-90490734D02*
X172856485Y-90490734D01*
X172856485Y-90490734D02*
X172932676Y-90528829D01*
X172932676Y-90528829D02*
X172970771Y-90566924D01*
X172970771Y-90566924D02*
X173008866Y-90643115D01*
X173008866Y-90643115D02*
X173008866Y-90833591D01*
X173008866Y-90833591D02*
X172970771Y-90909781D01*
X172970771Y-90909781D02*
X172932676Y-90947877D01*
X172932676Y-90947877D02*
X172856485Y-90985972D01*
X172856485Y-90985972D02*
X172627914Y-90985972D01*
X172627914Y-90985972D02*
X172551723Y-90947877D01*
X172551723Y-90947877D02*
X172513628Y-90909781D01*
X142442074Y-84276591D02*
X142442074Y-84990876D01*
X142442074Y-84990876D02*
X142394455Y-85133733D01*
X142394455Y-85133733D02*
X142299217Y-85228972D01*
X142299217Y-85228972D02*
X142156360Y-85276591D01*
X142156360Y-85276591D02*
X142061122Y-85276591D01*
X143394455Y-84276591D02*
X142918265Y-84276591D01*
X142918265Y-84276591D02*
X142870646Y-84752781D01*
X142870646Y-84752781D02*
X142918265Y-84705162D01*
X142918265Y-84705162D02*
X143013503Y-84657543D01*
X143013503Y-84657543D02*
X143251598Y-84657543D01*
X143251598Y-84657543D02*
X143346836Y-84705162D01*
X143346836Y-84705162D02*
X143394455Y-84752781D01*
X143394455Y-84752781D02*
X143442074Y-84848019D01*
X143442074Y-84848019D02*
X143442074Y-85086114D01*
X143442074Y-85086114D02*
X143394455Y-85181352D01*
X143394455Y-85181352D02*
X143346836Y-85228972D01*
X143346836Y-85228972D02*
X143251598Y-85276591D01*
X143251598Y-85276591D02*
X143013503Y-85276591D01*
X143013503Y-85276591D02*
X142918265Y-85228972D01*
X142918265Y-85228972D02*
X142870646Y-85181352D01*
X163823714Y-92064095D02*
X163557047Y-91683142D01*
X163366571Y-92064095D02*
X163366571Y-91264095D01*
X163366571Y-91264095D02*
X163671333Y-91264095D01*
X163671333Y-91264095D02*
X163747523Y-91302190D01*
X163747523Y-91302190D02*
X163785618Y-91340285D01*
X163785618Y-91340285D02*
X163823714Y-91416476D01*
X163823714Y-91416476D02*
X163823714Y-91530761D01*
X163823714Y-91530761D02*
X163785618Y-91606952D01*
X163785618Y-91606952D02*
X163747523Y-91645047D01*
X163747523Y-91645047D02*
X163671333Y-91683142D01*
X163671333Y-91683142D02*
X163366571Y-91683142D01*
X164585618Y-92064095D02*
X164128475Y-92064095D01*
X164357047Y-92064095D02*
X164357047Y-91264095D01*
X164357047Y-91264095D02*
X164280856Y-91378380D01*
X164280856Y-91378380D02*
X164204666Y-91454571D01*
X164204666Y-91454571D02*
X164128475Y-91492666D01*
X165271333Y-91264095D02*
X165118952Y-91264095D01*
X165118952Y-91264095D02*
X165042761Y-91302190D01*
X165042761Y-91302190D02*
X165004666Y-91340285D01*
X165004666Y-91340285D02*
X164928476Y-91454571D01*
X164928476Y-91454571D02*
X164890380Y-91606952D01*
X164890380Y-91606952D02*
X164890380Y-91911714D01*
X164890380Y-91911714D02*
X164928476Y-91987904D01*
X164928476Y-91987904D02*
X164966571Y-92026000D01*
X164966571Y-92026000D02*
X165042761Y-92064095D01*
X165042761Y-92064095D02*
X165195142Y-92064095D01*
X165195142Y-92064095D02*
X165271333Y-92026000D01*
X165271333Y-92026000D02*
X165309428Y-91987904D01*
X165309428Y-91987904D02*
X165347523Y-91911714D01*
X165347523Y-91911714D02*
X165347523Y-91721238D01*
X165347523Y-91721238D02*
X165309428Y-91645047D01*
X165309428Y-91645047D02*
X165271333Y-91606952D01*
X165271333Y-91606952D02*
X165195142Y-91568857D01*
X165195142Y-91568857D02*
X165042761Y-91568857D01*
X165042761Y-91568857D02*
X164966571Y-91606952D01*
X164966571Y-91606952D02*
X164928476Y-91645047D01*
X164928476Y-91645047D02*
X164890380Y-91721238D01*
X160267714Y-104002095D02*
X160001047Y-103621142D01*
X159810571Y-104002095D02*
X159810571Y-103202095D01*
X159810571Y-103202095D02*
X160115333Y-103202095D01*
X160115333Y-103202095D02*
X160191523Y-103240190D01*
X160191523Y-103240190D02*
X160229618Y-103278285D01*
X160229618Y-103278285D02*
X160267714Y-103354476D01*
X160267714Y-103354476D02*
X160267714Y-103468761D01*
X160267714Y-103468761D02*
X160229618Y-103544952D01*
X160229618Y-103544952D02*
X160191523Y-103583047D01*
X160191523Y-103583047D02*
X160115333Y-103621142D01*
X160115333Y-103621142D02*
X159810571Y-103621142D01*
X161029618Y-104002095D02*
X160572475Y-104002095D01*
X160801047Y-104002095D02*
X160801047Y-103202095D01*
X160801047Y-103202095D02*
X160724856Y-103316380D01*
X160724856Y-103316380D02*
X160648666Y-103392571D01*
X160648666Y-103392571D02*
X160572475Y-103430666D01*
X161334380Y-103278285D02*
X161372476Y-103240190D01*
X161372476Y-103240190D02*
X161448666Y-103202095D01*
X161448666Y-103202095D02*
X161639142Y-103202095D01*
X161639142Y-103202095D02*
X161715333Y-103240190D01*
X161715333Y-103240190D02*
X161753428Y-103278285D01*
X161753428Y-103278285D02*
X161791523Y-103354476D01*
X161791523Y-103354476D02*
X161791523Y-103430666D01*
X161791523Y-103430666D02*
X161753428Y-103544952D01*
X161753428Y-103544952D02*
X161296285Y-104002095D01*
X161296285Y-104002095D02*
X161791523Y-104002095D01*
X155600476Y-96725095D02*
X155600476Y-97372714D01*
X155600476Y-97372714D02*
X155638571Y-97448904D01*
X155638571Y-97448904D02*
X155676666Y-97487000D01*
X155676666Y-97487000D02*
X155752857Y-97525095D01*
X155752857Y-97525095D02*
X155905238Y-97525095D01*
X155905238Y-97525095D02*
X155981428Y-97487000D01*
X155981428Y-97487000D02*
X156019523Y-97448904D01*
X156019523Y-97448904D02*
X156057619Y-97372714D01*
X156057619Y-97372714D02*
X156057619Y-96725095D01*
X156400475Y-96801285D02*
X156438571Y-96763190D01*
X156438571Y-96763190D02*
X156514761Y-96725095D01*
X156514761Y-96725095D02*
X156705237Y-96725095D01*
X156705237Y-96725095D02*
X156781428Y-96763190D01*
X156781428Y-96763190D02*
X156819523Y-96801285D01*
X156819523Y-96801285D02*
X156857618Y-96877476D01*
X156857618Y-96877476D02*
X156857618Y-96953666D01*
X156857618Y-96953666D02*
X156819523Y-97067952D01*
X156819523Y-97067952D02*
X156362380Y-97525095D01*
X156362380Y-97525095D02*
X156857618Y-97525095D01*
X150039011Y-111429782D02*
X150039011Y-112001210D01*
X150039011Y-112001210D02*
X150000916Y-112115496D01*
X150000916Y-112115496D02*
X149924725Y-112191687D01*
X149924725Y-112191687D02*
X149810440Y-112229782D01*
X149810440Y-112229782D02*
X149734249Y-112229782D01*
X150419964Y-112229782D02*
X150419964Y-111429782D01*
X150419964Y-111429782D02*
X150724726Y-111429782D01*
X150724726Y-111429782D02*
X150800916Y-111467877D01*
X150800916Y-111467877D02*
X150839011Y-111505972D01*
X150839011Y-111505972D02*
X150877107Y-111582163D01*
X150877107Y-111582163D02*
X150877107Y-111696448D01*
X150877107Y-111696448D02*
X150839011Y-111772639D01*
X150839011Y-111772639D02*
X150800916Y-111810734D01*
X150800916Y-111810734D02*
X150724726Y-111848829D01*
X150724726Y-111848829D02*
X150419964Y-111848829D01*
X151639011Y-112229782D02*
X151181868Y-112229782D01*
X151410440Y-112229782D02*
X151410440Y-111429782D01*
X151410440Y-111429782D02*
X151334249Y-111544067D01*
X151334249Y-111544067D02*
X151258059Y-111620258D01*
X151258059Y-111620258D02*
X151181868Y-111658353D01*
X168214857Y-99559208D02*
X168176761Y-99597304D01*
X168176761Y-99597304D02*
X168062476Y-99635399D01*
X168062476Y-99635399D02*
X167986285Y-99635399D01*
X167986285Y-99635399D02*
X167871999Y-99597304D01*
X167871999Y-99597304D02*
X167795809Y-99521113D01*
X167795809Y-99521113D02*
X167757714Y-99444923D01*
X167757714Y-99444923D02*
X167719618Y-99292542D01*
X167719618Y-99292542D02*
X167719618Y-99178256D01*
X167719618Y-99178256D02*
X167757714Y-99025875D01*
X167757714Y-99025875D02*
X167795809Y-98949684D01*
X167795809Y-98949684D02*
X167871999Y-98873494D01*
X167871999Y-98873494D02*
X167986285Y-98835399D01*
X167986285Y-98835399D02*
X168062476Y-98835399D01*
X168062476Y-98835399D02*
X168176761Y-98873494D01*
X168176761Y-98873494D02*
X168214857Y-98911589D01*
X168519618Y-98911589D02*
X168557714Y-98873494D01*
X168557714Y-98873494D02*
X168633904Y-98835399D01*
X168633904Y-98835399D02*
X168824380Y-98835399D01*
X168824380Y-98835399D02*
X168900571Y-98873494D01*
X168900571Y-98873494D02*
X168938666Y-98911589D01*
X168938666Y-98911589D02*
X168976761Y-98987780D01*
X168976761Y-98987780D02*
X168976761Y-99063970D01*
X168976761Y-99063970D02*
X168938666Y-99178256D01*
X168938666Y-99178256D02*
X168481523Y-99635399D01*
X168481523Y-99635399D02*
X168976761Y-99635399D01*
X166364726Y-97699106D02*
X166098059Y-97318153D01*
X165907583Y-97699106D02*
X165907583Y-96899106D01*
X165907583Y-96899106D02*
X166212345Y-96899106D01*
X166212345Y-96899106D02*
X166288535Y-96937201D01*
X166288535Y-96937201D02*
X166326630Y-96975296D01*
X166326630Y-96975296D02*
X166364726Y-97051487D01*
X166364726Y-97051487D02*
X166364726Y-97165772D01*
X166364726Y-97165772D02*
X166326630Y-97241963D01*
X166326630Y-97241963D02*
X166288535Y-97280058D01*
X166288535Y-97280058D02*
X166212345Y-97318153D01*
X166212345Y-97318153D02*
X165907583Y-97318153D01*
X167088535Y-96899106D02*
X166707583Y-96899106D01*
X166707583Y-96899106D02*
X166669487Y-97280058D01*
X166669487Y-97280058D02*
X166707583Y-97241963D01*
X166707583Y-97241963D02*
X166783773Y-97203868D01*
X166783773Y-97203868D02*
X166974249Y-97203868D01*
X166974249Y-97203868D02*
X167050440Y-97241963D01*
X167050440Y-97241963D02*
X167088535Y-97280058D01*
X167088535Y-97280058D02*
X167126630Y-97356249D01*
X167126630Y-97356249D02*
X167126630Y-97546725D01*
X167126630Y-97546725D02*
X167088535Y-97622915D01*
X167088535Y-97622915D02*
X167050440Y-97661011D01*
X167050440Y-97661011D02*
X166974249Y-97699106D01*
X166974249Y-97699106D02*
X166783773Y-97699106D01*
X166783773Y-97699106D02*
X166707583Y-97661011D01*
X166707583Y-97661011D02*
X166669487Y-97622915D01*
X156478783Y-112116273D02*
X156402593Y-112078178D01*
X156402593Y-112078178D02*
X156326402Y-112001988D01*
X156326402Y-112001988D02*
X156212116Y-111887702D01*
X156212116Y-111887702D02*
X156135926Y-111849607D01*
X156135926Y-111849607D02*
X156059735Y-111849607D01*
X156097831Y-112040083D02*
X156021640Y-112001988D01*
X156021640Y-112001988D02*
X155945450Y-111925797D01*
X155945450Y-111925797D02*
X155907354Y-111773416D01*
X155907354Y-111773416D02*
X155907354Y-111506749D01*
X155907354Y-111506749D02*
X155945450Y-111354368D01*
X155945450Y-111354368D02*
X156021640Y-111278178D01*
X156021640Y-111278178D02*
X156097831Y-111240083D01*
X156097831Y-111240083D02*
X156250212Y-111240083D01*
X156250212Y-111240083D02*
X156326402Y-111278178D01*
X156326402Y-111278178D02*
X156402593Y-111354368D01*
X156402593Y-111354368D02*
X156440688Y-111506749D01*
X156440688Y-111506749D02*
X156440688Y-111773416D01*
X156440688Y-111773416D02*
X156402593Y-111925797D01*
X156402593Y-111925797D02*
X156326402Y-112001988D01*
X156326402Y-112001988D02*
X156250212Y-112040083D01*
X156250212Y-112040083D02*
X156097831Y-112040083D01*
X157202592Y-112040083D02*
X156745449Y-112040083D01*
X156974021Y-112040083D02*
X156974021Y-111240083D01*
X156974021Y-111240083D02*
X156897830Y-111354368D01*
X156897830Y-111354368D02*
X156821640Y-111430559D01*
X156821640Y-111430559D02*
X156745449Y-111468654D01*
X162426667Y-99705001D02*
X162160000Y-99324048D01*
X161969524Y-99705001D02*
X161969524Y-98905001D01*
X161969524Y-98905001D02*
X162274286Y-98905001D01*
X162274286Y-98905001D02*
X162350476Y-98943096D01*
X162350476Y-98943096D02*
X162388571Y-98981191D01*
X162388571Y-98981191D02*
X162426667Y-99057382D01*
X162426667Y-99057382D02*
X162426667Y-99171667D01*
X162426667Y-99171667D02*
X162388571Y-99247858D01*
X162388571Y-99247858D02*
X162350476Y-99285953D01*
X162350476Y-99285953D02*
X162274286Y-99324048D01*
X162274286Y-99324048D02*
X161969524Y-99324048D01*
X162883809Y-99247858D02*
X162807619Y-99209763D01*
X162807619Y-99209763D02*
X162769524Y-99171667D01*
X162769524Y-99171667D02*
X162731428Y-99095477D01*
X162731428Y-99095477D02*
X162731428Y-99057382D01*
X162731428Y-99057382D02*
X162769524Y-98981191D01*
X162769524Y-98981191D02*
X162807619Y-98943096D01*
X162807619Y-98943096D02*
X162883809Y-98905001D01*
X162883809Y-98905001D02*
X163036190Y-98905001D01*
X163036190Y-98905001D02*
X163112381Y-98943096D01*
X163112381Y-98943096D02*
X163150476Y-98981191D01*
X163150476Y-98981191D02*
X163188571Y-99057382D01*
X163188571Y-99057382D02*
X163188571Y-99095477D01*
X163188571Y-99095477D02*
X163150476Y-99171667D01*
X163150476Y-99171667D02*
X163112381Y-99209763D01*
X163112381Y-99209763D02*
X163036190Y-99247858D01*
X163036190Y-99247858D02*
X162883809Y-99247858D01*
X162883809Y-99247858D02*
X162807619Y-99285953D01*
X162807619Y-99285953D02*
X162769524Y-99324048D01*
X162769524Y-99324048D02*
X162731428Y-99400239D01*
X162731428Y-99400239D02*
X162731428Y-99552620D01*
X162731428Y-99552620D02*
X162769524Y-99628810D01*
X162769524Y-99628810D02*
X162807619Y-99666906D01*
X162807619Y-99666906D02*
X162883809Y-99705001D01*
X162883809Y-99705001D02*
X163036190Y-99705001D01*
X163036190Y-99705001D02*
X163112381Y-99666906D01*
X163112381Y-99666906D02*
X163150476Y-99628810D01*
X163150476Y-99628810D02*
X163188571Y-99552620D01*
X163188571Y-99552620D02*
X163188571Y-99400239D01*
X163188571Y-99400239D02*
X163150476Y-99324048D01*
X163150476Y-99324048D02*
X163112381Y-99285953D01*
X163112381Y-99285953D02*
X163036190Y-99247858D01*
X150281825Y-98525987D02*
X149900873Y-98525987D01*
X149900873Y-98525987D02*
X149900873Y-97725987D01*
X150548492Y-98106939D02*
X150815158Y-98106939D01*
X150929444Y-98525987D02*
X150548492Y-98525987D01*
X150548492Y-98525987D02*
X150548492Y-97725987D01*
X150548492Y-97725987D02*
X150929444Y-97725987D01*
X151272302Y-98525987D02*
X151272302Y-97725987D01*
X151272302Y-97725987D02*
X151462778Y-97725987D01*
X151462778Y-97725987D02*
X151577064Y-97764082D01*
X151577064Y-97764082D02*
X151653254Y-97840272D01*
X151653254Y-97840272D02*
X151691349Y-97916463D01*
X151691349Y-97916463D02*
X151729445Y-98068844D01*
X151729445Y-98068844D02*
X151729445Y-98183130D01*
X151729445Y-98183130D02*
X151691349Y-98335511D01*
X151691349Y-98335511D02*
X151653254Y-98411701D01*
X151653254Y-98411701D02*
X151577064Y-98487892D01*
X151577064Y-98487892D02*
X151462778Y-98525987D01*
X151462778Y-98525987D02*
X151272302Y-98525987D01*
X151996111Y-97725987D02*
X152491349Y-97725987D01*
X152491349Y-97725987D02*
X152224683Y-98030749D01*
X152224683Y-98030749D02*
X152338968Y-98030749D01*
X152338968Y-98030749D02*
X152415159Y-98068844D01*
X152415159Y-98068844D02*
X152453254Y-98106939D01*
X152453254Y-98106939D02*
X152491349Y-98183130D01*
X152491349Y-98183130D02*
X152491349Y-98373606D01*
X152491349Y-98373606D02*
X152453254Y-98449796D01*
X152453254Y-98449796D02*
X152415159Y-98487892D01*
X152415159Y-98487892D02*
X152338968Y-98525987D01*
X152338968Y-98525987D02*
X152110397Y-98525987D01*
X152110397Y-98525987D02*
X152034206Y-98487892D01*
X152034206Y-98487892D02*
X151996111Y-98449796D01*
X166236667Y-99625394D02*
X165970000Y-99244441D01*
X165779524Y-99625394D02*
X165779524Y-98825394D01*
X165779524Y-98825394D02*
X166084286Y-98825394D01*
X166084286Y-98825394D02*
X166160476Y-98863489D01*
X166160476Y-98863489D02*
X166198571Y-98901584D01*
X166198571Y-98901584D02*
X166236667Y-98977775D01*
X166236667Y-98977775D02*
X166236667Y-99092060D01*
X166236667Y-99092060D02*
X166198571Y-99168251D01*
X166198571Y-99168251D02*
X166160476Y-99206346D01*
X166160476Y-99206346D02*
X166084286Y-99244441D01*
X166084286Y-99244441D02*
X165779524Y-99244441D01*
X166922381Y-98825394D02*
X166770000Y-98825394D01*
X166770000Y-98825394D02*
X166693809Y-98863489D01*
X166693809Y-98863489D02*
X166655714Y-98901584D01*
X166655714Y-98901584D02*
X166579524Y-99015870D01*
X166579524Y-99015870D02*
X166541428Y-99168251D01*
X166541428Y-99168251D02*
X166541428Y-99473013D01*
X166541428Y-99473013D02*
X166579524Y-99549203D01*
X166579524Y-99549203D02*
X166617619Y-99587299D01*
X166617619Y-99587299D02*
X166693809Y-99625394D01*
X166693809Y-99625394D02*
X166846190Y-99625394D01*
X166846190Y-99625394D02*
X166922381Y-99587299D01*
X166922381Y-99587299D02*
X166960476Y-99549203D01*
X166960476Y-99549203D02*
X166998571Y-99473013D01*
X166998571Y-99473013D02*
X166998571Y-99282537D01*
X166998571Y-99282537D02*
X166960476Y-99206346D01*
X166960476Y-99206346D02*
X166922381Y-99168251D01*
X166922381Y-99168251D02*
X166846190Y-99130156D01*
X166846190Y-99130156D02*
X166693809Y-99130156D01*
X166693809Y-99130156D02*
X166617619Y-99168251D01*
X166617619Y-99168251D02*
X166579524Y-99206346D01*
X166579524Y-99206346D02*
X166541428Y-99282537D01*
X148114327Y-112215082D02*
X147847660Y-111834129D01*
X147657184Y-112215082D02*
X147657184Y-111415082D01*
X147657184Y-111415082D02*
X147961946Y-111415082D01*
X147961946Y-111415082D02*
X148038136Y-111453177D01*
X148038136Y-111453177D02*
X148076231Y-111491272D01*
X148076231Y-111491272D02*
X148114327Y-111567463D01*
X148114327Y-111567463D02*
X148114327Y-111681748D01*
X148114327Y-111681748D02*
X148076231Y-111757939D01*
X148076231Y-111757939D02*
X148038136Y-111796034D01*
X148038136Y-111796034D02*
X147961946Y-111834129D01*
X147961946Y-111834129D02*
X147657184Y-111834129D01*
X148419088Y-111491272D02*
X148457184Y-111453177D01*
X148457184Y-111453177D02*
X148533374Y-111415082D01*
X148533374Y-111415082D02*
X148723850Y-111415082D01*
X148723850Y-111415082D02*
X148800041Y-111453177D01*
X148800041Y-111453177D02*
X148838136Y-111491272D01*
X148838136Y-111491272D02*
X148876231Y-111567463D01*
X148876231Y-111567463D02*
X148876231Y-111643653D01*
X148876231Y-111643653D02*
X148838136Y-111757939D01*
X148838136Y-111757939D02*
X148380993Y-112215082D01*
X148380993Y-112215082D02*
X148876231Y-112215082D01*
X155093387Y-100011586D02*
X154826720Y-99630633D01*
X154636244Y-100011586D02*
X154636244Y-99211586D01*
X154636244Y-99211586D02*
X154941006Y-99211586D01*
X154941006Y-99211586D02*
X155017196Y-99249681D01*
X155017196Y-99249681D02*
X155055291Y-99287776D01*
X155055291Y-99287776D02*
X155093387Y-99363967D01*
X155093387Y-99363967D02*
X155093387Y-99478252D01*
X155093387Y-99478252D02*
X155055291Y-99554443D01*
X155055291Y-99554443D02*
X155017196Y-99592538D01*
X155017196Y-99592538D02*
X154941006Y-99630633D01*
X154941006Y-99630633D02*
X154636244Y-99630633D01*
X155855291Y-100011586D02*
X155398148Y-100011586D01*
X155626720Y-100011586D02*
X155626720Y-99211586D01*
X155626720Y-99211586D02*
X155550529Y-99325871D01*
X155550529Y-99325871D02*
X155474339Y-99402062D01*
X155474339Y-99402062D02*
X155398148Y-99440157D01*
X156121958Y-99211586D02*
X156617196Y-99211586D01*
X156617196Y-99211586D02*
X156350530Y-99516348D01*
X156350530Y-99516348D02*
X156464815Y-99516348D01*
X156464815Y-99516348D02*
X156541006Y-99554443D01*
X156541006Y-99554443D02*
X156579101Y-99592538D01*
X156579101Y-99592538D02*
X156617196Y-99668729D01*
X156617196Y-99668729D02*
X156617196Y-99859205D01*
X156617196Y-99859205D02*
X156579101Y-99935395D01*
X156579101Y-99935395D02*
X156541006Y-99973491D01*
X156541006Y-99973491D02*
X156464815Y-100011586D01*
X156464815Y-100011586D02*
X156236244Y-100011586D01*
X156236244Y-100011586D02*
X156160053Y-99973491D01*
X156160053Y-99973491D02*
X156121958Y-99935395D01*
X165925556Y-86428797D02*
X166458890Y-86428797D01*
X166458890Y-86428797D02*
X165925556Y-87228797D01*
X165925556Y-87228797D02*
X166458890Y-87228797D01*
X167182699Y-87228797D02*
X166725556Y-87228797D01*
X166954128Y-87228797D02*
X166954128Y-86428797D01*
X166954128Y-86428797D02*
X166877937Y-86543082D01*
X166877937Y-86543082D02*
X166801747Y-86619273D01*
X166801747Y-86619273D02*
X166725556Y-86657368D01*
X164422522Y-99583914D02*
X164384426Y-99622010D01*
X164384426Y-99622010D02*
X164270141Y-99660105D01*
X164270141Y-99660105D02*
X164193950Y-99660105D01*
X164193950Y-99660105D02*
X164079664Y-99622010D01*
X164079664Y-99622010D02*
X164003474Y-99545819D01*
X164003474Y-99545819D02*
X163965379Y-99469629D01*
X163965379Y-99469629D02*
X163927283Y-99317248D01*
X163927283Y-99317248D02*
X163927283Y-99202962D01*
X163927283Y-99202962D02*
X163965379Y-99050581D01*
X163965379Y-99050581D02*
X164003474Y-98974390D01*
X164003474Y-98974390D02*
X164079664Y-98898200D01*
X164079664Y-98898200D02*
X164193950Y-98860105D01*
X164193950Y-98860105D02*
X164270141Y-98860105D01*
X164270141Y-98860105D02*
X164384426Y-98898200D01*
X164384426Y-98898200D02*
X164422522Y-98936295D01*
X164689188Y-98860105D02*
X165184426Y-98860105D01*
X165184426Y-98860105D02*
X164917760Y-99164867D01*
X164917760Y-99164867D02*
X165032045Y-99164867D01*
X165032045Y-99164867D02*
X165108236Y-99202962D01*
X165108236Y-99202962D02*
X165146331Y-99241057D01*
X165146331Y-99241057D02*
X165184426Y-99317248D01*
X165184426Y-99317248D02*
X165184426Y-99507724D01*
X165184426Y-99507724D02*
X165146331Y-99583914D01*
X165146331Y-99583914D02*
X165108236Y-99622010D01*
X165108236Y-99622010D02*
X165032045Y-99660105D01*
X165032045Y-99660105D02*
X164803474Y-99660105D01*
X164803474Y-99660105D02*
X164727283Y-99622010D01*
X164727283Y-99622010D02*
X164689188Y-99583914D01*
X157964665Y-104274833D02*
X157888475Y-104236738D01*
X157888475Y-104236738D02*
X157812284Y-104160548D01*
X157812284Y-104160548D02*
X157697998Y-104046262D01*
X157697998Y-104046262D02*
X157621808Y-104008167D01*
X157621808Y-104008167D02*
X157545617Y-104008167D01*
X157583713Y-104198643D02*
X157507522Y-104160548D01*
X157507522Y-104160548D02*
X157431332Y-104084357D01*
X157431332Y-104084357D02*
X157393236Y-103931976D01*
X157393236Y-103931976D02*
X157393236Y-103665309D01*
X157393236Y-103665309D02*
X157431332Y-103512928D01*
X157431332Y-103512928D02*
X157507522Y-103436738D01*
X157507522Y-103436738D02*
X157583713Y-103398643D01*
X157583713Y-103398643D02*
X157736094Y-103398643D01*
X157736094Y-103398643D02*
X157812284Y-103436738D01*
X157812284Y-103436738D02*
X157888475Y-103512928D01*
X157888475Y-103512928D02*
X157926570Y-103665309D01*
X157926570Y-103665309D02*
X157926570Y-103931976D01*
X157926570Y-103931976D02*
X157888475Y-104084357D01*
X157888475Y-104084357D02*
X157812284Y-104160548D01*
X157812284Y-104160548D02*
X157736094Y-104198643D01*
X157736094Y-104198643D02*
X157583713Y-104198643D01*
X158231331Y-103474833D02*
X158269427Y-103436738D01*
X158269427Y-103436738D02*
X158345617Y-103398643D01*
X158345617Y-103398643D02*
X158536093Y-103398643D01*
X158536093Y-103398643D02*
X158612284Y-103436738D01*
X158612284Y-103436738D02*
X158650379Y-103474833D01*
X158650379Y-103474833D02*
X158688474Y-103551024D01*
X158688474Y-103551024D02*
X158688474Y-103627214D01*
X158688474Y-103627214D02*
X158650379Y-103741500D01*
X158650379Y-103741500D02*
X158193236Y-104198643D01*
X158193236Y-104198643D02*
X158688474Y-104198643D01*
X154806714Y-94190095D02*
X154540047Y-93809142D01*
X154349571Y-94190095D02*
X154349571Y-93390095D01*
X154349571Y-93390095D02*
X154654333Y-93390095D01*
X154654333Y-93390095D02*
X154730523Y-93428190D01*
X154730523Y-93428190D02*
X154768618Y-93466285D01*
X154768618Y-93466285D02*
X154806714Y-93542476D01*
X154806714Y-93542476D02*
X154806714Y-93656761D01*
X154806714Y-93656761D02*
X154768618Y-93732952D01*
X154768618Y-93732952D02*
X154730523Y-93771047D01*
X154730523Y-93771047D02*
X154654333Y-93809142D01*
X154654333Y-93809142D02*
X154349571Y-93809142D01*
X155568618Y-94190095D02*
X155111475Y-94190095D01*
X155340047Y-94190095D02*
X155340047Y-93390095D01*
X155340047Y-93390095D02*
X155263856Y-93504380D01*
X155263856Y-93504380D02*
X155187666Y-93580571D01*
X155187666Y-93580571D02*
X155111475Y-93618666D01*
X156063857Y-93390095D02*
X156140047Y-93390095D01*
X156140047Y-93390095D02*
X156216238Y-93428190D01*
X156216238Y-93428190D02*
X156254333Y-93466285D01*
X156254333Y-93466285D02*
X156292428Y-93542476D01*
X156292428Y-93542476D02*
X156330523Y-93694857D01*
X156330523Y-93694857D02*
X156330523Y-93885333D01*
X156330523Y-93885333D02*
X156292428Y-94037714D01*
X156292428Y-94037714D02*
X156254333Y-94113904D01*
X156254333Y-94113904D02*
X156216238Y-94152000D01*
X156216238Y-94152000D02*
X156140047Y-94190095D01*
X156140047Y-94190095D02*
X156063857Y-94190095D01*
X156063857Y-94190095D02*
X155987666Y-94152000D01*
X155987666Y-94152000D02*
X155949571Y-94113904D01*
X155949571Y-94113904D02*
X155911476Y-94037714D01*
X155911476Y-94037714D02*
X155873380Y-93885333D01*
X155873380Y-93885333D02*
X155873380Y-93694857D01*
X155873380Y-93694857D02*
X155911476Y-93542476D01*
X155911476Y-93542476D02*
X155949571Y-93466285D01*
X155949571Y-93466285D02*
X155987666Y-93428190D01*
X155987666Y-93428190D02*
X156063857Y-93390095D01*
X166775139Y-91668491D02*
X166737043Y-91706587D01*
X166737043Y-91706587D02*
X166622758Y-91744682D01*
X166622758Y-91744682D02*
X166546567Y-91744682D01*
X166546567Y-91744682D02*
X166432281Y-91706587D01*
X166432281Y-91706587D02*
X166356091Y-91630396D01*
X166356091Y-91630396D02*
X166317996Y-91554206D01*
X166317996Y-91554206D02*
X166279900Y-91401825D01*
X166279900Y-91401825D02*
X166279900Y-91287539D01*
X166279900Y-91287539D02*
X166317996Y-91135158D01*
X166317996Y-91135158D02*
X166356091Y-91058967D01*
X166356091Y-91058967D02*
X166432281Y-90982777D01*
X166432281Y-90982777D02*
X166546567Y-90944682D01*
X166546567Y-90944682D02*
X166622758Y-90944682D01*
X166622758Y-90944682D02*
X166737043Y-90982777D01*
X166737043Y-90982777D02*
X166775139Y-91020872D01*
X167460853Y-91211348D02*
X167460853Y-91744682D01*
X167270377Y-90906587D02*
X167079900Y-91478015D01*
X167079900Y-91478015D02*
X167575139Y-91478015D01*
X158235714Y-100010680D02*
X157969047Y-99629727D01*
X157778571Y-100010680D02*
X157778571Y-99210680D01*
X157778571Y-99210680D02*
X158083333Y-99210680D01*
X158083333Y-99210680D02*
X158159523Y-99248775D01*
X158159523Y-99248775D02*
X158197618Y-99286870D01*
X158197618Y-99286870D02*
X158235714Y-99363061D01*
X158235714Y-99363061D02*
X158235714Y-99477346D01*
X158235714Y-99477346D02*
X158197618Y-99553537D01*
X158197618Y-99553537D02*
X158159523Y-99591632D01*
X158159523Y-99591632D02*
X158083333Y-99629727D01*
X158083333Y-99629727D02*
X157778571Y-99629727D01*
X158997618Y-100010680D02*
X158540475Y-100010680D01*
X158769047Y-100010680D02*
X158769047Y-99210680D01*
X158769047Y-99210680D02*
X158692856Y-99324965D01*
X158692856Y-99324965D02*
X158616666Y-99401156D01*
X158616666Y-99401156D02*
X158540475Y-99439251D01*
X159683333Y-99477346D02*
X159683333Y-100010680D01*
X159492857Y-99172585D02*
X159302380Y-99744013D01*
X159302380Y-99744013D02*
X159797619Y-99744013D01*
X164736519Y-88125309D02*
X164660329Y-88087214D01*
X164660329Y-88087214D02*
X164584138Y-88011024D01*
X164584138Y-88011024D02*
X164469852Y-87896738D01*
X164469852Y-87896738D02*
X164393662Y-87858643D01*
X164393662Y-87858643D02*
X164317471Y-87858643D01*
X164355567Y-88049119D02*
X164279376Y-88011024D01*
X164279376Y-88011024D02*
X164203186Y-87934833D01*
X164203186Y-87934833D02*
X164165090Y-87782452D01*
X164165090Y-87782452D02*
X164165090Y-87515785D01*
X164165090Y-87515785D02*
X164203186Y-87363404D01*
X164203186Y-87363404D02*
X164279376Y-87287214D01*
X164279376Y-87287214D02*
X164355567Y-87249119D01*
X164355567Y-87249119D02*
X164507948Y-87249119D01*
X164507948Y-87249119D02*
X164584138Y-87287214D01*
X164584138Y-87287214D02*
X164660329Y-87363404D01*
X164660329Y-87363404D02*
X164698424Y-87515785D01*
X164698424Y-87515785D02*
X164698424Y-87782452D01*
X164698424Y-87782452D02*
X164660329Y-87934833D01*
X164660329Y-87934833D02*
X164584138Y-88011024D01*
X164584138Y-88011024D02*
X164507948Y-88049119D01*
X164507948Y-88049119D02*
X164355567Y-88049119D01*
X164965090Y-87249119D02*
X165460328Y-87249119D01*
X165460328Y-87249119D02*
X165193662Y-87553881D01*
X165193662Y-87553881D02*
X165307947Y-87553881D01*
X165307947Y-87553881D02*
X165384138Y-87591976D01*
X165384138Y-87591976D02*
X165422233Y-87630071D01*
X165422233Y-87630071D02*
X165460328Y-87706262D01*
X165460328Y-87706262D02*
X165460328Y-87896738D01*
X165460328Y-87896738D02*
X165422233Y-87972928D01*
X165422233Y-87972928D02*
X165384138Y-88011024D01*
X165384138Y-88011024D02*
X165307947Y-88049119D01*
X165307947Y-88049119D02*
X165079376Y-88049119D01*
X165079376Y-88049119D02*
X165003185Y-88011024D01*
X165003185Y-88011024D02*
X164965090Y-87972928D01*
X150380648Y-92806602D02*
X149999696Y-92806602D01*
X149999696Y-92806602D02*
X149999696Y-92006602D01*
X150647315Y-92387554D02*
X150913981Y-92387554D01*
X151028267Y-92806602D02*
X150647315Y-92806602D01*
X150647315Y-92806602D02*
X150647315Y-92006602D01*
X150647315Y-92006602D02*
X151028267Y-92006602D01*
X151371125Y-92806602D02*
X151371125Y-92006602D01*
X151371125Y-92006602D02*
X151561601Y-92006602D01*
X151561601Y-92006602D02*
X151675887Y-92044697D01*
X151675887Y-92044697D02*
X151752077Y-92120887D01*
X151752077Y-92120887D02*
X151790172Y-92197078D01*
X151790172Y-92197078D02*
X151828268Y-92349459D01*
X151828268Y-92349459D02*
X151828268Y-92463745D01*
X151828268Y-92463745D02*
X151790172Y-92616126D01*
X151790172Y-92616126D02*
X151752077Y-92692316D01*
X151752077Y-92692316D02*
X151675887Y-92768507D01*
X151675887Y-92768507D02*
X151561601Y-92806602D01*
X151561601Y-92806602D02*
X151371125Y-92806602D01*
X152133029Y-92082792D02*
X152171125Y-92044697D01*
X152171125Y-92044697D02*
X152247315Y-92006602D01*
X152247315Y-92006602D02*
X152437791Y-92006602D01*
X152437791Y-92006602D02*
X152513982Y-92044697D01*
X152513982Y-92044697D02*
X152552077Y-92082792D01*
X152552077Y-92082792D02*
X152590172Y-92158983D01*
X152590172Y-92158983D02*
X152590172Y-92235173D01*
X152590172Y-92235173D02*
X152552077Y-92349459D01*
X152552077Y-92349459D02*
X152094934Y-92806602D01*
X152094934Y-92806602D02*
X152590172Y-92806602D01*
X156389269Y-92448467D02*
X156122602Y-92067514D01*
X155932126Y-92448467D02*
X155932126Y-91648467D01*
X155932126Y-91648467D02*
X156236888Y-91648467D01*
X156236888Y-91648467D02*
X156313078Y-91686562D01*
X156313078Y-91686562D02*
X156351173Y-91724657D01*
X156351173Y-91724657D02*
X156389269Y-91800848D01*
X156389269Y-91800848D02*
X156389269Y-91915133D01*
X156389269Y-91915133D02*
X156351173Y-91991324D01*
X156351173Y-91991324D02*
X156313078Y-92029419D01*
X156313078Y-92029419D02*
X156236888Y-92067514D01*
X156236888Y-92067514D02*
X155932126Y-92067514D01*
X156770221Y-92448467D02*
X156922602Y-92448467D01*
X156922602Y-92448467D02*
X156998792Y-92410372D01*
X156998792Y-92410372D02*
X157036888Y-92372276D01*
X157036888Y-92372276D02*
X157113078Y-92257991D01*
X157113078Y-92257991D02*
X157151173Y-92105610D01*
X157151173Y-92105610D02*
X157151173Y-91800848D01*
X157151173Y-91800848D02*
X157113078Y-91724657D01*
X157113078Y-91724657D02*
X157074983Y-91686562D01*
X157074983Y-91686562D02*
X156998792Y-91648467D01*
X156998792Y-91648467D02*
X156846411Y-91648467D01*
X156846411Y-91648467D02*
X156770221Y-91686562D01*
X156770221Y-91686562D02*
X156732126Y-91724657D01*
X156732126Y-91724657D02*
X156694030Y-91800848D01*
X156694030Y-91800848D02*
X156694030Y-91991324D01*
X156694030Y-91991324D02*
X156732126Y-92067514D01*
X156732126Y-92067514D02*
X156770221Y-92105610D01*
X156770221Y-92105610D02*
X156846411Y-92143705D01*
X156846411Y-92143705D02*
X156998792Y-92143705D01*
X156998792Y-92143705D02*
X157074983Y-92105610D01*
X157074983Y-92105610D02*
X157113078Y-92067514D01*
X157113078Y-92067514D02*
X157151173Y-91991324D01*
X173856667Y-89016095D02*
X173590000Y-88635142D01*
X173399524Y-89016095D02*
X173399524Y-88216095D01*
X173399524Y-88216095D02*
X173704286Y-88216095D01*
X173704286Y-88216095D02*
X173780476Y-88254190D01*
X173780476Y-88254190D02*
X173818571Y-88292285D01*
X173818571Y-88292285D02*
X173856667Y-88368476D01*
X173856667Y-88368476D02*
X173856667Y-88482761D01*
X173856667Y-88482761D02*
X173818571Y-88558952D01*
X173818571Y-88558952D02*
X173780476Y-88597047D01*
X173780476Y-88597047D02*
X173704286Y-88635142D01*
X173704286Y-88635142D02*
X173399524Y-88635142D01*
X174542381Y-88482761D02*
X174542381Y-89016095D01*
X174351905Y-88178000D02*
X174161428Y-88749428D01*
X174161428Y-88749428D02*
X174656667Y-88749428D01*
X150244766Y-104257725D02*
X149863814Y-104257725D01*
X149863814Y-104257725D02*
X149863814Y-103457725D01*
X150511433Y-103838677D02*
X150778099Y-103838677D01*
X150892385Y-104257725D02*
X150511433Y-104257725D01*
X150511433Y-104257725D02*
X150511433Y-103457725D01*
X150511433Y-103457725D02*
X150892385Y-103457725D01*
X151235243Y-104257725D02*
X151235243Y-103457725D01*
X151235243Y-103457725D02*
X151425719Y-103457725D01*
X151425719Y-103457725D02*
X151540005Y-103495820D01*
X151540005Y-103495820D02*
X151616195Y-103572010D01*
X151616195Y-103572010D02*
X151654290Y-103648201D01*
X151654290Y-103648201D02*
X151692386Y-103800582D01*
X151692386Y-103800582D02*
X151692386Y-103914868D01*
X151692386Y-103914868D02*
X151654290Y-104067249D01*
X151654290Y-104067249D02*
X151616195Y-104143439D01*
X151616195Y-104143439D02*
X151540005Y-104219630D01*
X151540005Y-104219630D02*
X151425719Y-104257725D01*
X151425719Y-104257725D02*
X151235243Y-104257725D01*
X152454290Y-104257725D02*
X151997147Y-104257725D01*
X152225719Y-104257725D02*
X152225719Y-103457725D01*
X152225719Y-103457725D02*
X152149528Y-103572010D01*
X152149528Y-103572010D02*
X152073338Y-103648201D01*
X152073338Y-103648201D02*
X151997147Y-103686296D01*
X161514539Y-92154036D02*
X161247872Y-91773083D01*
X161057396Y-92154036D02*
X161057396Y-91354036D01*
X161057396Y-91354036D02*
X161362158Y-91354036D01*
X161362158Y-91354036D02*
X161438348Y-91392131D01*
X161438348Y-91392131D02*
X161476443Y-91430226D01*
X161476443Y-91430226D02*
X161514539Y-91506417D01*
X161514539Y-91506417D02*
X161514539Y-91620702D01*
X161514539Y-91620702D02*
X161476443Y-91696893D01*
X161476443Y-91696893D02*
X161438348Y-91734988D01*
X161438348Y-91734988D02*
X161362158Y-91773083D01*
X161362158Y-91773083D02*
X161057396Y-91773083D01*
X162276443Y-92154036D02*
X161819300Y-92154036D01*
X162047872Y-92154036D02*
X162047872Y-91354036D01*
X162047872Y-91354036D02*
X161971681Y-91468321D01*
X161971681Y-91468321D02*
X161895491Y-91544512D01*
X161895491Y-91544512D02*
X161819300Y-91582607D01*
X163000253Y-91354036D02*
X162619301Y-91354036D01*
X162619301Y-91354036D02*
X162581205Y-91734988D01*
X162581205Y-91734988D02*
X162619301Y-91696893D01*
X162619301Y-91696893D02*
X162695491Y-91658798D01*
X162695491Y-91658798D02*
X162885967Y-91658798D01*
X162885967Y-91658798D02*
X162962158Y-91696893D01*
X162962158Y-91696893D02*
X163000253Y-91734988D01*
X163000253Y-91734988D02*
X163038348Y-91811179D01*
X163038348Y-91811179D02*
X163038348Y-92001655D01*
X163038348Y-92001655D02*
X163000253Y-92077845D01*
X163000253Y-92077845D02*
X162962158Y-92115941D01*
X162962158Y-92115941D02*
X162885967Y-92154036D01*
X162885967Y-92154036D02*
X162695491Y-92154036D01*
X162695491Y-92154036D02*
X162619301Y-92115941D01*
X162619301Y-92115941D02*
X162581205Y-92077845D01*
X167346985Y-88988922D02*
X167080318Y-88607969D01*
X166889842Y-88988922D02*
X166889842Y-88188922D01*
X166889842Y-88188922D02*
X167194604Y-88188922D01*
X167194604Y-88188922D02*
X167270794Y-88227017D01*
X167270794Y-88227017D02*
X167308889Y-88265112D01*
X167308889Y-88265112D02*
X167346985Y-88341303D01*
X167346985Y-88341303D02*
X167346985Y-88455588D01*
X167346985Y-88455588D02*
X167308889Y-88531779D01*
X167308889Y-88531779D02*
X167270794Y-88569874D01*
X167270794Y-88569874D02*
X167194604Y-88607969D01*
X167194604Y-88607969D02*
X166889842Y-88607969D01*
X168108889Y-88988922D02*
X167651746Y-88988922D01*
X167880318Y-88988922D02*
X167880318Y-88188922D01*
X167880318Y-88188922D02*
X167804127Y-88303207D01*
X167804127Y-88303207D02*
X167727937Y-88379398D01*
X167727937Y-88379398D02*
X167651746Y-88417493D01*
X163004667Y-104623000D02*
X163147524Y-104670619D01*
X163147524Y-104670619D02*
X163385619Y-104670619D01*
X163385619Y-104670619D02*
X163480857Y-104623000D01*
X163480857Y-104623000D02*
X163528476Y-104575380D01*
X163528476Y-104575380D02*
X163576095Y-104480142D01*
X163576095Y-104480142D02*
X163576095Y-104384904D01*
X163576095Y-104384904D02*
X163528476Y-104289666D01*
X163528476Y-104289666D02*
X163480857Y-104242047D01*
X163480857Y-104242047D02*
X163385619Y-104194428D01*
X163385619Y-104194428D02*
X163195143Y-104146809D01*
X163195143Y-104146809D02*
X163099905Y-104099190D01*
X163099905Y-104099190D02*
X163052286Y-104051571D01*
X163052286Y-104051571D02*
X163004667Y-103956333D01*
X163004667Y-103956333D02*
X163004667Y-103861095D01*
X163004667Y-103861095D02*
X163052286Y-103765857D01*
X163052286Y-103765857D02*
X163099905Y-103718238D01*
X163099905Y-103718238D02*
X163195143Y-103670619D01*
X163195143Y-103670619D02*
X163433238Y-103670619D01*
X163433238Y-103670619D02*
X163576095Y-103718238D01*
X163909429Y-103670619D02*
X164147524Y-104670619D01*
X164147524Y-104670619D02*
X164338000Y-103956333D01*
X164338000Y-103956333D02*
X164528476Y-104670619D01*
X164528476Y-104670619D02*
X164766572Y-103670619D01*
X165671333Y-104670619D02*
X165099905Y-104670619D01*
X165385619Y-104670619D02*
X165385619Y-103670619D01*
X165385619Y-103670619D02*
X165290381Y-103813476D01*
X165290381Y-103813476D02*
X165195143Y-103908714D01*
X165195143Y-103908714D02*
X165099905Y-103956333D01*
D12*
X172085000Y-92055000D02*
X174035000Y-92055000D01*
X172085000Y-97175000D02*
X174035000Y-97175000D01*
X172085000Y-92055000D02*
X168635000Y-92055000D01*
X172085000Y-97175000D02*
X170135000Y-97175000D01*
X176530000Y-110744000D02*
X184150000Y-110744000D01*
X176530000Y-110744000D02*
X176530000Y-90424000D01*
X184150000Y-110744000D02*
X184150000Y-90424000D01*
X182880000Y-90424000D02*
X182880000Y-110744000D01*
X184150000Y-90424000D02*
X176530000Y-90424000D01*
X174529708Y-97810874D02*
X174529708Y-98598374D01*
X174923458Y-98204624D02*
X174135958Y-98204624D01*
X175027771Y-98838374D02*
X173742208Y-98838374D01*
X175027771Y-98838374D02*
X176092208Y-99902811D01*
X170336645Y-98838374D02*
X171622208Y-98838374D01*
X170336645Y-98838374D02*
X169272208Y-99902811D01*
X176092208Y-99902811D02*
X176092208Y-105658374D01*
X169272208Y-99902811D02*
X169272208Y-105658374D01*
X176092208Y-105658374D02*
X173742208Y-105658374D01*
X169272208Y-105658374D02*
X171622208Y-105658374D01*
X160542500Y-93107742D02*
X160542500Y-93582258D01*
X159497500Y-93107742D02*
X159497500Y-93582258D01*
X161402500Y-97392258D02*
X161402500Y-96917742D01*
X162447500Y-97392258D02*
X162447500Y-96917742D01*
X171337500Y-89424742D02*
X171337500Y-89899258D01*
X170292500Y-89424742D02*
X170292500Y-89899258D01*
X148336000Y-85725000D02*
X140716000Y-85725000D01*
X148336000Y-85725000D02*
X148336000Y-106045000D01*
X140716000Y-85725000D02*
X140716000Y-106045000D01*
X141986000Y-106045000D02*
X141986000Y-85725000D01*
X140716000Y-106045000D02*
X148336000Y-106045000D01*
X164352500Y-93488742D02*
X164352500Y-93963258D01*
X163307500Y-93488742D02*
X163307500Y-93963258D01*
X161177500Y-101172742D02*
X161177500Y-101647258D01*
X160132500Y-101172742D02*
X160132500Y-101647258D01*
X160310000Y-97155000D02*
X160310000Y-95480000D01*
X160310000Y-97155000D02*
X160310000Y-97805000D01*
X157190000Y-97155000D02*
X157190000Y-96505000D01*
X157190000Y-97155000D02*
X157190000Y-97805000D01*
X154164630Y-110255705D02*
X154164630Y-110855705D01*
X153464630Y-111555705D02*
X152064630Y-111555705D01*
X152064630Y-109555705D02*
X153464630Y-109555705D01*
X151364630Y-110855705D02*
X151364630Y-110255705D01*
X153464630Y-111555705D02*
G75*
G03*
X154164630Y-110855705I1J699999D01*
G01*
X154164630Y-110255705D02*
G75*
G03*
X153464630Y-109555705I-699999J1D01*
G01*
X151364630Y-110855705D02*
G75*
G03*
X152064630Y-111555705I700000J0D01*
G01*
X152064630Y-109555705D02*
G75*
G03*
X151364630Y-110255705I0J-700000D01*
G01*
X168785000Y-101269420D02*
X168785000Y-101550580D01*
X167765000Y-101269420D02*
X167765000Y-101550580D01*
X164352500Y-96917742D02*
X164352500Y-97392258D01*
X163307500Y-96917742D02*
X163307500Y-97392258D01*
X156512500Y-107660000D02*
X154837500Y-107660000D01*
X156512500Y-107660000D02*
X157162500Y-107660000D01*
X156512500Y-110780000D02*
X155862500Y-110780000D01*
X156512500Y-110780000D02*
X157162500Y-110780000D01*
X163082500Y-101172742D02*
X163082500Y-101647258D01*
X162037500Y-101172742D02*
X162037500Y-101647258D01*
X152690000Y-102201000D02*
X152690000Y-102045000D01*
X152690000Y-99885000D02*
X152690000Y-99729000D01*
X149457666Y-102043608D02*
G75*
G03*
X152689999Y-102200515I1672334J1078608D01*
G01*
X150088871Y-102044836D02*
G75*
G03*
X152170960Y-102044999I1041129J1079836D01*
G01*
X152170960Y-99885001D02*
G75*
G03*
X150088871Y-99885164I-1040960J-1079999D01*
G01*
X152689999Y-99729485D02*
G75*
G03*
X149457666Y-99886392I-1559999J-1235515D01*
G01*
X166892500Y-101172742D02*
X166892500Y-101647258D01*
X165847500Y-101172742D02*
X165847500Y-101647258D01*
X148987742Y-109967500D02*
X149462258Y-109967500D01*
X148987742Y-111012500D02*
X149462258Y-111012500D01*
X155812258Y-101487500D02*
X155337742Y-101487500D01*
X155812258Y-100442500D02*
X155337742Y-100442500D01*
X169108000Y-83992000D02*
X167188000Y-83992000D01*
X167188000Y-83992000D02*
X167188000Y-86852000D01*
X169108000Y-86852000D02*
X169108000Y-83992000D01*
X164975000Y-101269420D02*
X164975000Y-101550580D01*
X163955000Y-101269420D02*
X163955000Y-101550580D01*
X156512500Y-103535000D02*
X154837500Y-103535000D01*
X156512500Y-103535000D02*
X157162500Y-103535000D01*
X156512500Y-106655000D02*
X155862500Y-106655000D01*
X156512500Y-106655000D02*
X157162500Y-106655000D01*
X155083742Y-94727500D02*
X155558258Y-94727500D01*
X155083742Y-95772500D02*
X155558258Y-95772500D01*
X166880000Y-93064420D02*
X166880000Y-93345580D01*
X165860000Y-93064420D02*
X165860000Y-93345580D01*
X159272500Y-101362742D02*
X159272500Y-101837258D01*
X158227500Y-101362742D02*
X158227500Y-101837258D01*
X164280000Y-91002000D02*
X164280000Y-90902000D01*
X164280000Y-90902000D02*
X166180000Y-90902000D01*
X164280000Y-84202000D02*
X165380000Y-84202000D01*
X164280000Y-84102000D02*
X164280000Y-84202000D01*
X156780000Y-91002000D02*
X164280000Y-91002000D01*
X156780000Y-84102000D02*
X164280000Y-84102000D01*
X152690000Y-96486000D02*
X152690000Y-96330000D01*
X152690000Y-94170000D02*
X152690000Y-94014000D01*
X149457666Y-96328608D02*
G75*
G03*
X152689999Y-96485515I1672334J1078608D01*
G01*
X150088871Y-96329836D02*
G75*
G03*
X152170960Y-96329999I1041129J1079836D01*
G01*
X152170960Y-94170001D02*
G75*
G03*
X150088871Y-94170164I-1040960J-1079999D01*
G01*
X152689999Y-94014485D02*
G75*
G03*
X149457666Y-94171392I-1559999J-1235515D01*
G01*
X158637500Y-93107742D02*
X158637500Y-93582258D01*
X157592500Y-93107742D02*
X157592500Y-93582258D01*
X175913064Y-87816000D02*
X171558936Y-87816000D01*
X175913064Y-84396000D02*
X171558936Y-84396000D01*
X152690000Y-107916000D02*
X152690000Y-107760000D01*
X152690000Y-105600000D02*
X152690000Y-105444000D01*
X149457666Y-107758608D02*
G75*
G03*
X152689999Y-107915515I1672334J1078608D01*
G01*
X150088871Y-107759836D02*
G75*
G03*
X152170960Y-107759999I1041129J1079836D01*
G01*
X152170960Y-105600001D02*
G75*
G03*
X150088871Y-105600164I-1040960J-1079999D01*
G01*
X152689999Y-105444485D02*
G75*
G03*
X149457666Y-105601392I-1559999J-1235515D01*
G01*
X162447500Y-93488742D02*
X162447500Y-93963258D01*
X161402500Y-93488742D02*
X161402500Y-93963258D01*
X169432500Y-89424742D02*
X169432500Y-89899258D01*
X168387500Y-89424742D02*
X168387500Y-89899258D01*
X160838000Y-107708000D02*
X160838000Y-109208000D01*
X162088000Y-111708000D02*
X166588000Y-111708000D01*
X166588000Y-105208000D02*
X162088000Y-105208000D01*
X167838000Y-109208000D02*
X167838000Y-107708000D01*
D13*
X146685000Y-106299000D02*
X140462000Y-106299000D01*
X184404000Y-89916000D02*
X184404000Y-112522000D01*
X140462000Y-106299000D02*
X140462000Y-83693000D01*
X178181000Y-83693000D02*
X178181000Y-89916000D01*
X140462000Y-83693000D02*
X178181000Y-83693000D01*
X184404000Y-112522000D02*
X146685000Y-112522000D01*
X178181000Y-89916000D02*
X184404000Y-89916000D01*
X146685000Y-112522000D02*
X146685000Y-106299000D01*
M02*
