G04 #@! TF.GenerationSoftware,KiCad,Pcbnew,7.0.1-3b83917a11~172~ubuntu20.04.1*
G04 #@! TF.CreationDate,2023-04-02T02:43:19+02:00*
G04 #@! TF.ProjectId,C64Saver2,43363453-6176-4657-9232-2e6b69636164,0.1*
G04 #@! TF.SameCoordinates,Original*
G04 #@! TF.FileFunction,Soldermask,Top*
G04 #@! TF.FilePolarity,Negative*
%FSLAX46Y46*%
G04 Gerber Fmt 4.6, Leading zero omitted, Abs format (unit mm)*
G04 Created by KiCad (PCBNEW 7.0.1-3b83917a11~172~ubuntu20.04.1) date 2023-04-02 02:43:19*
%MOMM*%
%LPD*%
G01*
G04 APERTURE LIST*
G04 Aperture macros list*
%AMRoundRect*
0 Rectangle with rounded corners*
0 $1 Rounding radius*
0 $2 $3 $4 $5 $6 $7 $8 $9 X,Y pos of 4 corners*
0 Add a 4 corners polygon primitive as box body*
4,1,4,$2,$3,$4,$5,$6,$7,$8,$9,$2,$3,0*
0 Add four circle primitives for the rounded corners*
1,1,$1+$1,$2,$3*
1,1,$1+$1,$4,$5*
1,1,$1+$1,$6,$7*
1,1,$1+$1,$8,$9*
0 Add four rect primitives between the rounded corners*
20,1,$1+$1,$2,$3,$4,$5,0*
20,1,$1+$1,$4,$5,$6,$7,0*
20,1,$1+$1,$6,$7,$8,$9,0*
20,1,$1+$1,$8,$9,$2,$3,0*%
%AMFreePoly0*
4,1,35,0.517961,0.767961,0.525400,0.750000,0.525400,-0.750000,0.517961,-0.767961,0.500000,-0.775400,0.000000,-0.775400,-0.012287,-0.770311,-0.071157,-0.770311,-0.078313,-0.769282,-0.214864,-0.729187,-0.221440,-0.726184,-0.341162,-0.649243,-0.346626,-0.644508,-0.439823,-0.536953,-0.443732,-0.530871,-0.502851,-0.401417,-0.504887,-0.394481,-0.525141,-0.253615,-0.525400,-0.250000,-0.525400,0.250000,
-0.525141,0.253615,-0.504887,0.394481,-0.502851,0.401417,-0.443732,0.530871,-0.439823,0.536953,-0.346626,0.644508,-0.341162,0.649243,-0.221440,0.726184,-0.214864,0.729187,-0.078313,0.769282,-0.071157,0.770311,-0.012287,0.770311,0.000000,0.775400,0.500000,0.775400,0.517961,0.767961,0.517961,0.767961,$1*%
%AMFreePoly1*
4,1,35,0.012287,0.770311,0.071157,0.770311,0.078313,0.769282,0.214864,0.729187,0.221440,0.726184,0.341162,0.649243,0.346626,0.644508,0.439823,0.536953,0.443732,0.530871,0.502851,0.401417,0.504887,0.394481,0.525141,0.253615,0.525400,0.250000,0.525400,-0.250000,0.525141,-0.253615,0.504887,-0.394481,0.502851,-0.401417,0.443732,-0.530871,0.439823,-0.536953,0.346626,-0.644508,
0.341162,-0.649243,0.221440,-0.726184,0.214864,-0.729187,0.078313,-0.769282,0.071157,-0.770311,0.012287,-0.770311,0.000000,-0.775400,-0.500000,-0.775400,-0.517961,-0.767961,-0.525400,-0.750000,-0.525400,0.750000,-0.517961,0.767961,-0.500000,0.775400,0.000000,0.775400,0.012287,0.770311,0.012287,0.770311,$1*%
G04 Aperture macros list end*
%ADD10RoundRect,0.175400X-0.825000X-0.150000X0.825000X-0.150000X0.825000X0.150000X-0.825000X0.150000X0*%
%ADD11RoundRect,0.025400X1.500000X-1.500000X1.500000X1.500000X-1.500000X1.500000X-1.500000X-1.500000X0*%
%ADD12C,3.050800*%
%ADD13RoundRect,0.275400X-0.550000X1.500000X-0.550000X-1.500000X0.550000X-1.500000X0.550000X1.500000X0*%
%ADD14C,2.550800*%
%ADD15RoundRect,0.225400X-0.275000X0.200000X-0.275000X-0.200000X0.275000X-0.200000X0.275000X0.200000X0*%
%ADD16RoundRect,0.225400X0.275000X-0.200000X0.275000X0.200000X-0.275000X0.200000X-0.275000X-0.200000X0*%
%ADD17RoundRect,0.025400X-1.500000X1.500000X-1.500000X-1.500000X1.500000X-1.500000X1.500000X1.500000X0*%
%ADD18RoundRect,0.175400X-0.150000X0.587500X-0.150000X-0.587500X0.150000X-0.587500X0.150000X0.587500X0*%
%ADD19FreePoly0,180.000000*%
%ADD20FreePoly1,180.000000*%
%ADD21RoundRect,0.250400X-0.250000X0.225000X-0.250000X-0.225000X0.250000X-0.225000X0.250000X0.225000X0*%
%ADD22RoundRect,0.175400X-0.587500X-0.150000X0.587500X-0.150000X0.587500X0.150000X-0.587500X0.150000X0*%
%ADD23RoundRect,0.025400X0.900000X0.900000X-0.900000X0.900000X-0.900000X-0.900000X0.900000X-0.900000X0*%
%ADD24C,1.850800*%
%ADD25RoundRect,0.225400X-0.200000X-0.275000X0.200000X-0.275000X0.200000X0.275000X-0.200000X0.275000X0*%
%ADD26RoundRect,0.225400X0.200000X0.275000X-0.200000X0.275000X-0.200000X-0.275000X0.200000X-0.275000X0*%
%ADD27RoundRect,0.275400X-0.450000X0.325000X-0.450000X-0.325000X0.450000X-0.325000X0.450000X0.325000X0*%
%ADD28RoundRect,0.275401X0.549999X0.499999X-0.549999X0.499999X-0.549999X-0.499999X0.549999X-0.499999X0*%
%ADD29RoundRect,0.275403X3.099997X2.999997X-3.099997X2.999997X-3.099997X-2.999997X3.099997X-2.999997X0*%
%ADD30RoundRect,0.275400X0.362500X1.425000X-0.362500X1.425000X-0.362500X-1.425000X0.362500X-1.425000X0*%
%ADD31C,2.050800*%
G04 #@! TA.AperFunction,Profile*
%ADD32C,0.150000*%
G04 #@! TD*
G04 APERTURE END LIST*
D10*
X169610000Y-92710000D03*
X169610000Y-93980000D03*
X169610000Y-95250000D03*
X169610000Y-96520000D03*
X174560000Y-96520000D03*
X174560000Y-95250000D03*
X174560000Y-93980000D03*
X174560000Y-92710000D03*
D11*
X180340000Y-108204000D03*
D12*
X180340000Y-103124000D03*
X180340000Y-98044000D03*
X180340000Y-92964000D03*
D13*
X172682208Y-99448374D03*
X172682208Y-105048374D03*
D14*
X152405080Y-86357460D03*
X172399960Y-109862620D03*
D15*
X160020000Y-92520000D03*
X160020000Y-94170000D03*
D16*
X161925000Y-97980000D03*
X161925000Y-96330000D03*
D15*
X170815000Y-88837000D03*
X170815000Y-90487000D03*
D17*
X144526000Y-88265000D03*
D12*
X144526000Y-93345000D03*
X144526000Y-98425000D03*
X144526000Y-103505000D03*
D15*
X163830000Y-92901000D03*
X163830000Y-94551000D03*
X160655000Y-100585000D03*
X160655000Y-102235000D03*
D18*
X159700000Y-96217500D03*
X157800000Y-96217500D03*
X158750000Y-98092500D03*
D19*
X153414630Y-110555705D03*
D20*
X152114630Y-110555705D03*
D21*
X168275000Y-100635000D03*
X168275000Y-102185000D03*
D15*
X163830000Y-96330000D03*
X163830000Y-97980000D03*
D22*
X155575000Y-108270000D03*
X155575000Y-110170000D03*
X157450000Y-109220000D03*
D15*
X162560000Y-100585000D03*
X162560000Y-102235000D03*
D23*
X152400000Y-100965000D03*
D24*
X149860000Y-100965000D03*
D15*
X166370000Y-100585000D03*
X166370000Y-102235000D03*
D25*
X148400000Y-110490000D03*
X150050000Y-110490000D03*
D26*
X156400000Y-100965000D03*
X154750000Y-100965000D03*
D27*
X168148000Y-84827000D03*
X168148000Y-86877000D03*
D21*
X164465000Y-100635000D03*
X164465000Y-102185000D03*
D22*
X155575000Y-104145000D03*
X155575000Y-106045000D03*
X157450000Y-105095000D03*
D25*
X154496000Y-95250000D03*
X156146000Y-95250000D03*
D21*
X166370000Y-92430000D03*
X166370000Y-93980000D03*
D15*
X158750000Y-100775000D03*
X158750000Y-102425000D03*
D28*
X165380000Y-89852000D03*
D29*
X159230000Y-87552000D03*
D28*
X165380000Y-85252000D03*
D23*
X152400000Y-95250000D03*
D24*
X149860000Y-95250000D03*
D15*
X158115000Y-92520000D03*
X158115000Y-94170000D03*
D30*
X176698500Y-86106000D03*
X170773500Y-86106000D03*
D23*
X152400000Y-106680000D03*
D24*
X149860000Y-106680000D03*
D15*
X161925000Y-92901000D03*
X161925000Y-94551000D03*
X168910000Y-88837000D03*
X168910000Y-90487000D03*
D31*
X161088000Y-106208000D03*
X167588000Y-106208000D03*
X161088000Y-110708000D03*
X167588000Y-110708000D03*
D32*
X146685000Y-106299000D02*
X140462000Y-106299000D01*
X184404000Y-89916000D02*
X184404000Y-112522000D01*
X140462000Y-106299000D02*
X140462000Y-83693000D01*
X178181000Y-83693000D02*
X178181000Y-89916000D01*
X140462000Y-83693000D02*
X178181000Y-83693000D01*
X184404000Y-112522000D02*
X146685000Y-112522000D01*
X178181000Y-89916000D02*
X184404000Y-89916000D01*
X146685000Y-112522000D02*
X146685000Y-106299000D01*
M02*
