M48
; DRILL file {KiCad 7.0.1-3b83917a11~172~ubuntu20.04.1} date Sun 02 Apr 2023 02:43:22 CEST
; FORMAT={-:-/ absolute / inch / decimal}
; #@! TF.CreationDate,2023-04-02T02:43:22+02:00
; #@! TF.GenerationSoftware,Kicad,Pcbnew,7.0.1-3b83917a11~172~ubuntu20.04.1
; #@! TF.FileFunction,Plated,1,2,PTH
FMAT,2
INCH
; #@! TA.AperFunction,Plated,PTH,ViaDrill
T1C0.0118
; #@! TA.AperFunction,Plated,PTH,ViaDrill
T2C0.0157
; #@! TA.AperFunction,Plated,PTH,ComponentDrill
T3C0.0354
; #@! TA.AperFunction,Plated,PTH,ComponentDrill
T4C0.0433
; #@! TA.AperFunction,Plated,PTH,ComponentDrill
T5C0.0598
%
G90
G05
T1
X5.85Y-3.45
X5.85Y-3.5
X5.85Y-3.55
X5.9Y-3.5
X5.9Y-3.55
X5.95Y-3.55
X6.0Y-3.55
X6.05Y-3.55
X6.1Y-3.5
X6.1Y-3.55
X6.2Y-3.35
X6.2Y-3.4
X6.2Y-3.45
X6.2Y-3.5
X6.2Y-3.55
X6.25Y-3.35
X6.25Y-3.4
X6.25Y-3.45
X6.25Y-3.5
X6.25Y-3.55
X6.3Y-3.35
X6.3Y-3.4
X6.3Y-3.45
X6.3Y-3.5
X6.3Y-3.55
X6.35Y-3.35
X6.35Y-3.4
X6.35Y-3.45
X6.35Y-3.5
X6.35Y-3.55
X6.925Y-3.5
X6.925Y-3.55
X6.9458Y-3.5983
X6.975Y-3.5
X6.975Y-3.55
X6.9958Y-3.5983
T2
X6.2Y-4.35
X6.21Y-3.85
X6.25Y-4.185
X6.3Y-3.855
X6.4129Y-3.8235
X6.45Y-4.175
X6.5Y-3.7
X6.625Y-3.825
X6.7623Y-3.4971
T3
X5.9Y-3.75
X5.9Y-3.975
X5.9Y-4.2
X6.0Y-3.75
X6.0Y-3.975
X6.0Y-4.2
T4
X6.342Y-4.1814
X6.342Y-4.3586
X6.598Y-4.1814
X6.598Y-4.3586
T5
X5.69Y-3.475
X5.69Y-3.675
X5.69Y-3.875
X5.69Y-4.075
X7.1Y-3.66
X7.1Y-3.86
X7.1Y-4.06
X7.1Y-4.26
T0
M30
