G04 #@! TF.GenerationSoftware,KiCad,Pcbnew,7.0.1-3b83917a11~172~ubuntu20.04.1*
G04 #@! TF.CreationDate,2023-04-02T02:43:19+02:00*
G04 #@! TF.ProjectId,C64Saver2,43363453-6176-4657-9232-2e6b69636164,0.1*
G04 #@! TF.SameCoordinates,Original*
G04 #@! TF.FileFunction,Legend,Bot*
G04 #@! TF.FilePolarity,Positive*
%FSLAX46Y46*%
G04 Gerber Fmt 4.6, Leading zero omitted, Abs format (unit mm)*
G04 Created by KiCad (PCBNEW 7.0.1-3b83917a11~172~ubuntu20.04.1) date 2023-04-02 02:43:19*
%MOMM*%
%LPD*%
G01*
G04 APERTURE LIST*
%ADD10C,0.300000*%
%ADD11C,0.150000*%
G04 #@! TA.AperFunction,Profile*
%ADD12C,0.150000*%
G04 #@! TD*
G04 APERTURE END LIST*
D10*
X176840726Y-107217524D02*
X176840726Y-106979428D01*
X176840726Y-106979428D02*
X176900250Y-106860381D01*
X176900250Y-106860381D02*
X176959773Y-106800857D01*
X176959773Y-106800857D02*
X177138345Y-106681809D01*
X177138345Y-106681809D02*
X177376440Y-106622286D01*
X177376440Y-106622286D02*
X177852630Y-106622286D01*
X177852630Y-106622286D02*
X177971678Y-106681809D01*
X177971678Y-106681809D02*
X178031202Y-106741333D01*
X178031202Y-106741333D02*
X178090726Y-106860381D01*
X178090726Y-106860381D02*
X178090726Y-107098476D01*
X178090726Y-107098476D02*
X178031202Y-107217524D01*
X178031202Y-107217524D02*
X177971678Y-107277047D01*
X177971678Y-107277047D02*
X177852630Y-107336571D01*
X177852630Y-107336571D02*
X177555011Y-107336571D01*
X177555011Y-107336571D02*
X177435964Y-107277047D01*
X177435964Y-107277047D02*
X177376440Y-107217524D01*
X177376440Y-107217524D02*
X177316916Y-107098476D01*
X177316916Y-107098476D02*
X177316916Y-106860381D01*
X177316916Y-106860381D02*
X177376440Y-106741333D01*
X177376440Y-106741333D02*
X177435964Y-106681809D01*
X177435964Y-106681809D02*
X177555011Y-106622286D01*
X178090726Y-106265143D02*
X176840726Y-105848476D01*
X176840726Y-105848476D02*
X178090726Y-105431810D01*
X177197869Y-105074666D02*
X177197869Y-104479428D01*
X176840726Y-105193714D02*
X178090726Y-104777047D01*
X178090726Y-104777047D02*
X176840726Y-104360381D01*
X176959773Y-103229428D02*
X176900250Y-103288952D01*
X176900250Y-103288952D02*
X176840726Y-103467523D01*
X176840726Y-103467523D02*
X176840726Y-103586571D01*
X176840726Y-103586571D02*
X176900250Y-103765142D01*
X176900250Y-103765142D02*
X177019297Y-103884190D01*
X177019297Y-103884190D02*
X177138345Y-103943713D01*
X177138345Y-103943713D02*
X177376440Y-104003237D01*
X177376440Y-104003237D02*
X177555011Y-104003237D01*
X177555011Y-104003237D02*
X177793107Y-103943713D01*
X177793107Y-103943713D02*
X177912154Y-103884190D01*
X177912154Y-103884190D02*
X178031202Y-103765142D01*
X178031202Y-103765142D02*
X178090726Y-103586571D01*
X178090726Y-103586571D02*
X178090726Y-103467523D01*
X178090726Y-103467523D02*
X178031202Y-103288952D01*
X178031202Y-103288952D02*
X177971678Y-103229428D01*
X178031202Y-98869381D02*
X178090726Y-98988428D01*
X178090726Y-98988428D02*
X178090726Y-99167000D01*
X178090726Y-99167000D02*
X178031202Y-99345571D01*
X178031202Y-99345571D02*
X177912154Y-99464619D01*
X177912154Y-99464619D02*
X177793107Y-99524142D01*
X177793107Y-99524142D02*
X177555011Y-99583666D01*
X177555011Y-99583666D02*
X177376440Y-99583666D01*
X177376440Y-99583666D02*
X177138345Y-99524142D01*
X177138345Y-99524142D02*
X177019297Y-99464619D01*
X177019297Y-99464619D02*
X176900250Y-99345571D01*
X176900250Y-99345571D02*
X176840726Y-99167000D01*
X176840726Y-99167000D02*
X176840726Y-99047952D01*
X176840726Y-99047952D02*
X176900250Y-98869381D01*
X176900250Y-98869381D02*
X176959773Y-98809857D01*
X176959773Y-98809857D02*
X177376440Y-98809857D01*
X177376440Y-98809857D02*
X177376440Y-99047952D01*
X176840726Y-98274142D02*
X178090726Y-98274142D01*
X178090726Y-98274142D02*
X176840726Y-97559857D01*
X176840726Y-97559857D02*
X178090726Y-97559857D01*
X176840726Y-96964618D02*
X178090726Y-96964618D01*
X178090726Y-96964618D02*
X178090726Y-96666999D01*
X178090726Y-96666999D02*
X178031202Y-96488428D01*
X178031202Y-96488428D02*
X177912154Y-96369380D01*
X177912154Y-96369380D02*
X177793107Y-96309857D01*
X177793107Y-96309857D02*
X177555011Y-96250333D01*
X177555011Y-96250333D02*
X177376440Y-96250333D01*
X177376440Y-96250333D02*
X177138345Y-96309857D01*
X177138345Y-96309857D02*
X177019297Y-96369380D01*
X177019297Y-96369380D02*
X176900250Y-96488428D01*
X176900250Y-96488428D02*
X176840726Y-96666999D01*
X176840726Y-96666999D02*
X176840726Y-96964618D01*
X178090726Y-93329094D02*
X178090726Y-93924332D01*
X178090726Y-93924332D02*
X177495488Y-93983856D01*
X177495488Y-93983856D02*
X177555011Y-93924332D01*
X177555011Y-93924332D02*
X177614535Y-93805285D01*
X177614535Y-93805285D02*
X177614535Y-93507666D01*
X177614535Y-93507666D02*
X177555011Y-93388618D01*
X177555011Y-93388618D02*
X177495488Y-93329094D01*
X177495488Y-93329094D02*
X177376440Y-93269571D01*
X177376440Y-93269571D02*
X177078821Y-93269571D01*
X177078821Y-93269571D02*
X176959773Y-93329094D01*
X176959773Y-93329094D02*
X176900250Y-93388618D01*
X176900250Y-93388618D02*
X176840726Y-93507666D01*
X176840726Y-93507666D02*
X176840726Y-93805285D01*
X176840726Y-93805285D02*
X176900250Y-93924332D01*
X176900250Y-93924332D02*
X176959773Y-93983856D01*
X178090726Y-92912428D02*
X176840726Y-92495761D01*
X176840726Y-92495761D02*
X178090726Y-92079095D01*
X146648273Y-88153905D02*
X146648273Y-87558667D01*
X146648273Y-87558667D02*
X147243511Y-87499143D01*
X147243511Y-87499143D02*
X147183988Y-87558667D01*
X147183988Y-87558667D02*
X147124464Y-87677714D01*
X147124464Y-87677714D02*
X147124464Y-87975333D01*
X147124464Y-87975333D02*
X147183988Y-88094381D01*
X147183988Y-88094381D02*
X147243511Y-88153905D01*
X147243511Y-88153905D02*
X147362559Y-88213428D01*
X147362559Y-88213428D02*
X147660178Y-88213428D01*
X147660178Y-88213428D02*
X147779226Y-88153905D01*
X147779226Y-88153905D02*
X147838750Y-88094381D01*
X147838750Y-88094381D02*
X147898273Y-87975333D01*
X147898273Y-87975333D02*
X147898273Y-87677714D01*
X147898273Y-87677714D02*
X147838750Y-87558667D01*
X147838750Y-87558667D02*
X147779226Y-87499143D01*
X146648273Y-88570571D02*
X147898273Y-88987238D01*
X147898273Y-88987238D02*
X146648273Y-89403904D01*
X146707797Y-92392618D02*
X146648273Y-92273571D01*
X146648273Y-92273571D02*
X146648273Y-92094999D01*
X146648273Y-92094999D02*
X146707797Y-91916428D01*
X146707797Y-91916428D02*
X146826845Y-91797380D01*
X146826845Y-91797380D02*
X146945892Y-91737857D01*
X146945892Y-91737857D02*
X147183988Y-91678333D01*
X147183988Y-91678333D02*
X147362559Y-91678333D01*
X147362559Y-91678333D02*
X147600654Y-91737857D01*
X147600654Y-91737857D02*
X147719702Y-91797380D01*
X147719702Y-91797380D02*
X147838750Y-91916428D01*
X147838750Y-91916428D02*
X147898273Y-92094999D01*
X147898273Y-92094999D02*
X147898273Y-92214047D01*
X147898273Y-92214047D02*
X147838750Y-92392618D01*
X147838750Y-92392618D02*
X147779226Y-92452142D01*
X147779226Y-92452142D02*
X147362559Y-92452142D01*
X147362559Y-92452142D02*
X147362559Y-92214047D01*
X147898273Y-92987857D02*
X146648273Y-92987857D01*
X146648273Y-92987857D02*
X147898273Y-93702142D01*
X147898273Y-93702142D02*
X146648273Y-93702142D01*
X147898273Y-94297381D02*
X146648273Y-94297381D01*
X146648273Y-94297381D02*
X146648273Y-94595000D01*
X146648273Y-94595000D02*
X146707797Y-94773571D01*
X146707797Y-94773571D02*
X146826845Y-94892619D01*
X146826845Y-94892619D02*
X146945892Y-94952142D01*
X146945892Y-94952142D02*
X147183988Y-95011666D01*
X147183988Y-95011666D02*
X147362559Y-95011666D01*
X147362559Y-95011666D02*
X147600654Y-94952142D01*
X147600654Y-94952142D02*
X147719702Y-94892619D01*
X147719702Y-94892619D02*
X147838750Y-94773571D01*
X147838750Y-94773571D02*
X147898273Y-94595000D01*
X147898273Y-94595000D02*
X147898273Y-94297381D01*
X147898273Y-99030475D02*
X147898273Y-99268571D01*
X147898273Y-99268571D02*
X147838750Y-99387618D01*
X147838750Y-99387618D02*
X147779226Y-99447142D01*
X147779226Y-99447142D02*
X147600654Y-99566190D01*
X147600654Y-99566190D02*
X147362559Y-99625713D01*
X147362559Y-99625713D02*
X146886369Y-99625713D01*
X146886369Y-99625713D02*
X146767321Y-99566190D01*
X146767321Y-99566190D02*
X146707797Y-99506666D01*
X146707797Y-99506666D02*
X146648273Y-99387618D01*
X146648273Y-99387618D02*
X146648273Y-99149523D01*
X146648273Y-99149523D02*
X146707797Y-99030475D01*
X146707797Y-99030475D02*
X146767321Y-98970952D01*
X146767321Y-98970952D02*
X146886369Y-98911428D01*
X146886369Y-98911428D02*
X147183988Y-98911428D01*
X147183988Y-98911428D02*
X147303035Y-98970952D01*
X147303035Y-98970952D02*
X147362559Y-99030475D01*
X147362559Y-99030475D02*
X147422083Y-99149523D01*
X147422083Y-99149523D02*
X147422083Y-99387618D01*
X147422083Y-99387618D02*
X147362559Y-99506666D01*
X147362559Y-99506666D02*
X147303035Y-99566190D01*
X147303035Y-99566190D02*
X147183988Y-99625713D01*
X146648273Y-99982856D02*
X147898273Y-100399523D01*
X147898273Y-100399523D02*
X146648273Y-100816189D01*
X147541130Y-101173333D02*
X147541130Y-101768571D01*
X147898273Y-101054285D02*
X146648273Y-101470952D01*
X146648273Y-101470952D02*
X147898273Y-101887618D01*
X147779226Y-103018571D02*
X147838750Y-102959047D01*
X147838750Y-102959047D02*
X147898273Y-102780476D01*
X147898273Y-102780476D02*
X147898273Y-102661428D01*
X147898273Y-102661428D02*
X147838750Y-102482857D01*
X147838750Y-102482857D02*
X147719702Y-102363809D01*
X147719702Y-102363809D02*
X147600654Y-102304286D01*
X147600654Y-102304286D02*
X147362559Y-102244762D01*
X147362559Y-102244762D02*
X147183988Y-102244762D01*
X147183988Y-102244762D02*
X146945892Y-102304286D01*
X146945892Y-102304286D02*
X146826845Y-102363809D01*
X146826845Y-102363809D02*
X146707797Y-102482857D01*
X146707797Y-102482857D02*
X146648273Y-102661428D01*
X146648273Y-102661428D02*
X146648273Y-102780476D01*
X146648273Y-102780476D02*
X146707797Y-102959047D01*
X146707797Y-102959047D02*
X146767321Y-103018571D01*
X175791714Y-106693928D02*
X175791714Y-105193928D01*
X175077428Y-106693928D02*
X175077428Y-105193928D01*
X175077428Y-105193928D02*
X174220285Y-106693928D01*
X174220285Y-106693928D02*
X174220285Y-105193928D01*
X151867999Y-104095928D02*
X151582285Y-104095928D01*
X151582285Y-104095928D02*
X151439428Y-104167357D01*
X151439428Y-104167357D02*
X151296571Y-104310214D01*
X151296571Y-104310214D02*
X151225142Y-104595928D01*
X151225142Y-104595928D02*
X151225142Y-105095928D01*
X151225142Y-105095928D02*
X151296571Y-105381642D01*
X151296571Y-105381642D02*
X151439428Y-105524500D01*
X151439428Y-105524500D02*
X151582285Y-105595928D01*
X151582285Y-105595928D02*
X151867999Y-105595928D01*
X151867999Y-105595928D02*
X152010857Y-105524500D01*
X152010857Y-105524500D02*
X152153714Y-105381642D01*
X152153714Y-105381642D02*
X152225142Y-105095928D01*
X152225142Y-105095928D02*
X152225142Y-104595928D01*
X152225142Y-104595928D02*
X152153714Y-104310214D01*
X152153714Y-104310214D02*
X152010857Y-104167357D01*
X152010857Y-104167357D02*
X151867999Y-104095928D01*
X150582285Y-104095928D02*
X150582285Y-105310214D01*
X150582285Y-105310214D02*
X150510856Y-105453071D01*
X150510856Y-105453071D02*
X150439428Y-105524500D01*
X150439428Y-105524500D02*
X150296570Y-105595928D01*
X150296570Y-105595928D02*
X150010856Y-105595928D01*
X150010856Y-105595928D02*
X149867999Y-105524500D01*
X149867999Y-105524500D02*
X149796570Y-105453071D01*
X149796570Y-105453071D02*
X149725142Y-105310214D01*
X149725142Y-105310214D02*
X149725142Y-104095928D01*
X149225141Y-104095928D02*
X148367999Y-104095928D01*
X148796570Y-105595928D02*
X148796570Y-104095928D01*
D11*
X176355476Y-85507380D02*
X176403095Y-85555000D01*
X176403095Y-85555000D02*
X176545952Y-85602619D01*
X176545952Y-85602619D02*
X176641190Y-85602619D01*
X176641190Y-85602619D02*
X176784047Y-85555000D01*
X176784047Y-85555000D02*
X176879285Y-85459761D01*
X176879285Y-85459761D02*
X176926904Y-85364523D01*
X176926904Y-85364523D02*
X176974523Y-85174047D01*
X176974523Y-85174047D02*
X176974523Y-85031190D01*
X176974523Y-85031190D02*
X176926904Y-84840714D01*
X176926904Y-84840714D02*
X176879285Y-84745476D01*
X176879285Y-84745476D02*
X176784047Y-84650238D01*
X176784047Y-84650238D02*
X176641190Y-84602619D01*
X176641190Y-84602619D02*
X176545952Y-84602619D01*
X176545952Y-84602619D02*
X176403095Y-84650238D01*
X176403095Y-84650238D02*
X176355476Y-84697857D01*
X175498333Y-84602619D02*
X175688809Y-84602619D01*
X175688809Y-84602619D02*
X175784047Y-84650238D01*
X175784047Y-84650238D02*
X175831666Y-84697857D01*
X175831666Y-84697857D02*
X175926904Y-84840714D01*
X175926904Y-84840714D02*
X175974523Y-85031190D01*
X175974523Y-85031190D02*
X175974523Y-85412142D01*
X175974523Y-85412142D02*
X175926904Y-85507380D01*
X175926904Y-85507380D02*
X175879285Y-85555000D01*
X175879285Y-85555000D02*
X175784047Y-85602619D01*
X175784047Y-85602619D02*
X175593571Y-85602619D01*
X175593571Y-85602619D02*
X175498333Y-85555000D01*
X175498333Y-85555000D02*
X175450714Y-85507380D01*
X175450714Y-85507380D02*
X175403095Y-85412142D01*
X175403095Y-85412142D02*
X175403095Y-85174047D01*
X175403095Y-85174047D02*
X175450714Y-85078809D01*
X175450714Y-85078809D02*
X175498333Y-85031190D01*
X175498333Y-85031190D02*
X175593571Y-84983571D01*
X175593571Y-84983571D02*
X175784047Y-84983571D01*
X175784047Y-84983571D02*
X175879285Y-85031190D01*
X175879285Y-85031190D02*
X175926904Y-85078809D01*
X175926904Y-85078809D02*
X175974523Y-85174047D01*
X174545952Y-84935952D02*
X174545952Y-85602619D01*
X174784047Y-84555000D02*
X175022142Y-85269285D01*
X175022142Y-85269285D02*
X174403095Y-85269285D01*
X173307856Y-85555000D02*
X173164999Y-85602619D01*
X173164999Y-85602619D02*
X172926904Y-85602619D01*
X172926904Y-85602619D02*
X172831666Y-85555000D01*
X172831666Y-85555000D02*
X172784047Y-85507380D01*
X172784047Y-85507380D02*
X172736428Y-85412142D01*
X172736428Y-85412142D02*
X172736428Y-85316904D01*
X172736428Y-85316904D02*
X172784047Y-85221666D01*
X172784047Y-85221666D02*
X172831666Y-85174047D01*
X172831666Y-85174047D02*
X172926904Y-85126428D01*
X172926904Y-85126428D02*
X173117380Y-85078809D01*
X173117380Y-85078809D02*
X173212618Y-85031190D01*
X173212618Y-85031190D02*
X173260237Y-84983571D01*
X173260237Y-84983571D02*
X173307856Y-84888333D01*
X173307856Y-84888333D02*
X173307856Y-84793095D01*
X173307856Y-84793095D02*
X173260237Y-84697857D01*
X173260237Y-84697857D02*
X173212618Y-84650238D01*
X173212618Y-84650238D02*
X173117380Y-84602619D01*
X173117380Y-84602619D02*
X172879285Y-84602619D01*
X172879285Y-84602619D02*
X172736428Y-84650238D01*
X171879285Y-85602619D02*
X171879285Y-85078809D01*
X171879285Y-85078809D02*
X171926904Y-84983571D01*
X171926904Y-84983571D02*
X172022142Y-84935952D01*
X172022142Y-84935952D02*
X172212618Y-84935952D01*
X172212618Y-84935952D02*
X172307856Y-84983571D01*
X171879285Y-85555000D02*
X171974523Y-85602619D01*
X171974523Y-85602619D02*
X172212618Y-85602619D01*
X172212618Y-85602619D02*
X172307856Y-85555000D01*
X172307856Y-85555000D02*
X172355475Y-85459761D01*
X172355475Y-85459761D02*
X172355475Y-85364523D01*
X172355475Y-85364523D02*
X172307856Y-85269285D01*
X172307856Y-85269285D02*
X172212618Y-85221666D01*
X172212618Y-85221666D02*
X171974523Y-85221666D01*
X171974523Y-85221666D02*
X171879285Y-85174047D01*
X171498332Y-84935952D02*
X171260237Y-85602619D01*
X171260237Y-85602619D02*
X171022142Y-84935952D01*
X170260237Y-85555000D02*
X170355475Y-85602619D01*
X170355475Y-85602619D02*
X170545951Y-85602619D01*
X170545951Y-85602619D02*
X170641189Y-85555000D01*
X170641189Y-85555000D02*
X170688808Y-85459761D01*
X170688808Y-85459761D02*
X170688808Y-85078809D01*
X170688808Y-85078809D02*
X170641189Y-84983571D01*
X170641189Y-84983571D02*
X170545951Y-84935952D01*
X170545951Y-84935952D02*
X170355475Y-84935952D01*
X170355475Y-84935952D02*
X170260237Y-84983571D01*
X170260237Y-84983571D02*
X170212618Y-85078809D01*
X170212618Y-85078809D02*
X170212618Y-85174047D01*
X170212618Y-85174047D02*
X170688808Y-85269285D01*
X169784046Y-85602619D02*
X169784046Y-84935952D01*
X169784046Y-85126428D02*
X169736427Y-85031190D01*
X169736427Y-85031190D02*
X169688808Y-84983571D01*
X169688808Y-84983571D02*
X169593570Y-84935952D01*
X169593570Y-84935952D02*
X169498332Y-84935952D01*
X168212617Y-84602619D02*
X168022141Y-84602619D01*
X168022141Y-84602619D02*
X167926903Y-84650238D01*
X167926903Y-84650238D02*
X167831665Y-84745476D01*
X167831665Y-84745476D02*
X167784046Y-84935952D01*
X167784046Y-84935952D02*
X167784046Y-85269285D01*
X167784046Y-85269285D02*
X167831665Y-85459761D01*
X167831665Y-85459761D02*
X167926903Y-85555000D01*
X167926903Y-85555000D02*
X168022141Y-85602619D01*
X168022141Y-85602619D02*
X168212617Y-85602619D01*
X168212617Y-85602619D02*
X168307855Y-85555000D01*
X168307855Y-85555000D02*
X168403093Y-85459761D01*
X168403093Y-85459761D02*
X168450712Y-85269285D01*
X168450712Y-85269285D02*
X168450712Y-84935952D01*
X168450712Y-84935952D02*
X168403093Y-84745476D01*
X168403093Y-84745476D02*
X168307855Y-84650238D01*
X168307855Y-84650238D02*
X168212617Y-84602619D01*
X166784046Y-85507380D02*
X166831665Y-85555000D01*
X166831665Y-85555000D02*
X166974522Y-85602619D01*
X166974522Y-85602619D02*
X167069760Y-85602619D01*
X167069760Y-85602619D02*
X167212617Y-85555000D01*
X167212617Y-85555000D02*
X167307855Y-85459761D01*
X167307855Y-85459761D02*
X167355474Y-85364523D01*
X167355474Y-85364523D02*
X167403093Y-85174047D01*
X167403093Y-85174047D02*
X167403093Y-85031190D01*
X167403093Y-85031190D02*
X167355474Y-84840714D01*
X167355474Y-84840714D02*
X167307855Y-84745476D01*
X167307855Y-84745476D02*
X167212617Y-84650238D01*
X167212617Y-84650238D02*
X167069760Y-84602619D01*
X167069760Y-84602619D02*
X166974522Y-84602619D01*
X166974522Y-84602619D02*
X166831665Y-84650238D01*
X166831665Y-84650238D02*
X166784046Y-84697857D01*
X166355474Y-85602619D02*
X166355474Y-84602619D01*
X166355474Y-84602619D02*
X165974522Y-84602619D01*
X165974522Y-84602619D02*
X165879284Y-84650238D01*
X165879284Y-84650238D02*
X165831665Y-84697857D01*
X165831665Y-84697857D02*
X165784046Y-84793095D01*
X165784046Y-84793095D02*
X165784046Y-84935952D01*
X165784046Y-84935952D02*
X165831665Y-85031190D01*
X165831665Y-85031190D02*
X165879284Y-85078809D01*
X165879284Y-85078809D02*
X165974522Y-85126428D01*
X165974522Y-85126428D02*
X166355474Y-85126428D01*
X164403093Y-84602619D02*
X164307855Y-84602619D01*
X164307855Y-84602619D02*
X164212617Y-84650238D01*
X164212617Y-84650238D02*
X164164998Y-84697857D01*
X164164998Y-84697857D02*
X164117379Y-84793095D01*
X164117379Y-84793095D02*
X164069760Y-84983571D01*
X164069760Y-84983571D02*
X164069760Y-85221666D01*
X164069760Y-85221666D02*
X164117379Y-85412142D01*
X164117379Y-85412142D02*
X164164998Y-85507380D01*
X164164998Y-85507380D02*
X164212617Y-85555000D01*
X164212617Y-85555000D02*
X164307855Y-85602619D01*
X164307855Y-85602619D02*
X164403093Y-85602619D01*
X164403093Y-85602619D02*
X164498331Y-85555000D01*
X164498331Y-85555000D02*
X164545950Y-85507380D01*
X164545950Y-85507380D02*
X164593569Y-85412142D01*
X164593569Y-85412142D02*
X164641188Y-85221666D01*
X164641188Y-85221666D02*
X164641188Y-84983571D01*
X164641188Y-84983571D02*
X164593569Y-84793095D01*
X164593569Y-84793095D02*
X164545950Y-84697857D01*
X164545950Y-84697857D02*
X164498331Y-84650238D01*
X164498331Y-84650238D02*
X164403093Y-84602619D01*
X163641188Y-85507380D02*
X163593569Y-85555000D01*
X163593569Y-85555000D02*
X163641188Y-85602619D01*
X163641188Y-85602619D02*
X163688807Y-85555000D01*
X163688807Y-85555000D02*
X163641188Y-85507380D01*
X163641188Y-85507380D02*
X163641188Y-85602619D01*
X162641189Y-85602619D02*
X163212617Y-85602619D01*
X162926903Y-85602619D02*
X162926903Y-84602619D01*
X162926903Y-84602619D02*
X163022141Y-84745476D01*
X163022141Y-84745476D02*
X163117379Y-84840714D01*
X163117379Y-84840714D02*
X163212617Y-84888333D01*
X160482619Y-93178333D02*
X160006428Y-92845000D01*
X160482619Y-92606905D02*
X159482619Y-92606905D01*
X159482619Y-92606905D02*
X159482619Y-92987857D01*
X159482619Y-92987857D02*
X159530238Y-93083095D01*
X159530238Y-93083095D02*
X159577857Y-93130714D01*
X159577857Y-93130714D02*
X159673095Y-93178333D01*
X159673095Y-93178333D02*
X159815952Y-93178333D01*
X159815952Y-93178333D02*
X159911190Y-93130714D01*
X159911190Y-93130714D02*
X159958809Y-93083095D01*
X159958809Y-93083095D02*
X160006428Y-92987857D01*
X160006428Y-92987857D02*
X160006428Y-92606905D01*
X159482619Y-93511667D02*
X159482619Y-94178333D01*
X159482619Y-94178333D02*
X160482619Y-93749762D01*
D12*
X146685000Y-106299000D02*
X140462000Y-106299000D01*
X184404000Y-89916000D02*
X184404000Y-112522000D01*
X140462000Y-106299000D02*
X140462000Y-83693000D01*
X178181000Y-83693000D02*
X178181000Y-89916000D01*
X140462000Y-83693000D02*
X178181000Y-83693000D01*
X184404000Y-112522000D02*
X146685000Y-112522000D01*
X178181000Y-89916000D02*
X184404000Y-89916000D01*
X146685000Y-112522000D02*
X146685000Y-106299000D01*
M02*
