G04 #@! TF.FileFunction,Legend,Bot*
%FSLAX46Y46*%
G04 Gerber Fmt 4.6, Leading zero omitted, Abs format (unit mm)*
G04 Created by KiCad (PCBNEW 4.0.7) date 08/08/18 22:55:19*
%MOMM*%
%LPD*%
G01*
G04 APERTURE LIST*
%ADD10C,0.100000*%
%ADD11C,0.150000*%
%ADD12C,0.250000*%
%ADD13C,0.300000*%
G04 APERTURE END LIST*
D10*
D11*
X140462000Y-106299000D02*
X140462000Y-83693000D01*
X146685000Y-106299000D02*
X140462000Y-106299000D01*
X146685000Y-112522000D02*
X146685000Y-106299000D01*
X184404000Y-112522000D02*
X146685000Y-112522000D01*
X184404000Y-89916000D02*
X184404000Y-112522000D01*
X178181000Y-89916000D02*
X184404000Y-89916000D01*
X178181000Y-83693000D02*
X178181000Y-89916000D01*
X140462000Y-83693000D02*
X178181000Y-83693000D01*
D12*
X155905571Y-94631857D02*
X155957952Y-94684238D01*
X156115095Y-94736619D01*
X156219857Y-94736619D01*
X156376999Y-94684238D01*
X156481761Y-94579476D01*
X156534142Y-94474714D01*
X156586523Y-94265190D01*
X156586523Y-94108048D01*
X156534142Y-93898524D01*
X156481761Y-93793762D01*
X156376999Y-93689000D01*
X156219857Y-93636619D01*
X156115095Y-93636619D01*
X155957952Y-93689000D01*
X155905571Y-93741381D01*
X154962714Y-93636619D02*
X155172237Y-93636619D01*
X155276999Y-93689000D01*
X155329380Y-93741381D01*
X155434142Y-93898524D01*
X155486523Y-94108048D01*
X155486523Y-94527095D01*
X155434142Y-94631857D01*
X155381761Y-94684238D01*
X155276999Y-94736619D01*
X155067476Y-94736619D01*
X154962714Y-94684238D01*
X154910333Y-94631857D01*
X154857952Y-94527095D01*
X154857952Y-94265190D01*
X154910333Y-94160429D01*
X154962714Y-94108048D01*
X155067476Y-94055667D01*
X155276999Y-94055667D01*
X155381761Y-94108048D01*
X155434142Y-94160429D01*
X155486523Y-94265190D01*
X153915095Y-94003286D02*
X153915095Y-94736619D01*
X154176999Y-93584238D02*
X154438904Y-94369952D01*
X153757952Y-94369952D01*
X152553190Y-94684238D02*
X152396047Y-94736619D01*
X152134143Y-94736619D01*
X152029381Y-94684238D01*
X151977000Y-94631857D01*
X151924619Y-94527095D01*
X151924619Y-94422333D01*
X151977000Y-94317571D01*
X152029381Y-94265190D01*
X152134143Y-94212810D01*
X152343666Y-94160429D01*
X152448428Y-94108048D01*
X152500809Y-94055667D01*
X152553190Y-93950905D01*
X152553190Y-93846143D01*
X152500809Y-93741381D01*
X152448428Y-93689000D01*
X152343666Y-93636619D01*
X152081762Y-93636619D01*
X151924619Y-93689000D01*
X150981762Y-94736619D02*
X150981762Y-94160429D01*
X151034143Y-94055667D01*
X151138905Y-94003286D01*
X151348428Y-94003286D01*
X151453190Y-94055667D01*
X150981762Y-94684238D02*
X151086524Y-94736619D01*
X151348428Y-94736619D01*
X151453190Y-94684238D01*
X151505571Y-94579476D01*
X151505571Y-94474714D01*
X151453190Y-94369952D01*
X151348428Y-94317571D01*
X151086524Y-94317571D01*
X150981762Y-94265190D01*
X150562714Y-94003286D02*
X150300809Y-94736619D01*
X150038905Y-94003286D01*
X149200810Y-94684238D02*
X149305572Y-94736619D01*
X149515095Y-94736619D01*
X149619857Y-94684238D01*
X149672238Y-94579476D01*
X149672238Y-94160429D01*
X149619857Y-94055667D01*
X149515095Y-94003286D01*
X149305572Y-94003286D01*
X149200810Y-94055667D01*
X149148429Y-94160429D01*
X149148429Y-94265190D01*
X149672238Y-94369952D01*
X148677000Y-94736619D02*
X148677000Y-94003286D01*
X148677000Y-94212810D02*
X148624619Y-94108048D01*
X148572238Y-94055667D01*
X148467476Y-94003286D01*
X148362715Y-94003286D01*
X154805571Y-96636619D02*
X155172237Y-96112810D01*
X155434142Y-96636619D02*
X155434142Y-95536619D01*
X155015095Y-95536619D01*
X154910333Y-95589000D01*
X154857952Y-95641381D01*
X154805571Y-95746143D01*
X154805571Y-95903286D01*
X154857952Y-96008048D01*
X154910333Y-96060429D01*
X155015095Y-96112810D01*
X155434142Y-96112810D01*
X153915095Y-96584238D02*
X154019857Y-96636619D01*
X154229380Y-96636619D01*
X154334142Y-96584238D01*
X154386523Y-96479476D01*
X154386523Y-96060429D01*
X154334142Y-95955667D01*
X154229380Y-95903286D01*
X154019857Y-95903286D01*
X153915095Y-95955667D01*
X153862714Y-96060429D01*
X153862714Y-96165190D01*
X154386523Y-96269952D01*
X153496047Y-95903286D02*
X153234142Y-96636619D01*
X152972238Y-95903286D01*
X151767476Y-95641381D02*
X151715095Y-95589000D01*
X151610333Y-95536619D01*
X151348429Y-95536619D01*
X151243667Y-95589000D01*
X151191286Y-95641381D01*
X151138905Y-95746143D01*
X151138905Y-95850905D01*
X151191286Y-96008048D01*
X151819857Y-96636619D01*
X151138905Y-96636619D01*
X150667476Y-96531857D02*
X150615095Y-96584238D01*
X150667476Y-96636619D01*
X150719857Y-96584238D01*
X150667476Y-96531857D01*
X150667476Y-96636619D01*
X150196047Y-95641381D02*
X150143666Y-95589000D01*
X150038904Y-95536619D01*
X149777000Y-95536619D01*
X149672238Y-95589000D01*
X149619857Y-95641381D01*
X149567476Y-95746143D01*
X149567476Y-95850905D01*
X149619857Y-96008048D01*
X150248428Y-96636619D01*
X149567476Y-96636619D01*
X157162714Y-97960429D02*
X157005571Y-98012810D01*
X156953190Y-98065190D01*
X156900809Y-98169952D01*
X156900809Y-98327095D01*
X156953190Y-98431857D01*
X157005571Y-98484238D01*
X157110333Y-98536619D01*
X157529380Y-98536619D01*
X157529380Y-97436619D01*
X157162714Y-97436619D01*
X157057952Y-97489000D01*
X157005571Y-97541381D01*
X156953190Y-97646143D01*
X156953190Y-97750905D01*
X157005571Y-97855667D01*
X157057952Y-97908048D01*
X157162714Y-97960429D01*
X157529380Y-97960429D01*
X156534142Y-97436619D02*
X156272237Y-98536619D01*
X156062714Y-97750905D01*
X155853190Y-98536619D01*
X155591285Y-97436619D01*
X155224618Y-98222333D02*
X154700809Y-98222333D01*
X155329380Y-98536619D02*
X154962713Y-97436619D01*
X154596047Y-98536619D01*
X153600809Y-98431857D02*
X153653190Y-98484238D01*
X153810333Y-98536619D01*
X153915095Y-98536619D01*
X154072237Y-98484238D01*
X154176999Y-98379476D01*
X154229380Y-98274714D01*
X154281761Y-98065190D01*
X154281761Y-97908048D01*
X154229380Y-97698524D01*
X154176999Y-97593762D01*
X154072237Y-97489000D01*
X153915095Y-97436619D01*
X153810333Y-97436619D01*
X153653190Y-97489000D01*
X153600809Y-97541381D01*
X153129380Y-98536619D02*
X153129380Y-97436619D01*
X152500809Y-98536619D02*
X152972237Y-97908048D01*
X152500809Y-97436619D02*
X153129380Y-98065190D01*
X151243666Y-97541381D02*
X151191285Y-97489000D01*
X151086523Y-97436619D01*
X150824619Y-97436619D01*
X150719857Y-97489000D01*
X150667476Y-97541381D01*
X150615095Y-97646143D01*
X150615095Y-97750905D01*
X150667476Y-97908048D01*
X151296047Y-98536619D01*
X150615095Y-98536619D01*
X149934142Y-97436619D02*
X149829381Y-97436619D01*
X149724619Y-97489000D01*
X149672238Y-97541381D01*
X149619857Y-97646143D01*
X149567476Y-97855667D01*
X149567476Y-98117571D01*
X149619857Y-98327095D01*
X149672238Y-98431857D01*
X149724619Y-98484238D01*
X149829381Y-98536619D01*
X149934142Y-98536619D01*
X150038904Y-98484238D01*
X150091285Y-98431857D01*
X150143666Y-98327095D01*
X150196047Y-98117571D01*
X150196047Y-97855667D01*
X150143666Y-97646143D01*
X150091285Y-97541381D01*
X150038904Y-97489000D01*
X149934142Y-97436619D01*
X148519857Y-98536619D02*
X149148428Y-98536619D01*
X148834142Y-98536619D02*
X148834142Y-97436619D01*
X148938904Y-97593762D01*
X149043666Y-97698524D01*
X149148428Y-97750905D01*
X147891285Y-97908048D02*
X147996047Y-97855667D01*
X148048428Y-97803286D01*
X148100809Y-97698524D01*
X148100809Y-97646143D01*
X148048428Y-97541381D01*
X147996047Y-97489000D01*
X147891285Y-97436619D01*
X147681762Y-97436619D01*
X147577000Y-97489000D01*
X147524619Y-97541381D01*
X147472238Y-97646143D01*
X147472238Y-97698524D01*
X147524619Y-97803286D01*
X147577000Y-97855667D01*
X147681762Y-97908048D01*
X147891285Y-97908048D01*
X147996047Y-97960429D01*
X148048428Y-98012810D01*
X148100809Y-98117571D01*
X148100809Y-98327095D01*
X148048428Y-98431857D01*
X147996047Y-98484238D01*
X147891285Y-98536619D01*
X147681762Y-98536619D01*
X147577000Y-98484238D01*
X147524619Y-98431857D01*
X147472238Y-98327095D01*
X147472238Y-98117571D01*
X147524619Y-98012810D01*
X147577000Y-97960429D01*
X147681762Y-97908048D01*
D13*
X147885476Y-99030476D02*
X147885476Y-99268571D01*
X147825952Y-99387619D01*
X147766429Y-99447143D01*
X147587857Y-99566190D01*
X147349762Y-99625714D01*
X146873571Y-99625714D01*
X146754524Y-99566190D01*
X146695000Y-99506666D01*
X146635476Y-99387619D01*
X146635476Y-99149523D01*
X146695000Y-99030476D01*
X146754524Y-98970952D01*
X146873571Y-98911428D01*
X147171190Y-98911428D01*
X147290238Y-98970952D01*
X147349762Y-99030476D01*
X147409286Y-99149523D01*
X147409286Y-99387619D01*
X147349762Y-99506666D01*
X147290238Y-99566190D01*
X147171190Y-99625714D01*
X146635476Y-99982857D02*
X147885476Y-100399523D01*
X146635476Y-100816190D01*
X147528333Y-101173333D02*
X147528333Y-101768571D01*
X147885476Y-101054286D02*
X146635476Y-101470952D01*
X147885476Y-101887619D01*
X147766429Y-103018572D02*
X147825952Y-102959048D01*
X147885476Y-102780477D01*
X147885476Y-102661429D01*
X147825952Y-102482857D01*
X147706905Y-102363810D01*
X147587857Y-102304286D01*
X147349762Y-102244762D01*
X147171190Y-102244762D01*
X146933095Y-102304286D01*
X146814048Y-102363810D01*
X146695000Y-102482857D01*
X146635476Y-102661429D01*
X146635476Y-102780477D01*
X146695000Y-102959048D01*
X146754524Y-103018572D01*
X146695000Y-92392619D02*
X146635476Y-92273571D01*
X146635476Y-92095000D01*
X146695000Y-91916428D01*
X146814048Y-91797381D01*
X146933095Y-91737857D01*
X147171190Y-91678333D01*
X147349762Y-91678333D01*
X147587857Y-91737857D01*
X147706905Y-91797381D01*
X147825952Y-91916428D01*
X147885476Y-92095000D01*
X147885476Y-92214048D01*
X147825952Y-92392619D01*
X147766429Y-92452143D01*
X147349762Y-92452143D01*
X147349762Y-92214048D01*
X147885476Y-92987857D02*
X146635476Y-92987857D01*
X147885476Y-93702143D01*
X146635476Y-93702143D01*
X147885476Y-94297381D02*
X146635476Y-94297381D01*
X146635476Y-94595000D01*
X146695000Y-94773572D01*
X146814048Y-94892619D01*
X146933095Y-94952143D01*
X147171190Y-95011667D01*
X147349762Y-95011667D01*
X147587857Y-94952143D01*
X147706905Y-94892619D01*
X147825952Y-94773572D01*
X147885476Y-94595000D01*
X147885476Y-94297381D01*
X146635476Y-88153905D02*
X146635476Y-87558667D01*
X147230714Y-87499143D01*
X147171190Y-87558667D01*
X147111667Y-87677715D01*
X147111667Y-87975334D01*
X147171190Y-88094381D01*
X147230714Y-88153905D01*
X147349762Y-88213429D01*
X147647381Y-88213429D01*
X147766429Y-88153905D01*
X147825952Y-88094381D01*
X147885476Y-87975334D01*
X147885476Y-87677715D01*
X147825952Y-87558667D01*
X147766429Y-87499143D01*
X146635476Y-88570572D02*
X147885476Y-88987238D01*
X146635476Y-89403905D01*
X177976524Y-93329095D02*
X177976524Y-93924333D01*
X177381286Y-93983857D01*
X177440810Y-93924333D01*
X177500333Y-93805285D01*
X177500333Y-93507666D01*
X177440810Y-93388619D01*
X177381286Y-93329095D01*
X177262238Y-93269571D01*
X176964619Y-93269571D01*
X176845571Y-93329095D01*
X176786048Y-93388619D01*
X176726524Y-93507666D01*
X176726524Y-93805285D01*
X176786048Y-93924333D01*
X176845571Y-93983857D01*
X177976524Y-92912428D02*
X176726524Y-92495762D01*
X177976524Y-92079095D01*
X177917000Y-98869381D02*
X177976524Y-98988429D01*
X177976524Y-99167000D01*
X177917000Y-99345572D01*
X177797952Y-99464619D01*
X177678905Y-99524143D01*
X177440810Y-99583667D01*
X177262238Y-99583667D01*
X177024143Y-99524143D01*
X176905095Y-99464619D01*
X176786048Y-99345572D01*
X176726524Y-99167000D01*
X176726524Y-99047952D01*
X176786048Y-98869381D01*
X176845571Y-98809857D01*
X177262238Y-98809857D01*
X177262238Y-99047952D01*
X176726524Y-98274143D02*
X177976524Y-98274143D01*
X176726524Y-97559857D01*
X177976524Y-97559857D01*
X176726524Y-96964619D02*
X177976524Y-96964619D01*
X177976524Y-96667000D01*
X177917000Y-96488428D01*
X177797952Y-96369381D01*
X177678905Y-96309857D01*
X177440810Y-96250333D01*
X177262238Y-96250333D01*
X177024143Y-96309857D01*
X176905095Y-96369381D01*
X176786048Y-96488428D01*
X176726524Y-96667000D01*
X176726524Y-96964619D01*
X176726524Y-107217524D02*
X176726524Y-106979429D01*
X176786048Y-106860381D01*
X176845571Y-106800857D01*
X177024143Y-106681810D01*
X177262238Y-106622286D01*
X177738429Y-106622286D01*
X177857476Y-106681810D01*
X177917000Y-106741334D01*
X177976524Y-106860381D01*
X177976524Y-107098477D01*
X177917000Y-107217524D01*
X177857476Y-107277048D01*
X177738429Y-107336572D01*
X177440810Y-107336572D01*
X177321762Y-107277048D01*
X177262238Y-107217524D01*
X177202714Y-107098477D01*
X177202714Y-106860381D01*
X177262238Y-106741334D01*
X177321762Y-106681810D01*
X177440810Y-106622286D01*
X177976524Y-106265143D02*
X176726524Y-105848477D01*
X177976524Y-105431810D01*
X177083667Y-105074667D02*
X177083667Y-104479429D01*
X176726524Y-105193714D02*
X177976524Y-104777048D01*
X176726524Y-104360381D01*
X176845571Y-103229428D02*
X176786048Y-103288952D01*
X176726524Y-103467523D01*
X176726524Y-103586571D01*
X176786048Y-103765143D01*
X176905095Y-103884190D01*
X177024143Y-103943714D01*
X177262238Y-104003238D01*
X177440810Y-104003238D01*
X177678905Y-103943714D01*
X177797952Y-103884190D01*
X177917000Y-103765143D01*
X177976524Y-103586571D01*
X177976524Y-103467523D01*
X177917000Y-103288952D01*
X177857476Y-103229428D01*
M02*
