M48
;DRILL file {KiCad 4.0.7} date 08/08/18 22:55:24
;FORMAT={-:-/ absolute / inch / decimal}
FMAT,2
INCH,TZ
T1C0.024
T2C0.028
T3C0.031
T4C0.039
T5C0.060
T6C0.098
%
G90
G05
M72
T1
X5.92Y-3.6
X5.97Y-3.65
X6.02Y-3.6
X6.65Y-3.55
X6.65Y-3.6
X6.65Y-3.65
T2
X6.35Y-3.915
X6.35Y-4.115
X6.4Y-3.525
X6.4Y-3.725
X6.45Y-3.915
X6.45Y-4.115
X6.5Y-3.525
X6.5Y-3.725
X6.55Y-3.915
X6.55Y-4.115
X6.8Y-3.525
X6.8Y-3.725
T3
X5.9425Y-3.9622
X5.9425Y-4.1
X5.945Y-4.033
X6.0094Y-4.0311
X6.01Y-3.961
X6.01Y-4.102
X6.076Y-4.032
X6.0764Y-3.9622
X6.0764Y-4.102
X6.25Y-3.82
X6.25Y-4.12
X6.28Y-3.58
X6.28Y-3.6784
X6.45Y-3.82
X6.7Y-4.02
X6.75Y-3.82
X6.7984Y-4.02
T4
X5.85Y-4.35
X5.95Y-4.35
X6.05Y-4.35
X6.15Y-4.35
X6.2Y-3.4
X6.25Y-4.35
X6.3Y-3.4
X6.3Y-4.25
X6.35Y-4.35
X6.4Y-3.4
X6.4Y-4.25
X6.45Y-4.35
X6.5Y-3.4
X6.5Y-4.25
X6.55Y-4.35
X6.6Y-3.4
X6.6Y-4.25
X6.7Y-3.4
X6.8Y-3.4
X6.9Y-3.4
T5
X5.685Y-3.475
X5.685Y-3.675
X5.685Y-3.875
X5.685Y-4.075
X7.095Y-3.66
X7.095Y-3.86
X7.095Y-4.06
X7.095Y-4.26
T6
X6.0002Y-3.3999
X6.7874Y-4.3253
T0
M30
