G04 #@! TF.GenerationSoftware,KiCad,Pcbnew,7.0.1-3b83917a11~172~ubuntu20.04.1*
G04 #@! TF.CreationDate,2023-04-02T22:20:07+02:00*
G04 #@! TF.ProjectId,C64Saver2,43363453-6176-4657-9232-2e6b69636164,2.6*
G04 #@! TF.SameCoordinates,Original*
G04 #@! TF.FileFunction,Legend,Top*
G04 #@! TF.FilePolarity,Positive*
%FSLAX46Y46*%
G04 Gerber Fmt 4.6, Leading zero omitted, Abs format (unit mm)*
G04 Created by KiCad (PCBNEW 7.0.1-3b83917a11~172~ubuntu20.04.1) date 2023-04-02 22:20:07*
%MOMM*%
%LPD*%
G01*
G04 APERTURE LIST*
%ADD10C,0.300000*%
%ADD11C,0.150000*%
%ADD12C,0.120000*%
G04 #@! TA.AperFunction,Profile*
%ADD13C,0.150000*%
G04 #@! TD*
G04 APERTURE END LIST*
D10*
X146648273Y-88503094D02*
X146648273Y-89098332D01*
X146648273Y-89098332D02*
X147243511Y-89157856D01*
X147243511Y-89157856D02*
X147183988Y-89098332D01*
X147183988Y-89098332D02*
X147124464Y-88979285D01*
X147124464Y-88979285D02*
X147124464Y-88681666D01*
X147124464Y-88681666D02*
X147183988Y-88562618D01*
X147183988Y-88562618D02*
X147243511Y-88503094D01*
X147243511Y-88503094D02*
X147362559Y-88443571D01*
X147362559Y-88443571D02*
X147660178Y-88443571D01*
X147660178Y-88443571D02*
X147779226Y-88503094D01*
X147779226Y-88503094D02*
X147838750Y-88562618D01*
X147838750Y-88562618D02*
X147898273Y-88681666D01*
X147898273Y-88681666D02*
X147898273Y-88979285D01*
X147898273Y-88979285D02*
X147838750Y-89098332D01*
X147838750Y-89098332D02*
X147779226Y-89157856D01*
X146648273Y-88086428D02*
X147898273Y-87669761D01*
X147898273Y-87669761D02*
X146648273Y-87253095D01*
X146707797Y-94297381D02*
X146648273Y-94416428D01*
X146648273Y-94416428D02*
X146648273Y-94595000D01*
X146648273Y-94595000D02*
X146707797Y-94773571D01*
X146707797Y-94773571D02*
X146826845Y-94892619D01*
X146826845Y-94892619D02*
X146945892Y-94952142D01*
X146945892Y-94952142D02*
X147183988Y-95011666D01*
X147183988Y-95011666D02*
X147362559Y-95011666D01*
X147362559Y-95011666D02*
X147600654Y-94952142D01*
X147600654Y-94952142D02*
X147719702Y-94892619D01*
X147719702Y-94892619D02*
X147838750Y-94773571D01*
X147838750Y-94773571D02*
X147898273Y-94595000D01*
X147898273Y-94595000D02*
X147898273Y-94475952D01*
X147898273Y-94475952D02*
X147838750Y-94297381D01*
X147838750Y-94297381D02*
X147779226Y-94237857D01*
X147779226Y-94237857D02*
X147362559Y-94237857D01*
X147362559Y-94237857D02*
X147362559Y-94475952D01*
X147898273Y-93702142D02*
X146648273Y-93702142D01*
X146648273Y-93702142D02*
X147898273Y-92987857D01*
X147898273Y-92987857D02*
X146648273Y-92987857D01*
X147898273Y-92392618D02*
X146648273Y-92392618D01*
X146648273Y-92392618D02*
X146648273Y-92094999D01*
X146648273Y-92094999D02*
X146707797Y-91916428D01*
X146707797Y-91916428D02*
X146826845Y-91797380D01*
X146826845Y-91797380D02*
X146945892Y-91737857D01*
X146945892Y-91737857D02*
X147183988Y-91678333D01*
X147183988Y-91678333D02*
X147362559Y-91678333D01*
X147362559Y-91678333D02*
X147600654Y-91737857D01*
X147600654Y-91737857D02*
X147719702Y-91797380D01*
X147719702Y-91797380D02*
X147838750Y-91916428D01*
X147838750Y-91916428D02*
X147898273Y-92094999D01*
X147898273Y-92094999D02*
X147898273Y-92392618D01*
X147898273Y-103026524D02*
X147898273Y-102788428D01*
X147898273Y-102788428D02*
X147838750Y-102669381D01*
X147838750Y-102669381D02*
X147779226Y-102609857D01*
X147779226Y-102609857D02*
X147600654Y-102490809D01*
X147600654Y-102490809D02*
X147362559Y-102431286D01*
X147362559Y-102431286D02*
X146886369Y-102431286D01*
X146886369Y-102431286D02*
X146767321Y-102490809D01*
X146767321Y-102490809D02*
X146707797Y-102550333D01*
X146707797Y-102550333D02*
X146648273Y-102669381D01*
X146648273Y-102669381D02*
X146648273Y-102907476D01*
X146648273Y-102907476D02*
X146707797Y-103026524D01*
X146707797Y-103026524D02*
X146767321Y-103086047D01*
X146767321Y-103086047D02*
X146886369Y-103145571D01*
X146886369Y-103145571D02*
X147183988Y-103145571D01*
X147183988Y-103145571D02*
X147303035Y-103086047D01*
X147303035Y-103086047D02*
X147362559Y-103026524D01*
X147362559Y-103026524D02*
X147422083Y-102907476D01*
X147422083Y-102907476D02*
X147422083Y-102669381D01*
X147422083Y-102669381D02*
X147362559Y-102550333D01*
X147362559Y-102550333D02*
X147303035Y-102490809D01*
X147303035Y-102490809D02*
X147183988Y-102431286D01*
X146648273Y-102074143D02*
X147898273Y-101657476D01*
X147898273Y-101657476D02*
X146648273Y-101240810D01*
X147541130Y-100883666D02*
X147541130Y-100288428D01*
X147898273Y-101002714D02*
X146648273Y-100586047D01*
X146648273Y-100586047D02*
X147898273Y-100169381D01*
X147779226Y-99038428D02*
X147838750Y-99097952D01*
X147838750Y-99097952D02*
X147898273Y-99276523D01*
X147898273Y-99276523D02*
X147898273Y-99395571D01*
X147898273Y-99395571D02*
X147838750Y-99574142D01*
X147838750Y-99574142D02*
X147719702Y-99693190D01*
X147719702Y-99693190D02*
X147600654Y-99752713D01*
X147600654Y-99752713D02*
X147362559Y-99812237D01*
X147362559Y-99812237D02*
X147183988Y-99812237D01*
X147183988Y-99812237D02*
X146945892Y-99752713D01*
X146945892Y-99752713D02*
X146826845Y-99693190D01*
X146826845Y-99693190D02*
X146707797Y-99574142D01*
X146707797Y-99574142D02*
X146648273Y-99395571D01*
X146648273Y-99395571D02*
X146648273Y-99276523D01*
X146648273Y-99276523D02*
X146707797Y-99097952D01*
X146707797Y-99097952D02*
X146767321Y-99038428D01*
X148545928Y-105385999D02*
X148545928Y-105100285D01*
X148545928Y-105100285D02*
X148617357Y-104957428D01*
X148617357Y-104957428D02*
X148760214Y-104814571D01*
X148760214Y-104814571D02*
X149045928Y-104743142D01*
X149045928Y-104743142D02*
X149545928Y-104743142D01*
X149545928Y-104743142D02*
X149831642Y-104814571D01*
X149831642Y-104814571D02*
X149974500Y-104957428D01*
X149974500Y-104957428D02*
X150045928Y-105100285D01*
X150045928Y-105100285D02*
X150045928Y-105385999D01*
X150045928Y-105385999D02*
X149974500Y-105528857D01*
X149974500Y-105528857D02*
X149831642Y-105671714D01*
X149831642Y-105671714D02*
X149545928Y-105743142D01*
X149545928Y-105743142D02*
X149045928Y-105743142D01*
X149045928Y-105743142D02*
X148760214Y-105671714D01*
X148760214Y-105671714D02*
X148617357Y-105528857D01*
X148617357Y-105528857D02*
X148545928Y-105385999D01*
X148545928Y-104100285D02*
X149760214Y-104100285D01*
X149760214Y-104100285D02*
X149903071Y-104028856D01*
X149903071Y-104028856D02*
X149974500Y-103957428D01*
X149974500Y-103957428D02*
X150045928Y-103814570D01*
X150045928Y-103814570D02*
X150045928Y-103528856D01*
X150045928Y-103528856D02*
X149974500Y-103385999D01*
X149974500Y-103385999D02*
X149903071Y-103314570D01*
X149903071Y-103314570D02*
X149760214Y-103243142D01*
X149760214Y-103243142D02*
X148545928Y-103243142D01*
X148545928Y-102743141D02*
X148545928Y-101885999D01*
X150045928Y-102314570D02*
X148545928Y-102314570D01*
X176461928Y-108354714D02*
X174961928Y-108354714D01*
X176461928Y-107640428D02*
X174961928Y-107640428D01*
X174961928Y-107640428D02*
X176461928Y-106783285D01*
X176461928Y-106783285D02*
X174961928Y-106783285D01*
X178285202Y-96964618D02*
X178344726Y-96845571D01*
X178344726Y-96845571D02*
X178344726Y-96666999D01*
X178344726Y-96666999D02*
X178285202Y-96488428D01*
X178285202Y-96488428D02*
X178166154Y-96369380D01*
X178166154Y-96369380D02*
X178047107Y-96309857D01*
X178047107Y-96309857D02*
X177809011Y-96250333D01*
X177809011Y-96250333D02*
X177630440Y-96250333D01*
X177630440Y-96250333D02*
X177392345Y-96309857D01*
X177392345Y-96309857D02*
X177273297Y-96369380D01*
X177273297Y-96369380D02*
X177154250Y-96488428D01*
X177154250Y-96488428D02*
X177094726Y-96666999D01*
X177094726Y-96666999D02*
X177094726Y-96786047D01*
X177094726Y-96786047D02*
X177154250Y-96964618D01*
X177154250Y-96964618D02*
X177213773Y-97024142D01*
X177213773Y-97024142D02*
X177630440Y-97024142D01*
X177630440Y-97024142D02*
X177630440Y-96786047D01*
X177094726Y-97559857D02*
X178344726Y-97559857D01*
X178344726Y-97559857D02*
X177094726Y-98274142D01*
X177094726Y-98274142D02*
X178344726Y-98274142D01*
X177094726Y-98869381D02*
X178344726Y-98869381D01*
X178344726Y-98869381D02*
X178344726Y-99167000D01*
X178344726Y-99167000D02*
X178285202Y-99345571D01*
X178285202Y-99345571D02*
X178166154Y-99464619D01*
X178166154Y-99464619D02*
X178047107Y-99524142D01*
X178047107Y-99524142D02*
X177809011Y-99583666D01*
X177809011Y-99583666D02*
X177630440Y-99583666D01*
X177630440Y-99583666D02*
X177392345Y-99524142D01*
X177392345Y-99524142D02*
X177273297Y-99464619D01*
X177273297Y-99464619D02*
X177154250Y-99345571D01*
X177154250Y-99345571D02*
X177094726Y-99167000D01*
X177094726Y-99167000D02*
X177094726Y-98869381D01*
X177094726Y-103348475D02*
X177094726Y-103586571D01*
X177094726Y-103586571D02*
X177154250Y-103705618D01*
X177154250Y-103705618D02*
X177213773Y-103765142D01*
X177213773Y-103765142D02*
X177392345Y-103884190D01*
X177392345Y-103884190D02*
X177630440Y-103943713D01*
X177630440Y-103943713D02*
X178106630Y-103943713D01*
X178106630Y-103943713D02*
X178225678Y-103884190D01*
X178225678Y-103884190D02*
X178285202Y-103824666D01*
X178285202Y-103824666D02*
X178344726Y-103705618D01*
X178344726Y-103705618D02*
X178344726Y-103467523D01*
X178344726Y-103467523D02*
X178285202Y-103348475D01*
X178285202Y-103348475D02*
X178225678Y-103288952D01*
X178225678Y-103288952D02*
X178106630Y-103229428D01*
X178106630Y-103229428D02*
X177809011Y-103229428D01*
X177809011Y-103229428D02*
X177689964Y-103288952D01*
X177689964Y-103288952D02*
X177630440Y-103348475D01*
X177630440Y-103348475D02*
X177570916Y-103467523D01*
X177570916Y-103467523D02*
X177570916Y-103705618D01*
X177570916Y-103705618D02*
X177630440Y-103824666D01*
X177630440Y-103824666D02*
X177689964Y-103884190D01*
X177689964Y-103884190D02*
X177809011Y-103943713D01*
X178344726Y-104300856D02*
X177094726Y-104717523D01*
X177094726Y-104717523D02*
X178344726Y-105134189D01*
X177451869Y-105491333D02*
X177451869Y-106086571D01*
X177094726Y-105372285D02*
X178344726Y-105788952D01*
X178344726Y-105788952D02*
X177094726Y-106205618D01*
X177213773Y-107336571D02*
X177154250Y-107277047D01*
X177154250Y-107277047D02*
X177094726Y-107098476D01*
X177094726Y-107098476D02*
X177094726Y-106979428D01*
X177094726Y-106979428D02*
X177154250Y-106800857D01*
X177154250Y-106800857D02*
X177273297Y-106681809D01*
X177273297Y-106681809D02*
X177392345Y-106622286D01*
X177392345Y-106622286D02*
X177630440Y-106562762D01*
X177630440Y-106562762D02*
X177809011Y-106562762D01*
X177809011Y-106562762D02*
X178047107Y-106622286D01*
X178047107Y-106622286D02*
X178166154Y-106681809D01*
X178166154Y-106681809D02*
X178285202Y-106800857D01*
X178285202Y-106800857D02*
X178344726Y-106979428D01*
X178344726Y-106979428D02*
X178344726Y-107098476D01*
X178344726Y-107098476D02*
X178285202Y-107277047D01*
X178285202Y-107277047D02*
X178225678Y-107336571D01*
X178344726Y-92725905D02*
X178344726Y-92130667D01*
X178344726Y-92130667D02*
X177749488Y-92071143D01*
X177749488Y-92071143D02*
X177809011Y-92130667D01*
X177809011Y-92130667D02*
X177868535Y-92249714D01*
X177868535Y-92249714D02*
X177868535Y-92547333D01*
X177868535Y-92547333D02*
X177809011Y-92666381D01*
X177809011Y-92666381D02*
X177749488Y-92725905D01*
X177749488Y-92725905D02*
X177630440Y-92785428D01*
X177630440Y-92785428D02*
X177332821Y-92785428D01*
X177332821Y-92785428D02*
X177213773Y-92725905D01*
X177213773Y-92725905D02*
X177154250Y-92666381D01*
X177154250Y-92666381D02*
X177094726Y-92547333D01*
X177094726Y-92547333D02*
X177094726Y-92249714D01*
X177094726Y-92249714D02*
X177154250Y-92130667D01*
X177154250Y-92130667D02*
X177213773Y-92071143D01*
X178344726Y-93142571D02*
X177094726Y-93559238D01*
X177094726Y-93559238D02*
X178344726Y-93975904D01*
D11*
X141271666Y-84171619D02*
X141271666Y-84885904D01*
X141271666Y-84885904D02*
X141224047Y-85028761D01*
X141224047Y-85028761D02*
X141128809Y-85124000D01*
X141128809Y-85124000D02*
X140985952Y-85171619D01*
X140985952Y-85171619D02*
X140890714Y-85171619D01*
X142176428Y-84171619D02*
X141985952Y-84171619D01*
X141985952Y-84171619D02*
X141890714Y-84219238D01*
X141890714Y-84219238D02*
X141843095Y-84266857D01*
X141843095Y-84266857D02*
X141747857Y-84409714D01*
X141747857Y-84409714D02*
X141700238Y-84600190D01*
X141700238Y-84600190D02*
X141700238Y-84981142D01*
X141700238Y-84981142D02*
X141747857Y-85076380D01*
X141747857Y-85076380D02*
X141795476Y-85124000D01*
X141795476Y-85124000D02*
X141890714Y-85171619D01*
X141890714Y-85171619D02*
X142081190Y-85171619D01*
X142081190Y-85171619D02*
X142176428Y-85124000D01*
X142176428Y-85124000D02*
X142224047Y-85076380D01*
X142224047Y-85076380D02*
X142271666Y-84981142D01*
X142271666Y-84981142D02*
X142271666Y-84743047D01*
X142271666Y-84743047D02*
X142224047Y-84647809D01*
X142224047Y-84647809D02*
X142176428Y-84600190D01*
X142176428Y-84600190D02*
X142081190Y-84552571D01*
X142081190Y-84552571D02*
X141890714Y-84552571D01*
X141890714Y-84552571D02*
X141795476Y-84600190D01*
X141795476Y-84600190D02*
X141747857Y-84647809D01*
X141747857Y-84647809D02*
X141700238Y-84743047D01*
X177184726Y-111222619D02*
X177184726Y-111936904D01*
X177184726Y-111936904D02*
X177137107Y-112079761D01*
X177137107Y-112079761D02*
X177041869Y-112175000D01*
X177041869Y-112175000D02*
X176899012Y-112222619D01*
X176899012Y-112222619D02*
X176803774Y-112222619D01*
X178184726Y-112222619D02*
X177613298Y-112222619D01*
X177899012Y-112222619D02*
X177899012Y-111222619D01*
X177899012Y-111222619D02*
X177803774Y-111365476D01*
X177803774Y-111365476D02*
X177708536Y-111460714D01*
X177708536Y-111460714D02*
X177613298Y-111508333D01*
X175432269Y-96290470D02*
X175384650Y-96338090D01*
X175384650Y-96338090D02*
X175241793Y-96385709D01*
X175241793Y-96385709D02*
X175146555Y-96385709D01*
X175146555Y-96385709D02*
X175003698Y-96338090D01*
X175003698Y-96338090D02*
X174908460Y-96242851D01*
X174908460Y-96242851D02*
X174860841Y-96147613D01*
X174860841Y-96147613D02*
X174813222Y-95957137D01*
X174813222Y-95957137D02*
X174813222Y-95814280D01*
X174813222Y-95814280D02*
X174860841Y-95623804D01*
X174860841Y-95623804D02*
X174908460Y-95528566D01*
X174908460Y-95528566D02*
X175003698Y-95433328D01*
X175003698Y-95433328D02*
X175146555Y-95385709D01*
X175146555Y-95385709D02*
X175241793Y-95385709D01*
X175241793Y-95385709D02*
X175384650Y-95433328D01*
X175384650Y-95433328D02*
X175432269Y-95480947D01*
X176384650Y-96385709D02*
X175813222Y-96385709D01*
X176098936Y-96385709D02*
X176098936Y-95385709D01*
X176098936Y-95385709D02*
X176003698Y-95528566D01*
X176003698Y-95528566D02*
X175908460Y-95623804D01*
X175908460Y-95623804D02*
X175813222Y-95671423D01*
X149380361Y-88822857D02*
X149285123Y-88775238D01*
X149285123Y-88775238D02*
X149189885Y-88680000D01*
X149189885Y-88680000D02*
X149047028Y-88537142D01*
X149047028Y-88537142D02*
X148951790Y-88489523D01*
X148951790Y-88489523D02*
X148856552Y-88489523D01*
X148904171Y-88727619D02*
X148808933Y-88680000D01*
X148808933Y-88680000D02*
X148713695Y-88584761D01*
X148713695Y-88584761D02*
X148666076Y-88394285D01*
X148666076Y-88394285D02*
X148666076Y-88060952D01*
X148666076Y-88060952D02*
X148713695Y-87870476D01*
X148713695Y-87870476D02*
X148808933Y-87775238D01*
X148808933Y-87775238D02*
X148904171Y-87727619D01*
X148904171Y-87727619D02*
X149094647Y-87727619D01*
X149094647Y-87727619D02*
X149189885Y-87775238D01*
X149189885Y-87775238D02*
X149285123Y-87870476D01*
X149285123Y-87870476D02*
X149332742Y-88060952D01*
X149332742Y-88060952D02*
X149332742Y-88394285D01*
X149332742Y-88394285D02*
X149285123Y-88584761D01*
X149285123Y-88584761D02*
X149189885Y-88680000D01*
X149189885Y-88680000D02*
X149094647Y-88727619D01*
X149094647Y-88727619D02*
X148904171Y-88727619D01*
X149713695Y-87822857D02*
X149761314Y-87775238D01*
X149761314Y-87775238D02*
X149856552Y-87727619D01*
X149856552Y-87727619D02*
X150094647Y-87727619D01*
X150094647Y-87727619D02*
X150189885Y-87775238D01*
X150189885Y-87775238D02*
X150237504Y-87822857D01*
X150237504Y-87822857D02*
X150285123Y-87918095D01*
X150285123Y-87918095D02*
X150285123Y-88013333D01*
X150285123Y-88013333D02*
X150237504Y-88156190D01*
X150237504Y-88156190D02*
X149666076Y-88727619D01*
X149666076Y-88727619D02*
X150285123Y-88727619D01*
X154816666Y-85822619D02*
X154816666Y-86536904D01*
X154816666Y-86536904D02*
X154769047Y-86679761D01*
X154769047Y-86679761D02*
X154673809Y-86775000D01*
X154673809Y-86775000D02*
X154530952Y-86822619D01*
X154530952Y-86822619D02*
X154435714Y-86822619D01*
X155245238Y-85917857D02*
X155292857Y-85870238D01*
X155292857Y-85870238D02*
X155388095Y-85822619D01*
X155388095Y-85822619D02*
X155626190Y-85822619D01*
X155626190Y-85822619D02*
X155721428Y-85870238D01*
X155721428Y-85870238D02*
X155769047Y-85917857D01*
X155769047Y-85917857D02*
X155816666Y-86013095D01*
X155816666Y-86013095D02*
X155816666Y-86108333D01*
X155816666Y-86108333D02*
X155769047Y-86251190D01*
X155769047Y-86251190D02*
X155197619Y-86822619D01*
X155197619Y-86822619D02*
X155816666Y-86822619D01*
X168449666Y-110079619D02*
X168449666Y-110793904D01*
X168449666Y-110793904D02*
X168402047Y-110936761D01*
X168402047Y-110936761D02*
X168306809Y-111032000D01*
X168306809Y-111032000D02*
X168163952Y-111079619D01*
X168163952Y-111079619D02*
X168068714Y-111079619D01*
X169354428Y-110412952D02*
X169354428Y-111079619D01*
X169116333Y-110032000D02*
X168878238Y-110746285D01*
X168878238Y-110746285D02*
X169497285Y-110746285D01*
X169719666Y-107539619D02*
X169719666Y-108253904D01*
X169719666Y-108253904D02*
X169672047Y-108396761D01*
X169672047Y-108396761D02*
X169576809Y-108492000D01*
X169576809Y-108492000D02*
X169433952Y-108539619D01*
X169433952Y-108539619D02*
X169338714Y-108539619D01*
X170672047Y-107539619D02*
X170195857Y-107539619D01*
X170195857Y-107539619D02*
X170148238Y-108015809D01*
X170148238Y-108015809D02*
X170195857Y-107968190D01*
X170195857Y-107968190D02*
X170291095Y-107920571D01*
X170291095Y-107920571D02*
X170529190Y-107920571D01*
X170529190Y-107920571D02*
X170624428Y-107968190D01*
X170624428Y-107968190D02*
X170672047Y-108015809D01*
X170672047Y-108015809D02*
X170719666Y-108111047D01*
X170719666Y-108111047D02*
X170719666Y-108349142D01*
X170719666Y-108349142D02*
X170672047Y-108444380D01*
X170672047Y-108444380D02*
X170624428Y-108492000D01*
X170624428Y-108492000D02*
X170529190Y-108539619D01*
X170529190Y-108539619D02*
X170291095Y-108539619D01*
X170291095Y-108539619D02*
X170195857Y-108492000D01*
X170195857Y-108492000D02*
X170148238Y-108444380D01*
X175087619Y-91987666D02*
X174611428Y-92320999D01*
X175087619Y-92559094D02*
X174087619Y-92559094D01*
X174087619Y-92559094D02*
X174087619Y-92178142D01*
X174087619Y-92178142D02*
X174135238Y-92082904D01*
X174135238Y-92082904D02*
X174182857Y-92035285D01*
X174182857Y-92035285D02*
X174278095Y-91987666D01*
X174278095Y-91987666D02*
X174420952Y-91987666D01*
X174420952Y-91987666D02*
X174516190Y-92035285D01*
X174516190Y-92035285D02*
X174563809Y-92082904D01*
X174563809Y-92082904D02*
X174611428Y-92178142D01*
X174611428Y-92178142D02*
X174611428Y-92559094D01*
X175087619Y-91035285D02*
X175087619Y-91606713D01*
X175087619Y-91320999D02*
X174087619Y-91320999D01*
X174087619Y-91320999D02*
X174230476Y-91416237D01*
X174230476Y-91416237D02*
X174325714Y-91511475D01*
X174325714Y-91511475D02*
X174373333Y-91606713D01*
X172928619Y-92063866D02*
X172452428Y-92397199D01*
X172928619Y-92635294D02*
X171928619Y-92635294D01*
X171928619Y-92635294D02*
X171928619Y-92254342D01*
X171928619Y-92254342D02*
X171976238Y-92159104D01*
X171976238Y-92159104D02*
X172023857Y-92111485D01*
X172023857Y-92111485D02*
X172119095Y-92063866D01*
X172119095Y-92063866D02*
X172261952Y-92063866D01*
X172261952Y-92063866D02*
X172357190Y-92111485D01*
X172357190Y-92111485D02*
X172404809Y-92159104D01*
X172404809Y-92159104D02*
X172452428Y-92254342D01*
X172452428Y-92254342D02*
X172452428Y-92635294D01*
X172023857Y-91682913D02*
X171976238Y-91635294D01*
X171976238Y-91635294D02*
X171928619Y-91540056D01*
X171928619Y-91540056D02*
X171928619Y-91301961D01*
X171928619Y-91301961D02*
X171976238Y-91206723D01*
X171976238Y-91206723D02*
X172023857Y-91159104D01*
X172023857Y-91159104D02*
X172119095Y-91111485D01*
X172119095Y-91111485D02*
X172214333Y-91111485D01*
X172214333Y-91111485D02*
X172357190Y-91159104D01*
X172357190Y-91159104D02*
X172928619Y-91730532D01*
X172928619Y-91730532D02*
X172928619Y-91111485D01*
X170642619Y-91987666D02*
X170166428Y-92320999D01*
X170642619Y-92559094D02*
X169642619Y-92559094D01*
X169642619Y-92559094D02*
X169642619Y-92178142D01*
X169642619Y-92178142D02*
X169690238Y-92082904D01*
X169690238Y-92082904D02*
X169737857Y-92035285D01*
X169737857Y-92035285D02*
X169833095Y-91987666D01*
X169833095Y-91987666D02*
X169975952Y-91987666D01*
X169975952Y-91987666D02*
X170071190Y-92035285D01*
X170071190Y-92035285D02*
X170118809Y-92082904D01*
X170118809Y-92082904D02*
X170166428Y-92178142D01*
X170166428Y-92178142D02*
X170166428Y-92559094D01*
X169642619Y-91654332D02*
X169642619Y-91035285D01*
X169642619Y-91035285D02*
X170023571Y-91368618D01*
X170023571Y-91368618D02*
X170023571Y-91225761D01*
X170023571Y-91225761D02*
X170071190Y-91130523D01*
X170071190Y-91130523D02*
X170118809Y-91082904D01*
X170118809Y-91082904D02*
X170214047Y-91035285D01*
X170214047Y-91035285D02*
X170452142Y-91035285D01*
X170452142Y-91035285D02*
X170547380Y-91082904D01*
X170547380Y-91082904D02*
X170595000Y-91130523D01*
X170595000Y-91130523D02*
X170642619Y-91225761D01*
X170642619Y-91225761D02*
X170642619Y-91511475D01*
X170642619Y-91511475D02*
X170595000Y-91606713D01*
X170595000Y-91606713D02*
X170547380Y-91654332D01*
X163657619Y-91860666D02*
X163181428Y-92193999D01*
X163657619Y-92432094D02*
X162657619Y-92432094D01*
X162657619Y-92432094D02*
X162657619Y-92051142D01*
X162657619Y-92051142D02*
X162705238Y-91955904D01*
X162705238Y-91955904D02*
X162752857Y-91908285D01*
X162752857Y-91908285D02*
X162848095Y-91860666D01*
X162848095Y-91860666D02*
X162990952Y-91860666D01*
X162990952Y-91860666D02*
X163086190Y-91908285D01*
X163086190Y-91908285D02*
X163133809Y-91955904D01*
X163133809Y-91955904D02*
X163181428Y-92051142D01*
X163181428Y-92051142D02*
X163181428Y-92432094D01*
X162990952Y-91003523D02*
X163657619Y-91003523D01*
X162610000Y-91241618D02*
X163324285Y-91479713D01*
X163324285Y-91479713D02*
X163324285Y-90860666D01*
X168229619Y-91987666D02*
X167753428Y-92320999D01*
X168229619Y-92559094D02*
X167229619Y-92559094D01*
X167229619Y-92559094D02*
X167229619Y-92178142D01*
X167229619Y-92178142D02*
X167277238Y-92082904D01*
X167277238Y-92082904D02*
X167324857Y-92035285D01*
X167324857Y-92035285D02*
X167420095Y-91987666D01*
X167420095Y-91987666D02*
X167562952Y-91987666D01*
X167562952Y-91987666D02*
X167658190Y-92035285D01*
X167658190Y-92035285D02*
X167705809Y-92082904D01*
X167705809Y-92082904D02*
X167753428Y-92178142D01*
X167753428Y-92178142D02*
X167753428Y-92559094D01*
X167229619Y-91082904D02*
X167229619Y-91559094D01*
X167229619Y-91559094D02*
X167705809Y-91606713D01*
X167705809Y-91606713D02*
X167658190Y-91559094D01*
X167658190Y-91559094D02*
X167610571Y-91463856D01*
X167610571Y-91463856D02*
X167610571Y-91225761D01*
X167610571Y-91225761D02*
X167658190Y-91130523D01*
X167658190Y-91130523D02*
X167705809Y-91082904D01*
X167705809Y-91082904D02*
X167801047Y-91035285D01*
X167801047Y-91035285D02*
X168039142Y-91035285D01*
X168039142Y-91035285D02*
X168134380Y-91082904D01*
X168134380Y-91082904D02*
X168182000Y-91130523D01*
X168182000Y-91130523D02*
X168229619Y-91225761D01*
X168229619Y-91225761D02*
X168229619Y-91463856D01*
X168229619Y-91463856D02*
X168182000Y-91559094D01*
X168182000Y-91559094D02*
X168134380Y-91606713D01*
X161244619Y-91860666D02*
X160768428Y-92193999D01*
X161244619Y-92432094D02*
X160244619Y-92432094D01*
X160244619Y-92432094D02*
X160244619Y-92051142D01*
X160244619Y-92051142D02*
X160292238Y-91955904D01*
X160292238Y-91955904D02*
X160339857Y-91908285D01*
X160339857Y-91908285D02*
X160435095Y-91860666D01*
X160435095Y-91860666D02*
X160577952Y-91860666D01*
X160577952Y-91860666D02*
X160673190Y-91908285D01*
X160673190Y-91908285D02*
X160720809Y-91955904D01*
X160720809Y-91955904D02*
X160768428Y-92051142D01*
X160768428Y-92051142D02*
X160768428Y-92432094D01*
X160244619Y-91003523D02*
X160244619Y-91193999D01*
X160244619Y-91193999D02*
X160292238Y-91289237D01*
X160292238Y-91289237D02*
X160339857Y-91336856D01*
X160339857Y-91336856D02*
X160482714Y-91432094D01*
X160482714Y-91432094D02*
X160673190Y-91479713D01*
X160673190Y-91479713D02*
X161054142Y-91479713D01*
X161054142Y-91479713D02*
X161149380Y-91432094D01*
X161149380Y-91432094D02*
X161197000Y-91384475D01*
X161197000Y-91384475D02*
X161244619Y-91289237D01*
X161244619Y-91289237D02*
X161244619Y-91098761D01*
X161244619Y-91098761D02*
X161197000Y-91003523D01*
X161197000Y-91003523D02*
X161149380Y-90955904D01*
X161149380Y-90955904D02*
X161054142Y-90908285D01*
X161054142Y-90908285D02*
X160816047Y-90908285D01*
X160816047Y-90908285D02*
X160720809Y-90955904D01*
X160720809Y-90955904D02*
X160673190Y-91003523D01*
X160673190Y-91003523D02*
X160625571Y-91098761D01*
X160625571Y-91098761D02*
X160625571Y-91289237D01*
X160625571Y-91289237D02*
X160673190Y-91384475D01*
X160673190Y-91384475D02*
X160720809Y-91432094D01*
X160720809Y-91432094D02*
X160816047Y-91479713D01*
X157053619Y-103671666D02*
X156577428Y-104004999D01*
X157053619Y-104243094D02*
X156053619Y-104243094D01*
X156053619Y-104243094D02*
X156053619Y-103862142D01*
X156053619Y-103862142D02*
X156101238Y-103766904D01*
X156101238Y-103766904D02*
X156148857Y-103719285D01*
X156148857Y-103719285D02*
X156244095Y-103671666D01*
X156244095Y-103671666D02*
X156386952Y-103671666D01*
X156386952Y-103671666D02*
X156482190Y-103719285D01*
X156482190Y-103719285D02*
X156529809Y-103766904D01*
X156529809Y-103766904D02*
X156577428Y-103862142D01*
X156577428Y-103862142D02*
X156577428Y-104243094D01*
X156053619Y-103338332D02*
X156053619Y-102671666D01*
X156053619Y-102671666D02*
X157053619Y-103100237D01*
X166019819Y-91962266D02*
X165543628Y-92295599D01*
X166019819Y-92533694D02*
X165019819Y-92533694D01*
X165019819Y-92533694D02*
X165019819Y-92152742D01*
X165019819Y-92152742D02*
X165067438Y-92057504D01*
X165067438Y-92057504D02*
X165115057Y-92009885D01*
X165115057Y-92009885D02*
X165210295Y-91962266D01*
X165210295Y-91962266D02*
X165353152Y-91962266D01*
X165353152Y-91962266D02*
X165448390Y-92009885D01*
X165448390Y-92009885D02*
X165496009Y-92057504D01*
X165496009Y-92057504D02*
X165543628Y-92152742D01*
X165543628Y-92152742D02*
X165543628Y-92533694D01*
X165448390Y-91390837D02*
X165400771Y-91486075D01*
X165400771Y-91486075D02*
X165353152Y-91533694D01*
X165353152Y-91533694D02*
X165257914Y-91581313D01*
X165257914Y-91581313D02*
X165210295Y-91581313D01*
X165210295Y-91581313D02*
X165115057Y-91533694D01*
X165115057Y-91533694D02*
X165067438Y-91486075D01*
X165067438Y-91486075D02*
X165019819Y-91390837D01*
X165019819Y-91390837D02*
X165019819Y-91200361D01*
X165019819Y-91200361D02*
X165067438Y-91105123D01*
X165067438Y-91105123D02*
X165115057Y-91057504D01*
X165115057Y-91057504D02*
X165210295Y-91009885D01*
X165210295Y-91009885D02*
X165257914Y-91009885D01*
X165257914Y-91009885D02*
X165353152Y-91057504D01*
X165353152Y-91057504D02*
X165400771Y-91105123D01*
X165400771Y-91105123D02*
X165448390Y-91200361D01*
X165448390Y-91200361D02*
X165448390Y-91390837D01*
X165448390Y-91390837D02*
X165496009Y-91486075D01*
X165496009Y-91486075D02*
X165543628Y-91533694D01*
X165543628Y-91533694D02*
X165638866Y-91581313D01*
X165638866Y-91581313D02*
X165829342Y-91581313D01*
X165829342Y-91581313D02*
X165924580Y-91533694D01*
X165924580Y-91533694D02*
X165972200Y-91486075D01*
X165972200Y-91486075D02*
X166019819Y-91390837D01*
X166019819Y-91390837D02*
X166019819Y-91200361D01*
X166019819Y-91200361D02*
X165972200Y-91105123D01*
X165972200Y-91105123D02*
X165924580Y-91057504D01*
X165924580Y-91057504D02*
X165829342Y-91009885D01*
X165829342Y-91009885D02*
X165638866Y-91009885D01*
X165638866Y-91009885D02*
X165543628Y-91057504D01*
X165543628Y-91057504D02*
X165496009Y-91105123D01*
X165496009Y-91105123D02*
X165448390Y-91200361D01*
X163353761Y-96569857D02*
X163258523Y-96522238D01*
X163258523Y-96522238D02*
X163163285Y-96427000D01*
X163163285Y-96427000D02*
X163020428Y-96284142D01*
X163020428Y-96284142D02*
X162925190Y-96236523D01*
X162925190Y-96236523D02*
X162829952Y-96236523D01*
X162877571Y-96474619D02*
X162782333Y-96427000D01*
X162782333Y-96427000D02*
X162687095Y-96331761D01*
X162687095Y-96331761D02*
X162639476Y-96141285D01*
X162639476Y-96141285D02*
X162639476Y-95807952D01*
X162639476Y-95807952D02*
X162687095Y-95617476D01*
X162687095Y-95617476D02*
X162782333Y-95522238D01*
X162782333Y-95522238D02*
X162877571Y-95474619D01*
X162877571Y-95474619D02*
X163068047Y-95474619D01*
X163068047Y-95474619D02*
X163163285Y-95522238D01*
X163163285Y-95522238D02*
X163258523Y-95617476D01*
X163258523Y-95617476D02*
X163306142Y-95807952D01*
X163306142Y-95807952D02*
X163306142Y-96141285D01*
X163306142Y-96141285D02*
X163258523Y-96331761D01*
X163258523Y-96331761D02*
X163163285Y-96427000D01*
X163163285Y-96427000D02*
X163068047Y-96474619D01*
X163068047Y-96474619D02*
X162877571Y-96474619D01*
X164258523Y-96474619D02*
X163687095Y-96474619D01*
X163972809Y-96474619D02*
X163972809Y-95474619D01*
X163972809Y-95474619D02*
X163877571Y-95617476D01*
X163877571Y-95617476D02*
X163782333Y-95712714D01*
X163782333Y-95712714D02*
X163687095Y-95760333D01*
X165250952Y-105872619D02*
X164774762Y-105872619D01*
X164774762Y-105872619D02*
X164774762Y-104872619D01*
X165584286Y-105348809D02*
X165917619Y-105348809D01*
X166060476Y-105872619D02*
X165584286Y-105872619D01*
X165584286Y-105872619D02*
X165584286Y-104872619D01*
X165584286Y-104872619D02*
X166060476Y-104872619D01*
X166489048Y-105872619D02*
X166489048Y-104872619D01*
X166489048Y-104872619D02*
X166727143Y-104872619D01*
X166727143Y-104872619D02*
X166870000Y-104920238D01*
X166870000Y-104920238D02*
X166965238Y-105015476D01*
X166965238Y-105015476D02*
X167012857Y-105110714D01*
X167012857Y-105110714D02*
X167060476Y-105301190D01*
X167060476Y-105301190D02*
X167060476Y-105444047D01*
X167060476Y-105444047D02*
X167012857Y-105634523D01*
X167012857Y-105634523D02*
X166965238Y-105729761D01*
X166965238Y-105729761D02*
X166870000Y-105825000D01*
X166870000Y-105825000D02*
X166727143Y-105872619D01*
X166727143Y-105872619D02*
X166489048Y-105872619D01*
X168012857Y-105872619D02*
X167441429Y-105872619D01*
X167727143Y-105872619D02*
X167727143Y-104872619D01*
X167727143Y-104872619D02*
X167631905Y-105015476D01*
X167631905Y-105015476D02*
X167536667Y-105110714D01*
X167536667Y-105110714D02*
X167441429Y-105158333D01*
X153763742Y-97947819D02*
X153430409Y-97471628D01*
X153192314Y-97947819D02*
X153192314Y-96947819D01*
X153192314Y-96947819D02*
X153573266Y-96947819D01*
X153573266Y-96947819D02*
X153668504Y-96995438D01*
X153668504Y-96995438D02*
X153716123Y-97043057D01*
X153716123Y-97043057D02*
X153763742Y-97138295D01*
X153763742Y-97138295D02*
X153763742Y-97281152D01*
X153763742Y-97281152D02*
X153716123Y-97376390D01*
X153716123Y-97376390D02*
X153668504Y-97424009D01*
X153668504Y-97424009D02*
X153573266Y-97471628D01*
X153573266Y-97471628D02*
X153192314Y-97471628D01*
X154716123Y-97947819D02*
X154144695Y-97947819D01*
X154430409Y-97947819D02*
X154430409Y-96947819D01*
X154430409Y-96947819D02*
X154335171Y-97090676D01*
X154335171Y-97090676D02*
X154239933Y-97185914D01*
X154239933Y-97185914D02*
X154144695Y-97233533D01*
X155335171Y-96947819D02*
X155430409Y-96947819D01*
X155430409Y-96947819D02*
X155525647Y-96995438D01*
X155525647Y-96995438D02*
X155573266Y-97043057D01*
X155573266Y-97043057D02*
X155620885Y-97138295D01*
X155620885Y-97138295D02*
X155668504Y-97328771D01*
X155668504Y-97328771D02*
X155668504Y-97566866D01*
X155668504Y-97566866D02*
X155620885Y-97757342D01*
X155620885Y-97757342D02*
X155573266Y-97852580D01*
X155573266Y-97852580D02*
X155525647Y-97900200D01*
X155525647Y-97900200D02*
X155430409Y-97947819D01*
X155430409Y-97947819D02*
X155335171Y-97947819D01*
X155335171Y-97947819D02*
X155239933Y-97900200D01*
X155239933Y-97900200D02*
X155192314Y-97852580D01*
X155192314Y-97852580D02*
X155144695Y-97757342D01*
X155144695Y-97757342D02*
X155097076Y-97566866D01*
X155097076Y-97566866D02*
X155097076Y-97328771D01*
X155097076Y-97328771D02*
X155144695Y-97138295D01*
X155144695Y-97138295D02*
X155192314Y-97043057D01*
X155192314Y-97043057D02*
X155239933Y-96995438D01*
X155239933Y-96995438D02*
X155335171Y-96947819D01*
X159916952Y-105872619D02*
X159440762Y-105872619D01*
X159440762Y-105872619D02*
X159440762Y-104872619D01*
X160250286Y-105348809D02*
X160583619Y-105348809D01*
X160726476Y-105872619D02*
X160250286Y-105872619D01*
X160250286Y-105872619D02*
X160250286Y-104872619D01*
X160250286Y-104872619D02*
X160726476Y-104872619D01*
X161155048Y-105872619D02*
X161155048Y-104872619D01*
X161155048Y-104872619D02*
X161393143Y-104872619D01*
X161393143Y-104872619D02*
X161536000Y-104920238D01*
X161536000Y-104920238D02*
X161631238Y-105015476D01*
X161631238Y-105015476D02*
X161678857Y-105110714D01*
X161678857Y-105110714D02*
X161726476Y-105301190D01*
X161726476Y-105301190D02*
X161726476Y-105444047D01*
X161726476Y-105444047D02*
X161678857Y-105634523D01*
X161678857Y-105634523D02*
X161631238Y-105729761D01*
X161631238Y-105729761D02*
X161536000Y-105825000D01*
X161536000Y-105825000D02*
X161393143Y-105872619D01*
X161393143Y-105872619D02*
X161155048Y-105872619D01*
X162107429Y-104967857D02*
X162155048Y-104920238D01*
X162155048Y-104920238D02*
X162250286Y-104872619D01*
X162250286Y-104872619D02*
X162488381Y-104872619D01*
X162488381Y-104872619D02*
X162583619Y-104920238D01*
X162583619Y-104920238D02*
X162631238Y-104967857D01*
X162631238Y-104967857D02*
X162678857Y-105063095D01*
X162678857Y-105063095D02*
X162678857Y-105158333D01*
X162678857Y-105158333D02*
X162631238Y-105301190D01*
X162631238Y-105301190D02*
X162059810Y-105872619D01*
X162059810Y-105872619D02*
X162678857Y-105872619D01*
X172680333Y-104094619D02*
X172347000Y-103618428D01*
X172108905Y-104094619D02*
X172108905Y-103094619D01*
X172108905Y-103094619D02*
X172489857Y-103094619D01*
X172489857Y-103094619D02*
X172585095Y-103142238D01*
X172585095Y-103142238D02*
X172632714Y-103189857D01*
X172632714Y-103189857D02*
X172680333Y-103285095D01*
X172680333Y-103285095D02*
X172680333Y-103427952D01*
X172680333Y-103427952D02*
X172632714Y-103523190D01*
X172632714Y-103523190D02*
X172585095Y-103570809D01*
X172585095Y-103570809D02*
X172489857Y-103618428D01*
X172489857Y-103618428D02*
X172108905Y-103618428D01*
X173156524Y-104094619D02*
X173347000Y-104094619D01*
X173347000Y-104094619D02*
X173442238Y-104047000D01*
X173442238Y-104047000D02*
X173489857Y-103999380D01*
X173489857Y-103999380D02*
X173585095Y-103856523D01*
X173585095Y-103856523D02*
X173632714Y-103666047D01*
X173632714Y-103666047D02*
X173632714Y-103285095D01*
X173632714Y-103285095D02*
X173585095Y-103189857D01*
X173585095Y-103189857D02*
X173537476Y-103142238D01*
X173537476Y-103142238D02*
X173442238Y-103094619D01*
X173442238Y-103094619D02*
X173251762Y-103094619D01*
X173251762Y-103094619D02*
X173156524Y-103142238D01*
X173156524Y-103142238D02*
X173108905Y-103189857D01*
X173108905Y-103189857D02*
X173061286Y-103285095D01*
X173061286Y-103285095D02*
X173061286Y-103523190D01*
X173061286Y-103523190D02*
X173108905Y-103618428D01*
X173108905Y-103618428D02*
X173156524Y-103666047D01*
X173156524Y-103666047D02*
X173251762Y-103713666D01*
X173251762Y-103713666D02*
X173442238Y-103713666D01*
X173442238Y-103713666D02*
X173537476Y-103666047D01*
X173537476Y-103666047D02*
X173585095Y-103618428D01*
X173585095Y-103618428D02*
X173632714Y-103523190D01*
X150719619Y-104060523D02*
X150719619Y-103393857D01*
X150719619Y-103393857D02*
X151719619Y-104060523D01*
X151719619Y-104060523D02*
X151719619Y-103393857D01*
X151719619Y-102489095D02*
X151719619Y-103060523D01*
X151719619Y-102774809D02*
X150719619Y-102774809D01*
X150719619Y-102774809D02*
X150862476Y-102870047D01*
X150862476Y-102870047D02*
X150957714Y-102965285D01*
X150957714Y-102965285D02*
X151005333Y-103060523D01*
X152078619Y-107830904D02*
X151078619Y-107830904D01*
X152078619Y-107259476D02*
X151507190Y-107688047D01*
X151078619Y-107259476D02*
X151650047Y-107830904D01*
X168529095Y-95474619D02*
X168529095Y-96284142D01*
X168529095Y-96284142D02*
X168576714Y-96379380D01*
X168576714Y-96379380D02*
X168624333Y-96427000D01*
X168624333Y-96427000D02*
X168719571Y-96474619D01*
X168719571Y-96474619D02*
X168910047Y-96474619D01*
X168910047Y-96474619D02*
X169005285Y-96427000D01*
X169005285Y-96427000D02*
X169052904Y-96379380D01*
X169052904Y-96379380D02*
X169100523Y-96284142D01*
X169100523Y-96284142D02*
X169100523Y-95474619D01*
X170100523Y-96474619D02*
X169529095Y-96474619D01*
X169814809Y-96474619D02*
X169814809Y-95474619D01*
X169814809Y-95474619D02*
X169719571Y-95617476D01*
X169719571Y-95617476D02*
X169624333Y-95712714D01*
X169624333Y-95712714D02*
X169529095Y-95760333D01*
D12*
X148209000Y-85725000D02*
X140589000Y-85725000D01*
X148209000Y-85725000D02*
X148209000Y-106045000D01*
X140589000Y-85725000D02*
X140589000Y-106045000D01*
X141859000Y-106045000D02*
X141859000Y-85725000D01*
X140589000Y-106045000D02*
X148209000Y-106045000D01*
X176530000Y-110744000D02*
X184150000Y-110744000D01*
X176530000Y-110744000D02*
X176530000Y-90424000D01*
X184150000Y-110744000D02*
X184150000Y-90424000D01*
X182880000Y-90424000D02*
X182880000Y-110744000D01*
X184150000Y-90424000D02*
X176530000Y-90424000D01*
X176170000Y-98856800D02*
X174970000Y-98856800D01*
X175570000Y-99506800D02*
X175570000Y-98206800D01*
X172720000Y-102056800D02*
X172720000Y-95656800D01*
X172680000Y-102056800D02*
X172680000Y-95656800D01*
X172640000Y-102056800D02*
X172640000Y-95656800D01*
X172600000Y-102054800D02*
X172600000Y-95658800D01*
X172560000Y-102053800D02*
X172560000Y-95659800D01*
X172520000Y-102050800D02*
X172520000Y-95662800D01*
X172480000Y-102048800D02*
X172480000Y-95664800D01*
X172440000Y-102044800D02*
X172440000Y-99836800D01*
X172440000Y-97876800D02*
X172440000Y-95668800D01*
X172400000Y-102041800D02*
X172400000Y-99836800D01*
X172400000Y-97876800D02*
X172400000Y-95671800D01*
X172360000Y-102036800D02*
X172360000Y-99836800D01*
X172360000Y-97876800D02*
X172360000Y-95676800D01*
X172320000Y-102032800D02*
X172320000Y-99836800D01*
X172320000Y-97876800D02*
X172320000Y-95680800D01*
X172280000Y-102026800D02*
X172280000Y-99836800D01*
X172280000Y-97876800D02*
X172280000Y-95686800D01*
X172240000Y-102021800D02*
X172240000Y-99836800D01*
X172240000Y-97876800D02*
X172240000Y-95691800D01*
X172200000Y-102014800D02*
X172200000Y-99836800D01*
X172200000Y-97876800D02*
X172200000Y-95698800D01*
X172160000Y-102008800D02*
X172160000Y-99836800D01*
X172160000Y-97876800D02*
X172160000Y-95704800D01*
X172120000Y-102000800D02*
X172120000Y-99836800D01*
X172120000Y-97876800D02*
X172120000Y-95712800D01*
X172080000Y-101993800D02*
X172080000Y-99836800D01*
X172080000Y-97876800D02*
X172080000Y-95719800D01*
X172040000Y-101984800D02*
X172040000Y-99836800D01*
X172040000Y-97876800D02*
X172040000Y-95728800D01*
X171999000Y-101975800D02*
X171999000Y-99836800D01*
X171999000Y-97876800D02*
X171999000Y-95737800D01*
X171959000Y-101966800D02*
X171959000Y-99836800D01*
X171959000Y-97876800D02*
X171959000Y-95746800D01*
X171919000Y-101956800D02*
X171919000Y-99836800D01*
X171919000Y-97876800D02*
X171919000Y-95756800D01*
X171879000Y-101946800D02*
X171879000Y-99836800D01*
X171879000Y-97876800D02*
X171879000Y-95766800D01*
X171839000Y-101935800D02*
X171839000Y-99836800D01*
X171839000Y-97876800D02*
X171839000Y-95777800D01*
X171799000Y-101923800D02*
X171799000Y-99836800D01*
X171799000Y-97876800D02*
X171799000Y-95789800D01*
X171759000Y-101911800D02*
X171759000Y-99836800D01*
X171759000Y-97876800D02*
X171759000Y-95801800D01*
X171719000Y-101898800D02*
X171719000Y-99836800D01*
X171719000Y-97876800D02*
X171719000Y-95814800D01*
X171679000Y-101885800D02*
X171679000Y-99836800D01*
X171679000Y-97876800D02*
X171679000Y-95827800D01*
X171639000Y-101871800D02*
X171639000Y-99836800D01*
X171639000Y-97876800D02*
X171639000Y-95841800D01*
X171599000Y-101857800D02*
X171599000Y-99836800D01*
X171599000Y-97876800D02*
X171599000Y-95855800D01*
X171559000Y-101842800D02*
X171559000Y-99836800D01*
X171559000Y-97876800D02*
X171559000Y-95870800D01*
X171519000Y-101826800D02*
X171519000Y-99836800D01*
X171519000Y-97876800D02*
X171519000Y-95886800D01*
X171479000Y-101810800D02*
X171479000Y-99836800D01*
X171479000Y-97876800D02*
X171479000Y-95902800D01*
X171439000Y-101793800D02*
X171439000Y-99836800D01*
X171439000Y-97876800D02*
X171439000Y-95919800D01*
X171399000Y-101775800D02*
X171399000Y-99836800D01*
X171399000Y-97876800D02*
X171399000Y-95937800D01*
X171359000Y-101757800D02*
X171359000Y-99836800D01*
X171359000Y-97876800D02*
X171359000Y-95955800D01*
X171319000Y-101738800D02*
X171319000Y-99836800D01*
X171319000Y-97876800D02*
X171319000Y-95974800D01*
X171279000Y-101719800D02*
X171279000Y-99836800D01*
X171279000Y-97876800D02*
X171279000Y-95993800D01*
X171239000Y-101699800D02*
X171239000Y-99836800D01*
X171239000Y-97876800D02*
X171239000Y-96013800D01*
X171199000Y-101678800D02*
X171199000Y-99836800D01*
X171199000Y-97876800D02*
X171199000Y-96034800D01*
X171159000Y-101656800D02*
X171159000Y-99836800D01*
X171159000Y-97876800D02*
X171159000Y-96056800D01*
X171119000Y-101634800D02*
X171119000Y-99836800D01*
X171119000Y-97876800D02*
X171119000Y-96078800D01*
X171079000Y-101611800D02*
X171079000Y-99836800D01*
X171079000Y-97876800D02*
X171079000Y-96101800D01*
X171039000Y-101587800D02*
X171039000Y-99836800D01*
X171039000Y-97876800D02*
X171039000Y-96125800D01*
X170999000Y-101562800D02*
X170999000Y-99836800D01*
X170999000Y-97876800D02*
X170999000Y-96150800D01*
X170959000Y-101537800D02*
X170959000Y-99836800D01*
X170959000Y-97876800D02*
X170959000Y-96175800D01*
X170919000Y-101510800D02*
X170919000Y-99836800D01*
X170919000Y-97876800D02*
X170919000Y-96202800D01*
X170879000Y-101483800D02*
X170879000Y-99836800D01*
X170879000Y-97876800D02*
X170879000Y-96229800D01*
X170839000Y-101455800D02*
X170839000Y-99836800D01*
X170839000Y-97876800D02*
X170839000Y-96257800D01*
X170799000Y-101426800D02*
X170799000Y-99836800D01*
X170799000Y-97876800D02*
X170799000Y-96286800D01*
X170759000Y-101396800D02*
X170759000Y-99836800D01*
X170759000Y-97876800D02*
X170759000Y-96316800D01*
X170719000Y-101366800D02*
X170719000Y-99836800D01*
X170719000Y-97876800D02*
X170719000Y-96346800D01*
X170679000Y-101334800D02*
X170679000Y-99836800D01*
X170679000Y-97876800D02*
X170679000Y-96378800D01*
X170639000Y-101301800D02*
X170639000Y-99836800D01*
X170639000Y-97876800D02*
X170639000Y-96411800D01*
X170599000Y-101267800D02*
X170599000Y-99836800D01*
X170599000Y-97876800D02*
X170599000Y-96445800D01*
X170559000Y-101231800D02*
X170559000Y-99836800D01*
X170559000Y-97876800D02*
X170559000Y-96481800D01*
X170519000Y-101195800D02*
X170519000Y-99836800D01*
X170519000Y-97876800D02*
X170519000Y-96517800D01*
X170479000Y-101157800D02*
X170479000Y-96555800D01*
X170439000Y-101118800D02*
X170439000Y-96594800D01*
X170399000Y-101078800D02*
X170399000Y-96634800D01*
X170359000Y-101036800D02*
X170359000Y-96676800D01*
X170319000Y-100993800D02*
X170319000Y-96719800D01*
X170279000Y-100948800D02*
X170279000Y-96764800D01*
X170239000Y-100901800D02*
X170239000Y-96811800D01*
X170199000Y-100853800D02*
X170199000Y-96859800D01*
X170159000Y-100802800D02*
X170159000Y-96910800D01*
X170119000Y-100750800D02*
X170119000Y-96962800D01*
X170079000Y-100695800D02*
X170079000Y-97017800D01*
X170039000Y-100637800D02*
X170039000Y-97075800D01*
X169999000Y-100577800D02*
X169999000Y-97135800D01*
X169959000Y-100514800D02*
X169959000Y-97198800D01*
X169919000Y-100447800D02*
X169919000Y-97265800D01*
X169879000Y-100376800D02*
X169879000Y-97336800D01*
X169839000Y-100301800D02*
X169839000Y-97411800D01*
X169799000Y-100220800D02*
X169799000Y-97492800D01*
X169759000Y-100134800D02*
X169759000Y-97578800D01*
X169719000Y-100040800D02*
X169719000Y-97672800D01*
X169679000Y-99937800D02*
X169679000Y-97775800D01*
X169639000Y-99822800D02*
X169639000Y-97890800D01*
X169599000Y-99690800D02*
X169599000Y-98022800D01*
X169559000Y-99532800D02*
X169559000Y-98180800D01*
X169519000Y-99324800D02*
X169519000Y-98388800D01*
X169702180Y-100035935D02*
G75*
G03*
X175737481Y-100036800I3017820J1179135D01*
G01*
X169702180Y-97677665D02*
G75*
G03*
X169702519Y-100036800I3017820J-1179135D01*
G01*
X175737481Y-97676800D02*
G75*
G03*
X169702180Y-97677665I-3017481J-1180000D01*
G01*
X157297600Y-96261600D02*
X157297600Y-96161600D01*
X157297600Y-96161600D02*
X159197600Y-96161600D01*
X157297600Y-89461600D02*
X158397600Y-89461600D01*
X157297600Y-89361600D02*
X157297600Y-89461600D01*
X155797600Y-96261600D02*
X157297600Y-96261600D01*
X155797600Y-89361600D02*
X157297600Y-89361600D01*
X156150000Y-87690000D02*
X156150000Y-86360000D01*
X157480000Y-87690000D02*
X156150000Y-87690000D01*
X158750000Y-87690000D02*
X176590000Y-87690000D01*
X158750000Y-87690000D02*
X158750000Y-85030000D01*
X176590000Y-87690000D02*
X176590000Y-85030000D01*
X158750000Y-85030000D02*
X176590000Y-85030000D01*
X147260000Y-111820000D02*
X147260000Y-110490000D01*
X148590000Y-111820000D02*
X147260000Y-111820000D01*
X149860000Y-111820000D02*
X167700000Y-111820000D01*
X149860000Y-111820000D02*
X149860000Y-109160000D01*
X167700000Y-111820000D02*
X167700000Y-109160000D01*
X149860000Y-109160000D02*
X167700000Y-109160000D01*
X158690000Y-109280000D02*
X158690000Y-107950000D01*
X160020000Y-109280000D02*
X158690000Y-109280000D01*
X161290000Y-109280000D02*
X168970000Y-109280000D01*
X161290000Y-109280000D02*
X161290000Y-106620000D01*
X168970000Y-109280000D02*
X168970000Y-106620000D01*
X161290000Y-106620000D02*
X168970000Y-106620000D01*
X175519600Y-89850200D02*
X175519600Y-93690200D01*
X173679600Y-89850200D02*
X173679600Y-93690200D01*
X171469800Y-93715600D02*
X171469800Y-89875600D01*
X173309800Y-93715600D02*
X173309800Y-89875600D01*
X171023800Y-89865600D02*
X171023800Y-93705600D01*
X169183800Y-89865600D02*
X169183800Y-93705600D01*
X164013400Y-89865600D02*
X164013400Y-93705600D01*
X162173400Y-89865600D02*
X162173400Y-93705600D01*
X168610800Y-89875600D02*
X168610800Y-93715600D01*
X166770800Y-89875600D02*
X166770800Y-93715600D01*
X161625800Y-89865600D02*
X161625800Y-93705600D01*
X159785800Y-89865600D02*
X159785800Y-93705600D01*
X155094000Y-107029000D02*
X155094000Y-100489000D01*
X155424000Y-107029000D02*
X155094000Y-107029000D01*
X157504000Y-107029000D02*
X157834000Y-107029000D01*
X157834000Y-107029000D02*
X157834000Y-100489000D01*
X155094000Y-100489000D02*
X155424000Y-100489000D01*
X157834000Y-100489000D02*
X157504000Y-100489000D01*
X164459400Y-93741000D02*
X164459400Y-89901000D01*
X166299400Y-93741000D02*
X166299400Y-89901000D01*
X159002000Y-99944800D02*
X162602000Y-99944800D01*
X160802000Y-95494800D02*
G75*
G03*
X158963522Y-99933278I0J-2600000D01*
G01*
X162640478Y-99933278D02*
G75*
G03*
X160802000Y-95494800I-1838478J1838478D01*
G01*
X164708400Y-101227600D02*
X164708400Y-101383600D01*
X164708400Y-103543600D02*
X164708400Y-103699600D01*
X167940734Y-101384992D02*
G75*
G03*
X164708401Y-101228085I-1672334J-1078608D01*
G01*
X167309529Y-101383764D02*
G75*
G03*
X165227440Y-101383601I-1041129J-1079836D01*
G01*
X165227440Y-103543599D02*
G75*
G03*
X167309529Y-103543436I1040960J1079999D01*
G01*
X164708401Y-103699115D02*
G75*
G03*
X167940734Y-103542208I1559999J1235515D01*
G01*
X152486600Y-96565200D02*
X156326600Y-96565200D01*
X152486600Y-98405200D02*
X156326600Y-98405200D01*
X159323600Y-101227600D02*
X159323600Y-101383600D01*
X159323600Y-103543600D02*
X159323600Y-103699600D01*
X162555934Y-101384992D02*
G75*
G03*
X159323601Y-101228085I-1672334J-1078608D01*
G01*
X161924729Y-101383764D02*
G75*
G03*
X159842640Y-101383601I-1041129J-1079836D01*
G01*
X159842640Y-103543599D02*
G75*
G03*
X161924729Y-103543436I1040960J1079999D01*
G01*
X159323601Y-103699115D02*
G75*
G03*
X162555934Y-103542208I1559999J1235515D01*
G01*
X174690800Y-104501200D02*
X170850800Y-104501200D01*
X174690800Y-102661200D02*
X170850800Y-102661200D01*
X153416000Y-106529000D02*
X153416000Y-105879000D01*
X152296000Y-105879000D02*
X154536000Y-105879000D01*
X154536000Y-105879000D02*
X154536000Y-101639000D01*
X152296000Y-105279000D02*
X154536000Y-105279000D01*
X152296000Y-105159000D02*
X154536000Y-105159000D01*
X152296000Y-105039000D02*
X154536000Y-105039000D01*
X152296000Y-101639000D02*
X152296000Y-105879000D01*
X154536000Y-101639000D02*
X152296000Y-101639000D01*
X153416000Y-100989000D02*
X153416000Y-101639000D01*
X164570000Y-99894000D02*
X168170000Y-99894000D01*
X166370000Y-95444000D02*
G75*
G03*
X164531522Y-99882478I0J-2600000D01*
G01*
X168208478Y-99882478D02*
G75*
G03*
X166370000Y-95444000I-1838478J1838478D01*
G01*
D13*
X184404000Y-112522000D02*
X146685000Y-112522000D01*
X140462000Y-83693000D02*
X178181000Y-83693000D01*
X140462000Y-106299000D02*
X140462000Y-83693000D01*
X178181000Y-89916000D02*
X184404000Y-89916000D01*
X146685000Y-112522000D02*
X146685000Y-106299000D01*
X146685000Y-106299000D02*
X140462000Y-106299000D01*
X178181000Y-83693000D02*
X178181000Y-89916000D01*
X184404000Y-89916000D02*
X184404000Y-112522000D01*
M02*
