M48
; DRILL file {KiCad 7.0.1-3b83917a11~172~ubuntu20.04.1} date Sun 02 Apr 2023 22:20:11 CEST
; FORMAT={-:-/ absolute / inch / decimal}
; #@! TF.CreationDate,2023-04-02T22:20:11+02:00
; #@! TF.GenerationSoftware,Kicad,Pcbnew,7.0.1-3b83917a11~172~ubuntu20.04.1
; #@! TF.FileFunction,Plated,1,2,PTH
FMAT,2
INCH
; #@! TA.AperFunction,Plated,PTH,ViaDrill
T1C0.0157
; #@! TA.AperFunction,Plated,PTH,ComponentDrill
T2C0.0276
; #@! TA.AperFunction,Plated,PTH,ComponentDrill
T3C0.0295
; #@! TA.AperFunction,Plated,PTH,ComponentDrill
T4C0.0315
; #@! TA.AperFunction,Plated,PTH,ComponentDrill
T5C0.0354
; #@! TA.AperFunction,Plated,PTH,ComponentDrill
T6C0.0394
; #@! TA.AperFunction,Plated,PTH,ComponentDrill
T7C0.0598
%
G90
G05
T1
X6.2223Y-4.0123
X6.4428Y-3.9831
T2
X5.979Y-3.838
X6.179Y-3.838
X6.327Y-3.5136
X6.327Y-3.7136
X6.421Y-3.5136
X6.421Y-3.7136
X6.511Y-3.515
X6.511Y-3.715
X6.602Y-3.514
X6.602Y-3.714
X6.697Y-3.5136
X6.697Y-3.7136
X6.702Y-4.078
X6.787Y-3.514
X6.787Y-3.714
X6.874Y-3.513
X6.874Y-3.713
X6.902Y-4.078
T3
X6.2808Y-3.862
X6.3308Y-3.862
X6.3808Y-3.862
X6.5Y-3.86
X6.55Y-3.86
X6.6Y-3.86
T4
X6.04Y-3.935
X6.04Y-4.235
X6.16Y-3.935
X6.16Y-4.235
X6.7508Y-3.892
X6.8492Y-3.892
T5
X6.284Y-4.034
X6.384Y-4.034
X6.496Y-4.034
X6.596Y-4.034
T6
X5.85Y-4.35
X5.95Y-4.35
X6.05Y-4.35
X6.15Y-4.35
X6.2Y-3.4
X6.25Y-4.35
X6.3Y-3.4
X6.3Y-4.25
X6.35Y-4.35
X6.4Y-3.4
X6.4Y-4.25
X6.45Y-4.35
X6.5Y-3.4
X6.5Y-4.25
X6.55Y-4.35
X6.6Y-3.4
X6.6Y-4.25
X6.7Y-3.4
X6.8Y-3.4
X6.9Y-3.4
T7
X5.685Y-3.475
X5.685Y-3.675
X5.685Y-3.875
X5.685Y-4.075
X7.1Y-3.66
X7.1Y-3.86
X7.1Y-4.06
X7.1Y-4.26
T0
M30
