G04 #@! TF.GenerationSoftware,KiCad,Pcbnew,7.0.1-3b83917a11~172~ubuntu20.04.1*
G04 #@! TF.CreationDate,2023-04-02T22:20:07+02:00*
G04 #@! TF.ProjectId,C64Saver2,43363453-6176-4657-9232-2e6b69636164,2.6*
G04 #@! TF.SameCoordinates,Original*
G04 #@! TF.FileFunction,Legend,Bot*
G04 #@! TF.FilePolarity,Positive*
%FSLAX46Y46*%
G04 Gerber Fmt 4.6, Leading zero omitted, Abs format (unit mm)*
G04 Created by KiCad (PCBNEW 7.0.1-3b83917a11~172~ubuntu20.04.1) date 2023-04-02 22:20:07*
%MOMM*%
%LPD*%
G01*
G04 APERTURE LIST*
%ADD10C,0.300000*%
%ADD11C,0.250000*%
G04 #@! TA.AperFunction,Profile*
%ADD12C,0.150000*%
G04 #@! TD*
G04 APERTURE END LIST*
D10*
X177094726Y-107217524D02*
X177094726Y-106979428D01*
X177094726Y-106979428D02*
X177154250Y-106860381D01*
X177154250Y-106860381D02*
X177213773Y-106800857D01*
X177213773Y-106800857D02*
X177392345Y-106681809D01*
X177392345Y-106681809D02*
X177630440Y-106622286D01*
X177630440Y-106622286D02*
X178106630Y-106622286D01*
X178106630Y-106622286D02*
X178225678Y-106681809D01*
X178225678Y-106681809D02*
X178285202Y-106741333D01*
X178285202Y-106741333D02*
X178344726Y-106860381D01*
X178344726Y-106860381D02*
X178344726Y-107098476D01*
X178344726Y-107098476D02*
X178285202Y-107217524D01*
X178285202Y-107217524D02*
X178225678Y-107277047D01*
X178225678Y-107277047D02*
X178106630Y-107336571D01*
X178106630Y-107336571D02*
X177809011Y-107336571D01*
X177809011Y-107336571D02*
X177689964Y-107277047D01*
X177689964Y-107277047D02*
X177630440Y-107217524D01*
X177630440Y-107217524D02*
X177570916Y-107098476D01*
X177570916Y-107098476D02*
X177570916Y-106860381D01*
X177570916Y-106860381D02*
X177630440Y-106741333D01*
X177630440Y-106741333D02*
X177689964Y-106681809D01*
X177689964Y-106681809D02*
X177809011Y-106622286D01*
X178344726Y-106265143D02*
X177094726Y-105848476D01*
X177094726Y-105848476D02*
X178344726Y-105431810D01*
X177451869Y-105074666D02*
X177451869Y-104479428D01*
X177094726Y-105193714D02*
X178344726Y-104777047D01*
X178344726Y-104777047D02*
X177094726Y-104360381D01*
X177213773Y-103229428D02*
X177154250Y-103288952D01*
X177154250Y-103288952D02*
X177094726Y-103467523D01*
X177094726Y-103467523D02*
X177094726Y-103586571D01*
X177094726Y-103586571D02*
X177154250Y-103765142D01*
X177154250Y-103765142D02*
X177273297Y-103884190D01*
X177273297Y-103884190D02*
X177392345Y-103943713D01*
X177392345Y-103943713D02*
X177630440Y-104003237D01*
X177630440Y-104003237D02*
X177809011Y-104003237D01*
X177809011Y-104003237D02*
X178047107Y-103943713D01*
X178047107Y-103943713D02*
X178166154Y-103884190D01*
X178166154Y-103884190D02*
X178285202Y-103765142D01*
X178285202Y-103765142D02*
X178344726Y-103586571D01*
X178344726Y-103586571D02*
X178344726Y-103467523D01*
X178344726Y-103467523D02*
X178285202Y-103288952D01*
X178285202Y-103288952D02*
X178225678Y-103229428D01*
X178285202Y-98869381D02*
X178344726Y-98988428D01*
X178344726Y-98988428D02*
X178344726Y-99167000D01*
X178344726Y-99167000D02*
X178285202Y-99345571D01*
X178285202Y-99345571D02*
X178166154Y-99464619D01*
X178166154Y-99464619D02*
X178047107Y-99524142D01*
X178047107Y-99524142D02*
X177809011Y-99583666D01*
X177809011Y-99583666D02*
X177630440Y-99583666D01*
X177630440Y-99583666D02*
X177392345Y-99524142D01*
X177392345Y-99524142D02*
X177273297Y-99464619D01*
X177273297Y-99464619D02*
X177154250Y-99345571D01*
X177154250Y-99345571D02*
X177094726Y-99167000D01*
X177094726Y-99167000D02*
X177094726Y-99047952D01*
X177094726Y-99047952D02*
X177154250Y-98869381D01*
X177154250Y-98869381D02*
X177213773Y-98809857D01*
X177213773Y-98809857D02*
X177630440Y-98809857D01*
X177630440Y-98809857D02*
X177630440Y-99047952D01*
X177094726Y-98274142D02*
X178344726Y-98274142D01*
X178344726Y-98274142D02*
X177094726Y-97559857D01*
X177094726Y-97559857D02*
X178344726Y-97559857D01*
X177094726Y-96964618D02*
X178344726Y-96964618D01*
X178344726Y-96964618D02*
X178344726Y-96666999D01*
X178344726Y-96666999D02*
X178285202Y-96488428D01*
X178285202Y-96488428D02*
X178166154Y-96369380D01*
X178166154Y-96369380D02*
X178047107Y-96309857D01*
X178047107Y-96309857D02*
X177809011Y-96250333D01*
X177809011Y-96250333D02*
X177630440Y-96250333D01*
X177630440Y-96250333D02*
X177392345Y-96309857D01*
X177392345Y-96309857D02*
X177273297Y-96369380D01*
X177273297Y-96369380D02*
X177154250Y-96488428D01*
X177154250Y-96488428D02*
X177094726Y-96666999D01*
X177094726Y-96666999D02*
X177094726Y-96964618D01*
X178344726Y-93329094D02*
X178344726Y-93924332D01*
X178344726Y-93924332D02*
X177749488Y-93983856D01*
X177749488Y-93983856D02*
X177809011Y-93924332D01*
X177809011Y-93924332D02*
X177868535Y-93805285D01*
X177868535Y-93805285D02*
X177868535Y-93507666D01*
X177868535Y-93507666D02*
X177809011Y-93388618D01*
X177809011Y-93388618D02*
X177749488Y-93329094D01*
X177749488Y-93329094D02*
X177630440Y-93269571D01*
X177630440Y-93269571D02*
X177332821Y-93269571D01*
X177332821Y-93269571D02*
X177213773Y-93329094D01*
X177213773Y-93329094D02*
X177154250Y-93388618D01*
X177154250Y-93388618D02*
X177094726Y-93507666D01*
X177094726Y-93507666D02*
X177094726Y-93805285D01*
X177094726Y-93805285D02*
X177154250Y-93924332D01*
X177154250Y-93924332D02*
X177213773Y-93983856D01*
X178344726Y-92912428D02*
X177094726Y-92495761D01*
X177094726Y-92495761D02*
X178344726Y-92079095D01*
X146648273Y-88153905D02*
X146648273Y-87558667D01*
X146648273Y-87558667D02*
X147243511Y-87499143D01*
X147243511Y-87499143D02*
X147183988Y-87558667D01*
X147183988Y-87558667D02*
X147124464Y-87677714D01*
X147124464Y-87677714D02*
X147124464Y-87975333D01*
X147124464Y-87975333D02*
X147183988Y-88094381D01*
X147183988Y-88094381D02*
X147243511Y-88153905D01*
X147243511Y-88153905D02*
X147362559Y-88213428D01*
X147362559Y-88213428D02*
X147660178Y-88213428D01*
X147660178Y-88213428D02*
X147779226Y-88153905D01*
X147779226Y-88153905D02*
X147838750Y-88094381D01*
X147838750Y-88094381D02*
X147898273Y-87975333D01*
X147898273Y-87975333D02*
X147898273Y-87677714D01*
X147898273Y-87677714D02*
X147838750Y-87558667D01*
X147838750Y-87558667D02*
X147779226Y-87499143D01*
X146648273Y-88570571D02*
X147898273Y-88987238D01*
X147898273Y-88987238D02*
X146648273Y-89403904D01*
X146707797Y-92392618D02*
X146648273Y-92273571D01*
X146648273Y-92273571D02*
X146648273Y-92094999D01*
X146648273Y-92094999D02*
X146707797Y-91916428D01*
X146707797Y-91916428D02*
X146826845Y-91797380D01*
X146826845Y-91797380D02*
X146945892Y-91737857D01*
X146945892Y-91737857D02*
X147183988Y-91678333D01*
X147183988Y-91678333D02*
X147362559Y-91678333D01*
X147362559Y-91678333D02*
X147600654Y-91737857D01*
X147600654Y-91737857D02*
X147719702Y-91797380D01*
X147719702Y-91797380D02*
X147838750Y-91916428D01*
X147838750Y-91916428D02*
X147898273Y-92094999D01*
X147898273Y-92094999D02*
X147898273Y-92214047D01*
X147898273Y-92214047D02*
X147838750Y-92392618D01*
X147838750Y-92392618D02*
X147779226Y-92452142D01*
X147779226Y-92452142D02*
X147362559Y-92452142D01*
X147362559Y-92452142D02*
X147362559Y-92214047D01*
X147898273Y-92987857D02*
X146648273Y-92987857D01*
X146648273Y-92987857D02*
X147898273Y-93702142D01*
X147898273Y-93702142D02*
X146648273Y-93702142D01*
X147898273Y-94297381D02*
X146648273Y-94297381D01*
X146648273Y-94297381D02*
X146648273Y-94595000D01*
X146648273Y-94595000D02*
X146707797Y-94773571D01*
X146707797Y-94773571D02*
X146826845Y-94892619D01*
X146826845Y-94892619D02*
X146945892Y-94952142D01*
X146945892Y-94952142D02*
X147183988Y-95011666D01*
X147183988Y-95011666D02*
X147362559Y-95011666D01*
X147362559Y-95011666D02*
X147600654Y-94952142D01*
X147600654Y-94952142D02*
X147719702Y-94892619D01*
X147719702Y-94892619D02*
X147838750Y-94773571D01*
X147838750Y-94773571D02*
X147898273Y-94595000D01*
X147898273Y-94595000D02*
X147898273Y-94297381D01*
X147898273Y-99030475D02*
X147898273Y-99268571D01*
X147898273Y-99268571D02*
X147838750Y-99387618D01*
X147838750Y-99387618D02*
X147779226Y-99447142D01*
X147779226Y-99447142D02*
X147600654Y-99566190D01*
X147600654Y-99566190D02*
X147362559Y-99625713D01*
X147362559Y-99625713D02*
X146886369Y-99625713D01*
X146886369Y-99625713D02*
X146767321Y-99566190D01*
X146767321Y-99566190D02*
X146707797Y-99506666D01*
X146707797Y-99506666D02*
X146648273Y-99387618D01*
X146648273Y-99387618D02*
X146648273Y-99149523D01*
X146648273Y-99149523D02*
X146707797Y-99030475D01*
X146707797Y-99030475D02*
X146767321Y-98970952D01*
X146767321Y-98970952D02*
X146886369Y-98911428D01*
X146886369Y-98911428D02*
X147183988Y-98911428D01*
X147183988Y-98911428D02*
X147303035Y-98970952D01*
X147303035Y-98970952D02*
X147362559Y-99030475D01*
X147362559Y-99030475D02*
X147422083Y-99149523D01*
X147422083Y-99149523D02*
X147422083Y-99387618D01*
X147422083Y-99387618D02*
X147362559Y-99506666D01*
X147362559Y-99506666D02*
X147303035Y-99566190D01*
X147303035Y-99566190D02*
X147183988Y-99625713D01*
X146648273Y-99982856D02*
X147898273Y-100399523D01*
X147898273Y-100399523D02*
X146648273Y-100816189D01*
X147541130Y-101173333D02*
X147541130Y-101768571D01*
X147898273Y-101054285D02*
X146648273Y-101470952D01*
X146648273Y-101470952D02*
X147898273Y-101887618D01*
X147779226Y-103018571D02*
X147838750Y-102959047D01*
X147838750Y-102959047D02*
X147898273Y-102780476D01*
X147898273Y-102780476D02*
X147898273Y-102661428D01*
X147898273Y-102661428D02*
X147838750Y-102482857D01*
X147838750Y-102482857D02*
X147719702Y-102363809D01*
X147719702Y-102363809D02*
X147600654Y-102304286D01*
X147600654Y-102304286D02*
X147362559Y-102244762D01*
X147362559Y-102244762D02*
X147183988Y-102244762D01*
X147183988Y-102244762D02*
X146945892Y-102304286D01*
X146945892Y-102304286D02*
X146826845Y-102363809D01*
X146826845Y-102363809D02*
X146707797Y-102482857D01*
X146707797Y-102482857D02*
X146648273Y-102661428D01*
X146648273Y-102661428D02*
X146648273Y-102780476D01*
X146648273Y-102780476D02*
X146707797Y-102959047D01*
X146707797Y-102959047D02*
X146767321Y-103018571D01*
X176334928Y-106656285D02*
X174834928Y-106656285D01*
X176334928Y-107370571D02*
X174834928Y-107370571D01*
X174834928Y-107370571D02*
X176334928Y-108227714D01*
X176334928Y-108227714D02*
X174834928Y-108227714D01*
X151999999Y-101443928D02*
X151714285Y-101443928D01*
X151714285Y-101443928D02*
X151571428Y-101515357D01*
X151571428Y-101515357D02*
X151428571Y-101658214D01*
X151428571Y-101658214D02*
X151357142Y-101943928D01*
X151357142Y-101943928D02*
X151357142Y-102443928D01*
X151357142Y-102443928D02*
X151428571Y-102729642D01*
X151428571Y-102729642D02*
X151571428Y-102872500D01*
X151571428Y-102872500D02*
X151714285Y-102943928D01*
X151714285Y-102943928D02*
X151999999Y-102943928D01*
X151999999Y-102943928D02*
X152142857Y-102872500D01*
X152142857Y-102872500D02*
X152285714Y-102729642D01*
X152285714Y-102729642D02*
X152357142Y-102443928D01*
X152357142Y-102443928D02*
X152357142Y-101943928D01*
X152357142Y-101943928D02*
X152285714Y-101658214D01*
X152285714Y-101658214D02*
X152142857Y-101515357D01*
X152142857Y-101515357D02*
X151999999Y-101443928D01*
X150714285Y-101443928D02*
X150714285Y-102658214D01*
X150714285Y-102658214D02*
X150642856Y-102801071D01*
X150642856Y-102801071D02*
X150571428Y-102872500D01*
X150571428Y-102872500D02*
X150428570Y-102943928D01*
X150428570Y-102943928D02*
X150142856Y-102943928D01*
X150142856Y-102943928D02*
X149999999Y-102872500D01*
X149999999Y-102872500D02*
X149928570Y-102801071D01*
X149928570Y-102801071D02*
X149857142Y-102658214D01*
X149857142Y-102658214D02*
X149857142Y-101443928D01*
X149357141Y-101443928D02*
X148499999Y-101443928D01*
X148928570Y-102943928D02*
X148928570Y-101443928D01*
D11*
X158240523Y-89806119D02*
X158292904Y-89858500D01*
X158292904Y-89858500D02*
X158450047Y-89910880D01*
X158450047Y-89910880D02*
X158554809Y-89910880D01*
X158554809Y-89910880D02*
X158711952Y-89858500D01*
X158711952Y-89858500D02*
X158816714Y-89753738D01*
X158816714Y-89753738D02*
X158869095Y-89648976D01*
X158869095Y-89648976D02*
X158921476Y-89439452D01*
X158921476Y-89439452D02*
X158921476Y-89282309D01*
X158921476Y-89282309D02*
X158869095Y-89072785D01*
X158869095Y-89072785D02*
X158816714Y-88968023D01*
X158816714Y-88968023D02*
X158711952Y-88863261D01*
X158711952Y-88863261D02*
X158554809Y-88810880D01*
X158554809Y-88810880D02*
X158450047Y-88810880D01*
X158450047Y-88810880D02*
X158292904Y-88863261D01*
X158292904Y-88863261D02*
X158240523Y-88915642D01*
X157297666Y-88810880D02*
X157507190Y-88810880D01*
X157507190Y-88810880D02*
X157611952Y-88863261D01*
X157611952Y-88863261D02*
X157664333Y-88915642D01*
X157664333Y-88915642D02*
X157769095Y-89072785D01*
X157769095Y-89072785D02*
X157821476Y-89282309D01*
X157821476Y-89282309D02*
X157821476Y-89701357D01*
X157821476Y-89701357D02*
X157769095Y-89806119D01*
X157769095Y-89806119D02*
X157716714Y-89858500D01*
X157716714Y-89858500D02*
X157611952Y-89910880D01*
X157611952Y-89910880D02*
X157402428Y-89910880D01*
X157402428Y-89910880D02*
X157297666Y-89858500D01*
X157297666Y-89858500D02*
X157245285Y-89806119D01*
X157245285Y-89806119D02*
X157192904Y-89701357D01*
X157192904Y-89701357D02*
X157192904Y-89439452D01*
X157192904Y-89439452D02*
X157245285Y-89334690D01*
X157245285Y-89334690D02*
X157297666Y-89282309D01*
X157297666Y-89282309D02*
X157402428Y-89229928D01*
X157402428Y-89229928D02*
X157611952Y-89229928D01*
X157611952Y-89229928D02*
X157716714Y-89282309D01*
X157716714Y-89282309D02*
X157769095Y-89334690D01*
X157769095Y-89334690D02*
X157821476Y-89439452D01*
X156250047Y-89177547D02*
X156250047Y-89910880D01*
X156511952Y-88758500D02*
X156773857Y-89544214D01*
X156773857Y-89544214D02*
X156092904Y-89544214D01*
X154888143Y-89858500D02*
X154731000Y-89910880D01*
X154731000Y-89910880D02*
X154469095Y-89910880D01*
X154469095Y-89910880D02*
X154364333Y-89858500D01*
X154364333Y-89858500D02*
X154311952Y-89806119D01*
X154311952Y-89806119D02*
X154259571Y-89701357D01*
X154259571Y-89701357D02*
X154259571Y-89596595D01*
X154259571Y-89596595D02*
X154311952Y-89491833D01*
X154311952Y-89491833D02*
X154364333Y-89439452D01*
X154364333Y-89439452D02*
X154469095Y-89387071D01*
X154469095Y-89387071D02*
X154678619Y-89334690D01*
X154678619Y-89334690D02*
X154783381Y-89282309D01*
X154783381Y-89282309D02*
X154835762Y-89229928D01*
X154835762Y-89229928D02*
X154888143Y-89125166D01*
X154888143Y-89125166D02*
X154888143Y-89020404D01*
X154888143Y-89020404D02*
X154835762Y-88915642D01*
X154835762Y-88915642D02*
X154783381Y-88863261D01*
X154783381Y-88863261D02*
X154678619Y-88810880D01*
X154678619Y-88810880D02*
X154416714Y-88810880D01*
X154416714Y-88810880D02*
X154259571Y-88863261D01*
X153316714Y-89910880D02*
X153316714Y-89334690D01*
X153316714Y-89334690D02*
X153369095Y-89229928D01*
X153369095Y-89229928D02*
X153473857Y-89177547D01*
X153473857Y-89177547D02*
X153683381Y-89177547D01*
X153683381Y-89177547D02*
X153788143Y-89229928D01*
X153316714Y-89858500D02*
X153421476Y-89910880D01*
X153421476Y-89910880D02*
X153683381Y-89910880D01*
X153683381Y-89910880D02*
X153788143Y-89858500D01*
X153788143Y-89858500D02*
X153840524Y-89753738D01*
X153840524Y-89753738D02*
X153840524Y-89648976D01*
X153840524Y-89648976D02*
X153788143Y-89544214D01*
X153788143Y-89544214D02*
X153683381Y-89491833D01*
X153683381Y-89491833D02*
X153421476Y-89491833D01*
X153421476Y-89491833D02*
X153316714Y-89439452D01*
X152897667Y-89177547D02*
X152635762Y-89910880D01*
X152635762Y-89910880D02*
X152373857Y-89177547D01*
X151535762Y-89858500D02*
X151640524Y-89910880D01*
X151640524Y-89910880D02*
X151850048Y-89910880D01*
X151850048Y-89910880D02*
X151954810Y-89858500D01*
X151954810Y-89858500D02*
X152007191Y-89753738D01*
X152007191Y-89753738D02*
X152007191Y-89334690D01*
X152007191Y-89334690D02*
X151954810Y-89229928D01*
X151954810Y-89229928D02*
X151850048Y-89177547D01*
X151850048Y-89177547D02*
X151640524Y-89177547D01*
X151640524Y-89177547D02*
X151535762Y-89229928D01*
X151535762Y-89229928D02*
X151483381Y-89334690D01*
X151483381Y-89334690D02*
X151483381Y-89439452D01*
X151483381Y-89439452D02*
X152007191Y-89544214D01*
X151011953Y-89910880D02*
X151011953Y-89177547D01*
X151011953Y-89387071D02*
X150959572Y-89282309D01*
X150959572Y-89282309D02*
X150907191Y-89229928D01*
X150907191Y-89229928D02*
X150802429Y-89177547D01*
X150802429Y-89177547D02*
X150697667Y-89177547D01*
X149545287Y-88915642D02*
X149492906Y-88863261D01*
X149492906Y-88863261D02*
X149388144Y-88810880D01*
X149388144Y-88810880D02*
X149126239Y-88810880D01*
X149126239Y-88810880D02*
X149021477Y-88863261D01*
X149021477Y-88863261D02*
X148969096Y-88915642D01*
X148969096Y-88915642D02*
X148916715Y-89020404D01*
X148916715Y-89020404D02*
X148916715Y-89125166D01*
X148916715Y-89125166D02*
X148969096Y-89282309D01*
X148969096Y-89282309D02*
X149597668Y-89910880D01*
X149597668Y-89910880D02*
X148916715Y-89910880D01*
X159026238Y-90592880D02*
X158397666Y-90592880D01*
X158711952Y-91692880D02*
X158711952Y-90592880D01*
X158031000Y-91692880D02*
X158031000Y-90592880D01*
X158031000Y-91116690D02*
X157402428Y-91116690D01*
X157402428Y-91692880D02*
X157402428Y-90592880D01*
X157035762Y-90592880D02*
X156407190Y-90592880D01*
X156721476Y-91692880D02*
X156721476Y-90592880D01*
X155307191Y-90959547D02*
X155045286Y-91692880D01*
X155045286Y-91692880D02*
X154783381Y-90959547D01*
X153945286Y-91640500D02*
X154050048Y-91692880D01*
X154050048Y-91692880D02*
X154259572Y-91692880D01*
X154259572Y-91692880D02*
X154364334Y-91640500D01*
X154364334Y-91640500D02*
X154416715Y-91535738D01*
X154416715Y-91535738D02*
X154416715Y-91116690D01*
X154416715Y-91116690D02*
X154364334Y-91011928D01*
X154364334Y-91011928D02*
X154259572Y-90959547D01*
X154259572Y-90959547D02*
X154050048Y-90959547D01*
X154050048Y-90959547D02*
X153945286Y-91011928D01*
X153945286Y-91011928D02*
X153892905Y-91116690D01*
X153892905Y-91116690D02*
X153892905Y-91221452D01*
X153892905Y-91221452D02*
X154416715Y-91326214D01*
X153421477Y-91692880D02*
X153421477Y-90959547D01*
X153421477Y-91169071D02*
X153369096Y-91064309D01*
X153369096Y-91064309D02*
X153316715Y-91011928D01*
X153316715Y-91011928D02*
X153211953Y-90959547D01*
X153211953Y-90959547D02*
X153107191Y-90959547D01*
X152792906Y-91640500D02*
X152688144Y-91692880D01*
X152688144Y-91692880D02*
X152478620Y-91692880D01*
X152478620Y-91692880D02*
X152373858Y-91640500D01*
X152373858Y-91640500D02*
X152321477Y-91535738D01*
X152321477Y-91535738D02*
X152321477Y-91483357D01*
X152321477Y-91483357D02*
X152373858Y-91378595D01*
X152373858Y-91378595D02*
X152478620Y-91326214D01*
X152478620Y-91326214D02*
X152635763Y-91326214D01*
X152635763Y-91326214D02*
X152740525Y-91273833D01*
X152740525Y-91273833D02*
X152792906Y-91169071D01*
X152792906Y-91169071D02*
X152792906Y-91116690D01*
X152792906Y-91116690D02*
X152740525Y-91011928D01*
X152740525Y-91011928D02*
X152635763Y-90959547D01*
X152635763Y-90959547D02*
X152478620Y-90959547D01*
X152478620Y-90959547D02*
X152373858Y-91011928D01*
X151850049Y-91692880D02*
X151850049Y-90959547D01*
X151850049Y-90592880D02*
X151902430Y-90645261D01*
X151902430Y-90645261D02*
X151850049Y-90697642D01*
X151850049Y-90697642D02*
X151797668Y-90645261D01*
X151797668Y-90645261D02*
X151850049Y-90592880D01*
X151850049Y-90592880D02*
X151850049Y-90697642D01*
X151169096Y-91692880D02*
X151273858Y-91640500D01*
X151273858Y-91640500D02*
X151326239Y-91588119D01*
X151326239Y-91588119D02*
X151378620Y-91483357D01*
X151378620Y-91483357D02*
X151378620Y-91169071D01*
X151378620Y-91169071D02*
X151326239Y-91064309D01*
X151326239Y-91064309D02*
X151273858Y-91011928D01*
X151273858Y-91011928D02*
X151169096Y-90959547D01*
X151169096Y-90959547D02*
X151011953Y-90959547D01*
X151011953Y-90959547D02*
X150907191Y-91011928D01*
X150907191Y-91011928D02*
X150854810Y-91064309D01*
X150854810Y-91064309D02*
X150802429Y-91169071D01*
X150802429Y-91169071D02*
X150802429Y-91483357D01*
X150802429Y-91483357D02*
X150854810Y-91588119D01*
X150854810Y-91588119D02*
X150907191Y-91640500D01*
X150907191Y-91640500D02*
X151011953Y-91692880D01*
X151011953Y-91692880D02*
X151169096Y-91692880D01*
X150331001Y-90959547D02*
X150331001Y-91692880D01*
X150331001Y-91064309D02*
X150278620Y-91011928D01*
X150278620Y-91011928D02*
X150173858Y-90959547D01*
X150173858Y-90959547D02*
X150016715Y-90959547D01*
X150016715Y-90959547D02*
X149911953Y-91011928D01*
X149911953Y-91011928D02*
X149859572Y-91116690D01*
X149859572Y-91116690D02*
X149859572Y-91692880D01*
X158240523Y-93474880D02*
X158607190Y-92951071D01*
X158869095Y-93474880D02*
X158869095Y-92374880D01*
X158869095Y-92374880D02*
X158450047Y-92374880D01*
X158450047Y-92374880D02*
X158345285Y-92427261D01*
X158345285Y-92427261D02*
X158292904Y-92479642D01*
X158292904Y-92479642D02*
X158240523Y-92584404D01*
X158240523Y-92584404D02*
X158240523Y-92741547D01*
X158240523Y-92741547D02*
X158292904Y-92846309D01*
X158292904Y-92846309D02*
X158345285Y-92898690D01*
X158345285Y-92898690D02*
X158450047Y-92951071D01*
X158450047Y-92951071D02*
X158869095Y-92951071D01*
X157350047Y-93422500D02*
X157454809Y-93474880D01*
X157454809Y-93474880D02*
X157664333Y-93474880D01*
X157664333Y-93474880D02*
X157769095Y-93422500D01*
X157769095Y-93422500D02*
X157821476Y-93317738D01*
X157821476Y-93317738D02*
X157821476Y-92898690D01*
X157821476Y-92898690D02*
X157769095Y-92793928D01*
X157769095Y-92793928D02*
X157664333Y-92741547D01*
X157664333Y-92741547D02*
X157454809Y-92741547D01*
X157454809Y-92741547D02*
X157350047Y-92793928D01*
X157350047Y-92793928D02*
X157297666Y-92898690D01*
X157297666Y-92898690D02*
X157297666Y-93003452D01*
X157297666Y-93003452D02*
X157821476Y-93108214D01*
X156931000Y-92741547D02*
X156669095Y-93474880D01*
X156669095Y-93474880D02*
X156407190Y-92741547D01*
X155202429Y-92479642D02*
X155150048Y-92427261D01*
X155150048Y-92427261D02*
X155045286Y-92374880D01*
X155045286Y-92374880D02*
X154783381Y-92374880D01*
X154783381Y-92374880D02*
X154678619Y-92427261D01*
X154678619Y-92427261D02*
X154626238Y-92479642D01*
X154626238Y-92479642D02*
X154573857Y-92584404D01*
X154573857Y-92584404D02*
X154573857Y-92689166D01*
X154573857Y-92689166D02*
X154626238Y-92846309D01*
X154626238Y-92846309D02*
X155254810Y-93474880D01*
X155254810Y-93474880D02*
X154573857Y-93474880D01*
X154102429Y-93370119D02*
X154050048Y-93422500D01*
X154050048Y-93422500D02*
X154102429Y-93474880D01*
X154102429Y-93474880D02*
X154154810Y-93422500D01*
X154154810Y-93422500D02*
X154102429Y-93370119D01*
X154102429Y-93370119D02*
X154102429Y-93474880D01*
X153107190Y-92374880D02*
X153316714Y-92374880D01*
X153316714Y-92374880D02*
X153421476Y-92427261D01*
X153421476Y-92427261D02*
X153473857Y-92479642D01*
X153473857Y-92479642D02*
X153578619Y-92636785D01*
X153578619Y-92636785D02*
X153631000Y-92846309D01*
X153631000Y-92846309D02*
X153631000Y-93265357D01*
X153631000Y-93265357D02*
X153578619Y-93370119D01*
X153578619Y-93370119D02*
X153526238Y-93422500D01*
X153526238Y-93422500D02*
X153421476Y-93474880D01*
X153421476Y-93474880D02*
X153211952Y-93474880D01*
X153211952Y-93474880D02*
X153107190Y-93422500D01*
X153107190Y-93422500D02*
X153054809Y-93370119D01*
X153054809Y-93370119D02*
X153002428Y-93265357D01*
X153002428Y-93265357D02*
X153002428Y-93003452D01*
X153002428Y-93003452D02*
X153054809Y-92898690D01*
X153054809Y-92898690D02*
X153107190Y-92846309D01*
X153107190Y-92846309D02*
X153211952Y-92793928D01*
X153211952Y-92793928D02*
X153421476Y-92793928D01*
X153421476Y-92793928D02*
X153526238Y-92846309D01*
X153526238Y-92846309D02*
X153578619Y-92898690D01*
X153578619Y-92898690D02*
X153631000Y-93003452D01*
X158502428Y-94680690D02*
X158345285Y-94733071D01*
X158345285Y-94733071D02*
X158292904Y-94785452D01*
X158292904Y-94785452D02*
X158240523Y-94890214D01*
X158240523Y-94890214D02*
X158240523Y-95047357D01*
X158240523Y-95047357D02*
X158292904Y-95152119D01*
X158292904Y-95152119D02*
X158345285Y-95204500D01*
X158345285Y-95204500D02*
X158450047Y-95256880D01*
X158450047Y-95256880D02*
X158869095Y-95256880D01*
X158869095Y-95256880D02*
X158869095Y-94156880D01*
X158869095Y-94156880D02*
X158502428Y-94156880D01*
X158502428Y-94156880D02*
X158397666Y-94209261D01*
X158397666Y-94209261D02*
X158345285Y-94261642D01*
X158345285Y-94261642D02*
X158292904Y-94366404D01*
X158292904Y-94366404D02*
X158292904Y-94471166D01*
X158292904Y-94471166D02*
X158345285Y-94575928D01*
X158345285Y-94575928D02*
X158397666Y-94628309D01*
X158397666Y-94628309D02*
X158502428Y-94680690D01*
X158502428Y-94680690D02*
X158869095Y-94680690D01*
X157873857Y-94156880D02*
X157611952Y-95256880D01*
X157611952Y-95256880D02*
X157402428Y-94471166D01*
X157402428Y-94471166D02*
X157192904Y-95256880D01*
X157192904Y-95256880D02*
X156931000Y-94156880D01*
X156564333Y-94942595D02*
X156040523Y-94942595D01*
X156669095Y-95256880D02*
X156302428Y-94156880D01*
X156302428Y-94156880D02*
X155935761Y-95256880D01*
X154940523Y-95152119D02*
X154992904Y-95204500D01*
X154992904Y-95204500D02*
X155150047Y-95256880D01*
X155150047Y-95256880D02*
X155254809Y-95256880D01*
X155254809Y-95256880D02*
X155411952Y-95204500D01*
X155411952Y-95204500D02*
X155516714Y-95099738D01*
X155516714Y-95099738D02*
X155569095Y-94994976D01*
X155569095Y-94994976D02*
X155621476Y-94785452D01*
X155621476Y-94785452D02*
X155621476Y-94628309D01*
X155621476Y-94628309D02*
X155569095Y-94418785D01*
X155569095Y-94418785D02*
X155516714Y-94314023D01*
X155516714Y-94314023D02*
X155411952Y-94209261D01*
X155411952Y-94209261D02*
X155254809Y-94156880D01*
X155254809Y-94156880D02*
X155150047Y-94156880D01*
X155150047Y-94156880D02*
X154992904Y-94209261D01*
X154992904Y-94209261D02*
X154940523Y-94261642D01*
X154469095Y-95256880D02*
X154469095Y-94156880D01*
X153840523Y-95256880D02*
X154311952Y-94628309D01*
X153840523Y-94156880D02*
X154469095Y-94785452D01*
X152583381Y-94261642D02*
X152531000Y-94209261D01*
X152531000Y-94209261D02*
X152426238Y-94156880D01*
X152426238Y-94156880D02*
X152164333Y-94156880D01*
X152164333Y-94156880D02*
X152059571Y-94209261D01*
X152059571Y-94209261D02*
X152007190Y-94261642D01*
X152007190Y-94261642D02*
X151954809Y-94366404D01*
X151954809Y-94366404D02*
X151954809Y-94471166D01*
X151954809Y-94471166D02*
X152007190Y-94628309D01*
X152007190Y-94628309D02*
X152635762Y-95256880D01*
X152635762Y-95256880D02*
X151954809Y-95256880D01*
X151273857Y-94156880D02*
X151169095Y-94156880D01*
X151169095Y-94156880D02*
X151064333Y-94209261D01*
X151064333Y-94209261D02*
X151011952Y-94261642D01*
X151011952Y-94261642D02*
X150959571Y-94366404D01*
X150959571Y-94366404D02*
X150907190Y-94575928D01*
X150907190Y-94575928D02*
X150907190Y-94837833D01*
X150907190Y-94837833D02*
X150959571Y-95047357D01*
X150959571Y-95047357D02*
X151011952Y-95152119D01*
X151011952Y-95152119D02*
X151064333Y-95204500D01*
X151064333Y-95204500D02*
X151169095Y-95256880D01*
X151169095Y-95256880D02*
X151273857Y-95256880D01*
X151273857Y-95256880D02*
X151378619Y-95204500D01*
X151378619Y-95204500D02*
X151431000Y-95152119D01*
X151431000Y-95152119D02*
X151483381Y-95047357D01*
X151483381Y-95047357D02*
X151535762Y-94837833D01*
X151535762Y-94837833D02*
X151535762Y-94575928D01*
X151535762Y-94575928D02*
X151483381Y-94366404D01*
X151483381Y-94366404D02*
X151431000Y-94261642D01*
X151431000Y-94261642D02*
X151378619Y-94209261D01*
X151378619Y-94209261D02*
X151273857Y-94156880D01*
X150488143Y-94261642D02*
X150435762Y-94209261D01*
X150435762Y-94209261D02*
X150331000Y-94156880D01*
X150331000Y-94156880D02*
X150069095Y-94156880D01*
X150069095Y-94156880D02*
X149964333Y-94209261D01*
X149964333Y-94209261D02*
X149911952Y-94261642D01*
X149911952Y-94261642D02*
X149859571Y-94366404D01*
X149859571Y-94366404D02*
X149859571Y-94471166D01*
X149859571Y-94471166D02*
X149911952Y-94628309D01*
X149911952Y-94628309D02*
X150540524Y-95256880D01*
X150540524Y-95256880D02*
X149859571Y-95256880D01*
X149492905Y-94156880D02*
X148811952Y-94156880D01*
X148811952Y-94156880D02*
X149178619Y-94575928D01*
X149178619Y-94575928D02*
X149021476Y-94575928D01*
X149021476Y-94575928D02*
X148916714Y-94628309D01*
X148916714Y-94628309D02*
X148864333Y-94680690D01*
X148864333Y-94680690D02*
X148811952Y-94785452D01*
X148811952Y-94785452D02*
X148811952Y-95047357D01*
X148811952Y-95047357D02*
X148864333Y-95152119D01*
X148864333Y-95152119D02*
X148916714Y-95204500D01*
X148916714Y-95204500D02*
X149021476Y-95256880D01*
X149021476Y-95256880D02*
X149335762Y-95256880D01*
X149335762Y-95256880D02*
X149440524Y-95204500D01*
X149440524Y-95204500D02*
X149492905Y-95152119D01*
D12*
X184404000Y-112522000D02*
X146685000Y-112522000D01*
X140462000Y-83693000D02*
X178181000Y-83693000D01*
X140462000Y-106299000D02*
X140462000Y-83693000D01*
X178181000Y-89916000D02*
X184404000Y-89916000D01*
X146685000Y-112522000D02*
X146685000Y-106299000D01*
X146685000Y-106299000D02*
X140462000Y-106299000D01*
X178181000Y-83693000D02*
X178181000Y-89916000D01*
X184404000Y-89916000D02*
X184404000Y-112522000D01*
M02*
