M48
; DRILL file {KiCad 7.0.8} date 2023 October 20, Friday 02:31:31
; FORMAT={-:-/ absolute / inch / decimal}
; #@! TF.CreationDate,2023-10-20T02:31:31-04:00
; #@! TF.GenerationSoftware,Kicad,Pcbnew,7.0.8
; #@! TF.FileFunction,Plated,1,2,PTH
FMAT,2
INCH
; #@! TA.AperFunction,Plated,PTH,ComponentDrill
T1C0.0276
; #@! TA.AperFunction,Plated,PTH,ComponentDrill
T2C0.0315
; #@! TA.AperFunction,Plated,PTH,ComponentDrill
T3C0.0354
; #@! TA.AperFunction,Plated,PTH,ComponentDrill
T4C0.0394
; #@! TA.AperFunction,Plated,PTH,ComponentDrill
T5C0.0598
%
G90
G05
T1
X5.96Y-3.84
X6.16Y-3.84
X6.327Y-3.5136
X6.327Y-3.7136
X6.4188Y-3.5136
X6.4188Y-3.7136
X6.5106Y-3.5136
X6.5106Y-3.7136
X6.6024Y-3.5136
X6.6024Y-3.7136
X6.6941Y-3.5143
X6.6941Y-3.6061
X6.71Y-3.69
X6.71Y-3.89
X6.8Y-3.69
X6.8Y-3.89
X6.89Y-3.69
X6.89Y-3.89
X6.8941Y-3.5143
X6.8941Y-3.6061
T2
X5.9Y-3.9347
X5.9Y-4.2347
X6.02Y-3.935
X6.02Y-4.235
X6.1758Y-3.945
X6.1758Y-4.045
X6.1758Y-4.145
X6.37Y-4.045
X6.47Y-4.045
X6.57Y-4.045
X6.7466Y-4.07
X6.845Y-4.07
T3
X6.305Y-3.86
X6.405Y-3.86
X6.51Y-3.86
X6.61Y-3.86
T4
X5.85Y-4.35
X5.95Y-4.35
X6.05Y-4.35
X6.15Y-4.35
X6.2Y-3.4
X6.25Y-4.35
X6.3Y-3.4
X6.3Y-4.25
X6.35Y-4.35
X6.4Y-3.4
X6.4Y-4.25
X6.45Y-4.35
X6.5Y-3.4
X6.5Y-4.25
X6.55Y-4.35
X6.6Y-3.4
X6.6Y-4.25
X6.7Y-3.4
X6.8Y-3.4
X6.9Y-3.4
T5
X5.685Y-3.475
X5.685Y-3.675
X5.685Y-3.875
X5.685Y-4.075
X7.1Y-3.66
X7.1Y-3.86
X7.1Y-4.06
X7.1Y-4.26
T0
M30
