G04 #@! TF.GenerationSoftware,KiCad,Pcbnew,7.0.8*
G04 #@! TF.CreationDate,2023-10-20T02:31:35-04:00*
G04 #@! TF.ProjectId,C64Saver2,43363453-6176-4657-9232-2e6b69636164,2.6*
G04 #@! TF.SameCoordinates,Original*
G04 #@! TF.FileFunction,Legend,Top*
G04 #@! TF.FilePolarity,Positive*
%FSLAX46Y46*%
G04 Gerber Fmt 4.6, Leading zero omitted, Abs format (unit mm)*
G04 Created by KiCad (PCBNEW 7.0.8) date 2023-10-20 02:31:35*
%MOMM*%
%LPD*%
G01*
G04 APERTURE LIST*
%ADD10C,0.300000*%
%ADD11C,0.125000*%
%ADD12C,0.150000*%
%ADD13C,0.120000*%
G04 #@! TA.AperFunction,Profile*
%ADD14C,0.150000*%
G04 #@! TD*
G04 APERTURE END LIST*
D10*
X146632673Y-88503094D02*
X146632673Y-89098332D01*
X146632673Y-89098332D02*
X147227911Y-89157856D01*
X147227911Y-89157856D02*
X147168388Y-89098332D01*
X147168388Y-89098332D02*
X147108864Y-88979285D01*
X147108864Y-88979285D02*
X147108864Y-88681666D01*
X147108864Y-88681666D02*
X147168388Y-88562618D01*
X147168388Y-88562618D02*
X147227911Y-88503094D01*
X147227911Y-88503094D02*
X147346959Y-88443571D01*
X147346959Y-88443571D02*
X147644578Y-88443571D01*
X147644578Y-88443571D02*
X147763626Y-88503094D01*
X147763626Y-88503094D02*
X147823150Y-88562618D01*
X147823150Y-88562618D02*
X147882673Y-88681666D01*
X147882673Y-88681666D02*
X147882673Y-88979285D01*
X147882673Y-88979285D02*
X147823150Y-89098332D01*
X147823150Y-89098332D02*
X147763626Y-89157856D01*
X146632673Y-88086428D02*
X147882673Y-87669761D01*
X147882673Y-87669761D02*
X146632673Y-87253095D01*
X146692197Y-94297381D02*
X146632673Y-94416428D01*
X146632673Y-94416428D02*
X146632673Y-94595000D01*
X146632673Y-94595000D02*
X146692197Y-94773571D01*
X146692197Y-94773571D02*
X146811245Y-94892619D01*
X146811245Y-94892619D02*
X146930292Y-94952142D01*
X146930292Y-94952142D02*
X147168388Y-95011666D01*
X147168388Y-95011666D02*
X147346959Y-95011666D01*
X147346959Y-95011666D02*
X147585054Y-94952142D01*
X147585054Y-94952142D02*
X147704102Y-94892619D01*
X147704102Y-94892619D02*
X147823150Y-94773571D01*
X147823150Y-94773571D02*
X147882673Y-94595000D01*
X147882673Y-94595000D02*
X147882673Y-94475952D01*
X147882673Y-94475952D02*
X147823150Y-94297381D01*
X147823150Y-94297381D02*
X147763626Y-94237857D01*
X147763626Y-94237857D02*
X147346959Y-94237857D01*
X147346959Y-94237857D02*
X147346959Y-94475952D01*
X147882673Y-93702142D02*
X146632673Y-93702142D01*
X146632673Y-93702142D02*
X147882673Y-92987857D01*
X147882673Y-92987857D02*
X146632673Y-92987857D01*
X147882673Y-92392618D02*
X146632673Y-92392618D01*
X146632673Y-92392618D02*
X146632673Y-92094999D01*
X146632673Y-92094999D02*
X146692197Y-91916428D01*
X146692197Y-91916428D02*
X146811245Y-91797380D01*
X146811245Y-91797380D02*
X146930292Y-91737857D01*
X146930292Y-91737857D02*
X147168388Y-91678333D01*
X147168388Y-91678333D02*
X147346959Y-91678333D01*
X147346959Y-91678333D02*
X147585054Y-91737857D01*
X147585054Y-91737857D02*
X147704102Y-91797380D01*
X147704102Y-91797380D02*
X147823150Y-91916428D01*
X147823150Y-91916428D02*
X147882673Y-92094999D01*
X147882673Y-92094999D02*
X147882673Y-92392618D01*
X147882673Y-103026524D02*
X147882673Y-102788428D01*
X147882673Y-102788428D02*
X147823150Y-102669381D01*
X147823150Y-102669381D02*
X147763626Y-102609857D01*
X147763626Y-102609857D02*
X147585054Y-102490809D01*
X147585054Y-102490809D02*
X147346959Y-102431286D01*
X147346959Y-102431286D02*
X146870769Y-102431286D01*
X146870769Y-102431286D02*
X146751721Y-102490809D01*
X146751721Y-102490809D02*
X146692197Y-102550333D01*
X146692197Y-102550333D02*
X146632673Y-102669381D01*
X146632673Y-102669381D02*
X146632673Y-102907476D01*
X146632673Y-102907476D02*
X146692197Y-103026524D01*
X146692197Y-103026524D02*
X146751721Y-103086047D01*
X146751721Y-103086047D02*
X146870769Y-103145571D01*
X146870769Y-103145571D02*
X147168388Y-103145571D01*
X147168388Y-103145571D02*
X147287435Y-103086047D01*
X147287435Y-103086047D02*
X147346959Y-103026524D01*
X147346959Y-103026524D02*
X147406483Y-102907476D01*
X147406483Y-102907476D02*
X147406483Y-102669381D01*
X147406483Y-102669381D02*
X147346959Y-102550333D01*
X147346959Y-102550333D02*
X147287435Y-102490809D01*
X147287435Y-102490809D02*
X147168388Y-102431286D01*
X146632673Y-102074143D02*
X147882673Y-101657476D01*
X147882673Y-101657476D02*
X146632673Y-101240810D01*
X147525530Y-100883666D02*
X147525530Y-100288428D01*
X147882673Y-101002714D02*
X146632673Y-100586047D01*
X146632673Y-100586047D02*
X147882673Y-100169381D01*
X147763626Y-99038428D02*
X147823150Y-99097952D01*
X147823150Y-99097952D02*
X147882673Y-99276523D01*
X147882673Y-99276523D02*
X147882673Y-99395571D01*
X147882673Y-99395571D02*
X147823150Y-99574142D01*
X147823150Y-99574142D02*
X147704102Y-99693190D01*
X147704102Y-99693190D02*
X147585054Y-99752713D01*
X147585054Y-99752713D02*
X147346959Y-99812237D01*
X147346959Y-99812237D02*
X147168388Y-99812237D01*
X147168388Y-99812237D02*
X146930292Y-99752713D01*
X146930292Y-99752713D02*
X146811245Y-99693190D01*
X146811245Y-99693190D02*
X146692197Y-99574142D01*
X146692197Y-99574142D02*
X146632673Y-99395571D01*
X146632673Y-99395571D02*
X146632673Y-99276523D01*
X146632673Y-99276523D02*
X146692197Y-99097952D01*
X146692197Y-99097952D02*
X146751721Y-99038428D01*
D11*
X166429571Y-96871809D02*
X166262905Y-96633714D01*
X166143857Y-96871809D02*
X166143857Y-96371809D01*
X166143857Y-96371809D02*
X166334333Y-96371809D01*
X166334333Y-96371809D02*
X166381952Y-96395619D01*
X166381952Y-96395619D02*
X166405762Y-96419428D01*
X166405762Y-96419428D02*
X166429571Y-96467047D01*
X166429571Y-96467047D02*
X166429571Y-96538476D01*
X166429571Y-96538476D02*
X166405762Y-96586095D01*
X166405762Y-96586095D02*
X166381952Y-96609904D01*
X166381952Y-96609904D02*
X166334333Y-96633714D01*
X166334333Y-96633714D02*
X166143857Y-96633714D01*
X166643857Y-96609904D02*
X166810524Y-96609904D01*
X166881952Y-96871809D02*
X166643857Y-96871809D01*
X166643857Y-96871809D02*
X166643857Y-96371809D01*
X166643857Y-96371809D02*
X166881952Y-96371809D01*
X167096238Y-96871809D02*
X167096238Y-96371809D01*
X167096238Y-96371809D02*
X167215286Y-96371809D01*
X167215286Y-96371809D02*
X167286714Y-96395619D01*
X167286714Y-96395619D02*
X167334333Y-96443238D01*
X167334333Y-96443238D02*
X167358143Y-96490857D01*
X167358143Y-96490857D02*
X167381952Y-96586095D01*
X167381952Y-96586095D02*
X167381952Y-96657523D01*
X167381952Y-96657523D02*
X167358143Y-96752761D01*
X167358143Y-96752761D02*
X167334333Y-96800380D01*
X167334333Y-96800380D02*
X167286714Y-96848000D01*
X167286714Y-96848000D02*
X167215286Y-96871809D01*
X167215286Y-96871809D02*
X167096238Y-96871809D01*
D10*
X148530328Y-87986999D02*
X148530328Y-87701285D01*
X148530328Y-87701285D02*
X148601757Y-87558428D01*
X148601757Y-87558428D02*
X148744614Y-87415571D01*
X148744614Y-87415571D02*
X149030328Y-87344142D01*
X149030328Y-87344142D02*
X149530328Y-87344142D01*
X149530328Y-87344142D02*
X149816042Y-87415571D01*
X149816042Y-87415571D02*
X149958900Y-87558428D01*
X149958900Y-87558428D02*
X150030328Y-87701285D01*
X150030328Y-87701285D02*
X150030328Y-87986999D01*
X150030328Y-87986999D02*
X149958900Y-88129857D01*
X149958900Y-88129857D02*
X149816042Y-88272714D01*
X149816042Y-88272714D02*
X149530328Y-88344142D01*
X149530328Y-88344142D02*
X149030328Y-88344142D01*
X149030328Y-88344142D02*
X148744614Y-88272714D01*
X148744614Y-88272714D02*
X148601757Y-88129857D01*
X148601757Y-88129857D02*
X148530328Y-87986999D01*
X148530328Y-86701285D02*
X149744614Y-86701285D01*
X149744614Y-86701285D02*
X149887471Y-86629856D01*
X149887471Y-86629856D02*
X149958900Y-86558428D01*
X149958900Y-86558428D02*
X150030328Y-86415570D01*
X150030328Y-86415570D02*
X150030328Y-86129856D01*
X150030328Y-86129856D02*
X149958900Y-85986999D01*
X149958900Y-85986999D02*
X149887471Y-85915570D01*
X149887471Y-85915570D02*
X149744614Y-85844142D01*
X149744614Y-85844142D02*
X148530328Y-85844142D01*
X148530328Y-85344141D02*
X148530328Y-84486999D01*
X150030328Y-84915570D02*
X148530328Y-84915570D01*
X174708671Y-108942285D02*
X176208671Y-108942285D01*
X174708671Y-109656571D02*
X176208671Y-109656571D01*
X176208671Y-109656571D02*
X174708671Y-110513714D01*
X174708671Y-110513714D02*
X176208671Y-110513714D01*
X178300802Y-96964618D02*
X178360326Y-96845571D01*
X178360326Y-96845571D02*
X178360326Y-96666999D01*
X178360326Y-96666999D02*
X178300802Y-96488428D01*
X178300802Y-96488428D02*
X178181754Y-96369380D01*
X178181754Y-96369380D02*
X178062707Y-96309857D01*
X178062707Y-96309857D02*
X177824611Y-96250333D01*
X177824611Y-96250333D02*
X177646040Y-96250333D01*
X177646040Y-96250333D02*
X177407945Y-96309857D01*
X177407945Y-96309857D02*
X177288897Y-96369380D01*
X177288897Y-96369380D02*
X177169850Y-96488428D01*
X177169850Y-96488428D02*
X177110326Y-96666999D01*
X177110326Y-96666999D02*
X177110326Y-96786047D01*
X177110326Y-96786047D02*
X177169850Y-96964618D01*
X177169850Y-96964618D02*
X177229373Y-97024142D01*
X177229373Y-97024142D02*
X177646040Y-97024142D01*
X177646040Y-97024142D02*
X177646040Y-96786047D01*
X177110326Y-97559857D02*
X178360326Y-97559857D01*
X178360326Y-97559857D02*
X177110326Y-98274142D01*
X177110326Y-98274142D02*
X178360326Y-98274142D01*
X177110326Y-98869381D02*
X178360326Y-98869381D01*
X178360326Y-98869381D02*
X178360326Y-99167000D01*
X178360326Y-99167000D02*
X178300802Y-99345571D01*
X178300802Y-99345571D02*
X178181754Y-99464619D01*
X178181754Y-99464619D02*
X178062707Y-99524142D01*
X178062707Y-99524142D02*
X177824611Y-99583666D01*
X177824611Y-99583666D02*
X177646040Y-99583666D01*
X177646040Y-99583666D02*
X177407945Y-99524142D01*
X177407945Y-99524142D02*
X177288897Y-99464619D01*
X177288897Y-99464619D02*
X177169850Y-99345571D01*
X177169850Y-99345571D02*
X177110326Y-99167000D01*
X177110326Y-99167000D02*
X177110326Y-98869381D01*
D11*
X160909047Y-96395619D02*
X160861428Y-96371809D01*
X160861428Y-96371809D02*
X160789999Y-96371809D01*
X160789999Y-96371809D02*
X160718571Y-96395619D01*
X160718571Y-96395619D02*
X160670952Y-96443238D01*
X160670952Y-96443238D02*
X160647142Y-96490857D01*
X160647142Y-96490857D02*
X160623333Y-96586095D01*
X160623333Y-96586095D02*
X160623333Y-96657523D01*
X160623333Y-96657523D02*
X160647142Y-96752761D01*
X160647142Y-96752761D02*
X160670952Y-96800380D01*
X160670952Y-96800380D02*
X160718571Y-96848000D01*
X160718571Y-96848000D02*
X160789999Y-96871809D01*
X160789999Y-96871809D02*
X160837618Y-96871809D01*
X160837618Y-96871809D02*
X160909047Y-96848000D01*
X160909047Y-96848000D02*
X160932856Y-96824190D01*
X160932856Y-96824190D02*
X160932856Y-96657523D01*
X160932856Y-96657523D02*
X160837618Y-96657523D01*
X161432856Y-96871809D02*
X161266190Y-96633714D01*
X161147142Y-96871809D02*
X161147142Y-96371809D01*
X161147142Y-96371809D02*
X161337618Y-96371809D01*
X161337618Y-96371809D02*
X161385237Y-96395619D01*
X161385237Y-96395619D02*
X161409047Y-96419428D01*
X161409047Y-96419428D02*
X161432856Y-96467047D01*
X161432856Y-96467047D02*
X161432856Y-96538476D01*
X161432856Y-96538476D02*
X161409047Y-96586095D01*
X161409047Y-96586095D02*
X161385237Y-96609904D01*
X161385237Y-96609904D02*
X161337618Y-96633714D01*
X161337618Y-96633714D02*
X161147142Y-96633714D01*
X161647142Y-96871809D02*
X161647142Y-96371809D01*
X161647142Y-96371809D02*
X161932856Y-96871809D01*
X161932856Y-96871809D02*
X161932856Y-96371809D01*
D10*
X177110326Y-103348475D02*
X177110326Y-103586571D01*
X177110326Y-103586571D02*
X177169850Y-103705618D01*
X177169850Y-103705618D02*
X177229373Y-103765142D01*
X177229373Y-103765142D02*
X177407945Y-103884190D01*
X177407945Y-103884190D02*
X177646040Y-103943713D01*
X177646040Y-103943713D02*
X178122230Y-103943713D01*
X178122230Y-103943713D02*
X178241278Y-103884190D01*
X178241278Y-103884190D02*
X178300802Y-103824666D01*
X178300802Y-103824666D02*
X178360326Y-103705618D01*
X178360326Y-103705618D02*
X178360326Y-103467523D01*
X178360326Y-103467523D02*
X178300802Y-103348475D01*
X178300802Y-103348475D02*
X178241278Y-103288952D01*
X178241278Y-103288952D02*
X178122230Y-103229428D01*
X178122230Y-103229428D02*
X177824611Y-103229428D01*
X177824611Y-103229428D02*
X177705564Y-103288952D01*
X177705564Y-103288952D02*
X177646040Y-103348475D01*
X177646040Y-103348475D02*
X177586516Y-103467523D01*
X177586516Y-103467523D02*
X177586516Y-103705618D01*
X177586516Y-103705618D02*
X177646040Y-103824666D01*
X177646040Y-103824666D02*
X177705564Y-103884190D01*
X177705564Y-103884190D02*
X177824611Y-103943713D01*
X178360326Y-104300856D02*
X177110326Y-104717523D01*
X177110326Y-104717523D02*
X178360326Y-105134189D01*
X177467469Y-105491333D02*
X177467469Y-106086571D01*
X177110326Y-105372285D02*
X178360326Y-105788952D01*
X178360326Y-105788952D02*
X177110326Y-106205618D01*
X177229373Y-107336571D02*
X177169850Y-107277047D01*
X177169850Y-107277047D02*
X177110326Y-107098476D01*
X177110326Y-107098476D02*
X177110326Y-106979428D01*
X177110326Y-106979428D02*
X177169850Y-106800857D01*
X177169850Y-106800857D02*
X177288897Y-106681809D01*
X177288897Y-106681809D02*
X177407945Y-106622286D01*
X177407945Y-106622286D02*
X177646040Y-106562762D01*
X177646040Y-106562762D02*
X177824611Y-106562762D01*
X177824611Y-106562762D02*
X178062707Y-106622286D01*
X178062707Y-106622286D02*
X178181754Y-106681809D01*
X178181754Y-106681809D02*
X178300802Y-106800857D01*
X178300802Y-106800857D02*
X178360326Y-106979428D01*
X178360326Y-106979428D02*
X178360326Y-107098476D01*
X178360326Y-107098476D02*
X178300802Y-107277047D01*
X178300802Y-107277047D02*
X178241278Y-107336571D01*
X178360326Y-92725905D02*
X178360326Y-92130667D01*
X178360326Y-92130667D02*
X177765088Y-92071143D01*
X177765088Y-92071143D02*
X177824611Y-92130667D01*
X177824611Y-92130667D02*
X177884135Y-92249714D01*
X177884135Y-92249714D02*
X177884135Y-92547333D01*
X177884135Y-92547333D02*
X177824611Y-92666381D01*
X177824611Y-92666381D02*
X177765088Y-92725905D01*
X177765088Y-92725905D02*
X177646040Y-92785428D01*
X177646040Y-92785428D02*
X177348421Y-92785428D01*
X177348421Y-92785428D02*
X177229373Y-92725905D01*
X177229373Y-92725905D02*
X177169850Y-92666381D01*
X177169850Y-92666381D02*
X177110326Y-92547333D01*
X177110326Y-92547333D02*
X177110326Y-92249714D01*
X177110326Y-92249714D02*
X177169850Y-92130667D01*
X177169850Y-92130667D02*
X177229373Y-92071143D01*
X178360326Y-93142571D02*
X177110326Y-93559238D01*
X177110326Y-93559238D02*
X178360326Y-93975904D01*
D12*
X141271666Y-84163819D02*
X141271666Y-84878104D01*
X141271666Y-84878104D02*
X141224047Y-85020961D01*
X141224047Y-85020961D02*
X141128809Y-85116200D01*
X141128809Y-85116200D02*
X140985952Y-85163819D01*
X140985952Y-85163819D02*
X140890714Y-85163819D01*
X142176428Y-84163819D02*
X141985952Y-84163819D01*
X141985952Y-84163819D02*
X141890714Y-84211438D01*
X141890714Y-84211438D02*
X141843095Y-84259057D01*
X141843095Y-84259057D02*
X141747857Y-84401914D01*
X141747857Y-84401914D02*
X141700238Y-84592390D01*
X141700238Y-84592390D02*
X141700238Y-84973342D01*
X141700238Y-84973342D02*
X141747857Y-85068580D01*
X141747857Y-85068580D02*
X141795476Y-85116200D01*
X141795476Y-85116200D02*
X141890714Y-85163819D01*
X141890714Y-85163819D02*
X142081190Y-85163819D01*
X142081190Y-85163819D02*
X142176428Y-85116200D01*
X142176428Y-85116200D02*
X142224047Y-85068580D01*
X142224047Y-85068580D02*
X142271666Y-84973342D01*
X142271666Y-84973342D02*
X142271666Y-84735247D01*
X142271666Y-84735247D02*
X142224047Y-84640009D01*
X142224047Y-84640009D02*
X142176428Y-84592390D01*
X142176428Y-84592390D02*
X142081190Y-84544771D01*
X142081190Y-84544771D02*
X141890714Y-84544771D01*
X141890714Y-84544771D02*
X141795476Y-84592390D01*
X141795476Y-84592390D02*
X141747857Y-84640009D01*
X141747857Y-84640009D02*
X141700238Y-84735247D01*
X177184726Y-111214819D02*
X177184726Y-111929104D01*
X177184726Y-111929104D02*
X177137107Y-112071961D01*
X177137107Y-112071961D02*
X177041869Y-112167200D01*
X177041869Y-112167200D02*
X176899012Y-112214819D01*
X176899012Y-112214819D02*
X176803774Y-112214819D01*
X178184726Y-112214819D02*
X177613298Y-112214819D01*
X177899012Y-112214819D02*
X177899012Y-111214819D01*
X177899012Y-111214819D02*
X177803774Y-111357676D01*
X177803774Y-111357676D02*
X177708536Y-111452914D01*
X177708536Y-111452914D02*
X177613298Y-111500533D01*
X173569333Y-101832580D02*
X173521714Y-101880200D01*
X173521714Y-101880200D02*
X173378857Y-101927819D01*
X173378857Y-101927819D02*
X173283619Y-101927819D01*
X173283619Y-101927819D02*
X173140762Y-101880200D01*
X173140762Y-101880200D02*
X173045524Y-101784961D01*
X173045524Y-101784961D02*
X172997905Y-101689723D01*
X172997905Y-101689723D02*
X172950286Y-101499247D01*
X172950286Y-101499247D02*
X172950286Y-101356390D01*
X172950286Y-101356390D02*
X172997905Y-101165914D01*
X172997905Y-101165914D02*
X173045524Y-101070676D01*
X173045524Y-101070676D02*
X173140762Y-100975438D01*
X173140762Y-100975438D02*
X173283619Y-100927819D01*
X173283619Y-100927819D02*
X173378857Y-100927819D01*
X173378857Y-100927819D02*
X173521714Y-100975438D01*
X173521714Y-100975438D02*
X173569333Y-101023057D01*
X174521714Y-101927819D02*
X173950286Y-101927819D01*
X174236000Y-101927819D02*
X174236000Y-100927819D01*
X174236000Y-100927819D02*
X174140762Y-101070676D01*
X174140762Y-101070676D02*
X174045524Y-101165914D01*
X174045524Y-101165914D02*
X173950286Y-101213533D01*
X157003761Y-93387057D02*
X156908523Y-93339438D01*
X156908523Y-93339438D02*
X156813285Y-93244200D01*
X156813285Y-93244200D02*
X156670428Y-93101342D01*
X156670428Y-93101342D02*
X156575190Y-93053723D01*
X156575190Y-93053723D02*
X156479952Y-93053723D01*
X156527571Y-93291819D02*
X156432333Y-93244200D01*
X156432333Y-93244200D02*
X156337095Y-93148961D01*
X156337095Y-93148961D02*
X156289476Y-92958485D01*
X156289476Y-92958485D02*
X156289476Y-92625152D01*
X156289476Y-92625152D02*
X156337095Y-92434676D01*
X156337095Y-92434676D02*
X156432333Y-92339438D01*
X156432333Y-92339438D02*
X156527571Y-92291819D01*
X156527571Y-92291819D02*
X156718047Y-92291819D01*
X156718047Y-92291819D02*
X156813285Y-92339438D01*
X156813285Y-92339438D02*
X156908523Y-92434676D01*
X156908523Y-92434676D02*
X156956142Y-92625152D01*
X156956142Y-92625152D02*
X156956142Y-92958485D01*
X156956142Y-92958485D02*
X156908523Y-93148961D01*
X156908523Y-93148961D02*
X156813285Y-93244200D01*
X156813285Y-93244200D02*
X156718047Y-93291819D01*
X156718047Y-93291819D02*
X156527571Y-93291819D01*
X157337095Y-92387057D02*
X157384714Y-92339438D01*
X157384714Y-92339438D02*
X157479952Y-92291819D01*
X157479952Y-92291819D02*
X157718047Y-92291819D01*
X157718047Y-92291819D02*
X157813285Y-92339438D01*
X157813285Y-92339438D02*
X157860904Y-92387057D01*
X157860904Y-92387057D02*
X157908523Y-92482295D01*
X157908523Y-92482295D02*
X157908523Y-92577533D01*
X157908523Y-92577533D02*
X157860904Y-92720390D01*
X157860904Y-92720390D02*
X157289476Y-93291819D01*
X157289476Y-93291819D02*
X157908523Y-93291819D01*
X154816666Y-85814819D02*
X154816666Y-86529104D01*
X154816666Y-86529104D02*
X154769047Y-86671961D01*
X154769047Y-86671961D02*
X154673809Y-86767200D01*
X154673809Y-86767200D02*
X154530952Y-86814819D01*
X154530952Y-86814819D02*
X154435714Y-86814819D01*
X155245238Y-85910057D02*
X155292857Y-85862438D01*
X155292857Y-85862438D02*
X155388095Y-85814819D01*
X155388095Y-85814819D02*
X155626190Y-85814819D01*
X155626190Y-85814819D02*
X155721428Y-85862438D01*
X155721428Y-85862438D02*
X155769047Y-85910057D01*
X155769047Y-85910057D02*
X155816666Y-86005295D01*
X155816666Y-86005295D02*
X155816666Y-86100533D01*
X155816666Y-86100533D02*
X155769047Y-86243390D01*
X155769047Y-86243390D02*
X155197619Y-86814819D01*
X155197619Y-86814819D02*
X155816666Y-86814819D01*
X168449666Y-110071819D02*
X168449666Y-110786104D01*
X168449666Y-110786104D02*
X168402047Y-110928961D01*
X168402047Y-110928961D02*
X168306809Y-111024200D01*
X168306809Y-111024200D02*
X168163952Y-111071819D01*
X168163952Y-111071819D02*
X168068714Y-111071819D01*
X169354428Y-110405152D02*
X169354428Y-111071819D01*
X169116333Y-110024200D02*
X168878238Y-110738485D01*
X168878238Y-110738485D02*
X169497285Y-110738485D01*
X169719666Y-107531819D02*
X169719666Y-108246104D01*
X169719666Y-108246104D02*
X169672047Y-108388961D01*
X169672047Y-108388961D02*
X169576809Y-108484200D01*
X169576809Y-108484200D02*
X169433952Y-108531819D01*
X169433952Y-108531819D02*
X169338714Y-108531819D01*
X170672047Y-107531819D02*
X170195857Y-107531819D01*
X170195857Y-107531819D02*
X170148238Y-108008009D01*
X170148238Y-108008009D02*
X170195857Y-107960390D01*
X170195857Y-107960390D02*
X170291095Y-107912771D01*
X170291095Y-107912771D02*
X170529190Y-107912771D01*
X170529190Y-107912771D02*
X170624428Y-107960390D01*
X170624428Y-107960390D02*
X170672047Y-108008009D01*
X170672047Y-108008009D02*
X170719666Y-108103247D01*
X170719666Y-108103247D02*
X170719666Y-108341342D01*
X170719666Y-108341342D02*
X170672047Y-108436580D01*
X170672047Y-108436580D02*
X170624428Y-108484200D01*
X170624428Y-108484200D02*
X170529190Y-108531819D01*
X170529190Y-108531819D02*
X170291095Y-108531819D01*
X170291095Y-108531819D02*
X170195857Y-108484200D01*
X170195857Y-108484200D02*
X170148238Y-108436580D01*
X170888819Y-96432666D02*
X170412628Y-96765999D01*
X170888819Y-97004094D02*
X169888819Y-97004094D01*
X169888819Y-97004094D02*
X169888819Y-96623142D01*
X169888819Y-96623142D02*
X169936438Y-96527904D01*
X169936438Y-96527904D02*
X169984057Y-96480285D01*
X169984057Y-96480285D02*
X170079295Y-96432666D01*
X170079295Y-96432666D02*
X170222152Y-96432666D01*
X170222152Y-96432666D02*
X170317390Y-96480285D01*
X170317390Y-96480285D02*
X170365009Y-96527904D01*
X170365009Y-96527904D02*
X170412628Y-96623142D01*
X170412628Y-96623142D02*
X170412628Y-97004094D01*
X169888819Y-96099332D02*
X169888819Y-95480285D01*
X169888819Y-95480285D02*
X170269771Y-95813618D01*
X170269771Y-95813618D02*
X170269771Y-95670761D01*
X170269771Y-95670761D02*
X170317390Y-95575523D01*
X170317390Y-95575523D02*
X170365009Y-95527904D01*
X170365009Y-95527904D02*
X170460247Y-95480285D01*
X170460247Y-95480285D02*
X170698342Y-95480285D01*
X170698342Y-95480285D02*
X170793580Y-95527904D01*
X170793580Y-95527904D02*
X170841200Y-95575523D01*
X170841200Y-95575523D02*
X170888819Y-95670761D01*
X170888819Y-95670761D02*
X170888819Y-95956475D01*
X170888819Y-95956475D02*
X170841200Y-96051713D01*
X170841200Y-96051713D02*
X170793580Y-96099332D01*
X175460819Y-96432666D02*
X174984628Y-96765999D01*
X175460819Y-97004094D02*
X174460819Y-97004094D01*
X174460819Y-97004094D02*
X174460819Y-96623142D01*
X174460819Y-96623142D02*
X174508438Y-96527904D01*
X174508438Y-96527904D02*
X174556057Y-96480285D01*
X174556057Y-96480285D02*
X174651295Y-96432666D01*
X174651295Y-96432666D02*
X174794152Y-96432666D01*
X174794152Y-96432666D02*
X174889390Y-96480285D01*
X174889390Y-96480285D02*
X174937009Y-96527904D01*
X174937009Y-96527904D02*
X174984628Y-96623142D01*
X174984628Y-96623142D02*
X174984628Y-97004094D01*
X175460819Y-95480285D02*
X175460819Y-96051713D01*
X175460819Y-95765999D02*
X174460819Y-95765999D01*
X174460819Y-95765999D02*
X174603676Y-95861237D01*
X174603676Y-95861237D02*
X174698914Y-95956475D01*
X174698914Y-95956475D02*
X174746533Y-96051713D01*
X168231012Y-91987666D02*
X167754821Y-92320999D01*
X168231012Y-92559094D02*
X167231012Y-92559094D01*
X167231012Y-92559094D02*
X167231012Y-92178142D01*
X167231012Y-92178142D02*
X167278631Y-92082904D01*
X167278631Y-92082904D02*
X167326250Y-92035285D01*
X167326250Y-92035285D02*
X167421488Y-91987666D01*
X167421488Y-91987666D02*
X167564345Y-91987666D01*
X167564345Y-91987666D02*
X167659583Y-92035285D01*
X167659583Y-92035285D02*
X167707202Y-92082904D01*
X167707202Y-92082904D02*
X167754821Y-92178142D01*
X167754821Y-92178142D02*
X167754821Y-92559094D01*
X167231012Y-91130523D02*
X167231012Y-91320999D01*
X167231012Y-91320999D02*
X167278631Y-91416237D01*
X167278631Y-91416237D02*
X167326250Y-91463856D01*
X167326250Y-91463856D02*
X167469107Y-91559094D01*
X167469107Y-91559094D02*
X167659583Y-91606713D01*
X167659583Y-91606713D02*
X168040535Y-91606713D01*
X168040535Y-91606713D02*
X168135773Y-91559094D01*
X168135773Y-91559094D02*
X168183393Y-91511475D01*
X168183393Y-91511475D02*
X168231012Y-91416237D01*
X168231012Y-91416237D02*
X168231012Y-91225761D01*
X168231012Y-91225761D02*
X168183393Y-91130523D01*
X168183393Y-91130523D02*
X168135773Y-91082904D01*
X168135773Y-91082904D02*
X168040535Y-91035285D01*
X168040535Y-91035285D02*
X167802440Y-91035285D01*
X167802440Y-91035285D02*
X167707202Y-91082904D01*
X167707202Y-91082904D02*
X167659583Y-91130523D01*
X167659583Y-91130523D02*
X167611964Y-91225761D01*
X167611964Y-91225761D02*
X167611964Y-91416237D01*
X167611964Y-91416237D02*
X167659583Y-91511475D01*
X167659583Y-91511475D02*
X167707202Y-91559094D01*
X167707202Y-91559094D02*
X167802440Y-91606713D01*
X163593616Y-91860666D02*
X163117425Y-92193999D01*
X163593616Y-92432094D02*
X162593616Y-92432094D01*
X162593616Y-92432094D02*
X162593616Y-92051142D01*
X162593616Y-92051142D02*
X162641235Y-91955904D01*
X162641235Y-91955904D02*
X162688854Y-91908285D01*
X162688854Y-91908285D02*
X162784092Y-91860666D01*
X162784092Y-91860666D02*
X162926949Y-91860666D01*
X162926949Y-91860666D02*
X163022187Y-91908285D01*
X163022187Y-91908285D02*
X163069806Y-91955904D01*
X163069806Y-91955904D02*
X163117425Y-92051142D01*
X163117425Y-92051142D02*
X163117425Y-92432094D01*
X163022187Y-91289237D02*
X162974568Y-91384475D01*
X162974568Y-91384475D02*
X162926949Y-91432094D01*
X162926949Y-91432094D02*
X162831711Y-91479713D01*
X162831711Y-91479713D02*
X162784092Y-91479713D01*
X162784092Y-91479713D02*
X162688854Y-91432094D01*
X162688854Y-91432094D02*
X162641235Y-91384475D01*
X162641235Y-91384475D02*
X162593616Y-91289237D01*
X162593616Y-91289237D02*
X162593616Y-91098761D01*
X162593616Y-91098761D02*
X162641235Y-91003523D01*
X162641235Y-91003523D02*
X162688854Y-90955904D01*
X162688854Y-90955904D02*
X162784092Y-90908285D01*
X162784092Y-90908285D02*
X162831711Y-90908285D01*
X162831711Y-90908285D02*
X162926949Y-90955904D01*
X162926949Y-90955904D02*
X162974568Y-91003523D01*
X162974568Y-91003523D02*
X163022187Y-91098761D01*
X163022187Y-91098761D02*
X163022187Y-91289237D01*
X163022187Y-91289237D02*
X163069806Y-91384475D01*
X163069806Y-91384475D02*
X163117425Y-91432094D01*
X163117425Y-91432094D02*
X163212663Y-91479713D01*
X163212663Y-91479713D02*
X163403139Y-91479713D01*
X163403139Y-91479713D02*
X163498377Y-91432094D01*
X163498377Y-91432094D02*
X163545997Y-91384475D01*
X163545997Y-91384475D02*
X163593616Y-91289237D01*
X163593616Y-91289237D02*
X163593616Y-91098761D01*
X163593616Y-91098761D02*
X163545997Y-91003523D01*
X163545997Y-91003523D02*
X163498377Y-90955904D01*
X163498377Y-90955904D02*
X163403139Y-90908285D01*
X163403139Y-90908285D02*
X163212663Y-90908285D01*
X163212663Y-90908285D02*
X163117425Y-90955904D01*
X163117425Y-90955904D02*
X163069806Y-91003523D01*
X163069806Y-91003523D02*
X163022187Y-91098761D01*
X172377154Y-92126775D02*
X172043821Y-91650584D01*
X171805726Y-92126775D02*
X171805726Y-91126775D01*
X171805726Y-91126775D02*
X172186678Y-91126775D01*
X172186678Y-91126775D02*
X172281916Y-91174394D01*
X172281916Y-91174394D02*
X172329535Y-91222013D01*
X172329535Y-91222013D02*
X172377154Y-91317251D01*
X172377154Y-91317251D02*
X172377154Y-91460108D01*
X172377154Y-91460108D02*
X172329535Y-91555346D01*
X172329535Y-91555346D02*
X172281916Y-91602965D01*
X172281916Y-91602965D02*
X172186678Y-91650584D01*
X172186678Y-91650584D02*
X171805726Y-91650584D01*
X173234297Y-91460108D02*
X173234297Y-92126775D01*
X172996202Y-91079156D02*
X172758107Y-91793441D01*
X172758107Y-91793441D02*
X173377154Y-91793441D01*
X161236819Y-91860666D02*
X160760628Y-92193999D01*
X161236819Y-92432094D02*
X160236819Y-92432094D01*
X160236819Y-92432094D02*
X160236819Y-92051142D01*
X160236819Y-92051142D02*
X160284438Y-91955904D01*
X160284438Y-91955904D02*
X160332057Y-91908285D01*
X160332057Y-91908285D02*
X160427295Y-91860666D01*
X160427295Y-91860666D02*
X160570152Y-91860666D01*
X160570152Y-91860666D02*
X160665390Y-91908285D01*
X160665390Y-91908285D02*
X160713009Y-91955904D01*
X160713009Y-91955904D02*
X160760628Y-92051142D01*
X160760628Y-92051142D02*
X160760628Y-92432094D01*
X161236819Y-91384475D02*
X161236819Y-91193999D01*
X161236819Y-91193999D02*
X161189200Y-91098761D01*
X161189200Y-91098761D02*
X161141580Y-91051142D01*
X161141580Y-91051142D02*
X160998723Y-90955904D01*
X160998723Y-90955904D02*
X160808247Y-90908285D01*
X160808247Y-90908285D02*
X160427295Y-90908285D01*
X160427295Y-90908285D02*
X160332057Y-90955904D01*
X160332057Y-90955904D02*
X160284438Y-91003523D01*
X160284438Y-91003523D02*
X160236819Y-91098761D01*
X160236819Y-91098761D02*
X160236819Y-91289237D01*
X160236819Y-91289237D02*
X160284438Y-91384475D01*
X160284438Y-91384475D02*
X160332057Y-91432094D01*
X160332057Y-91432094D02*
X160427295Y-91479713D01*
X160427295Y-91479713D02*
X160665390Y-91479713D01*
X160665390Y-91479713D02*
X160760628Y-91432094D01*
X160760628Y-91432094D02*
X160808247Y-91384475D01*
X160808247Y-91384475D02*
X160855866Y-91289237D01*
X160855866Y-91289237D02*
X160855866Y-91098761D01*
X160855866Y-91098761D02*
X160808247Y-91003523D01*
X160808247Y-91003523D02*
X160760628Y-90955904D01*
X160760628Y-90955904D02*
X160665390Y-90908285D01*
X153362819Y-104274857D02*
X152886628Y-104608190D01*
X153362819Y-104846285D02*
X152362819Y-104846285D01*
X152362819Y-104846285D02*
X152362819Y-104465333D01*
X152362819Y-104465333D02*
X152410438Y-104370095D01*
X152410438Y-104370095D02*
X152458057Y-104322476D01*
X152458057Y-104322476D02*
X152553295Y-104274857D01*
X152553295Y-104274857D02*
X152696152Y-104274857D01*
X152696152Y-104274857D02*
X152791390Y-104322476D01*
X152791390Y-104322476D02*
X152839009Y-104370095D01*
X152839009Y-104370095D02*
X152886628Y-104465333D01*
X152886628Y-104465333D02*
X152886628Y-104846285D01*
X153362819Y-103322476D02*
X153362819Y-103893904D01*
X153362819Y-103608190D02*
X152362819Y-103608190D01*
X152362819Y-103608190D02*
X152505676Y-103703428D01*
X152505676Y-103703428D02*
X152600914Y-103798666D01*
X152600914Y-103798666D02*
X152648533Y-103893904D01*
X153362819Y-102370095D02*
X153362819Y-102941523D01*
X153362819Y-102655809D02*
X152362819Y-102655809D01*
X152362819Y-102655809D02*
X152505676Y-102751047D01*
X152505676Y-102751047D02*
X152600914Y-102846285D01*
X152600914Y-102846285D02*
X152648533Y-102941523D01*
X166001213Y-91926866D02*
X165525022Y-92260199D01*
X166001213Y-92498294D02*
X165001213Y-92498294D01*
X165001213Y-92498294D02*
X165001213Y-92117342D01*
X165001213Y-92117342D02*
X165048832Y-92022104D01*
X165048832Y-92022104D02*
X165096451Y-91974485D01*
X165096451Y-91974485D02*
X165191689Y-91926866D01*
X165191689Y-91926866D02*
X165334546Y-91926866D01*
X165334546Y-91926866D02*
X165429784Y-91974485D01*
X165429784Y-91974485D02*
X165477403Y-92022104D01*
X165477403Y-92022104D02*
X165525022Y-92117342D01*
X165525022Y-92117342D02*
X165525022Y-92498294D01*
X165001213Y-91593532D02*
X165001213Y-90926866D01*
X165001213Y-90926866D02*
X166001213Y-91355437D01*
X158919057Y-102838238D02*
X158871438Y-102933476D01*
X158871438Y-102933476D02*
X158776200Y-103028714D01*
X158776200Y-103028714D02*
X158633342Y-103171571D01*
X158633342Y-103171571D02*
X158585723Y-103266809D01*
X158585723Y-103266809D02*
X158585723Y-103362047D01*
X158823819Y-103314428D02*
X158776200Y-103409666D01*
X158776200Y-103409666D02*
X158680961Y-103504904D01*
X158680961Y-103504904D02*
X158490485Y-103552523D01*
X158490485Y-103552523D02*
X158157152Y-103552523D01*
X158157152Y-103552523D02*
X157966676Y-103504904D01*
X157966676Y-103504904D02*
X157871438Y-103409666D01*
X157871438Y-103409666D02*
X157823819Y-103314428D01*
X157823819Y-103314428D02*
X157823819Y-103123952D01*
X157823819Y-103123952D02*
X157871438Y-103028714D01*
X157871438Y-103028714D02*
X157966676Y-102933476D01*
X157966676Y-102933476D02*
X158157152Y-102885857D01*
X158157152Y-102885857D02*
X158490485Y-102885857D01*
X158490485Y-102885857D02*
X158680961Y-102933476D01*
X158680961Y-102933476D02*
X158776200Y-103028714D01*
X158776200Y-103028714D02*
X158823819Y-103123952D01*
X158823819Y-103123952D02*
X158823819Y-103314428D01*
X158823819Y-101933476D02*
X158823819Y-102504904D01*
X158823819Y-102219190D02*
X157823819Y-102219190D01*
X157823819Y-102219190D02*
X157966676Y-102314428D01*
X157966676Y-102314428D02*
X158061914Y-102409666D01*
X158061914Y-102409666D02*
X158109533Y-102504904D01*
X159760610Y-100381191D02*
X159403467Y-100381191D01*
X159403467Y-100381191D02*
X159403467Y-99631191D01*
X160010610Y-99988334D02*
X160260610Y-99988334D01*
X160367753Y-100381191D02*
X160010610Y-100381191D01*
X160010610Y-100381191D02*
X160010610Y-99631191D01*
X160010610Y-99631191D02*
X160367753Y-99631191D01*
X160689181Y-100381191D02*
X160689181Y-99631191D01*
X160689181Y-99631191D02*
X160867752Y-99631191D01*
X160867752Y-99631191D02*
X160974895Y-99666905D01*
X160974895Y-99666905D02*
X161046324Y-99738334D01*
X161046324Y-99738334D02*
X161082038Y-99809762D01*
X161082038Y-99809762D02*
X161117752Y-99952619D01*
X161117752Y-99952619D02*
X161117752Y-100059762D01*
X161117752Y-100059762D02*
X161082038Y-100202619D01*
X161082038Y-100202619D02*
X161046324Y-100274048D01*
X161046324Y-100274048D02*
X160974895Y-100345477D01*
X160974895Y-100345477D02*
X160867752Y-100381191D01*
X160867752Y-100381191D02*
X160689181Y-100381191D01*
X161403467Y-99702619D02*
X161439181Y-99666905D01*
X161439181Y-99666905D02*
X161510610Y-99631191D01*
X161510610Y-99631191D02*
X161689181Y-99631191D01*
X161689181Y-99631191D02*
X161760610Y-99666905D01*
X161760610Y-99666905D02*
X161796324Y-99702619D01*
X161796324Y-99702619D02*
X161832038Y-99774048D01*
X161832038Y-99774048D02*
X161832038Y-99845477D01*
X161832038Y-99845477D02*
X161796324Y-99952619D01*
X161796324Y-99952619D02*
X161367752Y-100381191D01*
X161367752Y-100381191D02*
X161832038Y-100381191D01*
X166673714Y-100415164D02*
X166316571Y-100415164D01*
X166316571Y-100415164D02*
X166316571Y-99665164D01*
X166923714Y-100022307D02*
X167173714Y-100022307D01*
X167280857Y-100415164D02*
X166923714Y-100415164D01*
X166923714Y-100415164D02*
X166923714Y-99665164D01*
X166923714Y-99665164D02*
X167280857Y-99665164D01*
X167602285Y-100415164D02*
X167602285Y-99665164D01*
X167602285Y-99665164D02*
X167780856Y-99665164D01*
X167780856Y-99665164D02*
X167887999Y-99700878D01*
X167887999Y-99700878D02*
X167959428Y-99772307D01*
X167959428Y-99772307D02*
X167995142Y-99843735D01*
X167995142Y-99843735D02*
X168030856Y-99986592D01*
X168030856Y-99986592D02*
X168030856Y-100093735D01*
X168030856Y-100093735D02*
X167995142Y-100236592D01*
X167995142Y-100236592D02*
X167959428Y-100308021D01*
X167959428Y-100308021D02*
X167887999Y-100379450D01*
X167887999Y-100379450D02*
X167780856Y-100415164D01*
X167780856Y-100415164D02*
X167602285Y-100415164D01*
X168745142Y-100415164D02*
X168316571Y-100415164D01*
X168530856Y-100415164D02*
X168530856Y-99665164D01*
X168530856Y-99665164D02*
X168459428Y-99772307D01*
X168459428Y-99772307D02*
X168387999Y-99843735D01*
X168387999Y-99843735D02*
X168316571Y-99879450D01*
X153281142Y-97990819D02*
X152947809Y-97514628D01*
X152709714Y-97990819D02*
X152709714Y-96990819D01*
X152709714Y-96990819D02*
X153090666Y-96990819D01*
X153090666Y-96990819D02*
X153185904Y-97038438D01*
X153185904Y-97038438D02*
X153233523Y-97086057D01*
X153233523Y-97086057D02*
X153281142Y-97181295D01*
X153281142Y-97181295D02*
X153281142Y-97324152D01*
X153281142Y-97324152D02*
X153233523Y-97419390D01*
X153233523Y-97419390D02*
X153185904Y-97467009D01*
X153185904Y-97467009D02*
X153090666Y-97514628D01*
X153090666Y-97514628D02*
X152709714Y-97514628D01*
X154233523Y-97990819D02*
X153662095Y-97990819D01*
X153947809Y-97990819D02*
X153947809Y-96990819D01*
X153947809Y-96990819D02*
X153852571Y-97133676D01*
X153852571Y-97133676D02*
X153757333Y-97228914D01*
X153757333Y-97228914D02*
X153662095Y-97276533D01*
X154852571Y-96990819D02*
X154947809Y-96990819D01*
X154947809Y-96990819D02*
X155043047Y-97038438D01*
X155043047Y-97038438D02*
X155090666Y-97086057D01*
X155090666Y-97086057D02*
X155138285Y-97181295D01*
X155138285Y-97181295D02*
X155185904Y-97371771D01*
X155185904Y-97371771D02*
X155185904Y-97609866D01*
X155185904Y-97609866D02*
X155138285Y-97800342D01*
X155138285Y-97800342D02*
X155090666Y-97895580D01*
X155090666Y-97895580D02*
X155043047Y-97943200D01*
X155043047Y-97943200D02*
X154947809Y-97990819D01*
X154947809Y-97990819D02*
X154852571Y-97990819D01*
X154852571Y-97990819D02*
X154757333Y-97943200D01*
X154757333Y-97943200D02*
X154709714Y-97895580D01*
X154709714Y-97895580D02*
X154662095Y-97800342D01*
X154662095Y-97800342D02*
X154614476Y-97609866D01*
X154614476Y-97609866D02*
X154614476Y-97371771D01*
X154614476Y-97371771D02*
X154662095Y-97181295D01*
X154662095Y-97181295D02*
X154709714Y-97086057D01*
X154709714Y-97086057D02*
X154757333Y-97038438D01*
X154757333Y-97038438D02*
X154852571Y-96990819D01*
X173174819Y-96432666D02*
X172698628Y-96765999D01*
X173174819Y-97004094D02*
X172174819Y-97004094D01*
X172174819Y-97004094D02*
X172174819Y-96623142D01*
X172174819Y-96623142D02*
X172222438Y-96527904D01*
X172222438Y-96527904D02*
X172270057Y-96480285D01*
X172270057Y-96480285D02*
X172365295Y-96432666D01*
X172365295Y-96432666D02*
X172508152Y-96432666D01*
X172508152Y-96432666D02*
X172603390Y-96480285D01*
X172603390Y-96480285D02*
X172651009Y-96527904D01*
X172651009Y-96527904D02*
X172698628Y-96623142D01*
X172698628Y-96623142D02*
X172698628Y-97004094D01*
X172270057Y-96051713D02*
X172222438Y-96004094D01*
X172222438Y-96004094D02*
X172174819Y-95908856D01*
X172174819Y-95908856D02*
X172174819Y-95670761D01*
X172174819Y-95670761D02*
X172222438Y-95575523D01*
X172222438Y-95575523D02*
X172270057Y-95527904D01*
X172270057Y-95527904D02*
X172365295Y-95480285D01*
X172365295Y-95480285D02*
X172460533Y-95480285D01*
X172460533Y-95480285D02*
X172603390Y-95527904D01*
X172603390Y-95527904D02*
X173174819Y-96099332D01*
X173174819Y-96099332D02*
X173174819Y-95480285D01*
X172478754Y-89769800D02*
X172145421Y-89293609D01*
X171907326Y-89769800D02*
X171907326Y-88769800D01*
X171907326Y-88769800D02*
X172288278Y-88769800D01*
X172288278Y-88769800D02*
X172383516Y-88817419D01*
X172383516Y-88817419D02*
X172431135Y-88865038D01*
X172431135Y-88865038D02*
X172478754Y-88960276D01*
X172478754Y-88960276D02*
X172478754Y-89103133D01*
X172478754Y-89103133D02*
X172431135Y-89198371D01*
X172431135Y-89198371D02*
X172383516Y-89245990D01*
X172383516Y-89245990D02*
X172288278Y-89293609D01*
X172288278Y-89293609D02*
X171907326Y-89293609D01*
X173383516Y-88769800D02*
X172907326Y-88769800D01*
X172907326Y-88769800D02*
X172859707Y-89245990D01*
X172859707Y-89245990D02*
X172907326Y-89198371D01*
X172907326Y-89198371D02*
X173002564Y-89150752D01*
X173002564Y-89150752D02*
X173240659Y-89150752D01*
X173240659Y-89150752D02*
X173335897Y-89198371D01*
X173335897Y-89198371D02*
X173383516Y-89245990D01*
X173383516Y-89245990D02*
X173431135Y-89341228D01*
X173431135Y-89341228D02*
X173431135Y-89579323D01*
X173431135Y-89579323D02*
X173383516Y-89674561D01*
X173383516Y-89674561D02*
X173335897Y-89722181D01*
X173335897Y-89722181D02*
X173240659Y-89769800D01*
X173240659Y-89769800D02*
X173002564Y-89769800D01*
X173002564Y-89769800D02*
X172907326Y-89722181D01*
X172907326Y-89722181D02*
X172859707Y-89674561D01*
X149314819Y-104187523D02*
X149314819Y-103520857D01*
X149314819Y-103520857D02*
X150314819Y-104187523D01*
X150314819Y-104187523D02*
X150314819Y-103520857D01*
X150314819Y-102616095D02*
X150314819Y-103187523D01*
X150314819Y-102901809D02*
X149314819Y-102901809D01*
X149314819Y-102901809D02*
X149457676Y-102997047D01*
X149457676Y-102997047D02*
X149552914Y-103092285D01*
X149552914Y-103092285D02*
X149600533Y-103187523D01*
X148514819Y-107822408D02*
X147514819Y-107822408D01*
X148514819Y-107250980D02*
X147943390Y-107679551D01*
X147514819Y-107250980D02*
X148086247Y-107822408D01*
X163703095Y-103848819D02*
X163703095Y-104658342D01*
X163703095Y-104658342D02*
X163750714Y-104753580D01*
X163750714Y-104753580D02*
X163798333Y-104801200D01*
X163798333Y-104801200D02*
X163893571Y-104848819D01*
X163893571Y-104848819D02*
X164084047Y-104848819D01*
X164084047Y-104848819D02*
X164179285Y-104801200D01*
X164179285Y-104801200D02*
X164226904Y-104753580D01*
X164226904Y-104753580D02*
X164274523Y-104658342D01*
X164274523Y-104658342D02*
X164274523Y-103848819D01*
X165274523Y-104848819D02*
X164703095Y-104848819D01*
X164988809Y-104848819D02*
X164988809Y-103848819D01*
X164988809Y-103848819D02*
X164893571Y-103991676D01*
X164893571Y-103991676D02*
X164798333Y-104086914D01*
X164798333Y-104086914D02*
X164703095Y-104134533D01*
D13*
X148209000Y-85725000D02*
X140589000Y-85725000D01*
X148209000Y-85725000D02*
X148209000Y-106045000D01*
X140589000Y-85725000D02*
X140589000Y-106045000D01*
X141859000Y-106045000D02*
X141859000Y-85725000D01*
X140589000Y-106045000D02*
X148209000Y-106045000D01*
X176530000Y-110744000D02*
X184150000Y-110744000D01*
X176530000Y-110744000D02*
X176530000Y-90424000D01*
X184150000Y-110744000D02*
X184150000Y-90424000D01*
X182880000Y-90424000D02*
X182880000Y-110744000D01*
X184150000Y-90424000D02*
X176530000Y-90424000D01*
X176063000Y-103378000D02*
X174863000Y-103378000D01*
X175463000Y-104028000D02*
X175463000Y-102728000D01*
X172613000Y-106578000D02*
X172613000Y-100178000D01*
X172573000Y-106578000D02*
X172573000Y-100178000D01*
X172533000Y-106578000D02*
X172533000Y-100178000D01*
X172493000Y-106576000D02*
X172493000Y-100180000D01*
X172453000Y-106575000D02*
X172453000Y-100181000D01*
X172413000Y-106572000D02*
X172413000Y-100184000D01*
X172373000Y-106570000D02*
X172373000Y-100186000D01*
X172333000Y-106566000D02*
X172333000Y-104358000D01*
X172333000Y-102398000D02*
X172333000Y-100190000D01*
X172293000Y-106563000D02*
X172293000Y-104358000D01*
X172293000Y-102398000D02*
X172293000Y-100193000D01*
X172253000Y-106558000D02*
X172253000Y-104358000D01*
X172253000Y-102398000D02*
X172253000Y-100198000D01*
X172213000Y-106554000D02*
X172213000Y-104358000D01*
X172213000Y-102398000D02*
X172213000Y-100202000D01*
X172173000Y-106548000D02*
X172173000Y-104358000D01*
X172173000Y-102398000D02*
X172173000Y-100208000D01*
X172133000Y-106543000D02*
X172133000Y-104358000D01*
X172133000Y-102398000D02*
X172133000Y-100213000D01*
X172093000Y-106536000D02*
X172093000Y-104358000D01*
X172093000Y-102398000D02*
X172093000Y-100220000D01*
X172053000Y-106530000D02*
X172053000Y-104358000D01*
X172053000Y-102398000D02*
X172053000Y-100226000D01*
X172013000Y-106522000D02*
X172013000Y-104358000D01*
X172013000Y-102398000D02*
X172013000Y-100234000D01*
X171973000Y-106515000D02*
X171973000Y-104358000D01*
X171973000Y-102398000D02*
X171973000Y-100241000D01*
X171933000Y-106506000D02*
X171933000Y-104358000D01*
X171933000Y-102398000D02*
X171933000Y-100250000D01*
X171892000Y-106497000D02*
X171892000Y-104358000D01*
X171892000Y-102398000D02*
X171892000Y-100259000D01*
X171852000Y-106488000D02*
X171852000Y-104358000D01*
X171852000Y-102398000D02*
X171852000Y-100268000D01*
X171812000Y-106478000D02*
X171812000Y-104358000D01*
X171812000Y-102398000D02*
X171812000Y-100278000D01*
X171772000Y-106468000D02*
X171772000Y-104358000D01*
X171772000Y-102398000D02*
X171772000Y-100288000D01*
X171732000Y-106457000D02*
X171732000Y-104358000D01*
X171732000Y-102398000D02*
X171732000Y-100299000D01*
X171692000Y-106445000D02*
X171692000Y-104358000D01*
X171692000Y-102398000D02*
X171692000Y-100311000D01*
X171652000Y-106433000D02*
X171652000Y-104358000D01*
X171652000Y-102398000D02*
X171652000Y-100323000D01*
X171612000Y-106420000D02*
X171612000Y-104358000D01*
X171612000Y-102398000D02*
X171612000Y-100336000D01*
X171572000Y-106407000D02*
X171572000Y-104358000D01*
X171572000Y-102398000D02*
X171572000Y-100349000D01*
X171532000Y-106393000D02*
X171532000Y-104358000D01*
X171532000Y-102398000D02*
X171532000Y-100363000D01*
X171492000Y-106379000D02*
X171492000Y-104358000D01*
X171492000Y-102398000D02*
X171492000Y-100377000D01*
X171452000Y-106364000D02*
X171452000Y-104358000D01*
X171452000Y-102398000D02*
X171452000Y-100392000D01*
X171412000Y-106348000D02*
X171412000Y-104358000D01*
X171412000Y-102398000D02*
X171412000Y-100408000D01*
X171372000Y-106332000D02*
X171372000Y-104358000D01*
X171372000Y-102398000D02*
X171372000Y-100424000D01*
X171332000Y-106315000D02*
X171332000Y-104358000D01*
X171332000Y-102398000D02*
X171332000Y-100441000D01*
X171292000Y-106297000D02*
X171292000Y-104358000D01*
X171292000Y-102398000D02*
X171292000Y-100459000D01*
X171252000Y-106279000D02*
X171252000Y-104358000D01*
X171252000Y-102398000D02*
X171252000Y-100477000D01*
X171212000Y-106260000D02*
X171212000Y-104358000D01*
X171212000Y-102398000D02*
X171212000Y-100496000D01*
X171172000Y-106241000D02*
X171172000Y-104358000D01*
X171172000Y-102398000D02*
X171172000Y-100515000D01*
X171132000Y-106221000D02*
X171132000Y-104358000D01*
X171132000Y-102398000D02*
X171132000Y-100535000D01*
X171092000Y-106200000D02*
X171092000Y-104358000D01*
X171092000Y-102398000D02*
X171092000Y-100556000D01*
X171052000Y-106178000D02*
X171052000Y-104358000D01*
X171052000Y-102398000D02*
X171052000Y-100578000D01*
X171012000Y-106156000D02*
X171012000Y-104358000D01*
X171012000Y-102398000D02*
X171012000Y-100600000D01*
X170972000Y-106133000D02*
X170972000Y-104358000D01*
X170972000Y-102398000D02*
X170972000Y-100623000D01*
X170932000Y-106109000D02*
X170932000Y-104358000D01*
X170932000Y-102398000D02*
X170932000Y-100647000D01*
X170892000Y-106084000D02*
X170892000Y-104358000D01*
X170892000Y-102398000D02*
X170892000Y-100672000D01*
X170852000Y-106059000D02*
X170852000Y-104358000D01*
X170852000Y-102398000D02*
X170852000Y-100697000D01*
X170812000Y-106032000D02*
X170812000Y-104358000D01*
X170812000Y-102398000D02*
X170812000Y-100724000D01*
X170772000Y-106005000D02*
X170772000Y-104358000D01*
X170772000Y-102398000D02*
X170772000Y-100751000D01*
X170732000Y-105977000D02*
X170732000Y-104358000D01*
X170732000Y-102398000D02*
X170732000Y-100779000D01*
X170692000Y-105948000D02*
X170692000Y-104358000D01*
X170692000Y-102398000D02*
X170692000Y-100808000D01*
X170652000Y-105918000D02*
X170652000Y-104358000D01*
X170652000Y-102398000D02*
X170652000Y-100838000D01*
X170612000Y-105888000D02*
X170612000Y-104358000D01*
X170612000Y-102398000D02*
X170612000Y-100868000D01*
X170572000Y-105856000D02*
X170572000Y-104358000D01*
X170572000Y-102398000D02*
X170572000Y-100900000D01*
X170532000Y-105823000D02*
X170532000Y-104358000D01*
X170532000Y-102398000D02*
X170532000Y-100933000D01*
X170492000Y-105789000D02*
X170492000Y-104358000D01*
X170492000Y-102398000D02*
X170492000Y-100967000D01*
X170452000Y-105753000D02*
X170452000Y-104358000D01*
X170452000Y-102398000D02*
X170452000Y-101003000D01*
X170412000Y-105717000D02*
X170412000Y-104358000D01*
X170412000Y-102398000D02*
X170412000Y-101039000D01*
X170372000Y-105679000D02*
X170372000Y-101077000D01*
X170332000Y-105640000D02*
X170332000Y-101116000D01*
X170292000Y-105600000D02*
X170292000Y-101156000D01*
X170252000Y-105558000D02*
X170252000Y-101198000D01*
X170212000Y-105515000D02*
X170212000Y-101241000D01*
X170172000Y-105470000D02*
X170172000Y-101286000D01*
X170132000Y-105423000D02*
X170132000Y-101333000D01*
X170092000Y-105375000D02*
X170092000Y-101381000D01*
X170052000Y-105324000D02*
X170052000Y-101432000D01*
X170012000Y-105272000D02*
X170012000Y-101484000D01*
X169972000Y-105217000D02*
X169972000Y-101539000D01*
X169932000Y-105159000D02*
X169932000Y-101597000D01*
X169892000Y-105099000D02*
X169892000Y-101657000D01*
X169852000Y-105036000D02*
X169852000Y-101720000D01*
X169812000Y-104969000D02*
X169812000Y-101787000D01*
X169772000Y-104898000D02*
X169772000Y-101858000D01*
X169732000Y-104823000D02*
X169732000Y-101933000D01*
X169692000Y-104742000D02*
X169692000Y-102014000D01*
X169652000Y-104656000D02*
X169652000Y-102100000D01*
X169612000Y-104562000D02*
X169612000Y-102194000D01*
X169572000Y-104459000D02*
X169572000Y-102297000D01*
X169532000Y-104344000D02*
X169532000Y-102412000D01*
X169492000Y-104212000D02*
X169492000Y-102544000D01*
X169452000Y-104054000D02*
X169452000Y-102702000D01*
X169412000Y-103846000D02*
X169412000Y-102910000D01*
X169595180Y-104557135D02*
G75*
G03*
X175630481Y-104558000I3017820J1179135D01*
G01*
X169595180Y-102198865D02*
G75*
G03*
X169595519Y-104558000I3017820J-1179135D01*
G01*
X175630481Y-102198000D02*
G75*
G03*
X169595180Y-102198865I-3017481J-1180000D01*
G01*
X157297600Y-96261600D02*
X157297600Y-96161600D01*
X157297600Y-96161600D02*
X159197600Y-96161600D01*
X157297600Y-89461600D02*
X158397600Y-89461600D01*
X157297600Y-89361600D02*
X157297600Y-89461600D01*
X155797600Y-96261600D02*
X157297600Y-96261600D01*
X155797600Y-89361600D02*
X157297600Y-89361600D01*
X156150000Y-87690000D02*
X156150000Y-86360000D01*
X157480000Y-87690000D02*
X156150000Y-87690000D01*
X158750000Y-87690000D02*
X176590000Y-87690000D01*
X158750000Y-87690000D02*
X158750000Y-85030000D01*
X176590000Y-87690000D02*
X176590000Y-85030000D01*
X158750000Y-85030000D02*
X176590000Y-85030000D01*
X147260000Y-111820000D02*
X147260000Y-110490000D01*
X148590000Y-111820000D02*
X147260000Y-111820000D01*
X149860000Y-111820000D02*
X167700000Y-111820000D01*
X149860000Y-111820000D02*
X149860000Y-109160000D01*
X167700000Y-111820000D02*
X167700000Y-109160000D01*
X149860000Y-109160000D02*
X167700000Y-109160000D01*
X158690000Y-109280000D02*
X158690000Y-107950000D01*
X160020000Y-109280000D02*
X158690000Y-109280000D01*
X161290000Y-109280000D02*
X168970000Y-109280000D01*
X161290000Y-109280000D02*
X161290000Y-106620000D01*
X168970000Y-109280000D02*
X168970000Y-106620000D01*
X161290000Y-106620000D02*
X168970000Y-106620000D01*
X171354000Y-94346000D02*
X171354000Y-98186000D01*
X169514000Y-94346000D02*
X169514000Y-98186000D01*
X174086000Y-98186000D02*
X174086000Y-94346000D01*
X175926000Y-98186000D02*
X175926000Y-94346000D01*
X168619993Y-89865600D02*
X168619993Y-93705600D01*
X166779993Y-89865600D02*
X166779993Y-93705600D01*
X163957197Y-89865600D02*
X163957197Y-93705600D01*
X162117197Y-89865600D02*
X162117197Y-93705600D01*
X174489221Y-92515756D02*
X170649221Y-92515756D01*
X174489221Y-90675756D02*
X170649221Y-90675756D01*
X161625800Y-89865600D02*
X161625800Y-93705600D01*
X159785800Y-89865600D02*
X159785800Y-93705600D01*
X151538000Y-107029000D02*
X151538000Y-100489000D01*
X151868000Y-107029000D02*
X151538000Y-107029000D01*
X153948000Y-107029000D02*
X154278000Y-107029000D01*
X154278000Y-107029000D02*
X154278000Y-100489000D01*
X151538000Y-100489000D02*
X151868000Y-100489000D01*
X154278000Y-100489000D02*
X153948000Y-100489000D01*
X164448594Y-93705600D02*
X164448594Y-89865600D01*
X166288594Y-93705600D02*
X166288594Y-89865600D01*
X155016000Y-100943000D02*
X155016000Y-104543000D01*
X159465999Y-102743000D02*
G75*
G03*
X157964807Y-100386601I-2599999J0D01*
G01*
X155743205Y-100418817D02*
G75*
G03*
X155016001Y-100943001I1122795J-2324183D01*
G01*
X157964807Y-105099400D02*
G75*
G03*
X159466000Y-102743000I-1098807J2356400D01*
G01*
X155016001Y-104542999D02*
G75*
G03*
X155743205Y-105067183I1849999J1799999D01*
G01*
X162994586Y-99293443D02*
X162993658Y-98998201D01*
X162993751Y-97083524D02*
X162993982Y-96795037D01*
X162089918Y-99953470D02*
G75*
G03*
X162956066Y-99325633I-684968J1856340D01*
G01*
X159589772Y-98782127D02*
G75*
G03*
X159965772Y-99377242I1827228J738127D01*
G01*
X162993981Y-96795038D02*
G75*
G03*
X159551063Y-97292299I-1576981J-1248962D01*
G01*
X165046414Y-96794557D02*
X165047342Y-97089799D01*
X165047249Y-99004476D02*
X165047018Y-99292963D01*
X168489938Y-97290237D02*
G75*
G03*
X165046415Y-96794557I-1865938J-753763D01*
G01*
X165039818Y-99298667D02*
G75*
G03*
X165962379Y-99953471I1584182J1254667D01*
G01*
X167973542Y-99501529D02*
G75*
G03*
X168459947Y-98792226I-1356792J1451849D01*
G01*
X152004000Y-96616000D02*
X155844000Y-96616000D01*
X152004000Y-98456000D02*
X155844000Y-98456000D01*
X173640000Y-94346000D02*
X173640000Y-98186000D01*
X171800000Y-94346000D02*
X171800000Y-98186000D01*
X174489221Y-90184181D02*
X170649221Y-90184181D01*
X174489221Y-88344181D02*
X170649221Y-88344181D01*
X149860000Y-106520504D02*
X149860000Y-105870504D01*
X148740000Y-105870504D02*
X150980000Y-105870504D01*
X150980000Y-105870504D02*
X150980000Y-101630504D01*
X148740000Y-105270504D02*
X150980000Y-105270504D01*
X148740000Y-105150504D02*
X150980000Y-105150504D01*
X148740000Y-105030504D02*
X150980000Y-105030504D01*
X148740000Y-101630504D02*
X148740000Y-105870504D01*
X150980000Y-101630504D02*
X148740000Y-101630504D01*
X149860000Y-100980504D02*
X149860000Y-101630504D01*
X166138000Y-100893000D02*
X162538000Y-100893000D01*
X164338000Y-105342999D02*
G75*
G03*
X166694399Y-103841807I0J2599999D01*
G01*
X166662183Y-101620205D02*
G75*
G03*
X166137999Y-100893001I-2324183J-1122795D01*
G01*
X161981600Y-103841807D02*
G75*
G03*
X164338000Y-105343000I2356400J1098807D01*
G01*
X162538001Y-100893001D02*
G75*
G03*
X162013817Y-101620205I1799999J-1849999D01*
G01*
D14*
X184404000Y-112522000D02*
X146685000Y-112522000D01*
X140462000Y-83693000D02*
X178181000Y-83693000D01*
X140462000Y-106299000D02*
X140462000Y-83693000D01*
X178181000Y-89916000D02*
X184404000Y-89916000D01*
X146685000Y-112522000D02*
X146685000Y-106299000D01*
X146685000Y-106299000D02*
X140462000Y-106299000D01*
X178181000Y-83693000D02*
X178181000Y-89916000D01*
X184404000Y-89916000D02*
X184404000Y-112522000D01*
M02*
