G04 Layer: TopSilkscreenLayer*
G04 EasyEDA Pro v2.0.34.720dcead, 2023-10-18 14:17:13*
G04 Gerber Generator version 0.3*
G04 Scale: 100 percent, Rotated: No, Reflected: No*
G04 Dimensions in millimeters*
G04 Leading zeros omitted, absolute positions, 3 integers and 3 decimals*
%FSLAX33Y33*%
%MOMM*%
%ADD10C,0.15*%
%ADD11C,0.152*%
%ADD12C,0.254*%
G75*


G04 Text Start*
G04 //text: 5V*
G54D10*
G01X146964Y-88508D02*
G01X146964Y-88805D01*
G01X147231Y-88833D01*
G01X147200Y-88805D01*
G01X147170Y-88716D01*
G01Y-88625D01*
G01X147200Y-88536D01*
G01X147261Y-88478D01*
G01X147350Y-88447D01*
G01X147409D01*
G01X147498Y-88478D01*
G01X147556Y-88536D01*
G01X147587Y-88625D01*
G01Y-88716D01*
G01X147556Y-88805D01*
G01X147528Y-88833D01*
G01X147467Y-88864D01*
G01X146964Y-88005D02*
G01X147587Y-87769D01*
G01X146964Y-87530D02*
G01X147587Y-87769D01*
G04 //text: GND*
G01X147112Y-93752D02*
G01X147053Y-93780D01*
G01X146992Y-93841D01*
G01X146965Y-93899D01*
G01Y-94019D01*
G01X146992Y-94077D01*
G01X147053Y-94138D01*
G01X147112Y-94166D01*
G01X147201Y-94197D01*
G01X147351D01*
G01X147440Y-94166D01*
G01X147498Y-94138D01*
G01X147556Y-94077D01*
G01X147587Y-94019D01*
G01Y-93899D01*
G01X147556Y-93841D01*
G01X147498Y-93780D01*
G01X147440Y-93752D01*
G01X147351D01*
G01X147351Y-93899D02*
G01X147351Y-93752D01*
G01X146965Y-93308D02*
G01X147587Y-93308D01*
G01X146965Y-93308D02*
G01X147587Y-92894D01*
G01X146965Y-92894D02*
G01X147587Y-92894D01*
G01X146965Y-92452D02*
G01X147587Y-92452D01*
G01X146965Y-92452D02*
G01X146965Y-92243D01*
G01X146992Y-92154D01*
G01X147053Y-92093D01*
G01X147112Y-92066D01*
G01X147201Y-92035D01*
G01X147351D01*
G01X147440Y-92066D01*
G01X147498Y-92093D01*
G01X147556Y-92154D01*
G01X147587Y-92243D01*
G01Y-92452D01*
G04 //text: 9VAC*
G01X147170Y-101881D02*
G01X147262Y-101912D01*
G01X147320Y-101970D01*
G01X147351Y-102059D01*
G01Y-102090D01*
G01X147320Y-102179D01*
G01X147262Y-102237D01*
G01X147170Y-102267D01*
G01X147142D01*
G01X147053Y-102237D01*
G01X146992Y-102179D01*
G01X146965Y-102090D01*
G01Y-102059D01*
G01X146992Y-101970D01*
G01X147053Y-101912D01*
G01X147170Y-101881D01*
G01X147320D01*
G01X147467Y-101912D01*
G01X147556Y-101970D01*
G01X147587Y-102059D01*
G01Y-102120D01*
G01X147556Y-102209D01*
G01X147498Y-102237D01*
G01X146965Y-101439D02*
G01X147587Y-101201D01*
G01X146965Y-100964D02*
G01X147587Y-101201D01*
G01X146965Y-100284D02*
G01X147587Y-100522D01*
G01X146965Y-100284D02*
G01X147587Y-100047D01*
G01X147379Y-100434D02*
G01X147379Y-100136D01*
G01X147112Y-99158D02*
G01X147053Y-99189D01*
G01X146992Y-99247D01*
G01X146965Y-99306D01*
G01Y-99425D01*
G01X146992Y-99486D01*
G01X147053Y-99545D01*
G01X147112Y-99575D01*
G01X147201Y-99603D01*
G01X147351D01*
G01X147440Y-99575D01*
G01X147498Y-99545D01*
G01X147556Y-99486D01*
G01X147587Y-99425D01*
G01Y-99306D01*
G01X147556Y-99247D01*
G01X147498Y-99189D01*
G01X147440Y-99158D01*
G04 //text: OUT*
G01X148776Y-88102D02*
G01X148812Y-88178D01*
G01X148888Y-88252D01*
G01X148962Y-88290D01*
G01X149076Y-88328D01*
G01X149261D01*
G01X149376Y-88290D01*
G01X149449Y-88252D01*
G01X149525Y-88178D01*
G01X149564Y-88102D01*
G01Y-87952D01*
G01X149525Y-87878D01*
G01X149449Y-87802D01*
G01X149376Y-87764D01*
G01X149261Y-87728D01*
G01X149076D01*
G01X148962Y-87764D01*
G01X148888Y-87802D01*
G01X148812Y-87878D01*
G01X148776Y-87952D01*
G01Y-88102D01*
G01X148776Y-87248D02*
G01X149337Y-87248D01*
G01X149449Y-87210D01*
G01X149525Y-87134D01*
G01X149564Y-87022D01*
G01Y-86949D01*
G01X149525Y-86834D01*
G01X149449Y-86761D01*
G01X149337Y-86723D01*
G01X148776D01*
G01X148776Y-85981D02*
G01X149564Y-85981D01*
G01X148776Y-86243D02*
G01X148776Y-85717D01*
G04 //text: IN*
G01X175963Y-109712D02*
G01X175175Y-109712D01*
G01X175963Y-110192D02*
G01X175175Y-110192D01*
G01X175963Y-110192D02*
G01X175175Y-110718D01*
G01X175963Y-110718D02*
G01X175175Y-110718D01*
G04 //text: GND*
G01X177881Y-97637D02*
G01X177940Y-97609D01*
G01X178001Y-97548D01*
G01X178028Y-97490D01*
G01Y-97370D01*
G01X178001Y-97312D01*
G01X177940Y-97251D01*
G01X177881Y-97223D01*
G01X177792Y-97192D01*
G01X177642D01*
G01X177553Y-97223D01*
G01X177495Y-97251D01*
G01X177437Y-97312D01*
G01X177406Y-97370D01*
G01Y-97490D01*
G01X177437Y-97548D01*
G01X177495Y-97609D01*
G01X177553Y-97637D01*
G01X177642D01*
G01X177642Y-97490D02*
G01X177642Y-97637D01*
G01X178028Y-98081D02*
G01X177406Y-98081D01*
G01X178028Y-98081D02*
G01X177406Y-98495D01*
G01X178028Y-98495D02*
G01X177406Y-98495D01*
G01X178028Y-98937D02*
G01X177406Y-98937D01*
G01X178028Y-98937D02*
G01X178028Y-99146D01*
G01X178001Y-99235D01*
G01X177940Y-99296D01*
G01X177881Y-99323D01*
G01X177792Y-99354D01*
G01X177642D01*
G01X177553Y-99323D01*
G01X177495Y-99296D01*
G01X177437Y-99235D01*
G01X177406Y-99146D01*
G01Y-98937D01*
G04 //text: 9VAC*
G01X177823Y-104494D02*
G01X177731Y-104463D01*
G01X177673Y-104405D01*
G01X177642Y-104316D01*
G01Y-104285D01*
G01X177673Y-104196D01*
G01X177731Y-104138D01*
G01X177823Y-104108D01*
G01X177851D01*
G01X177940Y-104138D01*
G01X178001Y-104196D01*
G01X178028Y-104285D01*
G01Y-104316D01*
G01X178001Y-104405D01*
G01X177940Y-104463D01*
G01X177823Y-104494D01*
G01X177673D01*
G01X177526Y-104463D01*
G01X177437Y-104405D01*
G01X177406Y-104316D01*
G01Y-104255D01*
G01X177437Y-104166D01*
G01X177495Y-104138D01*
G01X178028Y-104936D02*
G01X177406Y-105174D01*
G01X178028Y-105411D02*
G01X177406Y-105174D01*
G01X178028Y-106091D02*
G01X177406Y-105853D01*
G01X178028Y-106091D02*
G01X177406Y-106328D01*
G01X177614Y-105941D02*
G01X177614Y-106239D01*
G01X177881Y-107217D02*
G01X177940Y-107186D01*
G01X178001Y-107128D01*
G01X178028Y-107069D01*
G01Y-106950D01*
G01X178001Y-106889D01*
G01X177940Y-106830D01*
G01X177881Y-106800D01*
G01X177792Y-106772D01*
G01X177642D01*
G01X177553Y-106800D01*
G01X177495Y-106830D01*
G01X177437Y-106889D01*
G01X177406Y-106950D01*
G01Y-107069D01*
G01X177437Y-107128D01*
G01X177495Y-107186D01*
G01X177553Y-107217D01*
G04 //text: 5V*
G01X178028Y-92975D02*
G01X178028Y-92678D01*
G01X177762Y-92650D01*
G01X177792Y-92678D01*
G01X177823Y-92766D01*
G01Y-92858D01*
G01X177792Y-92947D01*
G01X177731Y-93005D01*
G01X177642Y-93036D01*
G01X177584D01*
G01X177495Y-93005D01*
G01X177437Y-92947D01*
G01X177406Y-92858D01*
G01Y-92766D01*
G01X177437Y-92678D01*
G01X177465Y-92650D01*
G01X177526Y-92619D01*
G01X178028Y-93478D02*
G01X177406Y-93714D01*
G01X178028Y-93953D02*
G01X177406Y-93714D01*
G04 //text: J6*
G01X141426Y-84391D02*
G01X141426Y-84815D01*
G01X141401Y-84894D01*
G01X141373Y-84922D01*
G01X141320Y-84947D01*
G01X141266D01*
G01X141213Y-84922D01*
G01X141187Y-84894D01*
G01X141162Y-84815D01*
G01Y-84762D01*
G01X142023Y-84470D02*
G01X141995Y-84416D01*
G01X141916Y-84391D01*
G01X141863D01*
G01X141784Y-84416D01*
G01X141731Y-84495D01*
G01X141703Y-84630D01*
G01Y-84762D01*
G01X141731Y-84868D01*
G01X141784Y-84922D01*
G01X141863Y-84947D01*
G01X141891D01*
G01X141970Y-84922D01*
G01X142023Y-84868D01*
G01X142049Y-84790D01*
G01Y-84762D01*
G01X142023Y-84683D01*
G01X141970Y-84630D01*
G01X141891Y-84602D01*
G01X141863D01*
G01X141784Y-84630D01*
G01X141731Y-84683D01*
G01X141703Y-84762D01*
G04 //text: J1*
G01X177445Y-111442D02*
G01X177445Y-111866D01*
G01X177419Y-111945D01*
G01X177391Y-111973D01*
G01X177338Y-111998D01*
G01X177285D01*
G01X177231Y-111973D01*
G01X177206Y-111945D01*
G01X177180Y-111866D01*
G01Y-111813D01*
G01X177722Y-111546D02*
G01X177775Y-111521D01*
G01X177856Y-111442D01*
G01Y-111998D01*
G04 //text: J2*
G01X154957Y-86042D02*
G01X154957Y-86466D01*
G01X154932Y-86545D01*
G01X154904Y-86573D01*
G01X154851Y-86598D01*
G01X154797D01*
G01X154744Y-86573D01*
G01X154718Y-86545D01*
G01X154693Y-86466D01*
G01Y-86413D01*
G01X155262Y-86174D02*
G01X155262Y-86146D01*
G01X155287Y-86095D01*
G01X155315Y-86067D01*
G01X155369Y-86042D01*
G01X155473D01*
G01X155526Y-86067D01*
G01X155554Y-86095D01*
G01X155580Y-86146D01*
G01Y-86199D01*
G01X155554Y-86253D01*
G01X155501Y-86334D01*
G01X155234Y-86598D01*
G01X155607D01*
G04 //text: J4*
G01X168578Y-110299D02*
G01X168578Y-110723D01*
G01X168552Y-110802D01*
G01X168524Y-110830D01*
G01X168471Y-110855D01*
G01X168418D01*
G01X168364Y-110830D01*
G01X168339Y-110802D01*
G01X168313Y-110723D01*
G01Y-110670D01*
G01X169121Y-110299D02*
G01X168854Y-110670D01*
G01X169253D01*
G01X169121Y-110299D02*
G01X169121Y-110855D01*
G04 //text: J5*
G01X169860Y-107759D02*
G01X169860Y-108183D01*
G01X169835Y-108262D01*
G01X169807Y-108290D01*
G01X169754Y-108315D01*
G01X169700D01*
G01X169647Y-108290D01*
G01X169621Y-108262D01*
G01X169596Y-108183D01*
G01Y-108130D01*
G01X170457Y-107759D02*
G01X170190Y-107759D01*
G01X170165Y-107998D01*
G01X170190Y-107970D01*
G01X170272Y-107944D01*
G01X170350D01*
G01X170429Y-107970D01*
G01X170483Y-108023D01*
G01X170510Y-108104D01*
G01Y-108158D01*
G01X170483Y-108236D01*
G01X170429Y-108290D01*
G01X170350Y-108315D01*
G01X170272D01*
G01X170190Y-108290D01*
G01X170165Y-108262D01*
G01X170137Y-108208D01*
G04 //text: R3*
G01X169761Y-96954D02*
G01X170317Y-96954D01*
G01X169761Y-96954D02*
G01X169761Y-96715D01*
G01X169786Y-96636D01*
G01X169814Y-96611D01*
G01X169865Y-96583D01*
G01X169918D01*
G01X169971Y-96611D01*
G01X169999Y-96636D01*
G01X170025Y-96715D01*
G01Y-96954D01*
G01X170025Y-96768D02*
G01X170317Y-96583D01*
G01X169761Y-96253D02*
G01X169761Y-95961D01*
G01X169971Y-96121D01*
G01Y-96039D01*
G01X169999Y-95986D01*
G01X170025Y-95961D01*
G01X170106Y-95933D01*
G01X170159D01*
G01X170238Y-95961D01*
G01X170291Y-96014D01*
G01X170317Y-96093D01*
G01Y-96174D01*
G01X170291Y-96253D01*
G01X170263Y-96278D01*
G01X170210Y-96306D01*
G04 //text: R1*
G01X174637Y-96884D02*
G01X175194Y-96884D01*
G01X174637Y-96884D02*
G01X174637Y-96645D01*
G01X174663Y-96566D01*
G01X174691Y-96541D01*
G01X174741Y-96513D01*
G01X174795D01*
G01X174848Y-96541D01*
G01X174876Y-96566D01*
G01X174901Y-96645D01*
G01Y-96884D01*
G01X174901Y-96698D02*
G01X175194Y-96513D01*
G01X174741Y-96236D02*
G01X174716Y-96183D01*
G01X174637Y-96104D01*
G01X175194D01*
G04 //text: R6*
G01X167449Y-92317D02*
G01X168005Y-92317D01*
G01X167449Y-92317D02*
G01X167449Y-92078D01*
G01X167474Y-91999D01*
G01X167502Y-91974D01*
G01X167553Y-91946D01*
G01X167606D01*
G01X167660Y-91974D01*
G01X167688Y-91999D01*
G01X167713Y-92078D01*
G01Y-92317D01*
G01X167713Y-92131D02*
G01X168005Y-91946D01*
G01X167528Y-91349D02*
G01X167474Y-91377D01*
G01X167449Y-91456D01*
G01Y-91509D01*
G01X167474Y-91588D01*
G01X167553Y-91641D01*
G01X167688Y-91669D01*
G01X167820D01*
G01X167926Y-91641D01*
G01X167980Y-91588D01*
G01X168005Y-91509D01*
G01Y-91484D01*
G01X167980Y-91402D01*
G01X167926Y-91349D01*
G01X167848Y-91324D01*
G01X167820D01*
G01X167741Y-91349D01*
G01X167688Y-91402D01*
G01X167660Y-91484D01*
G01Y-91509D01*
G01X167688Y-91588D01*
G01X167741Y-91641D01*
G01X167820Y-91669D01*
G04 //text: R8*
G01X162877Y-92331D02*
G01X163433Y-92331D01*
G01X162877Y-92331D02*
G01X162877Y-92092D01*
G01X162903Y-92013D01*
G01X162930Y-91988D01*
G01X162981Y-91960D01*
G01X163035D01*
G01X163088Y-91988D01*
G01X163116Y-92013D01*
G01X163141Y-92092D01*
G01Y-92331D01*
G01X163141Y-92146D02*
G01X163433Y-91960D01*
G01X162877Y-91551D02*
G01X162903Y-91630D01*
G01X162956Y-91655D01*
G01X163009D01*
G01X163063Y-91630D01*
G01X163088Y-91577D01*
G01X163116Y-91470D01*
G01X163141Y-91391D01*
G01X163195Y-91338D01*
G01X163248Y-91310D01*
G01X163327D01*
G01X163380Y-91338D01*
G01X163408Y-91363D01*
G01X163433Y-91444D01*
G01Y-91551D01*
G01X163408Y-91630D01*
G01X163380Y-91655D01*
G01X163327Y-91683D01*
G01X163248D01*
G01X163195Y-91655D01*
G01X163141Y-91602D01*
G01X163116Y-91523D01*
G01X163088Y-91417D01*
G01X163063Y-91363D01*
G01X163009Y-91338D01*
G01X162956D01*
G01X162903Y-91363D01*
G01X162877Y-91444D01*
G01Y-91551D01*
G04 //text: R4*
G01X172032Y-91389D02*
G01X172032Y-91945D01*
G01X172032Y-91389D02*
G01X172271Y-91389D01*
G01X172349Y-91414D01*
G01X172375Y-91442D01*
G01X172403Y-91493D01*
G01Y-91546D01*
G01X172375Y-91599D01*
G01X172349Y-91627D01*
G01X172271Y-91653D01*
G01X172032D01*
G01X172217Y-91653D02*
G01X172403Y-91945D01*
G01X172946Y-91389D02*
G01X172680Y-91759D01*
G01X173078D01*
G01X172946Y-91389D02*
G01X172946Y-91945D01*
G04 //text: R9*
G01X160464Y-92317D02*
G01X161020Y-92317D01*
G01X160464Y-92317D02*
G01X160464Y-92078D01*
G01X160490Y-91999D01*
G01X160517Y-91974D01*
G01X160568Y-91946D01*
G01X160622D01*
G01X160675Y-91974D01*
G01X160703Y-91999D01*
G01X160728Y-92078D01*
G01Y-92317D01*
G01X160728Y-92132D02*
G01X161020Y-91946D01*
G01X160650Y-91324D02*
G01X160728Y-91349D01*
G01X160782Y-91403D01*
G01X160810Y-91484D01*
G01Y-91509D01*
G01X160782Y-91588D01*
G01X160728Y-91641D01*
G01X160650Y-91669D01*
G01X160622D01*
G01X160543Y-91641D01*
G01X160490Y-91588D01*
G01X160464Y-91509D01*
G01Y-91484D01*
G01X160490Y-91403D01*
G01X160543Y-91349D01*
G01X160650Y-91324D01*
G01X160782D01*
G01X160914Y-91349D01*
G01X160995Y-91403D01*
G01X161020Y-91484D01*
G01Y-91537D01*
G01X160995Y-91616D01*
G01X160942Y-91641D01*
G04 //text: R11*
G01X152844Y-103846D02*
G01X153400Y-103846D01*
G01X152844Y-103846D02*
G01X152844Y-103607D01*
G01X152870Y-103529D01*
G01X152897Y-103503D01*
G01X152948Y-103475D01*
G01X153002D01*
G01X153055Y-103503D01*
G01X153083Y-103529D01*
G01X153108Y-103607D01*
G01Y-103846D01*
G01X153108Y-103661D02*
G01X153400Y-103475D01*
G01X152948Y-103198D02*
G01X152923Y-103145D01*
G01X152844Y-103066D01*
G01X153400D01*
G01X152948Y-102787D02*
G01X152923Y-102734D01*
G01X152844Y-102655D01*
G01X153400D01*
G04 //text: R7*
G01X165239Y-92305D02*
G01X165795Y-92305D01*
G01X165239Y-92305D02*
G01X165239Y-92067D01*
G01X165264Y-91988D01*
G01X165292Y-91962D01*
G01X165343Y-91935D01*
G01X165396D01*
G01X165450Y-91962D01*
G01X165478Y-91988D01*
G01X165503Y-92067D01*
G01Y-92305D01*
G01X165503Y-92120D02*
G01X165795Y-91935D01*
G01X165239Y-91284D02*
G01X165795Y-91551D01*
G01X165239Y-91658D02*
G01X165239Y-91284D01*
G04 //text: R10*
G01X153210Y-97091D02*
G01X153210Y-97647D01*
G01X153210Y-97091D02*
G01X153448Y-97091D01*
G01X153527Y-97117D01*
G01X153552Y-97144D01*
G01X153580Y-97195D01*
G01Y-97249D01*
G01X153552Y-97302D01*
G01X153527Y-97330D01*
G01X153448Y-97355D01*
G01X153210D01*
G01X153395Y-97355D02*
G01X153580Y-97647D01*
G01X153857Y-97195D02*
G01X153911Y-97170D01*
G01X153989Y-97091D01*
G01Y-97647D01*
G01X154426Y-97091D02*
G01X154348Y-97117D01*
G01X154294Y-97195D01*
G01X154269Y-97330D01*
G01Y-97409D01*
G01X154294Y-97541D01*
G01X154348Y-97622D01*
G01X154426Y-97647D01*
G01X154480D01*
G01X154561Y-97622D01*
G01X154614Y-97541D01*
G01X154640Y-97409D01*
G01Y-97330D01*
G01X154614Y-97195D01*
G01X154561Y-97117D01*
G01X154480Y-97091D01*
G01X154426D01*
G04 //text: R5*
G01X172159Y-89141D02*
G01X172159Y-89697D01*
G01X172159Y-89141D02*
G01X172398Y-89141D01*
G01X172477Y-89166D01*
G01X172502Y-89194D01*
G01X172530Y-89245D01*
G01Y-89298D01*
G01X172502Y-89352D01*
G01X172477Y-89380D01*
G01X172398Y-89405D01*
G01X172159D01*
G01X172345Y-89405D02*
G01X172530Y-89697D01*
G01X173127Y-89141D02*
G01X172860Y-89141D01*
G01X172835Y-89380D01*
G01X172860Y-89352D01*
G01X172939Y-89326D01*
G01X173020D01*
G01X173099Y-89352D01*
G01X173152Y-89405D01*
G01X173180Y-89486D01*
G01Y-89540D01*
G01X173152Y-89618D01*
G01X173099Y-89672D01*
G01X173020Y-89697D01*
G01X172939D01*
G01X172860Y-89672D01*
G01X172835Y-89644D01*
G01X172807Y-89590D01*
G04 //text: Z1*
G01X149669Y-103142D02*
G01X150225Y-103513D01*
G01X149669Y-103513D02*
G01X149669Y-103142D01*
G01X150225Y-103513D02*
G01X150225Y-103142D01*
G01X149773Y-102866D02*
G01X149748Y-102812D01*
G01X149669Y-102734D01*
G01X150225D01*
G04 //text: U1*
G54D11*
G01X163652Y-104214D02*
G01X163652Y-104678D01*
G01X163683Y-104770D01*
G01X163746Y-104833D01*
G01X163838Y-104864D01*
G01X163901D01*
G01X163993Y-104833D01*
G01X164054Y-104770D01*
G01X164087Y-104678D01*
G01Y-104214D01*
G01X164386Y-104338D02*
G01X164450Y-104305D01*
G01X164541Y-104214D01*
G01Y-104864D01*
G04 //text: Q1*
G01X158123Y-102182D02*
G01X158062Y-102212D01*
G01X157998Y-102273D01*
G01X157968Y-102337D01*
G01X157937Y-102428D01*
G01Y-102583D01*
G01X157968Y-102677D01*
G01X157998Y-102738D01*
G01X158062Y-102801D01*
G01X158123Y-102832D01*
G01X158247D01*
G01X158308Y-102801D01*
G01X158372Y-102738D01*
G01X158402Y-102677D01*
G01X158433Y-102583D01*
G01Y-102428D01*
G01X158402Y-102337D01*
G01X158372Y-102273D01*
G01X158308Y-102212D01*
G01X158247Y-102182D01*
G01X158123D01*
G01X158217Y-102707D02*
G01X158402Y-102893D01*
G01X158735Y-102306D02*
G01X158796Y-102273D01*
G01X158887Y-102182D01*
G01Y-102832D01*
G04 //text: LED1*
G54D10*
G01X165244Y-95313D02*
G01X165244Y-95869D01*
G01X165244Y-95869D02*
G01X165562Y-95869D01*
G01X165838Y-95313D02*
G01X165838Y-95869D01*
G01X165838Y-95313D02*
G01X166184Y-95313D01*
G01X165838Y-95577D02*
G01X166052Y-95577D01*
G01X165838Y-95869D02*
G01X166184Y-95869D01*
G01X166461Y-95313D02*
G01X166461Y-95869D01*
G01X166461Y-95313D02*
G01X166649Y-95313D01*
G01X166727Y-95339D01*
G01X166781Y-95392D01*
G01X166806Y-95445D01*
G01X166834Y-95524D01*
G01Y-95659D01*
G01X166806Y-95737D01*
G01X166781Y-95791D01*
G01X166727Y-95844D01*
G01X166649Y-95869D01*
G01X166461D01*
G01X167111Y-95417D02*
G01X167164Y-95392D01*
G01X167243Y-95313D01*
G01Y-95869D01*
G04 //text: R2*
G01X172156Y-96952D02*
G01X172712Y-96952D01*
G01X172156Y-96952D02*
G01X172156Y-96713D01*
G01X172182Y-96634D01*
G01X172209Y-96606D01*
G01X172263Y-96581D01*
G01X172316D01*
G01X172367Y-96606D01*
G01X172395Y-96634D01*
G01X172420Y-96713D01*
G01Y-96952D01*
G01X172420Y-96766D02*
G01X172712Y-96581D01*
G01X172288Y-96276D02*
G01X172263Y-96276D01*
G01X172209Y-96248D01*
G01X172182Y-96223D01*
G01X172156Y-96169D01*
G01Y-96063D01*
G01X172182Y-96009D01*
G01X172209Y-95984D01*
G01X172263Y-95956D01*
G01X172316D01*
G01X172367Y-95984D01*
G01X172448Y-96037D01*
G01X172712Y-96302D01*
G01Y-95931D01*
G04 //text: C1*
G01X173602Y-101287D02*
G01X173577Y-101234D01*
G01X173523Y-101181D01*
G01X173470Y-101155D01*
G01X173363D01*
G01X173310Y-101181D01*
G01X173257Y-101234D01*
G01X173231Y-101287D01*
G01X173206Y-101366D01*
G01Y-101501D01*
G01X173231Y-101579D01*
G01X173257Y-101633D01*
G01X173310Y-101686D01*
G01X173363Y-101711D01*
G01X173470D01*
G01X173523Y-101686D01*
G01X173577Y-101633D01*
G01X173602Y-101579D01*
G01X173881Y-101259D02*
G01X173935Y-101234D01*
G01X174013Y-101155D01*
G01Y-101711D01*
G04 //text: LED2*
G01X159916Y-95313D02*
G01X159916Y-95869D01*
G01X159916Y-95869D02*
G01X160234Y-95869D01*
G01X160511Y-95313D02*
G01X160511Y-95869D01*
G01X160511Y-95313D02*
G01X160856Y-95313D01*
G01X160511Y-95577D02*
G01X160724Y-95577D01*
G01X160511Y-95869D02*
G01X160856Y-95869D01*
G01X161133Y-95313D02*
G01X161133Y-95869D01*
G01X161133Y-95313D02*
G01X161321Y-95313D01*
G01X161400Y-95339D01*
G01X161453Y-95392D01*
G01X161479Y-95445D01*
G01X161507Y-95524D01*
G01Y-95659D01*
G01X161479Y-95737D01*
G01X161453Y-95791D01*
G01X161400Y-95844D01*
G01X161321Y-95869D01*
G01X161133D01*
G01X161811Y-95445D02*
G01X161811Y-95417D01*
G01X161837Y-95366D01*
G01X161865Y-95339D01*
G01X161915Y-95313D01*
G01X162022D01*
G01X162075Y-95339D01*
G01X162103Y-95366D01*
G01X162129Y-95417D01*
G01Y-95471D01*
G01X162103Y-95524D01*
G01X162050Y-95605D01*
G01X161783Y-95869D01*
G01X162157D01*
G04 //text: Q2*
G01X153545Y-88582D02*
G01X153492Y-88608D01*
G01X153438Y-88661D01*
G01X153413Y-88714D01*
G01X153387Y-88793D01*
G01Y-88928D01*
G01X153413Y-89006D01*
G01X153438Y-89060D01*
G01X153492Y-89113D01*
G01X153545Y-89138D01*
G01X153652D01*
G01X153705Y-89113D01*
G01X153758Y-89060D01*
G01X153784Y-89006D01*
G01X153812Y-88928D01*
G01Y-88793D01*
G01X153784Y-88714D01*
G01X153758Y-88661D01*
G01X153705Y-88608D01*
G01X153652Y-88582D01*
G01X153545D01*
G01X153626Y-89032D02*
G01X153784Y-89192D01*
G01X154116Y-88714D02*
G01X154116Y-88686D01*
G01X154142Y-88635D01*
G01X154167Y-88608D01*
G01X154221Y-88582D01*
G01X154327D01*
G01X154381Y-88608D01*
G01X154408Y-88635D01*
G01X154434Y-88686D01*
G01Y-88740D01*
G01X154408Y-88793D01*
G01X154355Y-88874D01*
G01X154088Y-89138D01*
G01X154462D01*
G04 Text End*

G04 PolygonModel Start*
G54D12*
G01X148209Y-85725D02*
G01X140589Y-85725D01*
G01X148209Y-85725D02*
G01X148209Y-106045D01*
G01X140589Y-85725D02*
G01X140589Y-106045D01*
G01X141859Y-106045D02*
G01X141859Y-85725D01*
G01X140589Y-106045D02*
G01X148209Y-106045D01*
G01X176530Y-110744D02*
G01X184150Y-110744D01*
G01X176530Y-110744D02*
G01X176530Y-90424D01*
G01X184150Y-110744D02*
G01X184150Y-90424D01*
G01X182880Y-90424D02*
G01X182880Y-110744D01*
G01X184150Y-90424D02*
G01X176530Y-90424D01*
G01X175809Y-103251D02*
G01X174609Y-103251D01*
G01X175209Y-103901D02*
G01X175209Y-102601D01*
G01X172359Y-106451D02*
G01X172359Y-100051D01*
G01X172319Y-106451D02*
G01X172319Y-100051D01*
G01X172279Y-106451D02*
G01X172279Y-100051D01*
G01X172239Y-106449D02*
G01X172239Y-100053D01*
G01X172199Y-106448D02*
G01X172199Y-100054D01*
G01X172159Y-106445D02*
G01X172159Y-100057D01*
G01X172119Y-106443D02*
G01X172119Y-100059D01*
G01X172079Y-106439D02*
G01X172079Y-104231D01*
G01X172079Y-102271D02*
G01X172079Y-100063D01*
G01X172039Y-106436D02*
G01X172039Y-104231D01*
G01X172039Y-102271D02*
G01X172039Y-100066D01*
G01X171999Y-106431D02*
G01X171999Y-104231D01*
G01X171999Y-102271D02*
G01X171999Y-100071D01*
G01X171959Y-106427D02*
G01X171959Y-104231D01*
G01X171959Y-102271D02*
G01X171959Y-100075D01*
G01X171919Y-106421D02*
G01X171919Y-104231D01*
G01X171919Y-102271D02*
G01X171919Y-100081D01*
G01X171879Y-106416D02*
G01X171879Y-104231D01*
G01X171879Y-102271D02*
G01X171879Y-100086D01*
G01X171839Y-106409D02*
G01X171839Y-104231D01*
G01X171839Y-102271D02*
G01X171839Y-100093D01*
G01X171799Y-106403D02*
G01X171799Y-104231D01*
G01X171799Y-102271D02*
G01X171799Y-100099D01*
G01X171759Y-106395D02*
G01X171759Y-104231D01*
G01X171759Y-102271D02*
G01X171759Y-100107D01*
G01X171719Y-106388D02*
G01X171719Y-104231D01*
G01X171719Y-102271D02*
G01X171719Y-100114D01*
G01X171679Y-106379D02*
G01X171679Y-104231D01*
G01X171679Y-102271D02*
G01X171679Y-100123D01*
G01X171638Y-106370D02*
G01X171638Y-104231D01*
G01X171638Y-102271D02*
G01X171638Y-100132D01*
G01X171598Y-106361D02*
G01X171598Y-104231D01*
G01X171598Y-102271D02*
G01X171598Y-100141D01*
G01X171558Y-106351D02*
G01X171558Y-104231D01*
G01X171558Y-102271D02*
G01X171558Y-100151D01*
G01X171518Y-106341D02*
G01X171518Y-104231D01*
G01X171518Y-102271D02*
G01X171518Y-100161D01*
G01X171478Y-106330D02*
G01X171478Y-104231D01*
G01X171478Y-102271D02*
G01X171478Y-100172D01*
G01X171438Y-106318D02*
G01X171438Y-104231D01*
G01X171438Y-102271D02*
G01X171438Y-100184D01*
G01X171398Y-106306D02*
G01X171398Y-104231D01*
G01X171398Y-102271D02*
G01X171398Y-100196D01*
G01X171358Y-106293D02*
G01X171358Y-104231D01*
G01X171358Y-102271D02*
G01X171358Y-100209D01*
G01X171318Y-106280D02*
G01X171318Y-104231D01*
G01X171318Y-102271D02*
G01X171318Y-100222D01*
G01X171278Y-106266D02*
G01X171278Y-104231D01*
G01X171278Y-102271D02*
G01X171278Y-100236D01*
G01X171238Y-106252D02*
G01X171238Y-104231D01*
G01X171238Y-102271D02*
G01X171238Y-100250D01*
G01X171198Y-106237D02*
G01X171198Y-104231D01*
G01X171198Y-102271D02*
G01X171198Y-100265D01*
G01X171158Y-106221D02*
G01X171158Y-104231D01*
G01X171158Y-102271D02*
G01X171158Y-100281D01*
G01X171118Y-106205D02*
G01X171118Y-104231D01*
G01X171118Y-102271D02*
G01X171118Y-100297D01*
G01X171078Y-106188D02*
G01X171078Y-104231D01*
G01X171078Y-102271D02*
G01X171078Y-100314D01*
G01X171038Y-106170D02*
G01X171038Y-104231D01*
G01X171038Y-102271D02*
G01X171038Y-100332D01*
G01X170998Y-106152D02*
G01X170998Y-104231D01*
G01X170998Y-102271D02*
G01X170998Y-100350D01*
G01X170958Y-106133D02*
G01X170958Y-104231D01*
G01X170958Y-102271D02*
G01X170958Y-100369D01*
G01X170918Y-106114D02*
G01X170918Y-104231D01*
G01X170918Y-102271D02*
G01X170918Y-100388D01*
G01X170878Y-106094D02*
G01X170878Y-104231D01*
G01X170878Y-102271D02*
G01X170878Y-100408D01*
G01X170838Y-106073D02*
G01X170838Y-104231D01*
G01X170838Y-102271D02*
G01X170838Y-100429D01*
G01X170798Y-106051D02*
G01X170798Y-104231D01*
G01X170798Y-102271D02*
G01X170798Y-100451D01*
G01X170758Y-106029D02*
G01X170758Y-104231D01*
G01X170758Y-102271D02*
G01X170758Y-100473D01*
G01X170718Y-106006D02*
G01X170718Y-104231D01*
G01X170718Y-102271D02*
G01X170718Y-100496D01*
G01X170678Y-105982D02*
G01X170678Y-104231D01*
G01X170678Y-102271D02*
G01X170678Y-100520D01*
G01X170638Y-105957D02*
G01X170638Y-104231D01*
G01X170638Y-102271D02*
G01X170638Y-100545D01*
G01X170598Y-105932D02*
G01X170598Y-104231D01*
G01X170598Y-102271D02*
G01X170598Y-100570D01*
G01X170558Y-105905D02*
G01X170558Y-104231D01*
G01X170558Y-102271D02*
G01X170558Y-100597D01*
G01X170518Y-105878D02*
G01X170518Y-104231D01*
G01X170518Y-102271D02*
G01X170518Y-100624D01*
G01X170478Y-105850D02*
G01X170478Y-104231D01*
G01X170478Y-102271D02*
G01X170478Y-100652D01*
G01X170438Y-105821D02*
G01X170438Y-104231D01*
G01X170438Y-102271D02*
G01X170438Y-100681D01*
G01X170398Y-105791D02*
G01X170398Y-104231D01*
G01X170398Y-102271D02*
G01X170398Y-100711D01*
G01X170358Y-105761D02*
G01X170358Y-104231D01*
G01X170358Y-102271D02*
G01X170358Y-100741D01*
G01X170318Y-105729D02*
G01X170318Y-104231D01*
G01X170318Y-102271D02*
G01X170318Y-100773D01*
G01X170278Y-105696D02*
G01X170278Y-104231D01*
G01X170278Y-102271D02*
G01X170278Y-100806D01*
G01X170238Y-105662D02*
G01X170238Y-104231D01*
G01X170238Y-102271D02*
G01X170238Y-100840D01*
G01X170198Y-105626D02*
G01X170198Y-104231D01*
G01X170198Y-102271D02*
G01X170198Y-100876D01*
G01X170158Y-105590D02*
G01X170158Y-104231D01*
G01X170158Y-102271D02*
G01X170158Y-100912D01*
G01X170118Y-105552D02*
G01X170118Y-100950D01*
G01X170078Y-105513D02*
G01X170078Y-100989D01*
G01X170038Y-105473D02*
G01X170038Y-101029D01*
G01X169998Y-105431D02*
G01X169998Y-101071D01*
G01X169958Y-105388D02*
G01X169958Y-101114D01*
G01X169918Y-105343D02*
G01X169918Y-101159D01*
G01X169878Y-105296D02*
G01X169878Y-101206D01*
G01X169838Y-105248D02*
G01X169838Y-101254D01*
G01X169798Y-105197D02*
G01X169798Y-101305D01*
G01X169758Y-105145D02*
G01X169758Y-101357D01*
G01X169718Y-105090D02*
G01X169718Y-101412D01*
G01X169678Y-105032D02*
G01X169678Y-101470D01*
G01X169638Y-104972D02*
G01X169638Y-101530D01*
G01X169598Y-104909D02*
G01X169598Y-101593D01*
G01X169558Y-104842D02*
G01X169558Y-101660D01*
G01X169518Y-104771D02*
G01X169518Y-101731D01*
G01X169478Y-104696D02*
G01X169478Y-101806D01*
G01X169438Y-104615D02*
G01X169438Y-101887D01*
G01X169398Y-104529D02*
G01X169398Y-101973D01*
G01X169358Y-104435D02*
G01X169358Y-102067D01*
G01X169318Y-104332D02*
G01X169318Y-102170D01*
G01X169278Y-104217D02*
G01X169278Y-102285D01*
G01X169238Y-104085D02*
G01X169238Y-102417D01*
G01X169198Y-103927D02*
G01X169198Y-102575D01*
G01X169158Y-103719D02*
G01X169158Y-102783D01*
G01X175376Y-104431D02*
G02X169341Y-104430I-3017J1180D01*
G01X169342Y-104431D02*
G02X169341Y-102072I3017J1180D01*
G01X169341Y-102072D02*
G02X175376Y-102071I3018J-1179D01*
G01X157297Y-96261D02*
G01X157297Y-96161D01*
G01X157297Y-96161D02*
G01X159197Y-96161D01*
G01X157297Y-89461D02*
G01X158397Y-89461D01*
G01X157297Y-89361D02*
G01X157297Y-89461D01*
G01X155797Y-96261D02*
G01X157297Y-96261D01*
G01X155797Y-89361D02*
G01X157297Y-89361D01*
G01X156150Y-87690D02*
G01X156150Y-86360D01*
G01X157480Y-87690D02*
G01X156150Y-87690D01*
G01X158750Y-87690D02*
G01X176590Y-87690D01*
G01X158750Y-87690D02*
G01X158750Y-85030D01*
G01X176590Y-87690D02*
G01X176590Y-85030D01*
G01X158750Y-85030D02*
G01X176590Y-85030D01*
G01X147260Y-111820D02*
G01X147260Y-110490D01*
G01X148590Y-111820D02*
G01X147260Y-111820D01*
G01X149860Y-111820D02*
G01X167700Y-111820D01*
G01X149860Y-111820D02*
G01X149860Y-109160D01*
G01X167700Y-111820D02*
G01X167700Y-109160D01*
G01X149860Y-109160D02*
G01X167700Y-109160D01*
G01X158690Y-109280D02*
G01X158690Y-107950D01*
G01X160020Y-109280D02*
G01X158690Y-109280D01*
G01X161290Y-109280D02*
G01X168970Y-109280D01*
G01X161290Y-109280D02*
G01X161290Y-106620D01*
G01X168970Y-109280D02*
G01X168970Y-106620D01*
G01X161290Y-106620D02*
G01X168970Y-106620D01*
G01X170973Y-94473D02*
G01X170973Y-98313D01*
G01X169133Y-94473D02*
G01X169133Y-98313D01*
G01X173959Y-98313D02*
G01X173959Y-94473D01*
G01X175799Y-98313D02*
G01X175799Y-94473D01*
G01X168610Y-89865D02*
G01X168610Y-93705D01*
G01X166770Y-89865D02*
G01X166770Y-93705D01*
G01X164013Y-89865D02*
G01X164013Y-93705D01*
G01X162173Y-89865D02*
G01X162173Y-93705D01*
G01X174500Y-92550D02*
G01X170660Y-92550D01*
G01X174500Y-90710D02*
G01X170660Y-90710D01*
G01X161625Y-89865D02*
G01X161625Y-93705D01*
G01X159785Y-89865D02*
G01X159785Y-93705D01*
G01X151665Y-106775D02*
G01X151665Y-100235D01*
G01X151995Y-106775D02*
G01X151665Y-106775D01*
G01X154075Y-106775D02*
G01X154405Y-106775D01*
G01X154405Y-106775D02*
G01X154405Y-100235D01*
G01X151665Y-100235D02*
G01X151995Y-100235D01*
G01X154405Y-100235D02*
G01X154075Y-100235D01*
G01X164459Y-93741D02*
G01X164459Y-89901D01*
G01X166299Y-93741D02*
G01X166299Y-89901D01*
G01X152004Y-96489D02*
G01X155844Y-96489D01*
G01X152004Y-98329D02*
G01X155844Y-98329D01*
G01X174513Y-90328D02*
G01X170673Y-90328D01*
G01X174513Y-88488D02*
G01X170673Y-88488D01*
G01X149987Y-106275D02*
G01X149987Y-105625D01*
G01X148867Y-105625D02*
G01X151107Y-105625D01*
G01X151107Y-105625D02*
G01X151107Y-101385D01*
G01X148867Y-105025D02*
G01X151107Y-105025D01*
G01X148867Y-104905D02*
G01X151107Y-104905D01*
G01X148867Y-104785D02*
G01X151107Y-104785D01*
G01X148867Y-101385D02*
G01X148867Y-105625D01*
G01X151107Y-101385D02*
G01X148867Y-101385D01*
G01X149987Y-100735D02*
G01X149987Y-101385D01*
G01X162284Y-101147D02*
G03X161759Y-101874I1800J-1850D01*
G01X164084Y-105597D02*
G02X161727Y-104096I0J2600D01*
G01X164084Y-105597D02*
G03X166440Y-104096I0J2600D01*
G01X165884Y-101147D02*
G02X166408Y-101874I-1800J-1850D01*
G01X165884Y-101147D02*
G01X162284Y-101147D01*
G01X155122Y-104289D02*
G03X155849Y-104813I1850J1800D01*
G01X159572Y-102489D02*
G02X158071Y-104845I-2600J0D01*
G01X159572Y-102489D02*
G03X158071Y-100133I-2600J0D01*
G01X155122Y-100689D02*
G02X155849Y-100165I1850J-1800D01*
G01X155122Y-100689D02*
G01X155122Y-104289D01*
G01X164850Y-96990D02*
G01X164850Y-97269D01*
G01X164846Y-99695D02*
G01X164846Y-99314D01*
G01X164871Y-96964D02*
G02X167767Y-97282I1337J-1172D01*
G01X167767Y-99314D02*
G02X164846Y-99695I-1606J922D01*
G01X162302Y-99606D02*
G01X162302Y-99327D01*
G01X162306Y-96901D02*
G01X162306Y-97282D01*
G01X162281Y-99631D02*
G02X159385Y-99314I-1337J1172D01*
G01X159385Y-97282D02*
G02X162306Y-96901I1606J-922D01*
G01X173386Y-94473D02*
G01X173386Y-98313D01*
G01X171546Y-94473D02*
G01X171546Y-98313D01*
G04 PolygonModel End*

M02*
