G04 #@! TF.FileFunction,Copper,L2,Bot,Signal*
%FSLAX46Y46*%
G04 Gerber Fmt 4.6, Leading zero omitted, Abs format (unit mm)*
G04 Created by KiCad (PCBNEW 4.0.7) date 07/23/18 00:18:49*
%MOMM*%
%LPD*%
G01*
G04 APERTURE LIST*
%ADD10C,0.100000*%
%ADD11C,0.150000*%
%ADD12R,1.600000X1.600000*%
%ADD13C,1.600000*%
%ADD14C,1.000000*%
%ADD15R,1.000000X1.000000*%
%ADD16C,3.000000*%
%ADD17R,3.000000X3.000000*%
%ADD18O,1.600000X1.600000*%
%ADD19O,1.500000X0.900000*%
%ADD20R,1.500000X0.900000*%
%ADD21R,1.700000X1.700000*%
%ADD22O,1.700000X1.700000*%
%ADD23C,1.400000*%
%ADD24O,1.400000X1.400000*%
%ADD25C,2.000000*%
%ADD26C,0.500000*%
%ADD27C,3.000000*%
%ADD28C,1.000000*%
%ADD29C,0.254000*%
G04 APERTURE END LIST*
D10*
D11*
X140462000Y-106299000D02*
X140462000Y-83693000D01*
X146685000Y-106299000D02*
X140462000Y-106299000D01*
X146685000Y-112522000D02*
X146685000Y-106299000D01*
X184404000Y-112522000D02*
X146685000Y-112522000D01*
X184404000Y-89916000D02*
X184404000Y-112522000D01*
X178181000Y-89916000D02*
X184404000Y-89916000D01*
X178181000Y-83693000D02*
X178181000Y-89916000D01*
X140462000Y-83693000D02*
X178181000Y-83693000D01*
D12*
X170180000Y-102108000D03*
D13*
X172680000Y-102108000D03*
D14*
X151638000Y-92710000D03*
X150368000Y-91440000D03*
D15*
X152908000Y-91440000D03*
D16*
X144399000Y-93345000D03*
X144399000Y-98425000D03*
D17*
X144399000Y-88265000D03*
D16*
X144399000Y-103505000D03*
D13*
X159512000Y-90932000D03*
X159512000Y-93432000D03*
D12*
X163830000Y-97028000D03*
D18*
X171450000Y-97028000D03*
D12*
X158750000Y-97028000D03*
D18*
X158750000Y-104648000D03*
D16*
X180213000Y-103124000D03*
X180213000Y-98044000D03*
D17*
X180213000Y-108204000D03*
D16*
X180213000Y-92964000D03*
D19*
X168910000Y-91440000D03*
X168910000Y-90170000D03*
D20*
X168910000Y-92710000D03*
D21*
X157480000Y-86360000D03*
D22*
X160020000Y-86360000D03*
X162560000Y-86360000D03*
X165100000Y-86360000D03*
X167640000Y-86360000D03*
X170180000Y-86360000D03*
X172720000Y-86360000D03*
X175260000Y-86360000D03*
D21*
X148590000Y-110490000D03*
D22*
X151130000Y-110490000D03*
X153670000Y-110490000D03*
X156210000Y-110490000D03*
X158750000Y-110490000D03*
X161290000Y-110490000D03*
X163830000Y-110490000D03*
X166370000Y-110490000D03*
D21*
X160020000Y-107950000D03*
D22*
X162560000Y-107950000D03*
X165100000Y-107950000D03*
X167640000Y-107950000D03*
D23*
X166370000Y-104521000D03*
D24*
X161290000Y-104521000D03*
D23*
X172720000Y-94615000D03*
D24*
X172720000Y-89535000D03*
D23*
X163830000Y-104521000D03*
D24*
X163830000Y-99441000D03*
D23*
X165100000Y-94615000D03*
D24*
X165100000Y-89535000D03*
D23*
X161290000Y-104521000D03*
D24*
X161290000Y-99441000D03*
D23*
X162560000Y-94615000D03*
D24*
X162560000Y-89535000D03*
D14*
X152654000Y-104190800D03*
X152654000Y-100609400D03*
X154330400Y-102412800D03*
X151003000Y-102438200D03*
X152640000Y-102390000D03*
X150940000Y-100640000D03*
X154340000Y-100640000D03*
X154340000Y-104190000D03*
X150940000Y-104140000D03*
D25*
X160020000Y-86360000D02*
X157480000Y-86360000D01*
X162560000Y-86360000D02*
X160020000Y-86360000D01*
X165100000Y-86360000D02*
X162560000Y-86360000D01*
D26*
X172680000Y-102108000D02*
X172680000Y-98258000D01*
X172680000Y-98258000D02*
X171450000Y-97028000D01*
X165100000Y-107950000D02*
X163549990Y-106399990D01*
X163549990Y-106399990D02*
X159866990Y-106399990D01*
X159866990Y-106399990D02*
X158914999Y-105447999D01*
X158914999Y-105447999D02*
X158115000Y-104648000D01*
D27*
X176276000Y-91148320D02*
X176276000Y-87376000D01*
X176276000Y-87376000D02*
X175260000Y-86360000D01*
X180213000Y-92964000D02*
X178091680Y-92964000D01*
X178091680Y-92964000D02*
X176276000Y-91148320D01*
D25*
X170180000Y-86360000D02*
X167640000Y-86360000D01*
X172720000Y-86360000D02*
X170180000Y-86360000D01*
X175260000Y-86360000D02*
X172720000Y-86360000D01*
D26*
X150368000Y-91440000D02*
X152273000Y-89535000D01*
X152273000Y-89535000D02*
X162560000Y-89535000D01*
X159512000Y-90932000D02*
X154432000Y-90932000D01*
X154432000Y-90932000D02*
X153924000Y-91440000D01*
X153924000Y-91440000D02*
X152908000Y-91440000D01*
D25*
X161290000Y-110490000D02*
X158750000Y-110490000D01*
X163830000Y-110490000D02*
X161290000Y-110490000D01*
X166370000Y-110490000D02*
X163830000Y-110490000D01*
X166370000Y-110490000D02*
X168910000Y-110490000D01*
X168910000Y-110490000D02*
X169849959Y-109550041D01*
X169849959Y-109550041D02*
X169849959Y-108638619D01*
X169849959Y-108638619D02*
X171175959Y-107312619D01*
X171175959Y-107312619D02*
X175821619Y-107312619D01*
X175821619Y-107312619D02*
X176713000Y-108204000D01*
X176713000Y-108204000D02*
X180213000Y-108204000D01*
D28*
X157972002Y-102377998D02*
X157972002Y-100190004D01*
X157972002Y-100190004D02*
X157643000Y-99861002D01*
D25*
X156649999Y-98229999D02*
X156454998Y-98425000D01*
X156454998Y-98425000D02*
X144399000Y-98425000D01*
X156649999Y-98868001D02*
X156649999Y-98229999D01*
X158750000Y-99861002D02*
X157643000Y-99861002D01*
X157643000Y-99861002D02*
X156649999Y-98868001D01*
X167132000Y-101941001D02*
X160829999Y-101941001D01*
X160829999Y-101941001D02*
X158750000Y-99861002D01*
D28*
X160020000Y-107950000D02*
X158170000Y-107950000D01*
X158170000Y-107950000D02*
X157064991Y-106844991D01*
X157064991Y-106844991D02*
X157064991Y-103285009D01*
X157064991Y-103285009D02*
X157972002Y-102377998D01*
X157972002Y-102377998D02*
X157972002Y-101941001D01*
D25*
X169968608Y-105012609D02*
X174752000Y-104512609D01*
D27*
X180213000Y-103124000D02*
X176140609Y-103124000D01*
X176140609Y-103124000D02*
X174752000Y-104512609D01*
D25*
X169164000Y-104208001D02*
X169968608Y-105012609D01*
D28*
X169164000Y-104208001D02*
X169164000Y-103973001D01*
X169164000Y-103973001D02*
X167132000Y-101941001D01*
D25*
X147828000Y-107188000D02*
X147828000Y-105156000D01*
X147828000Y-105156000D02*
X146050000Y-105156000D01*
X146050000Y-105156000D02*
X144399000Y-103505000D01*
X148590000Y-110490000D02*
X148590000Y-107950000D01*
X148590000Y-107950000D02*
X147828000Y-107188000D01*
X151130000Y-110490000D02*
X148590000Y-110490000D01*
X153670000Y-110490000D02*
X151130000Y-110490000D01*
X156210000Y-110490000D02*
X153670000Y-110490000D01*
D29*
G36*
X173937892Y-84725000D02*
X167640000Y-84725000D01*
X167014313Y-84849457D01*
X166483880Y-85203880D01*
X166370000Y-85374314D01*
X166256120Y-85203880D01*
X165725687Y-84849457D01*
X165100000Y-84725000D01*
X157480000Y-84725000D01*
X156854313Y-84849457D01*
X156834703Y-84862560D01*
X156630000Y-84862560D01*
X156394683Y-84906838D01*
X156178559Y-85045910D01*
X156033569Y-85258110D01*
X155982560Y-85510000D01*
X155982560Y-85714703D01*
X155969457Y-85734313D01*
X155845000Y-86360000D01*
X155969457Y-86985687D01*
X155982560Y-87005297D01*
X155982560Y-87210000D01*
X156026838Y-87445317D01*
X156165910Y-87661441D01*
X156378110Y-87806431D01*
X156630000Y-87857440D01*
X156834703Y-87857440D01*
X156854313Y-87870543D01*
X157480000Y-87995000D01*
X165100000Y-87995000D01*
X165725687Y-87870543D01*
X166256120Y-87516120D01*
X166370000Y-87345686D01*
X166483880Y-87516120D01*
X167014313Y-87870543D01*
X167640000Y-87995000D01*
X173875654Y-87995000D01*
X174141000Y-88260346D01*
X174141000Y-91148320D01*
X174303517Y-91965349D01*
X174766327Y-92657993D01*
X176582007Y-94473673D01*
X177274650Y-94936483D01*
X178091680Y-95099000D01*
X180212282Y-95099000D01*
X180635815Y-95099370D01*
X181420800Y-94775020D01*
X182021909Y-94174959D01*
X182347628Y-93390541D01*
X182348370Y-92541185D01*
X182024020Y-91756200D01*
X181423959Y-91155091D01*
X180639541Y-90829372D01*
X179790185Y-90828630D01*
X179789290Y-90829000D01*
X178976026Y-90829000D01*
X178773026Y-90626000D01*
X183694000Y-90626000D01*
X183694000Y-100965000D01*
X173467399Y-100965000D01*
X173434005Y-100854136D01*
X172896777Y-100661035D01*
X172326546Y-100688222D01*
X171925995Y-100854136D01*
X171892601Y-100965000D01*
X171513870Y-100965000D01*
X171444090Y-100856559D01*
X171231890Y-100711569D01*
X170980000Y-100660560D01*
X169380000Y-100660560D01*
X169144683Y-100704838D01*
X168928559Y-100843910D01*
X168845822Y-100965000D01*
X168674444Y-100965000D01*
X168342704Y-100866572D01*
X168288120Y-100784881D01*
X167757687Y-100430458D01*
X167354649Y-100350289D01*
X167603379Y-99978036D01*
X167686935Y-99557970D01*
X178878635Y-99557970D01*
X179038418Y-99876739D01*
X179829187Y-100186723D01*
X180678387Y-100170497D01*
X181387582Y-99876739D01*
X181547365Y-99557970D01*
X180213000Y-98223605D01*
X178878635Y-99557970D01*
X167686935Y-99557970D01*
X167705000Y-99467154D01*
X167705000Y-99414846D01*
X167603379Y-98903964D01*
X167313988Y-98470858D01*
X166880882Y-98181467D01*
X166370000Y-98079846D01*
X165859118Y-98181467D01*
X165426012Y-98470858D01*
X165136621Y-98903964D01*
X165100000Y-99088070D01*
X165063379Y-98903964D01*
X164773988Y-98470858D01*
X164747700Y-98453293D01*
X164865317Y-98431162D01*
X165081441Y-98292090D01*
X165226431Y-98079890D01*
X165277440Y-97828000D01*
X165277440Y-97377039D01*
X170058096Y-97377039D01*
X170218959Y-97765423D01*
X170594866Y-98180389D01*
X171100959Y-98419914D01*
X171323000Y-98298629D01*
X171323000Y-97155000D01*
X171577000Y-97155000D01*
X171577000Y-98298629D01*
X171799041Y-98419914D01*
X172305134Y-98180389D01*
X172681041Y-97765423D01*
X172724628Y-97660187D01*
X178070277Y-97660187D01*
X178086503Y-98509387D01*
X178380261Y-99218582D01*
X178699030Y-99378365D01*
X180033395Y-98044000D01*
X180392605Y-98044000D01*
X181726970Y-99378365D01*
X182045739Y-99218582D01*
X182355723Y-98427813D01*
X182339497Y-97578613D01*
X182045739Y-96869418D01*
X181726970Y-96709635D01*
X180392605Y-98044000D01*
X180033395Y-98044000D01*
X178699030Y-96709635D01*
X178380261Y-96869418D01*
X178070277Y-97660187D01*
X172724628Y-97660187D01*
X172841904Y-97377039D01*
X172719915Y-97155000D01*
X171577000Y-97155000D01*
X171323000Y-97155000D01*
X170180085Y-97155000D01*
X170058096Y-97377039D01*
X165277440Y-97377039D01*
X165277440Y-96678961D01*
X170058096Y-96678961D01*
X170180085Y-96901000D01*
X171323000Y-96901000D01*
X171323000Y-95757371D01*
X171100959Y-95636086D01*
X170594866Y-95875611D01*
X170218959Y-96290577D01*
X170058096Y-96678961D01*
X165277440Y-96678961D01*
X165277440Y-96228000D01*
X165233162Y-95992683D01*
X165205756Y-95950093D01*
X165364383Y-95950231D01*
X165855229Y-95747418D01*
X166231098Y-95372204D01*
X166434768Y-94881713D01*
X166434770Y-94879383D01*
X171384769Y-94879383D01*
X171587582Y-95370229D01*
X171901279Y-95684473D01*
X171799041Y-95636086D01*
X171577000Y-95757371D01*
X171577000Y-96901000D01*
X172719915Y-96901000D01*
X172841904Y-96678961D01*
X172780219Y-96530030D01*
X178878635Y-96530030D01*
X180213000Y-97864395D01*
X181547365Y-96530030D01*
X181387582Y-96211261D01*
X180596813Y-95901277D01*
X179747613Y-95917503D01*
X179038418Y-96211261D01*
X178878635Y-96530030D01*
X172780219Y-96530030D01*
X172681041Y-96290577D01*
X172323486Y-95895870D01*
X172453287Y-95949768D01*
X172984383Y-95950231D01*
X173475229Y-95747418D01*
X173851098Y-95372204D01*
X174054768Y-94881713D01*
X174055231Y-94350617D01*
X173852418Y-93859771D01*
X173477204Y-93483902D01*
X172986713Y-93280232D01*
X172455617Y-93279769D01*
X171964771Y-93482582D01*
X171588902Y-93857796D01*
X171385232Y-94348287D01*
X171384769Y-94879383D01*
X166434770Y-94879383D01*
X166435231Y-94350617D01*
X166232418Y-93859771D01*
X165857204Y-93483902D01*
X165366713Y-93280232D01*
X164835617Y-93279769D01*
X164344771Y-93482582D01*
X163968902Y-93857796D01*
X163829909Y-94192527D01*
X163692418Y-93859771D01*
X163317204Y-93483902D01*
X162826713Y-93280232D01*
X162295617Y-93279769D01*
X161804771Y-93482582D01*
X161428902Y-93857796D01*
X161225232Y-94348287D01*
X161224769Y-94879383D01*
X161427582Y-95370229D01*
X161802796Y-95746098D01*
X162293287Y-95949768D01*
X162451473Y-95949906D01*
X162433569Y-95976110D01*
X162382560Y-96228000D01*
X162382560Y-97828000D01*
X162426838Y-98063317D01*
X162565910Y-98279441D01*
X162778110Y-98424431D01*
X162914239Y-98451998D01*
X162886012Y-98470858D01*
X162596621Y-98903964D01*
X162560000Y-99088070D01*
X162523379Y-98903964D01*
X162233988Y-98470858D01*
X161800882Y-98181467D01*
X161290000Y-98079846D01*
X160779118Y-98181467D01*
X160346012Y-98470858D01*
X160333148Y-98490110D01*
X159895503Y-98360259D01*
X160001441Y-98292090D01*
X160146431Y-98079890D01*
X160197440Y-97828000D01*
X160197440Y-96228000D01*
X160153162Y-95992683D01*
X160014090Y-95776559D01*
X159801890Y-95631569D01*
X159550000Y-95580560D01*
X157950000Y-95580560D01*
X157714683Y-95624838D01*
X157498559Y-95763910D01*
X157353569Y-95976110D01*
X157302560Y-96228000D01*
X157302560Y-96737412D01*
X157275687Y-96719456D01*
X156649999Y-96594998D01*
X156024311Y-96719456D01*
X155918734Y-96790000D01*
X145783565Y-96790000D01*
X145609959Y-96616091D01*
X144825541Y-96290372D01*
X143976185Y-96289630D01*
X143191200Y-96613980D01*
X142590091Y-97214041D01*
X142456402Y-97536000D01*
X141172000Y-97536000D01*
X141172000Y-94858970D01*
X143064635Y-94858970D01*
X143224418Y-95177739D01*
X144015187Y-95487723D01*
X144864387Y-95471497D01*
X145573582Y-95177739D01*
X145733365Y-94858970D01*
X144399000Y-93524605D01*
X143064635Y-94858970D01*
X141172000Y-94858970D01*
X141172000Y-92961187D01*
X142256277Y-92961187D01*
X142272503Y-93810387D01*
X142566261Y-94519582D01*
X142885030Y-94679365D01*
X144219395Y-93345000D01*
X144578605Y-93345000D01*
X145912970Y-94679365D01*
X146231739Y-94519582D01*
X146263035Y-94439745D01*
X158683861Y-94439745D01*
X158757995Y-94685864D01*
X159295223Y-94878965D01*
X159865454Y-94851778D01*
X160266005Y-94685864D01*
X160340139Y-94439745D01*
X159512000Y-93611605D01*
X158683861Y-94439745D01*
X146263035Y-94439745D01*
X146541723Y-93728813D01*
X146537353Y-93500104D01*
X151027501Y-93500104D01*
X151064648Y-93715217D01*
X151492972Y-93858112D01*
X151943375Y-93826217D01*
X152211352Y-93715217D01*
X152248499Y-93500104D01*
X151638000Y-92889605D01*
X151027501Y-93500104D01*
X146537353Y-93500104D01*
X146525497Y-92879613D01*
X146231739Y-92170418D01*
X145912970Y-92010635D01*
X144578605Y-93345000D01*
X144219395Y-93345000D01*
X142885030Y-92010635D01*
X142566261Y-92170418D01*
X142256277Y-92961187D01*
X141172000Y-92961187D01*
X141172000Y-91831030D01*
X143064635Y-91831030D01*
X144399000Y-93165395D01*
X145733365Y-91831030D01*
X145650030Y-91664775D01*
X149232803Y-91664775D01*
X149405233Y-92082086D01*
X149724235Y-92401645D01*
X150141244Y-92574803D01*
X150490606Y-92575108D01*
X150521783Y-93015375D01*
X150632783Y-93283352D01*
X150847896Y-93320499D01*
X151458395Y-92710000D01*
X151444253Y-92695858D01*
X151623858Y-92516253D01*
X151638000Y-92530395D01*
X151652143Y-92516253D01*
X151831748Y-92695858D01*
X151817605Y-92710000D01*
X152428104Y-93320499D01*
X152643217Y-93283352D01*
X152665945Y-93215223D01*
X158065035Y-93215223D01*
X158092222Y-93785454D01*
X158258136Y-94186005D01*
X158504255Y-94260139D01*
X159332395Y-93432000D01*
X159691605Y-93432000D01*
X160519745Y-94260139D01*
X160765864Y-94186005D01*
X160958965Y-93648777D01*
X160931778Y-93078546D01*
X160765864Y-92677995D01*
X160519745Y-92603861D01*
X159691605Y-93432000D01*
X159332395Y-93432000D01*
X158504255Y-92603861D01*
X158258136Y-92677995D01*
X158065035Y-93215223D01*
X152665945Y-93215223D01*
X152786112Y-92855028D01*
X152767163Y-92587440D01*
X153408000Y-92587440D01*
X153643317Y-92543162D01*
X153859441Y-92404090D01*
X153913481Y-92325000D01*
X153923995Y-92325000D01*
X153924000Y-92325001D01*
X154250775Y-92260000D01*
X154262675Y-92257633D01*
X154549790Y-92065790D01*
X154798580Y-91817000D01*
X158367829Y-91817000D01*
X158698077Y-92147824D01*
X158764544Y-92175423D01*
X158757995Y-92178136D01*
X158683861Y-92424255D01*
X159512000Y-93252395D01*
X160340139Y-92424255D01*
X160290664Y-92260000D01*
X167512560Y-92260000D01*
X167512560Y-93160000D01*
X167556838Y-93395317D01*
X167695910Y-93611441D01*
X167908110Y-93756431D01*
X168160000Y-93807440D01*
X169660000Y-93807440D01*
X169895317Y-93763162D01*
X170111441Y-93624090D01*
X170256431Y-93411890D01*
X170307440Y-93160000D01*
X170307440Y-92260000D01*
X170263162Y-92024683D01*
X170177442Y-91891471D01*
X170254408Y-91734001D01*
X170127502Y-91567000D01*
X169037000Y-91567000D01*
X169037000Y-91587000D01*
X168783000Y-91587000D01*
X168783000Y-91567000D01*
X167692498Y-91567000D01*
X167565592Y-91734001D01*
X167642853Y-91892075D01*
X167563569Y-92008110D01*
X167512560Y-92260000D01*
X160290664Y-92260000D01*
X160266005Y-92178136D01*
X160259517Y-92175804D01*
X160323800Y-92149243D01*
X160727824Y-91745923D01*
X160946750Y-91218691D01*
X160947248Y-90647813D01*
X160853118Y-90420000D01*
X161559122Y-90420000D01*
X161616012Y-90505142D01*
X162049118Y-90794533D01*
X162560000Y-90896154D01*
X163070882Y-90794533D01*
X163503988Y-90505142D01*
X163793379Y-90072036D01*
X163830000Y-89887930D01*
X163866621Y-90072036D01*
X164156012Y-90505142D01*
X164589118Y-90794533D01*
X165100000Y-90896154D01*
X165610882Y-90794533D01*
X166043988Y-90505142D01*
X166267921Y-90170000D01*
X167497866Y-90170000D01*
X167580457Y-90585212D01*
X167730170Y-90809274D01*
X167565592Y-91145999D01*
X167692498Y-91313000D01*
X168783000Y-91313000D01*
X168783000Y-91293000D01*
X169037000Y-91293000D01*
X169037000Y-91313000D01*
X170127502Y-91313000D01*
X170254408Y-91145999D01*
X170089830Y-90809274D01*
X170239543Y-90585212D01*
X170322134Y-90170000D01*
X170262129Y-89868331D01*
X171427273Y-89868331D01*
X171653236Y-90337663D01*
X172041604Y-90684797D01*
X172386671Y-90827716D01*
X172593000Y-90704374D01*
X172593000Y-89662000D01*
X172847000Y-89662000D01*
X172847000Y-90704374D01*
X173053329Y-90827716D01*
X173398396Y-90684797D01*
X173786764Y-90337663D01*
X174012727Y-89868331D01*
X173890206Y-89662000D01*
X172847000Y-89662000D01*
X172593000Y-89662000D01*
X171549794Y-89662000D01*
X171427273Y-89868331D01*
X170262129Y-89868331D01*
X170239543Y-89754788D01*
X170004345Y-89402789D01*
X169703348Y-89201669D01*
X171427273Y-89201669D01*
X171549794Y-89408000D01*
X172593000Y-89408000D01*
X172593000Y-88365626D01*
X172847000Y-88365626D01*
X172847000Y-89408000D01*
X173890206Y-89408000D01*
X174012727Y-89201669D01*
X173786764Y-88732337D01*
X173398396Y-88385203D01*
X173053329Y-88242284D01*
X172847000Y-88365626D01*
X172593000Y-88365626D01*
X172386671Y-88242284D01*
X172041604Y-88385203D01*
X171653236Y-88732337D01*
X171427273Y-89201669D01*
X169703348Y-89201669D01*
X169652346Y-89167591D01*
X169237134Y-89085000D01*
X168582866Y-89085000D01*
X168167654Y-89167591D01*
X167815655Y-89402789D01*
X167580457Y-89754788D01*
X167497866Y-90170000D01*
X166267921Y-90170000D01*
X166333379Y-90072036D01*
X166435000Y-89561154D01*
X166435000Y-89508846D01*
X166333379Y-88997964D01*
X166043988Y-88564858D01*
X165610882Y-88275467D01*
X165100000Y-88173846D01*
X164589118Y-88275467D01*
X164156012Y-88564858D01*
X163866621Y-88997964D01*
X163830000Y-89182070D01*
X163793379Y-88997964D01*
X163503988Y-88564858D01*
X163070882Y-88275467D01*
X162560000Y-88173846D01*
X162049118Y-88275467D01*
X161616012Y-88564858D01*
X161559122Y-88650000D01*
X152273005Y-88650000D01*
X152273000Y-88649999D01*
X151990516Y-88706190D01*
X151934325Y-88717367D01*
X151647210Y-88909210D01*
X151647208Y-88909213D01*
X150251523Y-90304897D01*
X150143225Y-90304803D01*
X149725914Y-90477233D01*
X149406355Y-90796235D01*
X149233197Y-91213244D01*
X149232803Y-91664775D01*
X145650030Y-91664775D01*
X145573582Y-91512261D01*
X144782813Y-91202277D01*
X143933613Y-91218503D01*
X143224418Y-91512261D01*
X143064635Y-91831030D01*
X141172000Y-91831030D01*
X141172000Y-86765000D01*
X142251560Y-86765000D01*
X142251560Y-89765000D01*
X142295838Y-90000317D01*
X142434910Y-90216441D01*
X142647110Y-90361431D01*
X142899000Y-90412440D01*
X145899000Y-90412440D01*
X146134317Y-90368162D01*
X146350441Y-90229090D01*
X146495431Y-90016890D01*
X146546440Y-89765000D01*
X146546440Y-86765000D01*
X146539999Y-86730765D01*
X150519754Y-86730765D01*
X150806123Y-87423832D01*
X151335919Y-87954553D01*
X152028485Y-88242132D01*
X152778385Y-88242786D01*
X153471452Y-87956417D01*
X154002173Y-87426621D01*
X154289752Y-86734055D01*
X154290406Y-85984155D01*
X154004037Y-85291088D01*
X153474241Y-84760367D01*
X152781675Y-84472788D01*
X152031775Y-84472134D01*
X151338708Y-84758503D01*
X150807987Y-85288299D01*
X150520408Y-85980865D01*
X150519754Y-86730765D01*
X146539999Y-86730765D01*
X146502162Y-86529683D01*
X146363090Y-86313559D01*
X146150890Y-86168569D01*
X145899000Y-86117560D01*
X142899000Y-86117560D01*
X142663683Y-86161838D01*
X142447559Y-86300910D01*
X142302569Y-86513110D01*
X142251560Y-86765000D01*
X141172000Y-86765000D01*
X141172000Y-84403000D01*
X174419799Y-84403000D01*
X173937892Y-84725000D01*
X173937892Y-84725000D01*
G37*
X173937892Y-84725000D02*
X167640000Y-84725000D01*
X167014313Y-84849457D01*
X166483880Y-85203880D01*
X166370000Y-85374314D01*
X166256120Y-85203880D01*
X165725687Y-84849457D01*
X165100000Y-84725000D01*
X157480000Y-84725000D01*
X156854313Y-84849457D01*
X156834703Y-84862560D01*
X156630000Y-84862560D01*
X156394683Y-84906838D01*
X156178559Y-85045910D01*
X156033569Y-85258110D01*
X155982560Y-85510000D01*
X155982560Y-85714703D01*
X155969457Y-85734313D01*
X155845000Y-86360000D01*
X155969457Y-86985687D01*
X155982560Y-87005297D01*
X155982560Y-87210000D01*
X156026838Y-87445317D01*
X156165910Y-87661441D01*
X156378110Y-87806431D01*
X156630000Y-87857440D01*
X156834703Y-87857440D01*
X156854313Y-87870543D01*
X157480000Y-87995000D01*
X165100000Y-87995000D01*
X165725687Y-87870543D01*
X166256120Y-87516120D01*
X166370000Y-87345686D01*
X166483880Y-87516120D01*
X167014313Y-87870543D01*
X167640000Y-87995000D01*
X173875654Y-87995000D01*
X174141000Y-88260346D01*
X174141000Y-91148320D01*
X174303517Y-91965349D01*
X174766327Y-92657993D01*
X176582007Y-94473673D01*
X177274650Y-94936483D01*
X178091680Y-95099000D01*
X180212282Y-95099000D01*
X180635815Y-95099370D01*
X181420800Y-94775020D01*
X182021909Y-94174959D01*
X182347628Y-93390541D01*
X182348370Y-92541185D01*
X182024020Y-91756200D01*
X181423959Y-91155091D01*
X180639541Y-90829372D01*
X179790185Y-90828630D01*
X179789290Y-90829000D01*
X178976026Y-90829000D01*
X178773026Y-90626000D01*
X183694000Y-90626000D01*
X183694000Y-100965000D01*
X173467399Y-100965000D01*
X173434005Y-100854136D01*
X172896777Y-100661035D01*
X172326546Y-100688222D01*
X171925995Y-100854136D01*
X171892601Y-100965000D01*
X171513870Y-100965000D01*
X171444090Y-100856559D01*
X171231890Y-100711569D01*
X170980000Y-100660560D01*
X169380000Y-100660560D01*
X169144683Y-100704838D01*
X168928559Y-100843910D01*
X168845822Y-100965000D01*
X168674444Y-100965000D01*
X168342704Y-100866572D01*
X168288120Y-100784881D01*
X167757687Y-100430458D01*
X167354649Y-100350289D01*
X167603379Y-99978036D01*
X167686935Y-99557970D01*
X178878635Y-99557970D01*
X179038418Y-99876739D01*
X179829187Y-100186723D01*
X180678387Y-100170497D01*
X181387582Y-99876739D01*
X181547365Y-99557970D01*
X180213000Y-98223605D01*
X178878635Y-99557970D01*
X167686935Y-99557970D01*
X167705000Y-99467154D01*
X167705000Y-99414846D01*
X167603379Y-98903964D01*
X167313988Y-98470858D01*
X166880882Y-98181467D01*
X166370000Y-98079846D01*
X165859118Y-98181467D01*
X165426012Y-98470858D01*
X165136621Y-98903964D01*
X165100000Y-99088070D01*
X165063379Y-98903964D01*
X164773988Y-98470858D01*
X164747700Y-98453293D01*
X164865317Y-98431162D01*
X165081441Y-98292090D01*
X165226431Y-98079890D01*
X165277440Y-97828000D01*
X165277440Y-97377039D01*
X170058096Y-97377039D01*
X170218959Y-97765423D01*
X170594866Y-98180389D01*
X171100959Y-98419914D01*
X171323000Y-98298629D01*
X171323000Y-97155000D01*
X171577000Y-97155000D01*
X171577000Y-98298629D01*
X171799041Y-98419914D01*
X172305134Y-98180389D01*
X172681041Y-97765423D01*
X172724628Y-97660187D01*
X178070277Y-97660187D01*
X178086503Y-98509387D01*
X178380261Y-99218582D01*
X178699030Y-99378365D01*
X180033395Y-98044000D01*
X180392605Y-98044000D01*
X181726970Y-99378365D01*
X182045739Y-99218582D01*
X182355723Y-98427813D01*
X182339497Y-97578613D01*
X182045739Y-96869418D01*
X181726970Y-96709635D01*
X180392605Y-98044000D01*
X180033395Y-98044000D01*
X178699030Y-96709635D01*
X178380261Y-96869418D01*
X178070277Y-97660187D01*
X172724628Y-97660187D01*
X172841904Y-97377039D01*
X172719915Y-97155000D01*
X171577000Y-97155000D01*
X171323000Y-97155000D01*
X170180085Y-97155000D01*
X170058096Y-97377039D01*
X165277440Y-97377039D01*
X165277440Y-96678961D01*
X170058096Y-96678961D01*
X170180085Y-96901000D01*
X171323000Y-96901000D01*
X171323000Y-95757371D01*
X171100959Y-95636086D01*
X170594866Y-95875611D01*
X170218959Y-96290577D01*
X170058096Y-96678961D01*
X165277440Y-96678961D01*
X165277440Y-96228000D01*
X165233162Y-95992683D01*
X165205756Y-95950093D01*
X165364383Y-95950231D01*
X165855229Y-95747418D01*
X166231098Y-95372204D01*
X166434768Y-94881713D01*
X166434770Y-94879383D01*
X171384769Y-94879383D01*
X171587582Y-95370229D01*
X171901279Y-95684473D01*
X171799041Y-95636086D01*
X171577000Y-95757371D01*
X171577000Y-96901000D01*
X172719915Y-96901000D01*
X172841904Y-96678961D01*
X172780219Y-96530030D01*
X178878635Y-96530030D01*
X180213000Y-97864395D01*
X181547365Y-96530030D01*
X181387582Y-96211261D01*
X180596813Y-95901277D01*
X179747613Y-95917503D01*
X179038418Y-96211261D01*
X178878635Y-96530030D01*
X172780219Y-96530030D01*
X172681041Y-96290577D01*
X172323486Y-95895870D01*
X172453287Y-95949768D01*
X172984383Y-95950231D01*
X173475229Y-95747418D01*
X173851098Y-95372204D01*
X174054768Y-94881713D01*
X174055231Y-94350617D01*
X173852418Y-93859771D01*
X173477204Y-93483902D01*
X172986713Y-93280232D01*
X172455617Y-93279769D01*
X171964771Y-93482582D01*
X171588902Y-93857796D01*
X171385232Y-94348287D01*
X171384769Y-94879383D01*
X166434770Y-94879383D01*
X166435231Y-94350617D01*
X166232418Y-93859771D01*
X165857204Y-93483902D01*
X165366713Y-93280232D01*
X164835617Y-93279769D01*
X164344771Y-93482582D01*
X163968902Y-93857796D01*
X163829909Y-94192527D01*
X163692418Y-93859771D01*
X163317204Y-93483902D01*
X162826713Y-93280232D01*
X162295617Y-93279769D01*
X161804771Y-93482582D01*
X161428902Y-93857796D01*
X161225232Y-94348287D01*
X161224769Y-94879383D01*
X161427582Y-95370229D01*
X161802796Y-95746098D01*
X162293287Y-95949768D01*
X162451473Y-95949906D01*
X162433569Y-95976110D01*
X162382560Y-96228000D01*
X162382560Y-97828000D01*
X162426838Y-98063317D01*
X162565910Y-98279441D01*
X162778110Y-98424431D01*
X162914239Y-98451998D01*
X162886012Y-98470858D01*
X162596621Y-98903964D01*
X162560000Y-99088070D01*
X162523379Y-98903964D01*
X162233988Y-98470858D01*
X161800882Y-98181467D01*
X161290000Y-98079846D01*
X160779118Y-98181467D01*
X160346012Y-98470858D01*
X160333148Y-98490110D01*
X159895503Y-98360259D01*
X160001441Y-98292090D01*
X160146431Y-98079890D01*
X160197440Y-97828000D01*
X160197440Y-96228000D01*
X160153162Y-95992683D01*
X160014090Y-95776559D01*
X159801890Y-95631569D01*
X159550000Y-95580560D01*
X157950000Y-95580560D01*
X157714683Y-95624838D01*
X157498559Y-95763910D01*
X157353569Y-95976110D01*
X157302560Y-96228000D01*
X157302560Y-96737412D01*
X157275687Y-96719456D01*
X156649999Y-96594998D01*
X156024311Y-96719456D01*
X155918734Y-96790000D01*
X145783565Y-96790000D01*
X145609959Y-96616091D01*
X144825541Y-96290372D01*
X143976185Y-96289630D01*
X143191200Y-96613980D01*
X142590091Y-97214041D01*
X142456402Y-97536000D01*
X141172000Y-97536000D01*
X141172000Y-94858970D01*
X143064635Y-94858970D01*
X143224418Y-95177739D01*
X144015187Y-95487723D01*
X144864387Y-95471497D01*
X145573582Y-95177739D01*
X145733365Y-94858970D01*
X144399000Y-93524605D01*
X143064635Y-94858970D01*
X141172000Y-94858970D01*
X141172000Y-92961187D01*
X142256277Y-92961187D01*
X142272503Y-93810387D01*
X142566261Y-94519582D01*
X142885030Y-94679365D01*
X144219395Y-93345000D01*
X144578605Y-93345000D01*
X145912970Y-94679365D01*
X146231739Y-94519582D01*
X146263035Y-94439745D01*
X158683861Y-94439745D01*
X158757995Y-94685864D01*
X159295223Y-94878965D01*
X159865454Y-94851778D01*
X160266005Y-94685864D01*
X160340139Y-94439745D01*
X159512000Y-93611605D01*
X158683861Y-94439745D01*
X146263035Y-94439745D01*
X146541723Y-93728813D01*
X146537353Y-93500104D01*
X151027501Y-93500104D01*
X151064648Y-93715217D01*
X151492972Y-93858112D01*
X151943375Y-93826217D01*
X152211352Y-93715217D01*
X152248499Y-93500104D01*
X151638000Y-92889605D01*
X151027501Y-93500104D01*
X146537353Y-93500104D01*
X146525497Y-92879613D01*
X146231739Y-92170418D01*
X145912970Y-92010635D01*
X144578605Y-93345000D01*
X144219395Y-93345000D01*
X142885030Y-92010635D01*
X142566261Y-92170418D01*
X142256277Y-92961187D01*
X141172000Y-92961187D01*
X141172000Y-91831030D01*
X143064635Y-91831030D01*
X144399000Y-93165395D01*
X145733365Y-91831030D01*
X145650030Y-91664775D01*
X149232803Y-91664775D01*
X149405233Y-92082086D01*
X149724235Y-92401645D01*
X150141244Y-92574803D01*
X150490606Y-92575108D01*
X150521783Y-93015375D01*
X150632783Y-93283352D01*
X150847896Y-93320499D01*
X151458395Y-92710000D01*
X151444253Y-92695858D01*
X151623858Y-92516253D01*
X151638000Y-92530395D01*
X151652143Y-92516253D01*
X151831748Y-92695858D01*
X151817605Y-92710000D01*
X152428104Y-93320499D01*
X152643217Y-93283352D01*
X152665945Y-93215223D01*
X158065035Y-93215223D01*
X158092222Y-93785454D01*
X158258136Y-94186005D01*
X158504255Y-94260139D01*
X159332395Y-93432000D01*
X159691605Y-93432000D01*
X160519745Y-94260139D01*
X160765864Y-94186005D01*
X160958965Y-93648777D01*
X160931778Y-93078546D01*
X160765864Y-92677995D01*
X160519745Y-92603861D01*
X159691605Y-93432000D01*
X159332395Y-93432000D01*
X158504255Y-92603861D01*
X158258136Y-92677995D01*
X158065035Y-93215223D01*
X152665945Y-93215223D01*
X152786112Y-92855028D01*
X152767163Y-92587440D01*
X153408000Y-92587440D01*
X153643317Y-92543162D01*
X153859441Y-92404090D01*
X153913481Y-92325000D01*
X153923995Y-92325000D01*
X153924000Y-92325001D01*
X154250775Y-92260000D01*
X154262675Y-92257633D01*
X154549790Y-92065790D01*
X154798580Y-91817000D01*
X158367829Y-91817000D01*
X158698077Y-92147824D01*
X158764544Y-92175423D01*
X158757995Y-92178136D01*
X158683861Y-92424255D01*
X159512000Y-93252395D01*
X160340139Y-92424255D01*
X160290664Y-92260000D01*
X167512560Y-92260000D01*
X167512560Y-93160000D01*
X167556838Y-93395317D01*
X167695910Y-93611441D01*
X167908110Y-93756431D01*
X168160000Y-93807440D01*
X169660000Y-93807440D01*
X169895317Y-93763162D01*
X170111441Y-93624090D01*
X170256431Y-93411890D01*
X170307440Y-93160000D01*
X170307440Y-92260000D01*
X170263162Y-92024683D01*
X170177442Y-91891471D01*
X170254408Y-91734001D01*
X170127502Y-91567000D01*
X169037000Y-91567000D01*
X169037000Y-91587000D01*
X168783000Y-91587000D01*
X168783000Y-91567000D01*
X167692498Y-91567000D01*
X167565592Y-91734001D01*
X167642853Y-91892075D01*
X167563569Y-92008110D01*
X167512560Y-92260000D01*
X160290664Y-92260000D01*
X160266005Y-92178136D01*
X160259517Y-92175804D01*
X160323800Y-92149243D01*
X160727824Y-91745923D01*
X160946750Y-91218691D01*
X160947248Y-90647813D01*
X160853118Y-90420000D01*
X161559122Y-90420000D01*
X161616012Y-90505142D01*
X162049118Y-90794533D01*
X162560000Y-90896154D01*
X163070882Y-90794533D01*
X163503988Y-90505142D01*
X163793379Y-90072036D01*
X163830000Y-89887930D01*
X163866621Y-90072036D01*
X164156012Y-90505142D01*
X164589118Y-90794533D01*
X165100000Y-90896154D01*
X165610882Y-90794533D01*
X166043988Y-90505142D01*
X166267921Y-90170000D01*
X167497866Y-90170000D01*
X167580457Y-90585212D01*
X167730170Y-90809274D01*
X167565592Y-91145999D01*
X167692498Y-91313000D01*
X168783000Y-91313000D01*
X168783000Y-91293000D01*
X169037000Y-91293000D01*
X169037000Y-91313000D01*
X170127502Y-91313000D01*
X170254408Y-91145999D01*
X170089830Y-90809274D01*
X170239543Y-90585212D01*
X170322134Y-90170000D01*
X170262129Y-89868331D01*
X171427273Y-89868331D01*
X171653236Y-90337663D01*
X172041604Y-90684797D01*
X172386671Y-90827716D01*
X172593000Y-90704374D01*
X172593000Y-89662000D01*
X172847000Y-89662000D01*
X172847000Y-90704374D01*
X173053329Y-90827716D01*
X173398396Y-90684797D01*
X173786764Y-90337663D01*
X174012727Y-89868331D01*
X173890206Y-89662000D01*
X172847000Y-89662000D01*
X172593000Y-89662000D01*
X171549794Y-89662000D01*
X171427273Y-89868331D01*
X170262129Y-89868331D01*
X170239543Y-89754788D01*
X170004345Y-89402789D01*
X169703348Y-89201669D01*
X171427273Y-89201669D01*
X171549794Y-89408000D01*
X172593000Y-89408000D01*
X172593000Y-88365626D01*
X172847000Y-88365626D01*
X172847000Y-89408000D01*
X173890206Y-89408000D01*
X174012727Y-89201669D01*
X173786764Y-88732337D01*
X173398396Y-88385203D01*
X173053329Y-88242284D01*
X172847000Y-88365626D01*
X172593000Y-88365626D01*
X172386671Y-88242284D01*
X172041604Y-88385203D01*
X171653236Y-88732337D01*
X171427273Y-89201669D01*
X169703348Y-89201669D01*
X169652346Y-89167591D01*
X169237134Y-89085000D01*
X168582866Y-89085000D01*
X168167654Y-89167591D01*
X167815655Y-89402789D01*
X167580457Y-89754788D01*
X167497866Y-90170000D01*
X166267921Y-90170000D01*
X166333379Y-90072036D01*
X166435000Y-89561154D01*
X166435000Y-89508846D01*
X166333379Y-88997964D01*
X166043988Y-88564858D01*
X165610882Y-88275467D01*
X165100000Y-88173846D01*
X164589118Y-88275467D01*
X164156012Y-88564858D01*
X163866621Y-88997964D01*
X163830000Y-89182070D01*
X163793379Y-88997964D01*
X163503988Y-88564858D01*
X163070882Y-88275467D01*
X162560000Y-88173846D01*
X162049118Y-88275467D01*
X161616012Y-88564858D01*
X161559122Y-88650000D01*
X152273005Y-88650000D01*
X152273000Y-88649999D01*
X151990516Y-88706190D01*
X151934325Y-88717367D01*
X151647210Y-88909210D01*
X151647208Y-88909213D01*
X150251523Y-90304897D01*
X150143225Y-90304803D01*
X149725914Y-90477233D01*
X149406355Y-90796235D01*
X149233197Y-91213244D01*
X149232803Y-91664775D01*
X145650030Y-91664775D01*
X145573582Y-91512261D01*
X144782813Y-91202277D01*
X143933613Y-91218503D01*
X143224418Y-91512261D01*
X143064635Y-91831030D01*
X141172000Y-91831030D01*
X141172000Y-86765000D01*
X142251560Y-86765000D01*
X142251560Y-89765000D01*
X142295838Y-90000317D01*
X142434910Y-90216441D01*
X142647110Y-90361431D01*
X142899000Y-90412440D01*
X145899000Y-90412440D01*
X146134317Y-90368162D01*
X146350441Y-90229090D01*
X146495431Y-90016890D01*
X146546440Y-89765000D01*
X146546440Y-86765000D01*
X146539999Y-86730765D01*
X150519754Y-86730765D01*
X150806123Y-87423832D01*
X151335919Y-87954553D01*
X152028485Y-88242132D01*
X152778385Y-88242786D01*
X153471452Y-87956417D01*
X154002173Y-87426621D01*
X154289752Y-86734055D01*
X154290406Y-85984155D01*
X154004037Y-85291088D01*
X153474241Y-84760367D01*
X152781675Y-84472788D01*
X152031775Y-84472134D01*
X151338708Y-84758503D01*
X150807987Y-85288299D01*
X150520408Y-85980865D01*
X150519754Y-86730765D01*
X146539999Y-86730765D01*
X146502162Y-86529683D01*
X146363090Y-86313559D01*
X146150890Y-86168569D01*
X145899000Y-86117560D01*
X142899000Y-86117560D01*
X142663683Y-86161838D01*
X142447559Y-86300910D01*
X142302569Y-86513110D01*
X142251560Y-86765000D01*
X141172000Y-86765000D01*
X141172000Y-84403000D01*
X174419799Y-84403000D01*
X173937892Y-84725000D01*
G36*
X142263630Y-98847815D02*
X142587980Y-99632800D01*
X143188041Y-100233909D01*
X143972459Y-100559628D01*
X144821815Y-100560370D01*
X145606800Y-100236020D01*
X145783127Y-100060000D01*
X155529758Y-100060000D01*
X156486878Y-101017119D01*
X156486880Y-101017122D01*
X156837002Y-101251065D01*
X156837002Y-101907866D01*
X156262425Y-102482443D01*
X156016388Y-102850663D01*
X155929991Y-103285009D01*
X155929991Y-106844991D01*
X156016388Y-107279337D01*
X156174290Y-107515654D01*
X156262425Y-107647557D01*
X157367434Y-108752566D01*
X157735654Y-108998603D01*
X158013073Y-109053785D01*
X157954383Y-109093000D01*
X157005617Y-109093000D01*
X156835687Y-108979457D01*
X156210000Y-108855000D01*
X150225000Y-108855000D01*
X150225000Y-107950005D01*
X150225001Y-107950000D01*
X150100543Y-107324313D01*
X150009462Y-107188000D01*
X149746120Y-106793880D01*
X149746117Y-106793878D01*
X149463000Y-106510761D01*
X149463000Y-105156000D01*
X149338543Y-104530313D01*
X148984120Y-103999880D01*
X148453687Y-103645457D01*
X147828000Y-103521000D01*
X146727239Y-103521000D01*
X146534155Y-103327916D01*
X146534370Y-103082185D01*
X146210020Y-102297200D01*
X145609959Y-101696091D01*
X144825541Y-101370372D01*
X143976185Y-101369630D01*
X143191200Y-101693980D01*
X142590091Y-102294041D01*
X142264372Y-103078459D01*
X142263630Y-103927815D01*
X142587980Y-104712800D01*
X143188041Y-105313909D01*
X143850533Y-105589000D01*
X141172000Y-105589000D01*
X141172000Y-98679000D01*
X142263777Y-98679000D01*
X142263630Y-98847815D01*
X142263630Y-98847815D01*
G37*
X142263630Y-98847815D02*
X142587980Y-99632800D01*
X143188041Y-100233909D01*
X143972459Y-100559628D01*
X144821815Y-100560370D01*
X145606800Y-100236020D01*
X145783127Y-100060000D01*
X155529758Y-100060000D01*
X156486878Y-101017119D01*
X156486880Y-101017122D01*
X156837002Y-101251065D01*
X156837002Y-101907866D01*
X156262425Y-102482443D01*
X156016388Y-102850663D01*
X155929991Y-103285009D01*
X155929991Y-106844991D01*
X156016388Y-107279337D01*
X156174290Y-107515654D01*
X156262425Y-107647557D01*
X157367434Y-108752566D01*
X157735654Y-108998603D01*
X158013073Y-109053785D01*
X157954383Y-109093000D01*
X157005617Y-109093000D01*
X156835687Y-108979457D01*
X156210000Y-108855000D01*
X150225000Y-108855000D01*
X150225000Y-107950005D01*
X150225001Y-107950000D01*
X150100543Y-107324313D01*
X150009462Y-107188000D01*
X149746120Y-106793880D01*
X149746117Y-106793878D01*
X149463000Y-106510761D01*
X149463000Y-105156000D01*
X149338543Y-104530313D01*
X148984120Y-103999880D01*
X148453687Y-103645457D01*
X147828000Y-103521000D01*
X146727239Y-103521000D01*
X146534155Y-103327916D01*
X146534370Y-103082185D01*
X146210020Y-102297200D01*
X145609959Y-101696091D01*
X144825541Y-101370372D01*
X143976185Y-101369630D01*
X143191200Y-101693980D01*
X142590091Y-102294041D01*
X142264372Y-103078459D01*
X142263630Y-103927815D01*
X142587980Y-104712800D01*
X143188041Y-105313909D01*
X143850533Y-105589000D01*
X141172000Y-105589000D01*
X141172000Y-98679000D01*
X142263777Y-98679000D01*
X142263630Y-98847815D01*
M02*
