G04 #@! TF.FileFunction,Copper,L1,Top,Signal*
%FSLAX46Y46*%
G04 Gerber Fmt 4.6, Leading zero omitted, Abs format (unit mm)*
G04 Created by KiCad (PCBNEW 4.0.7) date 07/23/18 00:18:48*
%MOMM*%
%LPD*%
G01*
G04 APERTURE LIST*
%ADD10C,0.100000*%
%ADD11C,0.150000*%
%ADD12R,1.600000X1.600000*%
%ADD13C,1.600000*%
%ADD14C,1.000000*%
%ADD15R,1.000000X1.000000*%
%ADD16C,3.000000*%
%ADD17R,3.000000X3.000000*%
%ADD18O,1.600000X1.600000*%
%ADD19O,1.500000X0.900000*%
%ADD20R,1.500000X0.900000*%
%ADD21R,1.500000X1.600000*%
%ADD22R,6.500000X6.700000*%
%ADD23R,3.100000X3.200000*%
%ADD24R,1.700000X1.700000*%
%ADD25O,1.700000X1.700000*%
%ADD26C,1.400000*%
%ADD27O,1.400000X1.400000*%
%ADD28C,0.250000*%
%ADD29C,2.000000*%
%ADD30C,0.500000*%
%ADD31C,1.000000*%
%ADD32C,3.000000*%
%ADD33C,0.254000*%
G04 APERTURE END LIST*
D10*
D11*
X140462000Y-106299000D02*
X140462000Y-83693000D01*
X146685000Y-106299000D02*
X140462000Y-106299000D01*
X146685000Y-112522000D02*
X146685000Y-106299000D01*
X184404000Y-112522000D02*
X146685000Y-112522000D01*
X184404000Y-89916000D02*
X184404000Y-112522000D01*
X178181000Y-89916000D02*
X184404000Y-89916000D01*
X178181000Y-83693000D02*
X178181000Y-89916000D01*
X140462000Y-83693000D02*
X178181000Y-83693000D01*
D12*
X170180000Y-102108000D03*
D13*
X172680000Y-102108000D03*
D14*
X151638000Y-92710000D03*
X150368000Y-91440000D03*
D15*
X152908000Y-91440000D03*
D16*
X144399000Y-93345000D03*
X144399000Y-98425000D03*
D17*
X144399000Y-88265000D03*
D16*
X144399000Y-103505000D03*
D13*
X159512000Y-90932000D03*
X159512000Y-93432000D03*
D12*
X163830000Y-97028000D03*
D18*
X171450000Y-97028000D03*
D12*
X158750000Y-97028000D03*
D18*
X158750000Y-104648000D03*
D16*
X180213000Y-103124000D03*
X180213000Y-98044000D03*
D17*
X180213000Y-108204000D03*
D16*
X180213000Y-92964000D03*
D19*
X168910000Y-91440000D03*
X168910000Y-90170000D03*
D20*
X168910000Y-92710000D03*
D21*
X154940000Y-96240000D03*
X150340000Y-96240000D03*
D22*
X152640000Y-102390000D03*
D23*
X150940000Y-104140000D03*
X154340000Y-100640000D03*
X154340000Y-104140000D03*
X150940000Y-100640000D03*
D24*
X157480000Y-86360000D03*
D25*
X160020000Y-86360000D03*
X162560000Y-86360000D03*
X165100000Y-86360000D03*
X167640000Y-86360000D03*
X170180000Y-86360000D03*
X172720000Y-86360000D03*
X175260000Y-86360000D03*
D24*
X148590000Y-110490000D03*
D25*
X151130000Y-110490000D03*
X153670000Y-110490000D03*
X156210000Y-110490000D03*
X158750000Y-110490000D03*
X161290000Y-110490000D03*
X163830000Y-110490000D03*
X166370000Y-110490000D03*
D24*
X160020000Y-107950000D03*
D25*
X162560000Y-107950000D03*
X165100000Y-107950000D03*
X167640000Y-107950000D03*
D26*
X166370000Y-104521000D03*
D27*
X161290000Y-104521000D03*
D26*
X172720000Y-94615000D03*
D27*
X172720000Y-89535000D03*
D26*
X163830000Y-104521000D03*
D27*
X163830000Y-99441000D03*
D26*
X165100000Y-94615000D03*
D27*
X165100000Y-89535000D03*
D26*
X161290000Y-104521000D03*
D27*
X161290000Y-99441000D03*
D26*
X162560000Y-94615000D03*
D27*
X162560000Y-89535000D03*
D14*
X152654000Y-104190800D03*
X152654000Y-100609400D03*
X154330400Y-102412800D03*
X151003000Y-102438200D03*
X152640000Y-102390000D03*
X150940000Y-100640000D03*
X154340000Y-100640000D03*
X154340000Y-104190000D03*
X150940000Y-104140000D03*
D28*
X158750000Y-97028000D02*
X158750000Y-98078000D01*
X158750000Y-98078000D02*
X156188000Y-100640000D01*
X156188000Y-100640000D02*
X156140000Y-100640000D01*
X156140000Y-100640000D02*
X154340000Y-100640000D01*
D29*
X152889999Y-97028000D02*
X152889999Y-95504000D01*
X152889999Y-95504000D02*
X152889999Y-94399999D01*
D30*
X156699999Y-106549999D02*
X152889999Y-102739999D01*
X152889999Y-102739999D02*
X152889999Y-95504000D01*
X154340000Y-104190000D02*
X154340000Y-104140000D01*
X159261001Y-106549999D02*
X156699999Y-106549999D01*
X156699999Y-106549999D02*
X154340000Y-104190000D01*
D29*
X152889999Y-99189999D02*
X152889999Y-97028000D01*
D30*
X154703200Y-102658600D02*
X152889999Y-100845399D01*
X152889999Y-100845399D02*
X152889999Y-97028000D01*
D31*
X150940000Y-100640000D02*
X150940000Y-100690000D01*
X150940000Y-100690000D02*
X152640000Y-102390000D01*
X154340000Y-100640000D02*
X150940000Y-100640000D01*
X154340000Y-104140000D02*
X154340000Y-100640000D01*
X150940000Y-104140000D02*
X154340000Y-104140000D01*
X152640000Y-102390000D02*
X152640000Y-102440000D01*
X152640000Y-102440000D02*
X150940000Y-104140000D01*
D29*
X152889999Y-94399999D02*
X154948003Y-93639999D01*
X154948003Y-93639999D02*
X153149999Y-94139999D01*
D32*
X157480000Y-86360000D02*
X155208001Y-88631999D01*
X155208001Y-88631999D02*
X155208001Y-93380001D01*
X155208001Y-93380001D02*
X154948003Y-93639999D01*
X150940000Y-100640000D02*
X150940000Y-99040010D01*
X154340000Y-100640000D02*
X154340000Y-99152000D01*
D29*
X170180000Y-102108000D02*
X166116000Y-102108000D01*
X166116000Y-102108000D02*
X163703000Y-102108000D01*
D31*
X166370000Y-104521000D02*
X166370000Y-102362000D01*
X166370000Y-102362000D02*
X166116000Y-102108000D01*
X163830000Y-104521000D02*
X163830000Y-102235000D01*
X163830000Y-102235000D02*
X163703000Y-102108000D01*
D29*
X154340000Y-100640000D02*
X152889999Y-99189999D01*
X180213000Y-98044000D02*
X178713001Y-99543999D01*
X178713001Y-99543999D02*
X178713001Y-100265046D01*
X178713001Y-100265046D02*
X171657036Y-107321011D01*
X171657036Y-107321011D02*
X169471070Y-107321011D01*
X169471070Y-107321011D02*
X168842081Y-107950000D01*
X168842081Y-107950000D02*
X167640000Y-107950000D01*
D30*
X154940000Y-96240000D02*
X156190000Y-96240000D01*
X156190000Y-96240000D02*
X157647999Y-94782001D01*
X161403050Y-94782001D02*
X161570051Y-94615000D01*
X157647999Y-94782001D02*
X161403050Y-94782001D01*
X161570051Y-94615000D02*
X162560000Y-94615000D01*
X161290000Y-99441000D02*
X161290000Y-102108000D01*
X161290000Y-102108000D02*
X158750000Y-104648000D01*
X154940000Y-96290000D02*
X154940000Y-96240000D01*
X161860001Y-95314999D02*
X162560000Y-94615000D01*
X161290000Y-99441000D02*
X161290000Y-95885000D01*
X161290000Y-95885000D02*
X162560000Y-94615000D01*
X163468999Y-105771001D02*
X162560000Y-106680000D01*
X162560000Y-106680000D02*
X162560000Y-107950000D01*
X171261383Y-103458001D02*
X168948383Y-105771001D01*
X168948383Y-105771001D02*
X163468999Y-105771001D01*
X170115001Y-88835001D02*
X165799999Y-88835001D01*
X174030001Y-92750001D02*
X170115001Y-88835001D01*
X165799999Y-88835001D02*
X165100000Y-89535000D01*
X171261383Y-103458001D02*
X173328001Y-103458001D01*
X173328001Y-103458001D02*
X174030001Y-102756001D01*
X174030001Y-102756001D02*
X174030001Y-92750001D01*
X165100000Y-89535000D02*
X162560000Y-89535000D01*
D29*
X150340000Y-96240000D02*
X150340000Y-94206000D01*
X150340000Y-94206000D02*
X144399000Y-88265000D01*
D30*
X168910000Y-90170000D02*
X167660000Y-90170000D01*
X167660000Y-90170000D02*
X166898000Y-90932000D01*
X166898000Y-90932000D02*
X160643370Y-90932000D01*
X160643370Y-90932000D02*
X159512000Y-90932000D01*
X163830000Y-99441000D02*
X163830000Y-97028000D01*
X163830000Y-97028000D02*
X163830000Y-94034998D01*
X163830000Y-94034998D02*
X160727002Y-90932000D01*
X160727002Y-90932000D02*
X160643370Y-90932000D01*
X161290000Y-104521000D02*
X159261001Y-106549999D01*
D29*
X163703000Y-102108000D02*
X161290000Y-104521000D01*
D30*
X171730051Y-94615000D02*
X165100000Y-94615000D01*
X168910000Y-92710000D02*
X169210000Y-92710000D01*
X169210000Y-92710000D02*
X171115000Y-94615000D01*
X171115000Y-94615000D02*
X171730051Y-94615000D01*
X172720000Y-94615000D02*
X171730051Y-94615000D01*
X166370000Y-99441000D02*
X165180001Y-98251001D01*
X165180001Y-98251001D02*
X165180001Y-95684950D01*
X165180001Y-95684950D02*
X165100000Y-95604949D01*
X165100000Y-95604949D02*
X165100000Y-94615000D01*
D33*
G36*
X165989000Y-87950001D02*
X165800004Y-87950001D01*
X165799999Y-87950000D01*
X165461324Y-88017368D01*
X165197971Y-88193334D01*
X165100000Y-88173846D01*
X164641739Y-88265000D01*
X163018261Y-88265000D01*
X162560000Y-88173846D01*
X162101739Y-88265000D01*
X160020000Y-88265000D01*
X159970590Y-88275006D01*
X159928965Y-88303447D01*
X159901685Y-88345841D01*
X159893000Y-88392000D01*
X159893000Y-89536411D01*
X159798691Y-89497250D01*
X159227813Y-89496752D01*
X158700200Y-89714757D01*
X158296176Y-90118077D01*
X158077250Y-90645309D01*
X158076752Y-91216187D01*
X158294757Y-91743800D01*
X158698077Y-92147824D01*
X158779931Y-92181813D01*
X158700200Y-92214757D01*
X158296176Y-92618077D01*
X158077250Y-93145309D01*
X158076752Y-93716187D01*
X158151463Y-93897001D01*
X157648004Y-93897001D01*
X157647999Y-93897000D01*
X157365515Y-93953191D01*
X157309324Y-93964368D01*
X157022209Y-94156211D01*
X157022207Y-94156214D01*
X156168096Y-95010325D01*
X156154090Y-94988559D01*
X155941890Y-94843569D01*
X155690000Y-94792560D01*
X154190000Y-94792560D01*
X153954683Y-94836838D01*
X153738559Y-94975910D01*
X153593569Y-95188110D01*
X153542560Y-95440000D01*
X153542560Y-97040000D01*
X153586838Y-97275317D01*
X153725910Y-97491441D01*
X153938110Y-97636431D01*
X154190000Y-97687440D01*
X155690000Y-97687440D01*
X155925317Y-97643162D01*
X156141441Y-97504090D01*
X156286431Y-97291890D01*
X156325693Y-97098009D01*
X156472484Y-97068810D01*
X156528675Y-97057633D01*
X156815790Y-96865790D01*
X158014578Y-95667001D01*
X159893000Y-95667001D01*
X159893000Y-102253421D01*
X158926438Y-103219983D01*
X158750000Y-103184887D01*
X158200849Y-103294120D01*
X157735302Y-103605189D01*
X157424233Y-104070736D01*
X157315000Y-104619887D01*
X157315000Y-104676113D01*
X157424233Y-105225264D01*
X157735302Y-105690811D01*
X158200849Y-106001880D01*
X158750000Y-106111113D01*
X159299151Y-106001880D01*
X159764698Y-105690811D01*
X159893000Y-105498794D01*
X159893000Y-106452560D01*
X159170000Y-106452560D01*
X158934683Y-106496838D01*
X158847405Y-106553000D01*
X158750000Y-106553000D01*
X158700590Y-106563006D01*
X158658965Y-106591447D01*
X158631685Y-106633841D01*
X158623630Y-106667363D01*
X158611039Y-106793270D01*
X158573569Y-106848110D01*
X158522560Y-107100000D01*
X158522560Y-107678062D01*
X158385525Y-109048406D01*
X158181715Y-109088946D01*
X158175648Y-109093000D01*
X156784352Y-109093000D01*
X156778285Y-109088946D01*
X156210000Y-108975907D01*
X155641715Y-109088946D01*
X155635648Y-109093000D01*
X154244352Y-109093000D01*
X154238285Y-109088946D01*
X153670000Y-108975907D01*
X153101715Y-109088946D01*
X153095648Y-109093000D01*
X151704352Y-109093000D01*
X151698285Y-109088946D01*
X151130000Y-108975907D01*
X150561715Y-109088946D01*
X150555648Y-109093000D01*
X149764235Y-109093000D01*
X149691890Y-109043569D01*
X149440000Y-108992560D01*
X147740000Y-108992560D01*
X147504683Y-109036838D01*
X147417405Y-109093000D01*
X147395000Y-109093000D01*
X147395000Y-106299000D01*
X147340954Y-106027295D01*
X147187046Y-105796954D01*
X146956705Y-105643046D01*
X146685000Y-105589000D01*
X144946140Y-105589000D01*
X145606800Y-105316020D01*
X146207909Y-104715959D01*
X146533628Y-103931541D01*
X146534370Y-103082185D01*
X146210020Y-102297200D01*
X145609959Y-101696091D01*
X144825541Y-101370372D01*
X143976185Y-101369630D01*
X143191200Y-101693980D01*
X142590091Y-102294041D01*
X142264372Y-103078459D01*
X142263630Y-103927815D01*
X142587980Y-104712800D01*
X143188041Y-105313909D01*
X143850533Y-105589000D01*
X141172000Y-105589000D01*
X141172000Y-98847815D01*
X142263630Y-98847815D01*
X142587980Y-99632800D01*
X143188041Y-100233909D01*
X143972459Y-100559628D01*
X144821815Y-100560370D01*
X145606800Y-100236020D01*
X146207909Y-99635959D01*
X146533628Y-98851541D01*
X146534370Y-98002185D01*
X146210020Y-97217200D01*
X145609959Y-96616091D01*
X144825541Y-96290372D01*
X143976185Y-96289630D01*
X143191200Y-96613980D01*
X142590091Y-97214041D01*
X142264372Y-97998459D01*
X142263630Y-98847815D01*
X141172000Y-98847815D01*
X141172000Y-86765000D01*
X142251560Y-86765000D01*
X142251560Y-89765000D01*
X142295838Y-90000317D01*
X142434910Y-90216441D01*
X142647110Y-90361431D01*
X142899000Y-90412440D01*
X144234200Y-90412440D01*
X145178831Y-91357071D01*
X144825541Y-91210372D01*
X143976185Y-91209630D01*
X143191200Y-91533980D01*
X142590091Y-92134041D01*
X142264372Y-92918459D01*
X142263630Y-93767815D01*
X142587980Y-94552800D01*
X143188041Y-95153909D01*
X143972459Y-95479628D01*
X144821815Y-95480370D01*
X145606800Y-95156020D01*
X146207909Y-94555959D01*
X146533628Y-93771541D01*
X146534370Y-92922185D01*
X146386800Y-92565040D01*
X148705000Y-94883239D01*
X148705000Y-96240000D01*
X148829457Y-96865687D01*
X148942560Y-97034958D01*
X148942560Y-97040000D01*
X148986838Y-97275317D01*
X149125910Y-97491441D01*
X149338110Y-97636431D01*
X149590000Y-97687440D01*
X149619872Y-97687440D01*
X149714313Y-97750543D01*
X150340000Y-97875000D01*
X150965687Y-97750543D01*
X151060128Y-97687440D01*
X151090000Y-97687440D01*
X151325317Y-97643162D01*
X151541441Y-97504090D01*
X151686431Y-97291890D01*
X151737440Y-97040000D01*
X151737440Y-97034958D01*
X151850543Y-96865687D01*
X151975000Y-96240000D01*
X151975000Y-94206005D01*
X151975001Y-94206000D01*
X151900160Y-93829750D01*
X152280086Y-93672767D01*
X152599645Y-93353765D01*
X152772803Y-92936756D01*
X152773108Y-92587440D01*
X153408000Y-92587440D01*
X153643317Y-92543162D01*
X153859441Y-92404090D01*
X154004431Y-92191890D01*
X154055440Y-91940000D01*
X154055440Y-90940000D01*
X154011162Y-90704683D01*
X153872090Y-90488559D01*
X153659890Y-90343569D01*
X153408000Y-90292560D01*
X152408000Y-90292560D01*
X152172683Y-90336838D01*
X151956559Y-90475910D01*
X151811569Y-90688110D01*
X151760560Y-90940000D01*
X151760560Y-91575106D01*
X151502883Y-91574881D01*
X151503197Y-91215225D01*
X151330767Y-90797914D01*
X151011765Y-90478355D01*
X150594756Y-90305197D01*
X150143225Y-90304803D01*
X149725914Y-90477233D01*
X149406355Y-90796235D01*
X149358272Y-90912032D01*
X146546440Y-88100200D01*
X146546440Y-86765000D01*
X146539999Y-86730765D01*
X150519754Y-86730765D01*
X150806123Y-87423832D01*
X151335919Y-87954553D01*
X152028485Y-88242132D01*
X152778385Y-88242786D01*
X153471452Y-87956417D01*
X154002173Y-87426621D01*
X154289752Y-86734055D01*
X154290406Y-85984155D01*
X154004037Y-85291088D01*
X153474241Y-84760367D01*
X152781675Y-84472788D01*
X152031775Y-84472134D01*
X151338708Y-84758503D01*
X150807987Y-85288299D01*
X150520408Y-85980865D01*
X150519754Y-86730765D01*
X146539999Y-86730765D01*
X146502162Y-86529683D01*
X146363090Y-86313559D01*
X146150890Y-86168569D01*
X145899000Y-86117560D01*
X142899000Y-86117560D01*
X142663683Y-86161838D01*
X142447559Y-86300910D01*
X142302569Y-86513110D01*
X142251560Y-86765000D01*
X141172000Y-86765000D01*
X141172000Y-84403000D01*
X165989000Y-84403000D01*
X165989000Y-87950001D01*
X165989000Y-87950001D01*
G37*
X165989000Y-87950001D02*
X165800004Y-87950001D01*
X165799999Y-87950000D01*
X165461324Y-88017368D01*
X165197971Y-88193334D01*
X165100000Y-88173846D01*
X164641739Y-88265000D01*
X163018261Y-88265000D01*
X162560000Y-88173846D01*
X162101739Y-88265000D01*
X160020000Y-88265000D01*
X159970590Y-88275006D01*
X159928965Y-88303447D01*
X159901685Y-88345841D01*
X159893000Y-88392000D01*
X159893000Y-89536411D01*
X159798691Y-89497250D01*
X159227813Y-89496752D01*
X158700200Y-89714757D01*
X158296176Y-90118077D01*
X158077250Y-90645309D01*
X158076752Y-91216187D01*
X158294757Y-91743800D01*
X158698077Y-92147824D01*
X158779931Y-92181813D01*
X158700200Y-92214757D01*
X158296176Y-92618077D01*
X158077250Y-93145309D01*
X158076752Y-93716187D01*
X158151463Y-93897001D01*
X157648004Y-93897001D01*
X157647999Y-93897000D01*
X157365515Y-93953191D01*
X157309324Y-93964368D01*
X157022209Y-94156211D01*
X157022207Y-94156214D01*
X156168096Y-95010325D01*
X156154090Y-94988559D01*
X155941890Y-94843569D01*
X155690000Y-94792560D01*
X154190000Y-94792560D01*
X153954683Y-94836838D01*
X153738559Y-94975910D01*
X153593569Y-95188110D01*
X153542560Y-95440000D01*
X153542560Y-97040000D01*
X153586838Y-97275317D01*
X153725910Y-97491441D01*
X153938110Y-97636431D01*
X154190000Y-97687440D01*
X155690000Y-97687440D01*
X155925317Y-97643162D01*
X156141441Y-97504090D01*
X156286431Y-97291890D01*
X156325693Y-97098009D01*
X156472484Y-97068810D01*
X156528675Y-97057633D01*
X156815790Y-96865790D01*
X158014578Y-95667001D01*
X159893000Y-95667001D01*
X159893000Y-102253421D01*
X158926438Y-103219983D01*
X158750000Y-103184887D01*
X158200849Y-103294120D01*
X157735302Y-103605189D01*
X157424233Y-104070736D01*
X157315000Y-104619887D01*
X157315000Y-104676113D01*
X157424233Y-105225264D01*
X157735302Y-105690811D01*
X158200849Y-106001880D01*
X158750000Y-106111113D01*
X159299151Y-106001880D01*
X159764698Y-105690811D01*
X159893000Y-105498794D01*
X159893000Y-106452560D01*
X159170000Y-106452560D01*
X158934683Y-106496838D01*
X158847405Y-106553000D01*
X158750000Y-106553000D01*
X158700590Y-106563006D01*
X158658965Y-106591447D01*
X158631685Y-106633841D01*
X158623630Y-106667363D01*
X158611039Y-106793270D01*
X158573569Y-106848110D01*
X158522560Y-107100000D01*
X158522560Y-107678062D01*
X158385525Y-109048406D01*
X158181715Y-109088946D01*
X158175648Y-109093000D01*
X156784352Y-109093000D01*
X156778285Y-109088946D01*
X156210000Y-108975907D01*
X155641715Y-109088946D01*
X155635648Y-109093000D01*
X154244352Y-109093000D01*
X154238285Y-109088946D01*
X153670000Y-108975907D01*
X153101715Y-109088946D01*
X153095648Y-109093000D01*
X151704352Y-109093000D01*
X151698285Y-109088946D01*
X151130000Y-108975907D01*
X150561715Y-109088946D01*
X150555648Y-109093000D01*
X149764235Y-109093000D01*
X149691890Y-109043569D01*
X149440000Y-108992560D01*
X147740000Y-108992560D01*
X147504683Y-109036838D01*
X147417405Y-109093000D01*
X147395000Y-109093000D01*
X147395000Y-106299000D01*
X147340954Y-106027295D01*
X147187046Y-105796954D01*
X146956705Y-105643046D01*
X146685000Y-105589000D01*
X144946140Y-105589000D01*
X145606800Y-105316020D01*
X146207909Y-104715959D01*
X146533628Y-103931541D01*
X146534370Y-103082185D01*
X146210020Y-102297200D01*
X145609959Y-101696091D01*
X144825541Y-101370372D01*
X143976185Y-101369630D01*
X143191200Y-101693980D01*
X142590091Y-102294041D01*
X142264372Y-103078459D01*
X142263630Y-103927815D01*
X142587980Y-104712800D01*
X143188041Y-105313909D01*
X143850533Y-105589000D01*
X141172000Y-105589000D01*
X141172000Y-98847815D01*
X142263630Y-98847815D01*
X142587980Y-99632800D01*
X143188041Y-100233909D01*
X143972459Y-100559628D01*
X144821815Y-100560370D01*
X145606800Y-100236020D01*
X146207909Y-99635959D01*
X146533628Y-98851541D01*
X146534370Y-98002185D01*
X146210020Y-97217200D01*
X145609959Y-96616091D01*
X144825541Y-96290372D01*
X143976185Y-96289630D01*
X143191200Y-96613980D01*
X142590091Y-97214041D01*
X142264372Y-97998459D01*
X142263630Y-98847815D01*
X141172000Y-98847815D01*
X141172000Y-86765000D01*
X142251560Y-86765000D01*
X142251560Y-89765000D01*
X142295838Y-90000317D01*
X142434910Y-90216441D01*
X142647110Y-90361431D01*
X142899000Y-90412440D01*
X144234200Y-90412440D01*
X145178831Y-91357071D01*
X144825541Y-91210372D01*
X143976185Y-91209630D01*
X143191200Y-91533980D01*
X142590091Y-92134041D01*
X142264372Y-92918459D01*
X142263630Y-93767815D01*
X142587980Y-94552800D01*
X143188041Y-95153909D01*
X143972459Y-95479628D01*
X144821815Y-95480370D01*
X145606800Y-95156020D01*
X146207909Y-94555959D01*
X146533628Y-93771541D01*
X146534370Y-92922185D01*
X146386800Y-92565040D01*
X148705000Y-94883239D01*
X148705000Y-96240000D01*
X148829457Y-96865687D01*
X148942560Y-97034958D01*
X148942560Y-97040000D01*
X148986838Y-97275317D01*
X149125910Y-97491441D01*
X149338110Y-97636431D01*
X149590000Y-97687440D01*
X149619872Y-97687440D01*
X149714313Y-97750543D01*
X150340000Y-97875000D01*
X150965687Y-97750543D01*
X151060128Y-97687440D01*
X151090000Y-97687440D01*
X151325317Y-97643162D01*
X151541441Y-97504090D01*
X151686431Y-97291890D01*
X151737440Y-97040000D01*
X151737440Y-97034958D01*
X151850543Y-96865687D01*
X151975000Y-96240000D01*
X151975000Y-94206005D01*
X151975001Y-94206000D01*
X151900160Y-93829750D01*
X152280086Y-93672767D01*
X152599645Y-93353765D01*
X152772803Y-92936756D01*
X152773108Y-92587440D01*
X153408000Y-92587440D01*
X153643317Y-92543162D01*
X153859441Y-92404090D01*
X154004431Y-92191890D01*
X154055440Y-91940000D01*
X154055440Y-90940000D01*
X154011162Y-90704683D01*
X153872090Y-90488559D01*
X153659890Y-90343569D01*
X153408000Y-90292560D01*
X152408000Y-90292560D01*
X152172683Y-90336838D01*
X151956559Y-90475910D01*
X151811569Y-90688110D01*
X151760560Y-90940000D01*
X151760560Y-91575106D01*
X151502883Y-91574881D01*
X151503197Y-91215225D01*
X151330767Y-90797914D01*
X151011765Y-90478355D01*
X150594756Y-90305197D01*
X150143225Y-90304803D01*
X149725914Y-90477233D01*
X149406355Y-90796235D01*
X149358272Y-90912032D01*
X146546440Y-88100200D01*
X146546440Y-86765000D01*
X146539999Y-86730765D01*
X150519754Y-86730765D01*
X150806123Y-87423832D01*
X151335919Y-87954553D01*
X152028485Y-88242132D01*
X152778385Y-88242786D01*
X153471452Y-87956417D01*
X154002173Y-87426621D01*
X154289752Y-86734055D01*
X154290406Y-85984155D01*
X154004037Y-85291088D01*
X153474241Y-84760367D01*
X152781675Y-84472788D01*
X152031775Y-84472134D01*
X151338708Y-84758503D01*
X150807987Y-85288299D01*
X150520408Y-85980865D01*
X150519754Y-86730765D01*
X146539999Y-86730765D01*
X146502162Y-86529683D01*
X146363090Y-86313559D01*
X146150890Y-86168569D01*
X145899000Y-86117560D01*
X142899000Y-86117560D01*
X142663683Y-86161838D01*
X142447559Y-86300910D01*
X142302569Y-86513110D01*
X142251560Y-86765000D01*
X141172000Y-86765000D01*
X141172000Y-84403000D01*
X165989000Y-84403000D01*
X165989000Y-87950001D01*
G36*
X177471000Y-89916000D02*
X177525046Y-90187705D01*
X177678954Y-90418046D01*
X177909295Y-90571954D01*
X178181000Y-90626000D01*
X183694000Y-90626000D01*
X183694000Y-94869000D01*
X181213128Y-94869000D01*
X181387582Y-94796739D01*
X181547365Y-94477970D01*
X180213000Y-93143605D01*
X178878635Y-94477970D01*
X179038418Y-94796739D01*
X179222756Y-94869000D01*
X174915001Y-94869000D01*
X174915001Y-92750006D01*
X174915002Y-92750001D01*
X174881224Y-92580187D01*
X178070277Y-92580187D01*
X178086503Y-93429387D01*
X178380261Y-94138582D01*
X178699030Y-94298365D01*
X180033395Y-92964000D01*
X180392605Y-92964000D01*
X181726970Y-94298365D01*
X182045739Y-94138582D01*
X182355723Y-93347813D01*
X182339497Y-92498613D01*
X182045739Y-91789418D01*
X181726970Y-91629635D01*
X180392605Y-92964000D01*
X180033395Y-92964000D01*
X178699030Y-91629635D01*
X178380261Y-91789418D01*
X178070277Y-92580187D01*
X174881224Y-92580187D01*
X174879000Y-92569010D01*
X174879000Y-91450030D01*
X178878635Y-91450030D01*
X180213000Y-92784395D01*
X181547365Y-91450030D01*
X181387582Y-91131261D01*
X180596813Y-90821277D01*
X179747613Y-90837503D01*
X179038418Y-91131261D01*
X178878635Y-91450030D01*
X174879000Y-91450030D01*
X174879000Y-88392000D01*
X174868994Y-88342590D01*
X174840553Y-88300965D01*
X174798159Y-88273685D01*
X174752000Y-88265000D01*
X173178261Y-88265000D01*
X172720000Y-88173846D01*
X172261739Y-88265000D01*
X170796580Y-88265000D01*
X170740791Y-88209211D01*
X170687863Y-88173846D01*
X170453676Y-88017368D01*
X170397485Y-88006191D01*
X170115001Y-87950000D01*
X170114996Y-87950001D01*
X166751000Y-87950001D01*
X166751000Y-87520393D01*
X166873076Y-87631645D01*
X167283110Y-87801476D01*
X167513000Y-87680155D01*
X167513000Y-86487000D01*
X167767000Y-86487000D01*
X167767000Y-87680155D01*
X167996890Y-87801476D01*
X168406924Y-87631645D01*
X168835183Y-87241358D01*
X168910000Y-87082046D01*
X168984817Y-87241358D01*
X169413076Y-87631645D01*
X169823110Y-87801476D01*
X170053000Y-87680155D01*
X170053000Y-86487000D01*
X170307000Y-86487000D01*
X170307000Y-87680155D01*
X170536890Y-87801476D01*
X170946924Y-87631645D01*
X171375183Y-87241358D01*
X171450000Y-87082046D01*
X171524817Y-87241358D01*
X171953076Y-87631645D01*
X172363110Y-87801476D01*
X172593000Y-87680155D01*
X172593000Y-86487000D01*
X172847000Y-86487000D01*
X172847000Y-87680155D01*
X173076890Y-87801476D01*
X173486924Y-87631645D01*
X173915183Y-87241358D01*
X173990000Y-87082046D01*
X174064817Y-87241358D01*
X174493076Y-87631645D01*
X174903110Y-87801476D01*
X175133000Y-87680155D01*
X175133000Y-86487000D01*
X175387000Y-86487000D01*
X175387000Y-87680155D01*
X175616890Y-87801476D01*
X176026924Y-87631645D01*
X176455183Y-87241358D01*
X176701486Y-86716892D01*
X176580819Y-86487000D01*
X175387000Y-86487000D01*
X175133000Y-86487000D01*
X172847000Y-86487000D01*
X172593000Y-86487000D01*
X170307000Y-86487000D01*
X170053000Y-86487000D01*
X167767000Y-86487000D01*
X167513000Y-86487000D01*
X167493000Y-86487000D01*
X167493000Y-86233000D01*
X167513000Y-86233000D01*
X167513000Y-85039845D01*
X167767000Y-85039845D01*
X167767000Y-86233000D01*
X170053000Y-86233000D01*
X170053000Y-85039845D01*
X170307000Y-85039845D01*
X170307000Y-86233000D01*
X172593000Y-86233000D01*
X172593000Y-85039845D01*
X172847000Y-85039845D01*
X172847000Y-86233000D01*
X175133000Y-86233000D01*
X175133000Y-85039845D01*
X175387000Y-85039845D01*
X175387000Y-86233000D01*
X176580819Y-86233000D01*
X176701486Y-86003108D01*
X176455183Y-85478642D01*
X176026924Y-85088355D01*
X175616890Y-84918524D01*
X175387000Y-85039845D01*
X175133000Y-85039845D01*
X174903110Y-84918524D01*
X174493076Y-85088355D01*
X174064817Y-85478642D01*
X173990000Y-85637954D01*
X173915183Y-85478642D01*
X173486924Y-85088355D01*
X173076890Y-84918524D01*
X172847000Y-85039845D01*
X172593000Y-85039845D01*
X172363110Y-84918524D01*
X171953076Y-85088355D01*
X171524817Y-85478642D01*
X171450000Y-85637954D01*
X171375183Y-85478642D01*
X170946924Y-85088355D01*
X170536890Y-84918524D01*
X170307000Y-85039845D01*
X170053000Y-85039845D01*
X169823110Y-84918524D01*
X169413076Y-85088355D01*
X168984817Y-85478642D01*
X168910000Y-85637954D01*
X168835183Y-85478642D01*
X168406924Y-85088355D01*
X167996890Y-84918524D01*
X167767000Y-85039845D01*
X167513000Y-85039845D01*
X167283110Y-84918524D01*
X166873076Y-85088355D01*
X166751000Y-85199607D01*
X166751000Y-84403000D01*
X177471000Y-84403000D01*
X177471000Y-89916000D01*
X177471000Y-89916000D01*
G37*
X177471000Y-89916000D02*
X177525046Y-90187705D01*
X177678954Y-90418046D01*
X177909295Y-90571954D01*
X178181000Y-90626000D01*
X183694000Y-90626000D01*
X183694000Y-94869000D01*
X181213128Y-94869000D01*
X181387582Y-94796739D01*
X181547365Y-94477970D01*
X180213000Y-93143605D01*
X178878635Y-94477970D01*
X179038418Y-94796739D01*
X179222756Y-94869000D01*
X174915001Y-94869000D01*
X174915001Y-92750006D01*
X174915002Y-92750001D01*
X174881224Y-92580187D01*
X178070277Y-92580187D01*
X178086503Y-93429387D01*
X178380261Y-94138582D01*
X178699030Y-94298365D01*
X180033395Y-92964000D01*
X180392605Y-92964000D01*
X181726970Y-94298365D01*
X182045739Y-94138582D01*
X182355723Y-93347813D01*
X182339497Y-92498613D01*
X182045739Y-91789418D01*
X181726970Y-91629635D01*
X180392605Y-92964000D01*
X180033395Y-92964000D01*
X178699030Y-91629635D01*
X178380261Y-91789418D01*
X178070277Y-92580187D01*
X174881224Y-92580187D01*
X174879000Y-92569010D01*
X174879000Y-91450030D01*
X178878635Y-91450030D01*
X180213000Y-92784395D01*
X181547365Y-91450030D01*
X181387582Y-91131261D01*
X180596813Y-90821277D01*
X179747613Y-90837503D01*
X179038418Y-91131261D01*
X178878635Y-91450030D01*
X174879000Y-91450030D01*
X174879000Y-88392000D01*
X174868994Y-88342590D01*
X174840553Y-88300965D01*
X174798159Y-88273685D01*
X174752000Y-88265000D01*
X173178261Y-88265000D01*
X172720000Y-88173846D01*
X172261739Y-88265000D01*
X170796580Y-88265000D01*
X170740791Y-88209211D01*
X170687863Y-88173846D01*
X170453676Y-88017368D01*
X170397485Y-88006191D01*
X170115001Y-87950000D01*
X170114996Y-87950001D01*
X166751000Y-87950001D01*
X166751000Y-87520393D01*
X166873076Y-87631645D01*
X167283110Y-87801476D01*
X167513000Y-87680155D01*
X167513000Y-86487000D01*
X167767000Y-86487000D01*
X167767000Y-87680155D01*
X167996890Y-87801476D01*
X168406924Y-87631645D01*
X168835183Y-87241358D01*
X168910000Y-87082046D01*
X168984817Y-87241358D01*
X169413076Y-87631645D01*
X169823110Y-87801476D01*
X170053000Y-87680155D01*
X170053000Y-86487000D01*
X170307000Y-86487000D01*
X170307000Y-87680155D01*
X170536890Y-87801476D01*
X170946924Y-87631645D01*
X171375183Y-87241358D01*
X171450000Y-87082046D01*
X171524817Y-87241358D01*
X171953076Y-87631645D01*
X172363110Y-87801476D01*
X172593000Y-87680155D01*
X172593000Y-86487000D01*
X172847000Y-86487000D01*
X172847000Y-87680155D01*
X173076890Y-87801476D01*
X173486924Y-87631645D01*
X173915183Y-87241358D01*
X173990000Y-87082046D01*
X174064817Y-87241358D01*
X174493076Y-87631645D01*
X174903110Y-87801476D01*
X175133000Y-87680155D01*
X175133000Y-86487000D01*
X175387000Y-86487000D01*
X175387000Y-87680155D01*
X175616890Y-87801476D01*
X176026924Y-87631645D01*
X176455183Y-87241358D01*
X176701486Y-86716892D01*
X176580819Y-86487000D01*
X175387000Y-86487000D01*
X175133000Y-86487000D01*
X172847000Y-86487000D01*
X172593000Y-86487000D01*
X170307000Y-86487000D01*
X170053000Y-86487000D01*
X167767000Y-86487000D01*
X167513000Y-86487000D01*
X167493000Y-86487000D01*
X167493000Y-86233000D01*
X167513000Y-86233000D01*
X167513000Y-85039845D01*
X167767000Y-85039845D01*
X167767000Y-86233000D01*
X170053000Y-86233000D01*
X170053000Y-85039845D01*
X170307000Y-85039845D01*
X170307000Y-86233000D01*
X172593000Y-86233000D01*
X172593000Y-85039845D01*
X172847000Y-85039845D01*
X172847000Y-86233000D01*
X175133000Y-86233000D01*
X175133000Y-85039845D01*
X175387000Y-85039845D01*
X175387000Y-86233000D01*
X176580819Y-86233000D01*
X176701486Y-86003108D01*
X176455183Y-85478642D01*
X176026924Y-85088355D01*
X175616890Y-84918524D01*
X175387000Y-85039845D01*
X175133000Y-85039845D01*
X174903110Y-84918524D01*
X174493076Y-85088355D01*
X174064817Y-85478642D01*
X173990000Y-85637954D01*
X173915183Y-85478642D01*
X173486924Y-85088355D01*
X173076890Y-84918524D01*
X172847000Y-85039845D01*
X172593000Y-85039845D01*
X172363110Y-84918524D01*
X171953076Y-85088355D01*
X171524817Y-85478642D01*
X171450000Y-85637954D01*
X171375183Y-85478642D01*
X170946924Y-85088355D01*
X170536890Y-84918524D01*
X170307000Y-85039845D01*
X170053000Y-85039845D01*
X169823110Y-84918524D01*
X169413076Y-85088355D01*
X168984817Y-85478642D01*
X168910000Y-85637954D01*
X168835183Y-85478642D01*
X168406924Y-85088355D01*
X167996890Y-84918524D01*
X167767000Y-85039845D01*
X167513000Y-85039845D01*
X167283110Y-84918524D01*
X166873076Y-85088355D01*
X166751000Y-85199607D01*
X166751000Y-84403000D01*
X177471000Y-84403000D01*
X177471000Y-89916000D01*
M02*
