G04 #@! TF.FileFunction,Legend,Top*
%FSLAX46Y46*%
G04 Gerber Fmt 4.6, Leading zero omitted, Abs format (unit mm)*
G04 Created by KiCad (PCBNEW 4.0.7) date 07/23/18 00:18:49*
%MOMM*%
%LPD*%
G01*
G04 APERTURE LIST*
%ADD10C,0.100000*%
%ADD11C,0.150000*%
%ADD12C,0.300000*%
%ADD13C,0.120000*%
G04 APERTURE END LIST*
D10*
D11*
X140462000Y-106299000D02*
X140462000Y-83693000D01*
X146685000Y-106299000D02*
X140462000Y-106299000D01*
X146685000Y-112522000D02*
X146685000Y-106299000D01*
X184404000Y-112522000D02*
X146685000Y-112522000D01*
X184404000Y-89916000D02*
X184404000Y-112522000D01*
X178181000Y-89916000D02*
X184404000Y-89916000D01*
X178181000Y-83693000D02*
X178181000Y-89916000D01*
X140462000Y-83693000D02*
X178181000Y-83693000D01*
D12*
X147885476Y-103026524D02*
X147885476Y-102788429D01*
X147825952Y-102669381D01*
X147766429Y-102609857D01*
X147587857Y-102490810D01*
X147349762Y-102431286D01*
X146873571Y-102431286D01*
X146754524Y-102490810D01*
X146695000Y-102550334D01*
X146635476Y-102669381D01*
X146635476Y-102907477D01*
X146695000Y-103026524D01*
X146754524Y-103086048D01*
X146873571Y-103145572D01*
X147171190Y-103145572D01*
X147290238Y-103086048D01*
X147349762Y-103026524D01*
X147409286Y-102907477D01*
X147409286Y-102669381D01*
X147349762Y-102550334D01*
X147290238Y-102490810D01*
X147171190Y-102431286D01*
X146635476Y-102074143D02*
X147885476Y-101657477D01*
X146635476Y-101240810D01*
X147528333Y-100883667D02*
X147528333Y-100288429D01*
X147885476Y-101002714D02*
X146635476Y-100586048D01*
X147885476Y-100169381D01*
X147766429Y-99038428D02*
X147825952Y-99097952D01*
X147885476Y-99276523D01*
X147885476Y-99395571D01*
X147825952Y-99574143D01*
X147706905Y-99693190D01*
X147587857Y-99752714D01*
X147349762Y-99812238D01*
X147171190Y-99812238D01*
X146933095Y-99752714D01*
X146814048Y-99693190D01*
X146695000Y-99574143D01*
X146635476Y-99395571D01*
X146635476Y-99276523D01*
X146695000Y-99097952D01*
X146754524Y-99038428D01*
X146695000Y-94297381D02*
X146635476Y-94416429D01*
X146635476Y-94595000D01*
X146695000Y-94773572D01*
X146814048Y-94892619D01*
X146933095Y-94952143D01*
X147171190Y-95011667D01*
X147349762Y-95011667D01*
X147587857Y-94952143D01*
X147706905Y-94892619D01*
X147825952Y-94773572D01*
X147885476Y-94595000D01*
X147885476Y-94475952D01*
X147825952Y-94297381D01*
X147766429Y-94237857D01*
X147349762Y-94237857D01*
X147349762Y-94475952D01*
X147885476Y-93702143D02*
X146635476Y-93702143D01*
X147885476Y-92987857D01*
X146635476Y-92987857D01*
X147885476Y-92392619D02*
X146635476Y-92392619D01*
X146635476Y-92095000D01*
X146695000Y-91916428D01*
X146814048Y-91797381D01*
X146933095Y-91737857D01*
X147171190Y-91678333D01*
X147349762Y-91678333D01*
X147587857Y-91737857D01*
X147706905Y-91797381D01*
X147825952Y-91916428D01*
X147885476Y-92095000D01*
X147885476Y-92392619D01*
X146635476Y-88503095D02*
X146635476Y-89098333D01*
X147230714Y-89157857D01*
X147171190Y-89098333D01*
X147111667Y-88979285D01*
X147111667Y-88681666D01*
X147171190Y-88562619D01*
X147230714Y-88503095D01*
X147349762Y-88443571D01*
X147647381Y-88443571D01*
X147766429Y-88503095D01*
X147825952Y-88562619D01*
X147885476Y-88681666D01*
X147885476Y-88979285D01*
X147825952Y-89098333D01*
X147766429Y-89157857D01*
X146635476Y-88086428D02*
X147885476Y-87669762D01*
X146635476Y-87253095D01*
X147852000Y-106366571D02*
X148137714Y-106366571D01*
X148280572Y-106438000D01*
X148423429Y-106580857D01*
X148494857Y-106866571D01*
X148494857Y-107366571D01*
X148423429Y-107652286D01*
X148280572Y-107795143D01*
X148137714Y-107866571D01*
X147852000Y-107866571D01*
X147709143Y-107795143D01*
X147566286Y-107652286D01*
X147494857Y-107366571D01*
X147494857Y-106866571D01*
X147566286Y-106580857D01*
X147709143Y-106438000D01*
X147852000Y-106366571D01*
X149137715Y-106366571D02*
X149137715Y-107580857D01*
X149209143Y-107723714D01*
X149280572Y-107795143D01*
X149423429Y-107866571D01*
X149709143Y-107866571D01*
X149852001Y-107795143D01*
X149923429Y-107723714D01*
X149994858Y-107580857D01*
X149994858Y-106366571D01*
X150494858Y-106366571D02*
X151352001Y-106366571D01*
X150923430Y-107866571D02*
X150923430Y-106366571D01*
X174220286Y-106723571D02*
X174220286Y-105223571D01*
X174934572Y-106723571D02*
X174934572Y-105223571D01*
X175791715Y-106723571D01*
X175791715Y-105223571D01*
X176726524Y-103348476D02*
X176726524Y-103586571D01*
X176786048Y-103705619D01*
X176845571Y-103765143D01*
X177024143Y-103884190D01*
X177262238Y-103943714D01*
X177738429Y-103943714D01*
X177857476Y-103884190D01*
X177917000Y-103824666D01*
X177976524Y-103705619D01*
X177976524Y-103467523D01*
X177917000Y-103348476D01*
X177857476Y-103288952D01*
X177738429Y-103229428D01*
X177440810Y-103229428D01*
X177321762Y-103288952D01*
X177262238Y-103348476D01*
X177202714Y-103467523D01*
X177202714Y-103705619D01*
X177262238Y-103824666D01*
X177321762Y-103884190D01*
X177440810Y-103943714D01*
X177976524Y-104300857D02*
X176726524Y-104717523D01*
X177976524Y-105134190D01*
X177083667Y-105491333D02*
X177083667Y-106086571D01*
X176726524Y-105372286D02*
X177976524Y-105788952D01*
X176726524Y-106205619D01*
X176845571Y-107336572D02*
X176786048Y-107277048D01*
X176726524Y-107098477D01*
X176726524Y-106979429D01*
X176786048Y-106800857D01*
X176905095Y-106681810D01*
X177024143Y-106622286D01*
X177262238Y-106562762D01*
X177440810Y-106562762D01*
X177678905Y-106622286D01*
X177797952Y-106681810D01*
X177917000Y-106800857D01*
X177976524Y-106979429D01*
X177976524Y-107098477D01*
X177917000Y-107277048D01*
X177857476Y-107336572D01*
X177917000Y-96964619D02*
X177976524Y-96845571D01*
X177976524Y-96667000D01*
X177917000Y-96488428D01*
X177797952Y-96369381D01*
X177678905Y-96309857D01*
X177440810Y-96250333D01*
X177262238Y-96250333D01*
X177024143Y-96309857D01*
X176905095Y-96369381D01*
X176786048Y-96488428D01*
X176726524Y-96667000D01*
X176726524Y-96786048D01*
X176786048Y-96964619D01*
X176845571Y-97024143D01*
X177262238Y-97024143D01*
X177262238Y-96786048D01*
X176726524Y-97559857D02*
X177976524Y-97559857D01*
X176726524Y-98274143D01*
X177976524Y-98274143D01*
X176726524Y-98869381D02*
X177976524Y-98869381D01*
X177976524Y-99167000D01*
X177917000Y-99345572D01*
X177797952Y-99464619D01*
X177678905Y-99524143D01*
X177440810Y-99583667D01*
X177262238Y-99583667D01*
X177024143Y-99524143D01*
X176905095Y-99464619D01*
X176786048Y-99345572D01*
X176726524Y-99167000D01*
X176726524Y-98869381D01*
X177976524Y-92725905D02*
X177976524Y-92130667D01*
X177381286Y-92071143D01*
X177440810Y-92130667D01*
X177500333Y-92249715D01*
X177500333Y-92547334D01*
X177440810Y-92666381D01*
X177381286Y-92725905D01*
X177262238Y-92785429D01*
X176964619Y-92785429D01*
X176845571Y-92725905D01*
X176786048Y-92666381D01*
X176726524Y-92547334D01*
X176726524Y-92249715D01*
X176786048Y-92130667D01*
X176845571Y-92071143D01*
X177976524Y-93142572D02*
X176726524Y-93559238D01*
X177976524Y-93975905D01*
D13*
X174447820Y-100928864D02*
G75*
G03X168412518Y-100928000I-3017820J-1179136D01*
G01*
X174447820Y-103287136D02*
G75*
G02X168412518Y-103288000I-3017820J1179136D01*
G01*
X174447820Y-103287136D02*
G75*
G03X174447482Y-100928000I-3017820J1179136D01*
G01*
X171430000Y-98908000D02*
X171430000Y-105308000D01*
X171470000Y-98908000D02*
X171470000Y-105308000D01*
X171510000Y-98908000D02*
X171510000Y-105308000D01*
X171550000Y-98910000D02*
X171550000Y-105306000D01*
X171590000Y-98911000D02*
X171590000Y-105305000D01*
X171630000Y-98914000D02*
X171630000Y-105302000D01*
X171670000Y-98916000D02*
X171670000Y-105300000D01*
X171710000Y-98920000D02*
X171710000Y-101128000D01*
X171710000Y-103088000D02*
X171710000Y-105296000D01*
X171750000Y-98923000D02*
X171750000Y-101128000D01*
X171750000Y-103088000D02*
X171750000Y-105293000D01*
X171790000Y-98928000D02*
X171790000Y-101128000D01*
X171790000Y-103088000D02*
X171790000Y-105288000D01*
X171830000Y-98932000D02*
X171830000Y-101128000D01*
X171830000Y-103088000D02*
X171830000Y-105284000D01*
X171870000Y-98938000D02*
X171870000Y-101128000D01*
X171870000Y-103088000D02*
X171870000Y-105278000D01*
X171910000Y-98943000D02*
X171910000Y-101128000D01*
X171910000Y-103088000D02*
X171910000Y-105273000D01*
X171950000Y-98950000D02*
X171950000Y-101128000D01*
X171950000Y-103088000D02*
X171950000Y-105266000D01*
X171990000Y-98956000D02*
X171990000Y-101128000D01*
X171990000Y-103088000D02*
X171990000Y-105260000D01*
X172030000Y-98964000D02*
X172030000Y-101128000D01*
X172030000Y-103088000D02*
X172030000Y-105252000D01*
X172070000Y-98971000D02*
X172070000Y-101128000D01*
X172070000Y-103088000D02*
X172070000Y-105245000D01*
X172110000Y-98980000D02*
X172110000Y-101128000D01*
X172110000Y-103088000D02*
X172110000Y-105236000D01*
X172151000Y-98989000D02*
X172151000Y-101128000D01*
X172151000Y-103088000D02*
X172151000Y-105227000D01*
X172191000Y-98998000D02*
X172191000Y-101128000D01*
X172191000Y-103088000D02*
X172191000Y-105218000D01*
X172231000Y-99008000D02*
X172231000Y-101128000D01*
X172231000Y-103088000D02*
X172231000Y-105208000D01*
X172271000Y-99018000D02*
X172271000Y-101128000D01*
X172271000Y-103088000D02*
X172271000Y-105198000D01*
X172311000Y-99029000D02*
X172311000Y-101128000D01*
X172311000Y-103088000D02*
X172311000Y-105187000D01*
X172351000Y-99041000D02*
X172351000Y-101128000D01*
X172351000Y-103088000D02*
X172351000Y-105175000D01*
X172391000Y-99053000D02*
X172391000Y-101128000D01*
X172391000Y-103088000D02*
X172391000Y-105163000D01*
X172431000Y-99066000D02*
X172431000Y-101128000D01*
X172431000Y-103088000D02*
X172431000Y-105150000D01*
X172471000Y-99079000D02*
X172471000Y-101128000D01*
X172471000Y-103088000D02*
X172471000Y-105137000D01*
X172511000Y-99093000D02*
X172511000Y-101128000D01*
X172511000Y-103088000D02*
X172511000Y-105123000D01*
X172551000Y-99107000D02*
X172551000Y-101128000D01*
X172551000Y-103088000D02*
X172551000Y-105109000D01*
X172591000Y-99122000D02*
X172591000Y-101128000D01*
X172591000Y-103088000D02*
X172591000Y-105094000D01*
X172631000Y-99138000D02*
X172631000Y-101128000D01*
X172631000Y-103088000D02*
X172631000Y-105078000D01*
X172671000Y-99154000D02*
X172671000Y-101128000D01*
X172671000Y-103088000D02*
X172671000Y-105062000D01*
X172711000Y-99171000D02*
X172711000Y-101128000D01*
X172711000Y-103088000D02*
X172711000Y-105045000D01*
X172751000Y-99189000D02*
X172751000Y-101128000D01*
X172751000Y-103088000D02*
X172751000Y-105027000D01*
X172791000Y-99207000D02*
X172791000Y-101128000D01*
X172791000Y-103088000D02*
X172791000Y-105009000D01*
X172831000Y-99226000D02*
X172831000Y-101128000D01*
X172831000Y-103088000D02*
X172831000Y-104990000D01*
X172871000Y-99245000D02*
X172871000Y-101128000D01*
X172871000Y-103088000D02*
X172871000Y-104971000D01*
X172911000Y-99265000D02*
X172911000Y-101128000D01*
X172911000Y-103088000D02*
X172911000Y-104951000D01*
X172951000Y-99286000D02*
X172951000Y-101128000D01*
X172951000Y-103088000D02*
X172951000Y-104930000D01*
X172991000Y-99308000D02*
X172991000Y-101128000D01*
X172991000Y-103088000D02*
X172991000Y-104908000D01*
X173031000Y-99330000D02*
X173031000Y-101128000D01*
X173031000Y-103088000D02*
X173031000Y-104886000D01*
X173071000Y-99353000D02*
X173071000Y-101128000D01*
X173071000Y-103088000D02*
X173071000Y-104863000D01*
X173111000Y-99377000D02*
X173111000Y-101128000D01*
X173111000Y-103088000D02*
X173111000Y-104839000D01*
X173151000Y-99402000D02*
X173151000Y-101128000D01*
X173151000Y-103088000D02*
X173151000Y-104814000D01*
X173191000Y-99427000D02*
X173191000Y-101128000D01*
X173191000Y-103088000D02*
X173191000Y-104789000D01*
X173231000Y-99454000D02*
X173231000Y-101128000D01*
X173231000Y-103088000D02*
X173231000Y-104762000D01*
X173271000Y-99481000D02*
X173271000Y-101128000D01*
X173271000Y-103088000D02*
X173271000Y-104735000D01*
X173311000Y-99509000D02*
X173311000Y-101128000D01*
X173311000Y-103088000D02*
X173311000Y-104707000D01*
X173351000Y-99538000D02*
X173351000Y-101128000D01*
X173351000Y-103088000D02*
X173351000Y-104678000D01*
X173391000Y-99568000D02*
X173391000Y-101128000D01*
X173391000Y-103088000D02*
X173391000Y-104648000D01*
X173431000Y-99598000D02*
X173431000Y-101128000D01*
X173431000Y-103088000D02*
X173431000Y-104618000D01*
X173471000Y-99630000D02*
X173471000Y-101128000D01*
X173471000Y-103088000D02*
X173471000Y-104586000D01*
X173511000Y-99663000D02*
X173511000Y-101128000D01*
X173511000Y-103088000D02*
X173511000Y-104553000D01*
X173551000Y-99697000D02*
X173551000Y-101128000D01*
X173551000Y-103088000D02*
X173551000Y-104519000D01*
X173591000Y-99733000D02*
X173591000Y-101128000D01*
X173591000Y-103088000D02*
X173591000Y-104483000D01*
X173631000Y-99769000D02*
X173631000Y-101128000D01*
X173631000Y-103088000D02*
X173631000Y-104447000D01*
X173671000Y-99807000D02*
X173671000Y-104409000D01*
X173711000Y-99846000D02*
X173711000Y-104370000D01*
X173751000Y-99886000D02*
X173751000Y-104330000D01*
X173791000Y-99928000D02*
X173791000Y-104288000D01*
X173831000Y-99971000D02*
X173831000Y-104245000D01*
X173871000Y-100016000D02*
X173871000Y-104200000D01*
X173911000Y-100063000D02*
X173911000Y-104153000D01*
X173951000Y-100111000D02*
X173951000Y-104105000D01*
X173991000Y-100162000D02*
X173991000Y-104054000D01*
X174031000Y-100214000D02*
X174031000Y-104002000D01*
X174071000Y-100269000D02*
X174071000Y-103947000D01*
X174111000Y-100327000D02*
X174111000Y-103889000D01*
X174151000Y-100387000D02*
X174151000Y-103829000D01*
X174191000Y-100450000D02*
X174191000Y-103766000D01*
X174231000Y-100517000D02*
X174231000Y-103699000D01*
X174271000Y-100588000D02*
X174271000Y-103628000D01*
X174311000Y-100663000D02*
X174311000Y-103553000D01*
X174351000Y-100744000D02*
X174351000Y-103472000D01*
X174391000Y-100830000D02*
X174391000Y-103386000D01*
X174431000Y-100924000D02*
X174431000Y-103292000D01*
X174471000Y-101027000D02*
X174471000Y-103189000D01*
X174511000Y-101142000D02*
X174511000Y-103074000D01*
X174551000Y-101274000D02*
X174551000Y-102942000D01*
X174591000Y-101432000D02*
X174591000Y-102784000D01*
X174631000Y-101640000D02*
X174631000Y-102576000D01*
X167980000Y-102108000D02*
X169180000Y-102108000D01*
X168580000Y-101458000D02*
X168580000Y-102758000D01*
X153438000Y-89590000D02*
X149838000Y-89590000D01*
X153476478Y-89601522D02*
G75*
G02X151638000Y-94040000I-1838478J-1838478D01*
G01*
X149799522Y-89601522D02*
G75*
G03X151638000Y-94040000I1838478J-1838478D01*
G01*
X148209000Y-85725000D02*
X140589000Y-85725000D01*
X140589000Y-106045000D02*
X148209000Y-106045000D01*
X141859000Y-106045000D02*
X141859000Y-85725000D01*
X148209000Y-85725000D02*
X148209000Y-106045000D01*
X140589000Y-85725000D02*
X140589000Y-106045000D01*
X160872000Y-90222000D02*
X160872000Y-94142000D01*
X158152000Y-90222000D02*
X158152000Y-94142000D01*
X160872000Y-90222000D02*
X160262000Y-90222000D01*
X158762000Y-90222000D02*
X158152000Y-90222000D01*
X160872000Y-94142000D02*
X160262000Y-94142000D01*
X158762000Y-94142000D02*
X158152000Y-94142000D01*
X165580000Y-95968000D02*
X165580000Y-98088000D01*
X165580000Y-98088000D02*
X169700000Y-98088000D01*
X169700000Y-98088000D02*
X169700000Y-95968000D01*
X169700000Y-95968000D02*
X165580000Y-95968000D01*
X164810000Y-97028000D02*
X165580000Y-97028000D01*
X170470000Y-97028000D02*
X169700000Y-97028000D01*
X166240000Y-95968000D02*
X166240000Y-98088000D01*
X159810000Y-98778000D02*
X157690000Y-98778000D01*
X157690000Y-98778000D02*
X157690000Y-102898000D01*
X157690000Y-102898000D02*
X159810000Y-102898000D01*
X159810000Y-102898000D02*
X159810000Y-98778000D01*
X158750000Y-98008000D02*
X158750000Y-98778000D01*
X158750000Y-103668000D02*
X158750000Y-102898000D01*
X159810000Y-99438000D02*
X157690000Y-99438000D01*
X176403000Y-110744000D02*
X184023000Y-110744000D01*
X184023000Y-90424000D02*
X176403000Y-90424000D01*
X182753000Y-90424000D02*
X182753000Y-110744000D01*
X176403000Y-110744000D02*
X176403000Y-90424000D01*
X184023000Y-110744000D02*
X184023000Y-90424000D01*
X170760000Y-93240000D02*
X170760000Y-89640000D01*
X170748478Y-93278478D02*
G75*
G02X166310000Y-91440000I-1838478J1838478D01*
G01*
X170748478Y-89601522D02*
G75*
G03X166310000Y-91440000I-1838478J-1838478D01*
G01*
X156090000Y-98840000D02*
X156090000Y-97340000D01*
X156090000Y-97340000D02*
X155990000Y-97340000D01*
X155990000Y-97340000D02*
X155990000Y-95440000D01*
X149190000Y-98840000D02*
X149190000Y-97340000D01*
X149190000Y-97340000D02*
X149290000Y-97340000D01*
X149290000Y-97340000D02*
X149290000Y-96240000D01*
X176590000Y-87690000D02*
X176590000Y-85030000D01*
X158750000Y-87690000D02*
X176590000Y-87690000D01*
X158750000Y-85030000D02*
X176590000Y-85030000D01*
X158750000Y-87690000D02*
X158750000Y-85030000D01*
X157480000Y-87690000D02*
X156150000Y-87690000D01*
X156150000Y-87690000D02*
X156150000Y-86360000D01*
X167700000Y-111820000D02*
X167700000Y-109160000D01*
X149860000Y-111820000D02*
X167700000Y-111820000D01*
X149860000Y-109160000D02*
X167700000Y-109160000D01*
X149860000Y-111820000D02*
X149860000Y-109160000D01*
X148590000Y-111820000D02*
X147260000Y-111820000D01*
X147260000Y-111820000D02*
X147260000Y-110490000D01*
X168970000Y-109280000D02*
X168970000Y-106620000D01*
X161290000Y-109280000D02*
X168970000Y-109280000D01*
X161290000Y-106620000D02*
X168970000Y-106620000D01*
X161290000Y-109280000D02*
X161290000Y-106620000D01*
X160020000Y-109280000D02*
X158690000Y-109280000D01*
X158690000Y-109280000D02*
X158690000Y-107950000D01*
D11*
X178181000Y-89852500D02*
X184404000Y-89852500D01*
X178181000Y-83629500D02*
X178181000Y-89852500D01*
X146621500Y-106362500D02*
X146621500Y-112585500D01*
X140462000Y-106362500D02*
X146621500Y-106362500D01*
X140400000Y-83610000D02*
X140400000Y-106360000D01*
X140400000Y-83610000D02*
X178150000Y-83610000D01*
X146650000Y-112610000D02*
X184400000Y-112610000D01*
X184400000Y-89860000D02*
X184400000Y-112610000D01*
D13*
X165690000Y-105381000D02*
X161970000Y-105381000D01*
X165690000Y-103661000D02*
X161970000Y-103661000D01*
X171860000Y-93935000D02*
X171860000Y-90215000D01*
X173580000Y-93935000D02*
X173580000Y-90215000D01*
X162970000Y-103841000D02*
X162970000Y-100121000D01*
X164690000Y-103841000D02*
X164690000Y-100121000D01*
X164240000Y-93935000D02*
X164240000Y-90215000D01*
X165960000Y-93935000D02*
X165960000Y-90215000D01*
X160430000Y-103841000D02*
X160430000Y-100121000D01*
X162150000Y-103841000D02*
X162150000Y-100121000D01*
X161700000Y-93935000D02*
X161700000Y-90215000D01*
X163420000Y-93935000D02*
X163420000Y-90215000D01*
D11*
X174077334Y-98401143D02*
X174029715Y-98448762D01*
X173886858Y-98496381D01*
X173791620Y-98496381D01*
X173648762Y-98448762D01*
X173553524Y-98353524D01*
X173505905Y-98258286D01*
X173458286Y-98067810D01*
X173458286Y-97924952D01*
X173505905Y-97734476D01*
X173553524Y-97639238D01*
X173648762Y-97544000D01*
X173791620Y-97496381D01*
X173886858Y-97496381D01*
X174029715Y-97544000D01*
X174077334Y-97591619D01*
X175029715Y-98496381D02*
X174458286Y-98496381D01*
X174744000Y-98496381D02*
X174744000Y-97496381D01*
X174648762Y-97639238D01*
X174553524Y-97734476D01*
X174458286Y-97782095D01*
X155352762Y-90463619D02*
X155257524Y-90416000D01*
X155162286Y-90320762D01*
X155019429Y-90177905D01*
X154924190Y-90130286D01*
X154828952Y-90130286D01*
X154876571Y-90368381D02*
X154781333Y-90320762D01*
X154686095Y-90225524D01*
X154638476Y-90035048D01*
X154638476Y-89701714D01*
X154686095Y-89511238D01*
X154781333Y-89416000D01*
X154876571Y-89368381D01*
X155067048Y-89368381D01*
X155162286Y-89416000D01*
X155257524Y-89511238D01*
X155305143Y-89701714D01*
X155305143Y-90035048D01*
X155257524Y-90225524D01*
X155162286Y-90320762D01*
X155067048Y-90368381D01*
X154876571Y-90368381D01*
X156257524Y-90368381D02*
X155686095Y-90368381D01*
X155971809Y-90368381D02*
X155971809Y-89368381D01*
X155876571Y-89511238D01*
X155781333Y-89606476D01*
X155686095Y-89654095D01*
X141271667Y-84161381D02*
X141271667Y-84875667D01*
X141224047Y-85018524D01*
X141128809Y-85113762D01*
X140985952Y-85161381D01*
X140890714Y-85161381D01*
X142176429Y-84161381D02*
X141985952Y-84161381D01*
X141890714Y-84209000D01*
X141843095Y-84256619D01*
X141747857Y-84399476D01*
X141700238Y-84589952D01*
X141700238Y-84970905D01*
X141747857Y-85066143D01*
X141795476Y-85113762D01*
X141890714Y-85161381D01*
X142081191Y-85161381D01*
X142176429Y-85113762D01*
X142224048Y-85066143D01*
X142271667Y-84970905D01*
X142271667Y-84732810D01*
X142224048Y-84637571D01*
X142176429Y-84589952D01*
X142081191Y-84542333D01*
X141890714Y-84542333D01*
X141795476Y-84589952D01*
X141747857Y-84637571D01*
X141700238Y-84732810D01*
X158583334Y-89344143D02*
X158535715Y-89391762D01*
X158392858Y-89439381D01*
X158297620Y-89439381D01*
X158154762Y-89391762D01*
X158059524Y-89296524D01*
X158011905Y-89201286D01*
X157964286Y-89010810D01*
X157964286Y-88867952D01*
X158011905Y-88677476D01*
X158059524Y-88582238D01*
X158154762Y-88487000D01*
X158297620Y-88439381D01*
X158392858Y-88439381D01*
X158535715Y-88487000D01*
X158583334Y-88534619D01*
X158964286Y-88534619D02*
X159011905Y-88487000D01*
X159107143Y-88439381D01*
X159345239Y-88439381D01*
X159440477Y-88487000D01*
X159488096Y-88534619D01*
X159535715Y-88629857D01*
X159535715Y-88725095D01*
X159488096Y-88867952D01*
X158916667Y-89439381D01*
X159535715Y-89439381D01*
X167028905Y-97480381D02*
X167028905Y-96480381D01*
X167267000Y-96480381D01*
X167409858Y-96528000D01*
X167505096Y-96623238D01*
X167552715Y-96718476D01*
X167600334Y-96908952D01*
X167600334Y-97051810D01*
X167552715Y-97242286D01*
X167505096Y-97337524D01*
X167409858Y-97432762D01*
X167267000Y-97480381D01*
X167028905Y-97480381D01*
X167981286Y-96575619D02*
X168028905Y-96528000D01*
X168124143Y-96480381D01*
X168362239Y-96480381D01*
X168457477Y-96528000D01*
X168505096Y-96575619D01*
X168552715Y-96670857D01*
X168552715Y-96766095D01*
X168505096Y-96908952D01*
X167933667Y-97480381D01*
X168552715Y-97480381D01*
X159202381Y-101957095D02*
X158202381Y-101957095D01*
X158202381Y-101719000D01*
X158250000Y-101576142D01*
X158345238Y-101480904D01*
X158440476Y-101433285D01*
X158630952Y-101385666D01*
X158773810Y-101385666D01*
X158964286Y-101433285D01*
X159059524Y-101480904D01*
X159154762Y-101576142D01*
X159202381Y-101719000D01*
X159202381Y-101957095D01*
X158202381Y-101052333D02*
X158202381Y-100433285D01*
X158583333Y-100766619D01*
X158583333Y-100623761D01*
X158630952Y-100528523D01*
X158678571Y-100480904D01*
X158773810Y-100433285D01*
X159011905Y-100433285D01*
X159107143Y-100480904D01*
X159154762Y-100528523D01*
X159202381Y-100623761D01*
X159202381Y-100909476D01*
X159154762Y-101004714D01*
X159107143Y-101052333D01*
X177057727Y-111212381D02*
X177057727Y-111926667D01*
X177010107Y-112069524D01*
X176914869Y-112164762D01*
X176772012Y-112212381D01*
X176676774Y-112212381D01*
X178057727Y-112212381D02*
X177486298Y-112212381D01*
X177772012Y-112212381D02*
X177772012Y-111212381D01*
X177676774Y-111355238D01*
X177581536Y-111450476D01*
X177486298Y-111498095D01*
X167917905Y-95448381D02*
X167917905Y-94448381D01*
X168156000Y-94448381D01*
X168298858Y-94496000D01*
X168394096Y-94591238D01*
X168441715Y-94686476D01*
X168489334Y-94876952D01*
X168489334Y-95019810D01*
X168441715Y-95210286D01*
X168394096Y-95305524D01*
X168298858Y-95400762D01*
X168156000Y-95448381D01*
X167917905Y-95448381D01*
X169441715Y-95448381D02*
X168870286Y-95448381D01*
X169156000Y-95448381D02*
X169156000Y-94448381D01*
X169060762Y-94591238D01*
X168965524Y-94686476D01*
X168870286Y-94734095D01*
X157130762Y-105709619D02*
X157035524Y-105662000D01*
X156940286Y-105566762D01*
X156797429Y-105423905D01*
X156702190Y-105376286D01*
X156606952Y-105376286D01*
X156654571Y-105614381D02*
X156559333Y-105566762D01*
X156464095Y-105471524D01*
X156416476Y-105281048D01*
X156416476Y-104947714D01*
X156464095Y-104757238D01*
X156559333Y-104662000D01*
X156654571Y-104614381D01*
X156845048Y-104614381D01*
X156940286Y-104662000D01*
X157035524Y-104757238D01*
X157083143Y-104947714D01*
X157083143Y-105281048D01*
X157035524Y-105471524D01*
X156940286Y-105566762D01*
X156845048Y-105614381D01*
X156654571Y-105614381D01*
X157464095Y-104709619D02*
X157511714Y-104662000D01*
X157606952Y-104614381D01*
X157845048Y-104614381D01*
X157940286Y-104662000D01*
X157987905Y-104709619D01*
X158035524Y-104804857D01*
X158035524Y-104900095D01*
X157987905Y-105042952D01*
X157416476Y-105614381D01*
X158035524Y-105614381D01*
X154816667Y-85812381D02*
X154816667Y-86526667D01*
X154769047Y-86669524D01*
X154673809Y-86764762D01*
X154530952Y-86812381D01*
X154435714Y-86812381D01*
X155245238Y-85907619D02*
X155292857Y-85860000D01*
X155388095Y-85812381D01*
X155626191Y-85812381D01*
X155721429Y-85860000D01*
X155769048Y-85907619D01*
X155816667Y-86002857D01*
X155816667Y-86098095D01*
X155769048Y-86240952D01*
X155197619Y-86812381D01*
X155816667Y-86812381D01*
X148002667Y-108164381D02*
X148002667Y-108878667D01*
X147955047Y-109021524D01*
X147859809Y-109116762D01*
X147716952Y-109164381D01*
X147621714Y-109164381D01*
X148907429Y-108497714D02*
X148907429Y-109164381D01*
X148669333Y-108116762D02*
X148431238Y-108831048D01*
X149050286Y-108831048D01*
X157356667Y-107402381D02*
X157356667Y-108116667D01*
X157309047Y-108259524D01*
X157213809Y-108354762D01*
X157070952Y-108402381D01*
X156975714Y-108402381D01*
X158309048Y-107402381D02*
X157832857Y-107402381D01*
X157785238Y-107878571D01*
X157832857Y-107830952D01*
X157928095Y-107783333D01*
X158166191Y-107783333D01*
X158261429Y-107830952D01*
X158309048Y-107878571D01*
X158356667Y-107973810D01*
X158356667Y-108211905D01*
X158309048Y-108307143D01*
X158261429Y-108354762D01*
X158166191Y-108402381D01*
X157928095Y-108402381D01*
X157832857Y-108354762D01*
X157785238Y-108307143D01*
X163663334Y-104973381D02*
X163330000Y-104497190D01*
X163091905Y-104973381D02*
X163091905Y-103973381D01*
X163472858Y-103973381D01*
X163568096Y-104021000D01*
X163615715Y-104068619D01*
X163663334Y-104163857D01*
X163663334Y-104306714D01*
X163615715Y-104401952D01*
X163568096Y-104449571D01*
X163472858Y-104497190D01*
X163091905Y-104497190D01*
X164615715Y-104973381D02*
X164044286Y-104973381D01*
X164330000Y-104973381D02*
X164330000Y-103973381D01*
X164234762Y-104116238D01*
X164139524Y-104211476D01*
X164044286Y-104259095D01*
X173172381Y-92241666D02*
X172696190Y-92575000D01*
X173172381Y-92813095D02*
X172172381Y-92813095D01*
X172172381Y-92432142D01*
X172220000Y-92336904D01*
X172267619Y-92289285D01*
X172362857Y-92241666D01*
X172505714Y-92241666D01*
X172600952Y-92289285D01*
X172648571Y-92336904D01*
X172696190Y-92432142D01*
X172696190Y-92813095D01*
X172267619Y-91860714D02*
X172220000Y-91813095D01*
X172172381Y-91717857D01*
X172172381Y-91479761D01*
X172220000Y-91384523D01*
X172267619Y-91336904D01*
X172362857Y-91289285D01*
X172458095Y-91289285D01*
X172600952Y-91336904D01*
X173172381Y-91908333D01*
X173172381Y-91289285D01*
X164282381Y-102147666D02*
X163806190Y-102481000D01*
X164282381Y-102719095D02*
X163282381Y-102719095D01*
X163282381Y-102338142D01*
X163330000Y-102242904D01*
X163377619Y-102195285D01*
X163472857Y-102147666D01*
X163615714Y-102147666D01*
X163710952Y-102195285D01*
X163758571Y-102242904D01*
X163806190Y-102338142D01*
X163806190Y-102719095D01*
X163282381Y-101814333D02*
X163282381Y-101195285D01*
X163663333Y-101528619D01*
X163663333Y-101385761D01*
X163710952Y-101290523D01*
X163758571Y-101242904D01*
X163853810Y-101195285D01*
X164091905Y-101195285D01*
X164187143Y-101242904D01*
X164234762Y-101290523D01*
X164282381Y-101385761D01*
X164282381Y-101671476D01*
X164234762Y-101766714D01*
X164187143Y-101814333D01*
X165552381Y-92241666D02*
X165076190Y-92575000D01*
X165552381Y-92813095D02*
X164552381Y-92813095D01*
X164552381Y-92432142D01*
X164600000Y-92336904D01*
X164647619Y-92289285D01*
X164742857Y-92241666D01*
X164885714Y-92241666D01*
X164980952Y-92289285D01*
X165028571Y-92336904D01*
X165076190Y-92432142D01*
X165076190Y-92813095D01*
X164885714Y-91384523D02*
X165552381Y-91384523D01*
X164504762Y-91622619D02*
X165219048Y-91860714D01*
X165219048Y-91241666D01*
X161742381Y-102147666D02*
X161266190Y-102481000D01*
X161742381Y-102719095D02*
X160742381Y-102719095D01*
X160742381Y-102338142D01*
X160790000Y-102242904D01*
X160837619Y-102195285D01*
X160932857Y-102147666D01*
X161075714Y-102147666D01*
X161170952Y-102195285D01*
X161218571Y-102242904D01*
X161266190Y-102338142D01*
X161266190Y-102719095D01*
X160742381Y-101242904D02*
X160742381Y-101719095D01*
X161218571Y-101766714D01*
X161170952Y-101719095D01*
X161123333Y-101623857D01*
X161123333Y-101385761D01*
X161170952Y-101290523D01*
X161218571Y-101242904D01*
X161313810Y-101195285D01*
X161551905Y-101195285D01*
X161647143Y-101242904D01*
X161694762Y-101290523D01*
X161742381Y-101385761D01*
X161742381Y-101623857D01*
X161694762Y-101719095D01*
X161647143Y-101766714D01*
X163012381Y-92241666D02*
X162536190Y-92575000D01*
X163012381Y-92813095D02*
X162012381Y-92813095D01*
X162012381Y-92432142D01*
X162060000Y-92336904D01*
X162107619Y-92289285D01*
X162202857Y-92241666D01*
X162345714Y-92241666D01*
X162440952Y-92289285D01*
X162488571Y-92336904D01*
X162536190Y-92432142D01*
X162536190Y-92813095D01*
X162012381Y-91384523D02*
X162012381Y-91575000D01*
X162060000Y-91670238D01*
X162107619Y-91717857D01*
X162250476Y-91813095D01*
X162440952Y-91860714D01*
X162821905Y-91860714D01*
X162917143Y-91813095D01*
X162964762Y-91765476D01*
X163012381Y-91670238D01*
X163012381Y-91479761D01*
X162964762Y-91384523D01*
X162917143Y-91336904D01*
X162821905Y-91289285D01*
X162583810Y-91289285D01*
X162488571Y-91336904D01*
X162440952Y-91384523D01*
X162393333Y-91479761D01*
X162393333Y-91670238D01*
X162440952Y-91765476D01*
X162488571Y-91813095D01*
X162583810Y-91860714D01*
M02*
